<svg version="1.2" xmlns="http://www.w3.org/2000/svg" viewBox="0 0 69 69" width="69" height="69"><style>.a{fill:#0571b5}.b{fill:#05609b}.c{fill:#5594cc}.d{fill:#75a7d5}.e{fill:#ececf1}.f{fill:#d4d4da}.g{fill:#babac0}.h{fill:#fff5f5}.i{fill:#4bcd5c}.j{fill:#00c53b}.k{fill:#ff5757}.l{fill:#ff4343}.m{fill:#fff}</style><path class="a" d="m69 34.4c0 11.5-5.6 21.6-14.1 27.9-0.7 0.5-1.4-0.1-2.1 0.3-5.3 3.3-11.5 5.3-18.2 5.3-4.7 0-9.2-0.9-13.3-2.6-0.7-0.3-1.5 0.5-2.2 0.1-3.1-1.6-6-3.6-8.4-5.9-0.3-0.3-0.5-0.7-0.5-1.1v-48.4c6.3-6.2 14.8-10 24.3-10 19 0 34.5 15.4 34.5 34.4z"/><path class="b" d="m58.1 24.4v35.3c-6.2 5.8-14.5 9.3-23.6 9.3-5.5 0-10.8-1.3-15.4-3.6v-5.9h-8.4c-6.6-6.3-10.7-15.2-10.7-25 0-11 5.1-20.8 13.1-27.1h14.7l1.1 2 9.1 9.1 2.2 1.3v2.6h15.9c1.1 0 2 0.9 2 2z"/><path class="c" d="m34.5 19.2v44c0 1.2-0.9 2.1-2 2.1h-6.2c-1.1 0-2-0.9-2-2.1v-44c0-1.1 0.9-2 2-2h6.2c1.1 0 2 0.9 2 2z"/><path class="d" d="m63.3 19.2v44c0 1.2-0.9 2.1-2 2.1h-30.7c-1.1 0-2-0.9-2-2.1v-44c0-1.1 0.9-2 2-2h30.7c1.1 0 2 0.9 2 2z"/><path class="c" d="m60 40.7c0 0.6-0.5 1.1-1.1 1.1h-25.9c-0.6 0-1-0.5-1-1.1 0-0.5 0.4-1 1-1h25.9c0.6 0 1.1 0.5 1.1 1zm-1.1-5.5h-25.9c-0.6 0-1 0.5-1 1.1 0 0.5 0.4 1 1 1h25.9c0.6 0 1.1-0.5 1.1-1 0-0.6-0.5-1.1-1.1-1.1zm-11.7 13.5h-14.2c-0.6 0-1 0.5-1 1 0 0.6 0.4 1 1 1h14.2c0.5 0 1-0.4 1-1 0-0.5-0.5-1-1-1zm11.7-4.5h-25.9c-0.6 0-1 0.5-1 1 0 0.6 0.4 1 1 1h25.9c0.6 0 1.1-0.4 1.1-1 0-0.5-0.5-1-1.1-1zm0-13.5h-25.9c-0.6 0-1 0.5-1 1.1 0 0.5 0.4 1 1 1h25.9c0.6 0 1.1-0.5 1.1-1 0-0.6-0.5-1.1-1.1-1.1zm0-8.8h-25.9c-0.6 0-1 0.4-1 1 0 0.5 0.4 1 1 1h25.9c0.6 0 1.1-0.5 1.1-1 0-0.6-0.5-1-1.1-1zm0 4.4h-25.9c-0.6 0-1 0.4-1 1 0 0.5 0.4 1 1 1h25.9c0.6 0 1.1-0.5 1.1-1 0-0.6-0.5-1-1.1-1z"/><path class="e" d="m46.9 14.6v37.8c0 1-0.9 1.9-1.9 1.9h-37c-1.1 0-1.9-0.9-1.9-1.9v-48.3c0-1.1 0.8-1.9 1.9-1.9h26.5l1.1 1.9 9.1 9.1z"/><path class="f" d="m8.6 54.3h-3.6c-1.1 0-1.9-0.9-1.9-1.9v-48.3c0-1.1 0.8-1.9 1.9-1.9h3.6c-1 0-1.8 0.8-1.8 1.9v48.3c0 1 0.8 1.9 1.8 1.9z"/><path class="g" d="m39 40.8c0 0.5-0.5 1-1 1h-26c-0.5 0-1-0.5-1-1 0-0.6 0.5-1 1-1h26c0.5 0 1 0.4 1 1zm-14.7 3.5h-12.3c-0.5 0-1 0.4-1 1 0 0.5 0.5 1 1 1h12.3c0.6 0 1-0.5 1-1 0-0.6-0.4-1-1-1zm13.7-9h-26c-0.5 0-1 0.4-1 1 0 0.6 0.5 1 1 1h26c0.5 0 1-0.4 1-1 0-0.6-0.5-1-1-1zm0-13.5h-26c-0.5 0-1 0.5-1 1 0 0.6 0.5 1 1 1h26c0.5 0 1-0.4 1-1 0-0.5-0.5-1-1-1zm0-4.4h-26c-0.5 0-1 0.5-1 1 0 0.6 0.5 1 1 1h26c0.5 0 1-0.4 1-1 0-0.5-0.5-1-1-1zm0 8.9h-26c-0.5 0-1 0.5-1 1 0 0.6 0.5 1 1 1h26c0.5 0 1-0.4 1-1 0-0.5-0.5-1-1-1zm0 4.5h-26c-0.5 0-1 0.4-1 1 0 0.6 0.5 1 1 1h26c0.5 0 1-0.4 1-1 0-0.6-0.5-1-1-1z"/><path class="h" d="m46.9 14.6h-10.6c-1 0-1.8-0.8-1.8-1.9v-10.5z"/><path class="i" d="m45.4 47q-0.2 0.3-0.4 0.3-1.6 0.5-3.3 0.5c-5.9 0-10.7-4.8-10.8-10.7 0-2.7 1-5.1 2.6-7q0.3-0.3 0.6-0.4 1.6-0.5 3.3-0.5c5.8 0 10.6 4.8 10.7 10.7 0 2.7-1 5.2-2.7 7.1z"/><path class="j" d="m45.5 46.9c-1.9 2.4-4.9 3.8-8.2 3.8-6 0-10.8-4.8-10.8-10.7 0-4.9 3.3-9 7.7-10.4-1.6 1.9-2.5 4.3-2.5 7 0 6 4.8 10.8 10.7 10.8q1.7 0 3.1-0.5z"/><path class="k" d="m66.4 65.3q-0.2 0.2-0.5 0.3-1.6 0.5-3.3 0.5c-5.9 0-10.7-4.8-10.7-10.7-0.1-2.7 0.9-5.2 2.5-7.1q0.3-0.3 0.7-0.4 1.5-0.5 3.2-0.5c5.9 0.1 10.7 4.9 10.7 10.8 0 2.7-1 5.2-2.6 7.1z"/><path class="l" d="m66.5 65.2c-2 2.3-5 3.8-8.3 3.8-5.9 0-10.8-4.8-10.8-10.8 0-4.8 3.3-9 7.7-10.3-1.6 1.9-2.5 4.3-2.5 7 0 5.9 4.8 10.7 10.8 10.7q1.6 0 3.1-0.4z"/><path class="m" d="m43.8 35.6c0.4 0.3 0.4 1 0 1.4l-7.4 7.4q-0.3 0.3-0.7 0.3-0.4 0-0.7-0.3l-4.2-4.2c-0.4-0.4-0.4-1 0-1.4 0.4-0.4 1-0.4 1.4 0l3.5 3.4 6.7-6.6c0.3-0.4 1-0.4 1.4 0zm15.8 22.6l3.7-3.6c0.4-0.4 0.4-1.1 0-1.5-0.4-0.4-1-0.4-1.4 0l-3.7 3.7-3.6-3.7c-0.4-0.4-1.1-0.4-1.5 0-0.4 0.4-0.4 1.1 0 1.5l3.7 3.6-3.7 3.7c-0.4 0.4-0.4 1 0 1.4q0.3 0.3 0.7 0.3 0.4 0 0.8-0.3l3.6-3.6 3.7 3.6q0.3 0.3 0.7 0.3 0.4 0 0.7-0.3c0.4-0.4 0.4-1 0-1.4zm-1.1-14c0 0.5 0.4 1 1 1 0.5 0 1-0.5 1-1 0-5-4-9-9-9-0.5 0-1 0.5-1 1 0 0.6 0.5 1 1 1 3.8 0 7 3.1 7 7z"/></svg>