<svg version="1.2" xmlns="http://www.w3.org/2000/svg" viewBox="0 0 70 70" width="70" height="70"><style>.a{fill:#64b5f6}.b{opacity:.1}.c{opacity:.2;fill:#fff}.d{fill:#fff}.e{fill:#e57373}.f{fill:#1565c0}.g{fill:#ffb74d}</style><path class="a" d="m67.3 0h-64.8q-0.5 0-1 0.2-0.4 0.2-0.8 0.5-0.3 0.4-0.5 0.8-0.2 0.5-0.2 1v52.5q0 0.5 0.2 1 0.2 0.4 0.5 0.8 0.4 0.3 0.8 0.5 0.5 0.2 1 0.2h34.4q0.4 0 0.7-0.1 0.3-0.1 0.6-0.2 0.3-0.2 0.5-0.4 0.2-0.3 0.4-0.6 0.8-1.4 2-2.5 1.1-1.2 2.6-2 1.4-0.8 3-1.3 1.5-0.4 3.2-0.4 1.2 0 2.4 0.2 1.2 0.3 2.4 0.7 1.1 0.5 2.1 1.2 1 0.7 1.9 1.6 0.3 0.3 0.5 0.5 0.3 0.3 0.6 0.7 0.2 0.3 0.4 0.6 0.3 0.3 0.5 0.7 0.1 0.3 0.4 0.5 0.2 0.2 0.5 0.4 0.3 0.2 0.6 0.3 0.3 0 0.6 0.1h4.5q0.5-0.1 1-0.2 0.5-0.2 0.8-0.6 0.4-0.3 0.6-0.8 0.1-0.5 0.1-0.9v-52.5q0-0.5-0.1-1-0.2-0.4-0.6-0.8-0.3-0.3-0.8-0.5-0.5-0.2-1-0.2z"/><path class="b" d="m2.5 2.5v52.5q0 0.5 0.2 1 0.2 0.4 0.5 0.8 0.4 0.3 0.8 0.5 0.5 0.2 1 0.2h-2.5q-0.5 0-1-0.2-0.4-0.2-0.8-0.5-0.3-0.4-0.5-0.8-0.2-0.5-0.2-1v-52.5q0-0.5 0.2-1 0.2-0.4 0.5-0.8 0.4-0.3 0.8-0.5 0.5-0.2 1-0.2h2.5q-0.5 0-1 0.2-0.4 0.2-0.8 0.5-0.3 0.4-0.5 0.8-0.2 0.5-0.2 1z"/><path class="c" d="m69.8 2.5v52.5q0 0.5-0.1 1-0.2 0.4-0.6 0.8-0.3 0.3-0.8 0.5-0.5 0.2-1 0.2h-2.4q0.5 0 0.9-0.2 0.5-0.2 0.8-0.5 0.4-0.4 0.6-0.8 0.1-0.5 0.1-1v-52.5q0-0.5-0.1-1-0.2-0.4-0.6-0.8-0.3-0.3-0.8-0.5-0.4-0.2-0.9-0.2h2.4q0.5 0 1 0.2 0.5 0.2 0.8 0.5 0.4 0.4 0.6 0.8 0.1 0.5 0.1 1z"/><path class="d" d="m59.9 7.5h-49.9q-0.5 0-1 0.2-0.4 0.2-0.8 0.5-0.3 0.4-0.5 0.8-0.2 0.5-0.2 1v37.5q0 0.5 0.2 1 0.2 0.4 0.5 0.8 0.4 0.3 0.8 0.5 0.5 0.2 1 0.2h39.9c0.7 0 1.3-0.3 1.8-0.7 0.4-0.5 0.7-1.1 0.7-1.8 0-0.7-0.3-1.3-0.7-1.8-0.5-0.4-1.1-0.7-1.8-0.7-3 0-5.8-1.8-6.9-4.6-1.2-2.8-0.5-6.1 1.6-8.2 2.1-2.1 5.4-2.8 8.2-1.6 2.7 1.1 4.6 3.9 4.6 6.9 0 0.7 0.2 1.3 0.7 1.8 0.5 0.4 1.1 0.7 1.8 0.7 0.6 0 1.3-0.3 1.7-0.7 0.5-0.5 0.8-1.1 0.8-1.8v-27.5q0-0.5-0.2-1-0.2-0.4-0.6-0.8-0.3-0.3-0.8-0.5-0.4-0.2-0.9-0.2z"/><path class="b" d="m62.4 10h-49.9q-0.5 0-1 0.2-0.4 0.2-0.8 0.5-0.3 0.4-0.5 0.8-0.2 0.5-0.2 1v37.5q-0.5 0-1-0.2-0.4-0.2-0.8-0.5-0.3-0.4-0.5-0.8-0.2-0.5-0.2-1v-37.5q0-0.5 0.2-1 0.2-0.4 0.5-0.8 0.4-0.3 0.8-0.5 0.5-0.2 1-0.2h49.9q0.5 0 0.9 0.2 0.5 0.2 0.8 0.5 0.4 0.4 0.6 0.8 0.2 0.5 0.2 1z"/><path class="e" d="m65 53.8q-0.3-0.5-0.6-1-0.3-0.5-0.6-0.9-0.3-0.5-0.7-0.9-0.3-0.4-0.7-0.8-1.3-1.3-2.7-2.3-1.4-0.9-3.1-1.6-1.6-0.7-3.3-1-1.7-0.3-3.4-0.3-2.3 0-4.5 0.6-2.2 0.6-4.1 1.8-2 1.1-3.6 2.7-1.6 1.7-2.8 3.6-0.6 1-1 2.1-0.5 1-0.8 2.1-0.3 1.2-0.5 2.3-0.2 1.1-0.2 2.3v5q0 0.5 0.2 1 0.2 0.4 0.6 0.8 0.3 0.3 0.8 0.5 0.4 0.2 0.9 0.2h30q0.5 0 0.9-0.2 0.5-0.2 0.8-0.5 0.4-0.4 0.6-0.8 0.1-0.5 0.1-1v-5q0.1-1.1-0.1-2.3-0.1-1.1-0.4-2.2-0.3-1.1-0.8-2.2-0.4-1-1-2z"/><path class="b" d="m60 48.3c-1.9-0.6-3.8-0.8-5.8-0.8-1.9 0.1-3.8 0.5-5.6 1.3-1.8 0.7-3.5 1.7-5 3-1.5 1.2-2.7 2.7-3.7 4.4q-0.6 1-1 2.1-0.5 1-0.8 2.1-0.3 1.2-0.5 2.3-0.2 1.1-0.2 2.3v5h-2.5q-0.5 0-0.9-0.2-0.5-0.2-0.8-0.5-0.4-0.4-0.6-0.8-0.2-0.5-0.2-1v-5q0-1.2 0.2-2.3 0.2-1.1 0.5-2.3 0.3-1.1 0.8-2.1 0.4-1.1 1-2.1 1.2-1.9 2.8-3.6 1.6-1.6 3.6-2.7 1.9-1.2 4.1-1.8 2.2-0.6 4.5-0.6 1.3 0 2.7 0.2 1.3 0.2 2.6 0.6 1.3 0.4 2.5 1 1.2 0.7 2.3 1.5z"/><g style="opacity:.1"><path  d="m37.4 22.5h-19.9c-0.7 0-1.3-0.3-1.8-0.7-0.5-0.5-0.7-1.1-0.7-1.8 0-0.7 0.2-1.3 0.7-1.8 0.5-0.4 1.1-0.7 1.8-0.7h19.9c0.7 0 1.3 0.3 1.8 0.7 0.4 0.5 0.7 1.1 0.7 1.8 0 0.7-0.3 1.3-0.7 1.8-0.5 0.4-1.1 0.7-1.8 0.7z"/></g><g style="opacity:.1"><path  d="m37.4 30h-19.9c-0.7 0-1.3-0.3-1.8-0.7-0.5-0.5-0.7-1.1-0.7-1.8 0-0.7 0.2-1.3 0.7-1.8 0.5-0.4 1.1-0.7 1.8-0.7h19.9c0.7 0 1.3 0.3 1.8 0.7 0.4 0.5 0.7 1.1 0.7 1.8 0 0.7-0.3 1.3-0.7 1.8-0.5 0.4-1.1 0.7-1.8 0.7z"/></g><g style="opacity:.1"><path  d="m34.9 37.5h-17.4c-0.7 0-1.3-0.3-1.8-0.7-0.5-0.5-0.7-1.1-0.7-1.8 0-0.7 0.2-1.3 0.7-1.8 0.5-0.4 1.1-0.7 1.8-0.7h17.4c0.7 0 1.3 0.3 1.8 0.7 0.5 0.5 0.7 1.1 0.7 1.8 0 0.7-0.2 1.3-0.7 1.8-0.5 0.4-1.1 0.7-1.8 0.7z"/></g><g style="opacity:.1"><path  d="m32.4 45h-14.9c-0.7 0-1.3-0.3-1.8-0.7-0.5-0.5-0.7-1.1-0.7-1.8 0-0.7 0.2-1.3 0.7-1.8 0.5-0.4 1.1-0.7 1.8-0.7h14.9c0.7 0 1.3 0.3 1.8 0.7 0.5 0.5 0.7 1.1 0.7 1.8 0 0.7-0.2 1.3-0.7 1.8-0.5 0.4-1.1 0.7-1.8 0.7z"/></g><g style="opacity:.1"><path fill-rule="evenodd" d="m52.4 22.5c-1.4 0-2.5-1.1-2.5-2.5 0-1.4 1.1-2.5 2.5-2.5 1.4 0 2.5 1.1 2.5 2.5 0 1.4-1.1 2.5-2.5 2.5z"/></g><g style="opacity:.1"><path fill-rule="evenodd" d="m44.9 22.5c-1.4 0-2.5-1.1-2.5-2.5 0-1.4 1.1-2.5 2.5-2.5 1.4 0 2.5 1.1 2.5 2.5 0 1.4-1.1 2.5-2.5 2.5z"/></g><path class="f" d="m37.4 20h-19.9c-0.7 0-1.3-0.3-1.8-0.7-0.5-0.5-0.7-1.1-0.7-1.8 0-0.7 0.2-1.3 0.7-1.8 0.5-0.4 1.1-0.7 1.8-0.7h19.9c0.7 0 1.3 0.3 1.8 0.7 0.4 0.5 0.7 1.1 0.7 1.8 0 0.7-0.3 1.3-0.7 1.8-0.5 0.4-1.1 0.7-1.8 0.7z"/><path class="f" d="m37.4 27.5h-19.9c-0.7 0-1.3-0.3-1.8-0.7-0.5-0.5-0.7-1.1-0.7-1.8 0-0.7 0.2-1.3 0.7-1.8 0.5-0.4 1.1-0.7 1.8-0.7h19.9c0.7 0 1.3 0.3 1.8 0.7 0.4 0.5 0.7 1.1 0.7 1.8 0 0.7-0.3 1.3-0.7 1.8-0.5 0.4-1.1 0.7-1.8 0.7z"/><path class="f" d="m34.9 35h-17.4c-0.7 0-1.3-0.3-1.8-0.7-0.5-0.5-0.7-1.1-0.7-1.8 0-0.7 0.2-1.3 0.7-1.8 0.5-0.4 1.1-0.7 1.8-0.7h17.4c0.7 0 1.3 0.3 1.8 0.7 0.5 0.5 0.7 1.1 0.7 1.8 0 0.7-0.2 1.3-0.7 1.8-0.5 0.4-1.1 0.7-1.8 0.7z"/><path class="f" d="m32.4 42.5h-14.9c-0.7 0-1.3-0.3-1.8-0.7-0.5-0.5-0.7-1.1-0.7-1.8 0-0.7 0.2-1.3 0.7-1.8 0.5-0.4 1.1-0.7 1.8-0.7h14.9c0.7 0 1.3 0.3 1.8 0.7 0.5 0.5 0.7 1.1 0.7 1.8 0 0.7-0.2 1.3-0.7 1.8-0.5 0.4-1.1 0.7-1.8 0.7z"/><path fill-rule="evenodd" class="f" d="m52.4 20c-1.4 0-2.5-1.1-2.5-2.5 0-1.4 1.1-2.5 2.5-2.5 1.4 0 2.5 1.1 2.5 2.5 0 1.4-1.1 2.5-2.5 2.5z"/><path fill-rule="evenodd" class="f" d="m44.9 20c-1.4 0-2.5-1.1-2.5-2.5 0-1.4 1.1-2.5 2.5-2.5 1.4 0 2.5 1.1 2.5 2.5 0 1.4-1.1 2.5-2.5 2.5z"/><path fill-rule="evenodd" class="g" d="m49.9 50c-6.9 0-12.5-5.6-12.5-12.5 0-6.9 5.6-12.5 12.5-12.5 6.9 0 12.5 5.6 12.5 12.5 0 6.9-5.6 12.5-12.5 12.5z"/><path class="b" d="m59.9 30q-0.8-0.6-1.7-1.1-0.9-0.4-1.9-0.8-0.9-0.3-1.9-0.4-1-0.2-2-0.2c-1.7 0-3.3 0.3-4.8 1-1.5 0.6-2.9 1.5-4 2.7-1.2 1.1-2.1 2.5-2.7 4-0.7 1.5-1 3.2-1 4.8q0 1 0.2 2 0.1 1 0.4 2 0.4 0.9 0.8 1.8 0.5 0.9 1.1 1.7c-2.9-2.2-4.7-5.5-5-9.1-0.2-3.6 1.1-7.2 3.7-9.7 2.5-2.6 6.1-3.9 9.7-3.7 3.6 0.3 6.9 2.1 9.1 5z"/></svg>