<svg version="1.2" xmlns="http://www.w3.org/2000/svg" viewBox="0 0 71 64" width="71" height="64"><style>.a{fill:#f2f2fc}.b{fill:#4bb9ec}.c{fill:#fdbf00}.d{fill:#f03800}.e{fill:#a3a3d1}.f{fill:#2c3b73}</style><path fill-rule="evenodd" class="a" d="m64.8 8.5h-57.8q-0.2 0-0.4 0-0.3 0.1-0.4 0.3-0.2 0.2-0.3 0.4-0.1 0.2-0.1 0.5v42c0 0.3 0.1 0.6 0.3 0.8 0.3 0.2 0.6 0.4 0.9 0.4 0.3 0 0.6-0.1 0.8-0.3 0.2-0.3 0.4-0.5 0.4-0.9l18.8 1.3q0 0.1 0 0.1 0 0.3 0.1 0.5 0.1 0.2 0.3 0.4 0.1 0.2 0.4 0.2 0.2 0.1 0.4 0.1h36.6q0.3 0 0.5-0.1 0.2 0 0.4-0.2 0.1-0.2 0.2-0.4 0.1-0.2 0.1-0.5v-43.4q0-0.3-0.1-0.5-0.1-0.2-0.2-0.4-0.2-0.2-0.4-0.3-0.2 0-0.5 0z"/><path fill-rule="evenodd" class="b" d="m11.8 13.3h24.1c0.7 0 1.2 0.5 1.2 1.2v14.5c0 0.6-0.5 1.2-1.2 1.2h-24.1c-0.6 0-1.2-0.6-1.2-1.2v-14.5c0-0.7 0.6-1.2 1.2-1.2z"/><path fill-rule="evenodd" class="b" d="m35.9 37.4h4.8c0.7 0 1.2 0.6 1.2 1.2v9.7c0 0.7-0.5 1.2-1.2 1.2h-4.8c-0.6 0-1.2-0.5-1.2-1.2v-9.7c0-0.6 0.6-1.2 1.2-1.2z"/><path fill-rule="evenodd" class="c" d="m45.6 32.6h4.8c0.6 0 1.2 0.5 1.2 1.2v14.5c0 0.7-0.6 1.2-1.2 1.2h-4.8c-0.7 0-1.3-0.5-1.3-1.2v-14.5c0-0.7 0.6-1.2 1.3-1.2z"/><path fill-rule="evenodd" class="d" d="m55.2 27.8h4.8c0.7 0 1.2 0.5 1.2 1.2v19.3c0 0.7-0.5 1.2-1.2 1.2h-4.8c-0.7 0-1.2-0.5-1.2-1.2v-19.3c0-0.7 0.5-1.2 1.2-1.2z"/><path fill-rule="evenodd" class="c" d="m12.3 47.9c-3-2.2-4.2-6-3.1-9.5 1.2-3.4 4.4-5.8 8-5.8 3.7 0 6.9 2.4 8.1 5.8 1.1 3.5-0.1 7.3-3.1 9.5q2.4 0.7 4.4 2.2 2.1 1.4 3.6 3.4 1.5 2 2.3 4.4 0.9 2.3 1 4.8 0 0.3-0.1 0.5-0.1 0.3-0.2 0.4-0.2 0.2-0.4 0.3-0.3 0.1-0.5 0.1h-30.1q-0.2 0-0.5-0.1-0.2-0.1-0.4-0.3-0.1-0.1-0.2-0.4-0.1-0.2-0.1-0.5 0.1-2.5 0.9-4.8 0.9-2.4 2.4-4.4 1.5-2 3.5-3.4 2.1-1.5 4.5-2.2z"/><path fill-rule="evenodd" class="e" d="m40.7 15.7h19.3c0.3 0 0.6-0.1 0.9-0.4 0.2-0.2 0.3-0.5 0.3-0.8 0-0.3-0.1-0.6-0.3-0.9-0.3-0.2-0.6-0.3-0.9-0.3h-19.3c-0.3 0-0.6 0.1-0.8 0.3-0.2 0.3-0.4 0.6-0.4 0.9 0 0.3 0.2 0.6 0.4 0.8 0.2 0.3 0.5 0.4 0.8 0.4z"/><path fill-rule="evenodd" class="e" d="m40.7 20.5h19.3c0.3 0 0.6-0.1 0.9-0.3 0.2-0.3 0.3-0.6 0.3-0.9 0-0.3-0.1-0.6-0.3-0.8-0.3-0.3-0.6-0.4-0.9-0.4h-19.3c-0.3 0-0.6 0.1-0.8 0.4-0.2 0.2-0.4 0.5-0.4 0.8 0 0.3 0.2 0.6 0.4 0.9 0.2 0.2 0.5 0.3 0.8 0.3z"/><path fill-rule="evenodd" class="e" d="m40.7 25.4h19.3c0.3 0 0.6-0.2 0.9-0.4 0.2-0.2 0.3-0.5 0.3-0.8 0-0.4-0.1-0.7-0.3-0.9-0.3-0.2-0.6-0.4-0.9-0.4h-19.3c-0.3 0-0.6 0.2-0.8 0.4-0.2 0.2-0.4 0.5-0.4 0.9 0 0.3 0.2 0.6 0.4 0.8 0.2 0.2 0.5 0.4 0.8 0.4z"/><path fill-rule="evenodd" class="f" d="m1 9.7h69.8v-8.5q0-0.2 0-0.5-0.1-0.2-0.3-0.3-0.2-0.2-0.4-0.3-0.2-0.1-0.5-0.1h-67.4q-0.2 0-0.5 0.1-0.2 0.1-0.4 0.3-0.1 0.1-0.2 0.3-0.1 0.3-0.1 0.5z"/></svg>