<svg version="1.2" xmlns="http://www.w3.org/2000/svg" viewBox="0 0 70 68" width="70" height="68"><style>.a{fill:#d1dafe}.b{fill:#8a9bea}.c{fill:#4269c4}.d{fill:#255299}.e{fill:#fff}.f{fill:#fbad3e}.g{fill:#b53016}.h{fill:#fa990e}.i{fill:#3a3a3a}.j{fill:#3d5e2a}.k{fill:#aec46e}.l{fill:#617f4d}</style><path class="a" d="m65.2 5.9v55.1c0 3-2.4 5.4-5.5 5.4h-49.8c-3.1 0-5.5-2.4-5.5-5.4v-55.1c0-3.1 2.4-5.5 5.5-5.5h49.8c3.1 0 5.5 2.4 5.5 5.5z"/><path class="b" d="m7.6 14.1c1.9-0.4 3.9-0.5 5.8-0.5 2 0 3.9 0.1 5.9 0.5-2 0.4-3.9 0.5-5.9 0.5-1.9 0-3.9-0.1-5.8-0.5z"/><path class="b" d="m7.6 18.2c1.9-0.4 3.9-0.5 5.8-0.5 2 0 3.9 0.1 5.9 0.5-2 0.4-3.9 0.5-5.9 0.5-1.9 0-3.9-0.1-5.8-0.5z"/><path class="b" d="m7.6 22.3c0.9-0.5 1.9-0.6 2.9-0.6 1 0 1.9 0.1 2.9 0.6-1 0.4-1.9 0.5-2.9 0.5-1 0-2-0.1-2.9-0.5z"/><path class="c" d="m65.2 5.9v5.7h-60.8v-5.7c0-3.1 2.4-5.5 5.5-5.5h49.8c3.1 0 5.5 2.4 5.5 5.5z"/><path fill-rule="evenodd" class="d" d="m11.9 7.8c-1 0-1.7-0.8-1.7-1.7 0-0.9 0.7-1.7 1.7-1.7 0.9 0 1.6 0.8 1.6 1.7 0 0.9-0.7 1.7-1.6 1.7z"/><path fill-rule="evenodd" class="d" d="m16.9 7.8c-0.9 0-1.6-0.8-1.6-1.7 0-0.9 0.7-1.7 1.6-1.7 1 0 1.7 0.8 1.7 1.7 0 0.9-0.7 1.7-1.7 1.7z"/><path fill-rule="evenodd" class="d" d="m22 7.8c-0.9 0-1.7-0.8-1.7-1.7 0-0.9 0.8-1.7 1.7-1.7 0.9 0 1.7 0.8 1.7 1.7 0 0.9-0.8 1.7-1.7 1.7z"/><path fill-rule="evenodd" class="e" d="m11.6 8.2c-1 0-1.7-0.7-1.7-1.7 0-0.9 0.7-1.6 1.7-1.6 0.9 0 1.6 0.7 1.6 1.6 0 1-0.7 1.7-1.6 1.7z"/><path fill-rule="evenodd" class="e" d="m16.6 8.2c-0.9 0-1.6-0.7-1.6-1.7 0-0.9 0.7-1.6 1.6-1.6 1 0 1.7 0.7 1.7 1.6 0 1-0.7 1.7-1.7 1.7z"/><path fill-rule="evenodd" class="e" d="m21.7 8.2c-0.9 0-1.7-0.7-1.7-1.7 0-0.9 0.8-1.6 1.7-1.6 0.9 0 1.7 0.7 1.7 1.6 0 1-0.8 1.7-1.7 1.7z"/><path class="d" d="m59.7 6.5c-2.1 0.5-4.3 0.7-6.5 0.9q-3.2 0.2-6.5 0.2-3.3 0-6.5-0.2c-2.2-0.2-4.4-0.4-6.5-0.9 2.1-0.4 4.3-0.6 6.5-0.8q3.2-0.2 6.5-0.2 3.3 0 6.5 0.2c2.2 0.2 4.4 0.4 6.5 0.8z"/><path fill-rule="evenodd" class="f" d="m31.8 49.9c-1.2 0-2.1-0.9-2.1-2 0-1.1 0.9-2 2.1-2 1.1 0 2 0.9 2 2 0 1.1-0.9 2-2 2z"/><path class="g" d="m33.9 51.9c0.4 1.2-0.2 2.5-1.5 3-1 0.3-2.2-0.1-2.8-1.1l-4.7-8.5 4.6-1.5 4.2 7.7q0.2 0.2 0.2 0.4z"/><path fill-rule="evenodd" class="f" d="m46.6 40.5c-1.7 0.6-3.8-1.3-4.8-4.1-1-2.9-0.4-5.7 1.3-6.3 1.6-0.5 3.8 1.3 4.7 4.2 1 2.9 0.5 5.6-1.2 6.2z"/><path class="f" d="m32.1 44.5c-2.1 1.2-4.7 2.2-7 2.6-0.8 0.2-1.6-0.2-2-0.9q-1.4-2.8-2-5.8c-0.1-0.8 0.3-1.7 1.1-2 2.1-0.9 4.8-1.8 7-2.3z"/><path class="g" d="m32.1 44.5c5.6 2.3 10.3 3.5 15.1 3.3 0.8-0.1 1.4-0.8 1.3-1.7-1.4-7.6-3.7-14.7-7.2-21.2-0.5-0.8-1.4-1-2.1-0.5-4.3 3.3-7.4 7.1-10 11.7z"/><path class="h" d="m24.3 40.4q-0.7 0.2-1.5 0.2 0.6-0.5 1.2-0.8 0.7-0.3 1.4-0.6 0.7-0.2 1.4-0.4 0.7-0.1 1.5-0.1-0.6 0.5-1.3 0.8-0.7 0.3-1.3 0.5-0.7 0.3-1.4 0.4z"/><path class="h" d="m28.3 43.3q0.7-0.1 1.5-0.1-0.6 0.5-1.3 0.8-0.6 0.3-1.3 0.5-0.7 0.3-1.4 0.4-0.7 0.2-1.5 0.2 0.6-0.5 1.3-0.8 0.6-0.3 1.3-0.6 0.7-0.2 1.4-0.4z"/><path class="h" d="m27.6 41.1q0.7-0.2 1.4-0.2c-0.4 0.4-0.8 0.6-1.2 0.8q-0.7 0.4-1.4 0.6-0.7 0.2-1.4 0.4-0.7 0.1-1.4 0.1 0.6-0.5 1.2-0.8 0.7-0.3 1.4-0.5 0.6-0.3 1.4-0.4z"/><path class="i" d="m52.4 50.8l2 0.3-2.7 2.2c-0.5 0.4-1.2 0.3-1.5-0.1-0.3-0.3-0.3-0.6-0.3-0.9l0.7-3.4 1.4 1.8c2-4 2.8-8.4 2.3-12.6-0.6-4.6-2.7-9-5.9-12.2-3.3-3.3-7.6-5.4-12.2-5.9-4.7-0.7-9.5 0.4-13.8 2.8 3.5-3.4 8.7-5.4 13.9-5.1 2.6 0 5.2 0.7 7.6 1.7 2.4 1 4.6 2.6 6.5 4.4 1.9 1.9 3.4 4.1 4.4 6.5 1 2.4 1.7 5 1.7 7.6 0.2 4.7-1.3 9.3-4.1 12.9z"/><path class="i" d="m46 57c-3.6 3.1-8.6 4.7-13.6 4.3-2.5-0.1-4.9-0.8-7.2-1.8-2.3-1-4.4-2.5-6.2-4.2-1.7-1.8-3.2-3.9-4.2-6.2-1-2.3-1.7-4.8-1.9-7.2-0.2-4.5 1-9 3.5-12.5l-2.1-0.4 2.7-2.2c0.4-0.3 1.1-0.3 1.5 0.2 0.2 0.3 0.3 0.6 0.2 0.9l-0.6 3.4-1.4-1.7c-1.6 3.9-2.1 8.1-1.5 12 0.4 2.2 1 4.3 2.1 6.3 0.9 1.9 2.2 3.8 3.8 5.3 3.1 3.1 7.2 5.2 11.5 5.9 4.4 0.7 9.1-0.1 13.4-2.1z"/><path class="j" d="m68.8 20.1c-0.1 1.2-1 2-2.2 2.2q-7.4 0.9-14.2 0c-1.1-0.1-2-1.1-2.1-2.2-0.3-3.3-0.4-6.5-0.1-9.5 0.1-1.1 1.1-2.1 2.2-2.2q7.1-0.7 14.2 0c1.2 0.1 2.1 1 2.2 2.2q0.6 4.9 0 9.5z"/><path class="k" d="m67.3 20.1c-0.2 1.2-1.1 2-2.2 2.2q-7.5 0.9-14.2 0c-1.2-0.1-2.1-1.1-2.2-2.2-0.3-3.3-0.3-6.5 0-9.5 0.1-1.1 1-2.1 2.2-2.2q7.1-0.7 14.2 0c1.1 0.1 2 1 2.2 2.2q0.6 4.9 0 9.5z"/><path class="l" d="m67.3 20.1c-0.2 1.2-1.1 2-2.2 2.2q-7.5 0.9-14.2 0c-1.2-0.1-2.1-1.1-2.2-2.2q0-0.4 0-0.7c1.6 0.5 3.3 0.7 5.1 0.7 7.4 0 13.4-4.2 13.5-9.5q0.6 4.9 0 9.5z"/><path class="e" d="m53.9 13.2q-0.1-0.1-0.2-0.2-0.1-0.2-0.3-0.2h-0.1q-0.2 0-0.3 0.2-0.2 0.1-0.2 0.2l-1.8 4.1q0 0.1 0 0.2 0 0.2 0.1 0.3c0.2 0.2 0.4 0.2 0.6 0.1q0.1-0.1 0.2-0.2l0.4-1h2.1l0.4 1q0.1 0.1 0.2 0.2 0.1 0.1 0.2 0.1 0.2 0 0.4-0.2 0.1-0.1 0.1-0.3 0-0.1-0.1-0.2zm0.2 2.7h-1.4l0.7-1.7z"/><path class="e" d="m59.6 13.2q-0.6-0.3-1.4-0.3h-1.3q-0.2 0-0.4 0.1-0.1 0.2-0.1 0.3v4.2q0 0.2 0.1 0.3 0.2 0.1 0.4 0.1h1.3q0.8 0 1.4-0.3 0.6-0.4 0.9-1 0.3-0.6 0.3-1.2 0-0.6-0.3-1.2-0.3-0.6-0.9-1zm0.3 2.2q0 0.5-0.2 0.9-0.2 0.4-0.6 0.6-0.4 0.2-0.9 0.2h-0.9v-3.4h0.9q0.5 0 0.9 0.3 0.4 0.2 0.6 0.5 0.2 0.4 0.2 0.9z"/><path class="e" d="m64.8 15.7q-0.3-0.3-0.6-0.4-0.4-0.2-0.9-0.3-0.4-0.1-0.7-0.2-0.2-0.1-0.3-0.2-0.1-0.1-0.1-0.3 0-0.3 0.2-0.4 0.4-0.2 0.9-0.2 0.5 0 1 0.1 0.1 0.1 0.2 0.1 0.1 0 0.3-0.2 0.1-0.1 0.1-0.2 0-0.3-0.3-0.5-0.6-0.2-1.4-0.2-0.6 0-1 0.2-0.5 0.2-0.7 0.6-0.2 0.3-0.2 0.8 0 0.5 0.3 0.8 0.2 0.3 0.6 0.4 0.3 0.1 0.9 0.3 0.4 0.1 0.6 0.2 0.2 0 0.4 0.2 0.1 0.1 0.1 0.2c0 0.3-0.1 0.6-1.1 0.6q-0.7 0-1.3-0.2c-0.1-0.1-0.3-0.1-0.5 0.1q-0.1 0.1-0.1 0.3 0 0.1 0.1 0.2 0.1 0.1 0.2 0.2 0.8 0.3 1.7 0.3 0.5 0 1-0.2 0.4-0.2 0.6-0.5 0.3-0.3 0.3-0.8 0-0.5-0.3-0.8z"/><path fill-rule="evenodd" class="c" d="m12.9 67.6c-6.4 0-11.6-5.2-11.6-11.7 0-6.4 5.2-11.6 11.6-11.6 6.4 0 11.6 5.2 11.6 11.6 0 6.5-5.2 11.7-11.6 11.7z"/><path fill-rule="evenodd" class="a" d="m12.9 64.8c-4.9 0-8.8-4-8.8-8.9 0-4.8 3.9-8.8 8.8-8.8 4.9 0 8.8 4 8.8 8.8 0 4.9-3.9 8.9-8.8 8.9z"/><path fill-rule="evenodd" class="c" d="m12.9 62c-3.4 0-6-2.7-6-6.1 0-3.3 2.6-6 6-6 3.3 0 6 2.7 6 6 0 3.4-2.7 6.1-6 6.1z"/><path fill-rule="evenodd" class="a" d="m12.9 59.2c-1.8 0-3.2-1.5-3.2-3.3 0-1.7 1.4-3.2 3.2-3.2 1.8 0 3.2 1.5 3.2 3.2 0 1.8-1.4 3.3-3.2 3.3z"/><path class="f" d="m2.9 44.8l-0.9 0.5 1.6 0.6q0.1 0.2 0.3 0.3c0.8 1.2 1.7 2.4 2.7 3.5 0.9 1.1 1.9 2.2 3 3.3 1 1 2.1 2 3.3 2.9-0.7-1.3-1.5-2.5-2.4-3.7-0.9-1.2-1.8-2.4-2.7-3.5-1-1.1-2-2.2-3-3.3q-0.1-0.1-0.2-0.1 0-0.1 0-0.1l-0.9-1.8-0.2 0.6q0-0.1-0.1-0.2l-0.8-1.8-0.4 1q-0.4-0.3-0.7-0.5 0.2 0.4 0.5 0.9l-1.2 0.5 1.9 0.8q0 0 0.1 0 0.1 0.1 0.1 0.1z"/></svg>