<svg version="1.2" xmlns="http://www.w3.org/2000/svg" viewBox="0 0 70 70" width="70" height="70"><style>.a{fill:#4f5dff}.b{fill:#ffa100}.c{fill:#d1e4ff}.d{fill:#788dff}.e{fill:#3d46f5}.f{fill:#ffceb6}.g{fill:#f78e00}.h{fill:#fa8669}.i{fill:#ffc431}.j{fill:#08d175}.k{fill:#ffb089}.l{fill:#f5714f}</style><path fill-rule="evenodd" class="a" d="m2.4 0h65.2c1.3 0 2.4 1.1 2.4 2.4v49.5c0 1.3-1.1 2.4-2.4 2.4h-65.2c-1.3 0-2.4-1.1-2.4-2.4v-49.5c0-1.3 1.1-2.4 2.4-2.4z"/><path class="b" d="m52.5 27.8l1.8-7.3-4.8-4.8-7 1.7z"/><path class="c" d="m54.7 13.6l3.6-3.6 1.7 1.7-3.6 3.6z"/><path fill-rule="evenodd" class="c" d="m50.7 7.2v4.9h-2.4v-4.9z"/><path fill-rule="evenodd" class="c" d="m62.8 19.3v2.4h-4.9v-2.4z"/><path fill-rule="evenodd" class="d" d="m25.3 9.7v13.2h-19.3v-13.2z"/><path fill-rule="evenodd" class="e" d="m12.1 26.6v2.4h-6.1v-2.4z"/><path fill-rule="evenodd" class="e" d="m25.3 26.6v2.4h-10.8v-2.4z"/><path fill-rule="evenodd" class="e" d="m16.9 31.4v2.4h-10.9v-2.4z"/><path fill-rule="evenodd" class="e" d="m13.3 36.2v2.4h-7.3v-2.4z"/><path fill-rule="evenodd" class="e" d="m21.7 31.4v2.4h-2.4v-2.4z"/><path fill-rule="evenodd" class="e" d="m20.5 36.2v2.4h-4.8v-2.4z"/><path fill-rule="evenodd" class="e" d="m15.7 41v2.4h-9.7v-2.4z"/><path fill-rule="evenodd" class="e" d="m9.7 45.9v2.4h-3.7v-2.4z"/><path fill-rule="evenodd" class="e" d="m57.9 47.1v2.4h-4.8v-2.4z"/><path fill-rule="evenodd" class="e" d="m65.2 47.1v2.4h-4.9v-2.4z"/><path fill-rule="evenodd" class="e" d="m56.7 42.2v2.5h-6v-2.5z"/><path fill-rule="evenodd" class="e" d="m65.2 42.2v2.5h-6.1v-2.5z"/><path fill-rule="evenodd" class="e" d="m65.2 37.4v2.4h-9.7v-2.4z"/><path fill-rule="evenodd" class="e" d="m14.5 45.9v2.4h-2.4v-2.4z"/><path class="f" d="m49.5 55.5l-11.5 11.4-3.1 3.1h-27.7l30.8-30.8z"/><path class="g" d="m27.8 45.9l10.8 10.8h4.8l4.9-4.8-13.3-13.3z"/><path fill-rule="evenodd" class="h" d="m3.6 4.8c-0.6 0-1.2-0.5-1.2-1.2 0-0.6 0.6-1.2 1.2-1.2 0.7 0 1.2 0.6 1.2 1.2 0 0.7-0.5 1.2-1.2 1.2z"/><path fill-rule="evenodd" class="i" d="m7.2 4.8c-0.6 0-1.2-0.5-1.2-1.2 0-0.6 0.6-1.2 1.2-1.2 0.7 0 1.2 0.6 1.2 1.2 0 0.7-0.5 1.2-1.2 1.2z"/><path fill-rule="evenodd" class="j" d="m10.9 4.8c-0.7 0-1.2-0.5-1.2-1.2 0-0.6 0.5-1.2 1.2-1.2 0.6 0 1.2 0.6 1.2 1.2 0 0.7-0.6 1.2-1.2 1.2z"/><path class="b" d="m21.7 41l10.9-10.8 7.2 7.2-10.8 10.9z"/><path class="i" d="m39.8 37.4l18.1-7.2-18.1-18.1-7.2 18.1z"/><path class="f" d="m27.8 60.3l4.8-4.8q0.5-0.5 0.9-1.2 0.4-0.7 0.6-1.4 0.1-0.8 0.1-1.5 0-0.8-0.3-1.5l-0.1-0.4 1.7 1.6q0.1 0.2 0.3 0.4 0.3 0.1 0.5 0.2 0.2 0.1 0.5 0.1 0.2 0.1 0.5 0.1 0.5 0 1-0.2 0.4-0.2 0.8-0.5 0.3-0.4 0.5-0.9 0.2-0.4 0.2-0.9v-0.1q0-0.2 0-0.5-0.1-0.2-0.2-0.4-0.1-0.3-0.2-0.5-0.1-0.2-0.3-0.4l-3-2.9q-0.3-0.4-0.8-0.6-0.4-0.2-0.9-0.2-0.5 0-0.9 0.2-0.5 0.2-0.8 0.6l-9.8 9.7z"/><path class="f" d="m37.4 41l2.9-2.8q0.2-0.2 0.4-0.4 0.2-0.1 0.4-0.2 0.2-0.1 0.5-0.1 0.2-0.1 0.5-0.1 0.5 0 1 0.2 0.4 0.2 0.8 0.6 0.4 0.3 0.6 0.8 0.2 0.5 0.2 1 0 0.2-0.1 0.5 0 0.2-0.1 0.5-0.1 0.2-0.3 0.4-0.1 0.2-0.3 0.4l-2.9 2.9q-0.1 0.1-0.4 0.3-0.2 0.1-0.4 0.2-0.2 0.1-0.5 0.2-0.2 0-0.5 0-0.5 0-1-0.2-0.4-0.2-0.8-0.5-0.3-0.4-0.5-0.9-0.2-0.4-0.2-1 0-0.2 0-0.5 0.1-0.2 0.2-0.4 0.1-0.3 0.2-0.5 0.1-0.2 0.3-0.4z"/><path class="k" d="m39.2 46.6c-0.7 0-1.4-0.2-2.1-0.6-0.6-0.4-1.1-1-1.4-1.7-0.2-0.7-0.3-1.5-0.2-2.2 0.2-0.7 0.5-1.4 1.1-1.9l2.8-2.9c0.7-0.7 1.7-1.1 2.7-1.1 1 0 1.9 0.4 2.6 1.1 0.8 0.7 1.1 1.7 1.2 2.7 0 1-0.4 1.9-1.1 2.6l-2.9 2.9q-0.3 0.3-0.6 0.5-0.3 0.2-0.6 0.3-0.4 0.2-0.7 0.2-0.4 0.1-0.8 0.1zm2.9-8q-0.1 0-0.3 0-0.1 0.1-0.2 0.1-0.1 0.1-0.3 0.1-0.1 0.1-0.2 0.2l-2.8 2.9c-0.3 0.2-0.4 0.6-0.4 0.9 0 0.4 0.1 0.7 0.4 1 0.2 0.3 0.6 0.4 0.9 0.4 0.4 0 0.7-0.1 1-0.4l2.9-2.9q0.2-0.3 0.3-0.7 0.1-0.4-0.1-0.7-0.1-0.4-0.5-0.7-0.3-0.2-0.7-0.2z"/><path class="f" d="m40.6 45.1l2.1-2.1q0.2-0.2 0.4-0.3 0.2-0.2 0.4-0.3 0.3-0.1 0.5-0.1 0.3-0.1 0.5-0.1 0.5 0 1 0.2 0.5 0.2 0.8 0.6 0.4 0.4 0.6 0.8 0.2 0.5 0.2 1 0 0.3-0.1 0.5 0 0.2-0.1 0.5-0.1 0.2-0.3 0.4-0.1 0.2-0.3 0.4l-2.1 2.1q-0.2 0.2-0.4 0.4-0.2 0.1-0.4 0.2-0.3 0.1-0.5 0.1-0.3 0.1-0.5 0.1-0.5 0-1-0.2-0.5-0.2-0.8-0.6-0.4-0.3-0.6-0.8-0.2-0.5-0.2-1 0-0.2 0.1-0.5 0-0.2 0.1-0.5 0.1-0.2 0.3-0.4 0.1-0.2 0.3-0.4z"/><path class="k" d="m42.4 50.7c-0.8 0-1.5-0.2-2.1-0.6-0.6-0.5-1.1-1-1.4-1.7-0.3-0.7-0.4-1.5-0.2-2.2 0.1-0.7 0.5-1.4 1-1.9l2.1-2.2c0.8-0.7 1.7-1.1 2.7-1.1 1 0 2 0.4 2.7 1.1 0.7 0.8 1.1 1.7 1.1 2.7 0 1-0.4 2-1.1 2.7l-2.1 2.1q-0.3 0.2-0.6 0.5-0.3 0.2-0.7 0.3-0.3 0.1-0.7 0.2-0.3 0.1-0.7 0.1zm2.1-7.3q-0.1 0-0.3 0.1-0.1 0-0.2 0.1-0.1 0-0.2 0.1-0.2 0.1-0.2 0.1l-2.2 2.2c-0.2 0.2-0.4 0.6-0.4 0.9 0 0.4 0.2 0.7 0.4 1 0.3 0.2 0.6 0.4 1 0.4 0.3 0 0.7-0.2 0.9-0.4l2.2-2.1q0.3-0.3 0.3-0.7 0.1-0.4 0-0.8-0.2-0.4-0.5-0.6-0.4-0.2-0.8-0.3z"/><path class="f" d="m43 49.9l2.1-2.1q0.2-0.2 0.4-0.3 0.2-0.1 0.4-0.2 0.3-0.1 0.5-0.2 0.3 0 0.5 0 0.5 0 1 0.2 0.5 0.2 0.8 0.5 0.4 0.4 0.6 0.8 0.2 0.5 0.2 1 0 0.3-0.1 0.5 0 0.3-0.1 0.5-0.1 0.2-0.2 0.5-0.2 0.2-0.4 0.3l-2.1 2.2q-0.2 0.1-0.4 0.3-0.2 0.1-0.4 0.2-0.3 0.1-0.5 0.2-0.2 0-0.5 0-0.5 0-1-0.2-0.4-0.2-0.8-0.5-0.4-0.4-0.6-0.9-0.2-0.4-0.2-0.9 0-0.3 0.1-0.5 0-0.3 0.1-0.5 0.1-0.3 0.3-0.5 0.1-0.2 0.3-0.4z"/><path class="k" d="m44.8 55.5c-0.7 0-1.5-0.2-2.1-0.6-0.6-0.4-1.1-1-1.4-1.7-0.3-0.7-0.3-1.5-0.2-2.2 0.2-0.7 0.5-1.4 1-1.9l2.2-2.1c0.7-0.7 1.6-1.1 2.6-1.1 1 0 2 0.4 2.7 1.1 0.7 0.7 1.1 1.6 1.1 2.6 0 1-0.4 2-1.1 2.7l-2.1 2.1q-0.3 0.3-0.6 0.5-0.3 0.2-0.7 0.3-0.3 0.2-0.7 0.2-0.3 0.1-0.7 0.1zm2.1-7.2q-0.1 0-0.2 0-0.2 0-0.3 0.1-0.1 0-0.2 0.1-0.1 0.1-0.2 0.2l-2.2 2.1c-0.2 0.2-0.4 0.6-0.4 1 0 0.3 0.2 0.7 0.4 0.9 0.3 0.3 0.6 0.4 1 0.4 0.4 0 0.7-0.1 1-0.4l2.1-2.1q0.3-0.3 0.3-0.7 0.1-0.4 0-0.8-0.2-0.4-0.5-0.6-0.4-0.2-0.8-0.2z"/><path class="f" d="m46.6 53.6l0.9-1q0.2-0.1 0.4-0.3 0.2-0.1 0.5-0.2 0.2-0.1 0.4-0.2 0.3 0 0.5 0 0.5 0 1 0.2 0.5 0.2 0.8 0.5 0.4 0.4 0.6 0.9 0.2 0.4 0.2 1 0 0.2-0.1 0.5 0 0.2-0.1 0.4-0.1 0.3-0.2 0.5-0.2 0.2-0.4 0.4l-0.9 0.9q-0.1 0.2-0.4 0.3-0.2 0.1-0.4 0.2-0.2 0.1-0.5 0.2-0.2 0-0.5 0-0.5 0-1-0.2-0.4-0.2-0.8-0.5-0.3-0.4-0.5-0.8-0.2-0.5-0.2-1 0-0.3 0-0.5 0.1-0.3 0.2-0.5 0.1-0.2 0.2-0.5 0.1-0.2 0.3-0.3z"/><path class="k" d="m48.4 59.1c-0.7 0-1.5-0.2-2.1-0.6-0.6-0.4-1.1-1-1.4-1.7-0.2-0.7-0.3-1.4-0.2-2.2 0.2-0.7 0.5-1.4 1.1-1.9l0.9-0.9c0.7-0.7 1.6-1.1 2.6-1.1 1 0 2 0.4 2.7 1.1 0.7 0.7 1.1 1.7 1.1 2.7 0 1-0.4 1.9-1.1 2.6l-0.9 0.9q-0.3 0.3-0.6 0.5-0.3 0.2-0.6 0.4-0.4 0.1-0.7 0.2-0.4 0-0.8 0zm0.9-6q-0.1 0-0.2 0-0.2 0.1-0.3 0.1-0.1 0.1-0.2 0.1-0.1 0.1-0.2 0.2l-0.9 0.9c-0.3 0.3-0.4 0.6-0.4 1 0 0.3 0.1 0.7 0.4 0.9 0.2 0.3 0.6 0.4 0.9 0.4 0.4 0 0.7-0.1 1-0.4l0.9-0.9q0.3-0.3 0.4-0.7 0-0.4-0.1-0.8-0.2-0.3-0.5-0.6-0.4-0.2-0.8-0.2z"/><path class="k" d="m32.5 55.4q-0.2-0.1-0.2-0.3-0.1-0.2-0.2-0.4 0-0.2 0.1-0.4 0-0.2 0.1-0.4 0.3-0.4 0.5-0.8 0.1-0.5 0.2-1 0-0.4 0-0.9-0.1-0.5-0.2-1l-0.1-0.3q-0.1-0.2-0.1-0.4 0-0.1 0-0.3 0.1-0.2 0.2-0.4 0.1-0.1 0.2-0.3 0.2-0.1 0.4-0.2 0.2 0 0.5 0 0.2 0 0.4 0.1 0.2 0.1 0.3 0.2l1.7 1.7q0.1 0.1 0.2 0.2 0.1 0 0.3 0.1 0.1 0 0.2 0.1 0.1 0 0.3 0 0.3 0 0.5-0.1 0.3-0.1 0.4-0.3 0.2-0.2 0.3-0.4 0.1-0.3 0.1-0.5v-0.1q0-0.1 0-0.2 0-0.2-0.1-0.3 0-0.1-0.1-0.2-0.1-0.1-0.2-0.2l-2.9-3q-0.2-0.2-0.4-0.3-0.3 0-0.5 0-0.2 0-0.5 0-0.2 0.1-0.4 0.3l-7.7 7.7q-0.1 0.2-0.3 0.3-0.3 0.1-0.5 0.1-0.2 0-0.5-0.1-0.2-0.1-0.4-0.3-0.1-0.2-0.2-0.4-0.1-0.2-0.1-0.4 0-0.3 0.1-0.5 0.1-0.2 0.2-0.4l7.7-7.7q0.5-0.5 1.2-0.8 0.7-0.3 1.4-0.3 0.7 0 1.4 0.3 0.6 0.3 1.2 0.8l2.9 3q0.3 0.2 0.5 0.5 0.2 0.4 0.3 0.7 0.2 0.3 0.3 0.7 0 0.4 0 0.7v0.1q0 0.7-0.2 1.4-0.3 0.7-0.9 1.2-0.5 0.5-1.2 0.8-0.6 0.3-1.4 0.3-0.3 0-0.5 0-0.3-0.1-0.5-0.1-0.3-0.1-0.5-0.2-0.2-0.1-0.5-0.2 0 0.3-0.1 0.7-0.1 0.3-0.2 0.6-0.1 0.4-0.3 0.7-0.1 0.3-0.3 0.6-0.2 0.2-0.4 0.4-0.2 0.1-0.5 0.2-0.3 0-0.6-0.1-0.2-0.1-0.4-0.3z"/><path class="l" d="m38 66.9l-3.1 3.1h-27.7l16.9-16.9z"/></svg>