<svg version="1.2" xmlns="http://www.w3.org/2000/svg" viewBox="0 0 68 70" width="68" height="70"><style>.a{fill:#474545}.b{fill:#fff}.c{fill:#5e5c5c}.d{fill:#f4608a}.e{fill:#ffdc73}</style><path class="a" d="m39.5 1.3c-0.9-0.9-2.1-1.3-3.2-1.3h-31.8c-1.1 0-2.3 0.4-3.2 1.3-0.9 0.9-1.3 2.1-1.3 3.2v61c0 1.1 0.4 2.3 1.3 3.2 0.9 0.9 2.1 1.3 3.2 1.3h31.8c1.1 0 2.3-0.4 3.2-1.3 0.9-0.9 1.3-2.1 1.3-3.2v-61c0-1.1-0.4-2.3-1.3-3.2z"/><path fill-rule="evenodd" class="b" d="m38.5 11.3v47.4h-36.2v-47.4z"/><path class="c" d="m22.7 66.6h-4.6c-1.2 0-2.2-1-2.2-2.2 0-1.3 1-2.3 2.2-2.3h4.6c1.2 0 2.2 1 2.2 2.3 0 1.2-1 2.2-2.2 2.2z"/><path fill-rule="evenodd" class="c" d="m26.1 4.5v2.3h-6.8v-2.3z"/><path fill-rule="evenodd" class="c" d="m17 4.5v2.3h-2.3v-2.3z"/><path fill-rule="evenodd" class="d" d="m36.3 13.5v43h-31.8v-43z"/><path fill-rule="evenodd" class="a" d="m45.3 33.9v2.2h-15.8v-2.2z"/><path fill-rule="evenodd" class="a" d="m49.5 11l-21.6 18.1-1.4-1.7 21.5-18.1z"/><path fill-rule="evenodd" class="a" d="m49.5 59l-1.5 1.7-21.5-18.1 1.4-1.7z"/><path fill-rule="evenodd" class="b" d="m20.4 45.2c-5.6 0-10.2-4.6-10.2-10.2 0-5.6 4.6-10.2 10.2-10.2 5.6 0 10.2 4.6 10.2 10.2 0 5.6-4.6 10.2-10.2 10.2z"/><path fill-rule="evenodd" class="c" d="m21.5 31.6v6.8h-2.2v-6.8z"/><path fill-rule="evenodd" class="c" d="m23.8 33.9v2.2h-6.8v-2.2z"/><path fill-rule="evenodd" class="e" d="m68 0v20.3h-20.4v-20.3z"/><path fill-rule="evenodd" class="b" d="m63.5 4.5v11.3h-11.4v-11.3z"/><path fill-rule="evenodd" class="c" d="m58.9 9v2.3h-2.2v-2.3z"/><path fill-rule="evenodd" class="d" d="m68 24.8v20.4h-20.4v-20.4z"/><path fill-rule="evenodd" class="b" d="m63.5 29.4v11.2h-11.4v-11.2z"/><path fill-rule="evenodd" class="c" d="m58.9 33.9v2.2h-2.2v-2.2z"/><path fill-rule="evenodd" class="e" d="m68 49.7v20.3h-20.4v-20.3z"/><path fill-rule="evenodd" class="b" d="m63.5 54.2v11.3h-11.4v-11.3z"/><path fill-rule="evenodd" class="c" d="m58.9 58.7v2.3h-2.2v-2.3z"/><path fill-rule="evenodd" class="b" d="m17 51.9v2.3h-2.3v-2.3z"/><path fill-rule="evenodd" class="b" d="m21.5 51.9v2.3h-2.2v-2.3z"/><path fill-rule="evenodd" class="b" d="m26.1 51.9v2.3h-2.3v-2.3z"/></svg>