<svg version="1.2" xmlns="http://www.w3.org/2000/svg" viewBox="0 0 70 70" width="70" height="70"><style>.a{fill:#24b9cc}.b{fill:#f29c1f}.c{fill:#ffc985}.d{fill:#5c5e71}.e{fill:#454753}.f{fill:#ffce00}.g{fill:#e04141}.h{fill:#29af5c}.i{fill:#f2994a}.j{fill:#cd8654}</style><path fill-rule="evenodd" class="a" d="m35 70c-19.4 0-35-15.6-35-35 0-19.4 15.6-35 35-35 19.4 0 35 15.6 35 35 0 19.4-15.6 35-35 35z"/><path class="b" d="m30.3 46.9c0.2 0 0.4-0.2 0.4-0.5 0-0.2-0.2-0.4-0.4-0.4h-5.4c-0.3 0-0.5 0.2-0.5 0.4 0 0.3 0.2 0.5 0.5 0.5zm5.2-16.1c0-0.2-0.3-0.4-0.5-0.4-0.2 0-0.5 0.2-0.5 0.4v9.3c0 0.2 0.3 0.4 0.5 0.4 0.2 0 0.5-0.2 0.5-0.4zm9.6 16c0.3 0 0.5-0.2 0.5-0.4 0-0.3-0.2-0.5-0.5-0.5h-5.3c-0.3 0-0.5 0.2-0.5 0.5 0 0.2 0.2 0.4 0.5 0.4z"/><path fill-rule="evenodd" class="c" d="m25.3 43.2l-3.3-2-0.2-1.6h-6.9v13.7h10.4z"/><path fill-rule="evenodd" class="c" d="m40.2 43.2l-2.9-1.5-0.7-2.1h-6.8v13.7h10.4z"/><path fill-rule="evenodd" class="c" d="m55.1 43.2l-2.9-1.6-0.7-2h-6.8v13.7h10.4z"/><path fill-rule="evenodd" class="d" d="m24.1 16.7h21.8c0.5 0 0.9 0.4 0.9 0.9v12.8c0 0.5-0.4 0.9-0.9 0.9h-21.8c-0.5 0-0.9-0.4-0.9-0.9v-12.8c0-0.5 0.4-0.9 0.9-0.9z"/><path fill-rule="evenodd" class="e" d="m46.8 23.6v0.9h-23.6v-0.9z"/><path fill-rule="evenodd" class="f" d="m27.1 18.9h5.3c0.8 0 1.5 0.6 1.5 1.5 0 0.8-0.7 1.5-1.5 1.5h-5.3c-0.9 0-1.5-0.7-1.5-1.5 0-0.9 0.7-1.5 1.5-1.5z"/><path fill-rule="evenodd" class="g" d="m37.6 21.9c-0.8 0-1.5-0.7-1.5-1.5 0-0.8 0.7-1.5 1.5-1.5 0.9 0 1.5 0.7 1.5 1.5 0 0.8-0.6 1.5-1.5 1.5z"/><path fill-rule="evenodd" class="h" d="m42.9 21.9c-0.8 0-1.5-0.7-1.5-1.5 0-0.8 0.7-1.5 1.5-1.5 0.8 0 1.5 0.7 1.5 1.5 0 0.8-0.7 1.5-1.5 1.5z"/><path fill-rule="evenodd" class="f" d="m27.1 26.1h5.3c0.8 0 1.5 0.7 1.5 1.5 0 0.9-0.7 1.5-1.5 1.5h-5.3c-0.9 0-1.5-0.6-1.5-1.5 0-0.8 0.7-1.5 1.5-1.5z"/><path fill-rule="evenodd" class="g" d="m37.6 29.2c-0.8 0-1.5-0.7-1.5-1.5 0-0.8 0.7-1.5 1.5-1.5 0.9 0 1.5 0.7 1.5 1.5 0 0.8-0.6 1.5-1.5 1.5z"/><path fill-rule="evenodd" class="h" d="m42.9 29.2c-0.8 0-1.5-0.7-1.5-1.5 0-0.8 0.7-1.5 1.5-1.5 0.8 0 1.5 0.7 1.5 1.5 0 0.8-0.7 1.5-1.5 1.5z"/><path fill-rule="evenodd" class="i" d="m21.8 39.6v3.6h3.5z"/><path fill-rule="evenodd" class="i" d="m36.6 39.6v3.6h3.6z"/><path fill-rule="evenodd" class="i" d="m51.5 39.6v3.6h3.6z"/><path class="j" d="m52.8 46.2c0.2 0 0.4-0.2 0.4-0.5 0-0.2-0.2-0.4-0.4-0.4h-5.6c-0.3 0-0.5 0.2-0.5 0.4 0 0.3 0.2 0.5 0.5 0.5zm-36 1.6c-0.2 0-0.5 0.2-0.5 0.4 0 0.3 0.3 0.5 0.5 0.5h6.9c0.2 0 0.4-0.2 0.4-0.5 0-0.2-0.2-0.4-0.4-0.4zm0 2.5c-0.3 0-0.5 0.2-0.5 0.4 0 0.3 0.2 0.5 0.5 0.5h6.9c0.2 0 0.4-0.2 0.4-0.5 0-0.2-0.2-0.4-0.4-0.4zm6.2-4.1c0.2 0 0.4-0.2 0.4-0.5 0-0.2-0.2-0.4-0.4-0.4h-5.6c-0.3 0-0.5 0.2-0.5 0.4 0 0.3 0.2 0.5 0.5 0.5zm8.6 1.6c-0.2 0-0.4 0.2-0.4 0.4 0 0.3 0.2 0.5 0.4 0.5h6.9c0.3 0 0.5-0.2 0.5-0.5 0-0.2-0.2-0.4-0.5-0.4zm0 2.5c-0.2 0-0.4 0.2-0.4 0.4 0 0.3 0.2 0.5 0.4 0.5h6.9c0.2 0 0.4-0.2 0.4-0.5 0-0.2-0.2-0.4-0.4-0.4zm6.2-4.1c0.3 0 0.5-0.2 0.5-0.5 0-0.2-0.2-0.4-0.5-0.4h-5.6c-0.2 0-0.4 0.2-0.4 0.4 0 0.3 0.2 0.5 0.4 0.5zm8.7 1.6c-0.3 0-0.5 0.2-0.5 0.4 0 0.3 0.2 0.5 0.5 0.5h6.9c0.2 0 0.4-0.2 0.4-0.5 0-0.2-0.2-0.4-0.4-0.4zm0 2.5c-0.3 0-0.5 0.2-0.5 0.4 0 0.3 0.2 0.5 0.5 0.5h6.8c0.3 0 0.5-0.2 0.5-0.5 0-0.2-0.2-0.4-0.5-0.4z"/></svg>