<svg version="1.2" xmlns="http://www.w3.org/2000/svg" viewBox="0 0 70 70" width="70" height="70"><style>.a{fill:#406080}.b{fill:#293d66}.c{fill:#ffdf40}.d{fill:#68c9e0}.e{fill:#429ed9}.f{fill:#ffbe40}.g{fill:#8df4e6}</style><path class="a" d="m37.1 37.2v-10.3h-4.2v10.3h-24.7v14.3h4.1v-10.2h20.6v10.2h4.2v-10.2h20.6v10.2h4.1v-14.3z"/><path class="b" d="m37.1 26.9h-2.1v24.6h2.1v-10.2h20.6v10.2h4.1v-14.3h-24.7z"/><path fill-rule="evenodd" class="c" d="m10.3 70c-5.7 0-10.3-4.6-10.3-10.3 0-5.6 4.6-10.2 10.3-10.2 5.6 0 10.2 4.6 10.2 10.2 0 5.7-4.6 10.3-10.2 10.3z"/><path fill-rule="evenodd" class="c" d="m59.7 70c-5.6 0-10.2-4.6-10.2-10.3 0-5.6 4.6-10.2 10.2-10.2 5.7 0 10.3 4.6 10.3 10.2 0 5.7-4.6 10.3-10.3 10.3z"/><path fill-rule="evenodd" class="c" d="m35 70c-5.7 0-10.3-4.6-10.3-10.3 0-5.6 4.6-10.2 10.3-10.2 5.7 0 10.3 4.6 10.3 10.2 0 5.7-4.6 10.3-10.3 10.3z"/><path class="d" d="m39.1 10.5l-4.1 20.8-14.4-7.2v-16.9z"/><path class="e" d="m49.4 7.2v16.9l-14.4 7.2v-16.7l3.1-7.8z"/><path class="f" d="m45.3 59.7c0-5.6-4.6-10.2-10.3-10.2v20.5c5.7 0 10.3-4.6 10.3-10.3z"/><path class="f" d="m70 59.7c0-5.6-4.6-10.2-10.3-10.2v20.5c5.7 0 10.3-4.6 10.3-10.3z"/><path class="f" d="m20.5 59.7c0-5.6-4.6-10.2-10.2-10.2v20.5c5.6 0 10.2-4.6 10.2-10.3z"/><path class="g" d="m49.4 7.2l-14.4 7.4-14.4-7.4 14.4-7.2z"/><path class="d" d="m49.4 7.2l-14.4-7.2v14.6z"/></svg>