<svg version="1.2" xmlns="http://www.w3.org/2000/svg" viewBox="0 0 70 70" width="70" height="70"><style>.a{fill:#ff9f22}.b{fill:#dd7d00}.c{fill:#d3d3d8}.d{fill:#ececf1}.e{fill:#b9b9be}.f{fill:#8c96dd}.g{fill:#232e7a}.h{fill:#3342ae}.i{fill:#3d4ec6}.j{fill:#7cd2e3}.k{fill:#a6e0ec}</style><path class="a" d="m70 34.7c0.1 19.3-15.4 35.1-34.7 35.3-13.6 0.1-25.4-7.5-31.3-18.7-0.8-1.6 0.3-3.5 2.1-3.5h7.5c22.2 0 40.1-18 40.1-40.2 0-0.9 1.1-1.5 1.9-0.9 8.7 6.3 14.3 16.5 14.4 28z"/><path class="b" d="m53.1 45.7v15.1c0 0.4-0.3 0.7-0.7 0.7h-40.3c-3.3-2.9-6-6.3-8.1-10.2-0.8-1.6 0.3-3.5 2.1-3.5h7.5c4.4 0 8.7-0.7 12.7-2.1 0 0 26.8 0 26.8 0z"/><path class="c" d="m55.2 55.2h-42.2c-0.4 0-0.7-0.3-0.7-0.7v-19.5c0-16.1 12.1-29.6 28-31.4 4.8-0.5 10.8 0.3 11.9 0.9q1.9 1.1 3.7 2.4v47.6c0 0.4-0.4 0.7-0.7 0.7z"/><path class="d" d="m52.2 4.5v46.4c0 0.3-0.3 0.6-0.7 0.6h-46.2c-2.7-5-4.2-10.7-4.1-16.9 0.2-19.1 14.7-34.7 33.9-34.6 6.2 0 12.1 1.7 17.1 4.5z"/><path class="c" d="m12.3 51.5h-8.2c-2.7-5-4.2-10.7-4.1-16.9 0.2-19.1 15.9-34.7 35.1-34.6 3.2 0 6.2 0.4 9.2 1.2q-0.4 0-0.7 0c-19.2 0-34.9 15.5-35.1 34.7-0.1 5.6 1.5 10.9 3.8 15.6z"/><path class="e" d="m28.7 43.1c0 0.4-0.3 0.7-0.7 0.7h-15.2c-0.4 0-0.7-0.3-0.7-0.7 0-0.4 0.3-0.7 0.7-0.7h15.2c0.4 0 0.7 0.3 0.7 0.7zm17.1-39h-8.2c-0.4 0-0.7 0.3-0.7 0.7 0 0.4 0.3 0.7 0.7 0.7h8.2c0.4 0 0.7-0.3 0.7-0.7 0-0.4-0.3-0.7-0.7-0.7zm0 2.7h-4.1c-0.4 0-0.7 0.3-0.7 0.7 0 0.4 0.3 0.7 0.7 0.7h4.1c0.4 0 0.7-0.3 0.7-0.7 0-0.4-0.3-0.7-0.7-0.7zm-33 16.5h25.1c0.4 0 0.7-0.3 0.7-0.7 0-0.4-0.3-0.7-0.7-0.7h-25.1c-0.4 0-0.7 0.3-0.7 0.7 0 0.4 0.3 0.7 0.7 0.7zm28.4 1.6h-28.4c-0.4 0-0.7 0.3-0.7 0.7 0 0.4 0.3 0.7 0.7 0.7h28.4c0.4 0 0.7-0.3 0.7-0.7 0-0.4-0.3-0.7-0.7-0.7zm3.2-6.1h-31.6c-0.4 0-0.7 0.3-0.7 0.6 0 0.4 0.3 0.7 0.7 0.7h31.6c0.4 0 0.7-0.3 0.7-0.7 0-0.3-0.3-0.6-0.7-0.6z"/><path class="f" d="m18.4 14.5c0 0.4-0.3 0.7-0.7 0.7h-4.9c-0.4 0-0.7-0.3-0.7-0.7 0-0.4 0.3-0.7 0.7-0.7h4.9c0.4 0 0.7 0.3 0.7 0.7zm8.3-3.7h-13.9c-0.4 0-0.7 0.3-0.7 0.7 0 0.4 0.3 0.7 0.7 0.7h13.9c0.3 0 0.6-0.3 0.6-0.7 0-0.4-0.3-0.7-0.6-0.7z"/><path class="g" d="m31.6 36.6c0 0.3-0.3 0.7-0.7 0.7h-4.8l-0.8 0.8q-0.3 0.2-0.6 0.2-0.3-0.1-0.5-0.3l-1.4-2.2-2.6 4.2c-0.1 0.2-0.3 0.3-0.5 0.3q-0.1 0-0.1 0c-0.3 0-0.5-0.2-0.6-0.5l-1.6-6.6-2.3 3.7c-0.1 0.2-0.3 0.4-0.6 0.4h-3c-0.4 0-0.7-0.4-0.7-0.7 0-0.4 0.3-0.7 0.7-0.7h2.7l2.8-4.8c0.2-0.2 0.4-0.4 0.7-0.3 0.3 0 0.5 0.2 0.6 0.5l1.6 6.6 2.3-3.7c0.2-0.2 0.4-0.4 0.6-0.4 0.3 0 0.5 0.2 0.6 0.4l1.5 2.3 0.4-0.4q0.2-0.2 0.5-0.2h5.1c0.4 0 0.7 0.3 0.7 0.7zm2.6-0.7h-0.2c-0.3 0-0.6 0.3-0.6 0.7 0 0.3 0.3 0.7 0.6 0.7h0.2c0.4 0 0.7-0.4 0.7-0.7 0-0.4-0.3-0.7-0.7-0.7z"/><path class="g" d="m43.1 40.2c-0.4 0-0.7-0.4-0.7-0.7v-8.7c0-0.4 0.3-0.7 0.7-0.7 0.3 0 0.7 0.3 0.7 0.7v8.7c0 0.3-0.4 0.7-0.7 0.7zm0 18.6c1.1 0 2 0.9 2 2v3.5c0 0.7-0.6 1.3-1.3 1.3h-1.4c-0.8 0-1.4-0.6-1.4-1.3v-3.5c0-1.1 0.9-2 2.1-2z"/><path class="h" d="m43.1 62.9c-1.2 0-2.1-0.9-2.1-2.1v-15c0-1.1 0.9-2 2.1-2 1.1 0 2 0.9 2 2v15c0 1.2-0.9 2.1-2 2.1z"/><path class="i" d="m43.1 49.2c-1.2 0-2.1-0.9-2.1-2v-12.3c0-1.2 0.9-2.1 2.1-2.1 1.1 0 2 0.9 2 2.1v12.3c0 1.1-0.9 2-2 2z"/><path class="j" d="m45.1 37.6h-4.1c-0.4 0-0.7-0.3-0.7-0.7 0-0.4 0.3-0.7 0.7-0.7h4.1c0.4 0 0.7 0.3 0.7 0.7 0 0.4-0.3 0.7-0.7 0.7zm0.7 13.3v-2.4c0-0.4-0.3-0.7-0.7-0.7-0.4 0-0.7 0.3-0.7 0.7v2.7q0 0.3 0.2 0.5c2.4 2.3 2.4 6 0.2 8.5h-3.8c-0.4 0-0.7 0.3-0.7 0.6 0 0.4 0.3 0.7 0.7 0.7h4.1q0.3 0 0.5-0.2c2.9-2.8 2.9-7.5 0.2-10.4z"/><path class="k" d="m44.4 61.5h-1.7c-0.4 0-0.7-0.3-0.7-0.7 0-0.3 0.3-0.6 0.7-0.6h1.7c0.4 0 0.7 0.3 0.7 0.6 0 0.4-0.3 0.7-0.7 0.7zm0.7-24.6c0-0.4-0.3-0.7-0.7-0.7h-1.7c-0.4 0-0.7 0.3-0.7 0.7 0 0.4 0.3 0.7 0.7 0.7h1.7c0.4 0 0.7-0.3 0.7-0.7z"/></svg>