<svg version="1.2" xmlns="http://www.w3.org/2000/svg" viewBox="0 0 70 73" width="70" height="73"><style>.a{fill:#f90}.b{fill:#fc6}.c{fill:#57606f}.d{fill:#d0dce7}.e{fill:#68ca44}.f{fill:#32438c}.g{fill:#4d5db1}.h{fill:#94d4ff}</style><path class="a" d="m47.4 4.5l1.9 4.7h-25.4l1.9-4.7z"/><path class="b" d="m49.3 9.2l1.6 4h-28.6l1.6-4z"/><path class="b" d="m45.8 0.5l1.6 4h-21.6l1.6-4z"/><path class="a" d="m49.3 63.6l-1.9 4.8h-21.6l-1.9-4.8z"/><path class="b" d="m47.4 68.4l-1.6 3.9h-18.4l-1.6-3.9z"/><path class="b" d="m50.9 59.7l-1.6 3.9h-25.4l-1.6-3.9z"/><path class="c" d="m56.5 17.2v38.4c0 2.3-1.9 4.2-4.2 4.2-1.2 0-30.7 0-32.2 0-2.3 0-4.2-1.9-4.2-4.2v-38.4c0-2.3 1.9-4.2 4.2-4.2h32.2c2.3 0 4.2 1.9 4.2 4.2z"/><path class="d" d="m53.3 20.6v30.9c0 1.5-1.3 2.8-2.8 2.8h-28.6c-1.6 0-2.8-1.3-2.8-2.8v-30.9c0-1.6 1.2-2.8 2.8-2.8h28.6c1.5 0 2.8 1.2 2.8 2.8z"/><path fill-rule="evenodd" class="e" d="m64.4 12.2c-2.2 0-3.9-1.7-3.9-3.9 0-2.2 1.7-4 3.9-4 2.2 0 4 1.8 4 4 0 2.2-1.8 3.9-4 3.9z"/><path fill-rule="evenodd" class="e" d="m5.6 66.9c-3.1 0-5.6-2.4-5.6-5.5 0-3.1 2.5-5.6 5.6-5.6 3 0 5.5 2.5 5.5 5.6 0 3.1-2.5 5.5-5.5 5.5z"/><path class="f" d="m36.2 28.1c4.5 0 8.2 3.7 8.2 8.3 0 4.5-3.7 8.2-8.2 8.2-4.6 0-8.3-3.7-8.3-8.2 0-4.6 3.7-8.3 8.3-8.3zm4.4 8.3c0-2.4-2-4.4-4.4-4.4-2.5 0-4.5 2-4.5 4.4 0 2.4 2 4.4 4.5 4.4 2.4 0 4.4-2 4.4-4.4z"/><path class="g" d="m50.1 35.1l-2 1.3 2 1.3c-0.1 1.6-0.6 3.1-1.2 4.5l-2.4 0.2 1.1 2.1q-1.4 1.9-3.3 3.3l-2.1-1.1-0.2 2.4q-2.1 1-4.5 1.2l-1.3-2-1.3 2q-2.5-0.2-4.6-1.2l-0.1-2.4-2.1 1.1c-1.3-0.9-2.5-2-3.4-3.3l1.1-2.1-2.4-0.2c-0.6-1.4-1-2.9-1.2-4.5l2-1.3-2-1.3q0.3-2.4 1.2-4.5l2.4-0.2-1.1-2.1c0.9-1.3 2.1-2.4 3.4-3.3l2.1 1.1 0.1-2.4c1.4-0.6 3-1.1 4.6-1.2l1.3 2 1.3-2c1.6 0.1 3.1 0.6 4.5 1.2l0.2 2.4 2.1-1.1c1.3 0.9 2.4 2 3.3 3.3l-1.1 2.1 2.4 0.2c0.6 1.4 1.1 2.9 1.2 4.5zm-6.1 1.3c0-4.3-3.5-7.8-7.8-7.8-4.4 0-7.9 3.5-7.9 7.8 0 4.3 3.5 7.8 7.9 7.8 4.3 0 7.8-3.5 7.8-7.8z"/><path fill-rule="evenodd" class="h" d="m68.8 24.9c-0.7 0-1.2-0.5-1.2-1.2 0-0.6 0.5-1.2 1.2-1.2 0.7 0 1.2 0.6 1.2 1.2 0 0.7-0.5 1.2-1.2 1.2z"/><path fill-rule="evenodd" class="h" d="m65.6 66.2c-0.6 0-1.2-0.6-1.2-1.2 0-0.7 0.6-1.2 1.2-1.2 0.7 0 1.2 0.5 1.2 1.2 0 0.6-0.5 1.2-1.2 1.2z"/><path fill-rule="evenodd" class="h" d="m63.2 44.7c-0.6 0-1.2-0.5-1.2-1.1 0-0.7 0.6-1.2 1.2-1.2 0.7 0 1.2 0.5 1.2 1.2 0 0.6-0.5 1.1-1.2 1.1z"/><path fill-rule="evenodd" class="h" d="m54.5 4.3c-0.7 0-1.2-0.5-1.2-1.2 0-0.6 0.5-1.2 1.2-1.2 0.6 0 1.2 0.6 1.2 1.2 0 0.7-0.6 1.2-1.2 1.2z"/><path fill-rule="evenodd" class="h" d="m9.9 47.1c-0.6 0-1.1-0.5-1.1-1.2 0-0.6 0.5-1.2 1.1-1.2 0.7 0 1.2 0.6 1.2 1.2 0 0.7-0.5 1.2-1.2 1.2z"/><path fill-rule="evenodd" class="h" d="m9.1 8.3c-0.6 0-1.1-0.6-1.1-1.2 0-0.7 0.5-1.2 1.1-1.2 0.7 0 1.2 0.5 1.2 1.2 0 0.6-0.5 1.2-1.2 1.2z"/><path fill-rule="evenodd" class="h" d="m3.6 27.3c-0.7 0-1.2-0.5-1.2-1.2 0-0.6 0.5-1.2 1.2-1.2 0.6 0 1.2 0.6 1.2 1.2 0 0.7-0.6 1.2-1.2 1.2z"/></svg>