<svg version="1.2" xmlns="http://www.w3.org/2000/svg" viewBox="0 0 70 70" width="70" height="70"><defs><linearGradient id="P" gradientUnits="userSpaceOnUse"/><linearGradient id="g1" x2="1" href="#P" gradientTransform="matrix(57.988,57.988,-57.988,57.988,6.006,6.006)"><stop stop-color="#2492ff"/><stop offset="1" stop-color="#0043ae"/></linearGradient></defs><style>.a{fill:url(#g1)}.b{fill:#caefff}.c{fill:#97daff}</style><path fill-rule="evenodd" class="a" d="m20.5 0h29c11.3 0 20.5 9.2 20.5 20.5v29c0 11.3-9.2 20.5-20.5 20.5h-29c-11.3 0-20.5-9.2-20.5-20.5v-29c0-11.3 9.2-20.5 20.5-20.5z"/><path class="b" d="m59.9 27.5h-49.8c-1.2 0-2.1 0.9-2.1 2v11c0 1.1 0.9 2 2.1 2h30.3l-0.2-1.3c-0.1-0.5 0.1-1 0.5-1.4 0.3-0.2 0.6-0.3 1-0.2q0.2 0 0.4 0.1l6.6 2.8h11.2c1.2 0 2.1-0.9 2.1-2v-11c0-1.1-0.9-2-2.1-2zm-32.9 4.2l-1 0.1-2.2 7.7h-1.9l-1.6-4.7-0.2-0.6-0.2 0.7-1.6 4.6h-2l-2.1-7.7-1.1-0.1v-1.2h4.1v1.2l-1 0.2 1 4 0.1 0.6h0.1l0.1-0.6 1.8-5.4h1.5l1.9 5.7 0.1 0.4h0.1l0.1-0.4 1-4.3-1-0.2v-1.2h4v1.2zm14.9 0l-0.9 0.1-2.2 7.7h-2l-1.5-4.7-0.2-0.6h-0.1l-0.2 0.7-1.6 4.6h-2l-2.1-7.7-1-0.1v-1.2h4.1v1.2l-1.1 0.2 1 4 0.2 0.6 0.2-0.6 1.7-5.4h1.6l1.8 5.7 0.2 0.4 0.1-0.4 1.1-4.3-1.1-0.2v-1.2h4v1.2zm15 0l-1 0.1-2.2 7.7h-1.9l-1.6-4.7-0.2-0.6-0.3 0.7-1.6 4.6h-2l-2.1-7.7-1-0.1v-1.2h4.1v1.2l-1 0.2 1 4 0.1 0.6h0.1l0.1-0.6 1.8-5.4h1.5l1.9 5.7 0.1 0.4 0.1-0.4 1.1-4.3-1-0.2v-1.2h4v1.2z"/><path class="c" d="m20.2 15.9l-1.6-0.2 1.3-1c2.4-1.8 5.1-3.2 8-4l2.2-0.6-1.5 1.7q-1.5 1.9-2.8 4.5l-0.2 0.4h-0.5q-2.5-0.3-4.9-0.8zm4.8 36l-0.3-0.8q-1.2-3.1-1.8-6.7l-0.1-0.5h-11.5l0.4 0.9c1.3 3 3.1 5.8 5.4 8.1h0.1l0.2 0.3 0.4-0.1q3.1-0.6 6.3-1c0 0 0.9-0.2 0.9-0.2zm1.4-33.7l-0.2 0.5c-0.8 2-1.4 4.2-1.9 6.6l-0.2 0.8h10.2v-7.4h-0.7q-3.3-0.1-6.7-0.4l-0.5-0.1zm-3.5 7.4c0.4-2.4 1-4.7 1.8-6.7l0.3-0.8-0.9-0.2q-3.2-0.4-6.3-1l-0.4-0.1-0.3 0.3c-2.3 2.3-4.1 5.1-5.4 8.1l-0.4 0.9h11.5l0.1-0.5zm4.1-8.7l1 0.1q2.9 0.2 5.6 0.3h0.7v-7.6l-0.9 0.3c-2.1 0.7-4.2 2.8-5.9 6zm17.2-0.6l0.2 0.4h0.5q2.5-0.3 4.9-0.8l1.6-0.3-1.3-0.9c-2.4-1.8-5.1-3.2-8-4l-2.2-0.6 1.4 1.7q1.6 1.8 2.9 4.5zm0.8 1.7l0.3 0.9c0.8 2 1.4 4.3 1.8 6.6l0.1 0.6h11.5l-0.4-0.9c-1.3-3.1-3.1-5.8-5.4-8.1l-0.1-0.1-0.2-0.2-0.4 0.1q-3.1 0.6-6.4 1c0 0-0.8 0.1-0.8 0.1zm-3-1l1-0.1-0.5-0.9c-1.7-3.3-3.8-5.3-5.9-6l-0.9-0.3v7.6h0.7q2.7-0.1 5.6-0.3zm3.7 8.3q-0.7-3.6-1.9-6.6l-0.2-0.5-0.5 0.1q-3.4 0.3-6.8 0.4h-0.6v7.4h10.2zm11.7 21q0.1 0.1 0.1 0.1 0.4-0.8 0.8-1.6l0.4-0.9h-6.9l5.6 2.4zm-21.8 5h0.7q2.8 0.1 5.6 0.3l-1.3-7.7h-5zm-9.9 2.4l-0.2-0.5-0.5 0.1q-2.4 0.3-4.9 0.7l-1.5 0.3 1.2 1c2.5 1.8 5.2 3.1 8.1 4l2.2 0.6-1.5-1.7q-1.6-1.9-2.9-4.5zm21.8 0.4l-2.1 3.9q1.9-0.8 3.6-2zm-4.6 3.5l-0.2-1.2q-0.7 1-1.4 1.8l-1.5 1.7 2.2-0.6q0.9-0.3 1.8-0.6c-0.5-0.1-0.8-0.6-0.9-1.1zm-14.9-4.6l-1.1 0.1 0.5 0.9c1.8 3.2 3.8 5.3 6 6l0.9 0.3v-7.6h-0.7q-2.8 0.1-5.6 0.3zm-3.7-8.3q0.7 3.6 1.9 6.6l0.2 0.5 0.5-0.1q3.4-0.3 6.7-0.4h0.7v-7.4h-10.2zm17.9 8.3h-0.2q-2.9-0.3-5.6-0.3h-0.7v7.6l0.9-0.3c2.1-0.7 4.1-2.6 5.8-5.7l-0.3-1.3zm10.8-3.1l1.2 1.6q1-1.1 1.8-2.3l-3 0.7z"/><path class="b" d="m56.9 47.6l-15.4-6.7 2.8 16.5 3-5.8 5.8 7.4 3.2-2.5-5.8-7.4z"/></svg>