<?xml version="1.0" encoding="utf-8"?>
<!-- Generator: Adobe Illustrator 26.5.0, SVG Export Plug-In . SVG Version: 6.00 Build 0)  -->
<svg version="1.1" id="Capa_1" xmlns="http://www.w3.org/2000/svg" xmlns:xlink="http://www.w3.org/1999/xlink" x="0px" y="0px"
	 width="80px" height="80px" viewBox="0 0 80 80" style="enable-background:new 0 0 80 80;" xml:space="preserve">
<style type="text/css">
	.st0{fill:#FFFFFF;}
</style>
<g>
	<g>
		<path class="st0" d="M53.4,51.3c-1.9,0-3.4-1.3-3.4-3c0-1.6,1.5-3,3.4-3c1.9,0,3.4,1.3,3.4,3c0,0.9,0.7,1.6,1.6,1.6
			s1.6-0.7,1.6-1.6c0-2.9-2.1-5.3-5-5.9v-0.8c0-0.9-0.7-1.6-1.6-1.6c-0.9,0-1.6,0.7-1.6,1.6v0.8c-2.9,0.7-5,3.1-5,5.9
			c0,3.4,2.9,6.1,6.6,6.1c1.9,0,3.4,1.3,3.4,3c0,1.6-1.5,3-3.4,3c-1.9,0-3.4-1.3-3.4-3c0-0.9-0.7-1.6-1.6-1.6s-1.6,0.7-1.6,1.6
			c0,2.9,2.1,5.3,5,5.9V64c0,0.9,0.7,1.6,1.6,1.6c0.9,0,1.6-0.7,1.6-1.6v-0.7c2.9-0.7,5-3.1,5-5.9C60,54,57,51.3,53.4,51.3z"/>
	</g>
</g>
<g>
	<g>
		<path class="st0" d="M70.5,42c-2-3.2-4.9-5.7-8.3-7.4c-0.8-0.4-1.7,0-2.1,0.7c-0.4,0.8,0,1.7,0.7,2.1c5.9,2.8,9.8,8.9,9.8,15.5
			c0,2.8-0.7,5.6-2,8.1c-0.4,0.8-0.1,1.7,0.6,2.1c0.2,0.1,0.5,0.2,0.7,0.2c0.6,0,1.1-0.3,1.4-0.8c1.6-2.9,2.4-6.2,2.4-9.5
			C73.7,49.1,72.6,45.3,70.5,42z"/>
	</g>
</g>
<g>
	<g>
		<path class="st0" d="M55.9,32.7l-0.1,0c-0.9,0-1.6,0.7-1.6,1.6c0,0.9,0.7,1.6,1.6,1.6l0.1,0c0,0,0,0,0,0c0.9,0,1.6-0.7,1.6-1.6
			C57.4,33.4,56.7,32.7,55.9,32.7z"/>
	</g>
</g>
<g>
	<g>
		<path class="st0" d="M46,68.5c-5.9-2.8-9.8-8.9-9.8-15.5c0-2.8,0.7-5.6,2-8.1c0.4-0.8,0.1-1.7-0.6-2.1c-0.8-0.4-1.7-0.1-2.1,0.6
			c-1.6,2.9-2.4,6.2-2.4,9.5c0,3.9,1.1,7.7,3.2,11c2,3.2,4.9,5.7,8.3,7.4c0.2,0.1,0.4,0.2,0.7,0.2c0.6,0,1.1-0.3,1.4-0.9
			C47.1,69.8,46.8,68.8,46,68.5z"/>
	</g>
</g>
<g>
	<g>
		<path class="st0" d="M51.1,70.2L51.1,70.2c-1,0-1.7,0.7-1.7,1.6c0,0.9,0.7,1.6,1.6,1.6l0.1,0c0.9,0,1.6-0.7,1.6-1.6
			C52.7,70.9,52,70.2,51.1,70.2z"/>
	</g>
</g>
<g>
	<g>
		<path class="st0" d="M60.5,27.4c-0.2-0.5-0.4-0.9-0.7-1.3h4.1c4,0,7.2-3.2,7.2-7.2s-3.2-7.2-7.2-7.2H51.4c0.8-1.2,1.3-2.6,1.3-4.1
			c0-4-3.2-7.2-7.2-7.2H7.2C3.2,0.5,0,3.7,0,7.7s3.2,7.2,7.2,7.2h12.5c-0.8,1.2-1.3,2.6-1.3,4.1s0.5,2.9,1.3,4.1h-4.1
			c-4,0-7.2,3.2-7.2,7.2c0,2.3,1.1,4.3,2.7,5.6c-1.7,1.3-2.7,3.3-2.7,5.6s1.1,4.3,2.7,5.6c-1.7,1.3-2.7,3.3-2.7,5.6s1.1,4.3,2.7,5.6
			c-1.7,1.3-2.7,3.3-2.7,5.6c0,4,3.2,7.2,7.2,7.2H34c4.9,5.2,11.8,8.4,19.4,8.4C68.1,79.5,80,67.6,80,53
			C80,40.8,71.7,30.5,60.5,27.4z M63.9,14.8c2.2,0,4.1,1.8,4.1,4.1S66.1,23,63.9,23h-10H25.6c-2.2,0-4.1-1.8-4.1-4.1
			s1.8-4.1,4.1-4.1H63.9z M7.2,11.7c-2.2,0-4.1-1.8-4.1-4.1s1.8-4.1,4.1-4.1h38.3c2.2,0,4.1,1.8,4.1,4.1s-1.8,4.1-4.1,4.1H7.2z
			 M15.6,26.1h38.3c0.6,0,1.2,0.1,1.8,0.4c-0.7-0.1-1.5-0.1-2.2-0.1c-7.3,0-14,3-18.8,7.8h-19c-2.2,0-4.1-1.8-4.1-4.1
			S13.4,26.1,15.6,26.1z M15.6,37.3H32c-1.8,2.4-3.1,5.2-4,8.1H15.6c-2.2,0-4.1-1.8-4.1-4.1C11.6,39.2,13.4,37.3,15.6,37.3z
			 M15.6,48.6h11.6C27,50,26.9,51.5,26.9,53c0,1.3,0.1,2.5,0.3,3.7H15.6c-2.2,0-4.1-1.8-4.1-4.1S13.4,48.6,15.6,48.6z M15.6,68
			c-2.2,0-4.1-1.8-4.1-4.1c0-2.2,1.8-4.1,4.1-4.1h12.2c0.8,2.9,2.1,5.7,3.7,8.1H15.6z M53.4,76.4C40.5,76.4,30,65.9,30,53
			s10.5-23.4,23.4-23.4S76.9,40,76.9,53S66.4,76.4,53.4,76.4z"/>
	</g>
</g>
</svg>
