<?xml version="1.0" encoding="utf-8"?>
<!-- Generator: Adobe Illustrator 26.5.0, SVG Export Plug-In . SVG Version: 6.00 Build 0)  -->
<svg version="1.1" id="_x33_0" xmlns="http://www.w3.org/2000/svg" xmlns:xlink="http://www.w3.org/1999/xlink" x="0px" y="0px"
	 width="80px" height="80px" viewBox="0 0 80 80" style="enable-background:new 0 0 80 80;" xml:space="preserve">
<style type="text/css">
	.st0{fill:#FFFFFF;}
</style>
<g>
	<path class="st0" d="M20.6,15.5h2.6v2.6h2.6V9c0-2.1-1.7-3.9-3.9-3.9S18.1,6.9,18.1,9v9h2.6V15.5z M21.9,7.7c0.7,0,1.3,0.6,1.3,1.3
		v3.9h-2.6V9C20.6,8.3,21.2,7.7,21.9,7.7z"/>
	<path class="st0" d="M10.3,12.9h1.3c2.1,0,3.9-1.7,3.9-3.9s-1.7-3.9-3.9-3.9H7.7v12.9h2.6V12.9z M10.3,7.7h1.3
		c0.7,0,1.3,0.6,1.3,1.3c0,0.7-0.6,1.3-1.3,1.3h-1.3V7.7z"/>
	<path class="st0" d="M31,12.7v5.4h2.6v-5.4c1.5-0.5,2.6-2,2.6-3.6V5.2h-2.6V9c0,0.7-0.6,1.3-1.3,1.3S31,9.7,31,9V5.2h-2.6V9
		C28.4,10.7,29.5,12.1,31,12.7z"/>
	<path class="st0" d="M80,40c0-7.7-6.2-14-13.8-14.2c3.7-2.6,6.1-6.8,6.1-11.6C72.3,6.4,65.9,0,58.1,0c-7.4,0-13.5,5.7-14.1,12.9
		h-2.6V2.6c0-1.4-1.2-2.6-2.6-2.6H5.2C3.7,0,2.6,1.2,2.6,2.6v18.1c0,1.4,1.2,2.6,2.6,2.6h5.2v18c0,0.1-0.2,0.1-0.2,0l-0.4-2.3
		c-0.5-3.1-3.2-5.4-6.4-5.4C1.5,33.5,0,35.1,0,37c0,0.4,0.1,0.9,0.2,1.3L1,40.2c1.1,2.7,1.8,5.4,2.2,8.3c0.4,3.1,2.1,5.8,4.5,7.6V80
		H31V67.1h5.2v-2.6H31v-8.7c1.7-2.7,2.6-5.7,2.6-8.9v-5.7h7.7v-2.6h-7.7v-3.9c0-2.1-1.7-3.9-3.9-3.9c-0.5,0-1,0.1-1.4,0.3
		c-0.4-1.6-1.9-2.9-3.7-2.9c-1,0-1.9,0.4-2.6,1c-0.7-0.6-1.6-1-2.6-1c-0.5,0-0.9,0.1-1.3,0.2v-5.4h20.6c1.4,0,2.6-1.2,2.6-2.6v-5.2
		h2.6c0.6,7.1,6.5,12.7,13.8,12.9c-3.3,2.3-5.6,6.1-6,10.3h-7.8v2.6h7.8c0.4,4.4,2.8,8.2,6.3,10.6c-0.8-0.1-1.7-0.2-2.5-0.2
		c-7.4,0-13.5,5.7-14.1,12.9h-2.6v2.6h2.6C42,74.3,48.1,80,55.5,80c7.8,0,14.2-6.4,14.2-14.2c0-5-2.6-9.3-6.4-11.9
		c0.8,0.1,1.7,0.2,2.5,0.2C73.6,54.2,80,47.8,80,40L80,40z M28.4,77.4H10.3V56.8h18.1V77.4z M19.4,31c0.7,0,1.3,0.6,1.3,1.3v9h2.6
		v-9c0-0.7,0.6-1.3,1.3-1.3c0.7,0,1.3,0.6,1.3,1.3v9h2.6v-6.5c0-0.7,0.6-1.3,1.3-1.3s1.3,0.6,1.3,1.3V47c0,2.6-0.7,5-2,7.2H9.5
		c-2-1.4-3.3-3.6-3.7-6.1c-0.4-3-1.2-6-2.4-8.9l-0.8-1.9c0-0.1-0.1-0.2-0.1-0.4c0-0.4,0.4-0.8,0.8-0.8c1.9,0,3.5,1.4,3.8,3.2
		l0.4,2.3c0.2,1.3,1.3,2.2,2.7,2.2c1.5,0,2.7-1.2,2.7-2.7V21.9c0-0.7,0.6-1.3,1.3-1.3s1.3,0.6,1.3,1.3v19.4h2.6v-9
		C18.1,31.5,18.6,31,19.4,31L19.4,31z M38.7,20.6H17.8c-0.5-1.5-2-2.6-3.6-2.6s-3.1,1.1-3.6,2.6H5.2V2.6h33.5V20.6z M67.1,65.8
		c0,6.4-5.2,11.6-11.6,11.6s-11.6-5.2-11.6-11.6s5.2-11.6,11.6-11.6S67.1,59.4,67.1,65.8z M46.5,14.2c0-6.4,5.2-11.6,11.6-11.6
		s11.6,5.2,11.6,11.6s-5.2,11.6-11.6,11.6S46.5,20.6,46.5,14.2z M54.2,40c0-6.4,5.2-11.6,11.6-11.6S77.4,33.6,77.4,40
		s-5.2,11.6-11.6,11.6S54.2,46.4,54.2,40z"/>
	<path class="st0" d="M67.1,49v-2.6h2.6v-3.9c0-2.1-1.7-3.9-3.9-3.9c-0.7,0-1.3-0.6-1.3-1.3v-1.3h1.3c0.7,0,1.3,0.6,1.3,1.3v1.3h2.6
		v-1.3c0-1.7-1.1-3.1-2.6-3.6V31h-2.6v2.6h-2.6v3.9c0,2.1,1.7,3.9,3.9,3.9c0.7,0,1.3,0.6,1.3,1.3v1.3h-1.3c-0.7,0-1.3-0.6-1.3-1.3
		v-1.3h-2.6v1.3c0,1.7,1.1,3.1,2.6,3.6V49H67.1z"/>
	<path class="st0" d="M59.4,23.2v-2.6h2.6v-3.9c0-2.1-1.7-3.9-3.9-3.9c-0.7,0-1.3-0.6-1.3-1.3v-1.3h1.3c0.7,0,1.3,0.6,1.3,1.3v1.3
		h2.6v-1.3c0-1.7-1.1-3.1-2.6-3.6V5.2h-2.6v2.6h-2.6v3.9c0,2.1,1.7,3.9,3.9,3.9c0.7,0,1.3,0.6,1.3,1.3v1.3h-1.3
		c-0.7,0-1.3-0.6-1.3-1.3v-1.3h-2.6v1.3c0,1.7,1.1,3.1,2.6,3.6v2.8H59.4z"/>
	<path class="st0" d="M54.2,56.8v2.6h-2.6v3.9c0,2.1,1.7,3.9,3.9,3.9c0.7,0,1.3,0.6,1.3,1.3v1.3h-1.3c-0.7,0-1.3-0.6-1.3-1.3v-1.3
		h-2.6v1.3c0,1.7,1.1,3.1,2.6,3.6v2.8h2.6v-2.6h2.6v-3.9c0-2.1-1.7-3.9-3.9-3.9c-0.7,0-1.3-0.6-1.3-1.3v-1.3h1.3
		c0.7,0,1.3,0.6,1.3,1.3v1.3h2.6v-1.3c0-1.7-1.1-3.1-2.6-3.6v-2.8H54.2z"/>
</g>
</svg>
