<svg version="1.2" xmlns="http://www.w3.org/2000/svg" viewBox="0 0 68 68" width="68" height="68"><style>.a{fill:#008cc3}.b{fill:#0074a3}.c{fill:#fff}.d{fill:#e0e0e0}.e{fill:#f1333f}.f{fill:#ae283f}.g{fill:#ff9451}.h{fill:#f7674f}.i{fill:#333}.j{fill:#1a1a1a}</style><path fill-rule="evenodd" class="a" d="m34 68c-18.8 0-34-15.2-34-34 0-18.8 15.2-34 34-34 18.8 0 34 15.2 34 34 0 18.8-15.2 34-34 34z"/><path class="b" d="m68 34q0-1.5-0.1-2.9l-21.3-21.3-16.1-5.1-11.2 57.3 4.4 4.4c3.2 1 6.7 1.6 10.3 1.6 18.8 0 34-15.2 34-34z"/><path class="c" d="m47.4 10.6l-6.8-6.6c-0.9-1-2.1-1.5-3.4-1.5h-6.4c-1.3 0-2.5 0.5-3.4 1.5l-6.8 6.6c-1.4 1.3-2.2 3.2-2.2 5v44c0 2.1 1.7 3.7 3.8 3.7h23.6c2.1 0 3.8-1.6 3.8-3.7v-44c0-1.8-0.8-3.7-2.2-5zm-13.4 0.4c-1.2 0-2.2-1-2.2-2.2 0-1.2 1-2.2 2.2-2.2 1.2 0 2.2 1 2.2 2.2 0 1.2-1 2.2-2.2 2.2z"/><path class="d" d="m47.4 10.6l-6.8-6.6c-0.9-1-2.1-1.5-3.4-1.5h-3.2v4.1q0 0 0 0c1.2 0 2.2 1 2.2 2.2 0 1.2-1 2.2-2.2 2.2q0 0 0 0v52.3h11.8c2.1 0 3.8-1.6 3.8-3.7v-44c0-1.8-0.8-3.7-2.2-5z"/><path fill-rule="evenodd" class="e" d="m47.1 47.3v12.3h-26.2v-12.3z"/><path fill-rule="evenodd" class="f" d="m47.1 47.3v12.3h-13.1v-12.3z"/><path fill-rule="evenodd" class="g" d="m36 50.2v1.6h-13.6v-1.6z"/><path fill-rule="evenodd" class="h" d="m36 50.2v1.6h-2v-1.6z"/><path fill-rule="evenodd" class="i" d="m45.6 15.5v1.6h-23.2v-1.6z"/><path fill-rule="evenodd" class="j" d="m45.6 15.5v1.6h-11.6v-1.6z"/><path fill-rule="evenodd" class="i" d="m45.6 36.9v1.6h-23.2v-1.6z"/><path fill-rule="evenodd" class="j" d="m45.6 36.9v1.6h-11.6v-1.6z"/><path fill-rule="evenodd" class="i" d="m41.7 18.5v1.6h-19.3v-1.6z"/><path fill-rule="evenodd" class="j" d="m41.7 18.5v1.6h-7.7v-1.6z"/><path fill-rule="evenodd" class="i" d="m41.7 21.8v1.6h-19.3v-1.6z"/><path fill-rule="evenodd" class="j" d="m41.7 21.8v1.6h-7.7v-1.6z"/><path fill-rule="evenodd" class="i" d="m41.7 24.7v1.6h-19.3v-1.6z"/><path fill-rule="evenodd" class="j" d="m41.7 24.7v1.6h-7.7v-1.6z"/><path fill-rule="evenodd" class="i" d="m41.7 27.8v1.6h-19.3v-1.6z"/><path fill-rule="evenodd" class="j" d="m41.7 27.8v1.6h-7.7v-1.6z"/><path fill-rule="evenodd" class="i" d="m41.7 31.2v1.6h-19.3v-1.6z"/><path fill-rule="evenodd" class="j" d="m41.7 31.2v1.6h-7.7v-1.6z"/><path fill-rule="evenodd" class="i" d="m41.7 33.9v1.6h-19.3v-1.6z"/><path fill-rule="evenodd" class="j" d="m41.7 33.9v1.6h-7.7v-1.6z"/><path fill-rule="evenodd" class="g" d="m45.6 53.3v1.6h-23.2v-1.6z"/><path fill-rule="evenodd" class="h" d="m45.6 53.3v1.6h-11.6v-1.6z"/></svg>