<?xml version="1.0" encoding="utf-8"?>
<!-- Generator: Adobe Illustrator 26.5.0, SVG Export Plug-In . SVG Version: 6.00 Build 0)  -->
<svg version="1.1" id="Capa_1" xmlns="http://www.w3.org/2000/svg" xmlns:xlink="http://www.w3.org/1999/xlink" x="0px" y="0px"
	 width="65px" height="65px" viewBox="0 0 65 65" style="enable-background:new 0 0 65 65;" xml:space="preserve">
<style type="text/css">
	.st0{fill:#EDEDEF;}
	.st1{fill:#86E8D0;}
	.st2{fill:#5DE1C4;}
	.st3{fill:#FD8087;}
	.st4{fill:#FE646F;}
	.st5{fill:#F9F7F8;}
</style>
<path class="st0" d="M50.2,60.9c6.1-3.7,11.3-9,13.3-14.9c2.2-6.5-1.5-11.9-8.1-13.9c-2.9-0.9-6.3-1-9.3-1.7
	c-3.3-0.8-4.7-2.7-5.5-5.5c-1.7-6.1-4-12.2-11.1-14.8c-3.1-1.2-7-1.5-10.7-0.4C14.4,11,10.8,13.8,8,17c-3,3.4-5.9,7.8-6.6,12
	c-1.2,3.7-1.6,7.5-1.3,11.2C0.3,43.7,3.3,56.5,13,61.5C24.5,67.4,43.5,65,50.2,60.9z"/>
<g>
	<path class="st1" d="M48.9,40c0,2.8-2.3,5.1-5.1,5.1h-15l-5.6,4.7c-0.1,0.1-0.3,0-0.3-0.1v-4.1c0-0.2-0.2-0.4-0.4-0.4h-2.3
		c-2.8,0-5.1-2.3-5.1-5.1V23c0-2.8,2.3-5.1,5.1-5.1h28.8L48.9,40L48.9,40z"/>
	<path class="st2" d="M22,40V23c0-2.8,2.3-5.1,5.1-5.1h-7c-2.8,0-5.1,2.3-5.1,5.1V40c0,2.8,2.3,5.1,5.1,5.1h2.3
		c0.2,0,0.4,0.2,0.4,0.4v4.1c0,0.2,0.2,0.2,0.3,0.1l5.6-4.7h-1.7C24.3,45.1,22,42.8,22,40L22,40z"/>
	<path class="st2" d="M48.9,32.4V17.9H32.8c0.6,3.5,2.2,6.8,4.8,9.4v5.3c0,1.4,1.2,2.6,2.6,2.6c0.6,0,1.3-0.2,1.7-0.7l3.1-2.8
		C46.3,32.1,47.6,32.3,48.9,32.4L48.9,32.4z"/>
	<path class="st3" d="M49.8,0c-8.4,0-15.2,6.9-15.2,15.2c0,4.5,1.9,8.5,5,11.2v6.1c0,0.5,0.6,0.8,1,0.4l3.9-3.6
		c1.8,0.7,3.7,1,5.8,0.9c8.2-0.3,14.7-7,14.7-15.2C65,6.8,58.2,0,49.8,0L49.8,0z"/>
	<path class="st4" d="M39.9,17.8c0-8.9,7-16.2,15.7-16.7C53.8,0.4,51.8,0,49.8,0c-8.4,0-15.2,6.9-15.2,15.2c0,4.5,1.9,8.5,5,11.2
		v6.1c0,0.5,0.6,0.8,1,0.4l3.9-3.6c0,0,0.1,0,0.1,0.1C41.7,26.5,39.9,22.4,39.9,17.8L39.9,17.8z"/>
	<g>
		<path class="st5" d="M50,26.8c-1,0-1.8-0.8-1.8-1.8c0-1,0.8-1.8,1.8-1.8c1,0,1.8,0.8,1.8,1.8C51.8,25.9,51,26.8,50,26.8z"/>
	</g>
	<g>
		<g>
			<path class="st5" d="M50,20.5c-0.8,0-1.5-0.7-1.5-1.5v-3c0-1.1,0.8-2.1,1.9-2.2c1.9-0.2,3.3-1.9,3.1-3.8
				c-0.1-1.8-1.6-3.2-3.4-3.3c-1.8-0.1-3.4,1.2-3.7,3.1c0,0.2,0,0.3,0,0.5c0,0.8-0.7,1.5-1.5,1.5s-1.5-0.7-1.5-1.5
				c0-0.3,0-0.6,0.1-0.9c0.5-3.4,3.4-5.8,6.8-5.7c3.3,0.1,6,2.7,6.3,6.1c0.3,3.3-1.9,6.2-5.1,6.9V19C51.5,19.9,50.8,20.5,50,20.5z"
				/>
		</g>
	</g>
	<g>
		<g>
			<path class="st5" d="M35.1,27.2H24.2c-0.4,0-0.8-0.3-0.8-0.8s0.3-0.8,0.8-0.8h10.8c0.4,0,0.8,0.3,0.8,0.8S35.5,27.2,35.1,27.2z"
				/>
		</g>
	</g>
	<g>
		<g>
			<path class="st5" d="M36.6,32.2H19.7c-0.4,0-0.8-0.3-0.8-0.8s0.3-0.8,0.8-0.8h16.8c0.4,0,0.8,0.3,0.8,0.8S37,32.2,36.6,32.2z"/>
		</g>
	</g>
	<g>
		<g>
			<path class="st5" d="M43.4,37.2H19.7c-0.4,0-0.8-0.3-0.8-0.8s0.3-0.8,0.8-0.8h23.6c0.4,0,0.8,0.3,0.8,0.8S43.8,37.2,43.4,37.2z"
				/>
		</g>
	</g>
</g>
</svg>
