<?xml version="1.0" encoding="utf-8"?>
<!-- Generator: Adobe Illustrator 26.5.0, SVG Export Plug-In . SVG Version: 6.00 Build 0)  -->
<svg version="1.1" id="Layer_1" xmlns="http://www.w3.org/2000/svg" xmlns:xlink="http://www.w3.org/1999/xlink" x="0px" y="0px"
	 width="50px" height="50px" viewBox="0 0 50 50" style="enable-background:new 0 0 50 50;" xml:space="preserve">
<style type="text/css">
	.st0{fill:#424242;}
	.st1{fill:#64B5F6;}
	.st2{fill:#757575;}
	.st3{fill:#FFA000;}
</style>
<g id="Icon">
	<path class="st0" d="M7.5,0h21.7c1.4,0,2.5,1.1,2.5,2.5v45c0,1.4-1.1,2.5-2.5,2.5H7.5C6.1,50,5,48.9,5,47.5v-45C5,1.1,6.1,0,7.5,0z
		"/>
	<path class="st1" d="M5,5h26.7v38.3H5V5z"/>
	<g>
		<path class="st0" d="M22.5,21.7h5v15h-5V21.7z"/>
		<path class="st0" d="M15.8,21.7h5v15h-5V21.7z"/>
		<path class="st0" d="M29.2,21.7h5v15h-5V21.7z"/>
		<path class="st0" d="M35.8,21.7h5v15h-5V21.7z"/>
	</g>
	<path class="st2" d="M41.3,35H15.4c-1.2,0-2.1,0.9-2.1,2.1s0.9,2.1,2.1,2.1h25.8c1.2,0,2.1-0.9,2.1-2.1S42.4,35,41.3,35z"/>
	<path class="st2" d="M13.3,19.2v1.7c0,1.4,1.1,2.5,2.5,2.5h25c1.4,0,2.5-1.1,2.5-2.5v-1.7H13.3z"/>
	<path class="st0" d="M44.6,19.3L29.7,9.9c-0.8-0.5-1.9-0.5-2.7,0l-14.9,9.4c-0.4,0.2-0.5,0.8-0.3,1.1c0.2,0.2,0.4,0.4,0.7,0.4h31.7
		c0.5,0,0.8-0.4,0.8-0.8C45,19.7,44.9,19.4,44.6,19.3z"/>
	<path class="st3" d="M28.7,18v0.5c0,0.4-0.7,0.4-0.6,0V18c-0.8,0-1.6-0.6-1.8-1.4c-0.1-0.3,0.1-0.6,0.4-0.7s0.6,0.1,0.7,0.4
		c0,0,0,0.1,0,0.1c0.1,0.5,0.6,0.8,1,0.7c0.6,0.1,1.1-0.5,0.6-0.9c-0.2-0.1-0.5-0.2-0.7-0.2c-2.4-0.2-2.4-2.8-0.3-3.2v-0.4
		c0-0.4,0.7-0.3,0.6,0v0.4c0.7,0,1.4,0.5,1.6,1.2c0.2,0.6-0.8,1-1,0.3c-0.1-0.4-0.5-0.6-0.9-0.6c-1,0-0.9,1,0,1
		c0.4,0.1,0.8,0.2,1.1,0.3C31.2,15.7,30.4,18,28.7,18L28.7,18z"/>
	<path class="st2" d="M20.8,47.5h-5c-0.5,0-0.8-0.4-0.8-0.8c0-0.5,0.4-0.8,0.8-0.8h5c0.5,0,0.8,0.4,0.8,0.8
		C21.7,47.1,21.3,47.5,20.8,47.5z"/>
</g>
</svg>
