<?xml version="1.0" encoding="utf-8"?>
<!-- Generator: Adobe Illustrator 26.5.0, SVG Export Plug-In . SVG Version: 6.00 Build 0)  -->
<svg version="1.1" id="Layer_1" xmlns="http://www.w3.org/2000/svg" xmlns:xlink="http://www.w3.org/1999/xlink" x="0px" y="0px"
	 width="80px" height="80px" viewBox="0 0 80 80" style="enable-background:new 0 0 80 80;" xml:space="preserve">
<style type="text/css">
	.st0{fill:#FFFFFF;}
</style>
<g id="_x30_35---Data-Science">
	<path id="Shape" class="st0" d="M80,20c0-2.9-2.4-5.3-5.3-5.3c-1.3,0-2.5,0.5-3.5,1.3c-3.9-2-9.1-2.9-15.2-2.6
		C52,4.9,46.2,0.1,40.1,0.1c-2,0-3.9,0.5-5.7,1.4c-2.1-1.9-5.3-1.9-7.3,0s-2.2,5.1-0.4,7.3c-1,1.5-1.8,3-2.6,4.6
		c-4.5-0.3-8.9,0.2-13.2,1.7c-3.7,1.2-6.8,3.9-8.4,7.4C0.3,27.6,1.7,33.8,6,40.1C2,45.8,0.6,51.4,2,56c-1.5,1.2-2.2,3.2-1.9,5.1
		c0.3,1.9,1.7,3.5,3.6,4.1s3.9,0.2,5.3-1.2c4,1.9,8.4,2.8,12.8,2.6c0.8,0,1.6,0,2.4-0.1c4,8.5,9.8,13.4,16,13.4S52,75.1,56,66.5
		c0.8,0,1.6,0.1,2.3,0.1c3.7,0.1,7.3-0.5,10.8-1.7c3.7-1.2,6.8-3.9,8.4-7.4c2.3-5.1,0.8-11.4-3.4-17.6c3.9-5.7,5.3-11.3,4-15.9
		C79.3,23,80,21.6,80,20L80,20z M74.7,17.4c1.5,0,2.7,1.2,2.7,2.7c0,1.5-1.2,2.7-2.7,2.7S72,21.5,72,20C72,18.6,73.2,17.4,74.7,17.4
		z M44.3,61.9c1.5-0.6,3.1-1.3,4.6-2c2.8-1.3,5.5-2.8,8.1-4.4c-0.7,2.8-1.5,5.6-2.7,8.2C50.9,63.5,47.6,62.8,44.3,61.9z M58.7,40
		c0,4-0.3,8-1,11.9c-3.2,2.1-6.5,4-9.9,5.6c-2.5,1.2-5.1,2.2-7.7,3.1c-2.6-0.9-5.2-1.9-7.7-3.1c-3.4-1.6-6.8-3.5-9.9-5.6
		c-1.4-7.9-1.4-16,0-23.9c3.2-2.1,6.5-4,9.9-5.6c2.5-1.2,5.1-2.2,7.7-3.1c6.2,2.1,12.1,5,17.6,8.7C58.4,32,58.7,36,58.7,40L58.7,40z
		 M60.7,30.2c3.8,2.8,7.2,6.1,10.2,9.8c-2.9,3.7-6.3,7-10.2,9.8c0.4-3.2,0.6-6.5,0.6-9.8C61.4,36.7,61.2,33.4,60.7,30.2z M25.8,63.7
		c-1.1-2.6-2-5.4-2.6-8.2c2.6,1.6,5.3,3.1,8.1,4.3c1.5,0.7,3.1,1.4,4.6,2C32.6,62.8,29.2,63.4,25.8,63.7L25.8,63.7z M35.9,18.1
		c-1.5,0.6-3.1,1.3-4.6,2c-2.8,1.3-5.5,2.8-8.1,4.4c0.6-2.8,1.5-5.5,2.6-8.2C29.2,16.6,32.6,17.2,35.9,18.1L35.9,18.1z M19.4,49.8
		c-3.8-2.8-7.2-6.1-10.2-9.8c2.9-3.7,6.3-7,10.2-9.8C18.6,36.7,18.6,43.3,19.4,49.8L19.4,49.8z M48.9,20.1c-1.5-0.7-3.1-1.4-4.6-2
		c3.3-0.9,6.7-1.5,10.1-1.8c1.1,2.6,2,5.4,2.6,8.2C54.4,22.8,51.7,21.4,48.9,20.1z M30.7,2.7c1.5,0,2.7,1.2,2.7,2.7
		s-1.2,2.7-2.7,2.7s-2.7-1.2-2.7-2.7S29.3,2.7,30.7,2.7z M28.9,10.4c0.6,0.2,1.2,0.4,1.9,0.4c2.9,0,5.3-2.4,5.3-5.3
		c0-0.6-0.1-1.1-0.3-1.6c1.3-0.7,2.8-1,4.3-1c4.9,0,9.6,4,13.1,11c-4.5,0.5-8.9,1.5-13.1,2.9c-4.3-1.4-8.7-2.4-13.1-2.9
		C27.5,12.5,28.2,11.4,28.9,10.4z M5,23.5c1.4-2.9,3.9-5,6.9-5.9c3.2-1.1,6.5-1.6,9.9-1.6c0.4,0,0.8,0,1.2,0
		c-1.3,3.4-2.3,6.9-3,10.4c-4.7,3.1-8.8,6.9-12.4,11.3C4.3,32.6,3.2,27.6,5,23.5L5,23.5z M5.5,62.6c-1.5,0-2.7-1.2-2.7-2.7
		c0-1.5,1.2-2.7,2.7-2.7s2.7,1.2,2.7,2.7C8.1,61.4,6.9,62.6,5.5,62.6z M10.4,61.8c0.2-0.6,0.3-1.2,0.3-1.8c0-1.6-0.7-3.1-1.9-4.1
		c-1.2-1-2.9-1.4-4.4-1.1c-0.8-3.6,0.3-7.9,3.2-12.4c3.6,4.3,7.7,8.1,12.4,11.2c0.7,3.5,1.6,7,3,10.4C18.7,64.2,14.4,63.5,10.4,61.8
		L10.4,61.8z M40.1,77.3c-4.9,0-9.6-4-13.1-11c4.5-0.5,8.9-1.5,13.1-2.9c4.3,1.4,8.6,2.4,13.1,2.9C49.7,73.3,45,77.3,40.1,77.3
		L40.1,77.3z M75.2,56.5c-1.4,2.9-3.9,5-6.9,5.9c-3.6,1.2-7.3,1.8-11.1,1.6c1.3-3.4,2.3-6.9,3-10.5c4.7-3.1,8.8-6.9,12.4-11.3
		C75.8,47.4,77,52.4,75.2,56.5z M72.5,37.7c-3.6-4.3-7.7-8.1-12.4-11.2c-0.7-3.5-1.6-7-3-10.4c4.3-0.3,8.6,0.5,12.6,2.2
		c-0.2,0.6-0.3,1.2-0.3,1.8c0,1.6,0.7,3.1,1.9,4.1c1.2,1,2.9,1.4,4.4,1.1C76.5,28.8,75.4,33.1,72.5,37.7L72.5,37.7z"/>
	<path id="Shape_00000011024543109759241020000003159459946633359543_" class="st0" d="M25.4,32v5.3c0,1,0.4,1.9,1,2.7
		c-0.7,0.7-1,1.7-1,2.7V48c0,2.2,1.8,4,4,4h21.3c2.2,0,4-1.8,4-4v-5.3c0-1-0.4-1.9-1-2.7c0.7-0.7,1-1.7,1-2.7V32c0-2.2-1.8-4-4-4
		H29.4C27.2,28,25.4,29.8,25.4,32z M52,48c0,0.7-0.6,1.3-1.3,1.3H29.4c-0.7,0-1.3-0.6-1.3-1.3v-5.3c0-0.7,0.6-1.3,1.3-1.3h21.3
		c0.7,0,1.3,0.6,1.3,1.3V48z M52,32v5.3c0,0.7-0.6,1.3-1.3,1.3H29.4c-0.7,0-1.3-0.6-1.3-1.3V32c0-0.7,0.6-1.3,1.3-1.3h21.3
		C51.5,30.7,52,31.3,52,32z"/>
	<path id="Path" class="st0" d="M32.1,36h1.3c0.7,0,1.3-0.6,1.3-1.3c0-0.7-0.6-1.3-1.3-1.3h-1.3c-0.7,0-1.3,0.6-1.3,1.3
		C30.7,35.4,31.3,36,32.1,36z"/>
	<path id="Path_00000127027939781541933540000000691612521261413762_" class="st0" d="M42.7,36h5.3c0.7,0,1.3-0.6,1.3-1.3
		c0-0.7-0.6-1.3-1.3-1.3h-5.3c-0.7,0-1.3,0.6-1.3,1.3C41.4,35.4,42,36,42.7,36z"/>
	<path id="Path_00000139289440189550936200000000142615510174716055_" class="st0" d="M33.4,44h-1.3c-0.7,0-1.3,0.6-1.3,1.3
		s0.6,1.3,1.3,1.3h1.3c0.7,0,1.3-0.6,1.3-1.3S34.1,44,33.4,44z"/>
	<path id="Path_00000026143966746254732400000007973933244149405099_" class="st0" d="M48.1,44h-5.3c-0.7,0-1.3,0.6-1.3,1.3
		s0.6,1.3,1.3,1.3h5.3c0.7,0,1.3-0.6,1.3-1.3S48.8,44,48.1,44z"/>
</g>
</svg>
