<svg version="1.2" xmlns="http://www.w3.org/2000/svg" viewBox="0 0 56 71" width="56" height="71"><style>.a{fill:#d7dadc}.b{fill:#4fb7e4}.c{fill:#bdc2c5}.d{fill:#5fa2df}.e{fill:#fff}.f{fill:#5ba658}.g{fill:#52954f}.h{fill:#ffd45a}.i{fill:#e5be51}.j{fill:#e46047}</style><path class="a" d="m39.7 0.2l15.7 15.8v49.8c0 2.4-2 4.4-4.4 4.4h-46.2c-2.4 0-4.3-2-4.3-4.4v-61.2c0-2.4 1.9-4.4 4.3-4.4z"/><path class="b" d="m39.7 0.2l15.7 15.8h-11.4c-2.4 0-4.3-2-4.3-4.4z"/><path class="c" d="m46.8 32.8h-29.1c-0.4 0-0.7-0.4-0.7-0.8 0-0.4 0.3-0.8 0.7-0.8h29.1c0.4 0 0.8 0.4 0.8 0.8 0 0.4-0.4 0.8-0.8 0.8z"/><path class="c" d="m46.8 36.3h-29.1c-0.4 0-0.7-0.4-0.7-0.8 0-0.4 0.3-0.8 0.7-0.8h29.1c0.4 0 0.8 0.4 0.8 0.8 0 0.4-0.4 0.8-0.8 0.8z"/><path class="c" d="m32.6 39.7h-14.9c-0.4 0-0.7-0.3-0.7-0.7 0-0.4 0.3-0.8 0.7-0.8h14.9c0.5 0 0.8 0.4 0.8 0.8 0 0.4-0.3 0.7-0.8 0.7z"/><path class="b" d="m14.9 33.4v4.2c0 0.7-0.5 1.2-1.2 1.2h-4.2c-0.7 0-1.2-0.5-1.2-1.2v-4.2c0-0.7 0.5-1.2 1.2-1.2h4.2c0.7 0 1.2 0.5 1.2 1.2z"/><path class="d" d="m13.9 38.8q-0.1 0-0.2 0h-4.2c-0.7 0-1.2-0.5-1.2-1.2v-4.2q0-0.4 0.3-0.7-0.1 0.1-0.1 0.2c0 3.1 2.4 5.6 5.4 5.9z"/><path class="e" d="m11 37.2q-0.2 0-0.4-0.2l-1.1-1.1c-0.2-0.2-0.2-0.5 0-0.7 0.2-0.2 0.6-0.2 0.8 0l0.7 0.7 1.9-1.9c0.2-0.3 0.6-0.3 0.8 0 0.2 0.2 0.2 0.5 0 0.7l-2.3 2.3q-0.2 0.2-0.4 0.2z"/><path class="c" d="m46.8 45.1h-29.1c-0.4 0-0.7-0.3-0.7-0.7 0-0.4 0.3-0.8 0.7-0.8h29.1c0.4 0 0.8 0.4 0.8 0.8 0 0.4-0.4 0.7-0.8 0.7z"/><path class="c" d="m46.8 48.6h-29.1c-0.4 0-0.7-0.3-0.7-0.7 0-0.5 0.3-0.8 0.7-0.8h29.1c0.4 0 0.8 0.3 0.8 0.8 0 0.4-0.4 0.7-0.8 0.7z"/><path class="c" d="m32.6 52.1h-14.9c-0.4 0-0.7-0.3-0.7-0.7 0-0.5 0.3-0.8 0.7-0.8h14.9c0.5 0 0.8 0.3 0.8 0.8 0 0.4-0.3 0.7-0.8 0.7z"/><path class="f" d="m14.9 45.8v4.2c0 0.6-0.5 1.2-1.2 1.2h-4.2c-0.7 0-1.2-0.6-1.2-1.2v-4.2c0-0.7 0.5-1.3 1.2-1.3h4.2c0.7 0 1.2 0.6 1.2 1.3z"/><path class="e" d="m11 49.6q-0.2 0-0.4-0.2l-1.1-1.1c-0.2-0.2-0.2-0.6 0-0.8 0.2-0.2 0.6-0.2 0.8 0l0.7 0.8 1.9-2c0.2-0.2 0.6-0.2 0.8 0 0.2 0.2 0.2 0.6 0 0.8l-2.3 2.3q-0.2 0.2-0.4 0.2z"/><path class="g" d="m13.9 51.2q-0.1 0-0.2 0h-4.2c-0.7 0-1.2-0.6-1.2-1.2v-4.2q0-0.5 0.3-0.8-0.1 0.2-0.1 0.3c0 3.1 2.4 5.6 5.4 5.9z"/><path class="c" d="m46.8 57.5h-29.1c-0.4 0-0.7-0.3-0.7-0.7 0-0.5 0.3-0.8 0.7-0.8h29.1c0.4 0 0.8 0.3 0.8 0.8 0 0.4-0.4 0.7-0.8 0.7z"/><path class="c" d="m46.8 61h-29.1c-0.4 0-0.7-0.3-0.7-0.8 0-0.4 0.3-0.7 0.7-0.7h29.1c0.4 0 0.8 0.3 0.8 0.7 0 0.5-0.4 0.8-0.8 0.8z"/><path class="c" d="m32.6 64.5h-14.9c-0.4 0-0.7-0.4-0.7-0.8 0-0.4 0.3-0.7 0.7-0.7h14.9c0.5 0 0.8 0.3 0.8 0.7 0 0.4-0.3 0.8-0.8 0.8z"/><path class="h" d="m14.9 58.1v4.2c0 1.6-1.6 1.3-5.4 1.3-0.7 0-1.2-0.6-1.2-1.3v-4.2c0-0.6 0.5-1.2 1.2-1.2h4.2c0.7 0 1.2 0.6 1.2 1.2z"/><path class="e" d="m11 61.9q-0.2 0-0.4-0.1l-1.1-1.1c-0.2-0.2-0.2-0.6 0-0.8 0.2-0.2 0.6-0.2 0.8 0l0.7 0.7 1.9-1.9c0.2-0.2 0.6-0.2 0.8 0 0.2 0.2 0.2 0.5 0 0.8l-2.3 2.3q-0.2 0.1-0.4 0.1z"/><path class="i" d="m13.9 63.5c-0.1 0.1-4.3 0.1-4.4 0.1-0.7 0-1.2-0.6-1.2-1.3v-4.2q0-0.4 0.3-0.7c-0.4 1.9 1.4 5.8 5.3 6.1z"/><path class="j" d="m41.8 19.1v6.7c0 0.8-0.7 1.5-1.5 1.5h-24.8c-0.8 0-1.4-0.7-1.4-1.5v-6.7c0-0.8 0.6-1.4 1.4-1.4h24.8c0.8 0 1.5 0.6 1.5 1.4z"/><path class="e" d="m21.4 20.3q0.5 0.5 0.5 1.5 0 1-0.6 1.5-0.5 0.5-1.8 0.5h-0.7v1.5h-1.2v-5.5h1.9q1.3 0 1.9 0.5zm-0.9 2.2q0.2-0.3 0.2-0.7 0-0.5-0.3-0.7-0.3-0.2-0.9-0.2h-0.7v1.8h0.8q0.6 0 0.9-0.2z"/><path class="e" d="m22.9 25.3v-5.5h1.2v4.4h2.4v1.1c0 0-3.6 0-3.6 0z"/><path class="e" d="m31.3 25.3l-0.5-1.2h-2.3l-0.6 1.2h-1.3l2.4-5.5h1.2l2.4 5.5zm-1.7-3.8l-0.7 1.6h1.4z"/><path class="e" d="m37 19.8h1.3v5.5h-1.3l-2.6-3.4v3.4h-1.2v-5.5h1.2l2.6 3.6z"/></svg>