<svg version="1.2" xmlns="http://www.w3.org/2000/svg" viewBox="0 0 50 46" width="50" height="46"><style></style><path fill-rule="evenodd" d="m41.2 4.2l0.6 1.2h-16.2l6.3-3.6c1.2-0.7 2.5-1 3.8-0.9 2.2 0.1 4.3 1.3 5.5 3.3zm1.9 5.7c3.7 0 6.8 3 6.8 6.7v2.2h-49.8v-2.2c0-3.7 3.1-6.7 6.8-6.7zm6.8 13.4v15.7c0 3.7-3.1 6.7-6.8 6.7h-36.2c-3.7 0-6.8-3-6.8-6.7v-15.7zm-40.1 9.6c-0.4 0.4-0.7 1-0.7 1.6 0 0.6 0.3 1.2 0.7 1.6 0.4 0.4 1 0.7 1.6 0.6h13.6c0.6 0.1 1.2-0.2 1.6-0.6 0.5-0.4 0.7-1 0.7-1.6 0-0.6-0.2-1.2-0.7-1.6-0.4-0.4-1-0.7-1.6-0.6h-13.6c-0.6-0.1-1.2 0.2-1.6 0.6zm27.9-0.5q-0.4 0.2-0.7 0.5-0.3 0.3-0.5 0.7-0.2 0.5-0.2 0.9 0 0.5 0.2 0.9 0.2 0.4 0.5 0.7 0.3 0.3 0.7 0.5 0.4 0.1 0.9 0.1 0.4 0 0.8-0.1 0.5-0.2 0.8-0.5 0.3-0.3 0.5-0.7 0.1-0.4 0.1-0.9 0-0.4-0.1-0.9-0.2-0.4-0.5-0.7-0.3-0.3-0.8-0.5-0.4-0.1-0.8-0.1-0.5 0-0.9 0.1z"/></svg>