<svg version="1.2" xmlns="http://www.w3.org/2000/svg" viewBox="0 0 70 70" width="70" height="70"><style>.a{fill:#e8edf2}.b{fill:#0c6bc3}.c{fill:#fff}.d{fill:#fabb53}.e{fill:#f99944}.f{fill:#ffd77f}.g{fill:#454545}.h{fill:#2c2c2c}.i{fill:#c4d3e4}.j{fill:#108be1}.k{fill:#4db6ff}.l{fill:#e9293a}.m{fill:#d42032}</style><path class="a" d="m58.7 22.2v38.6c0 5-4.1 9-9.1 9h-40.4c-5 0-9.1-4-9.1-9v-51.8c0-5 4.1-9 9.1-9h27.2c1.3 0 2.6 0.3 3.8 0.8 0.9 0.4 1.8 1 2.6 1.8l13.2 13.2c0.8 0.7 1.4 1.6 1.8 2.6q0.8 1.8 0.9 3.8z"/><path class="b" d="m57.8 18.5h-13.3c-2.4 0-4.3-2-4.3-4.4v-13.2c0.9 0.4 1.8 1 2.6 1.8l13.2 13.1c0.8 0.8 1.4 1.7 1.8 2.7z"/><path class="c" d="m10.3 1.3h9.6c0.3 0 0.7 0.2 1 0.4 0.2 0.3 0.4 0.7 0.4 1.1 0 0.7-0.7 1.4-1.4 1.4h-9.6c-0.8 0-1.4-0.7-1.4-1.4 0-0.8 0.6-1.5 1.4-1.5z"/><path class="d" d="m69.8 62.8c0.1 3.2-2.2 6-5.4 6.4-6.9 0.9-11.5 0.9-18.3 0-3.2-0.4-5.6-3.2-5.5-6.4 0.2-6.9 1.2-10.6 3.2-17.4 0.7-2.4 2.8-4.2 5.3-4.5 4.9-0.5 7.5-0.5 12.4 0 2.4 0.3 4.5 2.1 5.2 4.5 1.9 6.8 3 10.5 3.1 17.4z"/><path class="e" d="m66.7 45.4c-0.7-2.4-2.8-4.2-5.2-4.5-2.4-0.2-4.3-0.4-6.1-0.4v29.3c2.8 0 5.6-0.2 9-0.6 3.2-0.4 5.5-3.2 5.4-6.4-0.1-6.9-1.2-10.6-3.1-17.4z"/><path class="f" d="m48.5 67.9q-0.1 0-0.1 0-1-0.1-2-0.2c-2.4-0.3-4.2-2.4-4.2-4.9 0.1-0.7 0.6-1.2 1.2-1.2 0.7 0.1 1.2 0.6 1.2 1.2-0.1 1.3 0.9 2.4 2.1 2.6q1 0.1 1.9 0.2c0.6 0 1.1 0.6 1 1.3 0 0.6-0.5 1-1.1 1z"/><path class="g" d="m61 44.6c-0.9 0-1.6 0.7-1.6 1.6v2.7c0 2.3-1.9 4.2-4.2 4.2-2.3 0-4.1-1.9-4.1-4.2v-2.7c0-0.9-0.7-1.6-1.6-1.6-0.8 0-1.5 0.7-1.5 1.6v2.7c0 4 3.2 7.3 7.2 7.3 4.1 0 7.3-3.3 7.3-7.3v-2.7c0-0.9-0.7-1.6-1.5-1.6z"/><path class="h" d="m55.3 56.2v-3.1c2.3-0.1 4.1-1.9 4.1-4.2v-2.7c0-0.9 0.7-1.6 1.6-1.6 0.8 0 1.5 0.7 1.5 1.6v2.7c0 4-3.2 7.2-7.2 7.3z"/><path class="i" d="m37.2 56.5h-9.8c-0.9 0-1.5-0.7-1.5-1.5 0-0.8 0.6-1.5 1.5-1.5h9.8c0.8 0 1.5 0.7 1.5 1.5 0 0.8-0.7 1.5-1.5 1.5z"/><path class="i" d="m32.4 63.1h-5c-0.9 0-1.5-0.7-1.5-1.5 0-0.8 0.6-1.5 1.5-1.5h5c0.9 0 1.5 0.7 1.5 1.5 0 0.8-0.6 1.5-1.5 1.5z"/><path class="j" d="m19.9 55v6.5c0 1.5-1.3 2.8-2.8 2.8h-6.5c-1.6 0-2.9-1.3-2.9-2.8v-6.5c0-1.6 1.3-2.9 2.9-2.9h6.5c1.5 0 2.8 1.3 2.8 2.9z"/><path class="b" d="m19.9 57.8v3.7c0 1.5-1.3 2.8-2.8 2.8h-6.5c-1.6 0-2.9-1.3-2.9-2.8v-3.7z"/><path class="k" d="m11.8 52.5h1.3q0.2 0 0.4 0.2 0.2 0.2 0.2 0.5c0 0.4-0.3 0.7-0.6 0.7h-1.3c-0.4 0-0.7-0.3-0.7-0.7 0-0.4 0.3-0.7 0.7-0.7z"/><path class="c" d="m13.1 60.5q-0.4 0-0.7-0.3l-1.2-1.3c-0.4-0.3-0.4-1 0-1.3 0.4-0.4 1-0.4 1.4 0l0.5 0.5 1.9-1.9c0.4-0.4 1.1-0.4 1.4 0 0.4 0.4 0.4 1 0 1.4l-2.6 2.6q-0.3 0.3-0.7 0.3z"/><path class="i" d="m49.6 39.1h-22.2c-0.9 0-1.5-0.6-1.5-1.5 0-0.8 0.6-1.4 1.5-1.4h22.2c0.8 0 1.5 0.6 1.5 1.4 0 0.9-0.7 1.5-1.5 1.5z"/><path class="i" d="m39 45.7h-11.6c-0.9 0-1.5-0.7-1.5-1.5 0-0.8 0.6-1.5 1.5-1.5h11.6c0.8 0 1.5 0.7 1.5 1.5 0 0.8-0.7 1.5-1.5 1.5z"/><path class="j" d="m19.9 37.6v6.5c0 1.6-1.3 2.8-2.8 2.8h-6.5c-1.6 0-2.9-1.2-2.9-2.8v-6.5c0-1.6 1.3-2.8 2.9-2.8h6.5c1.5 0 2.8 1.2 2.8 2.8z"/><path class="b" d="m19.9 40.4v3.7c0 1.6-1.3 2.8-2.8 2.8h-6.5c-1.6 0-2.9-1.2-2.9-2.8v-3.7z"/><path class="k" d="m11.8 35.2h1.3q0.2 0 0.4 0.2 0.2 0.1 0.2 0.4c0 0.4-0.3 0.7-0.6 0.7h-1.3c-0.4 0-0.7-0.3-0.7-0.7 0-0.3 0.3-0.6 0.7-0.6z"/><path class="c" d="m13.1 43.1q-0.4 0-0.7-0.3l-1.2-1.2c-0.4-0.4-0.4-1 0-1.4 0.4-0.4 1-0.4 1.4 0l0.5 0.6 1.9-1.9c0.4-0.4 1.1-0.4 1.4 0 0.4 0.3 0.4 1 0 1.4l-2.6 2.5q-0.3 0.3-0.7 0.3z"/><path class="l" d="m35.1 22.2l-8.1 8c-1.2 1.3-3.2 1.3-4.5 0l-8.1-8c-2.7-2.8-2.9-7.2-0.2-10 2.7-2.8 7.2-2.9 10-0.1 0.3 0.3 0.8 0.3 1.1 0 2.8-2.8 7.3-2.7 10 0.1 2.7 2.8 2.5 7.2-0.2 10z"/><path class="m" d="m35.3 12.2c-2.7-2.8-7.2-2.9-10-0.1q-0.3 0.3-0.6 0.2v18.9c0.8 0 1.7-0.3 2.3-1l8.1-8c2.7-2.8 2.9-7.2 0.2-10z"/></svg>