<svg version="1.2" xmlns="http://www.w3.org/2000/svg" viewBox="0 0 70 70" width="70" height="70"><style>.a{fill:#ffcd00}.b{fill:#ff9811}.c{fill:#ffa733}.d{fill:#ff5023}.e{fill:#5eac24}</style><path class="a" d="m57.7 39.7q-0.2 1.1-0.5 2.2-0.3 1-0.8 2.1-0.4 1-0.9 2-0.5 1-1.2 1.9l3.7 3.6-6.6 6.6-3.6-3.6q-1 0.6-1.9 1.1-1 0.6-2.1 1-1 0.4-2.1 0.8-1 0.3-2.1 0.5v5.1h-9.3v-5.1q-1.1-0.2-2.2-0.5-1.1-0.4-2.1-0.8-1-0.4-2-1-1-0.5-1.9-1.1l-3.6 3.6-6.6-6.6 3.6-3.6q-0.6-0.9-1.1-1.9-0.6-1-1-2-0.4-1.1-0.7-2.1-0.4-1.1-0.6-2.2h-5.1v-9.3h5.1q0.2-1.1 0.6-2.2 0.3-1.1 0.7-2.1 0.4-1 1-2 0.5-1 1.1-1.9l-3.6-3.7 6.6-6.6 3.6 3.7q0.9-0.6 1.9-1.2 1-0.5 2-0.9 1-0.4 2.1-0.8 1.1-0.3 2.2-0.5v-5.2h9.3v5.2q1.1 0.2 2.1 0.5 1.1 0.4 2.1 0.8 1.1 0.4 2.1 0.9 0.9 0.6 1.9 1.2l3.6-3.7 6.6 6.6-3.7 3.7q0.7 0.9 1.2 1.9 0.5 1 0.9 2 0.5 1 0.8 2.1 0.3 1.1 0.5 2.2h5.2v9.3z"/><path fill-rule="evenodd" class="b" d="m34.9 51.4c-9 0-16.3-7.3-16.3-16.4 0-9 7.3-16.3 16.3-16.3 9 0 16.3 7.3 16.3 16.3 0 9.1-7.3 16.4-16.3 16.4z"/><path fill-rule="evenodd" class="c" d="m34.9 49c-7.7 0-13.9-6.2-13.9-14 0-7.7 6.2-14 13.9-14 7.8 0 14 6.3 14 14 0 7.8-6.2 14-14 14z"/><path class="d" d="m34.9 29.2q0.5 0 0.9 0.2 0.4 0.2 0.8 0.5 0.3 0.3 0.5 0.8 0.2 0.4 0.2 0.8h3.4q0-0.8-0.2-1.6-0.2-0.8-0.7-1.6-0.5-0.7-1.1-1.2-0.7-0.6-1.4-0.9v-2.8h-3.5v2.4c-1.5 0.3-2.7 1.1-3.6 2.3-0.8 1.2-1.2 2.6-1.1 4 0.2 1.5 0.8 2.8 1.9 3.8 1.1 0.9 2.5 1.5 3.9 1.5 1 0 1.8 0.5 2.2 1.4 0.3 0.9 0.1 1.9-0.5 2.6-0.7 0.6-1.7 0.8-2.6 0.5-0.8-0.4-1.4-1.2-1.4-2.2h-3.5q0 0.9 0.3 1.7 0.2 0.8 0.7 1.5 0.4 0.7 1.1 1.3 0.6 0.5 1.4 0.9v2.8h3.5v-2.5c1.4-0.3 2.7-1.1 3.5-2.2 0.9-1.2 1.3-2.6 1.1-4.1-0.1-1.4-0.8-2.7-1.9-3.7-1-1-2.4-1.5-3.9-1.5-0.6 0-1.2-0.3-1.6-0.7-0.5-0.4-0.7-1-0.7-1.7 0-0.6 0.2-1.2 0.7-1.6 0.4-0.4 1-0.7 1.6-0.7z"/><path class="e" d="m67.8 15.2q-0.3 0-0.5 0-0.2 0.1-0.4 0.2-0.2 0.1-0.3 0.3-0.2 0.2-0.2 0.4l-0.5 2.7c-3.7-6.9-9.5-12.4-16.6-15.7-7.1-3.2-15.1-3.9-22.7-2-7.6 1.8-14.3 6.2-19.2 12.4-4.8 6.1-7.4 13.7-7.4 21.5q0 0.8 0 1.6 0.1 0.7 0.1 1.5 0.1 0.7 0.2 1.5 0.1 0.7 0.2 1.5 0.1 0.2 0.2 0.4 0.1 0.2 0.2 0.3 0.2 0.1 0.4 0.2 0.2 0.1 0.4 0.1 0 0 0 0 0 0 0.1 0 0 0 0 0 0-0.1 0.1-0.1 0.2 0 0.4-0.1 0.2-0.1 0.3-0.3 0.1-0.2 0.2-0.4 0-0.3 0-0.5c-0.8-4.7-0.6-9.5 0.6-14.1 1.3-4.6 3.5-8.9 6.6-12.6 3-3.6 6.8-6.5 11.2-8.6 4.3-2 9-3 13.7-3 3.1 0 6.1 0.4 9 1.2 2.9 0.9 5.6 2.1 8.2 3.7 2.6 1.6 4.9 3.6 7 5.8 2 2.2 3.7 4.8 5 7.5l-3.3-0.7c-0.3 0-0.6 0-0.9 0.2-0.2 0.2-0.4 0.4-0.5 0.7 0 0.3 0 0.6 0.2 0.9 0.2 0.2 0.4 0.4 0.7 0.5l5.8 1.2q0.1 0 0.1 0 0 0 0 0 0.1 0 0.1 0 0 0 0.1 0 0.2 0 0.4-0.1 0.1-0.1 0.3-0.2 0.2-0.1 0.3-0.3 0.1-0.2 0.1-0.4l1.2-5.8q0-0.2 0-0.4-0.1-0.3-0.2-0.5-0.1-0.2-0.3-0.3-0.2-0.1-0.4-0.2z"/><path class="d" d="m69.3 29.1c0-0.3-0.2-0.6-0.4-0.8-0.3-0.1-0.6-0.2-0.9-0.1-0.3 0-0.6 0.2-0.7 0.4-0.2 0.3-0.3 0.6-0.2 0.9 0.8 4.7 0.5 9.5-0.7 14.1-1.3 4.6-3.5 8.8-6.5 12.5-3.1 3.6-6.9 6.5-11.2 8.6-4.3 2-9 3-13.8 3-3 0-6-0.4-8.9-1.3-2.9-0.8-5.7-2-8.3-3.6-2.5-1.6-4.9-3.6-6.9-5.8-2-2.3-3.7-4.8-5.1-7.5l3.4 0.7c0.3 0 0.6 0 0.8-0.2 0.3-0.2 0.5-0.4 0.5-0.7 0.1-0.3 0-0.6-0.2-0.9-0.1-0.2-0.4-0.4-0.7-0.5l-5.8-1.2q-0.2 0-0.4 0-0.3 0.1-0.5 0.2-0.1 0.1-0.3 0.3-0.1 0.2-0.1 0.4l-1.2 5.9q-0.1 0.2 0 0.4 0 0.3 0.2 0.5 0.1 0.1 0.3 0.3 0.2 0.1 0.4 0.2 0 0 0.1 0 0 0 0 0 0 0 0.1 0 0 0 0 0 0.2 0 0.4-0.1 0.2-0.1 0.4-0.2 0.1-0.1 0.2-0.3 0.1-0.2 0.2-0.4l0.5-2.6c3.9 7.4 10.2 13.1 18 16.2 7.7 3.1 16.3 3.4 24.1 0.7 7.9-2.7 14.6-8.1 18.8-15.3 4.3-7.1 5.9-15.6 4.4-23.8z"/></svg>