<svg version="1.2" xmlns="http://www.w3.org/2000/svg" viewBox="0 0 71 71" width="71" height="71"><defs><linearGradient id="P" gradientUnits="userSpaceOnUse"/><linearGradient id="g1" x2="1" href="#P" gradientTransform="matrix(1.484,0,0,8.236,25.25,45.936)"><stop stop-color="#84405f"/><stop offset="1" stop-color="#9b5678"/></linearGradient><linearGradient id="g2" x2="1" href="#P" gradientTransform="matrix(1.484,0,0,13.939,25.25,28.408)"><stop stop-color="#84405f"/><stop offset="1" stop-color="#9b5678"/></linearGradient><linearGradient id="g3" x2="1" href="#P" gradientTransform="matrix(1.484,0,0,8.235,35.037,25.556)"><stop stop-color="#84405f"/><stop offset="1" stop-color="#9b5678"/></linearGradient><linearGradient id="g4" x2="1" href="#P" gradientTransform="matrix(1.484,0,0,13.938,35.037,43.085)"><stop stop-color="#84405f"/><stop offset="1" stop-color="#9b5678"/></linearGradient><linearGradient id="g5" x2="1" href="#P" gradientTransform="matrix(1.484,0,0,9.196,44.825,45.456)"><stop stop-color="#84405f"/><stop offset="1" stop-color="#9b5678"/></linearGradient><linearGradient id="g6" x2="1" href="#P" gradientTransform="matrix(1.484,0,0,12.979,44.825,27.928)"><stop stop-color="#84405f"/><stop offset="1" stop-color="#9b5678"/></linearGradient><linearGradient id="g7" x2="1" href="#P" gradientTransform="matrix(7.925,0,0,7.925,31.817,32.895)"><stop stop-color="#0969db"/><stop offset="1" stop-color="#4f8aff"/></linearGradient></defs><style>.a{fill:#f77953}.b{fill:#fff}.c{fill:url(#g1)}.d{fill:url(#g2)}.e{fill:url(#g3)}.f{fill:url(#g4)}.g{fill:url(#g5)}.h{fill:url(#g6)}.i{fill:url(#g7)}.j{fill:#543843}</style><path class="a" d="m70.7 32.8v5.9c0 0.6-0.5 1.1-1.1 1.3l-4.3 1.1c-0.5 0.1-0.9 0.5-1 1-0.7 3.4-2.1 6.5-3.8 9.3-0.3 0.4-0.3 1-0.1 1.4l2.3 3.9c0.3 0.5 0.3 1.2-0.2 1.6l-4.1 4.2c-0.5 0.4-1.2 0.5-1.7 0.2l-3.8-2.3c-0.5-0.3-1-0.3-1.4 0-2.9 1.8-6 3.1-9.3 3.9-0.5 0.1-1 0.5-1.1 1l-1.1 4.3c-0.1 0.6-0.7 1-1.3 1h-5.9c-0.6 0-1.1-0.4-1.3-1l-1.1-4.3c-0.1-0.5-0.5-0.9-1-1-3.3-0.8-6.5-2.1-9.3-3.9-0.4-0.3-1-0.3-1.4 0l-3.8 2.3c-0.6 0.3-1.3 0.2-1.7-0.2l-4.2-4.2c-0.4-0.4-0.5-1.1-0.2-1.6l2.3-3.8c0.3-0.5 0.2-1.1-0.1-1.5-1.8-2.7-3-5.9-3.7-9.3-0.2-0.5-0.5-0.9-1-1l-4.4-1.1c-0.6-0.2-1-0.7-1-1.3v-5.9c0-0.6 0.4-1.2 1-1.3l4.4-1.1c0.5-0.1 0.8-0.5 0.9-1 0.8-3.4 2.1-6.5 3.9-9.3 0.3-0.5 0.3-1 0-1.5l-2.3-3.8c-0.3-0.5-0.2-1.2 0.2-1.6l4.2-4.2c0.4-0.4 1.1-0.5 1.7-0.2l3.8 2.3c0.4 0.3 1 0.2 1.4 0 2.8-1.8 6-3.1 9.3-3.9 0.5-0.1 0.9-0.5 1-1l1.1-4.3c0.2-0.6 0.7-1 1.3-1h5.9c0.6 0 1.2 0.4 1.3 1l1.1 4.3c0.1 0.5 0.5 0.9 1.1 1 3.3 0.7 6.4 2.1 9.2 3.9 0.5 0.2 1 0.3 1.5 0l3.8-2.3c0.5-0.3 1.2-0.2 1.7 0.2l4.1 4.2c0.5 0.4 0.5 1.1 0.2 1.6l-2.3 3.8c-0.2 0.5-0.2 1 0.1 1.5 1.7 2.8 3.1 5.9 3.8 9.3 0.1 0.5 0.5 0.9 1 1l4.3 1.1c0.6 0.1 1.1 0.7 1.1 1.3z"/><path fill-rule="evenodd" class="b" d="m35.8 57.4c-12 0-21.7-9.7-21.7-21.7 0-12 9.7-21.7 21.7-21.7 12 0 21.7 9.7 21.7 21.7 0 12-9.7 21.7-21.7 21.7z"/><path class="c" d="m26 50.1c-0.4 0-0.7-0.4-0.7-0.8v-6.7c0-0.4 0.3-0.8 0.7-0.8 0.4 0 0.7 0.4 0.7 0.8v6.7c0 0.4-0.3 0.8-0.7 0.8z"/><path class="d" d="m26 35.4c-0.4 0-0.7-0.4-0.7-0.8v-12.4c0-0.4 0.3-0.8 0.7-0.8 0.4 0 0.7 0.4 0.7 0.8v12.4c0 0.4-0.3 0.8-0.7 0.8z"/><path class="e" d="m35.8 29.7c-0.4 0-0.8-0.4-0.8-0.8v-6.7c0-0.4 0.4-0.8 0.8-0.8 0.4 0 0.7 0.4 0.7 0.8v6.7c0 0.4-0.3 0.8-0.7 0.8z"/><path class="f" d="m35.8 50.1c-0.4 0-0.8-0.4-0.8-0.8v-12.4c0-0.5 0.4-0.8 0.8-0.8 0.4 0 0.7 0.3 0.7 0.8v12.4c0 0.4-0.3 0.8-0.7 0.8z"/><path class="g" d="m45.6 50.1c-0.4 0-0.8-0.4-0.8-0.8v-7.7c0-0.4 0.4-0.7 0.8-0.7 0.4 0 0.7 0.3 0.7 0.7v7.7c0 0.4-0.3 0.8-0.7 0.8z"/><path class="h" d="m45.6 34.4c-0.4 0-0.8-0.3-0.8-0.7v-11.5c0-0.4 0.4-0.8 0.8-0.8 0.4 0 0.7 0.4 0.7 0.8v11.5c0 0.4-0.3 0.7-0.7 0.7z"/><path fill-rule="evenodd" class="a" d="m26 42.6c-2.2 0-4-1.8-4-4 0-2.2 1.8-4 4-4 2.2 0 4 1.8 4 4 0 2.2-1.8 4-4 4z"/><path fill-rule="evenodd" class="i" d="m35.8 36.9c-2.2 0-4-1.8-4-4 0-2.2 1.8-4 4-4 2.2 0 3.9 1.8 3.9 4 0 2.2-1.7 4-3.9 4z"/><path fill-rule="evenodd" class="j" d="m45.6 41.6c-2.2 0-4-1.8-4-4 0-2.2 1.8-3.9 4-3.9 2.2 0 3.9 1.7 3.9 3.9 0 2.2-1.7 4-3.9 4z"/></svg>