<svg version="1.2" xmlns="http://www.w3.org/2000/svg" viewBox="0 0 70 68" width="70" height="68"><style>.a{fill:#33527d}.b{fill:#e5e8ef}.c{fill:#cdd4df}.d{fill:#4cc66e}.e{fill:#ffbe00}.f{fill:#b244f1}.g{fill:#008732}.h{fill:#14a142}.i{fill:#8d30d6}.j{fill:#ffd80c}.k{fill:#435e88}.l{fill:#5cbeff}.m{fill:#079cff}</style><path class="a" d="m65.1 12.2v2.9h-64.5v-2.9c0-6.5 5.3-11.8 11.7-11.8h41.1c6.5 0 11.7 5.3 11.7 11.8z"/><path class="b" d="m65.1 15.1v32.7c0 6.4-5.2 11.7-11.7 11.7h-41.1c-6.4 0-11.7-5.3-11.7-11.7v-32.7z"/><path class="c" d="m65.1 47.8v3.4c0 6.5-5.2 11.7-11.7 11.7h-41.1c-6.4 0-11.7-5.2-11.7-11.7v-3.4c0 6.4 5.3 11.7 11.7 11.7h41.1c6.5 0 11.7-5.3 11.7-11.7z"/><path fill-rule="evenodd" class="d" d="m10.2 10c-1.3 0-2.2-1-2.2-2.2 0-1.3 0.9-2.3 2.2-2.3 1.2 0 2.2 1 2.2 2.3 0 1.2-1 2.2-2.2 2.2z"/><path fill-rule="evenodd" class="e" d="m17.1 10c-1.2 0-2.2-1-2.2-2.2 0-1.3 1-2.3 2.2-2.3 1.3 0 2.3 1 2.3 2.3 0 1.2-1 2.2-2.3 2.2z"/><path fill-rule="evenodd" class="f" d="m24.1 10c-1.2 0-2.2-1-2.2-2.2 0-1.3 1-2.3 2.2-2.3 1.2 0 2.2 1 2.2 2.3 0 1.2-1 2.2-2.2 2.2z"/><path class="c" d="m39.5 24.8c0 0.4-0.1 0.7-0.4 0.9-0.2 0.3-0.5 0.4-0.9 0.4h-2.2c-0.7 0-1.3-0.6-1.3-1.3 0-0.4 0.2-0.7 0.4-0.9 0.2-0.3 0.6-0.4 0.9-0.4h2.2c0.7 0 1.3 0.6 1.3 1.3z"/><path class="c" d="m59.8 24.8c0 0.4-0.1 0.7-0.4 0.9-0.2 0.3-0.5 0.4-0.9 0.4h-15.1c-0.7 0-1.3-0.6-1.3-1.3 0-0.4 0.1-0.7 0.4-0.9 0.2-0.3 0.5-0.4 0.9-0.4h15.1c0.7 0 1.3 0.6 1.3 1.3z"/><path class="c" d="m52.5 30.7c0 0.4-0.1 0.7-0.3 1-0.3 0.2-0.6 0.3-0.9 0.3h-15.2c-0.7 0-1.3-0.5-1.3-1.3 0-0.3 0.2-0.6 0.4-0.9 0.2-0.2 0.6-0.4 0.9-0.4h15.2c0.7 0 1.2 0.6 1.2 1.3z"/><path class="c" d="m39.5 37.3c0 0.3-0.1 0.7-0.4 0.9-0.2 0.2-0.5 0.4-0.9 0.4h-2.2c-0.7 0-1.3-0.6-1.3-1.3 0-0.4 0.2-0.7 0.4-0.9 0.2-0.3 0.6-0.4 0.9-0.4h2.2c0.7 0 1.3 0.6 1.3 1.3z"/><path class="c" d="m59.8 37.3c0 0.3-0.1 0.7-0.4 0.9-0.2 0.2-0.5 0.4-0.9 0.4h-15.1c-0.7 0-1.3-0.6-1.3-1.3 0-0.4 0.1-0.7 0.4-0.9 0.2-0.3 0.5-0.4 0.9-0.4h15.1c0.7 0 1.3 0.6 1.3 1.3z"/><path class="c" d="m52.5 43.2c0 0.4-0.1 0.7-0.3 0.9-0.3 0.3-0.6 0.4-0.9 0.4h-15.2c-0.7 0-1.3-0.6-1.3-1.3 0-0.3 0.2-0.7 0.4-0.9 0.2-0.2 0.6-0.4 0.9-0.4h15.2c0.7 0 1.2 0.6 1.2 1.3z"/><path class="c" d="m39.5 49.8c0 0.3-0.1 0.7-0.4 0.9-0.2 0.2-0.5 0.4-0.9 0.4h-2.2c-0.7 0-1.3-0.6-1.3-1.3 0-0.4 0.2-0.7 0.4-0.9 0.2-0.3 0.6-0.4 0.9-0.4h2.2c0.7 0 1.3 0.6 1.3 1.3z"/><path class="c" d="m59.8 49.8c0 0.3-0.1 0.7-0.4 0.9-0.2 0.2-0.5 0.4-0.9 0.4h-20.9c-0.8 0-1.3-0.6-1.3-1.3 0-0.4 0.1-0.7 0.3-0.9 0.3-0.3 0.6-0.4 1-0.4h20.9c0.7 0 1.3 0.6 1.3 1.3z"/><path class="g" d="m33.4 55.5l22.1-27.8 9.8 7.8-22.1 27.8z"/><path class="d" d="m33.4 55.5l22.1-27.8 4.9 3.9-22.1 27.8z"/><path class="h" d="m36.6 58l22.1-27.8 3.4 2.8-22.1 27.8z"/><path class="b" d="m55.5 27.7l1.3-1.7 9.8 7.9-1.3 1.6z"/><path class="f" d="m56.8 26.1l2-2.5c1.1-1.5 3.2-1.7 4.7-0.5l4.5 3.6c1.5 1.2 1.7 3.3 0.5 4.7l-1.9 2.5z"/><path class="i" d="m63.4 23.1l3.4 2.7c-1.4-1.2-3.5-0.9-4.7 0.5l-1.9 2.5-3.4-2.7 2-2.5c1.1-1.5 3.2-1.7 4.6-0.5z"/><path class="j" d="m43.2 63.3l-5.6 2.6-5.5-4.4 1.3-6z"/><path class="k" d="m32.1 61.5l-0.7 3.4c-0.4 1.7 1.4 3.1 3 2.4l3.2-1.4z"/><path class="l" d="m30.3 44.9v6.2h-23.5v-6.2c0-3.6 2.8-6.5 6.4-6.5h10.7c3.5 0 6.4 2.9 6.4 6.5z"/><path class="m" d="m30.3 44.9v6.2h-2.3v-6.2c0-3.6-2.9-6.5-6.5-6.5h2.4c3.5 0 6.4 2.9 6.4 6.5z"/><path class="j" d="m21.4 35.5v3.3c0 1.5-1.3 2.8-2.9 2.8-1.5 0-2.8-1.3-2.8-2.8v-3.3z"/><path class="j" d="m6.8 45.4h4.6v5.7h-4.6z"/><path fill-rule="evenodd" class="j" d="m30.3 45.4v5.7h-4.6v-5.7z"/><path class="j" d="m24.8 27.7v4c0 3.4-2.8 6.3-6.3 6.3-3.4 0-6.2-2.9-6.2-6.3v-2.9z"/><path class="e" d="m24.8 27.7v4c0 3.4-2.8 6.3-6.3 6.3q-1.4-0.1-2.6-0.6 0.4 0 0.9 0c3.5 0 6.3-2.8 6.3-6.2v-3.4z"/><path class="k" d="m27.7 23.5c0.6 0 1.1 0.6 0.9 1.3-0.5 2.3-2.6 4-5.1 4h-11.2v-0.1c0-2.9 2.3-5.2 5.2-5.2z"/><path class="a" d="m28.6 24.8c-0.5 2.3-2.6 4-5.1 4h-11.2l16-5.1c0.3 0.3 0.4 0.7 0.3 1.1z"/></svg>