<svg version="1.2" xmlns="http://www.w3.org/2000/svg" viewBox="0 0 70 70" width="70" height="70"><style>.a{fill:#505050}.b{fill:#3c3c3c}.c{fill:#f0c8a0}.d{fill:#3cc8b4}.e{fill:#1eaa96}.f{fill:#f0f0f0}.g{fill:#fab400}.h{fill:#dc9600}</style><path class="a" d="m7.5 65h15v5h-15z"/><path fill-rule="evenodd" class="b" d="m12.5 65v5h-5v-5z"/><path fill-rule="evenodd" class="a" d="m62.5 65v5h-15v-5z"/><path fill-rule="evenodd" class="b" d="m52.5 65v5h-5v-5z"/><path class="c" d="m70 32.5h-0.4c-1.2 0-2.2 0.9-2.4 2.1l-1.7 9.7c-0.3 2.1-1.3 4-2.8 5.5l-2.7 2.7 2-3.9c0.3-0.7 0.5-1.5 0.5-2.3v-0.8c0-1.1-1.3-1.7-2.1-0.9l-7.5 7.5c-1.8 1.8-2.9 4.4-2.9 7v5.9h10v-2.4c0-1.7 0.7-3.3 1.8-4.4l5.3-5.3c1.8-1.8 2.9-4.4 2.9-7 0-5.2 0-13.4 0-13.4z"/><path class="c" d="m0 32.5h0.4c1.2 0 2.2 0.9 2.4 2.1l1.7 9.7c0.3 2.1 1.3 4 2.8 5.5l2.7 2.7-2-3.9c-0.3-0.7-0.5-1.5-0.5-2.3v-0.8c0-1.1 1.3-1.7 2.1-0.9l7.5 7.5c1.8 1.8 2.9 4.4 2.9 7v5.9h-10v-2.4c0-1.7-0.7-3.3-1.8-4.4l-5.3-5.3c-1.8-1.8-2.9-4.4-2.9-7 0-5.2 0-13.4 0-13.4z"/><path fill-rule="evenodd" class="d" d="m35 37.5c-5.5 0-10-4.5-10-10 0-5.5 4.5-10 10-10 5.5 0 10 4.5 10 10 0 5.5-4.5 10-10 10z"/><path class="e" d="m27.5 27.5c0-5.1 3.8-9.3 8.7-9.9q-0.6-0.1-1.2-0.1c-5.5 0-10 4.5-10 10 0 5.5 4.5 10 10 10q0.6 0 1.2-0.1c-4.9-0.6-8.7-4.8-8.7-9.9z"/><path class="f" d="m40 26.3l-3.8-0.1v-3.7h-2.5v3.7h-3.7v2.5h3.7v3.8h2.5v-3.8h3.8z"/><path class="g" d="m62.5 32.5v-10h-5.6c-0.6-2.5-1.5-4.8-2.9-7l4-3.9-7.1-7.1-3.9 4c-2.2-1.4-4.5-2.3-7-2.9v-5.6h-10v5.6c-2.5 0.6-4.8 1.5-7 2.9l-3.9-4-7.1 7.1 4 3.9c-1.4 2.2-2.3 4.5-2.9 7h-5.6v10h5.6c0.6 2.5 1.5 4.8 2.9 7l-4 3.9 7.1 7.1 3.9-4c2.2 1.4 4.5 2.3 7 2.9v5.6h10v-5.6c2.5-0.6 4.8-1.5 7-2.9l3.9 4 7.1-7.1-4-3.9c1.4-2.2 2.3-4.5 2.9-7zm-27.5 10c-8.3 0-15-6.7-15-15 0-8.3 6.7-15 15-15 8.3 0 15 6.7 15 15 0 8.3-6.7 15-15 15z"/><path class="h" d="m13.1 22.5h5c0.6-2.5 1.5-4.8 2.9-7l-4-3.9 4.6-4.6-2.5-2.5-7.1 7.1 4 3.9c-1.4 2.2-2.4 4.5-2.9 7z"/><path class="h" d="m28 8.5c2.2-1.4 4.5-2.4 7-2.9v-5.6h-5v5.6q-1.9 0.4-3.7 1.2z"/><path class="h" d="m55 27.5c0-8.3-6.7-15-15-15q-1.3 0-2.5 0.2c7.1 1.2 12.5 7.4 12.5 14.8 0 7.4-5.4 13.6-12.5 14.8q1.2 0.2 2.5 0.2c8.3 0 15-6.7 15-15z"/><path fill-rule="evenodd" class="h" d="m12.5 22.5v10h-5v-10z"/><path class="h" d="m28 46.5l-1.7 1.7q1.8 0.8 3.7 1.2v5.6h5v-5.6c-2.5-0.6-4.8-1.5-7-2.9z"/><path class="h" d="m17 43.4l4-3.9c-1.4-2.2-2.3-4.5-2.9-7h-5c0.6 2.5 1.5 4.8 2.9 7l-4 3.9 7.1 7.1 2.5-2.5z"/></svg>