<svg version="1.2" xmlns="http://www.w3.org/2000/svg" viewBox="0 0 70 70" width="70" height="70"><style>.a{fill:#285680}.b{fill:#7f8c8d}.c{fill:#95a5a5}.d{fill:#90bae1}.e{fill:#b0d3f0}.f{fill:#f0c419}.g{fill:#f29c1f}.h{fill:#3b97d3}</style><path fill-rule="evenodd" class="a" d="m55.4 25.3h12.2c1.3 0.1 2.4 1.1 2.4 2.5 0 1.3-1.1 2.4-2.4 2.4h-12.2z"/><path fill-rule="evenodd" class="a" d="m51.4 13.3h16.2c1.3 0 2.4 1.1 2.4 2.4 0 1.3-1.1 2.4-2.4 2.4h-13.8z"/><path fill-rule="evenodd" class="a" d="m53.8 37.4h13.8c1.3 0 2.4 1.1 2.4 2.4 0 1.4-1.1 2.4-2.4 2.4h-16.2z"/><path fill-rule="evenodd" class="b" d="m45.6 49l3.4-3.4 4.2 4.2-3.4 3.4z"/><path fill-rule="evenodd" class="c" d="m27.8 55.5c-15.4 0-27.8-12.4-27.8-27.7 0-15.4 12.4-27.8 27.8-27.8 15.3 0 27.7 12.4 27.7 27.8 0 15.3-12.4 27.7-27.7 27.7z"/><path fill-rule="evenodd" class="d" d="m50.7 27.8c0 10.3-6.9 19.3-16.8 22.1-9.9 2.8-20.5-1.4-25.8-10.2-5.3-8.8-4.2-20.1 2.9-27.6 7.1-7.6 18.3-9.4 27.4-4.6 7.6 3.9 12.3 11.7 12.3 20.3z"/><path fill-rule="evenodd" class="e" d="m41 18.1c0 8-4.2 15.5-11 19.6-6.9 4.2-15.4 4.4-22.5 0.7-4.7-8.9-3.1-19.8 4-26.9 7.1-7.1 18-8.7 26.9-4 1.7 3.2 2.6 6.9 2.6 10.6z"/><path fill-rule="evenodd" class="f" d="m48.9 54.1l5.2-5.1c0.4-0.5 1.2-0.5 1.7 0l12.8 12.8c1.9 1.8 1.9 4.9 0 6.8-1.9 1.9-5 1.9-6.9 0l-12.8-12.8c-0.4-0.5-0.4-1.3 0-1.7z"/><path fill-rule="evenodd" class="g" d="m51.5 58.3l6.8-6.8 3.4 3.4-6.8 6.9z"/><path fill-rule="evenodd" class="a" d="m50.7 27.8q0 1.2-0.1 2.4h-37.3c-1.4 0-2.4-1.1-2.4-2.4 0-1.4 1-2.5 2.4-2.5h37.3q0.1 1.2 0.1 2.5z"/><path fill-rule="evenodd" class="a" d="m48.6 18.1h-30.5c-1.3 0-2.4-1.1-2.4-2.4 0-1.3 1.1-2.4 2.4-2.4h27.4q1.8 2.2 3.1 4.8z"/><path fill-rule="evenodd" class="a" d="m48.6 37.4q-1.3 2.6-3.1 4.8h-27.4c-1.3 0-2.4-1-2.4-2.4 0-1.3 1.1-2.4 2.4-2.4z"/><path fill-rule="evenodd" class="h" d="m29 20.5c-2.7 0-4.9-2.1-4.9-4.8 0-2.7 2.2-4.8 4.9-4.8 2.6 0 4.8 2.1 4.8 4.8 0 2.7-2.2 4.8-4.8 4.8z"/><path fill-rule="evenodd" class="h" d="m39.8 32.6c-2.6 0-4.8-2.2-4.8-4.8 0-2.7 2.2-4.9 4.8-4.9 2.7 0 4.9 2.2 4.9 4.9 0 2.6-2.2 4.8-4.9 4.8z"/><path fill-rule="evenodd" class="h" d="m29 44.7c-2.7 0-4.9-2.2-4.9-4.9 0-2.6 2.2-4.8 4.9-4.8 2.6 0 4.8 2.2 4.8 4.8 0 2.7-2.2 4.9-4.8 4.9z"/></svg>