<svg version="1.2" xmlns="http://www.w3.org/2000/svg" viewBox="0 0 70 70" width="70" height="70"><style>.a{fill:#ffe987}.b{fill:#fecb6e}.c{fill:#f0f7ff}.d{fill:#d7e9fc}.e{fill:#fd676a}.f{fill:#fc363b}.g{fill:#39648e}.h{fill:#324d75}.i{fill:#9dd867}.j{fill:#77c080}</style><path class="a" d="m55 22.2v37.8h-15l-10-2.3-10 2.3h-15v-37.8l25-15z"/><path class="b" d="m55 22.2v37.8h-15l-10-2.3v-50.5z"/><path fill-rule="evenodd" class="c" d="m55 70c-8.3 0-15-6.7-15-15 0-8.3 6.7-15 15-15 8.3 0 15 6.7 15 15 0 8.3-6.7 15-15 15z"/><path class="d" d="m70 55c0 8.3-6.7 15-15 15v-30c8.3 0 15 6.7 15 15z"/><path fill-rule="evenodd" class="e" d="m20 0v12.4h-10v-12.4z"/><path fill-rule="evenodd" class="e" d="m40 35v25h-20v-25z"/><path fill-rule="evenodd" class="f" d="m40 35v25h-10v-25z"/><path class="g" d="m60 18.4v10l-30-18-30 18v-10l30-18z"/><path class="h" d="m60 18.4v10l-30-18v-10z"/><path fill-rule="evenodd" class="g" d="m40 23.9v4.1h-20v-4.1z"/><path fill-rule="evenodd" class="h" d="m40 23.9v4.1h-10v-4.1z"/><path class="i" d="m61.8 52.9v4.2h-4.7v4.7h-4.2v-4.7h-4.7v-4.2h4.7v-4.7h4.2v4.7z"/><path class="j" d="m61.8 52.9v4.2h-4.7v4.7h-2.1v-13.6h2.1v4.7z"/></svg>