<svg version="1.2" xmlns="http://www.w3.org/2000/svg" viewBox="0 0 71 70" width="71" height="70"><style>.a{fill:#358cd9}.b{fill:#93bce8}.c{fill:#68a2df}.d{fill:#2a4f95}.e{fill:#d5d9e0}.f{fill:#b8bdca}.g{fill:#edeff1}.h{fill:#d97c41}.i{fill:#af602d}.j{fill:#eedb00}.k{fill:#f3c23b}.l{fill:#fb695b}.m{fill:#f54432}.n{fill:#a05423}.o{fill:#00ce8e}.p{fill:#00b762}.q{fill:#fff}.r{fill:#495560}</style><path class="a" d="m13 4l6-2.2 3.6 9.9-6 2.2z"/><path class="b" d="m39.5 39.5l-15.5 5.6-2.5 0.9-4.4-12.1-5.1-14.2c-0.4-1-0.3-2.2 0.1-3.2l3.1-6.6 3.6-0.5 2.4-1.6 1.2 0.5 0.2 0.1 5.1 2.4c1.1 0.5 1.8 1.4 2.2 2.4z"/><path class="c" d="m25.6 44.5l-4.1 1.5-4.4-12.1-5.1-14.2c-0.4-1-0.3-2.2 0.1-3.2l3.1-6.6 6-2.1 1.2 0.5 0.2 0.1c-3.8 4.7-6.7 17.5 3 36.1z"/><path class="d" d="m19.7 3.8l-6 2.2c-0.5 0.2-1.1-0.1-1.3-0.7l-0.4-1c-0.4-1.1 0.2-2.3 1.2-2.7l4.1-1.5c1.1-0.4 2.3 0.2 2.7 1.3l0.4 1c0.2 0.6-0.1 1.2-0.7 1.4z"/><path class="e" d="m48.8 15.9l-10.6 2.1-3.4-0.7-7.2-1.4 2.7-1.8-0.8-1.8 1.3-2.7 5.3-1.2 2.1-0.5 7.5 1.7z"/><path class="f" d="m36.1 8.4c-0.7 2.4-1.3 5.4-1.3 8.9l-7.2-1.4 3.2-6.3z"/><path class="g" d="m48.8 15.9v23.4h-21.2v-23.4l3.5 0.9 3.7-0.9z"/><path class="e" d="m41.1 39.3h-13.5v-23.4h7.2c-0.3 6.3 1 14.4 6.3 23.4z"/><path class="b" d="m45.7 7.4v2.2h-10l-2.3-0.8-2.6 0.8v-2.2c0-2.3 1.9-4.2 4.2-4.2h6.4c2.4 0 4.3 1.9 4.3 4.2z"/><path class="c" d="m38 3.2c-0.6 1.2-1.5 3.4-2.3 6.4h-4.9v-2.2c0-2.3 1.9-4.2 4.2-4.2 0 0 3 0 3 0z"/><path class="h" d="m67.6 28.8c-3.8 10.7-11.2 18.1-17.4 18q-1.3 0-2.5-0.4c-6.6-2.4-8.4-14.2-4-26.3 4.4-12.1 13.3-19.9 20-17.5q0.6 0.2 1.1 0.5c5.7 3.3 7 14.4 2.8 25.7z"/><path class="i" d="m50.2 46.8q-1.3 0-2.5-0.4c-6.6-2.4-8.4-14.2-4-26.3 4.4-12.1 13.3-19.9 20-17.5q0.6 0.2 1.1 0.5c-4.5 4.3-19.5 20.7-14.6 43.7z"/><path class="i" d="m65 14.3c-0.3 0.9-1.1 1.4-2 1.4q-0.3 0-0.7-0.1l-5.8-2.1-0.2-0.1c-1.1-0.4-1.7-1.6-1.3-2.7 0.4-0.8 1.2-1.4 2-1.4q0.4 0 0.8 0.2l1.1 0.4 4.8 1.7c1.1 0.4 1.7 1.6 1.3 2.7z"/><path class="i" d="m65.1 23.4c-0.3 0.9-1.1 1.4-2 1.4q-0.4 0-0.7-0.1l-9.8-3.6-2.2-0.8c-1.1-0.4-1.6-1.6-1.2-2.7 0.3-0.9 1.1-1.4 1.9-1.4q0.4 0 0.8 0.1l2.4 0.9 9.5 3.5c1.1 0.4 1.7 1.6 1.3 2.7z"/><path class="j" d="m69 28.6v25.5c0 2.3-1.9 4.2-4.2 4.2h-44.6c-2.3 0-4.2-1.9-4.2-4.2v-25.5c0-0.9 1.1-1.4 1.8-0.7l2 2.4c0.8 0.9 2.2 1 3.1 0.1l2.2-2.2c0.8-0.8 2.1-0.8 3 0l2.3 2.3c0.8 0.8 2.1 0.8 3 0l1.5-1.6 0.8-0.7c0.8-0.8 2.1-0.8 3 0l2.3 2.3c0.8 0.8 2.1 0.8 3 0l2.3-2.3c0.8-0.8 2.2-0.8 3 0l2.3 2.3c0.8 0.8 2.2 0.8 3 0l2.3-2.3c0.8-0.8 2.2-0.8 3 0l2.2 2.2c0.8 0.9 2.3 0.8 3.1-0.1l2-2.4c0.7-0.7 1.8-0.2 1.8 0.7z"/><path class="k" d="m40.1 58.3h-19.9c-2.3 0-4.2-1.9-4.2-4.2v-25.5c0-0.9 1.1-1.4 1.8-0.7l2 2.4c0.8 0.9 2.2 1 3.1 0.1l2.2-2.2c0.8-0.8 2.1-0.8 3 0l2.3 2.3c0.8 0.8 2.1 0.8 3 0l1.5-1.6c-2.3 5.6-6.6 19.4 5.2 29.4z"/><path class="l" d="m21.5 36.3h-3.4v9.3h-8.5v-9.3h-3.4c-1.9 0-2.8-2.3-1.5-3.7l7.7-7.6c0.5-0.5 1.2-0.7 1.9-0.5q0.6 0.1 1 0.5l7.7 7.6c1.3 1.4 0.4 3.7-1.5 3.7z"/><path class="m" d="m9.6 45.6v-9.3h-3.4c-1.9 0-2.8-2.3-1.5-3.7l7.7-7.6c0.5-0.5 1.2-0.7 1.9-0.5-1.3 3.1-4.9 13.8 2.1 21.1z"/><path class="n" d="m51.9 16.3l2.4 0.9q-0.9 1.9-1.7 3.9l-2.2-0.8c-1.1-0.4-1.6-1.6-1.2-2.7 0.3-0.9 1.1-1.4 1.9-1.4q0.4 0 0.8 0.1z"/><path class="n" d="m58.9 9.9q-1.2 1.6-2.4 3.6l-0.2-0.1c-1.1-0.4-1.7-1.6-1.3-2.7 0.4-0.8 1.2-1.4 2-1.4q0.4 0 0.8 0.2z"/><path class="o" d="m27.6 56.2c0 5.7-3.4 10.6-8.4 12.7-1.6 0.7-3.4 1.1-5.3 1.1-7.7 0-13.8-6.2-13.8-13.8 0-6.1 4-11.3 9.5-13.1l1.9 0.2 2.2-0.9q0.1 0 0.2 0c7.6 0 13.7 6.2 13.7 13.8z"/><path class="p" d="m19.2 68.9c-1.6 0.7-3.4 1.1-5.3 1.1-7.7 0-13.8-6.2-13.8-13.8 0-7.6 6.1-13.7 13.6-13.8-2.3 4.8-6.3 17 5.5 26.5z"/><path class="j" d="m15.7 55.1q-0.4-0.1-0.8-0.3v-5c0.7 0.2 1.2 0.6 1.2 0.6 0.4 0.4 1.1 0.4 1.5 0 0.4-0.5 0.4-1.1-0.1-1.5 0-0.1-1-1-2.6-1.2v-1c0-0.6-0.5-1.1-1-1.1-0.6 0-1.1 0.5-1.1 1.1v1q-0.3 0.1-0.6 0.2c-1.5 0.4-2.6 1.7-2.9 3.3-0.3 1.5 0.2 2.9 1.2 3.8 0.6 0.4 1.3 0.8 2.3 1.3v6.3c-0.9-0.1-1.4-0.3-2.4-0.9-0.5-0.3-1.2-0.2-1.5 0.3-0.3 0.5-0.2 1.1 0.3 1.4 1.4 1 2.4 1.2 3.6 1.3v1.1c0 0.5 0.5 1 1.1 1 0.5 0 1-0.5 1-1v-1.2c2.3-0.5 3.7-2.5 4-4.3 0.4-2.3-0.9-4.4-3.2-5.2zm-3.9-1.8c-0.4-0.3-0.6-1-0.4-1.7 0.1-0.6 0.5-1.4 1.4-1.7v4q-0.6-0.3-1-0.6zm5 6.7c-0.2 0.9-0.8 1.9-1.9 2.4v-5.3q0.1 0 0.1 0c2 0.7 1.9 2.4 1.8 2.9z"/><path fill-rule="evenodd" class="q" d="m31.4 49.6c-2.2 0-4-1.5-4-3.3 0-1.8 1.8-3.2 4-3.2 2.3 0 4.1 1.4 4.1 3.2 0 1.8-1.8 3.3-4.1 3.3z"/><path fill-rule="evenodd" class="q" d="m53.5 49.6c-2.2 0-4.1-1.5-4.1-3.3 0-1.8 1.9-3.2 4.1-3.2 2.3 0 4.1 1.4 4.1 3.2 0 1.8-1.8 3.3-4.1 3.3z"/><path class="r" d="m35.8 43.9c-0.6 0-1.1-0.5-1.1-1.1 0-0.5-0.4-0.9-0.9-0.9-0.5 0-0.9 0.4-0.9 0.9 0 0.6-0.4 1.1-1 1.1-0.6 0-1.1-0.5-1.1-1.1 0-1.6 1.4-3 3-3 1.7 0 3 1.4 3 3 0 0.6-0.5 1.1-1 1.1z"/><path class="r" d="m53.1 43.9c-0.6 0-1.1-0.5-1.1-1.1 0-0.5-0.4-0.9-0.9-0.9-0.4 0-0.8 0.4-0.8 0.9 0 0.6-0.5 1.1-1.1 1.1-0.6 0-1.1-0.5-1.1-1.1 0-1.6 1.4-3 3-3 1.7 0 3 1.4 3 3 0 0.6-0.4 1.1-1 1.1z"/><path class="r" d="m42.5 47.1c-1.1 0-2.2-0.5-2.9-1.3-0.4-0.5-0.3-1.1 0.1-1.5 0.5-0.4 1.1-0.4 1.5 0.1 0.3 0.4 0.8 0.6 1.3 0.6 0.5 0 0.9-0.2 1.2-0.6 0.4-0.5 1.1-0.5 1.5-0.1 0.5 0.4 0.5 1 0.1 1.5-0.7 0.8-1.7 1.3-2.8 1.3z"/></svg>