<svg version="1.2" xmlns="http://www.w3.org/2000/svg" viewBox="0 0 71 70" width="71" height="70"><style>.a{fill:#ffe177}.b{fill:#ffd064}.c{fill:#837683}.d{fill:#a79ba7}.e{fill:#685e68}.f{fill:#544854}.g{fill:#eceff1}.h{fill:#fe646f}.i{fill:#fd4755}.j{fill:#8ac9fe}.k{fill:#60b7ff}</style><path fill-rule="evenodd" class="a" d="m70.5 12.6v-9.9c0-1.1-0.9-2-1.9-2h-14.5c-1 0-1.9 0.9-1.9 2v9.9c0 1 0.9 1.9 1.9 1.9h1.7v2.5c0 0.6 0.7 0.8 1.1 0.4l2.8-2.9h8.9c1 0 1.9-0.9 1.9-1.9z"/><path fill-rule="evenodd" class="b" d="m68.6 14.5h-1.3c1.1 0 2-0.9 2-1.9v-9.9c0-1.1-0.9-2-2-2h1.3c1 0 1.9 0.9 1.9 2v9.9c0 1-0.9 1.9-1.9 1.9zm-10.2 0h1.3l-2.8 2.9c-0.4 0.4-0.9 0.2-1.1-0.2z"/><path fill-rule="evenodd" class="c" d="m31.5 22c0.4 0.5 0.2 1.3-0.4 1.6-0.6 0.3-1.3 0.1-1.6-0.5l-7.8-13.5c-0.4-0.5-0.2-1.3 0.4-1.6 0.6-0.3 1.3-0.1 1.6 0.4z"/><path fill-rule="evenodd" class="a" d="m22.7 11.6c-1.5 0-2.6-1.1-2.6-2.6 0-1.4 1.1-2.6 2.6-2.6 1.4 0 2.6 1.2 2.6 2.6 0 1.5-1.2 2.6-2.6 2.6z"/><path fill-rule="evenodd" class="c" d="m36 23.1c-0.3 0.6-1.1 0.8-1.6 0.5-0.6-0.3-0.8-1.1-0.5-1.6l7.8-13.6c0.4-0.5 1.1-0.7 1.7-0.4 0.5 0.3 0.7 1.1 0.4 1.6z"/><path fill-rule="evenodd" class="a" d="m42.8 11.6c-1.5 0-2.6-1.1-2.6-2.6 0-1.4 1.1-2.6 2.6-2.6 1.4 0 2.6 1.2 2.6 2.6 0 1.5-1.2 2.6-2.6 2.6z"/><path fill-rule="evenodd" class="d" d="m51.8 33.6c0-0.7 0.5-1.2 1.2-1.2 0.6 0 1.2 0.5 1.2 1.2v16.1c0 0.7-0.6 1.2-1.2 1.2h-16.2c-0.7 0-1.2-0.5-1.2-1.2 0-0.7 0.5-1.2 1.2-1.2h15z"/><path fill-rule="evenodd" class="e" d="m54.6 27.7c0-0.6-0.4-1-1-1h-41.8c-0.5 0-1 0.4-1 1v8c0 0.6 0.5 1 1 1h41.8c0.6 0 1-0.4 1-1z"/><path fill-rule="evenodd" class="f" d="m52.1 36.7c0.6 0 1.1-0.4 1.1-1v-8c0-0.6-0.5-1-1.1-1h1.5c0.6 0 1 0.4 1 1v8c0 0.6-0.4 1-1 1z"/><path fill-rule="evenodd" class="d" d="m50.9 40.8v-19.5c0-2.2-1.7-3.9-3.9-3.9h-28.6c-2.1 0-3.9 1.7-3.9 3.9v19.5c0 2.2 1.8 3.9 3.9 3.9h28.6c2.2 0 3.9-1.7 3.9-3.9z"/><path fill-rule="evenodd" class="c" d="m44.8 44.7c2.2 0 3.9-1.7 3.9-3.9v-19.5c0-2.2-1.7-3.9-3.9-3.9h2.2c2.2 0 3.9 1.7 3.9 3.9v19.5c0 2.2-1.7 3.9-3.9 3.9z"/><path fill-rule="evenodd" class="a" d="m26.5 29.3c-1.5 0-2.8-1.2-2.8-2.8 0-1.5 1.3-2.8 2.8-2.8 1.6 0 2.8 1.3 2.8 2.8 0 1.6-1.2 2.8-2.8 2.8z"/><path fill-rule="evenodd" class="a" d="m39.6 29.3c-1.5 0-2.8-1.2-2.8-2.8 0-1.5 1.3-2.8 2.8-2.8 1.6 0 2.8 1.3 2.8 2.8 0 1.6-1.2 2.8-2.8 2.8z"/><path fill-rule="evenodd" class="g" d="m37.4 34.3q0.4 0 0.6 0.3 0.2 0.3 0.1 0.6c-0.5 2.7-2.8 4.6-5.6 4.6-2.8 0-5.1-1.9-5.7-4.6q0-0.3 0.2-0.6 0.2-0.3 0.6-0.3c2.1 0 7.7 0 9.8 0z"/><path fill-rule="evenodd" class="c" d="m38.2 49.7c0-1.1-0.8-1.9-1.9-1.9h-3.4c-1.1 0-1.9 0.8-1.9 1.9 0 1.1 0.8 1.9 1.9 1.9h3.4c1.1 0 1.9-0.8 1.9-1.9z"/><path fill-rule="evenodd" class="e" d="m35.6 51.6c1 0 1.9-0.8 1.9-1.9 0-1.1-0.9-1.9-1.9-1.9h0.7c1.1 0 1.9 0.8 1.9 1.9 0 1.1-0.8 1.9-1.9 1.9z"/><path fill-rule="evenodd" class="h" d="m61.4 2.5c1.8 0 3.4 1.5 3.4 3.4 0 0.9-0.5 1.5-1.1 2.1q-0.3 0.4-0.7 0.7c-0.1 0.1-0.3 0.3-0.3 0.5 0 0.7-0.6 1.2-1.2 1.2-0.7-0.1-1.2-0.6-1.2-1.3 0.1-0.9 0.6-1.6 1.2-2.2q0.3-0.3 0.6-0.7c0.1-0.1 0.3-0.2 0.3-0.3 0-0.6-0.5-1-1-1-0.6 0-1.1 0.4-1.1 1 0 0.6-0.5 1.2-1.2 1.2-0.6 0-1.2-0.6-1.2-1.2 0-1.9 1.6-3.4 3.5-3.4z"/><path fill-rule="evenodd" class="h" d="m61.5 13c-0.6 0-1.1-0.5-1.1-1.1 0-0.6 0.5-1.1 1.1-1.1 0.6 0 1.1 0.5 1.1 1.1 0 0.6-0.5 1.1-1.1 1.1z"/><path fill-rule="evenodd" class="d" d="m14.6 66.9l-2.6-9.7-3.7 1 2 7.4c0.4 1.5 2 2.4 3.4 2l0.6-0.2c0.2 0 0.3-0.3 0.3-0.5z"/><path fill-rule="evenodd" class="c" d="m14.6 66.9l-2.6-9.7-3.7 1 3.2-0.8 2.6 9.6c0 0.3-0.1 0.5-0.4 0.6l0.6-0.2c0.2 0 0.3-0.3 0.3-0.5z"/><path fill-rule="evenodd" class="d" d="m28.3 48.9c-0.4-1.6-2-2.6-3.6-2.1-0.1 0-0.5 0.1-0.5 0.1l1.5 5.8c0.1 0 0.5-0.1 0.5-0.1 1.6-0.5 2.6-2.1 2.1-3.7z"/><path fill-rule="evenodd" class="c" d="m28.3 48.9c-0.4-1.6-2-2.6-3.6-2.1-0.1 0-0.5 0.1-0.5 0.1l0.1 0.7c0.1-0.1 0.5-0.2 0.5-0.2 1.5-0.4 3.1 0.4 3.6 1.8q0-0.2-0.1-0.3z"/><path fill-rule="evenodd" class="a" d="m12.3 58.4l-5.2 1.3c-2.7 0.8-5.5-0.9-6.2-3.6-0.7-2.6 0.9-5.4 3.6-6.2l5.2-1.4c4.1-2 7.5-5.8 10.5-8.8 0.4-0.4 1-0.5 1.5-0.3 0.6 0.1 1 0.5 1.1 1l4.9 18.2c0.1 0.6 0 1.1-0.4 1.5-0.5 0.4-1 0.6-1.6 0.4-4.2-1.3-8.7-2.6-13.4-2.1z"/><path fill-rule="evenodd" class="b" d="m1.2 56.9q-0.2-0.4-0.3-0.8c-0.7-2.6 0.9-5.4 3.6-6.2l5.2-1.4c4.1-2 7.5-5.8 10.5-8.8 0.4-0.4 1-0.5 1.5-0.3 0.6 0.1 1 0.5 1.1 1l4.9 18.2-4.5-16.7c-0.1-0.5-0.5-0.9-1.1-1-0.5-0.2-1.1-0.1-1.5 0.3-3 3-6.4 6.8-10.5 8.9l-5.2 1.3c-2.5 0.7-4 3-3.7 5.5z"/><path fill-rule="evenodd" class="h" d="m27.7 58.6l-4.9-18.2c-0.1-0.5-0.5-0.9-1.1-1-0.5-0.2-1.1-0.1-1.5 0.3q-0.7 0.8-1.5 1.5l5 18.7q1 0.3 2 0.6c0.6 0.2 1.1 0 1.6-0.4 0.4-0.4 0.5-0.9 0.4-1.5z"/><path fill-rule="evenodd" class="i" d="m23.2 41.9l-0.4-1.5c-0.1-0.5-0.5-0.9-1.1-1-0.5-0.2-1.1-0.1-1.5 0.3q-0.7 0.8-1.5 1.5l0.4 1.5q0.8-0.7 1.5-1.5c0.4-0.4 1-0.5 1.5-0.3 0.6 0.1 1 0.5 1.1 1z"/><path fill-rule="evenodd" class="h" d="m12.3 58.4l-2.6-9.9-5.2 1.4c-2.7 0.8-4.3 3.6-3.6 6.2 0.7 2.7 3.5 4.4 6.2 3.6z"/><path fill-rule="evenodd" class="i" d="m10.1 50.1l-0.4-1.6-5.2 1.4c-2.7 0.8-4.3 3.6-3.6 6.2q0.1 0.4 0.3 0.8c-0.3-2.5 1.2-4.8 3.7-5.5z"/><path fill-rule="evenodd" class="j" d="m67.4 55v12.1c0 1.3-1.1 2.4-2.4 2.4h-17.7c-1.3 0-2.4-1.1-2.4-2.4v-12.1c0-1.3 1.1-2.4 2.4-2.4h2v-3c0-0.7 0.9-1 1.3-0.5l3.5 3.5h10.9c1.3 0 2.4 1.1 2.4 2.4z"/><path fill-rule="evenodd" class="k" d="m67.4 55v12.1c0 1.3-1.1 2.4-2.4 2.4h-1.5c1.3 0 2.4-1.1 2.4-2.4v-12.1c0-1.3-1.1-2.4-2.4-2.4h1.5c1.3 0 2.4 1.1 2.4 2.4zm-18-5.7c0.2-0.5 0.8-0.6 1.2-0.2l3.5 3.5h-1.5z"/><path class="g" d="m50.3 59.9c-0.7 0-1.2 0.5-1.2 1.2 0 0.6 0.5 1.2 1.2 1.2h11.7c0.6 0 1.2-0.6 1.2-1.2 0-0.7-0.6-1.2-1.2-1.2zm0-4.5c-0.7 0-1.2 0.5-1.2 1.2 0 0.7 0.5 1.2 1.2 1.2h11.7c0.7 0 1.2-0.5 1.2-1.2 0-0.7-0.5-1.2-1.2-1.2zm0 9c-0.7 0-1.2 0.5-1.2 1.2 0 0.6 0.5 1.2 1.2 1.2h11.7c0.7 0 1.2-0.6 1.2-1.2 0-0.7-0.5-1.2-1.2-1.2z"/></svg>