<svg version="1.2" xmlns="http://www.w3.org/2000/svg" viewBox="0 0 71 67" width="71" height="67"><style>.a{fill:#7979f7}.b{fill:#fff}.c{fill:#5e5eef}.d{fill:#f7c9a9}.e{fill:#f0b68e}.f{fill:#f9b938}.g{fill:#e5a320}.h{fill:#474646}.i{fill:#2d2c2c}</style><path class="a" d="m70.1 28.7c0 6.7-5.2 12.2-11.9 12.7q-0.4 0.1-0.9 0.1h-44.3q-0.2 0-0.4 0c-6.9-0.3-12.4-5.9-12.4-12.8 0-6.6 4.9-12.1 11.4-12.8q-0.1-0.4-0.1-0.8c0-8.2 6.8-15 15.1-15 5.1 0 9.5 2.6 12.3 6.4 2-1.7 4.7-2.7 7.6-2.7 6.7 0 12.1 5.4 12.1 12.1 6.5 0.7 11.5 6.1 11.5 12.8z"/><g style="opacity:.3"><path class="b" d="m17.3 14.4c-0.6-0.1-1-0.7-0.8-1.2 0.9-4.8 5.1-8.3 10.1-8.3 0.6 0 1.1 0.5 1.1 1.1 0 0.6-0.5 1-1.1 1-3.9 0-7.3 2.8-8 6.6-0.1 0.6-0.7 0.9-1.3 0.8z"/><path class="b" d="m32.6 9.7q-0.8-0.9-1.8-1.5c-0.5-0.3-0.7-1-0.4-1.5 0.3-0.5 1-0.7 1.5-0.3q1.3 0.7 2.3 1.9c0.4 0.4 0.4 1.1-0.1 1.5-0.4 0.4-1.1 0.4-1.5-0.1z"/><path class="b" d="m5.9 29.1c-0.6 0-1-0.6-1-1.1 0.4-3.9 3.4-7 7.2-7.4 0.6-0.1 1.2 0.4 1.2 1 0.1 0.6-0.3 1.1-0.9 1.2-2.8 0.3-5 2.5-5.3 5.3 0 0.6-0.6 1.1-1.2 1z"/></g><path class="c" d="m58.2 41.4q-0.4 0.1-0.9 0.1h-44.3q-0.2 0-0.4 0 0-0.2 0-0.3-0.1-0.9-0.1-2.3 0-0.6 0-1.1c0.5-11.7 10.4-21.4 22.5-21.4q3.3 0 6.4 0.9c9.5 2.8 16.2 11.7 16.2 21.6v1.3z"/><path class="d" d="m57.4 51.5h-2v3.5c0 2.4-1.8 4.2-4.2 4.2h-2.5v6.5c0 0.8-0.6 1.4-1.4 1.4h-18.7c-0.8 0-1.4-0.6-1.4-1.4v-1.1c0-3.7-1.7-7.3-4.7-9.7-4-2.9-7.2-8.1-7.7-13.9q-0.2-1-0.1-2.1c0-11.2 9.1-20.3 20.3-20.3h0.1c11.2 0 20.3 9.1 20.3 20.3v1.9l4 7.4c0.8 1.5-0.3 3.3-2 3.3z"/><g style="opacity:.4"><path class="b" d="m20.9 31.5c-0.4-0.2-0.5-0.7-0.3-1 2.4-4 6.3-6.8 10.8-7.8 0.4-0.1 0.8 0.1 0.9 0.5 0 0.4-0.2 0.8-0.6 0.9-4.1 0.9-7.7 3.5-9.8 7.1-0.2 0.4-0.7 0.5-1 0.3z"/></g><g style="opacity:.4"><path class="b" d="m37.9 24q0 0-0.1 0-1.4-0.3-2.8-0.3c-0.4 0-0.7-0.3-0.7-0.7 0-0.4 0.3-0.7 0.7-0.7q1.6 0 3.1 0.2c0.4 0.1 0.6 0.5 0.5 0.9 0 0.3-0.3 0.6-0.7 0.6z"/></g><path class="e" d="m46.6 59.2h2.1v6.5c0 0.8-0.6 1.4-1.4 1.4h-2c0.7 0 1.3-0.6 1.3-1.4z"/><path class="e" d="m55.4 51.5v3.5c0 2.4-1.8 4.2-4.2 4.2h-2c2.3 0 4.2-1.8 4.2-4.2v-3.5z"/><path class="e" d="m57.5 51.5h-2.1c1.7 0 2.8-1.8 2-3.3l-4-7.4v-1.9c0-9.2-6.2-17-14.7-19.5q-2.3-0.6-4.8-0.7 0.6-0.1 1.1-0.1h0.1c11.2 0 20.3 9.1 20.3 20.3v1.9l4 7.4c0.8 1.5-0.3 3.3-1.9 3.3z"/><path fill-rule="evenodd" class="f" d="m35.1 51.5c-7.1 0-12.8-5.7-12.8-12.8 0-7 5.7-12.7 12.8-12.7 7.1 0 12.8 5.7 12.8 12.7 0 7.1-5.7 12.8-12.8 12.8z"/><g style="opacity:.6"><path class="b" d="m24.9 39.7q0 0-0.1 0c-0.4 0-0.7-0.3-0.7-0.7 0.1-3.8 2-7.3 5.2-9.3 0.3-0.3 0.8-0.2 1 0.2 0.2 0.3 0.1 0.8-0.2 1-2.8 1.8-4.4 4.8-4.5 8.1 0 0.4-0.3 0.7-0.7 0.7z"/></g><g style="opacity:.6"><path class="b" d="m33.1 29.5c-0.3 0-0.6-0.2-0.7-0.5-0.1-0.4 0.1-0.8 0.5-0.9q1.1-0.3 2.3-0.3c0.4 0 0.7 0.3 0.7 0.7 0 0.4-0.3 0.7-0.7 0.7q-1 0.1-1.9 0.3-0.1 0-0.2 0z"/></g><path class="g" d="m47.9 38.7c0 7.1-5.7 12.8-12.8 12.8-4.5 0-8.5-2.4-10.8-6 2.3 2.1 5.2 3.3 8.5 3.3 7.1 0 12.8-5.7 12.8-12.8 0-2.5-0.7-4.8-1.9-6.8 2.6 2.4 4.2 5.8 4.2 9.5z"/><path class="h" d="m39.3 36.6h-4.1v-5c0-0.4-0.4-0.7-0.8-0.7h-0.3c-0.3 0-0.5 0.1-0.7 0.4l-3.1 6.8c-0.3 0.5 0.1 1.1 0.7 1.1h4.2v4c0 0.8 1 1.1 1.4 0.4l3.3-5.9c0.3-0.5 0-1.1-0.6-1.1z"/><path class="i" d="m35.2 31.6v5h-0.6v-5.6q0 0 0-0.1c0.3 0.1 0.6 0.4 0.6 0.7z"/><path class="i" d="m39.9 37.7l-3.3 5.9c-0.4 0.6-1.3 0.4-1.4-0.2 0.3 0 0.6-0.1 0.8-0.4l3.4-5.8q0.1-0.3 0.1-0.6c0.4 0.1 0.7 0.7 0.4 1.1z"/></svg>