<svg version="1.2" xmlns="http://www.w3.org/2000/svg" viewBox="0 0 68 70" width="68" height="70"><style>.a{fill:#90bae1}.b{fill:#b0d3f0}.c{fill:#285680}.d{fill:#f5efca}.e{fill:#e57e25}.f{fill:#547580}</style><path fill-rule="evenodd" class="a" d="m0.6 47.1v19.3c0 2 1.7 3.6 3.7 3.6h34c2 0 3.7-1.6 3.7-3.6v-62.8c0-2-1.7-3.6-3.7-3.6h-34c-2 0-3.7 1.6-3.7 3.6z"/><path fill-rule="evenodd" class="b" d="m0.6 51.8v-48.2c0-2 1.7-3.6 3.7-3.6h31.6c0.5 7.6 1.9 49.2-35.3 51.8z"/><path fill-rule="evenodd" class="c" d="m42 60.3v6.1c0 2-1.7 3.6-3.7 3.6h-34c-2 0-3.7-1.6-3.7-3.6v-6.1c0 2 1.7 3.7 3.7 3.7h34c2 0 3.7-1.7 3.7-3.7z"/><path fill-rule="evenodd" class="c" d="m33.4 0l-3.4 3.7c-0.7 0.7-1.7 1.1-2.7 1.1h-12c-1 0-2-0.4-2.7-1.1l-3.5-3.7z"/><path fill-rule="evenodd" class="d" d="m41.3 31l-2.5 6.8c-0.1 0.2 0 0.5 0.2 0.7 0.1 0.1 0.4 0.2 0.6 0.1l7.1-3.2c5.8 2.7 12.6 1.3 16.9-3.3 4.4-4.7 5.1-11.6 2-17.1-3.2-5.4-9.6-8.3-15.8-6.9-6.3 1.4-10.9 6.6-11.4 12.9-0.4 3.6 0.7 7.2 2.9 10z"/><path class="c" d="m61.3 27.8l-7.3-14.5c-0.2-0.4-0.6-0.6-1.1-0.6-0.4 0-0.9 0.2-1.1 0.6l-7.3 14.5c-0.2 0.3-0.1 0.8 0.1 1.2 0.2 0.3 0.6 0.5 1.1 0.5 0.4 0 0.8-0.3 1-0.7l2.1-4.1h8.2l2.1 4.1c0.2 0.4 0.6 0.7 1.1 0.7q0.3 0 0.5-0.1c0.6-0.3 0.9-1 0.6-1.6zm-11.3-5.5l2.9-5.8 2.9 5.8z"/><path fill-rule="evenodd" class="c" d="m26.2 57.9c-0.6 0-1-0.3-1.2-0.8l-3.7-11-3.7 11c-0.2 0.5-0.7 0.8-1.2 0.8-0.5 0-1-0.3-1.1-0.8l-2.6-7.7-1.2 2.9c-0.2 0.5-0.7 0.8-1.2 0.8h-4.8c-0.7 0-1.2-0.5-1.2-1.2 0-0.7 0.5-1.2 1.2-1.2h4l2.1-5.3c0.2-0.5 0.7-0.8 1.2-0.8 0.5 0.1 1 0.4 1.1 0.9l2.5 7.4 3.7-11c0.2-0.5 0.7-0.9 1.2-0.9 0.5 0 1 0.4 1.1 0.9l3.8 11 2.4-7.4c0.2-0.5 0.7-0.8 1.2-0.9 0.5 0 0.9 0.3 1.1 0.8l2.2 5.3h4c0.7 0 1.2 0.5 1.2 1.2 0 0.7-0.5 1.2-1.2 1.2h-4.9c-0.5 0-0.9-0.3-1.1-0.8l-1.2-2.9-2.6 7.7c-0.2 0.5-0.6 0.8-1.1 0.8z"/><path fill-rule="evenodd" class="e" d="m21.3 38.6c-0.7 0-1.2-0.5-1.2-1.2v-7.2c0-0.7 0.5-1.2 1.2-1.2 0.7 0 1.2 0.5 1.2 1.2v7.2c0 0.7-0.5 1.2-1.2 1.2z"/><path fill-rule="evenodd" class="e" d="m26.2 38.6h-9.8c-0.6 0-1.2-0.5-1.2-1.2 0-0.7 0.6-1.2 1.2-1.2h9.8c0.6 0 1.2 0.5 1.2 1.2 0 0.7-0.6 1.2-1.2 1.2z"/><path fill-rule="evenodd" class="e" d="m21.3 31.4q-0.4 0-0.8-0.1c-5.8-0.4-10.2-5.3-10.2-11.1v-0.9c0-1.3 1.1-2.4 2.5-2.4h3.6c0.7 0 1.2 0.5 1.2 1.2 0 0.7-0.5 1.2-1.2 1.2h-3.6v0.9c-0.1 4.5 3.4 8.3 7.9 8.7 2.4 0.2 4.7-0.6 6.4-2.2 1.7-1.6 2.7-3.8 2.7-6.2v-1.2h-3.6c-0.7 0-1.3-0.5-1.3-1.2 0-0.7 0.6-1.2 1.3-1.2h3.6c1.3 0 2.4 1.1 2.4 2.4v1.2c0 3-1.2 5.9-3.4 7.9-2.1 1.9-4.7 3-7.5 3z"/><path fill-rule="evenodd" class="f" d="m21.3 9.7c2.7 0 4.9 2.1 4.9 4.8v6c0 2.7-2.2 4.8-4.9 4.8-2.7 0-4.9-2.1-4.9-4.8v-6c0-2.7 2.2-4.8 4.9-4.8z"/></svg>