<svg version="1.2" xmlns="http://www.w3.org/2000/svg" viewBox="0 0 71 62" width="71" height="62"><style>.a{fill:#7986bf}.b{fill:#909cd1}.c{fill:#fdb0a0}.d{fill:#ffcec0}.e{fill:#fdc72e}.f{fill:#fcdb35}.g{fill:#3d4a75}.h{fill:#5d689e}.i{fill:#f2671f}.j{fill:#ff8748}.k{fill:#ffeb87}</style><path fill-rule="evenodd" class="a" d="m59 30.1c2.3 0 4.3 1.9 4.3 4.3v9.8c0 2.4-2 4.3-4.3 4.3-2.4 0-4.3-1.9-4.3-4.3v-9.8c0-2.4 1.9-4.3 4.3-4.3z"/><path fill-rule="evenodd" class="b" d="m58.3 48.5c-2-0.4-3.6-2.1-3.6-4.3v-9.8c0-2.2 1.6-3.9 3.6-4.3 2 0.4 3.6 2.1 3.6 4.3v9.8c0 2.2-1.6 3.9-3.6 4.3z"/><path fill-rule="evenodd" class="c" d="m21.1 49.7h-15.5c3-14.8-7.1-20.3-5.1-30.7 1-5 4-8.8 7.8-11.1 2.9-1.7 6.1-2.5 9.3-2.6 3.3-0.1 6.6 0.7 9.5 2.2 4.1 2 7.4 5.4 8.2 9.8 0.5 2.6 0.2 5.1 0 7.4 0 0.9 1.1 2.7 2.8 5.2 1.1 1.8 1.2 3.1-1.3 3.4-0.8 0-1.7 0.1-2.1 0.6-0.3 0.3 0 1 0.1 1.6 0.4 0.7 0.3 1.4-0.6 1.6-0.3 0.1-1.1 0.3-1.7 0.4 0 0.1 0.4 0.2 0.8 0.4 0.5 0.2 1 0.5 1.3 0.9 0.3 0.6 0 1.5-0.8 1.8-0.4 0.2-0.3 1.3-0.5 2.4-0.6 4-3.3 2.4-6.3 2-2.5-0.4-4 0-5.1 2.3-0.3 0.8-0.6 1.6-0.8 2.4z"/><path fill-rule="evenodd" class="d" d="m20.2 49.7h-11.7c3-14.8-7.1-20.3-5.1-30.7 1-5 3.6-8.2 7.5-10.5 8.5-4.7 21.6-1.1 23.6 8.8 0.5 2.6 0.2 5.1-0.1 7.4 0.1 0.9 1.2 2.7 2.8 5.2 1.2 1.8 1.3 3.1-1.2 3.4-0.8 0-1.7 0.1-2.2 0.6-0.2 0.3 0.1 1 0.2 1.6 0.3 0.7 0.3 1.4-0.6 1.6-0.4 0.1-1.1 0.3-1.8 0.4 0.1 0.1 0.4 0.2 0.9 0.4 0.4 0.2 1 0.5 1.2 0.9 0.3 0.6 0.1 1.5-0.7 1.8-0.4 0.2-0.3 1.3-0.5 2.4-0.3 1.8-1 2.5-2.1 2.6-1-0.1-2.2-0.5-3.4-0.6q-1.1-0.2-1.9-0.1c-1.9-0.1-3.1 0.4-4 2.4-0.3 0.8-0.6 1.6-0.9 2.4z"/><path fill-rule="evenodd" class="e" d="m39 41.6c0 0.6 0.4 1 1 1 0.5 0 1-0.4 1-1v-4.6c0-0.5-0.5-1-1-1-0.6 0-1 0.5-1 1zm10-0.9c0 0.5 0.4 1 1 1 0.5 0 1-0.5 1-1v-2.8c0-0.5-0.5-1-1-1-0.6 0-1 0.5-1 1zm-3.4 2.4c0 0.5 0.5 1 1 1 0.6 0 1-0.5 1-1v-7.5c0-0.5-0.4-1-1-1-0.5 0-1 0.5-1 1zm-3.3 2.5c0 0.5 0.5 1 1 1 0.6 0 1-0.5 1-1v-12.3c0-0.6-0.4-1-1-1-0.5 0-1 0.4-1 1z"/><path fill-rule="evenodd" class="f" d="m39 41.6c0 0.5 0.3 0.9 0.7 1 0.5-0.1 0.8-0.5 0.8-1v-4.6c0-0.5-0.3-0.9-0.8-1-0.4 0.1-0.7 0.5-0.7 1zm10-3.7v2.8c0 0.5 0.3 0.9 0.7 1 0.5-0.1 0.8-0.5 0.8-1v-2.8c0-0.4-0.3-0.8-0.8-0.9-0.4 0.1-0.7 0.5-0.7 0.9zm-3.4-2.3v7.4c0 0.5 0.4 0.9 0.8 1 0.4-0.1 0.8-0.5 0.8-1v-7.4c0-0.5-0.4-0.9-0.8-1-0.4 0.1-0.8 0.5-0.8 1zm-3.3-2.4v12.3c0 0.4 0.3 0.8 0.8 0.9 0.4-0.1 0.7-0.5 0.7-0.9v-12.3c0-0.5-0.3-0.9-0.7-1-0.5 0.1-0.8 0.5-0.8 1z"/><path fill-rule="evenodd" class="g" d="m56.9 34.8c0.5 0 1 0.5 1 1 0 0.6-0.5 1.1-1 1.1h-2.2v-2.1zm6.4 0v2.1h-2.2c-0.5 0-1-0.5-1-1.1 0-0.5 0.5-1 1-1zm0 3.5v2h-2.2c-0.5 0-1-0.4-1-1 0-0.6 0.5-1 1-1zm0 3.5v2h-2.1c-0.6 0-1-0.5-1-1 0-0.6 0.4-1 1-1zm-8.6 2v-2h2.2c0.6 0 1 0.4 1 1 0 0.5-0.4 1-1 1zm0-3.5v-2h2.2c0.5 0 1 0.4 1 1 0 0.6-0.5 1-1 1z"/><path fill-rule="evenodd" class="h" d="m54.7 34.8v2.1h2.2c0.5 0 1-0.5 1-1.1 0-0.5-0.5-1-1-1zm6.4 0c-0.6 0-1 0.5-1 1 0 0.6 0.4 1.1 1 1.1h0.8v-2.1zm0 3.5c-0.6 0-1 0.4-1 1 0 0.6 0.4 1 1 1h0.8v-2zm0 3.5c-0.6 0-1 0.4-1 1 0 0.5 0.4 1 1 1h0.8v-2zm-4.2 2c0.5 0 1-0.5 1-1 0-0.6-0.5-1-1-1h-2.2v2zm0-3.5c0.6 0 1-0.4 1-1 0-0.6-0.4-1-1-1h-2.2v2z"/><path fill-rule="evenodd" class="b" d="m65.1 44.2c0-0.5 0.5-1 1-1 0.6 0 1 0.5 1 1 0 2.3-0.9 4.3-2.4 5.8-1.4 1.5-3.5 2.4-5.7 2.4-2.2 0-4.3-0.9-5.8-2.4-1.4-1.5-2.3-3.5-2.3-5.8 0-0.5 0.4-1 1-1 0.5 0 1 0.5 1 1 0 1.7 0.7 3.3 1.8 4.4 1.1 1.1 2.6 1.8 4.3 1.8 1.7 0 3.2-0.7 4.3-1.8 1.1-1.1 1.8-2.7 1.8-4.4z"/><path fill-rule="evenodd" class="i" d="m41.7 0.7h24.7c2.1 0 3.8 1.7 3.8 3.9v8.9c0 2.1-1.7 3.8-3.8 3.8h-4.8v7.6l-5.7-7.6h-14.2c-2.1 0-3.9-1.7-3.9-3.8v-8.9c0-2.2 1.8-3.9 3.9-3.9z"/><path fill-rule="evenodd" class="j" d="m41.7 0.7h22.9c2.1 0 3.8 1.7 3.8 3.9v8.9c0 2.1-1.7 3.8-3.8 3.8h-4.8v5.2l-3.9-5.2h-14.2c-2.1 0-3.9-1.7-3.9-3.8v-8.9c0-2.2 1.8-3.9 3.9-3.9z"/><path fill-rule="evenodd" class="f" d="m44.7 10.6c0 0.6 0.4 1 1 1 0.5 0 1-0.4 1-1v-3.2c0-0.5-0.5-1-1-1-0.6 0-1 0.5-1 1zm-3.3 2.7c0 0.6 0.4 1 1 1 0.5 0 1-0.4 1-1v-8.5c0-0.6-0.5-1-1-1-0.6 0-1 0.4-1 1zm23.3-3.3c0 0.6 0.4 1 1 1 0.5 0 1-0.4 1-1v-1.9c0-0.5-0.5-1-1-1-0.6 0-1 0.5-1 1zm-3.4 1.6c0 0.6 0.5 1 1 1 0.6 0 1-0.4 1-1v-5.1c0-0.6-0.4-1-1-1-0.5 0-1 0.4-1 1zm-3.3 1.7c0 0.5 0.4 1 1 1 0.6 0 1-0.5 1-1v-8.5c0-0.6-0.4-1-1-1-0.6 0-1 0.4-1 1zm-3.3-2.7c0 0.6 0.4 1 1 1 0.5 0 1-0.4 1-1v-3.1c0-0.6-0.5-1-1-1-0.6 0-1 0.4-1 1zm-3.4 0.9c0 0.6 0.5 1 1 1 0.6 0 1-0.4 1-1v-5.1c0-0.5-0.4-1-1-1-0.5 0-1 0.5-1 1zm-3.3 1.7c0 0.5 0.5 1 1 1 0.6 0 1-0.5 1-1v-8.5c0-0.6-0.4-1-1-1-0.5 0-1 0.4-1 1z"/><path fill-rule="evenodd" class="k" d="m46 6.5c0.4 0.1 0.7 0.5 0.7 0.9v3.2c0 0.5-0.3 0.8-0.7 1-0.4-0.2-0.7-0.5-0.7-1v-3.2c0-0.4 0.3-0.8 0.7-0.9zm-4-1.7c0-0.5 0.2-0.9 0.7-1 0.4 0.1 0.7 0.5 0.7 1v8.5c0 0.4-0.3 0.8-0.7 0.9-0.5-0.1-0.7-0.5-0.7-0.9zm23.2 3.3c0-0.5 0.3-0.9 0.7-1 0.5 0.1 0.8 0.5 0.8 1v1.9c0 0.4-0.3 0.8-0.8 0.9-0.4-0.1-0.7-0.5-0.7-0.9zm-3.3-1.7c0-0.4 0.3-0.8 0.7-0.9 0.4 0.1 0.7 0.5 0.7 0.9v5.2c0 0.4-0.3 0.8-0.7 0.9-0.4-0.1-0.7-0.5-0.7-0.9zm-3.3-1.7c0-0.5 0.3-0.8 0.7-1 0.4 0.2 0.7 0.5 0.7 1v8.5c0 0.4-0.3 0.8-0.7 0.9-0.4-0.1-0.7-0.5-0.7-0.9zm-3.3 2.6c0-0.4 0.3-0.8 0.7-0.9 0.4 0.1 0.7 0.5 0.7 0.9v3.2c0 0.5-0.3 0.8-0.7 1-0.4-0.2-0.7-0.5-0.7-1zm-3.4-1c0-0.4 0.3-0.8 0.7-0.9 0.4 0.1 0.7 0.5 0.7 0.9v5.2c0 0.4-0.3 0.8-0.7 0.9-0.4-0.1-0.7-0.5-0.7-0.9zm-3.3-1.7c0-0.5 0.3-0.9 0.7-1 0.4 0.1 0.7 0.5 0.7 1v8.5c0 0.4-0.3 0.8-0.7 0.9-0.4-0.1-0.7-0.5-0.7-0.9z"/><path fill-rule="evenodd" class="b" d="m60 51.4v9.1h-2v-9.1z"/><path fill-rule="evenodd" class="b" d="m19.4 55.6c0.6 0 1 0.4 1 1 0 0.5-0.4 1-1 1h-15.5c-0.6 0-1-0.5-1-1 0-0.6 0.4-1 1-1 0 0 15.5 0 15.5 0zm47.3 3.9c0.6 0 1 0.4 1 1 0 0.6-0.4 1-1 1h-64.4c-0.6 0-1-0.4-1-1 0-0.6 0.4-1 1-1 0 0 64.4 0 64.4 0zm-46.2-7.9c0.5 0 1 0.5 1 1 0 0.6-0.5 1-1 1h-15.5c-0.6 0-1-0.4-1-1 0-0.5 0.4-1 1-1z"/></svg>