<svg height="512" viewBox="0 0 128 128" width="512" xmlns="http://www.w3.org/2000/svg"><g id="Flat"><g id="Color"><rect fill="#03a9f4" height="99" rx="9" width="125" x="1.5" y="1.5"/><path d="m126.5 83.5v8a9 9 0 0 1 -9 9h-107a9 9 0 0 1 -9-9v-8z" fill="#455a64"/><path d="m33.5 115.5h61a6 6 0 0 1 6 6v2a3 3 0 0 1 -3 3h-67a3 3 0 0 1 -3-3v-2a6 6 0 0 1 6-6z" fill="#455a64"/><path d="m81.143 100.5h-34.286a24.782 24.782 0 0 1 -8.571 15h51.428a24.782 24.782 0 0 1 -8.571-15z" fill="#37474f"/><circle cx="64" cy="92" fill="#37474f" r="2"/><g fill="#ffa000"><path d="m84.4 31.358h7.42a1.5 1.5 0 0 0 0-3h-7.42a1.5 1.5 0 0 0 0 3z"/><path d="m84.4 44.2h7.42a1.5 1.5 0 0 0 0-3h-7.42a1.5 1.5 0 0 0 0 3z"/><path d="m84.4 57.038h7.42a1.5 1.5 0 0 0 0-3h-7.42a1.5 1.5 0 0 0 0 3z"/><path d="m49.659 24.438a1.5 1.5 0 0 0 3 0v-7.42a1.5 1.5 0 1 0 -3 0z"/><path d="m64 25.938a1.5 1.5 0 0 0 1.5-1.5v-7.42a1.5 1.5 0 1 0 -3 0v7.42a1.5 1.5 0 0 0 1.5 1.5z"/><path d="m76.839 15.518a1.5 1.5 0 0 0 -1.5 1.5v7.42a1.5 1.5 0 1 0 3 0v-7.42a1.5 1.5 0 0 0 -1.5-1.5z"/><path d="m49.659 60.958v7.42a1.5 1.5 0 0 0 3 0v-7.42a1.5 1.5 0 0 0 -3 0z"/><path d="m62.5 68.378a1.5 1.5 0 1 0 3 0v-7.42a1.5 1.5 0 1 0 -3 0z"/><path d="m76.839 59.458a1.5 1.5 0 0 0 -1.5 1.5v7.42a1.5 1.5 0 0 0 3 0v-7.42a1.5 1.5 0 0 0 -1.5-1.5z"/><path d="m36.179 31.358h7.421a1.5 1.5 0 0 0 0-3h-7.42a1.5 1.5 0 0 0 0 3z"/><path d="m36.179 44.2h7.421a1.5 1.5 0 0 0 0-3h-7.42a1.5 1.5 0 0 0 0 3z"/><path d="m36.179 57.038h7.421a1.5 1.5 0 1 0 0-3h-7.42a1.5 1.5 0 0 0 0 3z"/></g><path d="m100.5 31h10.746a4.52 4.52 0 0 0 3.284-1.423l4.064-4.337a1.5 1.5 0 0 0 -2.19-2.052l-4.064 4.337a1.5 1.5 0 0 1 -1.094.475h-10.746a1.5 1.5 0 0 0 0 3z" fill="#0288d1"/><path d="m100.5 57h10.746a1.5 1.5 0 0 1 1.094.475l4.064 4.337a1.5 1.5 0 0 0 2.19-2.052l-4.064-4.337a4.52 4.52 0 0 0 -3.284-1.423h-10.746a1.5 1.5 0 0 0 0 3z" fill="#0288d1"/><path d="m100.5 44h17a1.5 1.5 0 0 0 0-3h-17a1.5 1.5 0 0 0 0 3z" fill="#0288d1"/><path d="m15.658 27.525-4.065-4.337a1.5 1.5 0 0 0 -2.193 2.052l4.064 4.337a4.514 4.514 0 0 0 3.288 1.423h10.748a1.5 1.5 0 0 0 0-3h-10.748a1.5 1.5 0 0 1 -1.094-.475z" fill="#0288d1"/><path d="m27.5 54h-10.748a4.514 4.514 0 0 0 -3.283 1.423l-4.069 4.337a1.5 1.5 0 1 0 2.188 2.052l4.065-4.338a1.5 1.5 0 0 1 1.099-.474h10.748a1.5 1.5 0 0 0 0-3z" fill="#0288d1"/><path d="m27.5 41h-17a1.5 1.5 0 0 0 0 3h17a1.5 1.5 0 0 0 0-3z" fill="#0288d1"/><rect fill="#37474f" height="38.52" rx="6" width="42.8" x="42.599" y="23.438"/><path d="m50.089 52.758a1.5 1.5 0 0 0 1.5-1.5v-4.92h7.7v4.92a1.5 1.5 0 0 0 3 0v-12.392a5.7 5.7 0 0 0 -2.926-5.194 8.115 8.115 0 0 0 -7.848 0 5.686 5.686 0 0 0 -2.926 5.172v12.414a1.5 1.5 0 0 0 1.5 1.5zm1.5-13.936a2.737 2.737 0 0 1 1.439-2.559 5.123 5.123 0 0 1 4.823 0 2.75 2.75 0 0 1 1.438 2.581v4.494h-7.7z" fill="#fff"/><path d="m69.349 49.758a1.5 1.5 0 0 0 0 3h8.56a1.5 1.5 0 0 0 0-3h-2.78v-14.12h2.78a1.5 1.5 0 0 0 0-3h-8.56a1.5 1.5 0 0 0 0 3h2.78v14.12z" fill="#fff"/></g></g></svg>