<?xml version="1.0" encoding="utf-8"?>
<!-- Generator: Adobe Illustrator 26.5.0, SVG Export Plug-In . SVG Version: 6.00 Build 0)  -->
<svg version="1.1" id="Capa_1" xmlns="http://www.w3.org/2000/svg" xmlns:xlink="http://www.w3.org/1999/xlink" x="0px" y="0px"
	 width="50px" height="50px" viewBox="0 0 50 50" style="enable-background:new 0 0 50 50;" xml:space="preserve">
<style type="text/css">
	.st0{fill:#7EB457;}
	.st1{fill:#79AD54;}
	.st2{fill:#5F943A;}
	.st3{fill:#74A650;}
	.st4{fill:#348FD9;}
	.st5{fill:#FFB531;}
	.st6{fill:#F98500;}
	.st7{fill:#FEC9A3;}
	.st8{fill:#FEC093;}
	.st9{fill:#FEB784;}
	.st10{fill:#3086CD;}
	.st11{fill:#2A71AD;}
</style>
<g id="Flat">
	<path class="st0" d="M41.3,40.5c0,1.4-1.2,2.6-2.6,2.6H14.5c-1.4,0-2.6-1.2-2.6-2.6c0-0.6,0.2-1.1,0.5-1.6l2.1-2.8v-11
		c0-0.1,0-0.2,0-0.3c0.1-5,3.7-9.3,8.6-10.3h6.9c2.4,0.5,4.6,1.8,6.2,3.7c0.2,0.2,0.3,0.4,0.5,0.6c1.3,1.8,2,4,2,6.2v11l2.1,2.8
		C41.1,39.4,41.3,40,41.3,40.5L41.3,40.5z"/>
	<path class="st1" d="M24.7,16.3l1.1,3.5l-3.6,0.8l-0.8,3.6l-3.5-1.1l-2.5,2.7l-0.9-0.9c0.1-5,3.7-9.3,8.6-10.3h3.4L24.7,16.3z"/>
	<path class="st1" d="M41.3,40.5c0,1.4-1.2,2.6-2.6,2.6H14.5c-1.4,0-2.6-1.2-2.6-2.6c0-0.6,0.2-1.1,0.5-1.6l2.1-2.8v-0.1
		c8.2-3.3,16.1-8.8,22.2-17.1c1.3,1.8,2,4,2,6.2v11l2.1,2.8C41.1,39.4,41.3,40,41.3,40.5L41.3,40.5z"/>
	<path class="st2" d="M28.3,25.9h-3.4c-0.7,0-1.3-0.6-1.3-1.3c0-0.7,0.6-1.3,1.3-1.3h5.6v-1.7h-3v-1.7h-1.7v1.7h-0.9
		c-1.7,0-3,1.4-3,3c0,1.7,1.4,3,3,3h3.4c0.7,0,1.3,0.6,1.3,1.3c0,0.7-0.6,1.3-1.3,1.3h-5.6v1.7h3v1.7h1.7v-1.7h0.9c1.7,0,3-1.4,3-3
		S30,25.9,28.3,25.9z"/>
	<path class="st3" d="M23.2,14.7l-1.7-6h10.3l-1.7,6H23.2z"/>
	<path class="st4" d="M38.7,37.9h9.5V50h-9.5V37.9z"/>
	<path class="st5" d="M13.9,0l2.5,2.7l3.5-1.1l0.8,3.6L24.4,6l-1.1,3.5l2.7,2.5l-2.7,2.5l1.1,3.5l-3.6,0.8l-0.8,3.6l-3.5-1.1
		l-2.5,2.7l-2.5-2.7l-3.5,1.1l-0.8-3.6l-3.6-0.8l1.1-3.5l-2.7-2.5l2.7-2.5L3.4,6l3.6-0.8l0.8-3.6l3.5,1.1L13.9,0z"/>
	<g>
		<path class="st6" d="M9,15.8l8.6-8.6l1.2,1.2L10.2,17L9,15.8z"/>
		<path class="st6" d="M10.5,11.2C9,11.2,7.9,10,7.9,8.6S9,6,10.5,6S13,7.2,13,8.6C13,10,11.9,11.2,10.5,11.2z M10.5,7.8
			c-0.5,0-0.9,0.4-0.9,0.9c0,0.5,0.4,0.9,0.9,0.9c0.5,0,0.9-0.4,0.9-0.9C11.3,8.1,10.9,7.8,10.5,7.8z"/>
		<path class="st6" d="M18.2,17.2c-1.4,0-2.6-1.2-2.6-2.6s1.2-2.6,2.6-2.6s2.6,1.2,2.6,2.6C20.8,16.1,19.6,17.2,18.2,17.2z
			 M18.2,13.8c-0.5,0-0.9,0.4-0.9,0.9c0,0.5,0.4,0.9,0.9,0.9c0.5,0,0.9-0.4,0.9-0.9C19.1,14.2,18.7,13.8,18.2,13.8z"/>
	</g>
	<path class="st7" d="M38.7,37.9V50H20.4c-1.6,0-3.2-0.4-4.6-1.1l-10.1-5c-1-0.5-1.6-1.5-1.6-2.5v-0.2c0-1.6,1.3-2.8,2.8-2.8
		c0.4,0,0.8,0.1,1.2,0.3l9.8,4.5h1.7c-1.4,0-2.6-1.2-2.6-2.6s1.2-2.6,2.6-2.6h6.6l0.1,0c3.4-2.1,7.7-2.2,11.3-0.4l0.2,0.1L38.7,37.9
		z"/>
	<path class="st8" d="M38.7,37.9V50H20.4c-1,0-2-0.1-2.9-0.4c10-3,15.2-6.5,20.4-12L38.7,37.9z"/>
	<path class="st9" d="M19.7,42.2h6.9c0.5,0,0.9,0.4,0.9,0.9S27.1,44,26.6,44h-6.9c-0.5,0-0.9-0.4-0.9-0.9S19.2,42.2,19.7,42.2z"/>
	<path class="st10" d="M38.7,45.7h9.5V50h-9.5V45.7z"/>
	<circle class="st11" cx="43" cy="45.7" r="1.7"/>
</g>
</svg>
