<?xml version="1.0" encoding="utf-8"?>
<!-- Generator: Adobe Illustrator 26.5.0, SVG Export Plug-In . SVG Version: 6.00 Build 0)  -->
<svg version="1.1" id="Capa_1" xmlns="http://www.w3.org/2000/svg" xmlns:xlink="http://www.w3.org/1999/xlink" x="0px" y="0px"
	 width="65px" height="65px" viewBox="0 0 65 65" style="enable-background:new 0 0 65 65;" xml:space="preserve">
<style type="text/css">
	.st0{fill:#EDEDEF;}
	.st1{fill:#3D6D93;}
	.st2{fill:#335E80;}
	.st3{fill:#F9F7F8;}
	.st4{fill:#F58A97;}
	.st5{fill:#F07281;}
	.st6{fill:#FDD1D5;}
	.st7{fill:#DEDAEE;}
	.st8{fill:#AEE69C;}
	.st9{fill:#89DAA4;}
	.st10{fill:#D5EFC8;}
</style>
<path class="st0" d="M50.2,60.9c6.1-3.7,11.3-9,13.3-14.9c2.2-6.5-1.5-11.9-8.1-13.9c-2.9-0.9-6.3-1-9.3-1.7
	c-3.3-0.8-4.7-2.7-5.5-5.5c-1.7-6.1-4-12.2-11.1-14.8c-3.1-1.2-7-1.5-10.7-0.4C14.4,11,10.8,13.8,8,17c-3,3.4-5.9,7.8-6.6,12
	c-1.2,3.7-1.6,7.5-1.3,11.2C0.3,43.7,3.3,56.5,13,61.5C24.5,67.4,43.5,65,50.2,60.9z"/>
<g>
	<g>
		<g>
			<path class="st1" d="M54.5,50H31.5c-2.2,0-4-1.8-4-4V4c0-2.2,1.8-4,4-4h22.9c2.2,0,4,1.8,4,4v42C58.5,48.2,56.7,50,54.5,50z"/>
			<path class="st2" d="M54.5,0h-3c2.2,0,4,1.8,4,4v42c0,2.2-1.8,4-4,4h3c2.2,0,4-1.8,4-4V4C58.5,1.8,56.7,0,54.5,0z"/>
			<path class="st3" d="M50.4,3.8c0,0.8-0.6,1.4-1.4,1.4H37c-0.8,0-1.4-0.6-1.4-1.4c0-0.4-0.4-0.8-0.8-0.8h-2.8
				c-0.8,0-1.5,0.7-1.5,1.5v40.9c0,0.8,0.7,1.5,1.5,1.5H54c0.8,0,1.5-0.7,1.5-1.5V4.5C55.5,3.7,54.8,3,54,3h-2.8
				C50.8,3,50.4,3.4,50.4,3.8L50.4,3.8z"/>
		</g>
		<circle class="st2" cx="43" cy="2.6" r="0.8"/>
	</g>
	<g>
		<g>
			<path class="st4" d="M35.4,21.1c1.2-1.5,1.9-3.4,1.9-5.5c-0.1-4.3-3.6-7.7-7.9-7.8c-4.6-0.1-8.3,3.6-8.3,8.2c0.1,4.4,3.8,8,8.2,8
				h7.4c0.4,0,0.5-0.4,0.3-0.7l-1.5-1.5C35.2,21.6,35.2,21.3,35.4,21.1L35.4,21.1z"/>
			<path class="st5" d="M35.4,21.8c-0.2-0.2-0.2-0.5,0-0.7c1.2-1.5,1.9-3.4,1.9-5.5c-0.1-4.3-3.6-7.7-7.9-7.8c-0.6,0-1.1,0-1.7,0.1
				c3.6,0.7,6.5,3.9,6.6,7.7c0.1,2.1-0.6,4-1.9,5.5c-0.2,0.2-0.2,0.5,0,0.7l1.5,1.5c0.3,0.3,0.1,0.7-0.3,0.7h3
				c0.4,0,0.5-0.4,0.3-0.7L35.4,21.8z"/>
			<g>
				<circle class="st6" cx="29.1" cy="15.9" r="0.8"/>
				<circle class="st6" cx="32.2" cy="15.9" r="0.8"/>
				<circle class="st6" cx="26.1" cy="15.9" r="0.8"/>
			</g>
		</g>
		<g>
			<g>
				<path class="st7" d="M50.9,24H39.7c-0.4,0-0.8-0.3-0.8-0.8c0-0.4,0.3-0.8,0.8-0.8h11.2c0.4,0,0.8,0.3,0.8,0.8
					C51.7,23.7,51.3,24,50.9,24z"/>
			</g>
			<g>
				<path class="st7" d="M50.9,21H39.7c-0.4,0-0.8-0.3-0.8-0.8c0-0.4,0.3-0.8,0.8-0.8h11.2c0.4,0,0.8,0.3,0.8,0.8
					C51.7,20.7,51.3,21,50.9,21z"/>
			</g>
			<g>
				<path class="st7" d="M50.9,18h-9.7c-0.4,0-0.8-0.3-0.8-0.8s0.3-0.8,0.8-0.8h9.7c0.4,0,0.8,0.3,0.8,0.8S51.3,18,50.9,18z"/>
			</g>
		</g>
	</g>
	<g>
		<g>
			<g>
				<path class="st7" d="M46.4,42.2H35.2c-0.4,0-0.8-0.3-0.8-0.8c0-0.4,0.3-0.8,0.8-0.8h11.2c0.4,0,0.8,0.3,0.8,0.8
					C47.1,41.8,46.8,42.2,46.4,42.2z"/>
			</g>
			<g>
				<path class="st7" d="M46.4,39.1H35.2c-0.4,0-0.8-0.3-0.8-0.8s0.3-0.8,0.8-0.8h11.2c0.4,0,0.8,0.3,0.8,0.8S46.8,39.1,46.4,39.1z"
					/>
			</g>
			<g>
				<path class="st7" d="M44.9,36.1h-9.7c-0.4,0-0.8-0.3-0.8-0.8s0.3-0.8,0.8-0.8h9.7c0.4,0,0.8,0.3,0.8,0.8
					C45.6,35.8,45.3,36.1,44.9,36.1z"/>
			</g>
		</g>
		<g>
			<path class="st8" d="M50.7,39.2c-1.2-1.5-1.9-3.4-1.9-5.5c0.1-4.3,3.6-7.7,7.9-7.8c4.6-0.1,8.3,3.6,8.3,8.2c-0.1,4.4-3.8,8-8.2,8
				h-7.4c-0.4,0-0.5-0.4-0.3-0.7l1.5-1.5C50.8,39.7,50.8,39.4,50.7,39.2L50.7,39.2z"/>
			<path class="st9" d="M56.7,26c-0.5,0-0.9,0.1-1.3,0.1c3.8,0.7,6.6,4.1,6.6,8.1c-0.1,4.4-3.8,8-8.2,8h3c4.4,0,8.1-3.5,8.2-8
				C65.1,29.6,61.3,25.9,56.7,26L56.7,26z"/>
			<g>
				<circle class="st10" cx="56.9" cy="34.1" r="0.8"/>
				<circle class="st10" cx="53.9" cy="34.1" r="0.8"/>
				<circle class="st10" cx="59.9" cy="34.1" r="0.8"/>
			</g>
		</g>
	</g>
</g>
</svg>
