<svg version="1.2" xmlns="http://www.w3.org/2000/svg" viewBox="0 0 70 73" width="70" height="73"><style>.a{fill:#88ce65}.b{fill:#6c5475}.c{fill:#543e5b}.d{fill:#ff4155}.e{fill:#e80054}.f{fill:#f9a0b1}.g{fill:#ff7186}.h{fill:#ffb332}.i{fill:#ff9100}.j{fill:#f9f2f2}.k{fill:#e5e1e1}.l{fill:#ffdd40}.m{fill:#ffc839}.n{fill:#d1cfcf}.o{fill:#deeeff}.p{fill:#bec8f7}.q{fill:#b4d667}</style><path class="a" d="m34.8 3.1c-19.2 0-34.8 15.7-34.8 35 0 10 4.2 19 10.9 25.3l21.8 9.5q1.1 0.1 2.1 0.1c19.2 0 34.8-15.6 34.8-34.9 0-19.3-15.6-35-34.8-35z"/><path class="b" d="m30 32.7c-1.1-2.4-2.4-5.4-3.3-8.6-0.9 1.8-2.8 2.9-4.9 2.9q-0.1 0-0.1 0c-0.5 3.2-1 6.9-1.5 10q-0.4 2.3-0.4 4.7v5.2c-0.3 0.3-1.2 1.3-1.1 2.6q0 1 1 1.9c-0.4 0.4-1.1 1.2-1.1 2.3q0 1.3 1.1 2.4c-0.2 0.3-0.6 1.2-0.3 2.1q0.2 1 1.3 1.6v1.5 7.7l8.5 3.6q1.8 0.2 3.5 0.3v-28c0-4.2-0.9-8.4-2.7-12.2z"/><path class="c" d="m20.9 61.3l0.1-1.6c-2.6-1.3-1-3.7-1-3.7-2.7-2.4 0-4.6 0-4.6-2.5-2 0-4.4 0-4.4v-5.3q0-2.4 0.4-4.7c0.5-3.1 1-6.9 1.5-10q0 0-0.1 0c-2.1 0-3.9-1.1-4.9-2.9-0.9 3.2-2.1 6.2-3.3 8.6-1.8 3.8-2.7 8-2.7 12.2v18.5q1.6 1.6 3.5 3l6.5 2.7c0 0 0-7.8 0-7.8z"/><path class="d" d="m25.5 21.6c-1.7 0-3.2 1.3-3.4 3q-0.2 1.2-0.5 2.7 0.1 0 0.2 0c2.2 0 4-1.2 5-3q-0.4-1.4-0.7-2.7c0 0-0.6 0-0.6 0z"/><path class="e" d="m18.1 15.1v1.6c0 2.4-0.5 5.1-1.2 7.6 0.9 1.8 2.8 3 4.9 3q0 0 0.1 0 0.2-1.5 0.4-2.7c0.2-1.6 1.6-2.8 3.2-2.8h0.6c-0.4-1.7-0.6-3.4-0.6-5.1v-1.6z"/><path class="d" d="m26 14.8v-13.8c0-0.5-0.5-1-1-1h-6.3c-0.6 0-1.1 0.5-1.1 1v13.8c0 0.4 0.3 0.6 0.6 0.6h7.2c0.4 0 0.6-0.2 0.6-0.6z"/><path class="f" d="m26.3 4.4h-3.1c-1 0.5-1.6 1.4-1.6 2.6 0 1.1 0.6 2 1.6 2.5h3.1c0.6 0 1-0.5 1-1.1v-2.9c0-0.6-0.4-1.1-1-1.1z"/><path class="g" d="m21.8 7c0-1.4 1.1-2.6 2.5-2.6h-7c-0.5 0-1 0.5-1 1.1v2.9c0 0.6 0.5 1.1 1 1.1h7c-1.4 0-2.5-1.2-2.5-2.5z"/><path class="h" d="m27.9 47h-8.2c-0.3 0.3-1.1 1.3-1 2.5q0 1 1 1.9-0.1 0.1-0.1 0.1h9.6v-3.2c0-0.7-0.6-1.3-1.3-1.3z"/><path class="i" d="m20 47h-4.3c-0.7 0-1.3 0.6-1.3 1.3v3.2h5.5q0.1-0.1 0.1-0.1c-2.5-2 0-4.4 0-4.4z"/><path class="j" d="m19.7 56.1c-0.2 0.3-0.6 1.2-0.3 2.1q0.2 1 1.3 1.6v1.5 8.7c2.7 1.2 5.5 2.1 8.5 2.6v-16.7h-9.6q0 0.1 0.1 0.2z"/><path class="k" d="m14.4 66.4q3 2.2 6.5 3.7v-8.8l0.1-1.6c-2.6-1.3-1-3.7-1-3.7q-0.1 0-0.1-0.1h-5.5c0 0 0 10.5 0 10.5z"/><path class="l" d="m19.7 51.4c-0.4 0.4-1.1 1.2-1.1 2.3q0 1.3 1.1 2.3h9.5v-4.6h-9.5q0 0 0 0z"/><path class="m" d="m20 51.4h-5.6v4.6h5.6c-2.7-2.4 0-4.6 0-4.6z"/><path class="n" d="m25.3 62.1q-0.3 0-0.5-0.1-1.4-0.8-3-0.8-1.6 0-3 0.8c-0.5 0.3-1.1 0.1-1.4-0.5-0.2-0.5 0-1.1 0.5-1.4 1.2-0.6 2.5-0.9 3.9-0.9 1.4 0 2.7 0.3 3.9 0.9 0.6 0.3 0.8 0.9 0.5 1.4-0.2 0.4-0.6 0.6-0.9 0.6z"/><path class="o" d="m42.2 18.7q0.4 1.3 2.1 2c-0.3 0.7-1.2 3-0.5 5.2q0.8 2.3 3.4 3.5 0 0-0.1 0.1h19.3q0 0-0.1-0.1c-0.4-1.7 0.2-3.8-0.6-5.3-0.9-1.5-3.1-2-4.3-3.3-1.2-1.2-1.7-3.4-3.2-4.2-1.5-0.9-3.6-0.3-5.3-0.7-1.6-0.4-3.2-2.1-4.9-2.1-1.8 0-3.3 1.7-5 2.1q-0.1 0-0.3 0.1c-0.2 0.4-0.8 1.5-0.5 2.7z"/><path class="p" d="m37.7 16.6c-1.5 0.8-2 3-3.2 4.2-1.2 1.3-3.4 1.8-4.2 3.3-0.9 1.5-0.3 3.6-0.7 5.3q0 0.1 0 0.1h17.8q0.2-0.2 0.2-0.2c-6.2-2.7-3-8.7-3-8.7-3.9-1.5-1.6-4.7-1.6-4.7-1.6 0.4-3.8-0.2-5.3 0.7z"/><path class="o" d="m66.4 39.2h-17q0.2 0.1 0.5 0.3c-0.3 0.6-1.2 2.7-0.5 4.8q0.7 2.1 3.3 3.3c-0.3 0.5-0.9 1.8-0.6 3q0.4 1.3 1.9 2c1.5-0.1 3 0.2 4.2-0.5 1.5-0.9 2-3 3.2-4.3 1.2-1.2 3.4-1.7 4.3-3.2 0.8-1.5 0.2-3.6 0.6-5.3q0.1-0.1 0.1-0.1z"/><path class="p" d="m29.6 39.3c0.4 1.7-0.2 3.8 0.7 5.3 0.8 1.5 3 2 4.2 3.2 1.2 1.3 1.7 3.4 3.2 4.3 1.5 0.9 3.7 0.2 5.3 0.7 1.7 0.4 3.2 2.1 5 2.1 1.7 0 3.3-1.7 4.9-2.1 0.5-0.1 1-0.2 1.6-0.2-4-1.6-1.5-5.1-1.5-5.1-6-2.5-2.8-8.1-2.8-8.1q-0.2-0.1-0.4-0.2h-20.2q0 0 0 0.1z"/><path class="b" d="m44.3 20.7c-0.3 0.7-1.2 3-0.5 5.2q0.8 2.3 3.4 3.5 0 0-0.1 0.1h14.1c-2-5.4-7.2-9.3-13.2-9.3q-2 0-3.7 0.5 0 0 0 0z"/><path class="c" d="m44.6 20.6c-4.6 1.2-8.3 4.5-9.9 8.9h12.7q0.2-0.2 0.2-0.2c-6.2-2.7-3-8.6-3-8.7z"/><path class="b" d="m49.4 39.2q0.2 0.1 0.5 0.3c-0.3 0.6-1.2 2.7-0.5 4.8q0.7 2.1 3.3 3.3 0 0 0 0c3.9-1.4 7.1-4.5 8.5-8.4z"/><path class="c" d="m48 48.5c1.8 0 3.5-0.4 5-1-6-2.5-2.8-8.1-2.8-8.1q-0.2-0.1-0.4-0.2h-15.1c2 5.4 7.2 9.3 13.3 9.3z"/><path class="d" d="m68.4 29.3h-21.3q0 0 0.1 0.1c-0.2 0.3-0.5 0.9-0.4 1.5q0.1 0.8 1 1.3l1.3 3.9c-0.2 0.3-0.6 1-0.5 1.9q0.2 0.8 1.1 1.4h18.7c0.8 0 1.5-0.7 1.5-1.5v-7.2c0-0.8-0.7-1.4-1.5-1.4z"/><path class="e" d="m27.5 29.3c-0.8 0-1.4 0.6-1.4 1.4v7.2c0 0.8 0.6 1.5 1.4 1.5h22.7c-2.5-1.2-0.8-3.2-0.8-3.2l-1.4-4.1c-2.1-1.1-0.4-2.8-0.4-2.8z"/><path class="l" d="m34 32.4l0.2 0.4c0.1 0.2 0.2 0.3 0.5 0.3l0.4 0.1c0.5 0.1 0.7 0.7 0.3 1.1l-0.3 0.3c-0.1 0.1-0.2 0.4-0.2 0.6l0.1 0.4c0.1 0.5-0.5 0.9-0.9 0.7l-0.4-0.2c-0.2-0.1-0.4-0.1-0.6 0l-0.4 0.2c-0.4 0.2-1-0.2-0.9-0.7l0.1-0.4c0-0.2-0.1-0.5-0.2-0.6l-0.3-0.3c-0.4-0.4-0.2-1 0.3-1.1l0.5-0.1c0.2 0 0.3-0.1 0.4-0.3l0.2-0.4c0.3-0.5 0.9-0.5 1.2 0z"/><path class="l" d="m41.3 32.4l0.1 0.4c0.1 0.2 0.3 0.3 0.5 0.3l0.4 0.1c0.6 0.1 0.8 0.7 0.4 1.1l-0.3 0.3c-0.1 0.1-0.2 0.4-0.2 0.6l0.1 0.4c0.1 0.5-0.5 0.9-0.9 0.7l-0.4-0.2c-0.2-0.1-0.4-0.1-0.6 0l-0.4 0.2c-0.5 0.2-1-0.2-0.9-0.7v-0.4c0.1-0.2 0-0.5-0.1-0.6l-0.3-0.3c-0.4-0.4-0.2-1 0.3-1.1l0.4-0.1c0.2 0 0.4-0.1 0.5-0.3l0.2-0.4c0.2-0.5 0.9-0.5 1.2 0z"/><path class="l" d="m48.5 32.4l0.2 0.4c0.1 0.2 0.3 0.3 0.5 0.3l0.4 0.1c0.6 0.1 0.8 0.7 0.4 1.1l-0.3 0.3c-0.2 0.1-0.2 0.4-0.2 0.6l0.1 0.4c0.1 0.5-0.5 0.9-1 0.7l-0.3-0.2c-0.2-0.1-0.4-0.1-0.6 0l-0.4 0.2c-0.5 0.2-1-0.2-0.9-0.7v-0.4c0.1-0.2 0-0.5-0.2-0.6l-0.3-0.3c-0.3-0.4-0.1-1 0.4-1.1l0.4-0.1c0.2 0 0.4-0.1 0.5-0.3l0.2-0.4c0.2-0.5 0.9-0.5 1.1 0z"/><path class="l" d="m55.8 32.4l0.2 0.4c0.1 0.2 0.3 0.3 0.5 0.3l0.4 0.1c0.5 0.1 0.7 0.7 0.4 1.1l-0.3 0.3c-0.2 0.1-0.3 0.4-0.2 0.6l0.1 0.4c0 0.5-0.5 0.9-1 0.7l-0.4-0.2c-0.1-0.1-0.4-0.1-0.6 0l-0.3 0.2c-0.5 0.2-1-0.2-1-0.7l0.1-0.4c0-0.2 0-0.5-0.2-0.6l-0.3-0.3c-0.4-0.4-0.1-1 0.4-1.1l0.4-0.1c0.2 0 0.4-0.1 0.5-0.3l0.2-0.4c0.2-0.5 0.9-0.5 1.1 0z"/><path class="l" d="m63.1 32.4l0.2 0.4c0.1 0.2 0.3 0.3 0.5 0.3l0.4 0.1c0.5 0.1 0.7 0.7 0.3 1.1l-0.2 0.3c-0.2 0.1-0.3 0.4-0.2 0.6v0.4c0.1 0.5-0.4 0.9-0.9 0.7l-0.4-0.2c-0.2-0.1-0.4-0.1-0.6 0l-0.3 0.2c-0.5 0.2-1.1-0.2-1-0.7l0.1-0.4c0-0.2 0-0.5-0.2-0.6l-0.3-0.3c-0.4-0.4-0.2-1 0.4-1.1l0.4-0.1c0.2 0 0.4-0.1 0.5-0.3l0.1-0.4c0.3-0.5 1-0.5 1.2 0z"/><path class="q" d="m0 38.1c0 3.6 0.6 7.2 1.6 10.5 2.8-1.2 4.9-4.3 4.9-9.4 0-7 1.5-8.9 5.6-18 1.6-3.4 0.5-6.2-1.5-8.3-6.5 6.4-10.6 15.3-10.6 25.2z"/><path class="q" d="m34.8 3.1q-1.8 0-3.5 0.2c0.2 2.7 1.5 8.2 7.2 7.4 5.6-0.8 11-0.7 13-3.3-5-2.7-10.7-4.3-16.7-4.3z"/><path class="q" d="m57.5 58.6c-6.5 1.5-12.2-2.5-17.6 2.8-3.1 3.2-1.6 7.8 0.1 11.2 9.2-1.4 17.1-6.3 22.5-13.4-1.2-0.7-2.8-1.1-5-0.6z"/></svg>