<?xml version="1.0" encoding="utf-8"?>
<!-- Generator: Adobe Illustrator 26.5.0, SVG Export Plug-In . SVG Version: 6.00 Build 0)  -->
<svg version="1.1" id="Capa_1" xmlns="http://www.w3.org/2000/svg" xmlns:xlink="http://www.w3.org/1999/xlink" x="0px" y="0px"
	 width="65px" height="65px" viewBox="0 0 65 65" style="enable-background:new 0 0 65 65;" xml:space="preserve">
<style type="text/css">
	.st0{fill:#EDEDEF;}
	.st1{fill:#DF646E;}
	.st2{fill:#DC4955;}
	.st3{fill:#F9AF38;}
	.st4{fill:#F48931;}
</style>
<path class="st0" d="M50.2,60.9c6.1-3.7,11.3-9,13.3-14.9c2.2-6.5-1.5-11.9-8.1-13.9c-2.9-0.9-6.3-1-9.3-1.7
	c-3.3-0.8-4.7-2.7-5.5-5.5c-1.7-6.1-4-12.2-11.1-14.8c-3.1-1.2-7-1.5-10.7-0.4C14.4,11,10.8,13.8,8,17c-3,3.4-5.9,7.8-6.6,12
	c-1.2,3.7-1.6,7.5-1.3,11.2C0.3,43.7,3.3,56.5,13,61.5C24.5,67.4,43.5,65,50.2,60.9z"/>
<g>
	<g>
		<g>
			<path class="st1" d="M39.2,17.3c-0.3,0-0.6-0.1-0.8-0.3l-9-7.2c-1.4-1-2.1-2.3-2.2-4c-0.1-1.7-0.5-1.8,0.7-2.9
				c1.3-1.1,3-3.1,4.6-2.9c0.2,0,0.4,0.1,0.6,0.1C35,0.7,36.4,2.1,37,3.9l3.6,11.5c0.2,0.6,0,1.2-0.5,1.6
				C39.8,17.2,39.5,17.3,39.2,17.3L39.2,17.3z M31.6,2.9c-0.6,0-1.3,0.2-1.8,0.7c-0.6,0.5-0.9,1.3-0.9,2.2c0.1,0.8,0.5,1.6,1.1,2
				l6.4,4.5l-1-7.5c-0.3-0.8-2.2-1.5-3-1.7c-0.1,0-0.1,0-0.2-0.1C32.1,2.9,31.9,2.9,31.6,2.9z"/>
		</g>
	</g>
	<g>
		<g>
			<path class="st1" d="M40,17c-0.5-0.4,0.7-1,0.9-1.6l3.5-11.5c0.6-1.8,0.5-2.6,2.4-3.1c0.8-0.2,1.8-0.9,2.5-0.8
				c1,0.2,2,0.6,2.8,1.4c1.3,1.1,1.9,2.8,1.8,4.5c-0.1,1.7-1,3.2-2.4,4.2l-9.9,6.9c-0.2,0.2-0.5,0.3-0.8,0.3
				C40.5,17.3,40.2,17.2,40,17L40,17z M47.6,3c-0.9,0.2-1.6,0.9-1.8,1.8l-2.3,7.5l6.4-4.5c0.7-0.5,1.1-1.2,1.1-2
				c0.1-0.8-0.3-1.6-0.9-2.2c-0.5-0.5-1.1-0.7-1.8-0.7C48.1,2.9,47.9,2.9,47.6,3L47.6,3z"/>
		</g>
	</g>
	<g>
		<g>
			<path class="st2" d="M36,4.8c-0.3-0.9-1-1.5-1.8-1.8c-0.2-0.1-0.5-0.1-0.7-0.1c-0.3,0-0.6,0.1-0.9,0.2c0.8,0.3,1.4,0.9,1.7,1.7
				l2.1,6.7l2,0.8L36,4.8z"/>
		</g>
		<g>
			<path class="st2" d="M30.2,10.1c-1.4-1-2.3-2.5-2.4-4.2c-0.1-1.7,0.6-3.3,1.8-4.5c0.8-0.7,1.8-1.2,2.8-1.4
				c-1.7-0.3-3.3,0.2-4.6,1.4c-1.3,1.1-1.9,2.8-1.8,4.5c0.1,1.7,1,3.2,2.4,4.2l9.9,6.9c0.2,0.2,0.5,0.3,0.8,0.3
				c0.3,0,0.6-0.1,0.9-0.3c0,0,0,0,0,0L30.2,10.1z"/>
		</g>
	</g>
	<g>
		<path class="st2" d="M41.2,15.4l3.6-11.5c0.6-1.8,2-3.2,3.8-3.7c0.2-0.1,0.4-0.1,0.6-0.1c-0.8-0.1-1.6-0.1-2.4,0.1
			C45,0.7,43.6,2.1,43,3.9l-3.6,11.5c-0.2,0.6,0,1.2,0.5,1.6c0.3,0.2,0.6,0.3,0.9,0.3c0.3,0,0.6-0.1,0.8-0.3l0.1,0
			C41.2,16.6,41,16,41.2,15.4z"/>
	</g>
	<g>
		<g>
			<path class="st3" d="M59.4,25.5c0-2.5,1.7-4.7,4-5.3c0.9-0.3,1.5-1.1,1.5-2.1v-3.9c0-1.6-1.3-2.9-2.9-2.9H20.9
				c-1.6,0-3,1.3-3,2.9v22.5c0,1.6,1.4,2.9,3,2.9h41.1c1.6,0,2.9-1.3,2.9-2.9v-3.9c0-1-0.6-1.8-1.5-2.1C61.1,30.2,59.4,28,59.4,25.5
				z"/>
		</g>
	</g>
	<g>
		<g>
			<path class="st4" d="M18.5,36.8V14.2c0-1.6,1.3-2.9,2.9-2.9h-3.5c-1.6,0-2.9,1.3-2.9,2.9v22.5c0,1.6,1.3,2.9,2.9,2.9h3.5
				C19.8,39.7,18.5,38.4,18.5,36.8z"/>
		</g>
	</g>
	<g>
		<path class="st4" d="M51.4,16.7c-0.4,0-0.8-0.3-0.8-0.8v-1.3c0-0.4,0.3-0.8,0.8-0.8c0.4,0,0.8,0.3,0.8,0.8V16
			C52.1,16.4,51.8,16.7,51.4,16.7z"/>
	</g>
	<g>
		<path class="st4" d="M51.4,21.8c-0.4,0-0.8-0.3-0.8-0.8v-1.3c0-0.4,0.3-0.8,0.8-0.8c0.4,0,0.8,0.3,0.8,0.8v1.3
			C52.1,21.5,51.8,21.8,51.4,21.8z"/>
	</g>
	<g>
		<path class="st4" d="M51.4,26.9c-0.4,0-0.8-0.3-0.8-0.8v-1.3c0-0.4,0.3-0.8,0.8-0.8c0.4,0,0.8,0.3,0.8,0.8v1.3
			C52.1,26.6,51.8,26.9,51.4,26.9z"/>
	</g>
	<g>
		<path class="st4" d="M51.4,32c-0.4,0-0.8-0.3-0.8-0.8v-1.3c0-0.4,0.3-0.8,0.8-0.8c0.4,0,0.8,0.3,0.8,0.8v1.3
			C52.1,31.7,51.8,32,51.4,32z"/>
	</g>
	<g>
		<path class="st4" d="M51.4,37.1c-0.4,0-0.8-0.3-0.8-0.8V35c0-0.4,0.3-0.8,0.8-0.8c0.4,0,0.8,0.3,0.8,0.8v1.3
			C52.1,36.7,51.8,37.1,51.4,37.1z"/>
	</g>
	<g>
		<path class="st1" d="M27.8,23.7c-1.7,0-3.1-1.4-3.1-3.1c0-1.7,1.4-3.1,3.1-3.1c1.7,0,3.1,1.4,3.1,3.1
			C30.9,22.3,29.5,23.7,27.8,23.7z M27.8,19c-0.9,0-1.6,0.7-1.6,1.6c0,0.9,0.7,1.6,1.6,1.6c0.9,0,1.6-0.7,1.6-1.6S28.6,19,27.8,19
			L27.8,19z"/>
	</g>
	<g>
		<path class="st1" d="M37.5,33.5c-1.7,0-3.1-1.4-3.1-3.1s1.4-3.1,3.1-3.1c1.7,0,3.1,1.4,3.1,3.1S39.2,33.5,37.5,33.5L37.5,33.5z
			 M37.5,28.8c-0.9,0-1.6,0.7-1.6,1.6c0,0.9,0.7,1.6,1.6,1.6c0.9,0,1.6-0.7,1.6-1.6C39.1,29.5,38.4,28.8,37.5,28.8L37.5,28.8z"/>
	</g>
	<g>
		<path class="st1" d="M27.5,33.7c-0.1,0-0.3,0-0.4-0.1c-0.3-0.2-0.4-0.7-0.2-1l10.3-14.9c0.2-0.3,0.7-0.4,1-0.2
			c0.3,0.2,0.4,0.7,0.2,1L28.1,33.4C27.9,33.6,27.7,33.7,27.5,33.7z"/>
	</g>
</g>
</svg>
