<?xml version="1.0" encoding="utf-8"?>
<!-- Generator: Adobe Illustrator 26.5.0, SVG Export Plug-In . SVG Version: 6.00 Build 0)  -->
<svg version="1.1" id="Layer_1" xmlns="http://www.w3.org/2000/svg" xmlns:xlink="http://www.w3.org/1999/xlink" x="0px" y="0px"
	 width="50px" height="50px" viewBox="0 0 50 50" style="enable-background:new 0 0 50 50;" xml:space="preserve">
<style type="text/css">
	.st0{fill:#575F64;}
	.st1{fill:#32393F;}
	.st2{fill:#FF9100;}
	.st3{fill:#FF641A;}
	.st4{fill:#00C8C8;}
</style>
<path class="st0" d="M8.8,30.9v5.9c0,0.8-0.6,1.5-1.5,1.5s-1.5-0.6-1.5-1.5v-5.9c0-0.8,0.6-1.5,1.5-1.5S8.8,30,8.8,30.9z"/>
<path class="st1" d="M8.8,30.9v5.9c0,0.8-0.6,1.5-1.5,1.5v-8.8C8.1,29.4,8.8,30,8.8,30.9z"/>
<path class="st0" d="M8.8,13.2v6c0,0.8-0.6,1.5-1.5,1.5S5.9,20,5.9,19.1v-6c0-0.8,0.6-1.5,1.5-1.5S8.8,12.4,8.8,13.2z"/>
<path class="st1" d="M8.8,13.2v6c0,0.8-0.6,1.5-1.5,1.5v-8.9C8.1,11.7,8.8,12.4,8.8,13.2z"/>
<path class="st2" d="M13.8,20.8L8,17.8c-0.2-0.1-0.4-0.1-0.6-0.1s-0.4,0.1-0.6,0.1l-5.9,2.9C0.3,21,0,21.5,0,22.1v5.9
	c0,0.6,0.3,1.1,0.8,1.3l5.9,2.9c0.2,0.1,0.4,0.1,0.6,0.1s0.4-0.1,0.6-0.1l5.9-2.9c0.5-0.3,0.8-0.8,0.8-1.3v-5.9
	C14.6,21.5,14.3,21,13.8,20.8z"/>
<path class="st3" d="M14.6,22.1v5.9c0,0.6-0.3,1.1-0.8,1.3L8,32.2c-0.2,0.1-0.4,0.1-0.6,0.1V17.7c0.2,0,0.4,0.1,0.6,0.1l5.9,2.9
	C14.3,21,14.6,21.5,14.6,22.1z"/>
<path class="st2" d="M13.8,3.1L8,0.1C7.8,0.1,7.6,0,7.3,0S6.9,0.1,6.7,0.1L0.8,3.1C0.3,3.3,0,3.8,0,4.4v5.9c0,0.6,0.3,1.1,0.8,1.3
	l5.9,2.9c0.2,0.1,0.4,0.1,0.6,0.1s0.4-0.1,0.6-0.1l5.9-2.9c0.5-0.3,0.8-0.8,0.8-1.3V4.4C14.6,3.8,14.3,3.3,13.8,3.1z"/>
<path class="st3" d="M14.6,4.4v5.9c0,0.6-0.3,1.1-0.8,1.3L8,14.5c-0.2,0.1-0.4,0.1-0.6,0.1V0C7.6,0,7.8,0.1,8,0.1l5.9,2.9
	C14.3,3.3,14.6,3.8,14.6,4.4z"/>
<path class="st2" d="M13.8,38.3L8,35.4c-0.2-0.1-0.4-0.1-0.6-0.1s-0.4,0.1-0.6,0.1l-5.9,2.9C0.3,38.6,0,39.1,0,39.6v6
	c0,0.6,0.3,1.1,0.8,1.3l5.9,2.9C6.9,49.9,7.1,50,7.3,50s0.4-0.1,0.6-0.1l5.9-2.9c0.5-0.3,0.8-0.8,0.8-1.3v-6
	C14.6,39.1,14.3,38.6,13.8,38.3z"/>
<path class="st3" d="M14.6,39.6v6c0,0.6-0.3,1.1-0.8,1.3L8,49.9C7.8,49.9,7.6,50,7.3,50V35.3c0.2,0,0.4,0.1,0.6,0.1l5.9,2.9
	C14.3,38.6,14.6,39.1,14.6,39.6z"/>
<g>
	<path class="st4" d="M48.5,5.9H19c-0.8,0-1.5-0.7-1.5-1.5s0.7-1.5,1.5-1.5h29.5c0.8,0,1.5,0.7,1.5,1.5S49.3,5.9,48.5,5.9z"/>
	<path class="st4" d="M33.8,11.7H19c-0.8,0-1.5-0.7-1.5-1.5s0.7-1.5,1.5-1.5h14.7c0.8,0,1.5,0.7,1.5,1.5S34.6,11.7,33.8,11.7z"/>
	<path class="st4" d="M33.8,29.4H19c-0.8,0-1.5-0.7-1.5-1.5s0.7-1.5,1.5-1.5h14.7c0.8,0,1.5,0.7,1.5,1.5S34.6,29.4,33.8,29.4z"/>
	<path class="st4" d="M33.8,47H19c-0.8,0-1.5-0.7-1.5-1.5S18.2,44,19,44h14.7c0.8,0,1.5,0.7,1.5,1.5S34.6,47,33.8,47z"/>
	<path class="st4" d="M48.5,23.5H19c-0.8,0-1.5-0.7-1.5-1.5s0.7-1.5,1.5-1.5h29.5c0.8,0,1.5,0.7,1.5,1.5S49.3,23.5,48.5,23.5z"/>
	<path class="st4" d="M48.5,41.1H19c-0.8,0-1.5-0.7-1.5-1.5s0.7-1.5,1.5-1.5h29.5c0.8,0,1.5,0.7,1.5,1.5S49.3,41.1,48.5,41.1z"/>
</g>
<path class="st0" d="M8.8,7.3c0,0.8-0.6,1.5-1.5,1.5S5.9,8.1,5.9,7.3c0-0.8,0.6-1.5,1.5-1.5S8.8,6.5,8.8,7.3z"/>
<path class="st0" d="M8.8,25c0,0.8-0.6,1.5-1.5,1.5S5.9,25.8,5.9,25c0-0.8,0.6-1.5,1.5-1.5S8.8,24.2,8.8,25z"/>
<path class="st0" d="M8.8,42.6c0,0.8-0.6,1.5-1.5,1.5s-1.5-0.6-1.5-1.5c0-0.8,0.6-1.5,1.5-1.5S8.8,41.8,8.8,42.6z"/>
<path class="st1" d="M8.8,42.6c0,0.8-0.6,1.5-1.5,1.5v-2.9C8.1,41.1,8.8,41.8,8.8,42.6z"/>
<path class="st1" d="M8.8,25c0,0.8-0.6,1.5-1.5,1.5v-2.9C8.1,23.5,8.8,24.2,8.8,25z"/>
<path class="st1" d="M7.3,8.8V5.9c0.8,0,1.5,0.6,1.5,1.5C8.8,8.1,8.1,8.8,7.3,8.8z"/>
</svg>
