<?xml version="1.0" encoding="utf-8"?>
<!-- Generator: Adobe Illustrator 26.5.0, SVG Export Plug-In . SVG Version: 6.00 Build 0)  -->
<svg version="1.1" id="Layer_1" xmlns="http://www.w3.org/2000/svg" xmlns:xlink="http://www.w3.org/1999/xlink" x="0px" y="0px"
	 width="70px" height="70px" viewBox="0 0 70 70" style="enable-background:new 0 0 70 70;" xml:space="preserve">
<style type="text/css">
	.st0{fill:#FFFFFF;}
</style>
<g id="surface1">
	<path class="st0" d="M4.7,58.6H7v-2.3H4.7c-1.3,0-2.3-1-2.3-2.3V7.2c0-1.3,1-2.3,2.3-2.3H56c1.3,0,2.3,1,2.3,2.3v2.3h2.3V7.2
		c0-2.6-2.1-4.7-4.7-4.7H4.7C2.1,2.6,0,4.7,0,7.2v46.7C0,56.5,2.1,58.6,4.7,58.6z"/>
	<path class="st0" d="M4.7,7.2H7v2.3H4.7V7.2z"/>
	<path class="st0" d="M9.3,7.2h2.3v2.3H9.3V7.2z"/>
	<path class="st0" d="M14,7.2h2.3v2.3H14V7.2z"/>
	<path class="st0" d="M9.3,63.2c0,2.6,2.1,4.7,4.7,4.7h51.3c2.6,0,4.7-2.1,4.7-4.7V16.6c0-2.6-2.1-4.7-4.7-4.7H14
		c-2.6,0-4.7,2.1-4.7,4.7V63.2z M11.7,16.6c0-1.3,1-2.3,2.3-2.3h51.3c1.3,0,2.3,1,2.3,2.3v46.7c0,1.3-1,2.3-2.3,2.3H14
		c-1.3,0-2.3-1-2.3-2.3V16.6z"/>
	<path class="st0" d="M14,16.6h2.3v2.3H14V16.6z"/>
	<path class="st0" d="M18.7,16.6H21v2.3h-2.3V16.6z"/>
	<path class="st0" d="M23.3,16.6h2.3v2.3h-2.3V16.6z"/>
	<path class="st0" d="M14,21.2h51.3v2.3H14V21.2z"/>
	<path class="st0" d="M14,27.1h9.3v2.3H14V27.1z"/>
	<path class="st0" d="M14,31.7h7v2.3h-7V31.7z"/>
	<path class="st0" d="M39.7,36.4c-4.5,0-8.2,3.7-8.2,8.2s3.7,8.2,8.2,8.2s8.2-3.7,8.2-8.2C47.8,40.1,44.2,36.4,39.7,36.4z
		 M39.7,50.4c-3.2,0-5.8-2.6-5.8-5.8s2.6-5.8,5.8-5.8s5.8,2.6,5.8,5.8C45.5,47.8,42.9,50.4,39.7,50.4z"/>
	<path class="st0" d="M58.3,41.1c0-0.6-0.5-1.2-1.2-1.2h-3.1c-0.2-0.8-0.6-1.5-0.9-2.2l2.2-2.2c0.5-0.5,0.5-1.2,0-1.6l-5-5
		c-0.5-0.5-1.2-0.5-1.6,0l-2.2,2.2c-0.7-0.4-1.5-0.7-2.2-0.9v-3.1c0-0.6-0.5-1.2-1.2-1.2h-7c-0.6,0-1.2,0.5-1.2,1.2v3.1
		c-0.8,0.2-1.5,0.6-2.2,0.9l-2.2-2.2c-0.5-0.5-1.2-0.5-1.6,0l-5,5c-0.5,0.5-0.5,1.2,0,1.6l2.2,2.2c-0.1,0.2-0.2,0.4-0.3,0.6
		c-0.2,0.5-0.5,1.1-0.6,1.7h-3.1c-0.6,0-1.2,0.5-1.2,1.2v7c0,0.6,0.5,1.2,1.2,1.2h3.1c0.2,0.8,0.6,1.5,0.9,2.2L24,53.7
		c-0.5,0.5-0.5,1.2,0,1.6l5,5c0.5,0.5,1.2,0.5,1.6,0l2.2-2.2c0.7,0.4,1.5,0.7,2.2,0.9v3.1c0,0.6,0.5,1.2,1.2,1.2h7
		c0.6,0,1.2-0.5,1.2-1.2V59c0.8-0.2,1.5-0.6,2.2-0.9l2.2,2.2c0.5,0.5,1.2,0.5,1.6,0l5-5c0.5-0.5,0.5-1.2,0-1.6l-2.2-2.2
		c0.4-0.7,0.7-1.5,0.9-2.2h3.1c0.6,0,1.2-0.5,1.2-1.2V41.1z M56,46.9h-2.8c-0.5,0-1,0.4-1.1,0.9c-0.3,1.2-0.8,2.3-1.4,3.3
		c-0.3,0.5-0.2,1,0.2,1.4l2,2l-3.3,3.3l-2-2c-0.4-0.4-1-0.5-1.4-0.2c-1,0.6-2.1,1.1-3.3,1.4c-0.5,0.1-0.9,0.6-0.9,1.1v2.8h-4.7v-2.8
		c0-0.5-0.4-1-0.9-1.1c-1.2-0.3-2.3-0.8-3.3-1.4c-0.5-0.3-1-0.2-1.4,0.2l-2,2l-3.3-3.3l2-2c0.4-0.4,0.5-1,0.2-1.4
		c-0.6-1-1.1-2.1-1.4-3.3c-0.1-0.5-0.6-0.9-1.1-0.9h-2.8v-4.7h2.8c0.5,0,1-0.4,1.1-0.9c0.2-0.7,0.4-1.4,0.8-2.1
		c0.2-0.4,0.4-0.8,0.6-1.2c0.3-0.5,0.2-1-0.2-1.4l-2-2l3.3-3.3l2,2c0.4,0.4,1,0.4,1.4,0.2c1-0.6,2.1-1.1,3.3-1.4
		c0.5-0.1,0.9-0.6,0.9-1.1v-2.8H42V31c0,0.5,0.4,1,0.9,1.1c1.2,0.3,2.3,0.8,3.3,1.4c0.5,0.3,1,0.2,1.4-0.2l2-2l3.3,3.3l-2,2
		c-0.4,0.4-0.5,1-0.2,1.4c0.6,1,1.1,2.1,1.4,3.3c0.1,0.5,0.6,0.9,1.1,0.9H56V46.9z"/>
	<path class="st0" d="M58.3,60.9h7v2.3h-7V60.9z"/>
</g>
</svg>
