<?xml version="1.0" encoding="utf-8"?>
<!-- Generator: Adobe Illustrator 26.5.0, SVG Export Plug-In . SVG Version: 6.00 Build 0)  -->
<svg version="1.1" id="Layer_1" xmlns="http://www.w3.org/2000/svg" xmlns:xlink="http://www.w3.org/1999/xlink" x="0px" y="0px"
	 width="65px" height="65px" viewBox="0 0 65 65" style="enable-background:new 0 0 65 65;" xml:space="preserve">
<style type="text/css">
	.st0{fill:#EDEDEF;}
	.st1{fill:#98F9FF;}
	.st2{fill:#7DD5F4;}
	.st3{fill:#08475E;}
	.st4{fill:#05303D;}
	.st5{fill:#0A617D;}
	.st6{fill:#FF7C48;}
	.st7{fill:#FF415B;}
	.st8{fill:#E50058;}
	.st9{fill:#0A789B;}
</style>
<path class="st0" d="M50.2,60.9c6.1-3.7,11.3-9,13.3-14.9c2.2-6.5-1.5-11.9-8.1-13.9c-2.9-0.9-6.3-1-9.3-1.7
	c-3.3-0.8-4.7-2.7-5.5-5.5c-1.7-6.1-4-12.2-11.1-14.8c-3.1-1.2-7-1.5-10.7-0.4C14.4,11,10.8,13.8,8,17c-3,3.4-5.9,7.8-6.6,12
	c-1.2,3.7-1.6,7.5-1.3,11.2C0.3,43.7,3.3,56.5,13,61.5C24.5,67.4,43.5,65,50.2,60.9z"/>
<g>
	<path class="st1" d="M36.3,6.2h27.2v35.2H36.3V6.2z"/>
	<path class="st2" d="M49.9,6.2h13.6v35.2H49.9L49.9,6.2z"/>
	<path class="st3" d="M59.5,0H40.4c-3,0-5.5,2.5-5.5,5.5v39c0,3,2.5,5.5,5.5,5.5h19.1c3,0,5.5-2.5,5.5-5.5v-39C65,2.5,62.5,0,59.5,0
		z M62.1,39.9H37.8V7.6h24.3L62.1,39.9L62.1,39.9z"/>
	<path class="st4" d="M59.5,0h-9.6v7.6h12.1v32.3H49.9V50h9.6c3,0,5.5-2.5,5.5-5.5v-39C65,2.5,62.5,0,59.5,0z"/>
	<g>
		<path class="st5" d="M48.5,42.7h2.9v2.9h-2.9V42.7z"/>
	</g>
	<path class="st3" d="M49.9,42.7h1.5v2.9h-1.5V42.7z"/>
	<g>
		<path class="st6" d="M48.5,14.8h2.9v3.9h-2.9V14.8z"/>
	</g>
	<g>
		<path class="st6" d="M41.2,18.5l2.2-1.9l2.5,3l-2.2,1.9L41.2,18.5z"/>
	</g>
	<g>
		<path class="st6" d="M54,19.7l2.5-3l2.2,1.9l-2.5,3L54,19.7z"/>
	</g>
	<path class="st7" d="M49.9,21.4c-3,0-5.4,2.4-5.4,5.4v4.6h10.7v-4.6C55.3,23.8,52.9,21.4,49.9,21.4L49.9,21.4z"/>
	<path class="st8" d="M55.3,26.7c0-3-2.4-5.4-5.4-5.4v9.9h5.4V26.7z"/>
	<g>
		<path class="st9" d="M42.5,29.8h15v2.9h-15L42.5,29.8z"/>
	</g>
	<g>
		<path class="st7" d="M54,19.7l2.5-3l2.2,1.9l-2.5,3L54,19.7z"/>
	</g>
	<path class="st7" d="M49.9,14.8h1.5v3.9h-1.5V14.8z"/>
	<path class="st5" d="M49.9,29.8h7.5v2.9h-7.5L49.9,29.8z"/>
</g>
</svg>
