<?xml version="1.0" encoding="utf-8"?>
<!-- Generator: Adobe Illustrator 26.5.0, SVG Export Plug-In . SVG Version: 6.00 Build 0)  -->
<svg version="1.1" id="_x33_0" xmlns="http://www.w3.org/2000/svg" xmlns:xlink="http://www.w3.org/1999/xlink" x="0px" y="0px"
	 width="70px" height="70px" viewBox="0 0 70 70" style="enable-background:new 0 0 70 70;" xml:space="preserve">
<style type="text/css">
	.st0{fill:#FFFFFF;}
</style>
<g>
	<path class="st0" d="M15.7,49.5c-2.5,0-4.5,2-4.5,4.5s2,4.5,4.5,4.5s4.5-2,4.5-4.5S18.1,49.5,15.7,49.5z M15.7,56.2
		c-1.2,0-2.2-1-2.2-2.2c0-1.2,1-2.2,2.2-2.2s2.2,1,2.2,2.2C17.9,55.2,16.9,56.2,15.7,56.2z"/>
	<path class="st0" d="M15.7,45.1c-4.9,0-8.9,4-8.9,8.9s4,8.9,8.9,8.9s8.9-4,8.9-8.9S20.6,45.1,15.7,45.1z M15.7,60.7
		c-3.7,0-6.7-3-6.7-6.7c0-3.7,3-6.7,6.7-6.7s6.7,3,6.7,6.7C22.4,57.7,19.4,60.7,15.7,60.7z"/>
	<path class="st0" d="M70,50.6l-2.9-2.1V30.1l-3.4,1.1c-0.8,0.3-1.6,0.4-2.5,0.4c-1.7,0-3-1.4-3-3v-2.9c0-1.7,1.4-3,3-3
		c0.8,0,1.7,0.1,2.5,0.4l3.4,1.2V12.6c0-1.8-1.5-3.4-3.4-3.4h-8.5l0.4-1.1c0.2-0.6,0.3-1.2,0.3-1.9c0-3.3-2.7-5.9-5.9-5.9h-1.6
		c-3.3,0-5.9,2.7-5.9,5.9c0,0.6,0.1,1.3,0.3,1.9l0.4,1.1h-6.3c-0.9,0-1.6,0.3-2.2,0.9c-0.6-0.5-1.4-0.9-2.2-0.9h-8.5l0.4-1.1
		c0.2-0.6,0.3-1.2,0.3-1.9c0-3.3-2.7-5.9-5.9-5.9h-1.6c-3.3,0-5.9,2.7-5.9,5.9c0,0.6,0.1,1.3,0.3,1.9l0.4,1.1H5.6
		c-1.8,0-3.4,1.5-3.4,3.4v32.7l-0.8,0.8l1.5,1.5c0.5,0.5,0.3,1.1,0.2,1.2c-0.1,0.2-0.3,0.7-1,0.7H0v8.9h2.2c0.7,0,1,0.5,1,0.7
		c0.1,0.2,0.2,0.7-0.2,1.2l-1.5,1.5l6.3,6.3l1.5-1.5c0.5-0.5,1.1-0.3,1.2-0.2c0.2,0.1,0.7,0.3,0.7,1v2.2h8.9v-2.2c0-0.7,0.5-1,0.7-1
		c0.2-0.1,0.7-0.3,1.2,0.2l1.5,1.5l6.3-6.3l-1.5-1.5c-0.5-0.5-0.3-1.1-0.2-1.2c0.1-0.2,0.3-0.7,1-0.7h1h1.1h19v9.2L70,50.6z
		 M36.9,11.5h9.4l-1.4-4.1c-0.1-0.4-0.2-0.8-0.2-1.2c0-2,1.7-3.7,3.7-3.7H50c2,0,3.7,1.7,3.7,3.7c0,0.4-0.1,0.8-0.2,1.2l-1.4,4.1
		h11.6c0.6,0,1.1,0.5,1.1,1.1v8.5L64.3,21c-1-0.3-2.1-0.5-3.2-0.5c-2.9,0-5.3,2.4-5.3,5.3v2.9c0,2.9,2.4,5.3,5.3,5.3
		c1.1,0,2.2-0.2,3.2-0.5l0.5-0.2v13.6L50.3,36.1v8.9H35.8V33.2l0.5,0.2c1,0.3,2.1,0.5,3.2,0.5c2.9,0,5.3-2.4,5.3-5.3v-2.9
		c0-1.4-0.5-2.7-1.5-3.7c-1-1-2.3-1.5-3.7-1.5c0,0,0,0,0,0c-1.1,0-2.2,0.2-3.2,0.5l-0.5,0.2v-8.5C35.8,12,36.3,11.5,36.9,11.5
		L36.9,11.5z M4.5,12.6c0-0.6,0.5-1.1,1.1-1.1H15l-1.4-4.1c-0.1-0.4-0.2-0.8-0.2-1.2c0-2,1.7-3.7,3.7-3.7h1.6c2,0,3.7,1.7,3.7,3.7
		c0,0.4-0.1,0.8-0.2,1.2l-1.4,4.1h11.6c0.6,0,1.1,0.5,1.1,1.1v11.6l3.4-1.1c0.8-0.3,1.6-0.4,2.5-0.4h0c0.8,0,1.6,0.3,2.1,0.9
		c0.6,0.6,0.9,1.3,0.9,2.1v2.9c0,1.7-1.4,3-3,3c-0.8,0-1.7-0.1-2.5-0.4l-3.4-1.1v15h-4.7l-5.3-5.3L22,41.3c-0.5,0.5-1.1,0.3-1.2,0.2
		c-0.2-0.1-0.7-0.3-0.7-1v-2.2h-8.9v2.2c0,0.7-0.5,1-0.7,1c-0.2,0.1-0.7,0.2-1.2-0.2l-1.5-1.5l-3.3,3.3L4.5,12.6z M29.1,56.2
		c-1.3,0-2.5,0.8-3,2.1c-0.5,1.3-0.3,2.6,0.7,3.6l-3.2,3.2c-1-0.9-2.3-1.2-3.6-0.7c-1.3,0.5-2,1.7-2.1,3h-4.5c0-1.3-0.8-2.5-2.1-3
		c-1.3-0.5-2.6-0.3-3.6,0.7l-3.2-3.2c0.9-1,1.2-2.3,0.7-3.6c-0.5-1.3-1.7-2-3-2.1v-4.5c1.3,0,2.5-0.8,3-2.1c0.5-1.3,0.3-2.6-0.7-3.6
		l3.2-3.2c1,0.9,2.3,1.2,3.6,0.7c1.3-0.5,2-1.7,2.1-3h4.5c0,1.3,0.8,2.5,2.1,3c1.3,0.5,2.6,0.3,3.6-0.7l3.2,3.2
		c-0.9,1-1.2,2.3-0.7,3.6c0.5,1.3,1.7,2,3,2.1V56.2z M31.3,56.2v-6.7h-2.2c-0.7,0-1-0.5-1-0.7c-0.1-0.2-0.2-0.7,0.2-1.2l0.3-0.3
		h23.9v-6.7l13.9,10.2l-13.9,12v-6.5L31.3,56.2z"/>
	<path class="st0" d="M13.4,26.1c0-1.8-1.5-3.4-3.4-3.4s-3.4,1.5-3.4,3.4c0,1.8,1.5,3.4,3.4,3.4S13.4,27.9,13.4,26.1z M8.9,26.1
		c0-0.6,0.5-1.1,1.1-1.1s1.1,0.5,1.1,1.1c0,0.6-0.5,1.1-1.1,1.1S8.9,26.7,8.9,26.1z"/>
	<path class="st0" d="M19,29.4c1.8,0,3.4-1.5,3.4-3.4c0-1.8-1.5-3.4-3.4-3.4s-3.4,1.5-3.4,3.4C15.7,27.9,17.2,29.4,19,29.4z
		 M19,24.9c0.6,0,1.1,0.5,1.1,1.1c0,0.6-0.5,1.1-1.1,1.1c-0.6,0-1.1-0.5-1.1-1.1C17.9,25.4,18.4,24.9,19,24.9z"/>
	<path class="st0" d="M28,29.4c1.8,0,3.4-1.5,3.4-3.4c0-1.8-1.5-3.4-3.4-3.4c-1.8,0-3.4,1.5-3.4,3.4C24.6,27.9,26.1,29.4,28,29.4z
		 M28,24.9c0.6,0,1.1,0.5,1.1,1.1c0,0.6-0.5,1.1-1.1,1.1c-0.6,0-1.1-0.5-1.1-1.1C26.8,25.4,27.3,24.9,28,24.9z"/>
</g>
</svg>
