<?xml version="1.0" encoding="utf-8"?>
<!-- Generator: Adobe Illustrator 26.5.0, SVG Export Plug-In . SVG Version: 6.00 Build 0)  -->
<svg version="1.1" id="Layer_1" xmlns="http://www.w3.org/2000/svg" xmlns:xlink="http://www.w3.org/1999/xlink" x="0px" y="0px"
	 width="65px" height="65px" viewBox="0 0 65 65" style="enable-background:new 0 0 65 65;" xml:space="preserve">
<style type="text/css">
	.st0{fill:#EDEDEF;}
	.st1{fill:#6967BF;}
	.st2{fill:#5B59B2;}
	.st3{fill:#7776D0;}
	.st4{fill:#D9DDFF;}
	.st5{fill:#FFD54D;}
	.st6{fill:#FFC919;}
	.st7{fill:#FFFFFF;}
</style>
<path class="st0" d="M50.2,60.9c6.1-3.7,11.3-9,13.3-14.9c2.2-6.5-1.5-11.9-8.1-13.9c-2.9-0.9-6.3-1-9.3-1.7
	c-3.3-0.8-4.7-2.7-5.5-5.5c-1.7-6.1-4-12.2-11.1-14.8c-3.1-1.2-7-1.5-10.7-0.4C14.4,11,10.8,13.8,8,17c-3,3.4-5.9,7.8-6.6,12
	c-1.2,3.7-1.6,7.5-1.3,11.2C0.3,43.7,3.3,56.5,13,61.5C24.5,67.4,43.5,65,50.2,60.9z"/>
<g>
	<g>
		<g>
			<path class="st1" d="M60,46.1H20V24.4c0-1.2,1-2.1,2.1-2.1h35.7c1.2,0,2.1,1,2.1,2.1L60,46.1z"/>
			<path class="st2" d="M57.8,22.2h-4c1.2,0,2.1,1,2.1,2.1v21.7h4V24.4C60,23.2,59,22.2,57.8,22.2z"/>
			<path class="st3" d="M62.9,50H17.1C16,50,15,49,15,47.9v-1.8h50v1.8C65,49,64,50,62.9,50z"/>
			<path class="st1" d="M61,46.1v1.8c0,1.2-1,2.1-2.1,2.1h4c1.2,0,2.1-1,2.1-2.1v-1.8L61,46.1z"/>
			<path class="st4" d="M23.6,25.8h32.8v20.3H23.6V25.8z"/>
		</g>
		<path class="st5" d="M47.9,2.4c-6.4-4.4-15.2-2.7-19.5,3.7s-2.7,15.2,3.7,19.5c1.8,1.2,3.8,2,5.9,2.3l2,3.1l2.1-3.1
			c3.7-0.6,7.3-2.6,9.6-6C56,15.5,54.3,6.8,47.9,2.4L47.9,2.4z"/>
		<path class="st6" d="M47.9,2.4c-3-2-6.5-2.8-9.9-2.3c2,0.3,4,1,5.9,2.3c6.4,4.4,8.1,13.1,3.7,19.5c-2.3,3.4-5.8,5.4-9.6,6l0,0l2,3
			l2.1-3.1c3.7-0.6,7.3-2.6,9.6-6C56,15.5,54.3,6.8,47.9,2.4L47.9,2.4z"/>
	</g>
	<g>
		<g>
			<path class="st7" d="M40,22.5c-1,0-1.9-0.8-1.9-1.9v-6.1c0-1,0.8-1.9,1.9-1.9s1.9,0.8,1.9,1.9v6.1C41.9,21.7,41,22.5,40,22.5z"/>
			<path class="st7" d="M40,10c-1,0-1.9-0.8-1.9-1.9S39,6.2,40,6.2s1.9,0.8,1.9,1.9C41.9,9.1,41,10,40,10z"/>
		</g>
		<g>
			<path class="st7" d="M28.1,32.7h5.6c0.4,0,0.8-0.3,0.8-0.8c0-0.4-0.3-0.8-0.8-0.8h-5.6c-0.4,0-0.8,0.3-0.8,0.8
				C27.4,32.3,27.7,32.7,28.1,32.7z"/>
			<path class="st7" d="M46.3,32.7h5.6c0.4,0,0.8-0.3,0.8-0.8c0-0.4-0.3-0.8-0.8-0.8h-5.6c-0.4,0-0.8,0.3-0.8,0.8
				C45.5,32.3,45.9,32.7,46.3,32.7z"/>
			<path class="st7" d="M51.9,35.5H28.1c-0.4,0-0.8,0.3-0.8,0.8s0.3,0.8,0.8,0.8h23.8c0.4,0,0.8-0.3,0.8-0.8S52.3,35.5,51.9,35.5
				L51.9,35.5z"/>
			<path class="st7" d="M46.9,39.9H33.1c-0.4,0-0.8,0.3-0.8,0.8s0.3,0.8,0.8,0.8h13.7c0.4,0,0.8-0.3,0.8-0.8S47.3,39.9,46.9,39.9
				L46.9,39.9z"/>
		</g>
	</g>
</g>
</svg>
