<?xml version="1.0" encoding="utf-8"?>
<!-- Generator: Adobe Illustrator 26.5.0, SVG Export Plug-In . SVG Version: 6.00 Build 0)  -->
<svg version="1.1" id="Layer_1" xmlns="http://www.w3.org/2000/svg" xmlns:xlink="http://www.w3.org/1999/xlink" x="0px" y="0px"
	 width="65px" height="65px" viewBox="0 0 65 65" style="enable-background:new 0 0 65 65;" xml:space="preserve">
<style type="text/css">
	.st0{fill:#EDEDEF;}
	.st1{fill:#FF8354;}
	.st2{fill:#FFAC8C;}
	.st3{fill:#A1F1FC;}
	.st4{fill:#6770E6;}
	.st5{fill:#5861C7;}
	.st6{fill:#FFEFE4;}
	.st7{fill:#FFF7F2;}
	.st8{fill:#D476E2;}
	.st9{fill:#EA82FA;}
	.st10{fill:#EDD4C2;}
</style>
<path class="st0" d="M50.2,60.9c6.1-3.7,11.3-9,13.3-14.9c2.2-6.5-1.5-11.9-8.1-13.9c-2.9-0.9-6.3-1-9.3-1.7
	c-3.3-0.8-4.7-2.7-5.5-5.5c-1.7-6.1-4-12.2-11.1-14.8c-3.1-1.2-7-1.5-10.7-0.4C14.4,11,10.8,13.8,8,17c-3,3.4-5.9,7.8-6.6,12
	c-1.2,3.7-1.6,7.5-1.3,11.2C0.3,43.7,3.3,56.5,13,61.5C24.5,67.4,43.5,65,50.2,60.9z"/>
<g>
	<path class="st1" d="M63.8,48.8c-1.6,1.6-4.3,1.6-5.9,0L40.4,31.4l5.9-5.9l17.4,17.4C65.4,44.5,65.4,47.1,63.8,48.8z"/>
	<path class="st1" d="M52,18.5C52,28.7,43.7,37,33.5,37C23.3,37,15,28.7,15,18.5C15,8.3,23.3,0,33.5,0C43.7,0,52,8.3,52,18.5z"/>
	<path class="st2" d="M20.4,8.4c7.2-7.2,19-7.2,26.2,0c3.2,3.2,5,7.4,5.4,11.6c0.4-5.2-1.4-10.6-5.4-14.6c-7.2-7.2-19-7.2-26.2,0
		c-4,4-5.8,9.3-5.4,14.6C15.4,15.7,17.2,11.6,20.4,8.4z"/>
	<path class="st3" d="M46.5,18.8c0,7.1-5.7,12.8-12.8,12.8c-7.1,0-12.8-5.7-12.8-12.8c0-7.1,5.7-12.8,12.8-12.8
		C40.8,6.1,46.5,11.8,46.5,18.8z"/>
	<path class="st4" d="M47.1,38l10.8,10.8c1.6,1.6,4.3,1.6,5.9,0c1.6-1.6,1.6-4.3,0-5.9L53,32.1L47.1,38z"/>
	<path class="st5" d="M64.6,44c-0.2,0.4-0.5,0.9-0.8,1.2c-0.8,0.8-1.9,1.2-3,1.2v0h-5.2l2.3,2.3c1.6,1.6,4.3,1.6,5.9,0
		C65,47.5,65.3,45.6,64.6,44z"/>
	<path class="st6" d="M59.4,24.5H31.8c-3.1,0-5.6-2.5-5.6-5.6s2.5-5.6,5.6-5.6h27.6c3.1,0,5.6,2.5,5.6,5.6
		C65,21.9,62.5,24.5,59.4,24.5z"/>
	<path class="st7" d="M59.4,13.2H31.8c-3.1,0-5.6,2.5-5.6,5.6c0,0.2,0,0.3,0,0.5c0.2-2.9,2.7-5.2,5.6-5.2h27.6c3,0,5.4,2.3,5.6,5.2
		c0-0.2,0-0.3,0-0.5C65,15.7,62.5,13.2,59.4,13.2z"/>
	<path class="st8" d="M59.4,24.5h-5.6V13.2h5.6c3.1,0,5.6,2.5,5.6,5.6C65,21.9,62.5,24.5,59.4,24.5z"/>
	<path class="st9" d="M64.2,15.9c-0.1-0.2-0.2-0.3-0.3-0.5c-0.1-0.1-0.2-0.3-0.3-0.4c-0.1-0.1-0.1-0.1-0.2-0.2
		c-0.1-0.1-0.2-0.2-0.3-0.3c-0.3-0.3-0.6-0.5-1-0.7c-0.1,0-0.2-0.1-0.2-0.1c-0.4-0.2-0.8-0.3-1.3-0.4c0,0-0.1,0-0.1,0
		c-0.4-0.1-0.7-0.1-1.1-0.1h-5.6v1h5.6c3,0,5.4,2.3,5.6,5.2c0,0,0,0,0,0c0-0.1,0-0.2,0-0.2c0-0.1,0-0.2,0-0.3
		C65,17.8,64.7,16.8,64.2,15.9z"/>
	<path class="st10" d="M49.3,21.6H31.5c-0.3,0-0.6-0.3-0.6-0.6c0-0.3,0.3-0.6,0.6-0.6h17.8c0.3,0,0.6,0.3,0.6,0.6
		C49.9,21.3,49.6,21.6,49.3,21.6z"/>
	<path class="st6" d="M61.9,21.1L60.8,20c0.3-0.4,0.5-1,0.5-1.6c0-1.5-1.2-2.7-2.7-2.7s-2.7,1.2-2.7,2.7s1.2,2.7,2.7,2.7
		c0.6,0,1.1-0.2,1.6-0.5l1.1,1.1c0.1,0.1,0.2,0.1,0.3,0.1c0.1,0,0.2,0,0.3-0.1C62.1,21.6,62.1,21.3,61.9,21.1z M56.8,18.4
		c0-1,0.8-1.8,1.8-1.8s1.8,0.8,1.8,1.8c0,1-0.8,1.8-1.8,1.8S56.8,19.4,56.8,18.4z"/>
</g>
</svg>
