<?xml version="1.0" encoding="utf-8"?>
<!-- Generator: Adobe Illustrator 26.5.0, SVG Export Plug-In . SVG Version: 6.00 Build 0)  -->
<svg version="1.1" id="Layer_2_00000115492598328396233240000015288088371217803703_"
	 xmlns="http://www.w3.org/2000/svg" xmlns:xlink="http://www.w3.org/1999/xlink" x="0px" y="0px" width="65px" height="65px"
	 viewBox="0 0 65 65" style="enable-background:new 0 0 65 65;" xml:space="preserve">
<style type="text/css">
	.st0{fill:#EDEDEF;}
	.st1{fill:#1E88E5;}
	.st2{fill:#64B5F6;}
</style>
<path class="st0" d="M50.2,60.9c6.1-3.7,11.3-9,13.3-14.9c2.2-6.5-1.5-11.9-8.1-13.9c-2.9-0.9-6.3-1-9.3-1.7
	c-3.3-0.8-4.7-2.7-5.5-5.5c-1.7-6.1-4-12.2-11.1-14.8c-3.1-1.2-7-1.5-10.7-0.4C14.4,11,10.8,13.8,8,17c-3,3.4-5.9,7.8-6.6,12
	c-1.2,3.7-1.6,7.5-1.3,11.2C0.3,43.7,3.3,56.5,13,61.5C24.5,67.4,43.5,65,50.2,60.9z"/>
<g id="Icon">
	<g id="_48">
		<path class="st1" d="M50.4,0H29.6C21.6,0,15,6.6,15,14.6v20.7C15,43.4,21.6,50,29.6,50h20.7C58.4,50,65,43.4,65,35.4V14.6
			C65,6.6,58.4,0,50.4,0z M60.1,35.4c0,5.4-4.4,9.8-9.8,9.8H29.6c-5.4,0-9.8-4.4-9.8-9.8V14.6c0-5.4,4.4-9.8,9.8-9.8h20.7
			c5.4,0,9.8,4.4,9.8,9.8V35.4z"/>
		<path class="st2" d="M53.7,18.1h-6.9v-6.9h6.9V18.1z M43.4,11.3h-6.9v6.9h6.9V11.3z M33.1,11.3h-6.9v6.9h6.9L33.1,11.3L33.1,11.3z
			 M53.7,21.6h-6.9v6.9h6.9V21.6z M43.4,21.6h-6.9v6.9h6.9V21.6z M33.1,21.6h-6.9v6.9h6.9L33.1,21.6L33.1,21.6z M53.7,31.9h-6.9v6.9
			h6.9V31.9z M43.4,31.9h-6.9v6.9h6.9V31.9z M33.1,31.9h-6.9v6.9h6.9L33.1,31.9L33.1,31.9z"/>
	</g>
</g>
</svg>
