<?xml version="1.0" encoding="utf-8"?>
<!-- Generator: Adobe Illustrator 26.5.0, SVG Export Plug-In . SVG Version: 6.00 Build 0)  -->
<svg version="1.1" id="Layer_1" xmlns="http://www.w3.org/2000/svg" xmlns:xlink="http://www.w3.org/1999/xlink" x="0px" y="0px"
	 width="70px" height="70px" viewBox="0 0 70 70" style="enable-background:new 0 0 70 70;" xml:space="preserve">
<style type="text/css">
	.st0{fill:#FFFFFF;}
</style>
<g>
	<g>
		<path class="st0" d="M28,6.3h5.6c0.6,0,1.1-0.5,1.1-1.1s-0.5-1.1-1.1-1.1H28c-0.6,0-1.1,0.5-1.1,1.1S27.4,6.3,28,6.3z"/>
		<path class="st0" d="M23,65.2h9.9c0.6,0,1.1-0.5,1.1-1.1c0-0.6-0.5-1.1-1.1-1.1H23c-0.6,0-1.1,0.5-1.1,1.1
			C21.9,64.7,22.4,65.2,23,65.2L23,65.2z"/>
		<path class="st0" d="M8.9,54.3c0.6,0,1.1-0.5,1.1-1.1V10.4h35.9V16c0,0.6,0.5,1.1,1.1,1.1s1.1-0.5,1.1-1.1c0-1.3,0,4,0-11.7
			c0-2.4-2-4.4-4.4-4.4h0H12.2h0C9.9,0,7.8,1.9,7.8,4.4v48.8C7.8,53.8,8.3,54.3,8.9,54.3z M43.8,2.2c1.2,0,2.2,0.9,2.2,2.2v3.8H10
			V4.4c0-1.2,1-2.2,2.2-2.2H43.8z"/>
		<path class="st0" d="M34.7,27.6c0.4,0.4,1.1,0.4,1.5,0l4.6-4.6c0.4-0.4,0.4-1.1,0-1.5l-4.6-4.6c-0.4-0.4-1.1-0.4-1.5,0
			c-0.4,0.4-0.4,1.1,0,1.5l3.8,3.8L34.7,26C34.3,26.4,34.3,27.1,34.7,27.6L34.7,27.6z"/>
		<path class="st0" d="M21.2,16.8c-0.4-0.4-1.1-0.4-1.5,0l-4.6,4.6c-0.4,0.4-0.4,1.1,0,1.5l4.6,4.6c0.4,0.4,1.1,0.4,1.5,0
			c0.4-0.4,0.4-1.1,0-1.5l-3.8-3.8l3.8-3.8C21.7,17.9,21.7,17.2,21.2,16.8L21.2,16.8z"/>
		<path class="st0" d="M29.7,13.7l-6.4,16.2c-0.2,0.6,0.1,1.2,0.6,1.4c0.6,0.2,1.2,0,1.4-0.6l6.4-16.2c0.2-0.6-0.1-1.2-0.6-1.4
			C30.6,12.8,30,13.1,29.7,13.7L29.7,13.7z"/>
		<path class="st0" d="M47,33.9c-3.2,0-5.8,2.6-5.8,5.8c0,3.2,2.6,5.8,5.8,5.8c3.2,0,5.8-2.6,5.8-5.8C52.8,36.6,50.2,33.9,47,33.9z
			 M48.1,43.2V39c0-0.6-0.5-1.1-1.1-1.1c-0.6,0-1.1,0.5-1.1,1.1v4.2c-1.5-0.5-2.5-1.8-2.5-3.5c0-2,1.6-3.6,3.6-3.6
			c2,0,3.6,1.6,3.6,3.6C50.6,41.4,49.6,42.7,48.1,43.2z"/>
		<path class="st0" d="M61.2,36.3L58.5,36c-0.2-0.6-0.5-1.3-0.8-1.9l1.6-2.2c0.3-0.4,0.3-1-0.1-1.4L56,27.4c-0.4-0.4-1-0.4-1.5-0.1
			L52.5,29c-0.6-0.3-1.2-0.6-1.9-0.8l-0.4-2.7c-0.1-0.5-0.5-0.9-1.1-0.9h-4.4c-0.6,0-1,0.4-1.1,1l-0.3,2.7c-0.6,0.2-1.3,0.5-1.8,0.8
			l-2.2-1.6c-0.4-0.3-1-0.3-1.4,0.1l-3.1,3.1c-0.4,0.4-0.4,1-0.1,1.5l1.7,2.1c-0.3,0.6-0.6,1.2-0.8,1.9l-2.7,0.4
			c-0.5,0.1-0.9,0.5-0.9,1.1v4.4c0,0.6,0.4,1,1,1.1l2.7,0.3c0.2,0.6,0.5,1.3,0.8,1.9l-1.6,2.2c-0.3,0.4-0.3,1,0.1,1.4l3.1,3.1
			c0.4,0.4,1,0.4,1.5,0.1l2.1-1.7c0.6,0.3,1.2,0.5,1.9,0.7l0.4,2.7c0.1,0.5,0.5,0.9,1.1,0.9h1v2.4h-37c-0.6,0-1.1,0.5-1.1,1.1
			c0,0.2,0,7.5,0,7.2c0,2.4,2,4.4,4.4,4.4h31.6c2.4,0,4.4-2,4.4-4.4c0-0.5,0-11.3,0-10.7h1.3c0.6,0,1-0.4,1.1-1l0.3-2.7
			c0.6-0.2,1.3-0.5,1.8-0.8l2.2,1.6c0.4,0.3,1,0.3,1.4-0.1l3.1-3.1c0.4-0.4,0.4-1,0.1-1.4l-1.7-2.1c0.3-0.6,0.6-1.2,0.8-1.9l2.7-0.5
			c0.5-0.1,0.9-0.5,0.9-1.1v-4.4C62.2,36.8,61.8,36.4,61.2,36.3L61.2,36.3z M45.9,65.6c0,1.2-1,2.2-2.2,2.2H12.2
			c-1.2,0-2.2-1-2.2-2.2c0-0.2,0-6.2,0-6.1h35.9L45.9,65.6L45.9,65.6z M60,40.9l-2.5,0.4c-0.4,0.1-0.8,0.4-0.9,0.8
			c-0.2,0.9-0.6,1.8-1.1,2.6c-0.2,0.4-0.2,0.9,0.1,1.2l1.5,1.9l-1.8,1.8l-2.1-1.5c-0.4-0.3-0.8-0.3-1.2,0c-0.8,0.5-1.7,0.9-2.6,1.1
			c-0.4,0.1-0.8,0.5-0.8,0.9l-0.3,2.5c-0.9,0-1.6,0-2.5,0l-0.4-2.5c-0.1-0.4-0.4-0.8-0.8-0.9c-0.9-0.2-1.8-0.6-2.6-1.1
			c-0.4-0.2-0.9-0.2-1.2,0.1l-1.9,1.5l-1.8-1.8l1.4-2c0.2-0.3,0.3-0.8,0-1.2c-0.5-0.8-0.9-1.7-1.1-2.6c-0.1-0.4-0.5-0.8-0.9-0.8
			l-2.5-0.3v-2.5l2.5-0.4c0.4-0.1,0.8-0.4,0.9-0.8c0.2-0.9,0.6-1.8,1.1-2.6c0.2-0.4,0.2-0.9-0.1-1.2l-1.5-1.9l1.8-1.8l2,1.5
			c0.4,0.3,0.8,0.3,1.2,0c0.8-0.5,1.7-0.9,2.6-1.1c0.4-0.1,0.8-0.5,0.8-0.9l0.3-2.5h2.5l0.4,2.5c0.1,0.4,0.4,0.8,0.8,0.9
			c0.9,0.2,1.8,0.6,2.6,1.1c0.4,0.2,0.9,0.2,1.2-0.1l1.9-1.5l1.8,1.8l-1.4,2c-0.2,0.3-0.3,0.8,0,1.2c0.5,0.8,0.9,1.7,1.1,2.6
			c0.1,0.4,0.5,0.8,0.9,0.8l2.4,0.3L60,40.9L60,40.9z"/>
	</g>
</g>
</svg>
