<?xml version="1.0" encoding="utf-8"?>
<!-- Generator: Adobe Illustrator 26.5.0, SVG Export Plug-In . SVG Version: 6.00 Build 0)  -->
<svg version="1.1" id="Layer_1" xmlns="http://www.w3.org/2000/svg" xmlns:xlink="http://www.w3.org/1999/xlink" x="0px" y="0px"
	 width="65px" height="65px" viewBox="0 0 65 65" style="enable-background:new 0 0 65 65;" xml:space="preserve">
<style type="text/css">
	.st0{fill:#EDEDEF;}
	.st1{fill:#7BAFF2;}
	.st2{fill:#DDEDFC;}
	.st3{fill:#FF9D28;}
	.st4{fill:#FA9112;}
	.st5{fill:#F9C5B8;}
	.st6{fill:#FAB1A6;}
	.st7{fill:#8F6E4E;}
	.st8{fill:#EF5350;}
	.st9{fill:#FFFFFF;}
</style>
<path class="st0" d="M50.2,60.9c6.1-3.7,11.3-9,13.3-14.9c2.2-6.5-1.5-11.9-8.1-13.9c-2.9-0.9-6.3-1-9.3-1.7
	c-3.3-0.8-4.7-2.7-5.5-5.5c-1.7-6.1-4-12.2-11.1-14.8c-3.1-1.2-7-1.5-10.7-0.4C14.4,11,10.8,13.8,8,17c-3,3.4-5.9,7.8-6.6,12
	c-1.2,3.7-1.6,7.5-1.3,11.2C0.3,43.7,3.3,56.5,13,61.5C24.5,67.4,43.5,65,50.2,60.9z"/>
<g>
	<g>
		<path class="st1" d="M37,0c6.1,0,11.6,2.5,15.6,6.4c4,4,6.4,9.5,6.4,15.6s-2.5,11.6-6.4,15.6c-4,4-9.5,6.4-15.6,6.4
			s-11.6-2.5-15.6-6.4c-4-4-6.4-9.5-6.4-15.6s2.5-11.6,6.4-15.6C25.4,2.5,30.9,0,37,0L37,0z"/>
		<path class="st2" d="M37,4.2c4.9,0,9.4,2,12.6,5.2c3.2,3.2,5.2,7.7,5.2,12.6s-2,9.4-5.2,12.6c-3.2,3.2-7.7,5.2-12.6,5.2
			s-9.4-2-12.6-5.2c-3.2-3.2-5.2-7.7-5.2-12.6s2-9.4,5.2-12.6C27.6,6.2,32.1,4.2,37,4.2z"/>
		<path class="st3" d="M48,36c-3,2.4-6.8,3.8-11,3.8c-4.2,0-8-1.4-11-3.8v-0.6c0-2.1,0.8-4,2.1-5.3s3.1-2.2,5.1-2.2h1h5.5h1
			c2,0,3.8,0.8,5.1,2.2c1.3,1.4,2.1,3.2,2.1,5.3L48,36L48,36z"/>
		<path class="st4" d="M32.8,39.3c-0.7-0.2-1.4-0.4-2-0.6v-2.8c0-0.6,0.4-1,1-1s1,0.5,1,1L32.8,39.3L32.8,39.3z"/>
		<path class="st4" d="M43.3,38.7c-0.7,0.2-1.3,0.5-2,0.6v-3.4c0-0.6,0.4-1,1-1s1,0.5,1,1L43.3,38.7z"/>
		<path class="st5" d="M34.2,25.8c-0.6,0-1,0.5-1,1v3c0,1.1,0.4,2,1.1,2.8c0.7,0.7,1.6,1.1,2.7,1.1c1,0,2-0.4,2.7-1.1
			c0.7-0.7,1.1-1.7,1.1-2.8v-3c0-0.6-0.4-1-1-1C38.2,25.8,36.2,25.8,34.2,25.8z"/>
		<path class="st6" d="M34.2,25.8c-0.6,0-1,0.5-1,1v1.8c1.2,0.6,2.4,0.9,3.8,0.9c1.3,0,2.6-0.3,3.8-0.9v-1.8c0-0.6-0.4-1-1-1
			C38.2,25.8,36.2,25.8,34.2,25.8z"/>
		<path class="st5" d="M37,8.4c2,0,3.9,0.9,5.2,2.2s2.2,3.3,2.2,5.4v5c0,2.1-0.8,4-2.2,5.4c-1.3,1.4-3.2,2.2-5.2,2.2
			c-2,0-3.9-0.9-5.2-2.2c-1.3-1.4-2.2-3.3-2.2-5.4v-5c0-2.1,0.8-4,2.2-5.4C33.1,9.2,35,8.4,37,8.4L37,8.4z"/>
		<path class="st7" d="M37,8.4c2,0,3.9,0.9,5.2,2.2c0,0,0,0,0.1,0.1c0,0,0,0,0.1,0.1l0,0c0,0,0,0,0.1,0.1l0,0l0.1,0.1l0,0l0.1,0.1
			l0,0l0.1,0.1l0,0l0.1,0.1l0,0l0.1,0.1l0,0l0.1,0.1l0,0l0,0c0,0,0.1,0.1,0.1,0.1l0,0.1l0,0l0,0.1l0,0c0,0,0.1,0.1,0.1,0.1l0,0l0,0
			l0,0l0,0.1l0,0l0,0.1l0,0l0,0l0,0l0,0l0,0.1l0,0l0,0l0,0l0,0l0,0l0,0.1l0,0l0,0.1l0,0l0,0.1l0,0l0,0l0,0l0,0l0,0.1l0,0l0,0l0,0
			l0,0l0,0l0,0l0,0l0,0l0,0l0,0l0,0l0,0.1l0,0l0,0.1l0,0l0,0l0,0l0,0l0,0l0,0l0,0l0,0l0,0l0,0l0,0l0,0.1l0,0l0,0l0,0.1l0,0l0,0l0,0
			l0,0l0,0l0,0l0,0.1l0,0l0,0.1l0,0l0,0l0,0l0,0l0,0l0,0l0,0l0,0l0,0l0,0.1l0,0l0,0.1l0,0l0,0l0,0.1l0,0l0,0l0,0l0,0l0,0l0,0.1l0,0
			l0,0.1l0,0l0,0.1l0,0l0,0.1l0,0.1l0,0l0,0.1l0,0l0,0l0,0l0,0.1l0,0l0,0.1v0v0c0,0,0,0,0,0c0,0,0,0,0,0v0v1.9c0,0,0,0,0,0
			c-1,0.3-2.2,0.4-3.5,0.4c-1.3-0.1-2.8-0.4-4.3-1.1c-1.2-0.6-2.3-0.8-3.4-0.9c-1.1-0.1-2,0.1-2.8,0.3c-0.2,0.1-0.4,0-0.7,0V16
			c0-0.5,0.1-1,0.1-1.5l0,0l0,0l0-0.1l0,0l0-0.1l0,0l0-0.1l0,0l0,0l0-0.1l0,0l0-0.1l0,0l0-0.1l0,0l0,0l0-0.1l0,0l0,0l0-0.1l0,0l0,0
			l0,0l0,0l0-0.1l0,0l0-0.1l0,0l0-0.1l0,0l0-0.1l0-0.1l0,0l0-0.1l0,0l0-0.1l0,0l0-0.1l0,0l0-0.1l0,0l0-0.1l0,0c0,0,0-0.1,0-0.1l0,0
			l0-0.1l0,0l0-0.1l0,0l0,0l0-0.1l0,0l0,0l0-0.1l0,0l0-0.1l0,0l0-0.1l0,0l0-0.1l0,0l0-0.1l0,0l0-0.1l0,0v0c0,0,0,0,0-0.1l0,0l0-0.1
			l0,0c0,0,0.1-0.1,0.1-0.1l0,0l0-0.1l0,0c0,0,0,0,0-0.1l0,0l0,0c0,0,0,0,0-0.1l0,0l0-0.1l0,0l0-0.1l0,0c0,0,0,0,0.1-0.1l0,0l0-0.1
			l0,0l0-0.1l0,0l0.1-0.1l0.1-0.1l0,0l0,0l0,0l0,0l0-0.1l0,0l0,0l0-0.1l0,0l0,0l0,0l0.1-0.1C33.1,9.2,35,8.4,37,8.4L37,8.4z"/>
	</g>
	<path class="st8" d="M55.9,20.9c-2.5,0-4.8-1-6.4-2.7c-1.6-1.6-2.7-3.9-2.7-6.4s1-4.8,2.7-6.4c1.6-1.6,3.9-2.7,6.4-2.7
		c2.5,0,4.8,1,6.4,2.7C64,7.1,65,9.3,65,11.8s-1,4.8-2.7,6.4C60.7,19.9,58.4,20.9,55.9,20.9z"/>
	<g>
		<path class="st9" d="M56.5,8.4c0-0.3-0.2-0.5-0.5-0.5c-0.3,0-0.5,0.2-0.5,0.5v6.8c0,0.3,0.2,0.5,0.5,0.5c0.3,0,0.5-0.2,0.5-0.5
			V8.4z"/>
		<path class="st9" d="M59.3,12.4c0.3,0,0.5-0.2,0.5-0.5c0-0.3-0.2-0.5-0.5-0.5h-6.8c-0.3,0-0.5,0.2-0.5,0.5c0,0.3,0.2,0.5,0.5,0.5
			H59.3z"/>
	</g>
</g>
</svg>
