<?xml version="1.0" encoding="utf-8"?>
<!-- Generator: Adobe Illustrator 26.5.0, SVG Export Plug-In . SVG Version: 6.00 Build 0)  -->
<svg version="1.1" id="Layer_1" xmlns="http://www.w3.org/2000/svg" xmlns:xlink="http://www.w3.org/1999/xlink" x="0px" y="0px"
	 width="65px" height="65px" viewBox="0 0 65 65" style="enable-background:new 0 0 65 65;" xml:space="preserve">
<style type="text/css">
	.st0{fill:#EDEDEF;}
	.st1{fill:#474B59;}
	.st2{fill:#5B5E71;}
	.st3{fill:#FFFFFF;}
	.st4{fill:#FED57A;}
	.st5{fill:#EFAC41;}
	.st6{fill:#F9BB4A;}
	.st7{fill:#4C7891;}
	.st8{fill:#E4E8F4;}
	.st9{opacity:0.53;}
	.st10{fill:#748BFD;}
	.st11{enable-background:new    ;}
	.st12{fill:#F34858;}
	.st13{fill:#F58B13;}
	.st14{fill:#37617B;}
	.st15{fill:#F9607F;}
	.st16{fill:#CAD0DD;}
	.st17{fill:#D4DAE8;}
	.st18{fill:#6EBA6E;}
	.st19{fill:#75CA75;}
	.st20{fill:#9AD898;}
</style>
<path class="st0" d="M50.2,60.3c6.1-3.7,11.3-9,13.3-14.9c2.2-6.5-1.5-11.9-8.1-13.9c-2.9-0.9-6.3-1-9.3-1.7
	c-3.3-0.8-4.7-2.7-5.5-5.5c-1.7-6.1-4-12.2-11.1-14.8c-3.1-1.2-7-1.5-10.7-0.4c-4.4,1.3-8,4.1-10.8,7.3c-3,3.4-5.9,7.8-6.6,12
	c-1.2,3.7-1.6,7.5-1.3,11.2C0.3,43.1,3.3,55.9,13,60.9C24.5,66.8,43.5,64.4,50.2,60.3z"/>
<g>
	<g>
		<g>
			<g>
				<path class="st1" d="M65,20.6l0,1.6c0,0.2-0.1,0.4-0.4,0.6L38.3,38c-0.6,0.3-1.5,0.3-2.1,0l-15.9-9.2c-0.3-0.2-0.4-0.4-0.4-0.6
					l0-1.6c0,0.2,0.1,0.4,0.4,0.6l15.9,9.2c0.6,0.3,1.5,0.3,2,0l26.2-15.2C64.9,21,65,20.8,65,20.6z"/>
				<path class="st2" d="M64.6,20c0.6,0.3,0.6,0.9,0,1.2L38.3,36.4c-0.6,0.3-1.5,0.3-2.1,0l-15.9-9.2c-0.6-0.3-0.6-0.9,0-1.2
					l26.2-15.2c0.6-0.3,1.5-0.3,2.1,0L64.6,20z"/>
				<g>
					<g>
						<path class="st1" d="M30.7,30.4c0.5,0.3,0.5,0.7,0,1c-0.5,0.3-1.2,0.3-1.7,0c-0.5-0.3-0.5-0.7,0-1
							C29.5,30.1,30.3,30.1,30.7,30.4z"/>
					</g>
					<g>
						<path class="st1" d="M36.9,34.6c0.2,0.1,0.2,0.3,0,0.4c-0.2,0.1-0.5,0.1-0.7,0l-3.7-2.2c-0.2-0.1-0.2-0.3,0-0.4s0.5-0.1,0.7,0
							L36.9,34.6z"/>
					</g>
					<g>
						<path class="st1" d="M27.3,29c0.2,0.1,0.2,0.3,0,0.4s-0.5,0.1-0.7,0l-3.7-2.2c-0.2-0.1-0.2-0.3,0-0.4c0.2-0.1,0.5-0.1,0.7,0
							L27.3,29z"/>
					</g>
					<g>
						<path class="st1" d="M58.6,17.5c0.1,0.1,0.1,0.2,0,0.3c-0.1,0.1-0.3,0.1-0.5,0l-5.6-3.2c-0.1-0.1-0.1-0.2,0-0.3
							c0.1-0.1,0.3-0.1,0.5,0L58.6,17.5z"/>
					</g>
					<g>
						<path class="st3" d="M62.2,20.9L39,34.4l-15.2-8.8L47,12.2L62.2,20.9z"/>
					</g>
				</g>
			</g>
			<g>
				<g>
					<path class="st4" d="M53.8,11l-11.9,6.9l-12-6.9l11.9-6.9L53.8,11z"/>
					<path class="st5" d="M53.8,11l0,13.2l-11.9,6.9l0-13.2L53.8,11z"/>
					<path class="st6" d="M41.9,17.9l0,13.2l-12-6.9l0-13.2L41.9,17.9z"/>
					<path class="st7" d="M33.3,20.5l0-1.4l5.1,3l0,1.4L33.3,20.5z"/>
					<path class="st8" d="M48.8,8.2l-11.9,6.9v4l-1-1.5l-1,0.4v-4L46.8,7L48.8,8.2z"/>
				</g>
				<g>
					<path class="st3" d="M52.7,19.6l-8.6,5l0-6l8.6-5L52.7,19.6z"/>
					<g>
						<path class="st2" d="M44.7,18.6l0,5.1l-0.2,0.1l0-5.1L44.7,18.6z"/>
						<path class="st2" d="M45.9,17.9l0,5.1l-0.2,0.1l0-5.1L45.9,17.9z"/>
						<path class="st2" d="M45.5,18.2l0,5.1l-0.1,0.1l0-5.1L45.5,18.2z"/>
						<path class="st2" d="M46.1,17.8l0,5.1L46,23l0-5.1L46.1,17.8z"/>
						<path class="st2" d="M46.3,17.7l0,5.1l0,0L46.3,17.7L46.3,17.7z"/>
						<path class="st2" d="M46.5,17.6l0,5.1l-0.1,0.1l0-5.1L46.5,17.6z"/>
						<path class="st2" d="M46.8,17.4l0,5.1l-0.2,0.1l0-5.1L46.8,17.4z"/>
						<path class="st2" d="M47,17.2l0,5.1l-0.1,0.1l0-5.1L47,17.2z"/>
						<path class="st2" d="M45.2,18.3l0,5.1l-0.3,0.2l0-5.1L45.2,18.3z"/>
						<path class="st2" d="M47.4,17.1l0,5.1l-0.2,0.1l0-5.1L47.4,17.1z"/>
						<path class="st2" d="M48.1,16.6l0,5.1L48,21.8l0-5.1L48.1,16.6z"/>
						<path class="st2" d="M48.8,16.3l0,5.1l-0.1,0.1l0-5.1L48.8,16.3z"/>
						<path class="st2" d="M48.9,16.2l0,5.1l0,0L48.9,16.2L48.9,16.2z"/>
						<path class="st2" d="M49.4,15.9l0,5.1l-0.2,0.1l0-5.1L49.4,15.9z"/>
						<path class="st2" d="M49.7,15.7l0,5.1l-0.1,0.1l0-5.1L49.7,15.7z"/>
						<path class="st2" d="M47.8,16.8l0,5.1l-0.3,0.2l0-5.1L47.8,16.8z"/>
						<path class="st2" d="M50,15.5l0,5.1l-0.2,0.1l0-5.1L50,15.5z"/>
						<path class="st2" d="M50.8,15.1l0,5.1l-0.1,0.1l0-5.1L50.8,15.1z"/>
						<path class="st2" d="M51.8,14.5l0,5.1l-0.1,0.1l0-5.1L51.8,14.5z"/>
						<path class="st2" d="M52.1,14.3l0,5.1l-0.2,0.1l0-5.1L52.1,14.3z"/>
						<path class="st2" d="M50.5,15.3l0,5.1l-0.3,0.2l0-5.1L50.5,15.3z"/>
						<path class="st2" d="M48.5,16.4l0,5.1l-0.2,0.1l0-5.1L48.5,16.4z"/>
						<path class="st2" d="M49.1,16l0,5.1L49,21.2l0-5.1L49.1,16z"/>
						<path class="st2" d="M51.2,14.9l0,5.1L51,20.1l0-5.1L51.2,14.9z"/>
						<path class="st2" d="M51.4,14.7l0,5.1l-0.1,0.1l0-5.1L51.4,14.7z"/>
						<path class="st2" d="M51.6,14.6l0,5.1l0,0L51.6,14.6L51.6,14.6z"/>
						<path class="st2" d="M52.4,14.2l0,5.1l-0.1,0.1l0-5.1L52.4,14.2z"/>
					</g>
				</g>
			</g>
			<g>
				<g class="st9">
					<path class="st10" d="M47.6,17.4c0,2.3-1.6,5-3.6,6.2c-0.9,0.5-1.7,0.6-2.3,0.4c-0.2-0.1-0.3-0.2-0.5-0.3
						c-0.5-0.4-0.8-1.1-0.9-2.2c0-2.3,1.6-5,3.6-6.2C46,14.2,47.6,15.1,47.6,17.4z"/>
				</g>
				<g class="st11">
					<path class="st12" d="M46.6,18c0,1.6-1.1,3.5-2.5,4.4c-0.7,0.4-1.3,0.4-1.8,0.2l-0.8-0.4c0.5,0.3,1.1,0.2,1.8-0.2
						c1.4-0.8,2.5-2.7,2.5-4.3c0-0.8-0.3-1.3-0.7-1.6l0.8,0.4C46.3,16.7,46.6,17.2,46.6,18z"/>
					<g>
						<path class="st13" d="M40.5,24.4c0-0.1-0.1-0.2-0.2-0.2l0.8,0.4c0.1,0,0.1,0.1,0.2,0.2C41.1,24.7,40.7,24.6,40.5,24.4z"/>
					</g>
					<g>
						<path class="st13" d="M40.3,24.2C40.3,24.2,40.3,24.2,40.3,24.2l0.8,0.4c0,0,0,0,0,0C40.9,24.5,40.6,24.3,40.3,24.2z"/>
					</g>
					<g>
						<path class="st13" d="M40.8,23.4c-0.1,0-0.1-0.1-0.2-0.2l0.8,0.4c0.1,0.1,0.1,0.1,0.2,0.2C41.3,23.7,41,23.5,40.8,23.4z"/>
					</g>
					<g>
						<path class="st13" d="M41.5,23.8l-0.8-0.4c0.1,0,0.2,0.1,0.3,0.1l0.8,0.4C41.7,23.9,41.6,23.9,41.5,23.8z"/>
					</g>
					<g>
						<path class="st13" d="M40.3,24.2l0.8,0.4c-0.1,0-0.2-0.1-0.2-0.1l-0.8-0.4C40.2,24.1,40.3,24.1,40.3,24.2z"/>
					</g>
					<g>
						<path class="st7" d="M40.8,24.6l-0.8-0.4l0.5-0.9l0.8,0.4L40.8,24.6z"/>
					</g>
					<g>
						<path class="st14" d="M41.3,23.7c0.2,0.1,0.3,0.2,0.5,0.3l-0.5,0.9c0-0.1-0.1-0.2-0.2-0.2c-0.1,0-0.2-0.1-0.2-0.1l0,0
							L41.3,23.7z"/>
					</g>
					<g>
						<path class="st7" d="M40.9,24.6c-0.1,0-0.2,0-0.4,0.1c-0.2,0.1-0.4,0.4-0.6,0.6l-2.4,4c-0.3,0.6-0.3,1.2,0,1.4l-0.8-0.4
							c-0.3-0.2-0.3-0.8,0-1.4l2.4-4c0.2-0.3,0.4-0.5,0.6-0.6c0.1-0.1,0.2-0.1,0.4-0.1L40.9,24.6z"/>
					</g>
					<g>
						<path class="st14" d="M40.5,24.7c0.1-0.1,0.3-0.1,0.4-0.1c0.1,0,0.2,0,0.2,0.1c0.1,0,0.1,0.1,0.2,0.2c0.1,0.3,0.1,0.8-0.2,1.2
							l-2.4,4c-0.2,0.3-0.4,0.5-0.6,0.6c-0.2,0.1-0.4,0.2-0.6,0.1c-0.3-0.2-0.3-0.8,0-1.4l2.4-4C40,25,40.3,24.8,40.5,24.7z"/>
					</g>
					<g>
						<path class="st15" d="M44.1,15.4c2-1.1,3.6-0.2,3.6,2c0,2.3-1.6,5-3.6,6.2c-0.9,0.5-1.7,0.6-2.3,0.4c-0.2-0.1-0.3-0.1-0.5-0.3
							c-0.5-0.4-0.8-1.2-0.8-2.2C40.5,19.3,42.1,16.5,44.1,15.4z M44.1,22.4c1.4-0.8,2.5-2.7,2.5-4.3c0-1.6-1.1-2.2-2.5-1.4
							c-1.4,0.8-2.5,2.7-2.5,4.3C41.6,22.5,42.7,23.2,44.1,22.4"/>
					</g>
					<path class="st12" d="M40.6,21.5c0,1,0.2,1.8,0.8,2.2l-0.8-0.4c-0.5-0.4-0.8-1.2-0.8-2.2c0-2.3,1.6-5,3.6-6.2
						c1-0.6,1.9-0.6,2.5-0.2l0.8,0.5c-0.6-0.4-1.5-0.2-2.5,0.3C42.2,16.6,40.6,19.2,40.6,21.5z"/>
				</g>
			</g>
		</g>
		<g>
			<path class="st4" d="M16.6,13.9l5.8,3.4l5.9-3.4l-5.8-3.4L16.6,13.9z"/>
			<path class="st5" d="M16.6,13.9l0,6.5l5.8,3.4l0-6.5L16.6,13.9z"/>
			<path class="st6" d="M22.4,17.3l0,6.5l5.9-3.4l0-6.5L22.4,17.3z"/>
			<path class="st7" d="M26.7,18.6l0-0.7l-2.5,1.5l0,0.7L26.7,18.6z"/>
			<path class="st12" d="M25.9,15.3v2l-0.5-0.2l-0.5,0.7v-1.9h0L25.9,15.3z"/>
			<path class="st15" d="M20,11.9l5.8,3.4l-1,0.6L19,12.5L20,11.9z"/>
		</g>
		<g>
			<g>
				<path class="st4" d="M54.9,29.6l4.8,2.8l4.8-2.8l-4.8-2.8L54.9,29.6z"/>
				<path class="st16" d="M54.9,29.6l0,5.3l4.8,2.8l0-5.3L54.9,29.6z"/>
				<path class="st17" d="M59.7,32.4l0,5.3l4.8-2.8l0-5.3L59.7,32.4z"/>
			</g>
			<g>
				<path class="st8" d="M54.4,29.9l5.3,3.1l5.3-3.1l-5.3-3.1L54.4,29.9z"/>
				<path class="st17" d="M54.4,29.9l0,1.3l5.3,3.1V33L54.4,29.9z"/>
				<path class="st16" d="M59.7,33v1.3l5.3-3.1l0-1.3L59.7,33z"/>
			</g>
		</g>
		<g>
			<g>
				<path class="st4" d="M47.8,33.8l4.8,2.8l4.8-2.8L52.6,31L47.8,33.8z"/>
				<path class="st18" d="M47.8,33.8l0,5.3l4.8,2.8l0-5.3L47.8,33.8z"/>
				<path class="st19" d="M52.6,36.6l0,5.3l4.8-2.8l0-5.3L52.6,36.6z"/>
			</g>
			<g>
				<path class="st20" d="M47.3,34.1l5.3,3.1l5.3-3.1L52.6,31L47.3,34.1z"/>
				<path class="st19" d="M47.3,34.1l0,1.3l5.3,3.1v-1.3L47.3,34.1z"/>
				<path class="st18" d="M52.6,37.1v1.3l5.3-3.1l0-1.3L52.6,37.1z"/>
			</g>
		</g>
		<g>
			<path class="st4" d="M17.3,8l5.1,3l5.2-3l-5.1-3L17.3,8z"/>
			<path class="st5" d="M17.3,8l0,5.7l5.1,3l0-5.7L17.3,8z"/>
			<path class="st6" d="M22.4,11l0,5.7l5.2-3l0-5.7L22.4,11z"/>
			<path class="st7" d="M26.1,12.1l0-0.6l-2.2,1.3l0,0.6L26.1,12.1z"/>
			<path class="st12" d="M25.5,9.2V11L25,10.8l-0.4,0.7V9.7h0L25.5,9.2z"/>
			<path class="st15" d="M20.3,6.2l5.1,3l-0.9,0.5l-5.1-3L20.3,6.2z"/>
		</g>
		<g>
			<path class="st4" d="M17.9,2.6l4.5,2.6L27,2.6L22.5,0L17.9,2.6z"/>
			<path class="st5" d="M17.9,2.6l0,5l4.5,2.6l0-5L17.9,2.6z"/>
			<path class="st6" d="M22.4,5.2l0,5L27,7.6l0-5L22.4,5.2z"/>
			<path class="st7" d="M25.7,6.2l0-0.5l-2,1.1l0,0.5L25.7,6.2z"/>
			<path class="st12" d="M25.1,3.7v1.5l-0.4-0.2l-0.4,0.6V4.2h0L25.1,3.7z"/>
			<path class="st15" d="M20.6,1.1l4.5,2.6l-0.8,0.4l-4.5-2.6L20.6,1.1z"/>
		</g>
	</g>
	<g>
		<path class="st4" d="M15,34.3l4.5,2.6l4.5-2.6l-4.5-2.6L15,34.3z"/>
		<path class="st5" d="M15,34.3l0,5l4.5,2.6l0-5L15,34.3z"/>
		<path class="st6" d="M19.5,36.9l0,5l4.5-2.6l0-5L19.5,36.9z"/>
		<path class="st7" d="M22.8,37.9l0-0.5l-2,1.1l0,0.5L22.8,37.9z"/>
		<path class="st12" d="M22.2,35.4v1.5l-0.4-0.2l-0.4,0.6v-1.5h0L22.2,35.4z"/>
		<path class="st15" d="M17.7,32.8l4.5,2.6l-0.8,0.4l-4.5-2.6L17.7,32.8z"/>
	</g>
</g>
</svg>
