<?xml version="1.0" encoding="utf-8"?>
<!-- Generator: Adobe Illustrator 26.5.0, SVG Export Plug-In . SVG Version: 6.00 Build 0)  -->
<svg version="1.1" id="flat" xmlns="http://www.w3.org/2000/svg" xmlns:xlink="http://www.w3.org/1999/xlink" x="0px" y="0px"
	 width="65px" height="65px" viewBox="0 0 65 65" style="enable-background:new 0 0 65 65;" xml:space="preserve">
<style type="text/css">
	.st0{fill:#EDEDEF;}
	.st1{fill:#C4CEDC;}
	.st2{fill:#ADB6C1;}
	.st3{fill:#E65C65;}
	.st4{fill:#C54F57;}
	.st5{fill:#3D6399;}
	.st6{fill:#5C95E6;}
	.st7{fill:#B4484F;}
	.st8{fill:#F2D861;}
	.st9{fill:#213552;}
</style>
<path class="st0" d="M50.2,60.9c6.1-3.7,11.3-9,13.3-14.9c2.2-6.5-1.5-11.9-8.1-13.9c-2.9-0.9-6.3-1-9.3-1.7
	c-3.3-0.8-4.7-2.7-5.5-5.5c-1.7-6.1-4-12.2-11.1-14.8c-3.1-1.2-7-1.5-10.7-0.4C14.4,11,10.8,13.8,8,17c-3,3.4-5.9,7.8-6.6,12
	c-1.2,3.7-1.6,7.5-1.3,11.2C0.3,43.7,3.3,56.5,13,61.5C24.5,67.4,43.5,65,50.2,60.9z"/>
<g>
	<path class="st1" d="M63.4,43.1H16.6c-0.9,0-1.6-0.7-1.6-1.6V6.8c0-0.9,0.7-1.6,1.6-1.6h46.8c0.9,0,1.6,0.7,1.6,1.6v34.7
		C65,42.4,64.3,43.1,63.4,43.1z"/>
	<g>
		<path class="st2" d="M23.5,5.2h-6.9c-0.9,0-1.6,0.7-1.6,1.6v34.7c0,0.9,0.7,1.6,1.6,1.6h18.2C23.7,34.4,23.3,12.7,23.5,5.2z"/>
	</g>
	<path class="st3" d="M65,12.1H15V6.8c0-0.9,0.7-1.6,1.6-1.6h46.8c0.9,0,1.6,0.7,1.6,1.6V12.1z"/>
	<g>
		<path class="st4" d="M23.5,5.2h-6.9c-0.9,0-1.6,0.7-1.6,1.6v5.3h8.6C23.4,9.3,23.5,6.9,23.5,5.2z"/>
	</g>
	<g>
		<path class="st5" d="M40.6,8.6h-1.3c-0.6,0-1.1-0.5-1.1-1.1V1.1c0-0.6,0.5-1.1,1.1-1.1h1.3c0.6,0,1.1,0.5,1.1,1.1v6.5
			C41.7,8.1,41.2,8.6,40.6,8.6z"/>
		<path class="st5" d="M47.5,8.6h-1.3c-0.6,0-1.1-0.5-1.1-1.1V1.1c0-0.6,0.5-1.1,1.1-1.1h1.3c0.6,0,1.1,0.5,1.1,1.1v6.5
			C48.6,8.1,48.1,8.6,47.5,8.6z"/>
		<path class="st5" d="M54.4,8.6h-1.3c-0.6,0-1.1-0.5-1.1-1.1V1.1c0-0.6,0.5-1.1,1.1-1.1h1.3c0.6,0,1.1,0.5,1.1,1.1v6.5
			C55.5,8.1,55,8.6,54.4,8.6z"/>
		<path class="st5" d="M61.3,8.6H60c-0.6,0-1.1-0.5-1.1-1.1V1.1C59,0.5,59.4,0,60,0h1.3c0.6,0,1.1,0.5,1.1,1.1v6.5
			C62.4,8.1,61.9,8.6,61.3,8.6z"/>
		<path class="st5" d="M32.5,8.6h1.3c0.6,0,1.1-0.5,1.1-1.1V1.1c0-0.6-0.5-1.1-1.1-1.1h-1.3c-0.6,0-1.1,0.5-1.1,1.1v6.5
			C31.4,8.1,31.9,8.6,32.5,8.6z"/>
		<path class="st5" d="M25.6,8.6h1.3c0.6,0,1.1-0.5,1.1-1.1V1.1c0-0.6-0.5-1.1-1.1-1.1h-1.3c-0.6,0-1.1,0.5-1.1,1.1v6.5
			C24.5,8.1,25,8.6,25.6,8.6z"/>
		<path class="st5" d="M18.7,8.6H20c0.6,0,1.1-0.5,1.1-1.1V1.1C21,0.5,20.6,0,20,0h-1.3c-0.6,0-1.1,0.5-1.1,1.1v6.5
			C17.6,8.1,18.1,8.6,18.7,8.6z"/>
		<path class="st5" d="M18.4,15.5h3.4V19h-3.4V15.5z"/>
		<path class="st5" d="M18.4,22.4h3.4v3.4h-3.4V22.4z"/>
		<path class="st5" d="M18.4,29.3h3.4v3.4h-3.4V29.3z"/>
		<path class="st5" d="M18.4,36.2h3.4v3.4h-3.4V36.2z"/>
		<path class="st5" d="M61.6,19h-3.4v-3.4h3.4V19z"/>
		<path class="st5" d="M61.6,25.9h-3.4v-3.4h3.4V25.9z"/>
		<path class="st5" d="M61.6,32.8h-3.4v-3.4h3.4V32.8z"/>
		<path class="st5" d="M61.6,39.7h-3.4v-3.4h3.4V39.7z"/>
		<path class="st5" d="M25.3,18.1h19v14.7h-19V18.1z"/>
	</g>
	<path class="st6" d="M25.3,31.9H46v2.6H25.3V31.9z"/>
	<path class="st7" d="M53.6,34.5h-8.3c-0.6,0-1-0.5-1-1v-10c0-0.6,0.5-1,1-1h4.6c0.3,0,0.5,0.1,0.7,0.3l3.7,3.7
		c0.2,0.2,0.3,0.5,0.3,0.7v6.3C54.7,34,54.2,34.5,53.6,34.5L53.6,34.5z"/>
	<path class="st8" d="M54.7,27.2v0.4h-7.8v-5.2h3c0.3,0,0.5,0.1,0.7,0.3l3.7,3.7C54.5,26.6,54.7,26.9,54.7,27.2z"/>
	<circle class="st9" cx="48.6" cy="35.3" r="2.6"/>
	<circle class="st9" cx="32.2" cy="35.3" r="2.6"/>
	<circle class="st8" cx="34.8" cy="25" r="4.3"/>
	<g>
		<path class="st3" d="M34,27.6c-0.2,0-0.4-0.1-0.6-0.3l-0.9-0.9c-0.3-0.3-0.3-0.9,0-1.2c0.3-0.3,0.9-0.3,1.2,0l0.3,0.3l2-2
			c0.3-0.3,0.9-0.3,1.2,0c0.3,0.3,0.3,0.9,0,1.2l-2.6,2.6C34.4,27.5,34.2,27.6,34,27.6z"/>
	</g>
	<g>
		<path class="st8" d="M32.2,36.2c-0.5,0-0.9-0.4-0.9-0.9c0-0.5,0.4-0.9,0.9-0.9h0c0.5,0,0.9,0.4,0.9,0.9
			C33.1,35.8,32.7,36.2,32.2,36.2L32.2,36.2z"/>
	</g>
	<g>
		<path class="st8" d="M48.6,36.2c-0.5,0-0.9-0.4-0.9-0.9c0-0.5,0.4-0.9,0.9-0.9h0c0.5,0,0.9,0.4,0.9,0.9
			C49.5,35.8,49.1,36.2,48.6,36.2z"/>
	</g>
</g>
</svg>
