<?xml version="1.0" encoding="utf-8"?>
<!-- Generator: Adobe Illustrator 26.5.0, SVG Export Plug-In . SVG Version: 6.00 Build 0)  -->
<svg version="1.1" id="Layer_1" xmlns="http://www.w3.org/2000/svg" xmlns:xlink="http://www.w3.org/1999/xlink" x="0px" y="0px"
	 width="65px" height="65px" viewBox="0 0 65 65" style="enable-background:new 0 0 65 65;" xml:space="preserve">
<style type="text/css">
	.st0{fill:#EDEDEF;}
	.st1{fill:#2093D3;}
	.st2{fill:#66B3FF;}
	.st3{fill:#FFD164;}
	.st4{fill:#FFF2B4;}
	.st5{fill:#FFFFFF;}
</style>
<path class="st0" d="M50.2,60.9c6.1-3.7,11.3-9,13.3-14.9c2.2-6.5-1.5-11.9-8.1-13.9c-2.9-0.9-6.3-1-9.3-1.7
	c-3.3-0.8-4.7-2.7-5.5-5.5c-1.7-6.1-4-12.2-11.1-14.8c-3.1-1.2-7-1.5-10.7-0.4C14.4,11,10.8,13.8,8,17c-3,3.4-5.9,7.8-6.6,12
	c-1.2,3.7-1.6,7.5-1.3,11.2C0.3,43.7,3.3,56.5,13,61.5C24.5,67.4,43.5,65,50.2,60.9z"/>
<g>
	<path class="st1" d="M59,0c-3.3,0-5.9,2.7-6,6v21.4c0,0.7,0.5,1.2,1.2,1.2h9.5c0.7,0,1.2-0.5,1.2-1.2V6C65,2.7,62.3,0,59,0z"/>
	<path class="st2" d="M59.4,0.1c-2.3,0.4-4,2.4-4,4.7v41.7c0,2-1.6,3.6-3.6,3.6H21c-2,0-3.6-1.6-3.6-3.6V8.3c0-4.6,3.7-8.3,8.3-8.3
		H59C59.2,0,59.3,0,59.4,0.1z"/>
	<path class="st3" d="M29.3,6h14.3c2,0,3.6,1.6,3.6,3.6v11.9c0,2-1.6,3.6-3.6,3.6H29.3c-2,0-3.6-1.6-3.6-3.6V9.5
		C25.7,7.6,27.3,6,29.3,6z"/>
	<path class="st4" d="M41.2,6v8.3c0,0.4-0.2,0.7-0.5,1c-0.2,0.2-0.4,0.2-0.7,0.2c-0.1,0-0.3,0-0.4-0.1l-3.2-1.1l-3.2,1.1
		c-0.4,0.1-0.8,0.1-1.1-0.2c-0.3-0.2-0.5-0.6-0.5-1V6L41.2,6z"/>
	<g>
		<path class="st5" d="M29.3,31h-4.8c-0.7,0-1.2-0.5-1.2-1.2c0-0.7,0.5-1.2,1.2-1.2h4.8c0.7,0,1.2,0.5,1.2,1.2
			C30.5,30.4,29.9,31,29.3,31z"/>
		<path class="st5" d="M48.3,31H32.9c-0.7,0-1.2-0.5-1.2-1.2c0-0.7,0.5-1.2,1.2-1.2h15.5c0.7,0,1.2,0.5,1.2,1.2
			C49.5,30.4,49,31,48.3,31z"/>
		<path class="st5" d="M34,42.9h-9.5c-0.7,0-1.2-0.5-1.2-1.2c0-0.7,0.5-1.2,1.2-1.2H34c0.7,0,1.2,0.5,1.2,1.2
			C35.2,42.3,34.7,42.9,34,42.9z"/>
		<path class="st5" d="M48.3,42.9H37.6c-0.7,0-1.2-0.5-1.2-1.2c0-0.7,0.5-1.2,1.2-1.2h10.7c0.7,0,1.2,0.5,1.2,1.2
			C49.5,42.3,49,42.9,48.3,42.9z"/>
		<path class="st5" d="M48.3,36.9H24.5c-0.7,0-1.2-0.5-1.2-1.2c0-0.7,0.5-1.2,1.2-1.2h23.8c0.7,0,1.2,0.5,1.2,1.2
			C49.5,36.4,49,36.9,48.3,36.9z"/>
	</g>
</g>
</svg>
