<?xml version="1.0" encoding="utf-8"?>
<!-- Generator: Adobe Illustrator 26.5.0, SVG Export Plug-In . SVG Version: 6.00 Build 0)  -->
<svg version="1.1" id="Layer_1" xmlns="http://www.w3.org/2000/svg" xmlns:xlink="http://www.w3.org/1999/xlink" x="0px" y="0px"
	 width="65px" height="65px" viewBox="0 0 65 65" style="enable-background:new 0 0 65 65;" xml:space="preserve">
<style type="text/css">
	.st0{fill:#EDEDEF;}
	.st1{fill-rule:evenodd;clip-rule:evenodd;fill:#285680;}
	.st2{fill-rule:evenodd;clip-rule:evenodd;fill:#7F8C8D;}
	.st3{fill-rule:evenodd;clip-rule:evenodd;fill:#95A5A5;}
	.st4{fill-rule:evenodd;clip-rule:evenodd;fill:#90BAE1;}
	.st5{fill-rule:evenodd;clip-rule:evenodd;fill:#B0D3F0;}
	.st6{fill-rule:evenodd;clip-rule:evenodd;fill:#F0C419;}
	.st7{fill-rule:evenodd;clip-rule:evenodd;fill:#F29C1F;}
	.st8{fill-rule:evenodd;clip-rule:evenodd;fill:#3B97D3;}
</style>
<path class="st0" d="M50.2,60.9c6.1-3.7,11.3-9,13.3-14.9c2.2-6.5-1.5-11.9-8.1-13.9c-2.9-0.9-6.3-1-9.3-1.7
	c-3.3-0.8-4.7-2.7-5.5-5.5c-1.7-6.1-4-12.2-11.1-14.8c-3.1-1.2-7-1.5-10.7-0.4C14.4,11,10.8,13.8,8,17c-3,3.4-5.9,7.8-6.6,12
	c-1.2,3.7-1.6,7.5-1.3,11.2C0.3,43.7,3.3,56.5,13,61.5C24.5,67.4,43.5,65,50.2,60.9z"/>
<g id="Page-1">
	<g id="_x30_07---Search-Filters">
		<g>
			<path id="Path" class="st1" d="M54.6,18.1h8.7c0.9,0,1.7,0.8,1.7,1.7c0,1-0.8,1.7-1.7,1.7h-8.7V18.1z"/>
			<path id="Path_00000094595844324671052120000011299199391123126200_" class="st1" d="M51.7,9.5h11.5c0.9,0,1.7,0.8,1.7,1.7
				c0,1-0.8,1.7-1.7,1.7h-9.9L51.7,9.5z"/>
			<path id="Path_00000049939937604502149610000001176763221450427266_" class="st1" d="M53.4,26.7h9.9c0.9,0,1.7,0.8,1.7,1.7
				c0,1-0.8,1.7-1.7,1.7H51.7L53.4,26.7z"/>
		</g>
		<path id="Rectangle" class="st2" d="M47.6,35l2.4-2.4l3,3L50.6,38L47.6,35z"/>
		<circle id="Oval" class="st3" cx="34.8" cy="19.8" r="19.8"/>
		<path id="Path_00000091703611348988341220000005462165996016328097_" class="st4" d="M51.2,19.8c0,7.4-4.9,13.8-12,15.8
			c-7.1,2-14.6-1-18.4-7.3s-3-14.4,2.1-19.7s13-6.7,19.6-3.3C47.8,8.2,51.2,13.7,51.2,19.8z"/>
		<path id="Path_00000137107541316340417630000005372920831374745495_" class="st5" d="M44.3,12.9c0,5.7-3,11.1-7.9,14
			s-11,3.1-16.1,0.5c-3.3-6.3-2.2-14.1,2.9-19.2S36.1,2,42.4,5.3C43.7,7.7,44.3,10.3,44.3,12.9z"/>
		<path id="Path_00000116228388718172452810000013454121763074068415_" class="st6" d="M50,38.6l3.7-3.7c0.3-0.3,0.9-0.3,1.2,0
			l9.1,9.1c1.3,1.3,1.3,3.5,0,4.9c-1.3,1.3-3.5,1.3-4.9,0L50,39.8C49.6,39.5,49.6,39,50,38.6z"/>
		<path id="Rectangle_00000110430962692145892630000005024859546116179130_" class="st7" d="M51.8,41.7l4.9-4.9l2.4,2.4l-4.9,4.9
			L51.8,41.7z"/>
		<path id="Path_00000055673392070199231330000006879915914056621503_" class="st1" d="M51.2,19.8c0,0.6,0,1.2-0.1,1.7H24.5
			c-0.9,0-1.7-0.8-1.7-1.7c0-1,0.8-1.7,1.7-1.7h26.6C51.2,18.7,51.2,19.3,51.2,19.8z"/>
		<path id="Path_00000013892356894191666060000016563797980217512125_" class="st1" d="M49.7,12.9H27.9c-0.9,0-1.7-0.8-1.7-1.7
			c0-1,0.8-1.7,1.7-1.7h19.6C48.4,10.5,49.1,11.7,49.7,12.9z"/>
		<path id="Path_00000155851192606888300900000014712158224865684888_" class="st1" d="M49.7,26.7c-0.6,1.2-1.3,2.4-2.2,3.4H27.9
			c-0.9,0-1.7-0.8-1.7-1.7c0-1,0.8-1.7,1.7-1.7H49.7z"/>
		<circle id="Oval_00000085960406164511539230000014671606751855111080_" class="st8" cx="35.7" cy="11.2" r="3.4"/>
		<circle id="Oval_00000181052492378087861480000000423692468330368640_" class="st8" cx="43.4" cy="19.8" r="3.4"/>
		<circle id="Oval_00000183969014523461312980000015039172855783852932_" class="st8" cx="35.7" cy="28.4" r="3.4"/>
	</g>
</g>
</svg>
