<?xml version="1.0" encoding="utf-8"?>
<!-- Generator: Adobe Illustrator 26.5.0, SVG Export Plug-In . SVG Version: 6.00 Build 0)  -->
<svg version="1.1" id="Layer_1" xmlns="http://www.w3.org/2000/svg" xmlns:xlink="http://www.w3.org/1999/xlink" x="0px" y="0px"
	 width="65px" height="65px" viewBox="0 0 65 65" style="enable-background:new 0 0 65 65;" xml:space="preserve">
<style type="text/css">
	.st0{fill:#EDEDEF;}
	.st1{fill:#FF5364;}
	.st2{fill:#F3D55B;}
	.st3{fill:#F0C419;}
	.st4{fill:#F29C1F;}
	.st5{fill:#955BA5;}
</style>
<path class="st0" d="M50.2,60.9c6.1-3.7,11.3-9,13.3-14.9c2.2-6.5-1.5-11.9-8.1-13.9c-2.9-0.9-6.3-1-9.3-1.7
	c-3.3-0.8-4.7-2.7-5.5-5.5c-1.7-6.1-4-12.2-11.1-14.8c-3.1-1.2-7-1.5-10.7-0.4C14.4,11,10.8,13.8,8,17c-3,3.4-5.9,7.8-6.6,12
	c-1.2,3.7-1.6,7.5-1.3,11.2C0.3,43.7,3.3,56.5,13,61.5C24.5,67.4,43.5,65,50.2,60.9z"/>
<g id="Page-1">
	<g id="_x30_33---Filter-Data">
		<path id="Shape" class="st1" d="M53.8,8.6c-0.5,0-0.9,0.4-0.9,0.9v3.8l-8.6,5V6.9c0-0.5-0.4-0.9-0.9-0.9c-0.5,0-0.9,0.4-0.9,0.9
			v11.4l-8.6-5V9.5c0-0.5-0.4-0.9-0.9-0.9c-0.5,0-0.9,0.4-0.9,0.9v4.3c0,0.3,0.2,0.6,0.4,0.7l9.9,5.8v2.1c0,0.5,0.4,0.9,0.9,0.9
			c0.5,0,0.9-0.4,0.9-0.9v-2.1l9.9-5.8c0.3-0.2,0.4-0.4,0.4-0.7V9.5C54.7,9,54.3,8.6,53.8,8.6L53.8,8.6z"/>
		<path id="Shape_00000060029169188619032110000001193481410311210411_" class="st2" d="M23.6,22.4h39.7c1,0,1.7,0.8,1.7,1.7v5.2
			H21.9v-5.2C21.9,23.2,22.7,22.4,23.6,22.4z"/>
		<path id="Shape_00000090254547188386399800000004786630798181980813_" class="st3" d="M21.9,29.3l14.9,13.3
			c0.4,0.3,0.6,0.8,0.6,1.3v5.3c0,0.5,0.4,0.9,0.9,0.9h10.3c0.5,0,0.9-0.4,0.9-0.9v-5.3c0-0.5,0.2-1,0.6-1.3L65,29.3H21.9z"/>
		<path id="Shape_00000112602820960690100110000013590002062807494548_" class="st4" d="M46,44h-5.2c-0.5,0-0.9-0.4-0.9-0.9
			c0-0.5,0.4-0.9,0.9-0.9H46c0.5,0,0.9,0.4,0.9,0.9C46.9,43.6,46.5,44,46,44z"/>
		<g>
			<circle id="Oval" class="st5" cx="43.4" cy="3.4" r="3.4"/>
			<circle id="Oval_00000165942717794801301150000007445269549953499058_" class="st5" cx="33.1" cy="6.9" r="2.6"/>
			<circle id="Oval_00000109029805048563702820000017229503016061753762_" class="st5" cx="53.8" cy="6.9" r="2.6"/>
		</g>
	</g>
</g>
</svg>
