<?xml version="1.0" encoding="utf-8"?>
<!-- Generator: Adobe Illustrator 26.5.0, SVG Export Plug-In . SVG Version: 6.00 Build 0)  -->
<svg version="1.1" id="Icons" xmlns="http://www.w3.org/2000/svg" xmlns:xlink="http://www.w3.org/1999/xlink" x="0px" y="0px"
	 width="65px" height="65px" viewBox="0 0 65 65" style="enable-background:new 0 0 65 65;" xml:space="preserve">
<style type="text/css">
	.st0{fill:#EDEDEF;}
	.st1{fill:#AD6D40;}
	.st2{fill:#F8F8FF;}
	.st3{fill:#CBCBF4;}
	.st4{fill:#EA9453;}
	.st5{fill:#FCB36B;}
	.st6{fill:#723535;}
	.st7{fill:#FFFFFF;}
	.st8{fill:#914747;}
	.st9{fill:#20295E;}
	.st10{fill:#43A867;}
</style>
<path class="st0" d="M50.2,60.9c6.1-3.7,11.3-9,13.3-14.9c2.2-6.5-1.5-11.9-8.1-13.9c-2.9-0.9-6.3-1-9.3-1.7
	c-3.3-0.8-4.7-2.7-5.5-5.5c-1.7-6.1-4-12.2-11.1-14.8c-3.1-1.2-7-1.5-10.7-0.4C14.4,11,10.8,13.8,8,17c-3,3.4-5.9,7.8-6.6,12
	c-1.2,3.7-1.6,7.5-1.3,11.2C0.3,43.7,3.3,56.5,13,61.5C24.5,67.4,43.5,65,50.2,60.9z"/>
<g>
	<path class="st1" d="M52.9,44.8V6.9c0-1.9-1.6-3.4-3.4-3.4h-31C16.6,3.4,15,5,15,6.9v37.9c0,1.9,1.6,3.4,3.4,3.4h31
		C51.4,48.3,52.9,46.7,52.9,44.8z"/>
	<path class="st2" d="M19.3,6.9h29.3c0.5,0,0.9,0.4,0.9,0.9V44c0,0.5-0.4,0.9-0.9,0.9H19.3c-0.5,0-0.9-0.4-0.9-0.9V7.8
		C18.4,7.3,18.8,6.9,19.3,6.9z"/>
	<path class="st3" d="M40.9,3.4V6c0,0.9-0.8,1.7-1.7,1.7H28.8c-0.9,0-1.7-0.8-1.7-1.7V3.4c0-0.5,0.4-0.9,0.9-0.9h2.7
		C31,1.1,32.4,0,34,0s3,1.1,3.3,2.6H40C40.5,2.6,40.9,3,40.9,3.4z"/>
	<path class="st4" d="M65,25v23.3c0,0.9-0.8,1.7-1.7,1.7H37.4c-0.9,0-1.7-0.8-1.7-1.7V25H65z"/>
	<path class="st5" d="M64.7,24.3l-5.1-5.1C59.5,19.1,59.2,19,59,19H41.7c-0.2,0-0.5,0.1-0.6,0.3L36,24.3c-0.6,0.6-0.2,1.5,0.6,1.5
		h27.5C64.9,25.9,65.3,24.9,64.7,24.3L64.7,24.3z"/>
	<path class="st6" d="M54.7,25.9v6c0,0.5-0.4,0.9-0.9,0.9h-6.9c-0.5,0-0.9-0.4-0.9-0.9v-6l0.9-0.9h6.9L54.7,25.9z"/>
	<path class="st7" d="M40,42.2h4.3c0.5,0,0.9,0.4,0.9,0.9v2.6c0,0.5-0.4,0.9-0.9,0.9H40c-0.5,0-0.9-0.4-0.9-0.9v-2.6
		C39.1,42.6,39.5,42.2,40,42.2z"/>
	<path class="st8" d="M54.7,25.9L52.1,19h-3.4L46,25.9H54.7z"/>
	<path class="st9" d="M56.1,41.6c-0.3-0.3-0.9-0.3-1.2,0L54,42.5c-0.3,0.3-0.3,0.9,0,1.2c0.2,0.2,0.4,0.3,0.6,0.3v2.6
		c0,0.5,0.4,0.9,0.9,0.9s0.9-0.4,0.9-0.9V44c0.2,0,0.4-0.1,0.6-0.3c0.3-0.3,0.3-0.9,0-1.2L56.1,41.6z"/>
	<path class="st9" d="M62.2,42.5l-0.9-0.9c-0.3-0.3-0.9-0.3-1.2,0l-0.9,0.9c-0.3,0.3-0.3,0.9,0,1.2c0.2,0.2,0.4,0.3,0.6,0.3v2.6
		c0,0.5,0.4,0.9,0.9,0.9c0.5,0,0.9-0.4,0.9-0.9V44c0.2,0,0.4-0.1,0.6-0.3C62.5,43.4,62.5,42.8,62.2,42.5z"/>
	<g>
		<path class="st10" d="M26.2,19c-0.2,0-0.4-0.1-0.6-0.3L23.9,17c-0.3-0.3-0.3-0.9,0-1.2s0.9-0.3,1.2,0l1,1l2.9-4.3
			c0.3-0.4,0.8-0.5,1.2-0.2c0.4,0.3,0.5,0.8,0.2,1.2l-3.4,5.2C26.8,18.8,26.5,18.9,26.2,19C26.3,19,26.2,19,26.2,19L26.2,19z"/>
		<path class="st10" d="M26.2,29.3c-0.2,0-0.4-0.1-0.6-0.3l-1.7-1.7c-0.3-0.3-0.3-0.9,0-1.2s0.9-0.3,1.2,0l1,1l2.9-4.3
			c0.3-0.4,0.8-0.5,1.2-0.2c0.4,0.3,0.5,0.8,0.2,1.2l-3.4,5.2C26.8,29.1,26.5,29.3,26.2,29.3C26.3,29.3,26.2,29.3,26.2,29.3
			L26.2,29.3z"/>
		<path class="st10" d="M26.2,39.7c-0.2,0-0.4-0.1-0.6-0.3l-1.7-1.7c-0.3-0.3-0.3-0.9,0-1.2c0.3-0.3,0.9-0.3,1.2,0l1,1l2.9-4.3
			c0.3-0.4,0.8-0.5,1.2-0.2c0.4,0.3,0.5,0.8,0.2,1.2l-3.4,5.2C26.8,39.5,26.5,39.6,26.2,39.7C26.3,39.7,26.2,39.7,26.2,39.7
			L26.2,39.7z"/>
	</g>
</g>
</svg>
