<svg version="1.2" xmlns="http://www.w3.org/2000/svg" viewBox="0 0 70 58" width="70" height="58"><style>.a{fill:#004c9d}.b{fill:#0059be}.c{fill:#95afd1}.d{fill:#24376b}.e{fill:#c1cfe8}.f{fill:#004180}.g{fill:#334672}.h{fill:#686868}.i{fill:#757575}.j{fill:#bcbcbc}.k{fill:#d7e0ef}.l{fill:#798499}.m{fill:#ec8329}.n{fill:#f79b31}.o{fill:#f9cb5d}.p{fill:#ffc76f}.q{fill:#ffe1ae}</style><path class="a" d="m46.7 46.4v-30.2q0-0.7 0.2-1.3 0.3-0.6 0.8-1.1 0.5-0.5 1.1-0.8 0.7-0.2 1.4-0.2h9.4q0.5 0 1 0.1 0.5 0.1 0.9 0.4 0.4 0.3 0.7 0.7 0.4 0.3 0.6 0.8l6 13v18.6z"/><path class="b" d="m65.3 30.2l-6-13.1q-0.2-0.5-0.6-0.8-0.3-0.4-0.7-0.7-0.4-0.2-0.9-0.4-0.5-0.1-1-0.1h-9.2q-0.1 0.1-0.1 0.3-0.1 0.1-0.1 0.3 0 0.1 0 0.2 0 0.2 0 0.3v30.2h18.6z"/><path fill-rule="evenodd" class="c" d="m42 0v37.1h-42v-37.1z"/><path class="d" d="m70 49.9h-16.3v-3.5h-53.7v-4.6h58.3v3.4h11.7z"/><path class="e" d="m51.3 17.4h7l5.9 11.6h-8.2l-1.2-2.3h-3.5z"/><path fill-rule="evenodd" class="f" d="m54.8 32.5v2.3h-4.6v-2.3z"/><path class="c" d="m56 19.7h-4.7v7h3.5l1.2 2.3h4.7z"/><path class="g" d="m56 45.8q0-0.3-0.1-0.6-0.2-0.4-0.4-0.6-0.3-0.3-0.6-0.4-0.3-0.1-0.7-0.1h-54.2v2.3h53.7v3.5h16.3v-2.3h-12.3q-0.3 0-0.6-0.2-0.3-0.1-0.6-0.3-0.2-0.3-0.4-0.6-0.1-0.3-0.1-0.7z"/><path fill-rule="evenodd" class="h" d="m46.7 58c-4.5 0-8.2-3.6-8.2-8.1 0-4.5 3.7-8.1 8.2-8.1 4.5 0 8.1 3.6 8.1 8.1 0 4.5-3.6 8.1-8.1 8.1z"/><path fill-rule="evenodd" class="i" d="m46.7 55.7c-3.3 0-5.9-2.6-5.9-5.8 0-3.2 2.6-5.8 5.9-5.8 3.2 0 5.8 2.6 5.8 5.8 0 3.2-2.6 5.8-5.8 5.8z"/><path fill-rule="evenodd" class="h" d="m12.8 58c-4.5 0-8.1-3.6-8.1-8.1 0-4.5 3.6-8.1 8.1-8.1 4.5 0 8.2 3.6 8.2 8.1 0 4.5-3.7 8.1-8.2 8.1z"/><path fill-rule="evenodd" class="i" d="m12.8 55.7c-3.2 0-5.8-2.6-5.8-5.8 0-3.2 2.6-5.8 5.8-5.8 3.3 0 5.9 2.6 5.9 5.8 0 3.2-2.6 5.8-5.9 5.8z"/><path fill-rule="evenodd" class="j" d="m12.8 52.2c-1.3 0-2.3-1-2.3-2.3 0-1.3 1-2.3 2.3-2.3 1.3 0 2.4 1 2.4 2.3 0 1.3-1.1 2.3-2.4 2.3z"/><path fill-rule="evenodd" class="j" d="m46.7 52.2c-1.3 0-2.4-1-2.4-2.3 0-1.3 1.1-2.3 2.4-2.3 1.3 0 2.3 1 2.3 2.3 0 1.3-1 2.3-2.3 2.3z"/><path fill-rule="evenodd" class="e" d="m39.7 2.3v32.5h-37.4v-32.5z"/><path class="k" d="m5.8 24.1q0 1.4 0.6 2.7 0.5 1.4 1.6 2.4 1 1 2.3 1.6 1.4 0.5 2.8 0.5h26.6v-29h-33.9z"/><path class="l" d="m30.3 27.8h-4.6v-2.3h4.6q0.5 0 0.9-0.2 0.5-0.1 0.8-0.5 0.3-0.3 0.5-0.7 0.2-0.4 0.2-0.9v-7h-7v-2.3h8.1q0.3 0 0.5 0.1 0.2 0.1 0.4 0.3 0.1 0.1 0.2 0.3 0.1 0.2 0.1 0.5v8.1q0 0.9-0.4 1.8-0.3 0.8-1 1.5-0.6 0.6-1.5 1-0.8 0.3-1.8 0.3z"/><path class="m" d="m26.8 29q0 0.7-0.2 1.3-0.3 0.7-0.8 1.2-0.5 0.4-1.1 0.7-0.7 0.3-1.4 0.3h-9.3q-0.7 0-1.3-0.3-0.7-0.3-1.2-0.7-0.5-0.5-0.7-1.2-0.3-0.6-0.3-1.3v-17.4h16.3z"/><path class="n" d="m14 11.6v13.9q0 0.7 0.3 1.4 0.2 0.6 0.7 1.1 0.5 0.5 1.2 0.7 0.6 0.3 1.3 0.3h9.3v-17.4z"/><path class="o" d="m14 11.6c-0.6 0-1.2-0.2-1.6-0.7-0.5-0.4-0.7-1-0.7-1.6 0-0.6 0.2-1.2 0.7-1.7 0.4-0.4 1-0.6 1.6-0.6q0.2 0 0.3 0 0.2 0 0.4 0.1 0.1 0 0.3 0.1 0.1 0 0.3 0.1c0.1-0.7 0.6-1.4 1.2-1.9 0.6-0.5 1.4-0.8 2.2-0.8 0.8 0 1.5 0.3 2.1 0.8 0.7 0.5 1.1 1.2 1.3 1.9q0.1-0.1 0.3-0.1 0.1-0.1 0.3-0.1 0.1-0.1 0.3-0.1 0.2 0 0.3 0c0.7 0 1.2 0.2 1.7 0.6 0.4 0.5 0.7 1.1 0.7 1.7 0 0.6-0.3 1.2-0.7 1.6-0.5 0.5-1 0.7-1.7 0.7z"/><path fill-rule="evenodd" class="p" d="m16.3 16.2v10.5h-2.3v-10.5z"/><path fill-rule="evenodd" class="p" d="m23.3 16.2v10.5h-2.3v-10.5z"/><path class="q" d="m12.9 11.3q0.1 0.1 0.2 0.1 0.2 0.1 0.3 0.1 0.2 0.1 0.3 0.1 0.2 0 0.3 0h9.3q0.5 0 0.9-0.2 0.3-0.1 0.7-0.4 0.3-0.3 0.5-0.6 0.2-0.4 0.2-0.8-0.1-0.1-0.2-0.1-0.2-0.1-0.3-0.1-0.2-0.1-0.3-0.1-0.2 0-0.3 0-0.2 0-0.3 0-0.2 0-0.4 0.1-0.1 0-0.3 0.1-0.1 0.1-0.3 0.2c-0.1-0.8-0.6-1.5-1.2-2-0.6-0.5-1.4-0.7-2.2-0.7-0.8 0-1.5 0.2-2.1 0.7-0.7 0.5-1.1 1.2-1.3 2q-0.1-0.1-0.3-0.2-0.1-0.1-0.3-0.1-0.1-0.1-0.3-0.1-0.2 0-0.3 0-0.5 0-0.9 0.1-0.3 0.2-0.7 0.5-0.3 0.2-0.5 0.6-0.2 0.4-0.2 0.8z"/></svg>