<?xml version="1.0" encoding="utf-8"?>
<!-- Generator: Adobe Illustrator 26.5.0, SVG Export Plug-In . SVG Version: 6.00 Build 0)  -->
<svg version="1.1" id="Capa_1" xmlns="http://www.w3.org/2000/svg" xmlns:xlink="http://www.w3.org/1999/xlink" x="0px" y="0px"
	 width="65px" height="65px" viewBox="0 0 65 65" style="enable-background:new 0 0 65 65;" xml:space="preserve">
<style type="text/css">
	.st0{fill:#EDEDEF;}
	.st1{fill:#55D4BE;}
	.st2{fill:#24BFB2;}
	.st3{fill:#F2EDEC;}
	.st4{fill:#FCE780;}
	.st5{fill:#FEE2CA;}
	.st6{fill:#FDD0AB;}
	.st7{fill:#FA892D;}
</style>
<path class="st0" d="M49.8,60.9c6.1-3.7,11.3-9,13.3-14.9c2.2-6.5-1.5-11.9-8.1-13.9c-2.9-0.9-6.3-1-9.3-1.7
	c-3.3-0.8-4.7-2.7-5.5-5.5c-1.7-6.1-4-12.2-11.1-14.8c-3.1-1.2-7-1.5-10.7-0.4C14,11,10.4,13.8,7.6,17c-3,3.4-5.9,7.8-6.6,12
	c-1.2,3.7-1.6,7.5-1.3,11.2c0.2,3.5,3.2,16.3,12.9,21.3C24.1,67.4,43.1,65,49.8,60.9z"/>
<g>
	<path class="st1" d="M29.6,33.6h-6.2c-1.1,0-2.1-0.9-2.1-2.1v-17c0-1.1,0.9-2.1,2.1-2.1h6.2c1.1,0,2.1,0.9,2.1,2.1v17
		C31.6,32.7,30.7,33.6,29.6,33.6z"/>
	<path class="st2" d="M23.4,30.5v-18c-1.1,0-2.1,0.9-2.1,2.1v17c0,1.1,0.9,2.1,2.1,2.1h6.2c1.1,0,2.1-0.9,2.1-2.1h-7.2
		C23.8,31.5,23.4,31.1,23.4,30.5z"/>
	<circle class="st3" cx="26.5" cy="28.9" r="1.6"/>
	<path class="st4" d="M59.6,14.9L59.6,14.9c0-1.4-1.2-2.6-2.6-2.6H44c0,0,1.1-1.4,1.6-4.5c0.8-5.5-1.2-7.6-3.1-7.8
		c-0.5-0.1-0.9,0.3-0.9,0.8c0,0-0.5,5.1-1.4,7c-2.3,4.7-8.4,7-8.4,7v16.7c0,0,1.4,1.5,4.1,1.5c6.6,0,19.1,0,19.1,0
		c1.4,0,2.6-1.2,2.6-2.6c0-1.4-1.2-2.6-2.6-2.6h1c1.4,0,2.6-1.2,2.6-2.6l0,0c0-1.4-1.2-2.6-2.6-2.6h1c1.4,0,2.6-1.2,2.6-2.6l0,0
		c0-1.4-1.2-2.6-2.6-2.6C58.4,17.5,59.6,16.4,59.6,14.9z"/>
	<path class="st5" d="M59.6,14.9L59.6,14.9c0-1.4-1.2-2.6-2.6-2.6H44c0,0,1.1-1.4,1.6-4.5c0.8-5.5-1.2-7.6-3.1-7.8
		c-0.5-0.1-0.9,0.3-0.9,0.8c0,0-0.5,5.1-1.4,7c-2.3,4.7-8.4,7-8.4,7v16.7c0,0,1.4,1.5,4.1,1.5c6.6,0,19.1,0,19.1,0
		c1.4,0,2.6-1.2,2.6-2.6c0-1.4-1.2-2.6-2.6-2.6h1c1.4,0,2.6-1.2,2.6-2.6l0,0c0-1.4-1.2-2.6-2.6-2.6h1c1.4,0,2.6-1.2,2.6-2.6l0,0
		c0-1.4-1.2-2.6-2.6-2.6C58.4,17.5,59.6,16.4,59.6,14.9z"/>
	<g>
		<path class="st6" d="M54.9,31.5c0,0-12.5,0-19.1,0c-2.8,0-4.1-1.5-4.1-1.5v1.6c0,0,1.4,1.5,4.1,1.5c6.6,0,19.1,0,19.1,0
			c1.4,0,2.6-1.2,2.6-2.6c0-0.3,0-0.5-0.1-0.8C57.1,30.7,56.1,31.5,54.9,31.5z"/>
		<path class="st6" d="M57,15.5h-2.6v2.1H57c1.4,0,2.6-1.2,2.6-2.6l0,0c0-0.4-0.1-0.7-0.2-1C59,14.8,58.1,15.5,57,15.5z"/>
		<path class="st6" d="M57,20.6h-2.6v2.1H57c1.4,0,2.6-1.2,2.6-2.6l0,0c0-0.4-0.1-0.7-0.2-1C59,20,58.1,20.6,57,20.6z"/>
		<path class="st6" d="M56,25.8h-1.6v2.1H56c1.4,0,2.6-1.2,2.6-2.6l0,0c0-0.4-0.1-0.7-0.2-1C57.9,25.2,57,25.8,56,25.8z"/>
	</g>
	<g>
		<path class="st7" d="M46.4,41h-4.4l-1.3-4.1c-0.1-0.3-0.4-0.5-0.7-0.5s-0.6,0.2-0.7,0.5L38,41h-4.4c-0.3,0-0.6,0.2-0.7,0.5
			c-0.1,0.3,0,0.6,0.3,0.8l3.5,2.6L35.4,49c-0.1,0.3,0,0.6,0.2,0.8c0.3,0.2,0.6,0.2,0.9,0l3.5-2.6l3.5,2.6c0.3,0.2,0.7,0.2,0.9,0
			c0.2-0.2,0.3-0.5,0.2-0.8l-1.3-4.1l3.5-2.6c0.3-0.2,0.4-0.5,0.3-0.8C47,41.2,46.8,41,46.4,41z"/>
		<path class="st7" d="M65,41.5c-0.1-0.3-0.4-0.5-0.7-0.5h-4.4l-1.3-4.1c-0.1-0.3-0.4-0.5-0.7-0.5s-0.6,0.2-0.7,0.5L55.8,41h-4.4
			c-0.3,0-0.6,0.2-0.7,0.5c-0.1,0.3,0,0.6,0.3,0.8l3.5,2.6L53.2,49c-0.1,0.3,0,0.6,0.2,0.8c0.3,0.2,0.6,0.2,0.9,0l3.5-2.6l3.5,2.6
			c0.3,0.2,0.7,0.2,0.9,0c0.2-0.2,0.3-0.5,0.2-0.8l-1.3-4.1l3.5-2.6C65,42.2,65.1,41.8,65,41.5z"/>
		<path class="st7" d="M28.6,41h-4.4l-1.3-4.1c-0.1-0.3-0.4-0.5-0.7-0.5s-0.6,0.2-0.7,0.5L20.2,41h-4.4c-0.3,0-0.6,0.2-0.7,0.5
			c-0.1,0.3,0,0.6,0.3,0.8l3.5,2.6L17.6,49c-0.1,0.3,0,0.6,0.2,0.8c0.3,0.2,0.6,0.2,0.9,0l3.5-2.6l3.5,2.6c0.3,0.2,0.7,0.2,0.9,0
			c0.2-0.2,0.3-0.5,0.2-0.8l-1.3-4.1l3.5-2.6c0.3-0.2,0.4-0.5,0.3-0.8C29.2,41.2,28.9,41,28.6,41z"/>
	</g>
</g>
</svg>
