<?xml version="1.0" encoding="utf-8"?>
<!-- Generator: Adobe Illustrator 26.5.0, SVG Export Plug-In . SVG Version: 6.00 Build 0)  -->
<svg version="1.1" id="Layer_1" xmlns="http://www.w3.org/2000/svg" xmlns:xlink="http://www.w3.org/1999/xlink" x="0px" y="0px"
	 width="65px" height="65px" viewBox="0 0 65 65" style="enable-background:new 0 0 65 65;" xml:space="preserve">
<style type="text/css">
	.st0{fill:#EDEDEF;}
	.st1{fill:#FFF180;}
	.st2{fill:#64E8FF;}
	.st3{fill:#0FD9FF;}
	.st4{fill:#6193FF;}
	.st5{fill:#407BFF;}
	.st6{fill:#FF6969;}
	.st7{fill:#FF4848;}
	.st8{fill:#FF95C2;}
	.st9{fill:#FF758E;}
	.st10{fill:#FFFFFF;}
	.st11{fill:#9DD46F;}
	.st12{fill:#71B72C;}
</style>
<path class="st0" d="M50.2,60.9c6.1-3.7,11.3-9,13.3-14.9c2.2-6.5-1.5-11.9-8.1-13.9c-2.9-0.9-6.3-1-9.3-1.7
	c-3.3-0.8-4.7-2.7-5.5-5.5c-1.7-6.1-4-12.2-11.1-14.8c-3.1-1.2-7-1.5-10.7-0.4C14.4,11,10.8,13.8,8,17c-3,3.4-5.9,7.8-6.6,12
	c-1.2,3.7-1.6,7.5-1.3,11.2C0.3,43.7,3.3,56.5,13,61.5C24.5,67.4,43.5,65,50.2,60.9z"/>
<g>
	<path class="st1" d="M40,45.2c-11.2,0-20.3-9.1-20.3-20.3c0-11.2,9.1-20.3,20.3-20.3S60.3,13.8,60.3,25
		C60.3,36.2,51.2,45.2,40,45.2z M40,6.4c-10.3,0-18.6,8.3-18.6,18.6c0,10.3,8.3,18.6,18.6,18.6S58.6,35.2,58.6,25
		C58.6,14.7,50.3,6.4,40,6.4z"/>
	<path class="st2" d="M33.7,9.3c0,5.2-4.2,9.3-9.3,9.3c-5.2,0-9.3-4.2-9.3-9.3S19.2,0,24.4,0C29.5,0,33.7,4.2,33.7,9.3z"/>
	<path class="st3" d="M24.4,0c-0.6,0-1.2,0.1-1.8,0.2C26.8,1,30,4.8,30,9.3s-3.2,8.3-7.5,9.2c0.6,0.1,1.2,0.2,1.8,0.2
		c5.2,0,9.3-4.2,9.3-9.3C33.7,4.2,29.5,0,24.4,0z"/>
	<path class="st4" d="M65,9.3c0,5.2-4.2,9.3-9.3,9.3c-5.2,0-9.3-4.2-9.3-9.3S50.5,0,55.7,0C60.8,0,65,4.2,65,9.3z"/>
	<path class="st5" d="M65,9.1c-0.1-5.2-4.4-9.2-9.6-9.1c-0.5,0-0.9,0.1-1.4,0.1c4.3,0.8,7.6,4.4,7.7,8.9c0.1,4.7-3.2,8.7-7.7,9.5
		c0.6,0.1,1.3,0.2,1.9,0.1C61.1,18.5,65.1,14.2,65,9.1z"/>
	<path class="st6" d="M33.7,40.7c0,5.2-4.2,9.3-9.3,9.3c-5.2,0-9.3-4.2-9.3-9.3c0-5.2,4.2-9.3,9.3-9.3
		C29.5,31.3,33.7,35.5,33.7,40.7z"/>
	<path class="st7" d="M24.4,31.3c-0.6,0-1.2,0.1-1.7,0.2c4.3,0.8,7.6,4.6,7.6,9.2S27,49,22.7,49.8c0.6,0.1,1.1,0.2,1.7,0.2
		c5.2,0,9.3-4.2,9.3-9.3C33.7,35.5,29.5,31.3,24.4,31.3z"/>
	<path class="st8" d="M65,40.7c0,5.2-4.2,9.3-9.3,9.3c-5.2,0-9.3-4.2-9.3-9.3c0-5.2,4.2-9.3,9.3-9.3C60.8,31.3,65,35.5,65,40.7z"/>
	<path class="st9" d="M55.7,31.3c-0.6,0-1.3,0.1-1.9,0.2c4.3,0.9,7.5,4.6,7.5,9.1s-3.2,8.3-7.5,9.1c0.6,0.1,1.2,0.2,1.9,0.2
		c5.2,0,9.3-4.2,9.3-9.3C65,35.5,60.8,31.3,55.7,31.3z"/>
	<g>
		<path class="st10" d="M29.1,5.5c-0.4,0.3-0.9,0.5-1.4,0.7c-0.7-0.9-2-0.9-2.9-0.2C24.3,6.4,24,7,24,7.6V8c-1.6,0-3.2-0.7-4.1-2.1
			c0,0-1.8,4.1,2.3,5.9c-0.9,0.6-2.1,1-3.2,0.9c4.1,2.3,9.2,0,9.2-5.3c0-0.1,0-0.3,0-0.4C28.6,6.7,28.9,6.1,29.1,5.5z"/>
		<path class="st10" d="M55,15.3c-0.5,0-0.8-0.4-0.8-0.8V6.3c0-1.6,1.3-2.9,2.9-2.9h1c0.5,0,0.8,0.4,0.8,0.8S58.5,5.1,58,5.1h-1
			c-0.7,0-1.2,0.6-1.2,1.2v8.1C55.8,14.9,55.5,15.3,55,15.3z"/>
		<path class="st10" d="M56.9,10h-3.7c-0.5,0-0.8-0.4-0.8-0.8s0.4-0.8,0.8-0.8h3.7c0.5,0,0.8,0.4,0.8,0.8S57.4,10,56.9,10z"/>
		<path class="st10" d="M22.4,40.6v-3c0-0.2,0.2-0.4,0.4-0.2l2.6,1.5l2.6,1.5c0.2,0.1,0.2,0.4,0,0.5l-2.6,1.5l-2.6,1.5
			c-0.2,0.1-0.4,0-0.4-0.2V40.6z"/>
		<path class="st10" d="M58.9,46.1h-6.6c-1.2,0-2.1-1-2.1-2.1v-6.6c0-1.2,1-2.1,2.1-2.1h6.6c1.2,0,2.1,1,2.1,2.1v6.6
			C61.1,45.1,60.1,46.1,58.9,46.1z M52.4,36.9c-0.3,0-0.5,0.2-0.5,0.5v6.6c0,0.3,0.2,0.5,0.5,0.5h6.6c0.3,0,0.5-0.2,0.5-0.5v-6.6
			c0-0.3-0.2-0.5-0.5-0.5H52.4z"/>
		<path class="st10" d="M55.7,43c-1.3,0-2.4-1.1-2.4-2.4c0-1.3,1.1-2.4,2.4-2.4c1.3,0,2.4,1.1,2.4,2.4C58,42,57,43,55.7,43z
			 M55.7,40c-0.4,0-0.7,0.3-0.7,0.7s0.3,0.7,0.7,0.7c0.4,0,0.7-0.3,0.7-0.7S56,40,55.7,40z"/>
	</g>
	<path class="st11" d="M48.1,23.1l-6.3-6c-0.1-0.1-0.4,0-0.4,0.2v3.4c-5.9,0.8-8.5,4.7-9.7,8.9c-0.1,0.4,0.4,0.7,0.7,0.4
		c2.2-2.4,4.9-3.6,9-3.6v3.5c0,0.2,0.2,0.3,0.4,0.2l6.3-5.8C48.4,23.9,48.4,23.4,48.1,23.1z"/>
	<path class="st12" d="M48.1,23.1l-6.3-6c-0.1-0.1-0.4,0-0.4,0.2v2.3l3.7,3.5c0.3,0.3,0.3,0.8,0,1.1l-3.7,3.4v2.2
		c0,0.2,0.2,0.3,0.4,0.2l6.3-5.8C48.4,23.9,48.4,23.4,48.1,23.1z"/>
</g>
</svg>
