<?xml version="1.0" encoding="utf-8"?>
<!-- Generator: Adobe Illustrator 26.5.0, SVG Export Plug-In . SVG Version: 6.00 Build 0)  -->
<svg version="1.1" id="Layer_1" xmlns="http://www.w3.org/2000/svg" xmlns:xlink="http://www.w3.org/1999/xlink" x="0px" y="0px"
	 width="65px" height="65px" viewBox="0 0 65 65" style="enable-background:new 0 0 65 65;" xml:space="preserve">
<style type="text/css">
	.st0{fill:#EDEDEF;}
	.st1{fill:#3D6D93;}
	.st2{fill:#FBF3F3;}
	.st3{fill:#2C5977;}
	.st4{fill:#53E261;}
	.st5{fill:#6680FF;}
	.st6{fill:#FFDDCE;}
</style>
<path class="st0" d="M50.2,60.9c6.1-3.7,11.3-9,13.3-14.9c2.2-6.5-1.5-11.9-8.1-13.9c-2.9-0.9-6.3-1-9.3-1.7
	c-3.3-0.8-4.7-2.7-5.5-5.5c-1.7-6.1-4-12.2-11.1-14.8c-3.1-1.2-7-1.5-10.7-0.4C14.4,11,10.8,13.8,8,17c-3,3.4-5.9,7.8-6.6,12
	c-1.2,3.7-1.6,7.5-1.3,11.2C0.3,43.7,3.3,56.5,13,61.5C24.5,67.4,43.5,65,50.2,60.9z"/>
<g id="_x31_0_x2C__user_x2C__app_x2C__android_x2C__digital_x2C__interaction">
	<g id="XMLID_747_">
		<g id="XMLID_771_">
			<path id="XMLID_103_" class="st1" d="M59.8,50H39c-2.9,0-5.2-2.3-5.2-5.2V5.2C33.8,2.3,36.1,0,39,0h20.8C62.7,0,65,2.3,65,5.2
				v39.6C65,47.7,62.7,50,59.8,50z"/>
			<path id="XMLID_102_" class="st2" d="M35.8,7.3h27.1v33.3H35.8V7.3z"/>
			<g id="XMLID_772_">
				<path id="XMLID_101_" class="st3" d="M51.5,45.3h-4.2c-0.3,0-0.5-0.2-0.5-0.5s0.2-0.5,0.5-0.5h4.2c0.3,0,0.5,0.2,0.5,0.5
					S51.7,45.3,51.5,45.3z"/>
			</g>
		</g>
		<path id="XMLID_100_" class="st3" d="M49.4,11.5c5.2,0,9.4,4.2,9.4,9.4c0,2.8-1.2,5.4-3.2,7.1c-0.9-2.5-3.3-4.3-6.1-4.3
			c2.1,0,3.8-1.7,3.8-3.8s-1.7-3.8-3.8-3.8s-3.8,1.7-3.8,3.8s1.7,3.8,3.8,3.8c-2.8,0-5.2,1.8-6.1,4.3c-2-1.7-3.2-4.3-3.2-7.1
			C40,15.7,44.2,11.5,49.4,11.5z"/>
		<path id="XMLID_99_" class="st4" d="M57.7,33.3c0.6,0,1,0.5,1,1s-0.5,1-1,1c-0.6,0-1-0.5-1-1S57.1,33.3,57.7,33.3z"/>
		<path id="XMLID_98_" class="st4" d="M53.5,33.3c0.6,0,1,0.5,1,1s-0.5,1-1,1c-0.6,0-1-0.5-1-1S53,33.3,53.5,33.3z"/>
		<path id="XMLID_97_" class="st5" d="M49.4,23.6c2.8,0,5.2,1.8,6.1,4.3c-3.5,3.1-8.8,3.1-12.3,0C44.2,25.4,46.6,23.6,49.4,23.6
			L49.4,23.6z"/>
		<circle id="XMLID_96_" class="st6" cx="49.4" cy="19.9" r="3.8"/>
		<g>
			<path id="XMLID_95_" class="st4" d="M49.4,33.3c0.6,0,1,0.5,1,1s-0.5,1-1,1s-1-0.5-1-1S48.8,33.3,49.4,33.3z"/>
			<path id="XMLID_94_" class="st4" d="M45.2,33.3c0.6,0,1,0.5,1,1s-0.5,1-1,1s-1-0.5-1-1S44.6,33.3,45.2,33.3z"/>
			<path id="XMLID_93_" class="st4" d="M41,33.3c0.6,0,1,0.5,1,1s-0.5,1-1,1s-1-0.5-1-1S40.5,33.3,41,33.3z"/>
		</g>
	</g>
</g>
</svg>
