<svg version="1.2" xmlns="http://www.w3.org/2000/svg" viewBox="0 0 47 50" width="47" height="50"><style></style><path  d="m15.8 5.9h-8.4v-4.4c0-0.8 0.6-1.5 1.4-1.5h5.5c0.8 0 1.5 0.7 1.5 1.5z"/><path fill-rule="evenodd" d="m22.2 27.4v14.2h-12.2v-14.2z"/><path  d="m8.5 44.5h13.7v1.9c0 2-1.6 3.6-3.6 3.6h-14c-2 0-3.6-1.6-3.6-3.6v-20.1c0-4.3 2.5-8.2 6.4-10v-7.5h8.4v7.5c3.3 1.5 5.6 4.6 6.2 8.2h-13.5c-0.8 0-1.5 0.6-1.5 1.4v17.1c0 0.8 0.7 1.5 1.5 1.5z"/><path  d="m25.1 28.7h21.6c-0.5 2.9-2.2 5.3-4.5 7.2-1.4 1.1-3.1 1.9-4.9 2.1v9.1h4.5c0.8 0 1.4 0.6 1.4 1.4 0 0.8-0.6 1.5-1.4 1.5h-11.8c-0.8 0-1.5-0.7-1.5-1.5 0-0.8 0.7-1.4 1.5-1.4h4.4v-9.1c-1.8-0.2-3.5-1-4.9-2.1-2.3-1.9-4-4.3-4.4-7.2z"/><path  d="m46.8 25.7h-21.8c0.2-3.6 1.8-6.9 3.1-9.9 0.2-0.6 0.7-0.9 1.3-0.9h12.9c0.6 0 1.2 0.3 1.4 0.9 1.2 3 2.8 6.4 3.1 9.9z"/></svg>