<?xml version="1.0" encoding="utf-8"?>
<!-- Generator: Adobe Illustrator 26.5.0, SVG Export Plug-In . SVG Version: 6.00 Build 0)  -->
<svg version="1.1" id="Layer_1" xmlns="http://www.w3.org/2000/svg" xmlns:xlink="http://www.w3.org/1999/xlink" x="0px" y="0px"
	 width="70px" height="70px" viewBox="0 0 70 70" style="enable-background:new 0 0 70 70;" xml:space="preserve">
<style type="text/css">
	.st0{fill:#FFFFFF;}
</style>
<g>
	<g>
		<path class="st0" d="M43.5,67.5c-0.5,0.2-1,0.4-1.5,0.4H9.1c-1.8,0-3.2-1.5-3.2-3.2v-5.1h30.6c0.6,0,1.1-0.5,1.1-1.1
			s-0.5-1.1-1.1-1.1H5.9V12.8h39.4v16.9V35c0,0.6,0.5,1.1,1.1,1.1c0.6,0,1.1-0.5,1.1-1.1v-5.3c0-5.9,0-18.5,0-24.2
			c0-3-2.4-5.4-5.4-5.4H9.1c-3,0-5.4,2.4-5.4,5.4v59.1c0,3,2.4,5.4,5.4,5.4h32.9c0.9,0,1.7-0.2,2.5-0.6c0.5-0.3,0.7-0.9,0.5-1.5
			C44.7,67.4,44.1,67.2,43.5,67.5L43.5,67.5z M9.1,2.2h32.9c1.8,0,3.2,1.5,3.2,3.2v5.1H5.9V5.4C5.9,3.6,7.3,2.2,9.1,2.2z"/>
		<path class="st0" d="M17.3,28.9H12c-1.1,0-2,0.9-2,2v5.9c0,1.1,0.9,2,2,2h5.2c1.1,0,2-0.9,2-2v-5.9C19.3,29.8,18.4,28.9,17.3,28.9
			z M17.1,36.6h-4.8v-5.5h4.8V36.6z"/>
		<path class="st0" d="M28.2,28.9H23c-1.1,0-2,0.9-2,2v5.9c0,1.1,0.9,2,2,2h5.2c1.1,0,2-0.9,2-2v-5.9C30.2,29.8,29.3,28.9,28.2,28.9
			z M28,36.6h-4.8v-5.5H28L28,36.6z"/>
		<path class="st0" d="M39.1,28.9h-5.2c-1.1,0-2,0.9-2,2v5.9c0,1.1,0.9,2,2,2h5.2c1.1,0,2-0.9,2-2v-5.9
			C41.1,29.8,40.2,28.9,39.1,28.9z M38.9,36.6h-4.8v-5.5h4.8V36.6z"/>
		<path class="st0" d="M19.3,17.3c0-1.1-0.9-2-2-2H12c-1.1,0-2,0.9-2,2v5.9c0,1.1,0.9,2,2,2h5.2c1.1,0,2-0.9,2-2V17.3z M17.1,23.1
			h-4.8v-5.5h4.8V23.1z"/>
		<path class="st0" d="M30.2,17.3c0-1.1-0.9-2-2-2H23c-1.1,0-2,0.9-2,2v5.9c0,1.1,0.9,2,2,2h5.2c1.1,0,2-0.9,2-2V17.3z M28,23.1
			h-4.8v-5.5H28V23.1z"/>
		<path class="st0" d="M41.1,17.3c0-1.1-0.9-2-2-2h-5.2c-1.1,0-2,0.9-2,2v5.9c0,1.1,0.9,2,2,2h5.2c1.1,0,2-0.9,2-2V17.3z M38.9,23.1
			h-4.8v-5.5h4.8V23.1z"/>
		<path class="st0" d="M22.2,63.6c0,1.9,1.5,3.4,3.4,3.4c1.9,0,3.4-1.5,3.4-3.4c0-1.9-1.5-3.4-3.4-3.4
			C23.7,60.2,22.2,61.8,22.2,63.6z M26.8,63.6c0,0.7-0.5,1.2-1.2,1.2c-0.7,0-1.2-0.5-1.2-1.2c0-0.7,0.5-1.2,1.2-1.2
			C26.3,62.4,26.8,63,26.8,63.6z"/>
		<path class="st0" d="M25.1,7.5h6.1c0.6,0,1.1-0.5,1.1-1.1s-0.5-1.1-1.1-1.1h-6.1c-0.6,0-1.1,0.5-1.1,1.1S24.5,7.5,25.1,7.5z"/>
		<path class="st0" d="M20,7.5h1.4c0.6,0,1.1-0.5,1.1-1.1s-0.5-1.1-1.1-1.1H20c-0.6,0-1.1,0.5-1.1,1.1S19.4,7.5,20,7.5z"/>
		<path class="st0" d="M65.2,47.5c0.6,0,1.1-0.5,1.1-1.1v-4c0-1.7-1.2-3.3-2.9-3.6c-7-1.4-14.1-1.4-21,0c-1.7,0.4-3,1.9-3,3.6V56
			c0,0.4,0.1,0.7,0.2,1.1c1.5,5.2,5.4,9.3,11.7,12.6c1,0.5,2.2,0.5,3.2,0.1c5.7-2.7,9.5-6.8,11.6-12.5c0.2-0.4,0.2-0.9,0.2-1.3v-4.1
			c0-0.6-0.5-1.1-1.1-1.1c-0.6,0-1.1,0.5-1.1,1.1v4.1c0,0.2,0,0.4-0.1,0.6c-1.9,5.2-5.4,8.9-10.5,11.3c-0.4,0.2-0.9,0.2-1.2,0
			c-5.8-3-9.2-6.6-10.6-11.2c0-0.1-0.1-0.3-0.1-0.5V42.4c0-0.7,0.5-1.3,1.2-1.5c6.6-1.4,13.4-1.4,20.1,0c0.7,0.1,1.1,0.7,1.1,1.5v4
			C64.1,47,64.6,47.5,65.2,47.5L65.2,47.5z"/>
		<path class="st0" d="M52.9,59.2c0.6,0,1.1-0.5,1.1-1.1v-4.3c1.9-0.5,3.3-2.2,3.3-4.3c0-2.5-2-4.4-4.4-4.4s-4.4,2-4.4,4.4
			c0,2.1,1.4,3.8,3.3,4.3v4.3C51.8,58.7,52.3,59.2,52.9,59.2z M50.6,49.5c0-1.2,1-2.3,2.3-2.3s2.3,1,2.3,2.3s-1,2.3-2.3,2.3
			S50.6,50.8,50.6,49.5z"/>
	</g>
</g>
</svg>
