<?xml version="1.0" encoding="utf-8"?>
<!-- Generator: Adobe Illustrator 26.5.0, SVG Export Plug-In . SVG Version: 6.00 Build 0)  -->
<svg version="1.1" id="Layer_1" xmlns="http://www.w3.org/2000/svg" xmlns:xlink="http://www.w3.org/1999/xlink" x="0px" y="0px"
	 width="65px" height="65px" viewBox="0 0 65 65" style="enable-background:new 0 0 65 65;" xml:space="preserve">
<style type="text/css">
	.st0{fill:#EDEDEF;}
	.st1{fill:#D2D7DB;}
	.st2{fill:#F44336;}
	.st3{fill:#757575;}
	.st4{fill:#FFD54F;}
	.st5{fill:#263238;}
	.st6{fill:#3E2723;}
	.st7{fill:#D32F2F;}
</style>
<path class="st0" d="M50.2,60.9c6.1-3.7,11.3-9,13.3-14.9c2.2-6.5-1.5-11.9-8.1-13.9c-2.9-0.9-6.3-1-9.3-1.7
	c-3.3-0.8-4.7-2.7-5.5-5.5c-1.7-6.1-4-12.2-11.1-14.8c-3.1-1.2-7-1.5-10.7-0.4C14.4,11,10.8,13.8,8,17c-3,3.4-5.9,7.8-6.6,12
	c-1.2,3.7-1.6,7.5-1.3,11.2C0.3,43.7,3.3,56.5,13,61.5C24.5,67.4,43.5,65,50.2,60.9z"/>
<path class="st1" d="M57,4v32.1c0,0.4-0.4,0.8-0.8,0.8H20.8c-0.4,0-0.8-0.4-0.8-0.8V4c0-0.4,0.4-0.8,0.8-0.8h35.4
	C56.6,3.2,57,3.6,57,4z"/>
<path class="st2" d="M57,4v7.2H20V4c0-0.4,0.4-0.8,0.8-0.8h35.4C56.6,3.2,57,3.6,57,4z"/>
<path class="st3" d="M32.1,15.3v4.8c0,0.4-0.4,0.8-0.8,0.8c0,0,0,0,0,0h-4.8c-0.4,0-0.8-0.4-0.8-0.8c0,0,0,0,0,0v-4.8
	c0-0.4,0.4-0.8,0.8-0.8c0,0,0,0,0,0h4.8C31.7,14.5,32.1,14.8,32.1,15.3C32.1,15.3,32.1,15.3,32.1,15.3z M31.2,24.1h-4.8
	c-0.4,0-0.8,0.4-0.8,0.8c0,0,0,0,0,0v4.8c0,0.4,0.4,0.8,0.8,0.8c0,0,0,0,0,0h4.8c0.4,0,0.8-0.4,0.8-0.8c0,0,0,0,0,0v-4.8
	C32.1,24.5,31.7,24.1,31.2,24.1C31.3,24.1,31.3,24.1,31.2,24.1z M40.9,14.5h-4.8c-0.4,0-0.8,0.4-0.8,0.8c0,0,0,0,0,0v4.8
	c0,0.4,0.4,0.8,0.8,0.8c0,0,0,0,0,0h4.8c0.4,0,0.8-0.4,0.8-0.8c0,0,0,0,0,0v-4.8C41.7,14.8,41.3,14.5,40.9,14.5
	C40.9,14.5,40.9,14.5,40.9,14.5z M40.9,24.1h-4.8c-0.4,0-0.8,0.4-0.8,0.8c0,0,0,0,0,0v4.8c0,0.4,0.4,0.8,0.8,0.8c0,0,0,0,0,0h4.8
	c0.4,0,0.8-0.4,0.8-0.8c0,0,0,0,0,0v-4.8C41.7,24.5,41.3,24.1,40.9,24.1C40.9,24.1,40.9,24.1,40.9,24.1z M50.5,14.5h-4.8
	c-0.4,0-0.8,0.4-0.8,0.8c0,0,0,0,0,0v4.8c0,0.4,0.4,0.8,0.8,0.8c0,0,0,0,0,0h4.8c0.4,0,0.8-0.4,0.8-0.8c0,0,0,0,0,0v-4.8
	C51.3,14.8,51,14.5,50.5,14.5C50.5,14.5,50.5,14.5,50.5,14.5z"/>
<path class="st4" d="M65,24.9V41c0,0.4-0.4,0.8-0.8,0.8H48.1c-0.4,0-0.8-0.4-0.8-0.8V24.9c0-0.4,0.4-0.8,0.8-0.8h16.1
	C64.6,24.1,65,24.5,65,24.9z"/>
<path class="st5" d="M50.5,35.4c0-0.4,0.4-0.8,0.8-0.8c0,0,0,0,0,0h3.2c0.4,0,0.8,0.4,0.8,0.8c0,0.4-0.4,0.8-0.8,0.8h-3.2
	C50.9,36.2,50.5,35.8,50.5,35.4C50.5,35.4,50.5,35.4,50.5,35.4z M54.6,37h-3.2c-0.4,0-0.8,0.4-0.8,0.8c0,0.4,0.4,0.8,0.8,0.8h3.2
	c0.4,0,0.8-0.4,0.8-0.8C55.4,37.3,55,37,54.6,37z"/>
<path class="st6" d="M60.2,24.1v7.2c0,0.3-0.1,0.5-0.4,0.7c-0.2,0.2-0.5,0.2-0.8,0l-2.9-1.4l-2.9,1.4c-0.4,0.2-0.9,0-1.1-0.3
	c-0.1-0.1-0.1-0.2-0.1-0.4v-7.2H60.2z"/>
<path class="st7" d="M32.9,0.8v6.4c0,0.4-0.4,0.8-0.8,0.8c0,0,0,0,0,0h-4.8c-0.4,0-0.8-0.4-0.8-0.8c0,0,0,0,0,0V0.8
	c0-0.4,0.4-0.8,0.8-0.8c0,0,0,0,0,0h4.8C32.5,0,32.9,0.4,32.9,0.8C32.9,0.8,32.9,0.8,32.9,0.8z M50.5,0h-4.8c-0.4,0-0.8,0.4-0.8,0.8
	c0,0,0,0,0,0v6.4c0,0.4,0.4,0.8,0.8,0.8c0,0,0,0,0,0h4.8c0.4,0,0.8-0.4,0.8-0.8c0,0,0,0,0,0V0.8C51.3,0.4,51,0,50.5,0
	C50.5,0,50.5,0,50.5,0z"/>
</svg>
