<?xml version="1.0" encoding="utf-8"?>
<!-- Generator: Adobe Illustrator 26.5.0, SVG Export Plug-In . SVG Version: 6.00 Build 0)  -->
<svg version="1.1" id="Layer_1" xmlns="http://www.w3.org/2000/svg" xmlns:xlink="http://www.w3.org/1999/xlink" x="0px" y="0px"
	 width="65px" height="65px" viewBox="0 0 65 65" style="enable-background:new 0 0 65 65;" xml:space="preserve">
<style type="text/css">
	.st0{fill:#EDEDEF;}
	.st1{fill:#9ED0FF;}
	.st2{fill:#73BCFF;}
	.st3{fill:#3AAAFF;}
	.st4{fill:#0095FF;}
	.st5{fill:#FF9F00;}
	.st6{fill:#FF7816;}
</style>
<path class="st0" d="M50.2,60.9c6.1-3.7,11.3-9,13.3-14.9c2.2-6.5-1.5-11.9-8.1-13.9c-2.9-0.9-6.3-1-9.3-1.7
	c-3.3-0.8-4.7-2.7-5.5-5.5c-1.7-6.1-4-12.2-11.1-14.8c-3.1-1.2-7-1.5-10.7-0.4C14.4,11,10.8,13.8,8,17c-3,3.4-5.9,7.8-6.6,12
	c-1.2,3.7-1.6,7.5-1.3,11.2C0.3,43.7,3.3,56.5,13,61.5C24.5,67.4,43.5,65,50.2,60.9z"/>
<g>
	<path class="st1" d="M56.3,29.5H23.6L15,50h50L56.3,29.5z"/>
	<path class="st2" d="M65,50H40V29.5h16.3L65,50z"/>
	<path class="st3" d="M54.4,32.4H25.5l-6.1,14.6h41.1L54.4,32.4z"/>
	<path class="st4" d="M60.5,47.1H40V32.4h14.4L60.5,47.1z"/>
	<path class="st5" d="M40,0c-7.3,0-13.2,6-13.2,13.3c0,2.5,0.7,5,2,7.1L40,38.1l11.2-17.7c1.3-2.1,2-4.6,2-7.1C53.2,6,47.3,0,40,0z
		 M40,20.7c-4,0-7.3-3.4-7.3-7.4S36,5.9,40,5.9s7.3,3.4,7.3,7.4S44,20.7,40,20.7z"/>
	<path class="st1" d="M32.3,30.8l2.9,0.4L33,48.7l-2.9-0.4L32.3,30.8z"/>
	<path class="st2" d="M47,48.7l-2.3-17.6l2.9-0.4l2.3,17.6L47,48.7z"/>
	<path class="st1" d="M21.6,38.3h36.7v2.9H21.6V38.3z"/>
	<path class="st6" d="M53.2,13.3c0,2.5-0.7,5-2,7.1L40,38.1V20.7c4,0,7.3-3.4,7.3-7.4S44,5.9,40,5.9V0C47.3,0,53.2,6,53.2,13.3z"/>
	<path class="st2" d="M40,38.3h18.3v2.9H40V38.3z"/>
</g>
</svg>
