<svg version="1.2" xmlns="http://www.w3.org/2000/svg" viewBox="0 0 70 70" width="70" height="70"><style>.a{fill:#ff5808}.b{fill:#bf4206}.c{fill:#fbda4a}.d{fill:#fff7d4}.e{fill:#fdec9d}.f{fill:#ff9d05}.g{fill:#fbb841}.h{fill:#166769}.i{fill:#0f9887}.j{fill:#c0c0c0}.k{fill:#d2d2d2}.l{fill:#828282}.m{fill:#a1a1a1}.n{fill:#636363}</style><path fill-rule="evenodd" class="a" d="m35 70c-19.4 0-35-15.6-35-35 0-19.4 15.6-35 35-35 19.4 0 35 15.6 35 35 0 19.4-15.6 35-35 35z"/><path class="b" d="m69.2 42.4l-17.2-17.2-4.5 2.4-3.9-2.4-10.9-11-15.1 41.6 14.1 14q1.6 0.2 3.3 0.2c16.8 0 30.8-11.8 34.2-27.6z"/><path fill-rule="evenodd" class="c" d="m52 53.4v2.4h-9.8v-2.4z"/><path fill-rule="evenodd" class="c" d="m48.3 44v10.6h-2.4v-10.6z"/><path fill-rule="evenodd" class="d" d="m52 25.2v6.1l-4.9 5-4.9-5v-6.1z"/><path class="e" d="m52 31.3v9c0 2.7-2.2 4.9-4.9 4.9-2.7 0-4.9-2.2-4.9-4.9v-9h2.4l2.5 5 2.4-5z"/><path fill-rule="evenodd" class="f" d="m32.7 14.2v9.7l-7.3 2.5 2.4-12.2z"/><path fill-rule="evenodd" class="g" d="m27.8 14.2v12.2l-4.9-2.5v-9.7z"/><path class="h" d="m34.2 30.8l0.8 1.7h-11.3l4.1-8.6h4.9c0 3.3 0.7 5 1.5 6.9z"/><path class="i" d="m27.8 23.9v8.6h-7.2l0.8-1.7c0.8-1.9 1.5-3.6 1.5-6.9h4.9z"/><path fill-rule="evenodd" class="j" d="m39.8 30l-1.8 25.8h-10.2l-5.7-12.9 5.7-12.9z"/><path fill-rule="evenodd" class="k" d="m27.8 30v25.8h-10.2l-1.8-25.8z"/><path class="g" d="m44.6 31.3v9c0 1.4 1.1 2.5 2.5 2.5 1.3 0 2.4-1.1 2.4-2.5v-9z"/><path class="l" d="m30.9 38.5c1.1 1 1.8 2.3 1.8 3.8 0 2.7-2.2 4.9-4.9 4.9v-2.4c1.4 0 2.4-1.1 2.4-2.5 0-0.7-0.3-1.4-0.9-1.9z"/><path class="m" d="m27.8 44.8v2.4c-2.7 0-4.9-2.2-4.9-4.9 0-1.5 0.7-2.8 1.8-3.8l1.6 1.9c-0.6 0.5-0.9 1.2-0.9 1.9 0 1.4 1.1 2.5 2.4 2.5z"/><path class="n" d="m27.8 35c2 0 3.7 1.6 3.7 3.7 0 2-1.7 3.6-3.7 3.6l-1.2-3.6z"/><path class="l" d="m27.8 35v7.3c-2 0-3.7-1.6-3.7-3.6 0-2.1 1.7-3.7 3.7-3.7z"/></svg>