<?xml version="1.0" encoding="utf-8"?>
<!-- Generator: Adobe Illustrator 26.5.0, SVG Export Plug-In . SVG Version: 6.00 Build 0)  -->
<svg version="1.1" id="Capa_1" xmlns="http://www.w3.org/2000/svg" xmlns:xlink="http://www.w3.org/1999/xlink" x="0px" y="0px"
	 width="70px" height="70px" viewBox="0 0 70 70" style="enable-background:new 0 0 70 70;" xml:space="preserve">
<style type="text/css">
	.st0{fill:#FFFFFF;}
</style>
<g>
	<g>
		<path class="st0" d="M69,18.4C69,18.4,69,18.4,69,18.4L69,18.4l-4.5-0.6c-0.6-0.1-1.1-0.7-1-1.3c0-0.3,0.2-0.6,0.5-0.8l3.7-2.7
			c0.5-0.4,0.6-1.1,0.2-1.6l-4.2-5.6c-0.4-0.5-1.1-0.6-1.6-0.2l-3.7,2.7c-0.5,0.4-1.2,0.3-1.6-0.2c-0.2-0.2-0.3-0.6-0.2-0.9l0.6-4.5
			c0.1-0.6-0.3-1.2-1-1.3c0,0,0,0,0,0l-6.9-1c-0.6-0.1-1.2,0.3-1.3,1c0,0,0,0,0,0l-0.6,4.5c-0.1,0.6-0.7,1.1-1.3,1
			c-0.3,0-0.6-0.2-0.8-0.5l-2.7-3.7c-0.4-0.5-1.1-0.6-1.6-0.2l-3.5,2.6c-1.6-0.2-3.2-0.2-4.8,0c-10.3,1.2-18.5,9.4-19.5,19.8
			c0,0.3,0,0.7-0.1,1h-0.3c-0.6,0-1,0.4-1.1,0.9l-0.8,3.8l-3.2-2.2c-0.5-0.3-1.1-0.3-1.5,0.1L2.7,32c-0.4,0.4-0.5,1-0.1,1.5l2.2,3.2
			l-3.8,0.8C0.4,37.6,0,38.1,0,38.6v4.6c0,0.5,0.4,1,0.9,1.1l3.8,0.8l-2.2,3.2c-0.3,0.5-0.3,1.1,0.1,1.5l3.5,3.5
			c0.4,0.4,1,0.5,1.5,0.1l3.2-2.2l0.8,3.8c0.1,0.5,0.6,0.9,1.1,0.9h4.6c0.5,0,1-0.4,1.1-0.9l0.8-3.8l3.2,2.2
			c0.5,0.3,1.1,0.3,1.5-0.1l1.8-1.8v3.3c0,1.7,0.9,3.2,2.3,4v6.5c0,2.6,2.1,4.6,4.6,4.6h4.6c2.6,0,4.6-2.1,4.6-4.6v-6.5
			c1.4-0.8,2.3-2.3,2.3-4v-4.6c0-1.9,1-3.7,2.7-4.7c1-0.6,1.9-1.3,2.7-2.1l-1.5-1.7c-0.8,0.7-1.6,1.3-2.4,1.9
			c-2.3,1.4-3.7,4-3.7,6.7v4.6c0,1.3-1,2.3-2.3,2.3h-9.3c-1.3,0-2.3-1-2.3-2.3v-4.7c0-2.7-1.4-5.1-3.7-6.6
			c-9.2-5.8-12-17.9-6.2-27.1c3.6-5.7,9.9-9.2,16.6-9.2c0,0,0,0.1,0,0.1c0,0.3,0,0.6,0.2,0.9l2.7,3.7c0.3,0.4,0.3,0.9,0.1,1.3
			c-0.2,0.4-0.7,0.6-1.2,0.6l-4.5-0.6c-0.6-0.1-1.2,0.3-1.3,1c0,0,0,0,0,0l-1,6.9c-0.1,0.6,0.3,1.2,1,1.3c0,0,0,0,0,0l4.5,0.6
			c0.6,0.1,1.1,0.7,1,1.3c0,0.3-0.2,0.6-0.5,0.8l-3.7,2.7c-0.5,0.4-0.6,1.1-0.2,1.6l4.2,5.6c0.4,0.5,1.1,0.6,1.6,0.2l3.7-2.7
			c0.5-0.4,1.2-0.3,1.6,0.2c0.2,0.2,0.3,0.6,0.2,0.9l-0.6,4.5c-0.1,0.6,0.3,1.2,1,1.3c0,0,0,0,0,0l6.9,1c0.1,0,0.1,0,0.2,0
			c0.6,0,1.1-0.4,1.2-1l0.6-4.5c0.1-0.6,0.7-1.1,1.3-1c0.3,0,0.6,0.2,0.8,0.5l2.7,3.7c0.4,0.5,1.1,0.6,1.6,0.2l5.6-4.2
			c0.5-0.4,0.6-1.1,0.2-1.6l-2.7-3.7c-0.3-0.4-0.3-0.9-0.1-1.3c0.2-0.4,0.7-0.6,1.2-0.6l4.5,0.6c0.6,0.1,1.2-0.3,1.3-1c0,0,0,0,0,0
			l1-6.9C70.1,19.1,69.6,18.5,69,18.4z M30.5,59.5h9.3v2.3h-9.3V59.5z M30.5,64.2h9.3v1.2c0,1.3-1,2.3-2.3,2.3h-4.6
			c-1.3,0-2.3-1-2.3-2.3V64.2z M21.3,44.2c0.6,0.5,1.3,1,2,1.4c1.1,0.7,1.9,1.7,2.3,3l-2.5,2.5l-2.4-1.7c-1.1-0.7-2.5-0.5-3.2,0.6
			c-0.2,0.3-0.3,0.5-0.4,0.8l-0.6,2.9h-2.8l-0.6-2.9c-0.3-1.3-1.5-2.1-2.8-1.8c-0.3,0.1-0.6,0.2-0.8,0.4l-2.4,1.7L5,48.9l1.7-2.4
			c0.7-1.1,0.5-2.5-0.6-3.2c-0.3-0.2-0.5-0.3-0.8-0.4l-2.9-0.6v-2.8L5.2,39c1.3-0.3,2.1-1.5,1.8-2.8c-0.1-0.3-0.2-0.6-0.4-0.8L5,33
			l2.1-2.1l2.4,1.7c1.1,0.7,2.5,0.5,3.2-0.6c0.2-0.3,0.3-0.5,0.4-0.8l0.2-1c0.2,1.3,0.5,2.7,0.9,3.9c-3.8,0.5-6.6,3.9-6.1,7.7
			c0.5,3.8,3.9,6.6,7.7,6.1C18.2,47.6,20.2,46.2,21.3,44.2z M19.5,42.5c-0.9,2.4-3.5,3.7-5.9,2.8c-2.4-0.9-3.7-3.5-2.8-5.9
			c0.7-1.8,2.4-3.1,4.4-3.1c0,0,0,0,0,0C16.2,38.6,17.7,40.7,19.5,42.5z M66.9,25.1l-3.4-0.5c-1.9-0.3-3.7,1.1-3.9,3
			c-0.1,0.9,0.1,1.8,0.7,2.6l2,2.7l-3.7,2.8l-2-2.7c-1.2-1.5-3.3-1.9-4.9-0.7c-0.7,0.6-1.2,1.4-1.4,2.3l-0.5,3.4l-4.6-0.7l0.5-3.4
			c0.3-1.9-1.1-3.7-3-3.9c-0.9-0.1-1.8,0.1-2.6,0.7l-2.7,2l-2.8-3.7l2.7-2c1.5-1.2,1.9-3.3,0.7-4.9c-0.6-0.7-1.4-1.2-2.3-1.4
			l-3.4-0.5l0.7-4.6l3.4,0.5c1.9,0.3,3.7-1.1,3.9-3c0.1-0.9-0.1-1.8-0.7-2.6l-2-2.7L41.4,5l2,2.7c1.2,1.5,3.3,1.9,4.9,0.7
			c0.7-0.6,1.2-1.4,1.4-2.3l0.5-3.4l4.6,0.7l-0.5,3.4c-0.3,1.9,1.1,3.7,3,3.9c0.9,0.1,1.8-0.1,2.6-0.7l2.7-2l2.8,3.7l-2.7,2
			c-1.5,1.2-1.9,3.3-0.7,4.9c0.6,0.7,1.4,1.2,2.3,1.4l3.4,0.5L66.9,25.1z"/>
	</g>
</g>
<g>
	<g>
		<path class="st0" d="M49.9,11.1c-5.1,0-9.3,4.2-9.3,9.3s4.2,9.3,9.3,9.3s9.3-4.2,9.3-9.3C59.2,15.2,55.1,11.1,49.9,11.1z
			 M49.9,27.3c-3.8,0-7-3.1-7-7s3.1-7,7-7s7,3.1,7,7C56.9,24.2,53.8,27.3,49.9,27.3z"/>
	</g>
</g>
<g>
	<g>
		<rect x="34" y="51.4" class="st0" width="2.3" height="3.5"/>
	</g>
</g>
<g>
	<g>
		<path class="st0" d="M30.1,40c-7.2-2.8-10.7-10.9-7.9-18.1c1.1-2.8,3-5.1,5.6-6.7l-1.2-2c-7.6,4.8-9.9,14.8-5.1,22.4
			c1.9,2.9,4.6,5.2,7.8,6.5c2.9,1.1,4.8,3.9,4.8,6.9h2.3C36.3,45.1,33.8,41.4,30.1,40z"/>
	</g>
</g>
<g>
	<g>
		<rect x="57.2" y="43.3" class="st0" width="8.1" height="2.3"/>
	</g>
</g>
<g>
	<g>
		
			<rect x="58.4" y="48.6" transform="matrix(0.6401 -0.7683 0.7683 0.6401 -19.4005 64.8746)" class="st0" width="2.3" height="9.1"/>
	</g>
</g>
<g>
	<g>
		<rect x="50.3" y="52.6" class="st0" width="2.3" height="8.1"/>
	</g>
</g>
<g>
	<g>
		<rect x="1.3" y="18.9" transform="matrix(0.9701 -0.2425 0.2425 0.9701 -4.6778 2.0809)" class="st0" width="9.6" height="2.3"/>
	</g>
</g>
<g>
	<g>
		<rect x="6.7" y="5.2" transform="matrix(0.5812 -0.8137 0.8137 0.5812 -4.9867 10.6514)" class="st0" width="2.3" height="10"/>
	</g>
</g>
<g>
	<g>
		<rect x="14.2" y="0.1" transform="matrix(0.9688 -0.2477 0.2477 0.9688 -0.7447 3.9639)" class="st0" width="2.3" height="9.6"/>
	</g>
</g>
</svg>
