<?xml version="1.0" encoding="utf-8"?>
<!-- Generator: Adobe Illustrator 26.5.0, SVG Export Plug-In . SVG Version: 6.00 Build 0)  -->
<svg version="1.1" id="Layer_1" xmlns="http://www.w3.org/2000/svg" xmlns:xlink="http://www.w3.org/1999/xlink" x="0px" y="0px"
	 width="50px" height="50px" viewBox="0 0 50 50" style="enable-background:new 0 0 50 50;" xml:space="preserve">
<style type="text/css">
	.st0{fill:#64B5F6;}
	.st1{fill:#42A5F5;}
	.st2{fill:#EEEEEE;}
	.st3{fill:#E0E0E0;}
	.st4{fill:#FFD54F;}
	.st5{fill:#FFCA28;}
	.st6{fill:#FFB74D;}
	.st7{fill:#FFA726;}
</style>
<g id="_09-Advertising">
	<path class="st0" d="M40.7,22.9v-4.2c0-0.8-0.5-1.4-1.2-1.6l-2.8-0.8c-0.4-1.3-0.9-2.6-1.6-3.8l1.4-2.5c0.4-0.7,0.3-1.5-0.3-2l-3-3
		c-0.5-0.5-1.4-0.7-2-0.3L28.7,6c-1.2-0.7-2.5-1.2-3.8-1.6l-0.8-2.8c-0.2-0.7-0.9-1.2-1.6-1.2h-4.2c-0.8,0-1.4,0.5-1.6,1.2l-0.8,2.8
		C14.5,4.8,13.2,5.3,12,6L9.5,4.6C8.8,4.2,8,4.4,7.5,4.9l-3,3c-0.5,0.5-0.7,1.4-0.3,2l1.4,2.5c-0.7,1.2-1.2,2.5-1.6,3.8L1.2,17
		C0.5,17.2,0,17.9,0,18.7v4.2c0,0.8,0.5,1.4,1.2,1.6L4,25.3c0.4,1.3,0.9,2.6,1.6,3.8l-1.4,2.5c-0.4,0.7-0.3,1.5,0.3,2l3,3
		c0.5,0.5,1.4,0.7,2,0.3l2.5-1.4c1.2,0.7,2.5,1.2,3.8,1.6l0.8,2.8c0.2,0.7,0.9,1.2,1.6,1.2h4.2c0.8,0,1.4-0.5,1.6-1.2l0.8-2.8
		c1.3-0.4,2.6-0.9,3.8-1.6l2.5,1.4c0.7,0.4,1.5,0.3,2-0.3l3-3c0.5-0.5,0.7-1.4,0.3-2l-1.4-2.5c0.7-1.2,1.2-2.5,1.6-3.8l2.8-0.8
		C40.2,24.3,40.7,23.6,40.7,22.9z"/>
	<path class="st1" d="M40.7,18.7v4.2c0,0.8-0.5,1.4-1.2,1.6l-2.8,0.8c-0.4,1.3-0.9,2.6-1.6,3.8l1.4,2.5c0.4,0.7,0.2,1.5-0.3,2l-3,3
		c-0.5,0.5-1.4,0.7-2,0.3l-2.5-1.4c-1.2,0.7-2.5,1.2-3.8,1.6l-0.8,2.8c-0.2,0.7-0.9,1.2-1.6,1.2h-4.2c-0.8,0-1.4-0.5-1.6-1.2
		l-0.8-2.8c-1.3-0.4-2.6-0.9-3.8-1.6l-2.5,1.4c-0.7,0.4-1.5,0.2-2-0.3l-3-3c-0.1-0.1-0.2-0.2-0.3-0.4c2.7,1.2,5.6,1.9,8.5,1.9
		c11.2,0,20.3-9.1,20.3-20.3c0-3.4-0.9-6.8-2.5-9.9l0.7-0.4c0.7-0.4,1.5-0.2,2,0.3l3,3c0.5,0.5,0.7,1.4,0.3,2l-1.4,2.5
		c0.7,1.2,1.2,2.5,1.6,3.8l2.8,0.8C40.2,17.2,40.7,17.9,40.7,18.7z"/>
	<circle class="st2" cx="20.3" cy="20.8" r="10.2"/>
	<path class="st3" d="M30.5,20.8c0,5.6-4.6,10.2-10.2,10.2c-2.7,0-5.3-1.1-7.2-3c1,0.3,2,0.4,3,0.4c5.6,0,10.2-4.6,10.2-10.2
		c0-2.7-1.1-5.3-3-7.2C27.6,12.3,30.5,16.3,30.5,20.8z"/>
	<path class="st4" d="M22.9,37.7H28l0,0V47c0,1.4-1.1,2.5-2.5,2.5l0,0l0,0c-1.4,0-2.5-1.1-2.5-2.5l0,0V37.7L22.9,37.7z"/>
	<path class="st5" d="M28,37.7V47c0,1.4-1.1,2.5-2.5,2.5c0,0,0,0,0,0v-5.1c0-1.4-1.1-2.5-2.5-2.5c0,0,0,0,0,0v-4.2H28z"/>
	<path class="st2" d="M29.2,27.5h-4.6c-3.3,0-5.9,2.7-5.9,5.9l0,0c0,3.3,2.7,5.9,5.9,5.9h4.6c7.3,0,9.8,5.1,9.8,5.1v-22
		C39,22.5,36.4,27.5,29.2,27.5z"/>
	<path class="st4" d="M29.2,27.5h-4.6c-3.3,0-5.9,2.7-5.9,5.9l0,0c0,3.3,2.7,5.9,5.9,5.9h4.6c7.3,0,9.8,5.1,9.8,5.1v-22
		C39,22.5,36.4,27.5,29.2,27.5z"/>
	<path class="st6" d="M28,27.5v11.9h-3.4c-3.3,0-5.9-2.7-5.9-5.9c0-3.3,2.7-5.9,5.9-5.9H28z"/>
	<path class="st5" d="M39,22.5v22c0,0-2.5-5.1-9.8-5.1h-4.6c-3.3,0-5.9-2.7-5.9-5.9c0,0,0,0,0,0c0-0.4,0-0.9,0.1-1.3
		c0.6,2.7,3,4.7,5.8,4.7h6.8c1.9,0,3.4-1.5,3.4-3.4c0,0,0,0,0,0v-7.2C36.5,25.5,38,24.1,39,22.5z"/>
	<path class="st7" d="M28,36.9v2.5h-3.4c-3.3,0-5.9-2.7-5.9-5.9c0,0,0,0,0,0c0-0.4,0-0.9,0.1-1.3c0.6,2.7,3,4.7,5.8,4.7H28z"/>
	<path class="st6" d="M39,30.9h0.8c1.4,0,2.5,1.1,2.5,2.5l0,0c0,1.4-1.1,2.5-2.5,2.5H39l0,0V30.9L39,30.9z"/>
	<path class="st7" d="M42.2,34.3c-0.1,0.4-0.3,0.7-0.6,1c-0.5,0.5-1.1,0.7-1.8,0.7H39v-5.1h0.8c0.1,0,0.1,0,0.2,0
		c-0.1,0.3-0.2,0.6-0.2,0.8c0,0.7,0.3,1.3,0.7,1.8C41,34,41.6,34.3,42.2,34.3z"/>
	<path class="st6" d="M49.2,34.3h-3.4c-0.5,0-0.8-0.4-0.8-0.8s0.4-0.8,0.8-0.8h3.4c0.5,0,0.8,0.4,0.8,0.8S49.6,34.3,49.2,34.3z"/>
	<path class="st6" d="M45.8,30.1c-0.5,0-0.8-0.4-0.8-0.8c0-0.3,0.2-0.6,0.5-0.8l3.4-1.7c0.4-0.2,0.9,0,1.1,0.4
		c0.2,0.4,0,0.9-0.4,1.1L46.1,30C46,30.1,45.9,30.1,45.8,30.1z"/>
	<path class="st6" d="M49.2,40.3c-0.1,0-0.3,0-0.4-0.1l-3.4-1.7c-0.4-0.2-0.6-0.7-0.4-1.1c0.2-0.4,0.7-0.6,1.1-0.4l3.4,1.7
		c0.4,0.2,0.6,0.7,0.4,1.1C49.8,40.1,49.5,40.3,49.2,40.3z"/>
</g>
</svg>
