<?xml version="1.0" encoding="utf-8"?>
<!-- Generator: Adobe Illustrator 26.5.0, SVG Export Plug-In . SVG Version: 6.00 Build 0)  -->
<svg version="1.1" id="Capa_1" xmlns="http://www.w3.org/2000/svg" xmlns:xlink="http://www.w3.org/1999/xlink" x="0px" y="0px"
	 width="50px" height="50px" viewBox="0 0 50 50" style="enable-background:new 0 0 50 50;" xml:space="preserve">
<style type="text/css">
	.st0{fill:#E9EAEB;}
	.st1{fill:#B9BBC1;}
	.st2{fill:#FDC74F;}
	.st3{fill:#FCA629;}
	.st4{fill:#E60D28;}
	.st5{fill:#F2F2F2;}
	.st6{fill:#FC502A;}
	.st7{fill:#FFFFFF;}
	.st8{fill:#8B8996;}
	.st9{fill:#706F7F;}
	.st10{fill:#00C6C8;}
	.st11{fill:#0FB0C0;}
</style>
<rect x="3.6" y="9.6" class="st0" width="42.8" height="36.6"/>
<rect x="41" y="9.6" class="st1" width="5.4" height="36.6"/>
<path class="st2" d="M46.5,9.6H3.5v-6c0-0.5,0.4-0.9,0.9-0.9h41.3c0.5,0,0.9,0.4,0.9,0.9V9.6L46.5,9.6z"/>
<path class="st3" d="M45.7,2.7h-4.6v4.5h5.4V3.6C46.5,3.1,46.2,2.7,45.7,2.7z"/>
<path class="st4" d="M3.6,20.5L3.6,20.5c-2,0-3.6-1.6-3.6-3.6V14h7.1v2.9C7.2,18.9,5.6,20.5,3.6,20.5z"/>
<path class="st5" d="M10.7,20.5L10.7,20.5c-2,0-3.6-1.6-3.6-3.6V14h7.1v2.9C14.3,18.9,12.7,20.5,10.7,20.5z"/>
<path class="st4" d="M17.9,20.5L17.9,20.5c-2,0-3.6-1.6-3.6-3.6V14h7.1v2.9C21.4,18.9,19.8,20.5,17.9,20.5z"/>
<path class="st5" d="M25,20.5L25,20.5c-2,0-3.6-1.6-3.6-3.6V14h7.1v2.9C28.6,18.9,27,20.5,25,20.5z"/>
<path class="st4" d="M32.1,20.5L32.1,20.5c-2,0-3.6-1.6-3.6-3.6V14h7.1v2.9C35.7,18.9,34.1,20.5,32.1,20.5z"/>
<path class="st5" d="M39.3,20.5L39.3,20.5c-2,0-3.6-1.6-3.6-3.6V14h7.1v2.9C42.8,18.9,41.2,20.5,39.3,20.5z"/>
<path class="st4" d="M46.4,20.5L46.4,20.5c-2,0-3.6-1.6-3.6-3.6V14H50v2.9C50,18.9,48.4,20.5,46.4,20.5z"/>
<polygon class="st6" points="7.2,14 0,14 3.5,7.2 9.6,7.2 "/>
<polygon class="st7" points="14.3,14 7.2,14 9.6,7.2 15.8,7.2 "/>
<polygon class="st6" points="21.4,14 14.3,14 15.8,7.2 21.9,7.2 "/>
<polygon class="st7" points="28.6,14 21.4,14 21.9,7.2 28.1,7.2 "/>
<polygon class="st6" points="35.7,14 28.6,14 28.1,7.2 34.2,7.2 "/>
<polygon class="st7" points="42.8,14 35.7,14 34.2,7.2 40.4,7.2 "/>
<polygon class="st6" points="50,14 42.8,14 40.4,7.2 46.5,7.2 "/>
<path class="st8" d="M48.4,42.8H1.6c-0.9,0-1.6,0.7-1.6,1.6v2.4c0,0.3,0.2,0.5,0.5,0.5h49.1c0.3,0,0.5-0.2,0.5-0.5v-2.4
	C50,43.6,49.3,42.8,48.4,42.8z"/>
<path class="st9" d="M48.4,42.8h-3.8v4.5h5c0.3,0,0.5-0.2,0.5-0.5v-2.4C50,43.6,49.3,42.8,48.4,42.8z"/>
<path class="st10" d="M42.2,38.1h-22c-0.4,0-0.6-0.3-0.6-0.6V25.3c0-0.4,0.3-0.6,0.6-0.6h22c0.4,0,0.6,0.3,0.6,0.6v12.1
	C42.8,37.8,42.5,38.1,42.2,38.1z"/>
<path class="st11" d="M42.2,24.7h-4.8v13.4h4.8c0.4,0,0.6-0.3,0.6-0.6V25.3C42.8,25,42.5,24.7,42.2,24.7z"/>
<path class="st10" d="M16.5,42.8h-10V25.3c0-0.4,0.3-0.6,0.6-0.6h8.7c0.4,0,0.6,0.3,0.6,0.6L16.5,42.8L16.5,42.8z"/>
<path class="st11" d="M15.8,24.7H11v18.2h5.4V25.3C16.5,25,16.2,24.7,15.8,24.7z"/>
<path class="st7" d="M13.7,34.9c0.4,0,0.8-0.3,0.8-0.8v-1.4c0-0.4-0.3-0.8-0.8-0.8c-0.4,0-0.8,0.3-0.8,0.8v1.4
	C12.9,34.6,13.3,34.9,13.7,34.9z"/>
</svg>
