<?xml version="1.0" encoding="utf-8"?>
<!-- Generator: Adobe Illustrator 26.5.0, SVG Export Plug-In . SVG Version: 6.00 Build 0)  -->
<svg version="1.1" id="Capa_1" xmlns="http://www.w3.org/2000/svg" xmlns:xlink="http://www.w3.org/1999/xlink" x="0px" y="0px"
	 width="65px" height="65px" viewBox="0 0 65 65" style="enable-background:new 0 0 65 65;" xml:space="preserve">
<style type="text/css">
	.st0{fill:#EDEDEF;}
	.st1{fill:#FFC477;}
	.st2{fill:#FFDAAA;}
	.st3{fill:#4CBA68;}
	.st4{fill:#7CCC92;}
	.st5{fill:#2C733F;}
	.st6{fill:#1E81CE;}
	.st7{fill:#3D9AE2;}
	.st8{fill:#EE8700;}
	.st9{fill:#317F46;}
	.st10{fill:#FF9811;}
	.st11{fill:#FFB655;}
	.st12{fill:#4E901E;}
	.st13{fill:#AA6100;}
	.st14{fill:#CC7400;}
	.st15{fill:#FFA733;}
</style>
<path class="st0" d="M50.2,60.9c6.1-3.7,11.3-9,13.3-14.9c2.2-6.5-1.5-11.9-8.1-13.9c-2.9-0.9-6.3-1-9.3-1.7
	c-3.3-0.8-4.7-2.7-5.5-5.5c-1.7-6.1-4-12.2-11.1-14.8c-3.1-1.2-7-1.5-10.7-0.4C14.4,11,10.8,13.8,8,17c-3,3.4-5.9,7.8-6.6,12
	c-1.2,3.7-1.6,7.5-1.3,11.2C0.3,43.7,3.3,56.5,13,61.5C24.5,67.4,43.5,65,50.2,60.9z"/>
<g>
	<path class="st1" d="M54.9,8.7v30.4c0,0.1,0,0.1,0,0.2c-0.1,2.1-1.8,3.7-3.9,3.7H28.9c-2.2,0-3.9-1.8-3.9-3.9V3.9
		c0-1.9,1.3-3.4,3-3.8C28.3,0,28.6,0,28.9,0h17.5c0.6,0,1.2,0.1,1.7,0.4c1.1,0.5,1.4,1.2,3.3,3.1c2.2,2.4,2.7,2.6,3.2,3.7
		C54.8,7.6,54.9,8.2,54.9,8.7z"/>
	<path class="st2" d="M54.9,8.7v30.4c0,0.1,0,0.1,0,0.2c-0.3,0.1-0.6,0.1-0.9,0.1H31.9c-2.2,0-3.9-1.8-3.9-3.9V0.3
		c0-0.1,0-0.1,0-0.2C28.3,0,28.6,0,28.9,0h17.5c0.6,0,1.2,0.1,1.7,0.4c0.4,0.2,0.8,0.5,1.2,0.9l2.1,2.3L53.8,6
		c0.3,0.3,0.6,0.7,0.8,1.1C54.8,7.6,54.9,8.2,54.9,8.7z"/>
	<path class="st3" d="M65,22.4v22.1c0,1.2-0.4,2.4-1.1,3.3c-1,1.4-2.6,2.3-4.5,2.3H45c-3.1,0-5.6-2.5-5.6-5.6V22.4
		c0-2.3,1.4-4.3,3.4-5.1c0.7-0.3,1.4-0.4,2.2-0.4h14.4C62.5,16.8,65,19.3,65,22.4z"/>
	<path class="st4" d="M63.9,23.3v22.1c0,1.2-0.4,2.4-1.1,3.3c-0.7,0.3-1.4,0.4-2.2,0.4H46.2c-3.1,0-5.6-2.5-5.6-5.6V21.4
		c0-1.2,0.4-2.4,1.1-3.3c0.7-0.3,1.4-0.4,2.2-0.4h14.4C61.4,17.7,63.9,20.2,63.9,23.3z"/>
	<path class="st5" d="M54.4,36.9v2.6c0,0.5-0.4,0.8-0.8,0.8h-2.6c-0.5,0-0.8-0.4-0.8-0.8v-2.6c0-0.5,0.4-0.8,0.8-0.8h2.6
		C54,36.1,54.4,36.4,54.4,36.9z"/>
	<path class="st6" d="M61.2,21.8v2.8c0,1-0.8,1.8-1.8,1.8H45.1c-1,0-1.8-0.8-1.8-1.8v-2.8c0-1,0.8-1.8,1.8-1.8h14.3
		C60.4,20,61.2,20.8,61.2,21.8z"/>
	<path class="st7" d="M61.2,21.8v2.8c0,1-0.8,1.8-1.8,1.8H48.1c-1,0-1.8-0.8-1.8-1.8v-2.8c0-1,0.8-1.8,1.8-1.8h11.3
		C60.4,20,61.2,20.8,61.2,21.8z"/>
	<g>
		<path class="st5" d="M47.5,36.9v2.6c0,0.5-0.4,0.8-0.8,0.8h-2.6c-0.5,0-0.8-0.4-0.8-0.8v-2.6c0-0.5,0.4-0.8,0.8-0.8h2.6
			C47.2,36.1,47.5,36.4,47.5,36.9z"/>
		<path class="st5" d="M54.4,30.1v2.6c0,0.5-0.4,0.8-0.8,0.8h-2.6c-0.5,0-0.8-0.4-0.8-0.8v-2.6c0-0.5,0.4-0.8,0.8-0.8h2.6
			C54,29.3,54.4,29.6,54.4,30.1z"/>
	</g>
	<path class="st8" d="M61.3,30.1v2.6c0,0.5-0.4,0.8-0.8,0.8h-2.6c-0.5,0-0.8-0.4-0.8-0.8v-2.6c0-0.5,0.4-0.8,0.8-0.8h2.6
		C60.9,29.3,61.3,29.6,61.3,30.1z"/>
	<g>
		<path class="st5" d="M47.5,30.1v2.6c0,0.5-0.4,0.8-0.8,0.8h-2.6c-0.5,0-0.8-0.4-0.8-0.8v-2.6c0-0.5,0.4-0.8,0.8-0.8h2.6
			C47.2,29.3,47.5,29.6,47.5,30.1z"/>
		<path class="st5" d="M54.4,43.3v2.6c0,0.5-0.4,0.8-0.8,0.8h-2.6c-0.5,0-0.8-0.4-0.8-0.8v-2.6c0-0.5,0.4-0.8,0.8-0.8h2.6
			C54,42.5,54.4,42.9,54.4,43.3z"/>
		<path class="st5" d="M47.5,43.3v2.6c0,0.5-0.4,0.8-0.8,0.8h-2.6c-0.5,0-0.8-0.4-0.8-0.8v-2.6c0-0.5,0.4-0.8,0.8-0.8h2.6
			C47.2,42.5,47.5,42.9,47.5,43.3z"/>
	</g>
	<path class="st8" d="M61.3,37.3v8.1c0,0.8-0.6,1.4-1.4,1.4h-1.4c-0.8,0-1.4-0.6-1.4-1.4v-8.1c0-0.7,0.6-1.2,1.2-1.2H60
		C60.7,36.1,61.3,36.6,61.3,37.3z"/>
	<g>
		<path class="st9" d="M54.4,36.9v0.8c0,0.5-0.4,0.8-0.8,0.8h-2.6c-0.5,0-0.8-0.4-0.8-0.8v-0.8c0-0.5,0.4-0.8,0.8-0.8h2.6
			C54,36.1,54.4,36.4,54.4,36.9z"/>
		<path class="st9" d="M47.5,36.9v0.8c0,0.5-0.4,0.8-0.8,0.8h-2.6c-0.5,0-0.8-0.4-0.8-0.8v-0.8c0-0.5,0.4-0.8,0.8-0.8h2.6
			C47.2,36.1,47.5,36.4,47.5,36.9z"/>
		<path class="st9" d="M54.4,30.1v0.8c0,0.5-0.4,0.8-0.8,0.8h-2.6c-0.5,0-0.8-0.4-0.8-0.8v-0.8c0-0.5,0.4-0.8,0.8-0.8h2.6
			C54,29.3,54.4,29.6,54.4,30.1z"/>
	</g>
	<path class="st10" d="M61.3,30.1v0.8c0,0.5-0.4,0.8-0.8,0.8h-2.6c-0.5,0-0.8-0.4-0.8-0.8v-0.8c0-0.5,0.4-0.8,0.8-0.8h2.6
		C60.9,29.3,61.3,29.6,61.3,30.1z"/>
	<g>
		<path class="st9" d="M47.5,30.1v0.8c0,0.5-0.4,0.8-0.8,0.8h-2.6c-0.5,0-0.8-0.4-0.8-0.8v-0.8c0-0.5,0.4-0.8,0.8-0.8h2.6
			C47.2,29.3,47.5,29.6,47.5,30.1z"/>
		<path class="st9" d="M54.4,43.3v0.8c0,0.5-0.4,0.8-0.8,0.8h-2.6c-0.5,0-0.8-0.4-0.8-0.8v-0.8c0-0.5,0.4-0.8,0.8-0.8h2.6
			C54,42.5,54.4,42.9,54.4,43.3z"/>
		<path class="st9" d="M47.5,43.3v0.8c0,0.5-0.4,0.8-0.8,0.8h-2.6c-0.5,0-0.8-0.4-0.8-0.8v-0.8c0-0.5,0.4-0.8,0.8-0.8h2.6
			C47.2,42.5,47.5,42.9,47.5,43.3z"/>
	</g>
	<path class="st10" d="M61.3,37.3v6.2c0,0.8-0.6,1.4-1.4,1.4h-1.4c-0.8,0-1.4-0.6-1.4-1.4v-6.2c0-0.7,0.6-1.2,1.2-1.2H60
		C60.7,36.1,61.3,36.6,61.3,37.3z"/>
	<path class="st11" d="M54.6,7.2h-4.9c-0.8,0-1.5-0.7-1.5-1.5V0.4c0.4,0.2,0.8,0.5,1.2,0.9l2.1,2.3L53.8,6
		C54.2,6.4,54.4,6.7,54.6,7.2z"/>
	<g>
		<path class="st12" d="M33.9,21.3L33.9,21.3c-0.9-0.3-1.6-0.6-1.6-1.4c0-0.8,0.5-1.2,1.5-1.2c0.7,0,1.1,0.2,1.3,0.3
			c0.2,0.1,0.3,0.1,0.4,0.1c0.4,0,0.6-0.4,0.6-0.7c0-0.6-1-0.9-2-1v-0.6c0-0.4-0.3-0.7-0.7-0.7c-0.4,0-0.7,0.3-0.7,0.7v0.7
			c-1.3,0.3-2,1.2-2,2.5c0,1.8,1.3,2.3,2.3,2.6c1,0.4,1.8,0.7,1.8,1.9c0,1-0.5,1.5-1.6,1.5c-1,0-1.3-0.4-1.6-0.7
			c-0.2-0.2-0.3-0.3-0.5-0.3c-0.4,0-0.7,0.4-0.7,0.7c0,0.6,0.9,1.4,2.2,1.6v0.6c0,0.4,0.3,0.7,0.7,0.7s0.7-0.3,0.7-0.7v-0.6
			c1.4-0.3,2.2-1.3,2.2-2.8C36.4,22.2,35,21.7,33.9,21.3z"/>
		<path class="st12" d="M47.2,11.1h1.9c0.4,0,0.8-0.3,0.8-0.8s-0.3-0.8-0.8-0.8h-1.9c-0.4,0-0.8,0.3-0.8,0.8S46.8,11.1,47.2,11.1z"
			/>
		<path class="st12" d="M30.7,11.1h13.5c0.4,0,0.8-0.3,0.8-0.8s-0.3-0.8-0.8-0.8H30.7c-0.4,0-0.8,0.3-0.8,0.8S30.3,11.1,30.7,11.1z"
			/>
		<path class="st12" d="M33.1,14.9c0.4,0,0.8-0.3,0.8-0.8s-0.3-0.8-0.8-0.8h-2.4c-0.4,0-0.8,0.3-0.8,0.8s0.3,0.8,0.8,0.8H33.1z"/>
		<path class="st12" d="M49.1,13.3h-13c-0.4,0-0.8,0.3-0.8,0.8c0,0.4,0.3,0.8,0.8,0.8h13c0.4,0,0.8-0.3,0.8-0.8
			C49.9,13.7,49.6,13.3,49.1,13.3z"/>
	</g>
	<path class="st13" d="M36.9,47.6c0,0.5-0.2,1-0.6,1.4c-0.3,0.3-0.8,0.6-1.4,0.6H23.2c-1.1,0-1.9-0.9-1.9-1.9c0-0.5,0.2-1,0.6-1.4
		c0.3-0.3,0.8-0.6,1.4-0.6H35C36,45.7,36.9,46.6,36.9,47.6z"/>
	<path class="st14" d="M36.9,43.8c0,0.5-0.2,1-0.6,1.4c-0.3,0.3-0.8,0.6-1.4,0.6H23.2c-1.1,0-1.9-0.9-1.9-1.9c0-0.5,0.2-1,0.6-1.4
		c0.3-0.3,0.8-0.6,1.4-0.6H35C36,41.8,36.9,42.7,36.9,43.8z"/>
	<path class="st8" d="M36.9,39.9c0,0.5-0.2,1-0.6,1.4c-0.3,0.3-0.8,0.6-1.4,0.6H23.2c-1.1,0-1.9-0.9-1.9-1.9c0-0.5,0.2-1,0.6-1.4
		c0.3-0.3,0.8-0.6,1.4-0.6H35C36,38,36.9,38.9,36.9,39.9z"/>
	<path class="st10" d="M36.9,36.1c0,0.5-0.2,1-0.6,1.4C36,37.8,35.5,38,35,38H23.2c-1.1,0-1.9-0.9-1.9-1.9c0-0.4,0.1-0.7,0.3-1
		c0.1-0.1,0.2-0.2,0.3-0.3c0.3-0.3,0.8-0.6,1.4-0.6H35C36,34.1,36.9,35,36.9,36.1z"/>
	<path class="st15" d="M35,34.1H23.2c-1.1,0-1.9-0.9-1.9-1.9l0,0c0-1.1,0.9-1.9,1.9-1.9H35c1.1,0,1.9,0.9,1.9,1.9l0,0
		C36.9,33.3,36,34.1,35,34.1z"/>
	<path class="st14" d="M23.6,37.2v12.5h-1.9c-1.7,0.1-3.3-0.5-4.4-1.6c-4.3-3.8-1.7-10.7,3.9-10.9H23.6z"/>
	<path class="st1" d="M30.1,43.7c-0.1,3.2-2.7,5.9-6,6c-3.5,0.1-6.4-2.5-6.5-6c0,0,0,0,0,0c-0.1-3.4,2.6-6.3,6-6.5
		c3.5-0.1,6.4,2.5,6.5,6C30.1,43.4,30.1,43.6,30.1,43.7z"/>
	<path class="st14" d="M24.9,48.1c-0.1,0-0.2,0-0.2,0c-2.4,0.4-4.8-1.1-5.4-3.6c-0.6-2.5,1-5,3.5-5.6c0.6-0.1,1.3-0.2,1.9,0
		c1.8,0.3,3.3,1.7,3.8,3.6C29,45,27.4,47.5,24.9,48.1z"/>
	<path class="st8" d="M24.9,48.1c-0.1,0-0.2,0-0.2,0c-1.8-0.3-3.3-1.7-3.8-3.6c-0.6-2.5,1-5,3.5-5.6c0.1,0,0.2,0,0.2,0
		c1.8,0.3,3.3,1.7,3.8,3.6C29,45,27.4,47.5,24.9,48.1z"/>
	<path class="st15" d="M30.1,43.7c-0.1,3.2-2.7,5.9-6,6c-3.5,0.1-6.4-2.5-6.5-6c0,0,0,0,0,0h1.6c0,0.3,0.1,0.5,0.1,0.8
		c0.6,2.5,3.1,4.1,5.6,3.5c2.1-0.5,3.6-2.3,3.6-4.3H30.1L30.1,43.7z"/>
	<g>
		<path class="st13" d="M24.4,42.5l-0.1,0c-0.7-0.2-0.7-0.3-0.7-0.5c0-0.2,0.1-0.2,0.1-0.3c0.1-0.1,0.3-0.1,0.5-0.1
			c0.3,0,0.5,0.1,0.6,0.2c0.1,0.1,0.2,0.1,0.4,0.1c0.4,0,0.7-0.4,0.7-0.8c0-0.5-0.4-0.8-1.2-0.9v0c0-0.4-0.3-0.8-0.8-0.8
			c-0.4,0-0.8,0.3-0.8,0.8v0.1C22.5,40.5,22,41.2,22,42c0,1.3,0.9,1.6,1.6,1.9c0.7,0.2,0.9,0.4,0.9,0.8c0,0.3-0.1,0.5-0.6,0.5
			c-0.4,0-0.6-0.2-0.7-0.3c-0.1-0.1-0.3-0.3-0.6-0.3c-0.4,0-0.7,0.4-0.7,0.8c0,0.5,0.5,1,1.3,1.2v0.1c0,0.4,0.3,0.8,0.8,0.8
			c0.4,0,0.8-0.3,0.8-0.8v-0.1c0.8-0.3,1.3-1,1.3-1.9C26.1,43.2,25,42.8,24.4,42.5z"/>
		<path class="st13" d="M18.6,40c-0.3,0.5-0.6,1-0.7,1.5h-2.4c0.2-0.5,0.4-1.1,0.7-1.5H18.6z"/>
		<path class="st13" d="M17.6,44.3h-2.4c-0.1-0.5-0.1-1,0-1.5h2.4C17.6,43.3,17.6,43.8,17.6,44.3z"/>
		<path class="st13" d="M18.7,47.1h-2.4c-0.3-0.5-0.6-1-0.8-1.5h2.4C18.1,46.1,18.4,46.6,18.7,47.1z"/>
	</g>
</g>
</svg>
