<svg version="1.2" xmlns="http://www.w3.org/2000/svg" viewBox="0 0 70 70" width="70" height="70"><style>.a{fill:#f4b844}.b{fill:#fedb41}.c{fill:#00acea}.d{fill:#083863}</style><path class="a" d="m63.3 0.8c3.7 0 6.7 3 6.7 6.7v27.8h-23.3v-34.5z"/><path class="b" d="m70 35.3v27.5c0 3.7-3 6.7-6.7 6.7h-16.6v-34.2z"/><path class="a" d="m46.7 69.4v0.1h-23.1v-0.1-34.1h23.1z"/><path fill-rule="evenodd" class="b" d="m46.7 0.8v34.5h-23.1v-34.5z"/><path class="a" d="m23.6 0.8v34.5h-23.6v-27.8c0-3.7 3-6.7 6.7-6.7z"/><path class="b" d="m0 35.3h23.6v34.2h-16.9c-3.7 0-6.7-3-6.7-6.7z"/><path class="c" d="m61.8 61.9v2.9c0 0.2-0.3 0.5-0.5 0.5h-7.6c-0.3 0-0.5-0.3-0.5-0.5v-2.9z"/><path fill-rule="evenodd" class="c" d="m61.8 53.3v7.6h-8.6v-7.6z"/><path class="c" d="m61.8 51.7v0.8h-8.6v-0.9q0-1 0.5-1.8l2.1-4.5 3.5 0.1 2.1 4.3c0.3 0.6 0.4 1.3 0.4 2z"/><path fill-rule="evenodd" class="c" d="m58.8 41.3v3h-2.7v-3z"/><path fill-rule="evenodd" class="c" d="m58.8 38.9v1.5h-2.7v-1.5z"/><path class="c" d="m39.3 28.2v2.8c0 0.3-0.2 0.5-0.5 0.5h-7.7c-0.3 0-0.5-0.2-0.6-0.5v-2.8z"/><path fill-rule="evenodd" class="c" d="m39.3 19.6v7.5h-8.8v-7.5z"/><path class="c" d="m39.3 17.9v0.9h-8.8v-0.9c0-0.7 0.3-1.3 0.6-1.9l2.2-4.4 3.5 0.1 2.1 4.3c0.3 0.6 0.4 1.3 0.4 1.9z"/><path fill-rule="evenodd" class="c" d="m36.3 7.5v3h-2.9v-3z"/><path fill-rule="evenodd" class="c" d="m36.3 5.3v1.4h-2.9v-1.4z"/><path class="c" d="m16.6 61.9v2.9c0 0.2-0.2 0.5-0.5 0.5h-7.5c-0.3 0-0.5-0.3-0.5-0.5v-2.9z"/><path class="c" d="m8.1 53.3h8.5v7.6h-8.5z"/><path class="c" d="m16.6 51.7v0.8h-8.5v-0.9c0-0.6 0.2-1.3 0.5-1.8l2.1-4.5 3.5 0.1 2.1 4.3c0.3 0.6 0.3 1.3 0.3 2z"/><path fill-rule="evenodd" class="c" d="m13.6 41.3v3h-2.7v-3z"/><path fill-rule="evenodd" class="c" d="m13.6 38.9v1.5h-2.7v-1.5z"/><path class="d" d="m61.8 28.2v2.8c0 0.3-0.3 0.5-0.5 0.5h-7.6c-0.3 0-0.5-0.2-0.5-0.5v-2.8z"/><path fill-rule="evenodd" class="d" d="m61.8 19.6v7.5h-8.6v-7.5z"/><path class="d" d="m61.8 17.9v0.9h-8.6v-0.9q0-1 0.5-1.9l2.1-4.4 3.5 0.1 2.1 4.3c0.3 0.6 0.4 1.3 0.4 1.9z"/><path fill-rule="evenodd" class="d" d="m58.8 7.5v3h-2.7v-3z"/><path fill-rule="evenodd" class="d" d="m58.8 5.3v1.4h-2.7v-1.4z"/><path class="d" d="m39.3 61.9v2.9c0 0.2-0.2 0.5-0.5 0.5h-7.7c-0.3 0-0.5-0.3-0.6-0.5v-2.9z"/><path fill-rule="evenodd" class="d" d="m39.3 53.3v7.6h-8.8v-7.6z"/><path class="d" d="m39.3 51.7v0.8h-8.8v-0.9c0-0.6 0.3-1.3 0.6-1.8l2.2-4.5 3.5 0.1 2.1 4.3c0.3 0.6 0.4 1.3 0.4 2z"/><path fill-rule="evenodd" class="d" d="m36.3 41.3v3h-2.9v-3z"/><path fill-rule="evenodd" class="d" d="m36.3 38.9v1.5h-2.9v-1.5z"/><path class="d" d="m16.6 28.2v2.8c0 0.3-0.2 0.5-0.5 0.5h-7.5c-0.3 0-0.5-0.2-0.5-0.5v-2.8z"/><path class="d" d="m8.1 19.6h8.5v7.5h-8.5z"/><path class="d" d="m16.6 17.9v0.9h-8.5v-0.9c0-0.7 0.2-1.3 0.5-1.9l2.1-4.4 3.5 0.1 2.1 4.3c0.3 0.6 0.3 1.3 0.3 1.9z"/><path fill-rule="evenodd" class="d" d="m13.6 7.5v3h-2.7v-3z"/><path fill-rule="evenodd" class="d" d="m13.6 5.3v1.4h-2.7v-1.4z"/></svg>