<?xml version="1.0" encoding="utf-8"?>
<!-- Generator: Adobe Illustrator 26.5.0, SVG Export Plug-In . SVG Version: 6.00 Build 0)  -->
<svg version="1.1"
	 id="Layer_1" shape-rendering="geometricPrecision" image-rendering="optimizeQuality" text-rendering="geometricPrecision"
	 xmlns="http://www.w3.org/2000/svg" xmlns:xlink="http://www.w3.org/1999/xlink" x="0px" y="0px" width="70px" height="70px"
	 viewBox="0 0 70 70" style="enable-background:new 0 0 70 70;" xml:space="preserve">
<style type="text/css">
	.st0{fill-rule:evenodd;clip-rule:evenodd;fill:#FFFFFF;}
</style>
<g id="Layer_x0020_1">
	<path class="st0" d="M53.7,42.9c-0.3,0-0.7-0.1-0.9-0.5L50.4,39l-2.6,3.5c-0.8,1.1-2.5-0.2-1.7-1.3l3-4l-2.9-4.1
		c-0.8-1.1,0.9-2.4,1.7-1.2l2.5,3.5l2.5-3.4c0.8-1.1,2.5,0.2,1.7,1.3l-2.9,3.9l2.8,4C55,41.9,54.5,42.9,53.7,42.9z M55.3,18H14.7
		c-1.4,0-1.4-2.1,0-2.1h40.6C56.7,15.9,56.7,18,55.3,18z M55.3,23.9H14.7c-1.4,0-1.4-2.1,0-2.1h40.6C56.7,21.8,56.7,23.9,55.3,23.9z
		 M62.9,53.3V16c0-5.7-3.3-10.4-7.4-10.4H14.4c-4.1,0-7.4,4.6-7.4,10.4v37.3h21.7h0h0h0h0h0l0,0h0h0l0,0h0h0v0h0l0,0h0l0,0l0,0h0v0
		h0c0,0,0.3,0.5,0.3,0.8v3.2h10.3v-3.2c0-0.8,0.4-0.8,0.9-1.1h0.2h0h0H62.9z M4.9,53.3V16c0-6.9,4.3-12.5,9.5-12.5h41.1
		c5.2,0,9.5,5.6,9.5,12.5v37.3h3.9c0.6,0,1.1,0.5,1.1,1.1c0,6.5-5.3,11.8-11.8,11.8H11.8C5.3,66.2,0,60.9,0,54.4
		c0-0.6,0.5-1.1,1.1-1.1H4.9z M27.7,55.4H2.2c0.5,4.8,4.6,8.7,9.6,8.7h46.4c5,0,9.1-3.8,9.6-8.7H42.3v3.2c0,0.6-0.5,1.1-1.1,1.1
		H28.7c-0.6,0-1-0.5-1-1.1V55.4z M29.6,45.2c-0.7,0-1.2-0.7-1-1.4l3.9-14.6c0.4-1.3,2.4-0.7,2.1,0.6l-3.9,14.6
		C30.5,44.9,30,45.2,29.6,45.2z M40,42.9c-2.3,0-4.1-1.5-4-3.9v-6.5c0-1.4,2.1-1.4,2.1,0c0,1.3,0.1,5.7,0,6.7
		c-0.2,2.2,3.9,2.2,3.7,0c-0.1-0.9,0-5.4,0-6.7c0-1.4,2.1-1.4,2.1,0V39C44,41.4,42.3,42.9,40,42.9z M19.2,42.2c-2.3,0-4.1-1.5-4-3.9
		v-6.5c0-1.4,2.1-1.4,2.1,0c0,1.4,0.1,5.7,0,6.7c-0.2,2.2,3.9,2.2,3.7,0c-0.1-1,0-5.3,0-6.7c0-1.4,2.1-1.4,2.1,0v6.5
		C23.2,40.7,21.4,42.2,19.2,42.2z M26.2,42.2c-0.6,0-1.1-0.5-1.1-1.1v-9.3c0-1.4,2.1-1.4,2.1,0v9.3C27.3,41.7,26.8,42.2,26.2,42.2z"
		/>
</g>
</svg>
