<svg version="1.2" xmlns="http://www.w3.org/2000/svg" viewBox="0 0 67 71" width="67" height="71"><style>.a{fill:#808285}.b{fill:#58595b}.c{fill:#414042}.d{fill:#939598}.e{fill:#d10028}.f{fill:#b7022d}.g{fill:#f1f2f2}</style><path class="a" d="m19.7 60.1c1.9 5.9 7.4 10.1 13.9 10.1 6.5 0 12-4.2 13.8-10.1z"/><path class="b" d="m43.2 60.1c-2.5 4.3-7.2 7.2-12.5 7.2-3.3 0-6.3-1-8.7-2.9 2.6 3.6 6.8 5.8 11.6 5.8 6.5 0 12-4.2 13.8-10.1z"/><path class="c" d="m45.4 60.1c-2.2 5.1-7.3 8.7-13.3 8.7-3.6 0-6.9-1.4-9.5-3.6 2.7 3.1 6.6 5 11 5 6.5 0 12-4.2 13.8-10.1z"/><path class="d" d="m38.4 62.4h-0.1c-0.3 0-0.6-0.3-0.6-0.6 0-0.3 0.3-0.6 0.6-0.6h0.1c0.3 0 0.6 0.3 0.6 0.6 0 0.3-0.3 0.6-0.6 0.6zm-2.4 0h-12.5c-0.3 0-0.6-0.3-0.6-0.6 0-0.3 0.3-0.6 0.6-0.6h12.5c0.3 0 0.5 0.3 0.5 0.6 0 0.3-0.2 0.6-0.5 0.6z"/><path class="a" d="m30.5 7.4v-0.5c0-1.7 1.4-3.1 3.1-3.1 1.7 0 3.1 1.4 3.1 3.1v0.5q1.8 0.3 3.4 0.9v-1.4c0-3.6-2.9-6.6-6.5-6.6-3.7 0-6.6 3-6.6 6.6v1.4q1.7-0.6 3.5-0.9z"/><path class="b" d="m38.7 6.9v1q0.7 0.2 1.4 0.4v-1.4c0-3.6-2.9-6.6-6.5-6.6q-0.4 0-0.8 0.1c3.3 0.3 5.9 3.1 5.9 6.5z"/><path class="e" d="m52.2 39.4v-13.6c0-10.3-8.3-18.7-18.6-18.7-10.3 0-18.7 8.4-18.7 18.7v13.6c0 3.5-1.3 6.9-3.7 9.5l-5.9 6.5c-1.6 1.8-0.4 4.7 2 4.7h52.5c2.4 0 3.7-2.9 2-4.7l-5.9-6.5c-2.4-2.6-3.7-6-3.7-9.5z"/><path class="f" d="m61.8 55.4l-5.9-6.5c-2.4-2.6-3.7-6-3.7-9.5v-13.6c0-8.5-5.6-15.6-13.3-17.9 4.5 3.4 7.5 8.9 7.5 15v13.6c0 3.5 1.3 6.9 3.7 9.5l5.9 6.5c1.7 1.8 0.4 4.6-2 4.6h-49.4c-0.1 1.5 1 3 2.7 3h52.5c2.4 0 3.7-2.9 2-4.7z"/><path class="e" d="m57.5 40.3q-0.3 0-0.6-0.1c-0.7-0.3-1.1-1.2-0.7-1.9 2.5-5.6 2.5-12.8 0-18.4-0.4-0.7 0-1.6 0.7-1.9 0.7-0.3 1.6 0 1.9 0.7 2.9 6.3 2.9 14.5 0 20.8-0.2 0.5-0.8 0.8-1.3 0.8z"/><path class="e" d="m63 43.2q-0.3 0-0.6-0.1c-0.7-0.3-1.1-1.2-0.7-1.9 3.3-7.4 3.3-16.9 0-24.2-0.4-0.7 0-1.6 0.7-1.9 0.7-0.3 1.6 0 1.9 0.7 3.7 8.1 3.7 18.5 0 26.6-0.2 0.5-0.8 0.8-1.3 0.8z"/><path class="e" d="m9.6 40.3c-0.5 0-1-0.3-1.3-0.8-2.8-6.3-2.8-14.5 0-20.8 0.3-0.7 1.2-1 1.9-0.7 0.8 0.3 1.1 1.2 0.8 1.9-2.6 5.6-2.6 12.8 0 18.4 0.3 0.7 0 1.6-0.8 1.9q-0.3 0.1-0.6 0.1z"/><path class="e" d="m4.1 43.2c-0.5 0-1.1-0.3-1.3-0.8-3.6-8.1-3.6-18.5 0-26.6 0.3-0.7 1.2-1 1.9-0.7 0.8 0.3 1.1 1.2 0.7 1.9-3.3 7.3-3.3 16.8 0 24.2 0.4 0.7 0.1 1.6-0.7 1.9q-0.3 0.1-0.6 0.1z"/><path class="g" d="m33.6 18.5c-2.2 0-3.8 1.7-3.7 3.7l1.5 16.4c0.1 1 1 1.9 2.2 1.9 1.1 0 2-0.9 2.1-1.9l1.5-16.4c0.2-2-1.5-3.7-3.6-3.7z"/><path fill-rule="evenodd" class="g" d="m33.6 49.6c-2 0-3.6-1.5-3.6-3.4 0-1.9 1.6-3.4 3.6-3.4 1.9 0 3.5 1.5 3.5 3.4 0 1.9-1.6 3.4-3.5 3.4z"/></svg>