<svg version="1.2" xmlns="http://www.w3.org/2000/svg" viewBox="0 0 70 70" width="70" height="70"><style>.a{fill:#0c2093}.b{fill:#0e1c66}.c{fill:#ffe600}.d{fill:#ffc200}.e{fill:#ff9100}.f{fill:#ff6e0b}.g{fill:#fff}.h{fill:#dce1eb}.i{fill:#82baff}.j{fill:#69a8ff}</style><path fill-rule="evenodd" class="a" d="m35 70c-19.4 0-35-15.6-35-35 0-19.4 15.6-35 35-35 19.4 0 35 15.6 35 35 0 19.4-15.6 35-35 35z"/><path class="b" d="m14.8 43.6l25.9 25.9c14.3-2.3 25.7-13.3 28.6-27.4l-23.8-23.8z"/><path fill-rule="evenodd" class="c" d="m45.5 18.3v25.3h-30.7v-25.3z"/><path fill-rule="evenodd" class="d" d="m45.5 18.3v25.3h-15.4v-25.3z"/><path fill-rule="evenodd" class="e" d="m34.1 18.3v9.6h-8v-9.6z"/><path fill-rule="evenodd" class="f" d="m34.1 18.3v9.6h-4v-9.6z"/><path class="g" d="m40.7 30.6c-8.9 0-16.6 5.1-20.4 12.5 3.8 7.5 11.5 12.6 20.4 12.6 8.9 0 16.6-5.1 20.3-12.6-3.7-7.4-11.4-12.5-20.3-12.5z"/><path class="h" d="m40.7 30.6q-0.1 0-0.1 0v25.1q0 0 0.1 0c8.9 0 16.6-5.1 20.3-12.6-3.7-7.4-11.4-12.5-20.3-12.5z"/><path fill-rule="evenodd" class="i" d="m40.7 53.9c-6 0-10.8-4.8-10.8-10.8 0-6 4.8-10.8 10.8-10.8 5.9 0 10.8 4.8 10.8 10.8 0 6-4.9 10.8-10.8 10.8z"/><path class="j" d="m40.7 32.3q-0.1 0-0.1 0v21.6q0 0 0.1 0c5.9 0 10.8-4.8 10.8-10.8 0-5.9-4.9-10.8-10.8-10.8z"/><path fill-rule="evenodd" class="a" d="m40.7 47.7c-2.6 0-4.6-2-4.6-4.6 0-2.5 2-4.6 4.6-4.6 2.5 0 4.6 2.1 4.6 4.6 0 2.6-2.1 4.6-4.6 4.6z"/><path class="b" d="m40.7 38.5q-0.1 0-0.1 0v9.2q0 0 0.1 0c2.5 0 4.6-2 4.6-4.6 0-2.5-2.1-4.6-4.6-4.6z"/></svg>