<svg version="1.2" xmlns="http://www.w3.org/2000/svg" viewBox="0 0 70 69" width="70" height="69"><defs><linearGradient id="P" gradientUnits="userSpaceOnUse"/><linearGradient id="g1" x2="1" href="#P" gradientTransform="matrix(68.739,13.331,-4.561,23.516,1.892,.307)"><stop stop-color="#7b7da1"/><stop offset=".31" stop-color="#6d6f93"/><stop offset=".9" stop-color="#494c6d"/><stop offset="1" stop-color="#424566"/></linearGradient><linearGradient id="g2" x2="1" href="#P" gradientTransform="matrix(0,-4.611,80.725,0,34.993,12.988)"><stop stop-color="#32365c" stop-opacity="1"/><stop offset="1" stop-color="#32365c" stop-opacity="0"/></linearGradient><linearGradient id="g3" x2="1" href="#P" gradientTransform="matrix(-4.058,0,0,-10.555,70.221,6.362)"><stop stop-color="#32365c" stop-opacity="1"/><stop offset="1" stop-color="#32365c" stop-opacity="0"/></linearGradient><linearGradient id="g4" x2="1" href="#P" gradientTransform="matrix(0,3.611,-60.532,0,34.993,.282)"><stop stop-color="#a1a4c7" stop-opacity="1"/><stop offset="1" stop-color="#a1a4c7" stop-opacity="0"/></linearGradient><linearGradient id="g5" x2="1" href="#P" gradientTransform="matrix(4.058,0,0,10.555,-0.233,6.362)"><stop stop-color="#a1a4c7" stop-opacity="1"/><stop offset="1" stop-color="#a1a4c7" stop-opacity="0"/></linearGradient><linearGradient id="g6" x2="1" href="#P" gradientTransform="matrix(55.97,55.97,-55.97,55.97,7.983,9.359)"><stop stop-color="#e9edff"/><stop offset="1" stop-color="#c4cbff"/></linearGradient><linearGradient id="g7" x2="1" href="#P" gradientTransform="matrix(-4.209,0,0,-47.924,70.126,37.608)"><stop stop-color="#a1b3ff" stop-opacity="1"/><stop offset="1" stop-color="#a1b3ff" stop-opacity="0"/></linearGradient><linearGradient id="g8" x2="1" href="#P" gradientTransform="matrix(0,-3.755,54.765,0,35,62.98)"><stop stop-color="#a1b3ff" stop-opacity="1"/><stop offset="1" stop-color="#a1b3ff" stop-opacity="0"/></linearGradient><linearGradient id="g9" x2="1" href="#P" gradientTransform="matrix(0,3.997,-63.108,0,34.993,12.086)"><stop stop-color="#fff" stop-opacity="1"/><stop offset="1" stop-color="#fff" stop-opacity="0"/></linearGradient><linearGradient id="g10" x2="1" href="#P" gradientTransform="matrix(4.209,0,0,47.924,-0.14,37.608)"><stop stop-color="#fff" stop-opacity="1"/><stop offset="1" stop-color="#fff" stop-opacity="0"/></linearGradient><linearGradient id="g11" x2="1" href="#P" gradientTransform="matrix(3.611,3.611,-3.611,3.611,6.347,4.813)"><stop stop-color="#ff7f5c"/><stop offset=".15" stop-color="#ff7957"/><stop offset=".36" stop-color="#ff6849"/><stop offset=".6" stop-color="#ff4b33"/><stop offset=".86" stop-color="#ff2414"/><stop offset="1" stop-color="#ff0c00"/></linearGradient><radialGradient id="g12" cx="0" cy="0" r="1" href="#P" gradientTransform="matrix(2.6,0,0,2.6,8.239,6.687)"><stop offset=".82" stop-color="#ffb7a3" stop-opacity="0"/><stop offset="1" stop-color="#ffb7a3" stop-opacity="1"/></radialGradient><radialGradient id="g13" cx="0" cy="0" r="1" href="#P" gradientTransform="matrix(2.6,0,0,2.6,7.993,6.442)"><stop offset=".82" stop-color="#e00a00" stop-opacity="0"/><stop offset="1" stop-color="#e00a00" stop-opacity="1"/></radialGradient><linearGradient id="g14" x2="1" href="#P" gradientTransform="matrix(3.867,3.867,-3.867,3.867,15.459,4.589)"><stop stop-color="#ffd945"/><stop offset="1" stop-color="#ff941f"/></linearGradient><radialGradient id="g15" cx="0" cy="0" r="1" href="#P" gradientTransform="matrix(2.6,0,0,2.6,17.573,6.687)"><stop offset=".82" stop-color="#fff2bf" stop-opacity="0"/><stop offset="1" stop-color="#fff2bf" stop-opacity="1"/></radialGradient><radialGradient id="g16" cx="0" cy="0" r="1" href="#P" gradientTransform="matrix(2.6,0,0,2.6,17.327,6.442)"><stop offset=".82" stop-color="#f27f00" stop-opacity="0"/><stop offset="1" stop-color="#f27f00" stop-opacity="1"/></radialGradient><linearGradient id="g17" x2="1" href="#P" gradientTransform="matrix(3.611,3.611,-3.611,3.611,25.017,4.811)"><stop stop-color="#cfe958"/><stop offset=".58" stop-color="#80b35d"/><stop offset="1" stop-color="#4c9060"/></linearGradient><radialGradient id="g18" cx="0" cy="0" r="1" href="#P" gradientTransform="matrix(2.6,0,0,2.6,26.907,6.687)"><stop offset=".82" stop-color="#e6ff75" stop-opacity="0"/><stop offset="1" stop-color="#e6ff75" stop-opacity="1"/></radialGradient><radialGradient id="g19" cx="0" cy="0" r="1" href="#P" gradientTransform="matrix(2.6,0,0,2.6,26.661,6.442)"><stop offset=".82" stop-color="#3e8252" stop-opacity="0"/><stop offset="1" stop-color="#3e8252" stop-opacity="1"/></radialGradient><linearGradient id="g20" x2="1" href="#P" gradientTransform="matrix(0,16.04,-31.564,0,42.921,32.408)"><stop stop-color="#a1b3ff" stop-opacity="1"/><stop offset="1" stop-color="#a1b3ff" stop-opacity="0"/></linearGradient><linearGradient id="g21" x2="1" href="#P" gradientTransform="matrix(9.877,20.412,-15.965,7.725,15.915,48.808)"><stop stop-color="#ff7f5c"/><stop offset=".15" stop-color="#ff7957"/><stop offset=".36" stop-color="#ff6849"/><stop offset=".6" stop-color="#ff4b33"/><stop offset=".86" stop-color="#ff2414"/><stop offset="1" stop-color="#ff0c00"/></linearGradient><linearGradient id="g22" x2="1" href="#P" gradientTransform="matrix(-3.259,0,0,-18.708,25.889,57.95)"><stop stop-color="#b80024" stop-opacity="1"/><stop offset="1" stop-color="#b80024" stop-opacity="0"/></linearGradient><linearGradient id="g23" x2="1" href="#P" gradientTransform="matrix(0,-4.065,10.73,0,20.62,68.861)"><stop stop-color="#b80024" stop-opacity="1"/><stop offset="1" stop-color="#b80024" stop-opacity="0"/></linearGradient><linearGradient id="g24" x2="1" href="#P" gradientTransform="matrix(2.484,0,0,12.372,15.454,57.95)"><stop stop-color="#ff8585" stop-opacity="1"/><stop offset="1" stop-color="#ff8585" stop-opacity="0"/></linearGradient><linearGradient id="g25" x2="1" href="#P" gradientTransform="matrix(0,2.459,-7.939,0,20.627,48.205)"><stop stop-color="#ff8585" stop-opacity="1"/><stop offset="1" stop-color="#ff8585" stop-opacity="0"/></linearGradient><linearGradient id="g26" x2="1" href="#P" gradientTransform="matrix(12.437,25.702,-18.556,8.979,24.308,43.366)"><stop stop-color="#ffd945"/><stop offset=".25" stop-color="#ffcd3e"/><stop offset=".7" stop-color="#ffad2d"/><stop offset="1" stop-color="#ff941f"/></linearGradient><linearGradient id="g27" x2="1" href="#P" gradientTransform="matrix(-3.126,0,0,-23.413,35.627,54.972)"><stop stop-color="#f78100" stop-opacity="1"/><stop offset="1" stop-color="#f78100" stop-opacity="0"/></linearGradient><linearGradient id="g28" x2="1" href="#P" gradientTransform="matrix(0,-3.405,8.987,0,30.202,67.796)"><stop stop-color="#f78100" stop-opacity="1"/><stop offset="1" stop-color="#f78100" stop-opacity="0"/></linearGradient><linearGradient id="g29" x2="1" href="#P" gradientTransform="matrix(2.657,0,0,17.27,25.226,54.972)"><stop stop-color="#ffeda6" stop-opacity="1"/><stop offset="1" stop-color="#ffeda6" stop-opacity="0"/></linearGradient><linearGradient id="g30" x2="1" href="#P" gradientTransform="matrix(0,2.039,-6.581,0,30.209,42.225)"><stop stop-color="#ffeda6" stop-opacity="1"/><stop offset="1" stop-color="#ffeda6" stop-opacity="0"/></linearGradient><linearGradient id="g31" x2="1" href="#P" gradientTransform="matrix(8.655,13.076,-11.981,7.931,34.883,53.566)"><stop stop-color="#a1ddff"/><stop offset="1" stop-color="#1c83ff"/></linearGradient><linearGradient id="g32" x2="1" href="#P" gradientTransform="matrix(-3.063,0,0,-13.093,44.84,60.445)"><stop stop-color="#0047e0" stop-opacity="1"/><stop offset="1" stop-color="#0047e0" stop-opacity="0"/></linearGradient><linearGradient id="g33" x2="1" href="#P" gradientTransform="matrix(0,-3.069,8.099,0,39.784,67.819)"><stop stop-color="#0047e0" stop-opacity="1"/><stop offset="1" stop-color="#0047e0" stop-opacity="0"/></linearGradient><linearGradient id="g34" x2="1" href="#P" gradientTransform="matrix(2.713,0,0,10.061,34.894,60.445)"><stop stop-color="#c9ecff" stop-opacity="1"/><stop offset="1" stop-color="#c9ecff" stop-opacity="0"/></linearGradient><linearGradient id="g35" x2="1" href="#P" gradientTransform="matrix(0,2.689,-8.681,0,39.791,53.082)"><stop stop-color="#c9ecff" stop-opacity="1"/><stop offset="1" stop-color="#c9ecff" stop-opacity="0"/></linearGradient><linearGradient id="g36" x2="1" href="#P" gradientTransform="matrix(20.815,43.018,-29.162,14.111,38.202,29.126)"><stop stop-color="#cfe958"/><stop offset=".14" stop-color="#c8e458"/><stop offset=".34" stop-color="#b5d75a"/><stop offset=".58" stop-color="#95c15c"/><stop offset=".84" stop-color="#69a45e"/><stop offset="1" stop-color="#4c9060"/></linearGradient><linearGradient id="g37" x2="1" href="#P" gradientTransform="matrix(-5.243,0,0,-49.621,54.663,51.614)"><stop offset=".12" stop-color="#4c9060" stop-opacity="1"/><stop offset=".72" stop-color="#4c9060" stop-opacity="0"/></linearGradient><linearGradient id="g38" x2="1" href="#P" gradientTransform="matrix(0,-4.65,12.274,0,49.366,67.864)"><stop offset="0" stop-color="#4c9060" stop-opacity="1"/><stop offset=".73" stop-color="#4c9060" stop-opacity="0"/></linearGradient><linearGradient id="g39" x2="1" href="#P" gradientTransform="matrix(5.232,0,0,42.961,44.072,51.614)"><stop stop-color="#dae995" stop-opacity="1"/><stop offset=".85" stop-color="#dae995" stop-opacity="0"/></linearGradient><linearGradient id="g40" x2="1" href="#P" gradientTransform="matrix(0,3.022,-9.756,0,49.373,35.471)"><stop stop-color="#dae995" stop-opacity="1"/><stop offset=".85" stop-color="#dae995" stop-opacity="0"/></linearGradient><linearGradient id="g41" x2="1" href="#P" gradientTransform="matrix(0,1.776,-54.493,0,34.993,66.986)"><stop stop-color="#7b7da1"/><stop offset=".31" stop-color="#6d6f93"/><stop offset=".9" stop-color="#494c6d"/><stop offset="1" stop-color="#424566"/></linearGradient><linearGradient id="g42" x2="1" href="#P" gradientTransform="matrix(0,19.738,-28.268,0,38.985,12.967)"><stop stop-color="#a1b3ff" stop-opacity="1"/><stop offset="1" stop-color="#a1b3ff" stop-opacity="0"/></linearGradient><linearGradient id="g43" x2="1" href="#P" gradientTransform="matrix(20.864,20.864,-47.559,47.559,22.065,19.689)"><stop stop-color="#7b7da1"/><stop offset=".31" stop-color="#6d6f93"/><stop offset=".9" stop-color="#494c6d"/><stop offset="1" stop-color="#424566"/></linearGradient><linearGradient id="g44" x2="1" href="#P" gradientTransform="matrix(3.901,3.901,-3.901,3.901,16.523,38.73)"><stop stop-color="#ff7f5c"/><stop offset=".15" stop-color="#ff7957"/><stop offset=".36" stop-color="#ff6849"/><stop offset=".6" stop-color="#ff4b33"/><stop offset=".86" stop-color="#ff2414"/><stop offset="1" stop-color="#ff0c00"/></linearGradient><radialGradient id="g45" cx="0" cy="0" r="1" href="#P" gradientTransform="matrix(2.809,0,0,2.809,18.124,40.248)"><stop offset=".79" stop-color="#e00a00" stop-opacity="0"/><stop offset="1" stop-color="#e00a00" stop-opacity="1"/></radialGradient><radialGradient id="g46" cx="0" cy="0" r="1" href="#P" gradientTransform="matrix(2.809,0,0,2.809,18.577,40.756)"><stop offset=".66" stop-color="#ffb7a3" stop-opacity="0"/><stop offset="1" stop-color="#ffb7a3" stop-opacity="1"/></radialGradient><linearGradient id="g47" x2="1" href="#P" gradientTransform="matrix(3.901,3.901,-3.901,3.901,29.134,24.597)"><stop stop-color="#ffed81"/><stop offset=".23" stop-color="#ffd968"/><stop offset=".73" stop-color="#ffa629"/><stop offset="1" stop-color="#ff8804"/></linearGradient><radialGradient id="g48" cx="0" cy="0" r="1" href="#P" gradientTransform="matrix(2.809,0,0,2.809,31.115,26.592)"><stop offset=".68" stop-color="#fffcf0" stop-opacity="0"/><stop offset="1" stop-color="#fffcf0" stop-opacity="1"/></radialGradient><radialGradient id="g49" cx="0" cy="0" r="1" href="#P" gradientTransform="matrix(2.98,0,0,2.98,30.802,26.258)"><stop offset=".75" stop-color="#ff6b06" stop-opacity="0"/><stop offset=".96" stop-color="#ff6b06" stop-opacity="1"/></radialGradient><linearGradient id="g50" x2="1" href="#P" gradientTransform="matrix(3.901,3.901,-3.901,3.901,37.883,35.407)"><stop stop-color="#a1ddff"/><stop offset="1" stop-color="#1c83ff"/></linearGradient><radialGradient id="g51" cx="0" cy="0" r="1" href="#P" gradientTransform="matrix(2.98,0,0,2.98,39.553,37.066)"><stop offset=".74" stop-color="#0047e0" stop-opacity="0"/><stop offset="1" stop-color="#0047e0" stop-opacity="1"/></radialGradient><radialGradient id="g52" cx="0" cy="0" r="1" href="#P" gradientTransform="matrix(2.182,2.182,-2.182,2.182,40.069,37.639)"><stop offset=".69" stop-color="#c9ecff" stop-opacity="0"/><stop offset="1" stop-color="#c9ecff" stop-opacity="1"/></radialGradient><linearGradient id="g53" x2="1" href="#P" gradientTransform="matrix(3.901,3.901,-3.901,3.901,49.68,22.749)"><stop stop-color="#cfe958"/><stop offset=".58" stop-color="#80b35d"/><stop offset="1" stop-color="#4c9060"/></linearGradient><radialGradient id="g54" cx="0" cy="0" r="1" href="#P" gradientTransform="matrix(2.98,0,0,2.98,51.349,24.409)"><stop offset=".73" stop-color="#3e8252" stop-opacity="0"/><stop offset="1" stop-color="#3e8252" stop-opacity="1"/></radialGradient><radialGradient id="g55" cx="0" cy="0" r="1" href="#P" gradientTransform="matrix(2.182,2.182,-2.182,2.182,51.859,24.984)"><stop offset=".77" stop-color="#e6ff75" stop-opacity="0"/><stop offset="1" stop-color="#e6ff75" stop-opacity="1"/></radialGradient><linearGradient id="g56" x2="1" href="#P" gradientTransform="matrix(6.252,6.252,-8.352,8.352,10.026,18.052)"><stop stop-color="#7b7da1"/><stop offset=".31" stop-color="#6d6f93"/><stop offset=".9" stop-color="#494c6d"/><stop offset="1" stop-color="#424566"/></linearGradient></defs><style>.a{fill:url(#g1)}.b{fill:url(#g2)}.c{fill:url(#g3)}.d{fill:url(#g4)}.e{fill:url(#g5)}.f{fill:url(#g6)}.g{fill:url(#g7)}.h{fill:url(#g8)}.i{fill:url(#g9)}.j{fill:url(#g10)}.k{fill:url(#g11)}.l{fill:url(#g12)}.m{fill:url(#g13)}.n{fill:url(#g14)}.o{fill:url(#g15)}.p{fill:url(#g16)}.q{fill:url(#g17)}.r{fill:url(#g18)}.s{fill:url(#g19)}.t{fill:url(#g20)}.u{fill:url(#g21)}.v{fill:url(#g22)}.w{fill:url(#g23)}.x{fill:url(#g24)}.y{fill:url(#g25)}.z{fill:url(#g26)}.A{fill:url(#g27)}.B{fill:url(#g28)}.C{fill:url(#g29)}.D{fill:url(#g30)}.E{fill:url(#g31)}.F{fill:url(#g32)}.G{fill:url(#g33)}.H{fill:url(#g34)}.I{fill:url(#g35)}.J{fill:url(#g36)}.K{fill:url(#g37)}.L{fill:url(#g38)}.M{fill:url(#g39)}.N{fill:url(#g40)}.O{fill:url(#g41)}.P{fill:url(#g42)}.Q{fill:url(#g43)}.R{fill:url(#g44)}.S{fill:url(#g45)}.T{fill:url(#g46)}.U{fill:url(#g47)}.V{fill:url(#g48)}.W{fill:url(#g49)}.X{fill:url(#g50)}.Y{fill:url(#g51)}.Z{fill:url(#g52)}.a0{fill:url(#g53)}.a1{fill:url(#g54)}.a2{fill:url(#g55)}.a3{fill:url(#g56)}</style><path class="a" d="m70 4.7v7.5h-70v-7.5c0-2.3 1.9-4.2 4.2-4.2h61.6c2.3 0 4.2 1.9 4.2 4.2z"/><path fill-rule="evenodd" class="b" d="m70 8.2v4h-70v-4z"/><path class="c" d="m65.5 0.5h0.3c2.3 0 4.2 1.9 4.2 4.2v7.5h-4.5z"/><path class="d" d="m70 4.7c0-2.3-1.9-4.2-4.2-4.2h-61.6c-2.3 0-4.2 1.9-4.2 4.2z"/><path class="e" d="m4.5 0.5h-0.3c-2.3 0-4.2 1.9-4.2 4.2v7.5h4.5z"/><path class="f" d="m0 12.2v46.7c0 2.3 1.9 4.2 4.2 4.2h61.6c2.3 0 4.2-1.9 4.2-4.2v-46.7z"/><path class="g" d="m65.5 12.2h4.5v46.7c0 2.3-1.9 4.2-4.2 4.2h-0.3z"/><path class="h" d="m0 58.3v0.6c0 2.3 1.9 4.2 4.2 4.2h61.6c2.3 0 4.2-1.9 4.2-4.2v-0.6z"/><path fill-rule="evenodd" class="i" d="m70 12.2v4.4h-70v-4.4z"/><path class="j" d="m4.5 12.2h-4.5v46.7c0 2.3 1.9 4.2 4.2 4.2h0.3z"/><path fill-rule="evenodd" class="k" d="m8.1 9c-1.3 0-2.4-1.1-2.4-2.4 0-1.4 1.1-2.4 2.4-2.4 1.3 0 2.4 1 2.4 2.4 0 1.3-1.1 2.4-2.4 2.4z"/><path fill-rule="evenodd" class="l" d="m8.1 9c-1.3 0-2.4-1.1-2.4-2.4 0-1.4 1.1-2.4 2.4-2.4 1.3 0 2.4 1 2.4 2.4 0 1.3-1.1 2.4-2.4 2.4z"/><path fill-rule="evenodd" class="m" d="m8.1 9c-1.3 0-2.4-1.1-2.4-2.4 0-1.4 1.1-2.4 2.4-2.4 1.3 0 2.4 1 2.4 2.4 0 1.3-1.1 2.4-2.4 2.4z"/><path fill-rule="evenodd" class="n" d="m17.4 9c-1.3 0-2.4-1.1-2.4-2.4 0-1.4 1.1-2.4 2.4-2.4 1.4 0 2.4 1 2.4 2.4 0 1.3-1 2.4-2.4 2.4z"/><path fill-rule="evenodd" class="o" d="m17.4 9c-1.3 0-2.4-1.1-2.4-2.4 0-1.4 1.1-2.4 2.4-2.4 1.4 0 2.4 1 2.4 2.4 0 1.3-1 2.4-2.4 2.4z"/><path fill-rule="evenodd" class="p" d="m17.4 9c-1.3 0-2.4-1.1-2.4-2.4 0-1.4 1.1-2.4 2.4-2.4 1.4 0 2.4 1 2.4 2.4 0 1.3-1 2.4-2.4 2.4z"/><path fill-rule="evenodd" class="q" d="m26.8 9c-1.4 0-2.4-1.1-2.4-2.4 0-1.4 1-2.4 2.4-2.4 1.3 0 2.4 1 2.4 2.4 0 1.3-1.1 2.4-2.4 2.4z"/><path fill-rule="evenodd" class="r" d="m26.8 9c-1.4 0-2.4-1.1-2.4-2.4 0-1.4 1-2.4 2.4-2.4 1.3 0 2.4 1 2.4 2.4 0 1.3-1.1 2.4-2.4 2.4z"/><path fill-rule="evenodd" class="s" d="m26.8 9c-1.4 0-2.4-1.1-2.4-2.4 0-1.4 1-2.4 2.4-2.4 1.3 0 2.4 1 2.4 2.4 0 1.3-1.1 2.4-2.4 2.4z"/><path class="t" d="m53.9 36.1c-0.3-0.4-0.7-0.6-1.2-0.6h-6.6c-0.9 0-1.5 0.7-1.5 1.5v15.6c-0.1-0.1-9.8-9.7-9.9-9.8-0.3-0.4-0.7-0.6-1.2-0.6h-6.6c-0.8 0-1.5 0.7-1.5 1.5v5.4q-0.1-0.2-0.3-0.3c-0.2-0.4-0.7-0.6-1.2-0.6h-6.6c-0.8 0-1.5 0.6-1.5 1.4v13.4h50c2.3 0 4.2-1.8 4.2-4.2v-6.7c-4.4-4.4-16-15.9-16.1-16z"/><path class="u" d="m25.4 67.7h-9.6v-18c0-0.9 0.7-1.5 1.5-1.5h6.6c0.8 0 1.5 0.6 1.5 1.5v18z"/><path class="v" d="m23.9 48.2h-1.9v19.5h3.4v-18c0-0.9-0.6-1.5-1.5-1.5z"/><path class="w" d="m15.8 64.1h9.6v3.6h-9.6z"/><path class="x" d="m19.8 48.2h-2.5c-0.8 0-1.5 0.6-1.5 1.4v18.1h4z"/><path class="y" d="m25.4 51.1v-1.5c0-0.8-0.6-1.4-1.5-1.4h-6.6c-0.8 0-1.5 0.6-1.5 1.4v1.5z"/><path class="z" d="m35 67.7h-9.6v-24c0-0.8 0.7-1.5 1.5-1.5h6.6c0.8 0 1.5 0.7 1.5 1.5v24z"/><path class="A" d="m33.5 42.2h-1.9v25.5h3.4v-24c0-0.8-0.7-1.5-1.5-1.5z"/><path fill-rule="evenodd" class="B" d="m35 64.1v3.6h-9.6v-3.6z"/><path class="C" d="m29.3 42.2h-2.4c-0.8 0-1.5 0.7-1.5 1.5v24h3.9z"/><path class="D" d="m35 45.2v-1.5c0-0.8-0.7-1.5-1.5-1.5h-6.6c-0.8 0-1.5 0.7-1.5 1.5v1.5z"/><path class="E" d="m44.6 67.7h-9.6v-13.1c0-0.8 0.6-1.4 1.5-1.4h6.6c0.8 0 1.5 0.6 1.5 1.4v13.1z"/><path class="F" d="m43.1 53.2h-1.9v14.5h3.4v-13.1c0-0.8-0.7-1.4-1.5-1.4z"/><path fill-rule="evenodd" class="G" d="m44.6 64.1v3.6h-9.6v-3.6z"/><path class="H" d="m38.9 53.2h-2.4c-0.9 0-1.5 0.6-1.5 1.4v13.1h3.9z"/><path class="I" d="m44.6 56.1v-1.5c0-0.8-0.7-1.4-1.5-1.4h-6.6c-0.8 0-1.5 0.6-1.5 1.4v1.5z"/><path class="J" d="m54.2 67.7h-9.6v-30.7c0-0.8 0.6-1.5 1.5-1.5h6.6c0.8 0 1.4 0.7 1.4 1.5v30.7z"/><path class="K" d="m52.7 35.5h-1.9v32.2h3.4v-30.7c0-0.8-0.7-1.5-1.5-1.5z"/><path fill-rule="evenodd" class="L" d="m54.2 64.1v3.6h-9.6v-3.6z"/><path class="M" d="m48.5 35.5h-2.4c-0.9 0-1.5 0.7-1.5 1.5v30.7h3.9z"/><path class="N" d="m54.2 38.5v-1.5c0-0.8-0.7-1.5-1.5-1.5h-6.6c-0.9 0-1.5 0.7-1.5 1.5v1.5z"/><path class="O" d="m55.2 68.4h-40.4c-0.4 0-0.7-0.3-0.7-0.7 0-0.4 0.3-0.7 0.7-0.7h40.4c0.4 0 0.7 0.3 0.7 0.7 0 0.4-0.3 0.7-0.7 0.7z"/><path class="P" d="m53.6 23.1c-0.4-0.6-1.2-1-2-1-1.4 0-2.6 1.1-2.6 2.6q0 0.7 0.4 1.4l-7.2 7.9q0 0 0 0c-0.2-0.2-8.9-8.9-9.1-9.1-0.5-0.6-1.2-1-2.1-1-1.2 0-2.3 0.9-2.5 2.1 0 0-5.6-5.6-5.8-5.7-0.1-0.3-0.4-0.5-0.7-0.5h-13.3c-0.4 0-0.7 0.3-0.7 0.7 0 0.3 0.2 0.5 0.5 0.6 0.1 0.3 4.3 4.5 4.4 4.5h-4.2c-0.4 0-0.7 0.3-0.7 0.7 0 0.3 0.2 0.6 0.5 0.6 0.1 0.3 11.1 11.2 11.1 11.3l-0.1 0.1q-0.5-0.2-1.1-0.2c-1.4 0-2.6 1.1-2.6 2.5 0 0.9 0.4 1.6 1 2.1 0.1 0.1 12.5 12.4 20.5 20.4h28.5c2.3 0 4.2-1.9 4.2-4.2v-19.6c-4.1-4.1-16.2-16.1-16.4-16.2z"/><path class="Q" d="m18.4 41.3q-0.2 0-0.4-0.2c-0.3-0.2-0.3-0.7-0.1-1l12.6-14.6c0.1-0.1 0.4-0.2 0.6-0.2q0.3 0 0.5 0.3l8.2 11 11.3-12.4c0.2-0.3 0.7-0.3 0.9-0.1 0.3 0.3 0.3 0.7 0.1 1l-11.8 13c-0.1 0.2-0.3 0.2-0.5 0.2q-0.4 0-0.6-0.2l-8.2-11-12.1 13.9q-0.2 0.3-0.5 0.3z"/><path fill-rule="evenodd" class="R" d="m18.4 43.2c-1.4 0-2.6-1.1-2.6-2.6 0-1.4 1.2-2.5 2.6-2.5 1.5 0 2.6 1.1 2.6 2.5 0 1.5-1.1 2.6-2.6 2.6z"/><path fill-rule="evenodd" class="S" d="m18.4 43.2c-1.4 0-2.6-1.1-2.6-2.6 0-1.4 1.2-2.5 2.6-2.5 1.5 0 2.6 1.1 2.6 2.5 0 1.5-1.1 2.6-2.6 2.6z"/><path fill-rule="evenodd" class="T" d="m18.4 43.2c-1.4 0-2.6-1.1-2.6-2.6 0-1.4 1.2-2.5 2.6-2.5 1.5 0 2.6 1.1 2.6 2.5 0 1.5-1.1 2.6-2.6 2.6z"/><path fill-rule="evenodd" class="U" d="m31 29.1c-1.4 0-2.6-1.2-2.6-2.6 0-1.4 1.2-2.6 2.6-2.6 1.5 0 2.6 1.2 2.6 2.6 0 1.4-1.1 2.6-2.6 2.6z"/><path fill-rule="evenodd" class="V" d="m31 29.1c-1.4 0-2.6-1.2-2.6-2.6 0-1.4 1.2-2.6 2.6-2.6 1.5 0 2.6 1.2 2.6 2.6 0 1.4-1.1 2.6-2.6 2.6z"/><path fill-rule="evenodd" class="W" d="m31 29.1c-1.4 0-2.6-1.2-2.6-2.6 0-1.4 1.2-2.6 2.6-2.6 1.5 0 2.6 1.2 2.6 2.6 0 1.4-1.1 2.6-2.6 2.6z"/><path fill-rule="evenodd" class="X" d="m39.8 39.9c-1.5 0-2.6-1.2-2.6-2.6 0-1.4 1.1-2.6 2.6-2.6 1.4 0 2.6 1.2 2.6 2.6 0 1.4-1.2 2.6-2.6 2.6z"/><path fill-rule="evenodd" class="Y" d="m39.8 39.9c-1.5 0-2.6-1.2-2.6-2.6 0-1.4 1.1-2.6 2.6-2.6 1.4 0 2.6 1.2 2.6 2.6 0 1.4-1.2 2.6-2.6 2.6z"/><path fill-rule="evenodd" class="Z" d="m39.8 39.9c-1.5 0-2.6-1.2-2.6-2.6 0-1.4 1.1-2.6 2.6-2.6 1.4 0 2.6 1.2 2.6 2.6 0 1.4-1.2 2.6-2.6 2.6z"/><path fill-rule="evenodd" class="a0" d="m51.6 27.2c-1.5 0-2.6-1.1-2.6-2.6 0-1.4 1.1-2.5 2.6-2.5 1.4 0 2.6 1.1 2.6 2.5 0 1.5-1.2 2.6-2.6 2.6z"/><path fill-rule="evenodd" class="a1" d="m51.6 27.2c-1.5 0-2.6-1.1-2.6-2.6 0-1.4 1.1-2.5 2.6-2.5 1.4 0 2.6 1.1 2.6 2.5 0 1.5-1.2 2.6-2.6 2.6z"/><path fill-rule="evenodd" class="a2" d="m51.6 27.2c-1.5 0-2.6-1.1-2.6-2.6 0-1.4 1.1-2.5 2.6-2.5 1.4 0 2.6 1.1 2.6 2.5 0 1.5-1.2 2.6-2.6 2.6z"/><path class="a3" d="m22 21.1h-13.3c-0.4 0-0.7-0.3-0.7-0.7 0-0.3 0.3-0.6 0.7-0.6h13.3c0.4 0 0.7 0.3 0.7 0.6 0 0.4-0.3 0.7-0.7 0.7zm-4.6 5.2c0-0.4-0.3-0.7-0.7-0.7h-8c-0.4 0-0.7 0.3-0.7 0.7 0 0.3 0.3 0.6 0.7 0.6h8c0.4 0 0.7-0.3 0.7-0.6z"/></svg>