<svg version="1.2" xmlns="http://www.w3.org/2000/svg" viewBox="0 0 70 70" width="70" height="70"><style>.a{fill:#ccc}.b{fill:#e5e5e5}.c{fill:#2ba09f}.d{fill:#a9e3e2}.e{fill:#034e58}.f{fill:#046875}.g{fill:#953528}.h{fill:#c64635}.i{fill:#e8b5ae}</style><path class="a" d="m63 19.8v32.7q0 0.9-0.4 1.8-0.3 0.8-1 1.5-0.6 0.7-1.5 1-0.8 0.4-1.8 0.4h-53.6q-1 0-1.8-0.4-0.9-0.3-1.5-1-0.7-0.7-1-1.5-0.4-0.9-0.4-1.8v-42q0-0.9 0.4-1.8 0.3-0.8 1-1.5 0.6-0.7 1.5-1 0.8-0.4 1.8-0.4h44.3z"/><path class="b" d="m3.5 52.5v-42q0-0.2 0.1-0.4 0.1-0.3 0.2-0.4 0.2-0.2 0.4-0.3 0.2-0.1 0.5-0.1h47.8l7 9.4v33.8z"/><path class="c" d="m52.5 9.3l-26.8 26.8q-0.3 0.3-0.5 0.6-0.2 0.4-0.4 0.8-0.1 0.4-0.2 0.8-0.1 0.4-0.1 0.8 0 0.4 0.1 0.8 0.1 0.4 0.2 0.8 0.2 0.4 0.4 0.7 0.2 0.4 0.5 0.7l2.2 2.2q0.3 0.3 0.7 0.5 0.3 0.2 0.7 0.4 0.4 0.1 0.8 0.2 0.4 0.1 0.8 0.1 0.4 0 0.8-0.1 0.4-0.1 0.8-0.2 0.4-0.2 0.8-0.4 0.3-0.2 0.6-0.5l26.8-26.8z"/><path class="d" d="m55.5 14.7l-4.2-4.2-25.6 25.6q-0.6 0.6-0.9 1.4-0.3 0.7-0.3 1.6 0 0.8 0.3 1.6 0.3 0.8 0.9 1.4l2.2 2.2q0.4-0.1 0.7-0.2 0.3-0.1 0.7-0.2 0.3-0.2 0.5-0.4 0.3-0.2 0.6-0.4l25.1-25.1q0.3-0.4 0.5-0.8 0.2-0.4 0.2-0.9 0-0.4-0.2-0.9-0.2-0.4-0.5-0.7z"/><path class="e" d="m49 5.8l5.8-5.8 15.2 15.2-5.8 5.8z"/><path class="f" d="m54.8 0l-4.6 4.7 12.3 12.3q0.4 0.3 0.8 0.5 0.4 0.2 0.9 0.2 0.4 0 0.9-0.2 0.4-0.2 0.7-0.5l3-3z"/><path class="f" d="m14 65.3h35q0.5 0 0.9 0.2 0.4 0.2 0.7 0.5 0.4 0.3 0.6 0.8 0.1 0.4 0.1 0.9v2.3h-39.6v-2.3q0-0.5 0.1-0.9 0.2-0.5 0.6-0.8 0.3-0.3 0.7-0.5 0.4-0.2 0.9-0.2z"/><path class="c" d="m38.5 65.3l-2.3-8.1h-9.4l-2.3 8.1z"/><path fill-rule="evenodd" class="f" d="m12.8 36.2v10.5h-4.6v-10.5z"/><path fill-rule="evenodd" class="f" d="m21 29.2v17.5h-4.7v-17.5z"/><path class="f" d="m29.2 45.1v1.6h-4.7v-22.2h4.7v8.2z"/><path fill-rule="evenodd" class="f" d="m56 45.5v2.3h-15.2v-2.3z"/><path fill-rule="evenodd" class="f" d="m56 42v2.3h-11.7v-2.3z"/><path fill-rule="evenodd" class="f" d="m56 38.5v2.3h-9.3v-2.3z"/><path class="e" d="m57.5 10.8l2.3-2.3 1.7 1.7-2.3 2.3z"/><path class="e" d="m61 14.3l2.3-2.3 1.7 1.7-2.3 2.3z"/><path class="e" d="m54 7.3l2.3-2.3 1.7 1.7-2.3 2.3z"/><path class="g" d="m40.8 29.2q-0.5-0.3-1.1-0.5-0.6-0.3-1.3-0.4-0.6-0.2-1.2-0.2-0.7-0.1-1.3-0.1h-2.1l-8.1 8.1q-0.6 0.6-0.9 1.4-0.3 0.7-0.3 1.6 0 0.8 0.3 1.6 0.3 0.8 0.9 1.4l2.2 2.2q0.6 0.6 1.4 0.9 0.8 0.3 1.6 0.3 0.9 0 1.6-0.3 0.8-0.3 1.4-0.9l13.9-14h-2q-0.7 0-1.3 0-0.6-0.1-1.3-0.3-0.6-0.1-1.2-0.3-0.6-0.2-1.2-0.5z"/><path class="h" d="m30.4 43.1l13-13q-0.3-0.1-0.6-0.2-0.4-0.1-0.7-0.2-0.3-0.1-0.6-0.2-0.4-0.2-0.7-0.3-0.5-0.3-1.1-0.5-0.6-0.3-1.3-0.4-0.6-0.2-1.2-0.2-0.7-0.1-1.3-0.1h-2.1l-8.1 8.1q-0.6 0.6-0.9 1.4-0.3 0.7-0.3 1.6 0 0.8 0.3 1.6 0.3 0.8 0.9 1.4l2.2 2.2q0.4-0.1 0.7-0.2 0.3-0.1 0.7-0.2 0.3-0.2 0.6-0.4 0.3-0.2 0.5-0.4z"/><path class="f" d="m4.7 57.2h53.6q1 0 1.8-0.4 0.9-0.3 1.5-1 0.7-0.7 1-1.5 0.4-0.9 0.4-1.8h-63q0 0.9 0.4 1.8 0.3 0.8 1 1.5 0.6 0.7 1.5 1 0.8 0.4 1.8 0.4z"/><path class="d" d="m38.5 65.3l-1.7-5.8h-4.8q-0.6 0-1.2 0.2-0.6 0.2-1.1 0.6-0.5 0.3-0.8 0.8-0.3 0.6-0.5 1.2l-0.9 3z"/><path class="d" d="m32.7 11.7q-0.7 0-1.4 0.2-0.6 0.3-1.1 0.8-0.5 0.5-0.8 1.1-0.2 0.7-0.2 1.4 0 0.2 0 0.4 0 0.2 0.1 0.4 0 0.3 0.1 0.5 0.1 0.2 0.2 0.4l-2.9 2.6-2.5-1.8c0.5-1.1 0.4-2.3-0.3-3.3-0.7-1-1.8-1.6-2.9-1.6-1.2 0-2.3 0.7-2.9 1.6-0.7 1-0.8 2.3-0.3 3.4l-6.9 5.9c-1.5-0.7-3.4-0.3-4.4 1.1-1 1.4-0.9 3.3 0.3 4.5 1.2 1.2 3.1 1.4 4.5 0.4 1.4-0.9 1.9-2.8 1.2-4.3l6.9-6q0.2 0.1 0.4 0.2 0.2 0.1 0.4 0.1 0.2 0.1 0.4 0.1 0.2 0 0.4 0 0.2 0 0.4 0 0.2 0 0.4-0.1 0.2 0 0.4-0.1 0.2-0.1 0.4-0.2l3.5 2.5q0.1 0.1 0.2 0.1 0.1 0.1 0.2 0.1 0.1 0 0.1 0.1 0.1 0 0.2 0 0.1 0 0.2-0.1 0.2 0 0.3 0 0.1 0 0.2-0.1 0-0.1 0.1-0.1l3.8-3.5q0.1 0 0.3 0.1 0.1 0 0.3 0.1 0.2 0 0.3 0 0.2 0.1 0.4 0.1c0.9 0 1.8-0.4 2.4-1.1 0.7-0.6 1.1-1.5 1.1-2.4 0-1-0.4-1.9-1.1-2.5-0.6-0.7-1.5-1-2.4-1zm-23.4 16.3c-0.4 0-0.9-0.3-1-0.7-0.2-0.5-0.1-1 0.2-1.3 0.3-0.3 0.8-0.4 1.3-0.2 0.4 0.1 0.7 0.6 0.7 1q0 0.3-0.1 0.5-0.1 0.2-0.2 0.4-0.2 0.1-0.4 0.2-0.2 0.1-0.5 0.1zm11.7-10.5c-0.5 0-0.9-0.3-1.1-0.7-0.2-0.5-0.1-1 0.3-1.3 0.3-0.3 0.8-0.4 1.2-0.2 0.5 0.1 0.8 0.6 0.8 1q0 0.3-0.1 0.5-0.1 0.2-0.3 0.4-0.1 0.1-0.4 0.2-0.2 0.1-0.4 0.1zm11.7-1.2c-0.5 0-0.9-0.3-1.1-0.7-0.2-0.4-0.1-0.9 0.2-1.3 0.4-0.3 0.9-0.4 1.3-0.2 0.4 0.2 0.7 0.6 0.7 1.1q0 0.2-0.1 0.4 0 0.2-0.2 0.4-0.2 0.2-0.4 0.2-0.2 0.1-0.4 0.1z"/><path fill-rule="evenodd" class="h" d="m9.3 29.2c-1.3 0-2.3-1.1-2.3-2.4 0-1.3 1-2.3 2.3-2.3 1.3 0 2.4 1 2.4 2.3 0 1.3-1.1 2.4-2.4 2.4z"/><path fill-rule="evenodd" class="h" d="m21 18.7c-1.3 0-2.3-1.1-2.3-2.4 0-1.3 1-2.3 2.3-2.3 1.3 0 2.3 1 2.3 2.3 0 1.3-1 2.4-2.3 2.4z"/><path fill-rule="evenodd" class="h" d="m32.7 17.5c-1.3 0-2.4-1-2.4-2.3 0-1.3 1.1-2.4 2.4-2.4 1.3 0 2.3 1.1 2.3 2.4 0 1.3-1 2.3-2.3 2.3z"/><path fill-rule="evenodd" class="i" d="m31 38.2c-0.9 1.9-2.4 3-3.5 2.5-1.1-0.5-1.3-2.4-0.5-4.2 0.9-1.9 2.4-3 3.5-2.5 1.1 0.5 1.3 2.4 0.5 4.2z"/></svg>