<?xml version="1.0" encoding="utf-8"?>
<!-- Generator: Adobe Illustrator 26.5.0, SVG Export Plug-In . SVG Version: 6.00 Build 0)  -->
<svg version="1.1" id="Layer_1" xmlns="http://www.w3.org/2000/svg" xmlns:xlink="http://www.w3.org/1999/xlink" x="0px" y="0px"
	 width="80px" height="80px" viewBox="0 0 80 80" enable-background="new 0 0 80 80" xml:space="preserve">
<path fill="#FFFFFF" d="M53.319,27.888c0-0.69,0.56-1.25,1.25-1.25h24.182c0.69,0,1.25,0.56,1.25,1.25s-0.56,1.25-1.25,1.25H54.569
	C53.878,29.138,53.319,28.579,53.319,27.888z M0.001,17.595C0.001,7.893,7.894,0,17.596,0s17.595,7.893,17.595,17.595
	S27.298,35.19,17.596,35.19S0.001,27.297,0.001,17.595z M32.638,18.852l-12.857-0.006l6.513,11.079
	C29.839,27.417,32.26,23.42,32.638,18.852z M18.846,2.552v13.793l13.793,0.006C32.039,9.02,26.176,3.156,18.846,2.552z
	 M2.501,17.595c0,8.323,6.772,15.095,15.095,15.095c2.344,0,4.564-0.537,6.545-1.494l-7.623-12.967
	c-0.113-0.192-0.172-0.411-0.172-0.633V2.552C8.605,3.19,2.501,9.693,2.501,17.595z M54.569,3.318h24.182
	c0.69,0,1.25-0.56,1.25-1.25s-0.56-1.25-1.25-1.25H54.569c-0.69,0-1.25,0.56-1.25,1.25S53.878,3.318,54.569,3.318z M54.569,8.552
	H66.66c0.69,0,1.25-0.56,1.25-1.25s-0.56-1.25-1.25-1.25H54.569c-0.69,0-1.25,0.56-1.25,1.25S53.878,8.552,54.569,8.552z
	 M40.864,8.12V1.25c0-0.69,0.56-1.25,1.25-1.25h6.87c0.69,0,1.25,0.56,1.25,1.25v6.87c0,0.69-0.56,1.25-1.25,1.25h-6.87
	C41.423,9.37,40.864,8.81,40.864,8.12z M43.364,6.87h4.37V2.5h-4.37V6.87z M54.569,16.228h24.182c0.69,0,1.25-0.56,1.25-1.25
	s-0.56-1.25-1.25-1.25H54.569c-0.69,0-1.25,0.56-1.25,1.25S53.878,16.228,54.569,16.228z M54.569,21.462H66.66
	c0.69,0,1.25-0.56,1.25-1.25c0-0.69-0.56-1.25-1.25-1.25H54.569c-0.69,0-1.25,0.56-1.25,1.25
	C53.319,20.902,53.878,21.462,54.569,21.462z M40.864,21.03v-6.87c0-0.69,0.56-1.25,1.25-1.25h6.87c0.69,0,1.25,0.56,1.25,1.25v6.87
	c0,0.69-0.56,1.25-1.25,1.25h-6.87C41.423,22.28,40.864,21.72,40.864,21.03z M43.364,19.78h4.37v-4.37h-4.37V19.78z M10.816,50.211
	V78.75c0,0.69-0.56,1.25-1.25,1.25H1.251c-0.69,0-1.25-0.56-1.25-1.25V50.211c0-0.69,0.56-1.25,1.25-1.25h8.316
	C10.257,48.961,10.816,49.52,10.816,50.211z M8.316,51.461H2.501V77.5h5.816V51.461z M79.236,72.764l-3.191,3.288
	c-0.531,0.547-1.239,0.822-1.947,0.822c-0.681,0-1.363-0.254-1.889-0.765l-8.838-8.576c-0.519-0.503-0.811-1.18-0.822-1.906
	c-0.006-0.381,0.068-0.749,0.21-1.089l-3.402-3.301c-1.196,0.895-2.511,1.638-3.917,2.204V78.75c0,0.69-0.56,1.25-1.25,1.25h-8.315
	c-0.69,0-1.25-0.56-1.25-1.25V64.132c-1.515-0.394-2.951-0.988-4.276-1.752V78.75c0,0.69-0.56,1.25-1.25,1.25h-8.315
	c-0.69,0-1.25-0.56-1.25-1.25V54.43c0-0.69,0.56-1.25,1.25-1.25h1.87c-0.654-1.825-1.012-3.79-1.012-5.837
	c0-6.63,3.74-12.402,9.221-15.32V27.07c0-0.69,0.56-1.25,1.25-1.25h6.87c0.69,0,1.25,0.56,1.25,1.25v2.973
	c2.357,0.168,4.584,0.809,6.589,1.828h9.837c0.69,0,1.25,0.56,1.25,1.25s-0.56,1.25-1.25,1.25h-6.172
	c3.582,3.18,5.844,7.816,5.844,12.971c0,3.312-0.934,6.41-2.551,9.045l3.547,3.442c0.336-0.152,0.702-0.237,1.082-0.243
	c0.729-0.011,1.411,0.26,1.93,0.764l8.838,8.576C80.252,69.97,80.278,71.691,79.236,72.764L79.236,72.764z M62.305,58.441
	c-0.334,0.4-0.684,0.785-1.052,1.153l3.112,3.019l1.087-1.12L62.305,58.441z M43.364,30.935c1.386-0.476,2.851-0.782,4.37-0.891
	V28.32h-4.37V30.935z M34.143,47.343c0,8.185,6.659,14.844,14.844,14.844s14.844-6.659,14.844-14.844
	c0-8.185-6.659-14.844-14.844-14.844S34.143,39.158,34.143,47.343z M37.849,60.627c-1.642-1.379-3.026-3.056-4.067-4.948h-1.748
	V77.5h5.815V60.627z M52.941,64.232c-1.27,0.297-2.594,0.455-3.954,0.455c-0.629,0-1.25-0.035-1.862-0.1V77.5h5.815V64.232z
	 M77.437,70.722l-8.838-8.576c-0.049-0.048-0.107-0.058-0.148-0.058c-0.001,0-0.003,0-0.004,0c-0.041,0.001-0.101,0.012-0.15,0.063
	l-3.191,3.289c-0.049,0.051-0.059,0.11-0.058,0.152c0.001,0.041,0.012,0.1,0.063,0.15l8.838,8.577
	c0.082,0.079,0.223,0.077,0.302-0.004l3.191-3.289C77.521,70.942,77.519,70.801,77.437,70.722L77.437,70.722z M25.258,42.913V78.75
	c0,0.69-0.56,1.25-1.25,1.25h-8.316c-0.69,0-1.25-0.56-1.25-1.25V42.913c0-0.69,0.56-1.25,1.25-1.25h8.316
	C24.698,41.663,25.258,42.223,25.258,42.913z M22.758,44.163h-5.816V77.5h5.816V44.163z M36.019,47.343
	c0-7.151,5.818-12.969,12.969-12.969s12.969,5.818,12.969,12.969s-5.818,12.969-12.969,12.969S36.019,54.494,36.019,47.343
	L36.019,47.343z M48.987,57.812c2.594,0,4.968-0.95,6.799-2.518c-0.636-3.216-3.457-5.57-6.799-5.57
	c-3.343,0-6.163,2.355-6.799,5.57C44.019,56.861,46.394,57.812,48.987,57.812z M48.987,47.223c1.592,0,2.887-1.295,2.887-2.888
	s-1.295-2.887-2.887-2.887S46.1,42.743,46.1,44.336S47.395,47.223,48.987,47.223z M38.519,47.343c0,2.123,0.637,4.1,1.728,5.751
	c0.913-2.253,2.663-4.05,4.851-5.037c-0.927-0.968-1.497-2.279-1.497-3.722c0-2.971,2.417-5.387,5.387-5.387
	s5.387,2.417,5.387,5.387c0,1.443-0.571,2.754-1.497,3.722c2.188,0.987,3.938,2.784,4.851,5.037c1.09-1.652,1.728-3.628,1.728-5.751
	c0-5.772-4.696-10.469-10.469-10.469S38.519,41.571,38.519,47.343L38.519,47.343z"/>
</svg>
