<svg version="1.2" xmlns="http://www.w3.org/2000/svg" viewBox="0 0 59 70" width="59" height="70"><style>.a{fill:#6e61b6}.b{fill:#6354b1}.c{fill:#2ed1e2}.d{fill:#02c7dd}.e{fill:#f3f0f3}.f{fill:#e2dee2}.g{fill:#cbc4cc}.h{fill:#fed402}.i{fill:#00f2a6}.j{fill:#fe73c5}.k{fill:#fe4fb7}.l{fill:#05e39c}.m{fill:#fac600}.n{fill:#fff}.o{fill:#978ecb}</style><path class="a" d="m50.4 14.6v-10.4c0-2.3-1.9-4.2-4.2-4.2h-41.9c-2.4 0-4.2 1.9-4.2 4.2v10.4l0.4 0.1z"/><path class="b" d="m50.4 14.6v-10.4c0-2.3-1.9-4.2-4.2-4.2h-1.4v14.7z"/><path fill-rule="evenodd" class="c" d="m7.4 10.5c-1.8 0-3.2-1.5-3.2-3.3 0-1.9 1.4-3.3 3.2-3.3 1.8 0 3.3 1.4 3.3 3.3 0 1.8-1.5 3.3-3.3 3.3z"/><path class="d" d="m8.2 4c0.4 0.4 0.5 1 0.5 1.6 0 1.8-1.5 3.3-3.3 3.3q-0.4 0-0.8-0.1c0.6 1 1.6 1.7 2.9 1.7 1.8 0 3.2-1.5 3.2-3.3 0-1.6-1-2.9-2.5-3.2z"/><path class="e" d="m0.1 14.6v51.2c0 2.3 1.8 4.2 4.2 4.2h41.9c2.3 0 4.2-1.9 4.2-4.2v-51.2z"/><path class="f" d="m44.8 14.6v48.2c0 0.7-0.6 1.4-1.4 1.4h-43.3v1.6c0 2.3 1.8 4.2 4.2 4.2h41.9c2.3 0 4.2-1.9 4.2-4.2v-51.2z"/><path class="g" d="m33.8 43.3l-0.1-0.1h-17.9c-0.5 0-1 0.4-1 1 0 0.6 0.5 1.1 1 1.1h20l-0.2-0.2c-0.9-0.1-1.7-0.8-1.8-1.8z"/><path class="g" d="m33.8 37.6h-18c-0.5 0-1 0.5-1 1 0 0.6 0.5 1.1 1 1.1h18z"/><path class="g" d="m33.8 23c0-0.4 0.1-0.8 0.4-1.2h-18.4c-0.5 0-1 0.5-1 1.1 0 0.6 0.5 1 1 1h18z"/><path class="g" d="m33.8 27.5h-18c-0.5 0-1 0.4-1 1 0 0.6 0.5 1.1 1 1.1h18z"/><path class="g" d="m45 55.4h-29.2c-0.5 0-1-0.4-1-1 0-0.5 0.5-1 1-1h29.2c0.6 0 1 0.5 1 1 0 0.6-0.4 1-1 1z"/><path class="g" d="m45 61.1h-29.2c-0.5 0-1-0.5-1-1.1 0-0.5 0.5-1 1-1h29.2c0.6 0 1 0.5 1 1 0 0.6-0.4 1.1-1 1.1z"/><path class="h" d="m10.8 61.1h-5c-0.7 0-1.3-0.7-1.3-1.4v-4.9c0-0.8 0.6-1.4 1.3-1.4h5c0.7 0 1.3 0.6 1.3 1.4v4.9c0 0.7-0.6 1.4-1.3 1.4z"/><path class="i" d="m10.8 45.3h-5c-0.7 0-1.3-0.6-1.3-1.3v-5c0-0.8 0.6-1.4 1.3-1.4h5c0.7 0 1.3 0.6 1.3 1.4v5c0 0.7-0.6 1.3-1.3 1.3z"/><path class="j" d="m10.8 29.6h-5c-0.7 0-1.3-0.7-1.3-1.4v-5c0-0.7 0.6-1.4 1.3-1.4h5c0.7 0 1.3 0.7 1.3 1.4v5c0 0.7-0.6 1.4-1.3 1.4z"/><path class="k" d="m10.8 21.8h-1.4v3.5c0 0.8-0.7 1.4-1.4 1.4h-3.5v1.5c0 0.7 0.6 1.4 1.3 1.4h5c0.7 0 1.3-0.7 1.3-1.4v-5c0-0.7-0.6-1.4-1.3-1.4z"/><path class="l" d="m10.8 37.6h-1.4v3.5c0 0.7-0.7 1.4-1.4 1.4h-3.5v1.5c0 0.7 0.6 1.3 1.3 1.3h5c0.7 0 1.3-0.6 1.3-1.3v-5c0-0.8-0.6-1.4-1.3-1.4z"/><path class="m" d="m10.8 53.4h-1.4v3.5c0 0.7-0.7 1.3-1.4 1.3h-3.5v1.5c0 0.7 0.6 1.4 1.3 1.4h5c0.7 0 1.3-0.7 1.3-1.4v-4.9c0-0.8-0.6-1.4-1.3-1.4z"/><path class="h" d="m55.9 20.9h-20.1c-1.1 0-2.1 0.9-2.1 2.1v20.2c0 1.1 1 2.1 2.1 2.1h2.2v3.5c0 0.6 0.7 0.9 1.1 0.5l5.2-4h11.6c1.2 0 2.1-1 2.1-2.1v-20.2c0-1.2-0.9-2.1-2.1-2.1z"/><path class="m" d="m55.9 20.9h-2.2v18.5c0 0.7-0.6 1.4-1.4 1.4h-18.6v2.4c0 1.1 1 2.1 2.1 2.1h2.2v3.5c0 0.6 0.7 0.9 1.1 0.5l5.2-4h11.6c1.2 0 2.1-1 2.1-2.1v-20.2c0-1.2-0.9-2.1-2.1-2.1z"/><path class="n" d="m47.2 26.8l1 2.3c0.2 0.4 0.6 0.6 1 0.7l2.4 0.3c1.2 0.2 1.7 1.6 0.9 2.4l-1.8 1.8c-0.3 0.3-0.5 0.7-0.4 1.2l0.4 2.4c0.2 1.1-1 2-2 1.5l-2.2-1.2c-0.4-0.2-0.9-0.2-1.3 0l-2.1 1.2c-1.1 0.5-2.3-0.4-2.1-1.5l0.4-2.4c0.1-0.5 0-0.9-0.4-1.2l-1.7-1.8c-0.8-0.8-0.4-2.2 0.7-2.4l2.4-0.3c0.5-0.1 1-0.3 1.1-0.7l1.1-2.3c0.5-0.9 2-0.9 2.6 0z"/><path class="e" d="m52.5 32.5c0.8-0.8 0.3-2.2-0.9-2.4l-2.1-0.3c-0.3 3.8-3.6 6.8-7.4 6.8q-0.4 0-0.8-0.1l-0.3 1.4c-0.2 1.1 1 2 2.1 1.5l2.1-1.2c0.4-0.2 0.9-0.2 1.3 0l2.2 1.2c1 0.5 2.2-0.4 2-1.5l-0.4-2.4c-0.1-0.5 0.1-0.9 0.4-1.2z"/><path class="o" d="m45.8 5.9h-0.5c-0.5 0-1-0.5-1-1 0-0.6 0.5-1 1-1h0.5c0.6 0 1 0.4 1 1 0 0.5-0.4 1-1 1z"/><path class="o" d="m45.8 10.5h-0.5c-0.5 0-1-0.5-1-1.1 0-0.5 0.5-1 1-1h0.5c0.6 0 1 0.5 1 1 0 0.6-0.4 1.1-1 1.1z"/><path class="o" d="m26.6 5.9h-11.3c-0.6 0-1.1-0.5-1.1-1 0-0.6 0.5-1 1.1-1h11.3c0.6 0 1 0.4 1 1 0 0.5-0.4 1-1 1z"/><path class="o" d="m34.7 10.5h-19.4c-0.6 0-1.1-0.5-1.1-1.1 0-0.5 0.5-1 1.1-1h19.4c0.6 0 1 0.5 1 1 0 0.6-0.4 1.1-1 1.1z"/></svg>