<svg version="1.2" xmlns="http://www.w3.org/2000/svg" viewBox="0 0 70 70" width="70" height="70"><style>.a{fill:#445ea0}.b{fill:#e9e9ff}.c{fill:#0cb4fb}.d{fill:#ed524e}.e{fill:#fca92a}.f{fill:#0193fa}.g{fill:#cc8922}.h{fill:#c0433f}.i{fill:#293d7c}.j{fill:#f7a166}.k{fill:#4f5d99}.l{fill:#c88353}.m{fill:#53290e}.n{fill:#6c3315}</style><path fill-rule="evenodd" class="a" d="m30.2 69.3h36.2c2 0 3.6-1.7 3.6-3.7v-61.6c0-2-1.6-3.7-3.6-3.7h-36.2c-2 0-3.6 1.7-3.6 3.7v61.6c0 2 1.6 3.7 3.6 3.7z"/><path fill-rule="evenodd" class="b" d="m64.8 5.5v55h-33.1v-55z"/><path fill-rule="evenodd" class="c" d="m36 10.7h24.6v26.8h-24.6z"/><path fill-rule="evenodd" class="d" d="m60.6 43.5v11.8h-10.2v-11.8z"/><path fill-rule="evenodd" class="e" d="m46.2 43.5v11.8h-10.2v-11.8z"/><path class="b" d="m56.3 25.1v-2h-2.6q-0.2-1.2-0.9-2.1l1.8-1.9-1.3-1.4-1.9 1.9q-0.9-0.7-2.1-0.9v-2.7h-2v2.7q-1.2 0.2-2.1 0.9l-1.9-1.9-1.4 1.4 1.9 1.9q-0.7 0.9-0.9 2.1h-2.6v2h2.6q0.2 1.2 0.9 2.2l-1.9 1.8 1.4 1.4 1.9-1.9q0.9 0.7 2.1 0.9v2.7h2v-2.7q1.2-0.2 2.1-0.9l1.9 1.9 1.3-1.4-1.8-1.8q0.7-1 0.9-2.2c0 0 2.6 0 2.6 0zm-8 2.6c-2 0-3.5-1.6-3.5-3.6 0-1.9 1.5-3.5 3.5-3.5 1.9 0 3.5 1.6 3.5 3.5 0 2-1.6 3.6-3.5 3.6z"/><path fill-rule="evenodd" class="f" d="m37.9 10.7v26.8h-1.9v-26.8z"/><path fill-rule="evenodd" class="g" d="m37.9 43.5v11.8h-1.9v-11.8z"/><path fill-rule="evenodd" class="h" d="m52.4 43.5v11.8h-2v-11.8z"/><path fill-rule="evenodd" class="i" d="m30.2 69.3h1.6c-2 0-3.6-1.7-3.6-3.7v-61.6c0-2 1.6-3.7 3.6-3.7h-1.6c-2 0-3.6 1.7-3.6 3.7v61.6c0 2 1.6 3.7 3.6 3.7z"/><path fill-rule="evenodd" class="d" d="m31.7 46.7v15.5l-4.7 6.1h-21.3l-4.7-6.1v-15.5c4.4-3.7 9.7-5.9 15.4-5.9 5.6 0 10.9 2.2 15.3 5.9z"/><path fill-rule="evenodd" class="h" d="m2.7 64.4l-1.7-2.2v-15.5c4.4-3.7 9.7-5.9 15.4-5.9q0.4 0 0.8 0c-5.3 0.2-10.3 2.3-14.5 5.9 0 0 0 17.7 0 17.7z"/><path fill-rule="evenodd" class="j" d="m31.7 55.8v6.4l-4.7 6.1h-21.3l-4.7-6.1v-6.4z"/><path fill-rule="evenodd" class="k" d="m4.9 68.3h22.9v-14.1c0-0.7-0.6-1.3-1.3-1.3h-20.3c-0.7 0-1.3 0.6-1.3 1.3z"/><path class="b" d="m13.5 57.7l-2.8 2.9 2.8 2.8-1.3 1.4-3.6-3.5c-0.4-0.4-0.4-1 0-1.4l3.6-3.6zm10.5 2.2l-3.5-3.6-1.4 1.4 2.9 2.9-2.9 2.9 1.4 1.3 3.5-3.5q0.3-0.3 0.3-0.7 0-0.4-0.3-0.7zm-10.1 5.8l1.9 0.5 2.9-10.7-1.9-0.5z"/><path class="i" d="m1 69.3h-1v-2h32.7v2z"/><path fill-rule="evenodd" class="l" d="m2.7 64.4v-8.6h-1.7v6.4z"/><path fill-rule="evenodd" class="j" d="m11.3 38.9h10.1v5.7c0 2.8-2.3 5.1-5 5.1-2.8 0-5.1-2.3-5.1-5.1 0 0 0-5.7 0-5.7z"/><path fill-rule="evenodd" class="l" d="m11.3 38.9h10.1v5.7q0 0.2 0 0.4-1.3 0.8-2.9 1.2-1.1 0.2-2.1 0.2-1.1 0-2.2-0.2-1.6-0.4-2.9-1.2 0-0.2 0-0.4c0 0 0-5.7 0-5.7z"/><path fill-rule="evenodd" class="m" d="m16.4 13.3c7 0 12.7 2.9 12.7 11.2 0 8.3-5.7 15.1-12.7 15.1-7.1 0-12.8-6.8-12.8-15.1 0-8.3 5.7-11.2 12.8-11.2z"/><path fill-rule="evenodd" class="j" d="m25.3 21.7c0.9 2.2 1.4 4.8 1.4 7.5 0 8.3-4.6 15-10.3 15-5.8 0-10.4-6.7-10.4-15 0-2.9 0.5-5.5 1.5-7.8 2.4 1.7 6 2.6 10 2.4 2.9-0.2 5.6-1 7.8-2.1z"/><path fill-rule="evenodd" class="n" d="m19.8 11.7c0.7 0.9 2.1 1.4 3.6 1.3 1.7-0.1 3.2-1 3.9-2.2 1.9 1.2 3 2.9 3 4.7 0 4.2-6 7.9-13.4 8.3-7.3 0.3-13.3-2.8-13.3-7 0-5.9 11-10.1 16.2-5.1z"/><path class="m" d="m18.9 36.9l1.1 0.8-0.4 0.6c-0.9 1-2 1.6-3.1 1.6-1.2 0-2.2-0.6-3.1-1.6l-0.4-0.6 1-0.8 0.5 0.5c0.4 0.5 1.1 1.1 2 1.1 0.9 0 1.6-0.6 2-1.1zm-7.9-4.3h1.4v-3h-1.4zm9.2-3.1v3.1h1.4v-3.1z"/></svg>