<?xml version="1.0" encoding="utf-8"?>
<!-- Generator: Adobe Illustrator 26.5.0, SVG Export Plug-In . SVG Version: 6.00 Build 0)  -->
<svg version="1.1" id="Layer_1" xmlns="http://www.w3.org/2000/svg" xmlns:xlink="http://www.w3.org/1999/xlink" x="0px" y="0px"
	 width="80px" height="80px" viewBox="0 0 80 80" enable-background="new 0 0 80 80" xml:space="preserve">
<g id="User_Experience">
	<path fill="#FFFFFF" d="M36.25,5c0-0.69-0.56-1.25-1.25-1.25S33.75,4.31,33.75,5S34.31,6.25,35,6.25S36.25,5.69,36.25,5z"/>
	<path fill="#FFFFFF" d="M46.25,5c0-0.69-0.56-1.25-1.25-1.25S43.75,4.31,43.75,5S44.31,6.25,45,6.25S46.25,5.69,46.25,5z"/>
	<path fill="#FFFFFF" d="M78.75,15H65V6.25C65,2.798,62.202,0,58.75,0h-37.5C17.798,0,15,2.798,15,6.25V15H5
		c-0.69,0-1.25,0.56-1.25,1.25v22.5C3.75,39.44,4.31,40,5,40h10v10H1.25C0.56,50,0,50.56,0,51.25v15c0,0.69,0.56,1.25,1.25,1.25H15
		v6.25c0,3.452,2.798,6.25,6.25,6.25h37.5c3.452,0,6.25-2.798,6.25-6.25v-5.512c13.337-3.812,13.225-22.7,0-26.45V35h13.75
		c0.69,0,1.25-0.56,1.25-1.25v-17.5C80,15.56,79.44,15,78.75,15z M17.5,6.25c0-2.071,1.679-3.75,3.75-3.75h37.5
		c2.071,0,3.75,1.679,3.75,3.75V15H60V6.25C60,5.56,59.44,5,58.75,5H50c-0.69,0-1.25,0.56-1.25,1.25S48.19,7.5,47.5,7.5h-15
		c-0.69,0-1.25-0.56-1.25-1.25S30.69,5,30,5h-8.75C20.56,5,20,5.56,20,6.25V15h-2.5V6.25z M43.75,15c-0.69,0-1.25,0.56-1.25,1.25
		v17.5c0,0.69,0.56,1.25,1.25,1.25H57.5v6.787c-13.175,3.75-13.312,22.363-0.275,26.363c0.388,0.112,0.275-0.463,0.275,4.35h-35v-5
		h16.25c0.69,0,1.25-0.56,1.25-1.25v-15c0-0.69-0.56-1.25-1.25-1.25H22.5V40h10c0.69,0,1.25-0.56,1.25-1.25v-22.5
		c0-0.69-0.56-1.25-1.25-1.25h-10V7.5h6.462c0.53,1.499,1.948,2.501,3.538,2.5h15c1.59,0.001,3.008-1.001,3.538-2.5H57.5V15H43.75z
		 M64.55,52.725c0.001,1.823-1.475,3.301-3.298,3.302c-1.823,0.001-3.301-1.475-3.302-3.298c0-0.002,0-0.003,0-0.005v-1.137
		c0.001-1.823,1.48-3.299,3.302-3.298c1.821,0.001,3.296,1.477,3.298,3.298V52.725z M67.5,63.062l0.338,1
		c-3.942,2.911-9.321,2.911-13.263,0l0.35-1.013c1.178-3.471,4.947-5.33,8.419-4.152C65.302,59.563,66.839,61.102,67.5,63.062z
		 M6.25,17.5h25v20h-25V17.5z M17.5,40H20v10h-2.5V40z M2.5,52.5h35V65h-35V52.5z M58.75,77.5h-37.5c-2.071,0-3.75-1.679-3.75-3.75
		V67.5H20v6.25c0,0.69,0.56,1.25,1.25,1.25h37.5c0.69,0,1.25-0.56,1.25-1.25v-5c0.831,0.088,1.669,0.088,2.5,0v5
		C62.5,75.821,60.821,77.5,58.75,77.5z M69.887,62.2c-0.777-2.316-2.459-4.219-4.662-5.275c1.407-1.398,2.082-3.371,1.825-5.338
		c-0.001-3.203-2.599-5.799-5.802-5.798c-3.201,0.001-5.796,2.596-5.798,5.798c0,1.825,0,3.575,1.825,5.338
		c-2.206,1.052-3.889,2.957-4.663,5.275c-3.981-4.77-3.341-11.865,1.429-15.846s11.865-3.341,15.846,1.429
		C73.371,51.958,73.371,58.026,69.887,62.2z M62.5,41.312c-0.831-0.088-1.669-0.088-2.5,0V35h2.5V41.312z M77.5,32.562H45V17.5h32.5
		V32.562z"/>
	<path fill="#FFFFFF" d="M27.5,60h-20c-0.69,0-1.25,0.56-1.25,1.25S6.81,62.5,7.5,62.5h20c0.69,0,1.25-0.56,1.25-1.25
		S28.19,60,27.5,60z"/>
	<path fill="#FFFFFF" d="M7.5,57.5h25c0.69,0,1.25-0.56,1.25-1.25S33.19,55,32.5,55h-25c-0.69,0-1.25,0.56-1.25,1.25
		S6.81,57.5,7.5,57.5z"/>
	<path fill="#FFFFFF" d="M17.5,33.75v-7.5c0-0.69-0.56-1.25-1.25-1.25C15.56,25,15,25.56,15,26.25v7.5c0,0.69,0.56,1.25,1.25,1.25
		C16.94,35,17.5,34.44,17.5,33.75z"/>
	<path fill="#FFFFFF" d="M10,31.25v2.5c0,0.69,0.56,1.25,1.25,1.25s1.25-0.56,1.25-1.25v-2.5c0-0.69-0.56-1.25-1.25-1.25
		S10,30.56,10,31.25z"/>
	<path fill="#FFFFFF" d="M22.5,33.75V27.5c0-0.69-0.56-1.25-1.25-1.25S20,26.81,20,27.5v6.25c0,0.69,0.56,1.25,1.25,1.25
		S22.5,34.44,22.5,33.75z"/>
	<path fill="#FFFFFF" d="M27.5,33.75v-12.5c0-0.69-0.56-1.25-1.25-1.25S25,20.56,25,21.25v12.5c0,0.69,0.56,1.25,1.25,1.25
		S27.5,34.44,27.5,33.75z"/>
	<path fill="#FFFFFF" d="M52.863,20.363l-3.75,3.75c-0.49,0.486-0.493,1.278-0.007,1.768c0.002,0.002,0.005,0.005,0.007,0.007
		l3.75,3.75c0.49,0.49,1.285,0.49,1.775,0c0.49-0.49,0.49-1.285,0-1.775l0,0L51.763,25l2.875-2.863c0.49-0.49,0.49-1.285,0-1.775
		S53.353,19.872,52.863,20.363z"/>
	<path fill="#FFFFFF" d="M69.637,29.637l3.75-3.75c0.49-0.486,0.493-1.278,0.007-1.768c-0.002-0.002-0.005-0.005-0.007-0.007
		l-3.75-3.75c-0.49-0.49-1.285-0.49-1.775,0c-0.49,0.49-0.49,1.285,0,1.775L70.738,25l-2.875,2.863c-0.49,0.49-0.49,1.285,0,1.775
		S69.147,30.128,69.637,29.637z"/>
	<path fill="#FFFFFF" d="M57.712,28.062c-0.38,0.577-0.22,1.352,0.356,1.731c0.202,0.133,0.439,0.205,0.681,0.206
		c0.912,0,0.575,0.15,6.038-8.062c0.326-0.608,0.098-1.366-0.511-1.692c-0.53-0.284-1.187-0.151-1.564,0.317L57.712,28.062z"/>
</g>
</svg>
