<svg version="1.2" xmlns="http://www.w3.org/2000/svg" viewBox="0 0 71 82" width="71" height="82"><style>.a{fill:#eceff1}.b{fill:#3f323e}.c{fill:#4e3d4d}.d{fill:#d4d7d9}.e{fill:#00cd8a}.f{fill:#e4404d}.g{fill:#e6bd5c}.h{fill:#56a5e6}.i{fill:#00e499}.j{fill:#fd4755}.k{fill:#ffd266}.l{fill:#60b7ff}</style><path fill-rule="evenodd" class="a" d="m33.7 5.4h26.8c5 0 9 4.1 9 9v57.2c0 4.9-4 9-9 9h-26.8c-4.9 0-9-4.1-9-9v-57.2c0-4.9 4.1-9 9-9z"/><path fill-rule="evenodd" class="b" d="m60.5 81.6h-26.8c-5.5 0-10-4.5-10-10v-57.2c0-5.5 4.5-10 10-10h26.8c5.5 0 10 4.5 10 10v57.2c0 5.5-4.5 10-10 10zm-26.8-75.2c-4.4 0-8 3.6-8 8v50.4h42.8v-50.4c0-4.4-3.6-8-8-8z"/><path fill-rule="evenodd" class="c" d="m26.9 7.1c1.7-1.3 3.8-2.1 6.1-2.1h26.8c5.5 0 10 4.5 10 10v57.2c0 2.8-1.2 5.4-3.2 7.3-1.7 1.3-3.8 2.1-6.1 2.1h-26.8c-5.5 0-10-4.5-10-10v-57.2c0-2.9 1.2-5.5 3.2-7.3zm6.8-0.7c-2.1 0-4.1 0.9-5.5 2.2-1.9 1.5-3.2 3.8-3.2 6.4v50.4h43.5v-51c0-4.4-3.6-8-8-8z"/><path fill-rule="evenodd" class="b" d="m50.7 12.4h-7.2c-0.5 0-1-0.4-1-1 0-0.5 0.5-1 1-1h7.2c0.5 0 1 0.5 1 1 0 0.6-0.5 1-1 1z"/><path fill-rule="evenodd" class="c" d="m50.7 12.4h-7.2c-0.5 0-1-0.4-1-1q0-0.2 0.1-0.3 0.3-0.3 0.6-0.3h7.2c0.5 0 1 0.5 1 1q0 0.2-0.1 0.4-0.2 0.2-0.6 0.2z"/><path fill-rule="evenodd" class="d" d="m50.7 74h-7.2c-0.5 0-1-0.4-1-1 0-0.6 0.5-1 1-1h7.2c0.5 0 1 0.4 1 1 0 0.6-0.5 1-1 1z"/><path fill-rule="evenodd" class="a" d="m50.7 74h-7.2c-0.5 0-1-0.4-1-1q0-0.1 0.1-0.3c0.1-0.2 0.4-0.3 0.7-0.3h7.2c0.5 0 1 0.5 1 1q0 0.2-0.1 0.3c-0.2 0.2-0.4 0.3-0.7 0.3z"/><path fill-rule="evenodd" class="e" d="m56 57.2h-5.6c-1.5 0-2.7-1.2-2.7-2.8v-5.6c0-1.5 1.2-2.7 2.7-2.7h5.6c1.5 0 2.8 1.2 2.8 2.7v5.6c0 1.6-1.3 2.8-2.8 2.8z"/><path fill-rule="evenodd" class="f" d="m53.2 44.4c-2.7 0-5-2.3-5-5.1 0-2.7 2.3-5 5-5 2.8 0 5 2.3 5 5 0 2.8-2.2 5.1-5 5.1z"/><path fill-rule="evenodd" class="g" d="m44.5 56.7h-7c-0.8 0-1.4-0.3-1.8-1-0.3-0.6-0.3-1.4 0-2l3.6-6.2c0.3-0.6 1-1 1.7-1 0.7 0 1.4 0.4 1.7 1l3.6 6.2c0.3 0.6 0.3 1.4 0 2-0.4 0.7-1 1-1.8 1z"/><path fill-rule="evenodd" class="h" d="m43.8 44.9h-5.6c-1.5 0-2.8-1.2-2.8-2.8v-5.6c0-1.5 1.3-2.7 2.8-2.7h5.6c1.5 0 2.7 1.2 2.7 2.7v5.6c0 1.6-1.2 2.8-2.7 2.8z"/><path fill-rule="evenodd" class="i" d="m48.3 47.1q0.6-0.4 1.3-0.4h5.6c1.5 0 2.8 1.3 2.8 2.8v5.6c0 0.7-0.3 1.3-0.6 1.8q-0.6 0.3-1.4 0.3h-5.6c-1.5 0-2.7-1.2-2.7-2.8v-5.6c0-0.6 0.2-1.2 0.6-1.7z"/><path fill-rule="evenodd" class="j" d="m49.7 35.8c0.8-0.5 1.7-0.8 2.7-0.8 2.8 0 5.1 2.2 5.1 5 0 1.4-0.6 2.6-1.5 3.5-0.8 0.6-1.7 0.9-2.8 0.9-2.7 0-5-2.3-5-5.1 0-1.3 0.6-2.6 1.5-3.5z"/><path fill-rule="evenodd" class="k" d="m39.4 47.4q0.3-0.2 0.8-0.2c0.7 0 1.4 0.4 1.7 1l3.6 6.2c0.3 0.6 0.3 1.4 0 2q-0.1 0.1-0.1 0.2-0.4 0.1-0.9 0.1h-7c-0.8 0-1.4-0.3-1.8-1-0.3-0.6-0.3-1.4 0-2l3.6-6.2q0 0 0.1-0.1z"/><path fill-rule="evenodd" class="l" d="m43.8 44.9h-5.6c-1.5 0-2.8-1.2-2.8-2.8v-5.6c0-0.6 0.3-1.2 0.7-1.7q0.6-0.3 1.3-0.4h5.6c1.5 0 2.7 1.3 2.7 2.8v5.6c0 0.7-0.2 1.3-0.6 1.8q-0.6 0.3-1.3 0.3z"/><path fill-rule="evenodd" class="g" d="m21.7 32.2h-12.2c-1.9 0-3.5-1.6-3.5-3.5 0-1.6-0.5-2.9-1.5-4-2.4-2.7-3.7-6.2-3.7-9.9 0-8.2 6.6-14.9 14.8-14.9 8.2 0 14.8 6.7 14.8 14.9 0 3.7-1.3 7.2-3.7 9.9-1 1.1-1.5 2.4-1.5 4 0 1.9-1.5 3.5-3.5 3.5z"/><path fill-rule="evenodd" class="k" d="m21.7 32.2h-12.2c-1.9 0-3.5-1.6-3.5-3.5 0-1.6-0.5-2.9-1.5-4-2.4-2.7-3.7-6.2-3.7-9.9 0-5.2 2.7-9.8 6.8-12.5 2-1 4.2-1.5 6.5-1.5 8.2 0 14.9 6.7 14.9 14.9 0 3.6-1.4 7.1-3.8 9.9-1 1.1-1.5 2.4-1.5 3.9 0 1-0.4 1.9-1.1 2.5q-0.4 0.2-0.9 0.2z"/><path fill-rule="evenodd" class="b" d="m21.7 35.6h-12.2c-0.6 0-1-0.5-1-1 0-0.6 0.4-1 1-1h12.2c0.6 0 1 0.4 1 1 0 0.5-0.4 1-1 1zm-2.4 6.8h-7.4c-0.6 0-1-0.5-1-1 0-0.6 0.4-1 1-1h7.4c0.6 0 1 0.4 1 1 0 0.5-0.4 1-1 1zm2.4-3.4h-12.2c-0.6 0-1-0.5-1-1 0-0.6 0.4-1 1-1h12.2c0.6 0 1 0.4 1 1 0 0.5-0.4 1-1 1z"/><path fill-rule="evenodd" class="c" d="m22.2 35.5q0-0.2 0-0.4c0-0.5-0.4-0.9-1-0.9h-12.2q-0.3 0-0.5 0 0 0.2 0 0.4c0 0.5 0.4 1 1 1h12.2q0.3 0 0.5-0.1zm-11.3 5.9c0 0.5 0.4 1 1 1h7.4q0.3 0 0.5-0.1 0-0.2 0-0.3c0-0.6-0.4-1-1-1h-7.4q-0.3 0-0.5 0 0 0.2 0 0.4zm-2.4-3.4c0 0.5 0.4 1 1 1h12.2q0.3 0 0.5-0.1 0-0.2 0-0.4c0-0.5-0.4-0.9-1-0.9h-12.2q-0.3 0-0.5 0 0 0.2 0 0.4z"/><path fill-rule="evenodd" class="g" d="m7 14.8q-0.1 0-0.1-0.1c-0.6 0-0.9-0.5-0.9-1.1 0.5-3.8 3.2-7 6.9-8.1 0.5-0.1 1.1 0.2 1.2 0.7 0.2 0.5-0.1 1.1-0.7 1.2-2.9 0.9-5 3.4-5.4 6.5-0.1 0.5-0.5 0.9-1 0.9z"/><path fill-rule="evenodd" class="f" d="m32.2 33q-0.9 0-1.7-0.1c-1.2-0.2-2-1.1-2-2.3 0-0.6-0.3-1.2-0.9-1.5-0.5-0.3-1.2-0.3-1.7 0-1 0.6-2.3 0.3-3-0.6q-1.1-1.3-1.7-3c-0.4-1 0-2.3 1-2.9 0.5-0.3 0.9-0.8 0.9-1.5 0-0.6-0.4-1.2-0.9-1.5-1-0.5-1.4-1.8-1-2.9q0.6-1.6 1.7-2.9c0.7-0.9 2-1.2 3-0.6 0.5 0.3 1.2 0.3 1.7 0 0.6-0.3 0.9-0.9 0.9-1.5 0-1.2 0.8-2.2 2-2.3 1.1-0.2 2.3-0.2 3.4 0 1.2 0.1 2 1.1 2 2.3 0 0.6 0.3 1.2 0.9 1.5 0.5 0.3 1.1 0.3 1.7 0 1-0.6 2.3-0.4 3 0.6q1.1 1.3 1.7 2.9c0.4 1.1 0 2.4-1 2.9-0.5 0.4-0.9 0.9-0.9 1.5 0 0.7 0.4 1.2 0.9 1.5 1 0.6 1.4 1.9 1 2.9q-0.6 1.7-1.7 3c-0.7 0.9-2 1.2-3 0.6-0.6-0.3-1.2-0.3-1.7 0-0.6 0.3-0.9 0.9-0.9 1.5 0 1.2-0.8 2.1-2 2.3q-0.8 0.1-1.7 0.1zm2.7-11.9c0-1.5-1.2-2.7-2.7-2.7-1.5 0-2.7 1.2-2.7 2.7 0 1.5 1.2 2.8 2.7 2.8 1.5 0 2.7-1.3 2.7-2.8z"/><path fill-rule="evenodd" class="j" d="m23.1 13.6c0.6-0.3 1.4-0.3 2.1 0.1 0.5 0.3 1.2 0.3 1.7 0q0.3-0.2 0.5-0.4 0.1 0 0.2-0.1c0.6-0.3 0.9-0.9 0.9-1.5 0-0.6 0.2-1.2 0.6-1.6q0.3-0.2 0.7-0.2c1.1-0.2 2.3-0.2 3.4 0 1.2 0.1 2 1.1 2 2.3 0 0.6 0.3 1.2 0.9 1.5 0.5 0.3 1.2 0.3 1.7 0 1-0.6 2.3-0.4 3 0.6q1.1 1.3 1.7 2.9c0.4 1.1 0 2.4-1 2.9-0.5 0.4-0.9 0.9-0.9 1.5 0 0.7 0.4 1.2 0.9 1.5 1 0.6 1.4 1.9 1 2.9q-0.6 1.6-1.7 3-0.1 0.1-0.1 0.2c-0.7 0.3-1.5 0.3-2.2-0.1-0.6-0.3-1.2-0.3-1.7 0q-0.3 0.1-0.5 0.4-0.1 0-0.2 0.1c-0.6 0.3-0.9 0.9-0.9 1.5 0 0.6-0.2 1.2-0.6 1.6q-0.3 0.2-0.7 0.2-0.8 0.1-1.7 0.1-0.9 0-1.7-0.1c-1.2-0.2-2-1.1-2-2.3 0-0.6-0.3-1.2-0.9-1.5-0.5-0.3-1.2-0.3-1.7 0-1 0.6-2.3 0.3-3-0.6q-1.1-1.3-1.7-3c-0.4-1 0-2.3 1-2.9 0.5-0.3 0.9-0.8 0.9-1.5 0-0.6-0.4-1.1-0.9-1.5-1-0.5-1.4-1.8-1-2.9q0.6-1.6 1.7-2.9 0.1-0.1 0.2-0.2zm9.1 4.8c-0.7 0-1.4 0.3-1.9 0.8-0.9 0.5-1.5 1.4-1.5 2.4 0 1.5 1.2 2.8 2.7 2.8 0.7 0 1.4-0.3 1.9-0.8 0.9-0.5 1.5-1.4 1.5-2.5 0-1.5-1.2-2.7-2.7-2.7z"/></svg>