<?xml version="1.0" encoding="utf-8"?>
<!-- Generator: Adobe Illustrator 26.5.0, SVG Export Plug-In . SVG Version: 6.00 Build 0)  -->
<svg version="1.1" id="Layer_1" xmlns="http://www.w3.org/2000/svg" xmlns:xlink="http://www.w3.org/1999/xlink" x="0px" y="0px"
	 width="80px" height="80px" viewBox="0 0 80 80" enable-background="new 0 0 80 80" xml:space="preserve">
<path fill="#FFFFFF" d="M79.704,61.491c-0.846-2.439-3.3-3.937-5.856-3.576c-0.043-0.22-0.101-0.437-0.172-0.65
	c-0.437-1.309-1.383-2.386-2.625-2.987c-1.209-0.595-2.607-0.676-3.877-0.226l-0.23,0.081c-0.018-0.061-0.036-0.123-0.057-0.184
	c-0.423-1.264-1.338-2.303-2.538-2.883c-1.169-0.575-2.521-0.654-3.749-0.219l-3.24,1.143c-0.015-0.047-0.028-0.094-0.044-0.14
	c-0.818-2.377-3.408-3.64-5.784-2.823c-0.005,0.002-0.01,0.003-0.015,0.005L37.349,54.01l-1.306-1.059
	c-3.311-2.686-6.992-3.991-11.255-3.991c-3.495,0-5.271,0.902-6.698,1.626c-1.084,0.55-1.866,0.948-3.264,0.948h-2.194v-1.302
	c0-0.713-0.578-1.29-1.29-1.29H1.294c-0.713,0-1.29,0.578-1.29,1.29V78.71c0,0.713,0.578,1.29,1.29,1.29h10.048
	c0.713,0,1.29-0.578,1.29-1.29v-1.306h0.543c1.196-0.015,2.38,0.229,3.473,0.714l1.653,0.71c1.413,0.62,2.941,0.932,4.484,0.918
	c0.768,0,1.939,0.019,3.294,0.042c2.504,0.041,5.012,0.075,7.371,0.075c5.441,0,10.085-0.179,12.048-0.855l30.869-10.657
	C79.179,67.373,80.672,64.306,79.704,61.491z M68.033,56.487c0.62-0.219,1.301-0.178,1.89,0.113
	c0.619,0.301,1.091,0.838,1.308,1.491c0.063,0.189,0.105,0.384,0.125,0.582L59.799,62.66c-0.555-1.028-1.408-1.866-2.446-2.403
	L68.033,56.487z M61.459,53.282c0.578-0.203,1.213-0.165,1.762,0.106c0.577,0.279,1.017,0.779,1.221,1.387
	c0.025,0.073,0.044,0.145,0.062,0.219l-13.081,4.617h-2.208c-1.378,0.009-2.75-0.185-4.071-0.574L61.459,53.282z M52.375,51.467
	c0.488-0.172,1.024-0.141,1.489,0.087c0.477,0.228,0.842,0.638,1.013,1.139c0.018,0.053,0.032,0.106,0.045,0.159l-13.136,4.635
	c-0.482-0.309-0.946-0.645-1.39-1.006l-0.694-0.562L52.375,51.467z M10.052,77.419H2.584V51.522h7.468V77.419z M75.526,65.91
	L44.658,76.566c-2.62,0.902-12.973,0.731-18.536,0.639c-1.367-0.023-2.547-0.042-3.337-0.042c-1.193,0.011-2.375-0.231-3.468-0.71
	l-1.651-0.709c-1.415-0.623-2.946-0.938-4.492-0.922h-0.543V54.114h2.194c2.016,0,3.244-0.624,4.433-1.227
	c1.304-0.661,2.652-1.346,5.529-1.346c3.647,0,6.797,1.117,9.629,3.415l4.351,3.528c3.071,2.496,6.487,3.71,10.447,3.71h5.491
	c1.768,0,3.202,1.433,3.202,3.202s-1.433,3.202-3.202,3.202l0,0H35.66c-0.713,0-1.29,0.578-1.29,1.29s0.578,1.29,1.29,1.29h19.046
	c3.192-0.005,5.777-2.592,5.78-5.784c0-0.08-0.003-0.159-0.006-0.238l13.214-4.56c1.468-0.506,3.067,0.274,3.573,1.741
	C77.774,63.804,76.994,65.404,75.526,65.91L75.526,65.91z M39.513,4.267V1.29c0-0.713,0.578-1.29,1.29-1.29
	c0.713,0,1.29,0.578,1.29,1.29v2.976c0,0.713-0.578,1.29-1.29,1.29C40.091,5.557,39.513,4.979,39.513,4.267z M29.001,4.802
	c-0.356-0.617-0.145-1.406,0.472-1.763c0.617-0.356,1.406-0.145,1.763,0.472l1.486,2.574c0.36,0.615,0.154,1.405-0.461,1.766
	c-0.615,0.36-1.405,0.154-1.766-0.461c-0.003-0.005-0.006-0.01-0.009-0.015L29.001,4.802z M21.178,11.334
	c0.356-0.617,1.145-0.829,1.763-0.472l2.574,1.486c0.619,0.352,0.836,1.14,0.484,1.759c-0.352,0.619-1.14,0.836-1.759,0.484
	c-0.005-0.003-0.01-0.006-0.015-0.009l-2.573-1.486C21.034,12.741,20.823,11.951,21.178,11.334
	C21.179,11.334,21.179,11.334,21.178,11.334L21.178,11.334z M18.143,22.664c0-0.713,0.578-1.29,1.29-1.29l0,0h2.972
	c0.713,0,1.29,0.578,1.29,1.29s-0.578,1.29-1.29,1.29h-2.971C18.722,23.954,18.144,23.376,18.143,22.664
	C18.144,22.664,18.144,22.664,18.143,22.664L18.143,22.664z M25.987,31.217c0.356,0.617,0.145,1.406-0.472,1.763c0,0,0,0,0,0
	l-2.574,1.486c-0.615,0.36-1.405,0.154-1.766-0.461c-0.36-0.615-0.154-1.405,0.461-1.766c0.005-0.003,0.01-0.006,0.015-0.009
	l2.574-1.486c0.617-0.357,1.406-0.146,1.763,0.471C25.988,31.216,25.988,31.217,25.987,31.217L25.987,31.217z M48.885,6.084
	l1.49-2.574c0.362-0.614,1.153-0.818,1.767-0.456c0.607,0.358,0.815,1.137,0.466,1.749l-1.49,2.574
	c-0.357,0.617-1.146,0.827-1.763,0.47C48.739,7.491,48.528,6.701,48.885,6.084L48.885,6.084z M55.618,14.109
	c-0.356-0.617-0.144-1.406,0.474-1.762c0,0,0,0,0,0l2.579-1.486c0.611-0.367,1.403-0.17,1.771,0.44
	c0.367,0.611,0.17,1.403-0.44,1.771c-0.014,0.008-0.028,0.017-0.042,0.024l-2.579,1.486C56.763,14.939,55.974,14.726,55.618,14.109
	C55.618,14.109,55.618,14.109,55.618,14.109L55.618,14.109z M59.2,21.373h2.976c0.713,0,1.29,0.578,1.29,1.29s-0.578,1.29-1.29,1.29
	H59.2c-0.713,0-1.29-0.578-1.29-1.29S58.488,21.373,59.2,21.373L59.2,21.373z M55.618,31.218c0.356-0.617,1.145-0.83,1.762-0.474
	c0,0,0,0,0,0l2.579,1.486c0.62,0.352,0.836,1.14,0.484,1.759c-0.352,0.62-1.14,0.836-1.759,0.484
	c-0.004-0.002-0.009-0.005-0.013-0.008l-2.579-1.486C55.474,32.624,55.262,31.835,55.618,31.218
	C55.618,31.218,55.618,31.218,55.618,31.218z M31.08,32.035c1.084,1.214,1.984,2.222,2.463,3.77
	c-1.542,0.688-2.234,2.495-1.546,4.037c0.275,0.616,0.746,1.124,1.34,1.445v0.852c0.002,1.27,0.788,2.407,1.975,2.857v0.681
	c0.002,1.689,1.371,3.058,3.06,3.06h4.864c1.69-0.001,3.061-1.369,3.065-3.06v-0.681c1.187-0.451,1.973-1.587,1.975-2.857v-0.855
	c1.484-0.804,2.036-2.659,1.231-4.144c-0.32-0.591-0.827-1.06-1.441-1.335c0.478-1.548,1.378-2.557,2.463-3.77
	c0.657-0.711,1.274-1.458,1.85-2.236c4.604-6.392,3.154-15.305-3.237-19.909s-15.305-3.154-19.909,3.237
	c-3.586,4.979-3.586,11.693,0,16.672C29.807,30.578,30.424,31.324,31.08,32.035z M46.815,38.117c0.265,0,0.479,0.214,0.479,0.479
	c0,0.265-0.214,0.479-0.479,0.479l0,0H34.791c-0.265,0-0.479-0.214-0.479-0.479c0-0.265,0.214-0.479,0.479-0.479H46.815z
	 M45.694,42.14c-0.003,0.263-0.216,0.475-0.479,0.479h-8.819c-0.263-0.003-0.476-0.216-0.479-0.479v-0.484h9.777V42.14z
	 M43.719,45.678c-0.005,0.264-0.219,0.477-0.484,0.479h-4.864c-0.263-0.003-0.475-0.216-0.479-0.479v-0.479h5.827L43.719,45.678z
	 M40.803,9.79c6.451,0.001,11.68,5.231,11.68,11.682c0,2.447-0.769,4.832-2.198,6.819c-0.524,0.705-1.085,1.381-1.68,2.025
	c-1.253,1.401-2.542,2.845-3.142,5.22h-3.369V23.258l2.857-2.439c0.542-0.463,0.606-1.277,0.144-1.819
	c-0.463-0.542-1.277-0.606-1.819-0.144l-2.472,2.11l-2.468-2.109c-0.542-0.463-1.356-0.4-1.82,0.142
	c-0.463,0.542-0.4,1.356,0.142,1.82l2.854,2.44v12.279h-3.366c-0.602-2.375-1.89-3.819-3.142-5.22
	c-0.596-0.645-1.157-1.321-1.68-2.026c-1.437-1.983-2.208-4.371-2.201-6.819C29.13,15.023,34.355,9.798,40.803,9.79z"/>
</svg>
