<svg version="1.2" xmlns="http://www.w3.org/2000/svg" viewBox="0 0 70 70" width="70" height="70"><style>.a{fill:#c8e1ff}.b{fill:#aaccfa}.c{fill:#5f6473}.d{fill:#ffe180}.e{fill:#ffd36c}.f{fill:#e64b73}.g{fill:#fa5f87}</style><path class="a" d="m9 0l-9 9v60.9h54.1v-69.9z"/><path class="b" d="m0 9h9v-9z"/><path class="c" d="m47.5 39.9h-40.4c-0.6 0-1.2-0.5-1.2-1.1 0-0.7 0.6-1.2 1.2-1.2h40.4c0.7 0 1.2 0.5 1.2 1.2 0 0.6-0.5 1.1-1.2 1.1z"/><path class="c" d="m29.5 47.3h-22.4c-0.6 0-1.2-0.5-1.2-1.1 0-0.6 0.6-1.1 1.2-1.1h22.4c0.6 0 1.1 0.5 1.1 1.1 0 0.6-0.5 1.1-1.1 1.1z"/><path class="c" d="m25.7 54.8h-18.6c-0.6 0-1.2-0.5-1.2-1.2 0-0.6 0.6-1.1 1.2-1.1h18.6c0.6 0 1.1 0.5 1.1 1.1 0 0.7-0.5 1.2-1.1 1.2z"/><path class="c" d="m28 62.5h-20.9c-0.6 0-1.2-0.6-1.2-1.2 0-0.6 0.6-1.1 1.2-1.1h20.9c0.7 0 1.2 0.5 1.2 1.1 0 0.6-0.5 1.2-1.2 1.2z"/><path fill-rule="evenodd" class="d" d="m27.3 31.3c-6.2 0-11.1-4.9-11.1-11.1 0-6.2 4.9-11.2 11.1-11.2 6.2 0 11.2 5 11.2 11.2 0 6.2-5 11.1-11.2 11.1z"/><path class="c" d="m26.1 26.3q-0.3 0-0.6-0.2l-3.6-2.5c-0.5-0.4-0.6-1.1-0.2-1.6 0.3-0.5 1-0.6 1.5-0.3l2.7 1.9 5.7-6.6c0.5-0.5 1.2-0.5 1.6-0.1 0.5 0.4 0.6 1.1 0.2 1.6l-6.4 7.4c-0.2 0.2-0.6 0.4-0.9 0.4z"/><path class="e" d="m51.7 50.9c-6.7-3.8-13.1-5.3-14.3-3.3l-4.2 7.4 24.2 14 4.3-7.4c1.2-2-3.3-6.8-10-10.7z"/><path class="f" d="m66.3 25.8c-3.5-2-7.8-0.9-9.8 2.6-0.6 1-0.9 2-1 3.1 0 0-0.2 5.4-2.9 10.1-2.5 4.4-7.1 6.4-7.1 6.4l-0.2 0.3c1.9 0.7 4 1.8 6.2 3 2.1 1.2 4.1 2.6 5.7 4l0.2-0.4c0 0-0.5-5 2-9.4 2.7-4.7 7.3-7.6 7.3-7.6 0.9-0.6 1.6-1.4 2.2-2.3 2-3.5 0.8-7.9-2.6-9.8z"/><path class="g" d="m51.7 50.9c-6.7-3.8-13.1-5.3-14.3-3.3l-4.2 7.4 0.4 0.2c0.3-0.6 1.2-0.7 2-0.7 2.7 0 7.2 1.6 11.6 4.1 3.2 1.9 6 4 7.9 6 1.7 1.8 2.4 3.4 2 4.1q0 0.1-0.1 0.1l0.4 0.2 4.3-7.4c1.2-2-3.3-6.8-10-10.7z"/><path fill-rule="evenodd" class="c" d="m57.4 69c-1.1 2-7.5 0.5-14.2-3.4-6.7-3.8-11.2-8.6-10-10.6 1.2-2.1 7.5-0.6 14.2 3.3 6.7 3.8 11.2 8.6 10 10.7z"/></svg>