<svg version="1.2" xmlns="http://www.w3.org/2000/svg" viewBox="0 0 70 70" width="70" height="70"><style>.a{fill:#ecf0f1}.b{fill:#35495e}.c{fill:#bdc3c7}.d{fill:#8697cb}.e{fill:#4482c3}.f{fill:#fff}.g{fill:#894b9d}.h{fill:#26b99a}.i{fill:#f0c419}.j{fill:#e64c3c}</style><path class="a" d="m50.7 70h-31.4c-2 0-3.6-1.6-3.6-3.6v-62.8c0-2 1.6-3.6 3.6-3.6h31.4c2 0 3.6 1.6 3.6 3.6v62.8c0 2-1.6 3.6-3.6 3.6z"/><path fill-rule="evenodd" class="b" d="m54.3 7.2v53.1h-38.6v-53.1z"/><path class="c" d="m39.8 4.8h-6c-0.7 0-1.2-0.5-1.2-1.2 0-0.6 0.5-1.2 1.2-1.2h6c0.7 0 1.2 0.6 1.2 1.2 0 0.7-0.5 1.2-1.2 1.2z"/><path class="c" d="m30.2 4.8h-1.2c-0.7 0-1.2-0.5-1.2-1.2 0-0.6 0.5-1.2 1.2-1.2h1.2c0.6 0 1.2 0.6 1.2 1.2 0 0.7-0.6 1.2-1.2 1.2z"/><path fill-rule="evenodd" class="c" d="m35 68.8c-2 0-3.6-1.6-3.6-3.6 0-2 1.6-3.6 3.6-3.6 2 0 3.6 1.6 3.6 3.6 0 2-1.6 3.6-3.6 3.6z"/><path fill-rule="evenodd" class="d" d="m63.3 56.5l-20.5-13.2 1.3-2.1 20.5 13.3z"/><path fill-rule="evenodd" class="d" d="m45.2 27.6l-1.1-2.1 19.3-10.9 1.2 2.1z"/><path fill-rule="evenodd" class="d" d="m6.7 56.5l-1.3-2 20.5-13.3 1.3 2.1z"/><path fill-rule="evenodd" class="d" d="m24.8 27.6l-19.4-10.9 1.2-2.1 19.3 10.9z"/><path fill-rule="evenodd" class="e" d="m35 45.9c-6.7 0-12.1-5.4-12.1-12.1 0-6.7 5.4-12.1 12.1-12.1 6.7 0 12.1 5.4 12.1 12.1 0 6.7-5.4 12.1-12.1 12.1z"/><path class="f" d="m32.6 39.8c-0.3 0-0.6-0.1-0.9-0.3l-4.8-4.9c-0.5-0.4-0.5-1.2 0-1.7l4.8-4.8c0.5-0.5 1.3-0.5 1.7 0 0.5 0.5 0.5 1.2 0 1.7l-3.9 4 3.9 4c0.5 0.4 0.5 1.2 0 1.7-0.2 0.2-0.5 0.3-0.8 0.3z"/><path class="f" d="m37.4 39.8c-0.3 0-0.6-0.1-0.8-0.3-0.5-0.5-0.5-1.3 0-1.7l3.9-4-3.9-4c-0.5-0.5-0.5-1.2 0-1.7 0.4-0.5 1.2-0.5 1.7 0l4.8 4.8c0.5 0.5 0.5 1.3 0 1.7l-4.8 4.9c-0.3 0.2-0.6 0.3-0.9 0.3z"/><path fill-rule="evenodd" class="g" d="m70 49.5v9.6h-9.7v-9.6z"/><path fill-rule="evenodd" class="h" d="m70 12.1v9.6h-9.7v-9.6z"/><path fill-rule="evenodd" class="i" d="m9.7 49.5v9.6h-9.7v-9.6z"/><path fill-rule="evenodd" class="j" d="m9.7 12.1v9.6h-9.7v-9.6z"/></svg>