<svg version="1.2" xmlns="http://www.w3.org/2000/svg" viewBox="0 0 70 70" width="70" height="70"><style>.a{fill:#f2f2f2}.b{fill:#ccc}.c{fill:#fbb03b}.d{fill:#b6d554}.e{fill:#f8cf26}.f{fill:#5bc9e1}.g{fill:#29485a}.h{fill:#d0ecf4}.i{fill:#f29200}.j{fill:#0378a3}.k{fill:#7d9b3d}.l{fill:#a67c52}.m{fill:#ed1c24}</style><path class="a" d="m69.9 8.4v51.8h-63.9c-3.3 0-6-2.7-6-6 0-3.3 2.7-6 6-6 3.4 0 6.1 2.7 6.1 6v-45.8z"/><path class="b" d="m12.1 6c0-1.7-0.8-3.3-2-4.4-1.3-1.2-3-1.7-4.7-1.6-3.1 0.4-5.4 3.1-5.4 6.3v47.9c0-3.3 2.7-6 6-6 3.4 0 6.1 2.7 6.1 6z"/><path class="c" d="m14.5 16.9h42.1v13.2h-42.1z"/><path class="d" d="m24.1 63.8l36.1-36.1 6 6-36.1 36.2z"/><path class="e" d="m34.9 13.2l-16.8 16.9h33.7z"/><path class="f" d="m20.5 30.1v25.3h12l18.1-18.1v-7.2z"/><path class="g" d="m25.3 55.4v-14.5c0-2.6 2.2-4.8 4.8-4.8 2.7 0 4.8 2.2 4.8 4.8v12.1l-2.4 2.4z"/><path class="h" d="m41 47v-7.3h7.2z"/><path class="i" d="m25.3 30.1l9.6-9.6 9.7 9.6z"/><path fill-rule="evenodd" class="j" d="m20.5 30.1v25.3h-4.8v-25.3z"/><path class="j" d="m50.6 30.1h4.8v2.4l-4.8 4.8z"/><path class="k" d="m26.9 61.1l1.7-1.7 3.6 3.6-1.7 1.7z"/><path class="k" d="m30.5 57.5l1.7-1.7 2.4 2.4-1.7 1.7z"/><path class="k" d="m34.1 53.8l1.7-1.7 3.6 3.7-1.7 1.7z"/><path class="k" d="m37.7 50.2l1.7-1.7 2.4 2.4-1.7 1.7z"/><path class="k" d="m41.3 46.6l1.7-1.7 3.6 3.6-1.7 1.7z"/><path class="k" d="m44.9 43l1.7-1.7 2.4 2.4-1.7 1.7z"/><path class="k" d="m48.5 39.4l1.7-1.7 3.7 3.6-1.8 1.7z"/><path class="k" d="m52.1 35.8l1.8-1.7 2.4 2.4-1.7 1.7z"/><path class="k" d="m55.8 32.2l1.7-1.7 3.6 3.6-1.7 1.7z"/><path class="j" d="m55.4 44.6v10.8h-4.8v-6z"/><path class="f" d="m50.6 55.4h-6l6-6z"/><path class="l" d="m36.1 67.4l7.3 2.5v-4.9z"/><path fill-rule="evenodd" class="m" d="m65 65v4.9h-21.6v-4.9z"/><path class="b" d="m65 65h2.5c1.3 0 2.4 1.1 2.4 2.4 0 1.4-1.1 2.5-2.4 2.5h-2.5z"/><path fill-rule="evenodd" class="g" d="m66.2 14.5v2.4h-4.8v-2.4z"/><path fill-rule="evenodd" class="g" d="m66.2 19.3v2.4h-3.6v-2.4z"/><path fill-rule="evenodd" class="g" d="m66.2 24.1v2.4h-6v-2.4z"/><path fill-rule="evenodd" class="g" d="m66.2 54.2v2.4h-7.2v-2.4z"/><path fill-rule="evenodd" class="g" d="m66.2 49.4v2.4h-3.6v-2.4z"/><path fill-rule="evenodd" class="g" d="m66.2 44.6v2.4h-6v-2.4z"/></svg>