<svg width="145" height="93" viewBox="0 0 145 93" fill="none" xmlns="http://www.w3.org/2000/svg">
<path d="M144.73 3.17002C144.824 2.76659 144.573 2.36342 144.17 2.26952L137.596 0.739309C137.192 0.645407 136.789 0.896326 136.695 1.29976C136.601 1.70318 136.852 2.10635 137.256 2.20025L143.1 3.56044L141.739 9.40424C141.645 9.80766 141.896 10.2108 142.3 10.3047C142.703 10.3986 143.106 10.1477 143.2 9.74429L144.73 3.17002ZM1.3963 92.6367L2.67308 91.8421L1.88049 90.5686L0.603702 91.3633L1.3963 92.6367ZM5.22665 90.2528L7.78023 88.6635L6.98763 87.39L4.43406 88.9793L5.22665 90.2528ZM10.3338 87.0742L12.8874 85.485L12.0948 84.2115L9.5412 85.8008L10.3338 87.0742ZM15.4409 83.8957L17.9945 82.3064L17.2019 81.0329L14.6483 82.6222L15.4409 83.8957ZM20.5481 80.7171L23.1017 79.1278L22.3091 77.8543L19.7555 79.4436L20.5481 80.7171ZM25.6552 77.5385L28.2088 75.9492L27.4162 74.6758L24.8626 76.265L25.6552 77.5385ZM30.7624 74.36L33.3159 72.7707L32.5233 71.4972L29.9698 73.0865L30.7624 74.36ZM35.8695 71.1814L38.4231 69.5921L37.6305 68.3186L35.0769 69.9079L35.8695 71.1814ZM40.9767 68.0028L43.5302 66.4135L42.7376 65.14L40.1841 66.7293L40.9767 68.0028ZM46.0838 64.8243L48.6374 63.235L47.8448 61.9615L45.2912 63.5508L46.0838 64.8243ZM51.1909 61.6457L53.7445 60.0564L52.9519 58.7829L50.3983 60.3722L51.1909 61.6457ZM56.2981 58.4671L58.8516 56.8778L58.059 55.6043L55.5055 57.1936L56.2981 58.4671ZM61.4052 55.2885L63.9588 53.6993L63.1662 52.4258L60.6126 54.015L61.4052 55.2885ZM66.5124 52.11L69.0659 50.5207L68.2733 49.2472L65.7198 50.8365L66.5124 52.11ZM71.6195 48.9314L74.1731 47.3421L73.3805 46.0686L70.8269 47.6579L71.6195 48.9314ZM76.7267 45.7528L79.2802 44.1635L78.4876 42.89L75.9341 44.4793L76.7267 45.7528ZM81.8338 42.5742L84.3874 40.985L83.5948 39.7115L81.0412 41.3007L81.8338 42.5742ZM86.9409 39.3957L89.4945 37.8064L88.7019 36.5329L86.1483 38.1222L86.9409 39.3957ZM92.0481 36.2171L94.6017 34.6278L93.8091 33.3543L91.2555 34.9436L92.0481 36.2171ZM97.1552 33.0385L99.7088 31.4492L98.9162 30.1757L96.3626 31.765L97.1552 33.0385ZM102.262 29.8599L104.816 28.2707L104.023 26.9972L101.47 28.5865L102.262 29.8599ZM107.37 26.6814L109.923 25.0921L109.131 23.8186L106.577 25.4079L107.37 26.6814ZM112.477 23.5028L115.03 21.9135L114.238 20.64L111.684 22.2293L112.477 23.5028ZM117.584 20.3242L120.137 18.7349L119.345 17.4614L116.791 19.0507L117.584 20.3242ZM122.691 17.1457L125.245 15.5564L124.452 14.2829L121.898 15.8722L122.691 17.1457ZM127.798 13.9671L130.352 12.3778L129.559 11.1043L127.006 12.6936L127.798 13.9671ZM132.905 10.7885L135.459 9.19922L134.666 7.92572L132.113 9.51501L132.905 10.7885ZM138.012 7.60993L140.566 6.02064L139.773 4.74715L137.22 6.33643L138.012 7.60993ZM143.12 4.43136L144.396 3.63674L143.604 2.36325L142.327 3.15786L143.12 4.43136ZM144.73 3.17002C144.824 2.76659 144.573 2.36342 144.17 2.26952L137.596 0.739309C137.192 0.645407 136.789 0.896326 136.695 1.29976C136.601 1.70318 136.852 2.10635 137.256 2.20025L143.1 3.56044L141.739 9.40424C141.645 9.80766 141.896 10.2108 142.3 10.3047C142.703 10.3986 143.106 10.1477 143.2 9.74429L144.73 3.17002ZM1.3963 92.6367L2.67308 91.8421L1.88049 90.5686L0.603702 91.3633L1.3963 92.6367ZM5.22665 90.2528L7.78023 88.6635L6.98763 87.39L4.43406 88.9793L5.22665 90.2528ZM10.3338 87.0742L12.8874 85.485L12.0948 84.2115L9.5412 85.8008L10.3338 87.0742ZM15.4409 83.8957L17.9945 82.3064L17.2019 81.0329L14.6483 82.6222L15.4409 83.8957ZM20.5481 80.7171L23.1017 79.1278L22.3091 77.8543L19.7555 79.4436L20.5481 80.7171ZM25.6552 77.5385L28.2088 75.9492L27.4162 74.6758L24.8626 76.265L25.6552 77.5385ZM30.7624 74.36L33.3159 72.7707L32.5233 71.4972L29.9698 73.0865L30.7624 74.36ZM35.8695 71.1814L38.4231 69.5921L37.6305 68.3186L35.0769 69.9079L35.8695 71.1814ZM40.9767 68.0028L43.5302 66.4135L42.7376 65.14L40.1841 66.7293L40.9767 68.0028ZM46.0838 64.8243L48.6374 63.235L47.8448 61.9615L45.2912 63.5508L46.0838 64.8243ZM51.1909 61.6457L53.7445 60.0564L52.9519 58.7829L50.3983 60.3722L51.1909 61.6457ZM56.2981 58.4671L58.8516 56.8778L58.059 55.6043L55.5055 57.1936L56.2981 58.4671ZM61.4052 55.2885L63.9588 53.6993L63.1662 52.4258L60.6126 54.015L61.4052 55.2885ZM66.5124 52.11L69.0659 50.5207L68.2733 49.2472L65.7198 50.8365L66.5124 52.11ZM71.6195 48.9314L74.1731 47.3421L73.3805 46.0686L70.8269 47.6579L71.6195 48.9314ZM76.7267 45.7528L79.2802 44.1635L78.4876 42.89L75.9341 44.4793L76.7267 45.7528ZM81.8338 42.5742L84.3874 40.985L83.5948 39.7115L81.0412 41.3007L81.8338 42.5742ZM86.9409 39.3957L89.4945 37.8064L88.7019 36.5329L86.1483 38.1222L86.9409 39.3957ZM92.0481 36.2171L94.6017 34.6278L93.8091 33.3543L91.2555 34.9436L92.0481 36.2171ZM97.1552 33.0385L99.7088 31.4492L98.9162 30.1757L96.3626 31.765L97.1552 33.0385ZM102.262 29.8599L104.816 28.2707L104.023 26.9972L101.47 28.5865L102.262 29.8599ZM107.37 26.6814L109.923 25.0921L109.131 23.8186L106.577 25.4079L107.37 26.6814ZM112.477 23.5028L115.03 21.9135L114.238 20.64L111.684 22.2293L112.477 23.5028ZM117.584 20.3242L120.137 18.7349L119.345 17.4614L116.791 19.0507L117.584 20.3242ZM122.691 17.1457L125.245 15.5564L124.452 14.2829L121.898 15.8722L122.691 17.1457ZM127.798 13.9671L130.352 12.3778L129.559 11.1043L127.006 12.6936L127.798 13.9671ZM132.905 10.7885L135.459 9.19922L134.666 7.92572L132.113 9.51501L132.905 10.7885ZM138.012 7.60993L140.566 6.02064L139.773 4.74715L137.22 6.33643L138.012 7.60993ZM143.12 4.43136L144.396 3.63674L143.604 2.36325L142.327 3.15786L143.12 4.43136Z" fill="#676767"/>
</svg>
