<svg version="1.2" xmlns="http://www.w3.org/2000/svg" viewBox="0 0 70 65" width="70" height="65"><style>.a{fill:#2f5274}.b{fill:#53718e}.c{fill:#ebf5fc}.d{fill:#d4dde3}.e{fill:#223c55}.f{fill:#4b6680}.g{fill:#0593fc}.h{fill:#ffd400}.i{fill:#ba9b00}.j{fill:#70da40}.k{fill:#fbbd80}.l{fill:#fff}.m{fill:#65c43a}.n{fill:#e6bf00}.o{fill:#a78c00}.p{fill:#e2aa73}</style><path fill-rule="evenodd" class="a" d="m8.7 15.6h52.6c1.4 0 2.6 1.1 2.6 2.6v39.3c0 1.4-1.2 2.6-2.6 2.6h-52.6c-1.4 0-2.6-1.2-2.6-2.6v-39.3c0-1.5 1.2-2.6 2.6-2.6z"/><path fill-rule="evenodd" class="b" d="m0.9 56.4h68.2c0.5 0 0.9 0.4 0.9 0.8v3.3c0 2.3-1.9 4.2-4.1 4.2h-61.8c-2.2 0-4.1-1.9-4.1-4.2v-3.3c0-0.4 0.4-0.8 0.9-0.8z"/><path fill-rule="evenodd" class="c" d="m12.4 20.9h45.2c1 0 1.7 0.7 1.7 1.7v26.2c0 1-0.7 1.7-1.7 1.7h-45.2c-1 0-1.7-0.7-1.7-1.7v-26.2c0-1 0.7-1.7 1.7-1.7z"/><path fill-rule="evenodd" class="d" d="m12.4 20.9h2v29.6h-2c-1 0-1.7-0.7-1.7-1.7v-26.2c0-1 0.7-1.7 1.7-1.7z"/><path fill-rule="evenodd" class="e" d="m20.5 56.4h29v1.5c0 0.9-0.7 1.6-1.5 1.6h-25.9c-0.9 0-1.6-0.7-1.6-1.6 0 0 0-1.5 0-1.5z"/><path fill-rule="evenodd" class="f" d="m0.9 56.4h3c-0.5 0-0.9 0.4-0.9 0.8v3.3c0 2.3 1.9 4.2 4.2 4.2h-3.1c-2.2 0-4.1-1.9-4.1-4.2v-3.3c0-0.4 0.4-0.8 0.9-0.8z"/><path fill-rule="evenodd" class="g" d="m13.3 12c2.6 13.4 8.1 26.6 21.7 31.8 13.6-5.2 19.1-18.4 21.7-31.8-5.5-1.9-9.8-6.4-11.4-12h-20.6c-1.6 5.6-5.9 10.1-11.4 12z"/><path fill-rule="evenodd" class="c" d="m35 39c9.8-4.5 14.2-14.3 16.6-24.4-4.1-2.3-7.4-5.9-9.3-10.2h-14.6c-1.9 4.3-5.2 7.9-9.3 10.2 2.4 10.1 6.9 19.9 16.6 24.4z"/><path fill-rule="evenodd" class="h" d="m35 39c4.1-1.9 7.3-4.7 9.7-8.1v-1.6c0-4.4-3.5-7.9-7.8-7.9h-3.8c-4.3 0-7.8 3.5-7.8 7.9v1.6c2.4 3.4 5.6 6.2 9.7 8.1z"/><path fill-rule="evenodd" class="i" d="m39.1 31c0-0.6 0.5-1.1 1.1-1.1 0.6 0 1.1 0.5 1.1 1.1v3.8q-1 0.9-2.2 1.8zm-10.4 0c0-0.6 0.5-1.1 1.1-1.1 0.6 0 1.1 0.5 1.1 1.1v5.6q-1.2-0.8-2.2-1.8z"/><path fill-rule="evenodd" class="j" d="m56.1 28.1c-5.5 0-9.9-4.4-9.9-9.9 0-5.5 4.4-9.9 9.9-9.9 5.4 0 9.8 4.4 9.8 9.9 0 5.5-4.4 9.9-9.8 9.9z"/><path fill-rule="evenodd" class="k" d="m35 23.8c-3.4 0-6.1-3-6.1-6.7 0-3.7 2.7-6.7 6.1-6.7 3.4 0 6.1 3 6.1 6.7 0 3.7-2.7 6.7-6.1 6.7z"/><path class="l" d="m59.7 14.8c0.4-0.5 1.1-0.5 1.6 0 0.4 0.4 0.4 1.2 0 1.6l-5.2 5.2c-0.5 0.5-1.2 0.5-1.6 0l-3.7-3.6c-0.4-0.5-0.4-1.2 0-1.6 0.5-0.5 1.2-0.5 1.6 0l2.9 2.8z"/><path fill-rule="evenodd" class="m" d="m56.6 8.3q-0.2 0-0.5 0c-1.6 0-3.1 0.4-4.4 1-1.4 0.7-2.6 1.7-3.5 2.9-0.7 1-1.3 2.2-1.6 3.4q-0.4 1.2-0.4 2.6 0 1.4 0.4 2.7c0.4 1.3 1 2.5 1.8 3.5 1 1.2 2.2 2.2 3.6 2.8 1.2 0.6 2.6 0.9 4.1 0.9q0.3 0 0.5 0c-5.1-0.3-9.2-4.6-9.2-9.9 0-5.3 4.1-9.6 9.2-9.9z"/><path fill-rule="evenodd" class="n" d="m35 39q-2.2-1.6-4.1-3.6v1.2q1.9 1.4 4.1 2.4z"/><path fill-rule="evenodd" class="o" d="m30.9 36.6v-1.2q-1.2-1.2-2.2-2.7v2.1q1 0.9 2.2 1.8z"/><path fill-rule="evenodd" class="n" d="m28.7 34.8v-2.1q-1.8-2.4-3.2-5.2-0.2 0.9-0.2 1.8v1.6q1.5 2.1 3.4 3.9z"/><path fill-rule="evenodd" class="d" d="m25.3 29.3q0-0.9 0.2-1.8-1.6-3.2-2.8-6.6-0.9-2.6-1.5-5.3-0.1-0.5-0.2-0.9c4.2-2.4 7.6-6 9.8-10.3h-3.1c-1.9 4.3-5.2 7.9-9.3 10.2q0.1 0.5 0.2 1 0.7 2.7 1.6 5.3c1.2 3.6 2.9 7 5.1 10v-1.6z"/><path fill-rule="evenodd" class="p" d="m30.5 15.6c0.5-2.8 2.6-4.9 5.2-5.2q-0.3 0-0.7 0c-2.9 0-5.3 2.2-6 5.2q-0.1 0.7-0.1 1.5c0 1.4 0.4 2.7 1.1 3.8q0.3 0.5 0.6 0.9c1.2 1.2 2.7 2 4.4 2q0.4 0 0.7-0.1c-1.5-0.2-2.9-1-3.9-2.2q-0.2-0.3-0.4-0.6c-0.7-1.1-1.1-2.4-1.1-3.8q0-0.8 0.2-1.5z"/></svg>