<svg version="1.2" xmlns="http://www.w3.org/2000/svg" viewBox="0 0 70 67" width="70" height="67"><style>.a{fill:#ffe2cf}.b{fill:#ef5350}.c{fill:#c24441}.d{fill:#3b566a}.e{fill:#4fba6f}.f{fill:#ffe270}.g{fill:#5c9cee}.h{fill:#273845}.i{fill:#f5f5f5}</style><path fill-rule="evenodd" class="a" d="m48.6 54.6q-13.6 0-27.1 0c-0.7 0-1.2-0.5-1.2-1.2v-37c0-0.6 0.5-1.2 1.2-1.2h27.1c0.6 0 1.2 0.6 1.2 1.2v37c0 0.7-0.6 1.2-1.2 1.2z"/><path fill-rule="evenodd" class="b" d="m27.8 61.6c0.2-0.6-0.2-1.3-0.8-1.5-5.4-1.7-10.3-5.2-13.6-9.8-0.4-0.5-1.1-0.7-1.6-0.3-0.6 0.4-0.7 1.1-0.3 1.7 3.6 5 8.9 8.8 14.8 10.7q0.2 0 0.3 0c0.5 0 1-0.3 1.2-0.8zm16 0.8c5.8-1.9 10.8-5.4 14.4-10.3 3.7-5 5.7-10.9 5.7-17.2 0-0.6-0.5-1.1-1.2-1.1-0.6 0-1.2 0.5-1.2 1.1 0 11.6-7.4 21.7-18.5 25.2-0.6 0.2-0.9 0.9-0.7 1.5 0.1 0.5 0.6 0.8 1.1 0.8q0.2 0 0.4 0z"/><path fill-rule="evenodd" class="b" d="m7.3 36.1c-0.7 0-1.2-0.5-1.2-1.2 0-7.6 3-14.9 8.5-20.3 5.4-5.5 12.7-8.4 20.4-8.4 4.7 0 9.3 1.1 13.5 3.2 3.9 2.1 7.4 5.2 10 8.8 0.4 0.5 0.3 1.3-0.2 1.7-0.6 0.3-1.3 0.2-1.7-0.3-5-6.9-13-11.1-21.6-11.1-14.6 0-26.5 11.9-26.5 26.4 0 0.7-0.5 1.2-1.2 1.2z"/><path fill-rule="evenodd" class="c" d="m7.2 44.1c-0.3 0-0.7-0.2-0.9-0.5l-6-7.9c-0.3-0.4-0.4-0.9-0.2-1.3 0.2-0.4 0.7-0.6 1.1-0.6h12.2c0.5 0 0.9 0.2 1.1 0.6 0.2 0.4 0.1 0.9-0.2 1.3l-6.1 7.9c-0.2 0.3-0.6 0.5-1 0.5z"/><path fill-rule="evenodd" class="c" d="m68.8 36.1h-12.2c-0.4 0-0.8-0.2-1-0.6-0.2-0.4-0.2-0.9 0.1-1.3l6-7.9c0.2-0.3 0.6-0.5 1-0.5 0.3 0 0.7 0.2 0.9 0.5l6.2 7.9c0.2 0.4 0.3 0.9 0.1 1.3-0.2 0.4-0.6 0.6-1.1 0.6z"/><path fill-rule="evenodd" class="d" d="m20.6 2.3h-19.4c-0.7 0-1.2-0.5-1.2-1.1 0-0.7 0.5-1.2 1.2-1.2h19.4c0.7 0 1.2 0.5 1.2 1.2 0 0.6-0.5 1.1-1.2 1.1z"/><path fill-rule="evenodd" class="d" d="m13.7 8.1h-12.5c-0.7 0-1.2-0.5-1.2-1.2 0-0.6 0.5-1.1 1.2-1.1h12.5c0.7 0 1.2 0.5 1.2 1.1 0 0.7-0.5 1.2-1.2 1.2z"/><path fill-rule="evenodd" class="e" d="m60.9 10.3c-0.7 0-1.2-0.5-1.2-1.1v-5.2c0-0.7 0.5-1.2 1.2-1.2 0.6 0 1.2 0.5 1.2 1.2v5.2c0 0.6-0.6 1.1-1.2 1.1z"/><path fill-rule="evenodd" class="e" d="m63.5 7.7h-5.2c-0.7 0-1.2-0.5-1.2-1.1 0-0.7 0.5-1.2 1.2-1.2h5.2c0.6 0 1.2 0.5 1.2 1.2 0 0.6-0.6 1.1-1.2 1.1z"/><path fill-rule="evenodd" class="f" d="m7.2 62.4c-0.6 0-1.2-0.5-1.2-1.2v-5.2c0-0.6 0.6-1.1 1.2-1.1 0.7 0 1.2 0.5 1.2 1.1v5.2c0 0.7-0.5 1.2-1.2 1.2z"/><path fill-rule="evenodd" class="f" d="m9.8 59.8h-5.2c-0.6 0-1.2-0.5-1.2-1.2 0-0.6 0.6-1.1 1.2-1.1h5.2c0.7 0 1.2 0.5 1.2 1.1 0 0.7-0.5 1.2-1.2 1.2z"/><path fill-rule="evenodd" class="g" d="m61.8 64.6c-0.6 0-1.2-0.5-1.2-1.2v-5.2c0-0.6 0.6-1.2 1.2-1.2 0.7 0 1.2 0.6 1.2 1.2v5.2c0 0.7-0.5 1.2-1.2 1.2z"/><path fill-rule="evenodd" class="g" d="m64.4 62h-5.2c-0.6 0-1.2-0.5-1.2-1.2 0-0.6 0.6-1.2 1.2-1.2h5.2c0.7 0 1.2 0.6 1.2 1.2 0 0.7-0.5 1.2-1.2 1.2z"/><path fill-rule="evenodd" class="d" d="m44 22.9h-18c-0.7 0-1.2-0.5-1.2-1.2 0-0.6 0.5-1.2 1.2-1.2h18c0.7 0 1.2 0.6 1.2 1.2 0 0.7-0.5 1.2-1.2 1.2z"/><path fill-rule="evenodd" class="d" d="m44 28.2h-18c-0.7 0-1.2-0.5-1.2-1.2 0-0.6 0.5-1.2 1.2-1.2h18c0.7 0 1.2 0.6 1.2 1.2 0 0.7-0.5 1.2-1.2 1.2z"/><path fill-rule="evenodd" class="d" d="m44 33.5h-18c-0.7 0-1.2-0.5-1.2-1.2 0-0.7 0.5-1.2 1.2-1.2h18c0.7 0 1.2 0.5 1.2 1.2 0 0.7-0.5 1.2-1.2 1.2z"/><path fill-rule="evenodd" class="d" d="m44 38.8h-18c-0.7 0-1.2-0.6-1.2-1.2 0-0.7 0.5-1.2 1.2-1.2h18c0.7 0 1.2 0.5 1.2 1.2 0 0.6-0.5 1.2-1.2 1.2z"/><path fill-rule="evenodd" class="d" d="m37 66.7h-3.9c-0.6 0-1.1-0.4-1.2-0.9l-0.8-3.7-3.6 1.1c-0.6 0.2-1.1 0-1.4-0.5l-2-3.4c-0.2-0.5-0.1-1.1 0.3-1.4l2.7-2.6-2.7-2.5c-0.4-0.4-0.5-1-0.3-1.5l2-3.4c0.3-0.4 0.8-0.7 1.4-0.5l3.6 1.1 0.8-3.6c0.1-0.6 0.6-1 1.2-1h3.9c0.5 0 1 0.4 1.1 1l0.9 3.6 3.6-1.1c0.5-0.2 1.1 0.1 1.3 0.5l2 3.4c0.3 0.5 0.2 1.1-0.2 1.5l-2.8 2.5 2.8 2.6c0.4 0.3 0.5 0.9 0.2 1.4l-2 3.4c-0.2 0.5-0.8 0.7-1.3 0.5l-3.6-1.1-0.9 3.7c-0.1 0.5-0.6 0.9-1.1 0.9z"/><path fill-rule="evenodd" class="h" d="m35 61c-3.1 0-5.7-2.5-5.7-5.7 0-3.1 2.6-5.6 5.7-5.6 3.2 0 5.7 2.5 5.7 5.6 0 3.2-2.5 5.7-5.7 5.7z"/><path fill-rule="evenodd" class="i" d="m35 58.9c-2 0-3.6-1.6-3.6-3.6 0-2 1.6-3.5 3.6-3.5 2 0 3.6 1.5 3.6 3.5 0 2-1.6 3.6-3.6 3.6z"/></svg>