<svg version="1.2" xmlns="http://www.w3.org/2000/svg" viewBox="0 0 70 70" width="70" height="70"><style>.a{fill:#ffd100}.b{fill:#f9925a}.c{fill:#554e56}.d{fill:#529ecc}.e{fill:#685e69}.f{fill:#4695bc}.g{fill:#75ad50}.h{fill:#88c660}.i{fill:#f2f1e7}.j{fill:#e5e4da}.k{fill:#9dd678}</style><path class="a" d="m70 34.9c0 10.9-5 20.6-12.8 27-1 0.9-3.5-0.9-4.7-0.1-0.2 0.1 0.2-0.2 0 0-1.4 0.8-2 0.7-3.5 1.4-0.7 0.3-1.3 4.3-2 4.6-3.8 1.3-7.8 2.1-12 2.1-6.7 0-13-1.9-18.3-5.2q-2.1-1.3-3.9-2.8c-7.8-6.4-12.8-16.1-12.8-27 0-19.3 15.7-34.9 35-34.9 19.3 0 35 15.6 35 34.9z"/><path class="b" d="m45.9 24.2l1.9 1.9c-3.4 3.4-8 5.3-12.8 5.3-4.8 0-9.4-1.9-12.8-5.3l1.9-1.9c2.9 2.9 6.8 4.5 10.9 4.5 4.1 0 8-1.6 10.9-4.5z"/><path class="b" d="m41.9 20.2l1.9 1.9c-2.3 2.4-5.5 3.7-8.8 3.7-3.3 0-6.5-1.3-8.8-3.7l1.9-1.9c1.8 1.8 4.3 2.8 6.9 2.8 2.6 0 5.1-1 6.9-2.8z"/><path class="b" d="m32.1 16.2c0.8 0.8 1.8 1.2 2.9 1.2 1.1 0 2.1-0.4 2.9-1.2l1.9 2c-1.2 1.3-3 2-4.8 2-1.8 0-3.6-0.7-4.8-2z"/><path fill-rule="evenodd" class="c" d="m46.6 7v3.3h-23.2v-3.3z"/><path class="d" d="m50.6 17.3h-5.4c-1.6 0-2.9-1.3-2.9-2.9v-11.4c0-1.7 1.3-3 2.9-3h5.4c1.7 0 3 1.3 3 3v11.4c0 1.6-1.3 2.9-3 2.9z"/><path class="d" d="m24.8 17.3h-5.4c-1.7 0-3-1.3-3-2.9v-11.4c0-1.7 1.3-3 3-3h5.4c1.6 0 2.9 1.3 2.9 3v11.4c0 1.6-1.3 2.9-2.9 2.9z"/><path fill-rule="evenodd" class="e" d="m35 14.7c-3.3 0-6-2.7-6-6 0-3.4 2.7-6 6-6 3.3 0 6 2.6 6 6 0 3.3-2.7 6-6 6z"/><path class="c" d="m36.9 14.4q-0.9 0.3-1.9 0.3c-3.3 0-6-2.7-6-6 0-3.4 2.7-6 6-6q1 0 1.9 0.2c-2.4 0.8-4.2 3.1-4.2 5.8 0 2.6 1.8 4.9 4.2 5.7z"/><path class="f" d="m16.5 3.8h11.1v2.3h-11.1z"/><path class="f" d="m16.5 11.2h11.1v2.3h-11.1z"/><path class="f" d="m23.2 0v17.3h-2.3v-17.3z"/><path class="f" d="m42.4 3.8h11.1v2.3h-11.1z"/><path class="f" d="m42.4 11.2h11.1v2.3h-11.1z"/><path fill-rule="evenodd" class="f" d="m49.1 0v17.3h-2.3v-17.3z"/><path class="g" d="m54.3 48.4h-38.7c-0.5 0-1-0.3-1.2-0.8l-0.5-1.2c-0.3-0.9 0.3-1.7 1.2-1.7h39.7c0.9 0 1.5 0.8 1.2 1.7l-0.5 1.2c-0.2 0.5-0.6 0.8-1.2 0.8z"/><path class="e" d="m51.7 51.9h-33.5l2.6-13.1c0.4-2.1 2.2-3.6 4.4-3.6h19.5c2.2 0 4 1.5 4.4 3.6z"/><path class="c" d="m26.7 50.4q0.5 0.9 0.5 1.5h-9l2.6-13.1c0.4-2.1 2.2-3.6 4.4-3.6h4.6c-4.1 1.9-6.7 9.9-3.1 15.2z"/><path class="h" d="m19.7 52.2l-2.9-0.6 2.5-13.1c0.6-2.8 3-4.8 5.9-4.8h19.5c2.9 0 5.3 2 5.9 4.8l2.5 13.1-2.8 0.6-2.6-13.1c-0.3-1.4-1.5-2.5-3-2.5h-19.5c-1.5 0-2.7 1.1-3 2.5z"/><path class="g" d="m25.2 33.7h1.4c-2.8 0-5.3 2-5.8 4.8l-2.6 13.1 1.5 0.3v0.3l-2.9-0.6 2.5-13.1c0.6-2.8 3-4.8 5.9-4.8z"/><path class="e" d="m44.2 67.1h-18.4c-0.9 0-1.7-0.8-1.7-1.7v-2.2h21.8v2.2c0 0.9-0.8 1.7-1.7 1.7z"/><path class="e" d="m21.3 69.9h-3.5c-1 0-1.7-0.8-1.7-1.8v-5.9h6.9v5.9c0 1-0.8 1.8-1.7 1.8z"/><path class="c" d="m19.8 69.9h-2c-1 0-1.7-0.8-1.7-1.8v-5.9h2v5.9c0 1 0.8 1.8 1.7 1.8z"/><path class="e" d="m53.9 62.2v1.8c-0.2 0.1-0.4 0.6-0.6 0.7q-3 1.8-6.3 3.1v-5.6c0 0 6.9 0 6.9 0z"/><path class="c" d="m49 62.2v4.8q-1 0.4-2 0.8v-5.6z"/><path class="h" d="m55.3 54.6v6.2h-40.7v-6.2c0-2.8 1.7-5.2 4.1-6.3 0.8-0.4 1.8-0.6 2.9-0.6h26.7c1.1 0 2.1 0.2 2.9 0.6 2.4 1.1 4.1 3.5 4.1 6.3z"/><path class="g" d="m26.4 47.7c-1 0-2 0.2-2.9 0.6-2.4 1.1-4 3.5-4 6.3v6.2h-4.9v-6.2c0-2.8 1.7-5.2 4.1-6.3 0.8-0.4 1.8-0.6 2.9-0.6z"/><path class="i" d="m57.2 61.4v0.5q-1.5 1.3-3.3 2.4-0.3 0.2-0.6 0.4h-38.8c-0.9 0-1.7-0.8-1.7-1.8v-1.5c0-0.9 0.8-1.7 1.7-1.7h41c0.9 0 1.7 0.8 1.7 1.7z"/><path class="j" d="m20.9 64.7h-6.4c-0.9 0-1.7-0.8-1.7-1.8v-1.5c0-0.9 0.8-1.7 1.7-1.7h6.4c-0.9 0-1.7 0.8-1.7 1.7v1.5c0 1 0.8 1.8 1.7 1.8z"/><path class="j" d="m42.1 66h-14.2c-0.9 0-1.6-0.7-1.6-1.6v-1.4c0-0.9 0.7-1.6 1.6-1.6h14.2c0.9 0 1.6 0.7 1.6 1.6v1.4c0 0.9-0.7 1.6-1.6 1.6z"/><path class="i" d="m22.6 57.7h-3.6c-1.2 0-2.1-1-2.1-2.2v-0.2c0-1.1 0.9-2.1 2.1-2.1h3.6c1.1 0 2.1 1 2.1 2.1v0.2c0 1.2-1 2.2-2.1 2.2z"/><path class="i" d="m51.1 57.7h-3.6c-1.2 0-2.1-1-2.1-2.2v-0.2c0-1.1 0.9-2.1 2.1-2.1h3.6c1.2 0 2.1 1 2.1 2.1v0.2c0 1.2-0.9 2.2-2.1 2.2z"/><path class="j" d="m49.5 57.7h-2c-1.2 0-2.1-1-2.1-2.2v-0.2c0-1.1 0.9-2.1 2.1-2.1h2c-1.1 0-2.1 1-2.1 2.1v0.2c0 1.2 1 2.2 2.1 2.2z"/><path class="j" d="m21 57.7h-2c-1.2 0-2.1-1-2.1-2.2v-0.2c0-1.1 0.9-2.1 2.1-2.1h2c-1.1 0-2.1 1-2.1 2.1v0.2c0 1.2 1 2.2 2.1 2.2z"/><path class="e" d="m41.8 57h-13.7c-0.8 0-1.4-0.6-1.4-1.4 0-0.7 0.6-1.4 1.4-1.4h13.7c0.8 0 1.4 0.7 1.4 1.4 0 0.8-0.6 1.4-1.4 1.4z"/><path class="k" d="m51.2 48.3c-0.7 0.4-1.3 1-1.8 1.7q-0.7 0.9-1.7 1.4c-0.6 0.3-1.3 0.5-2.1 0.5h-21.3c-1.3 0-2.5-0.6-3.4-1.5q-0.2-0.2-0.4-0.4c-0.5-0.7-1.1-1.3-1.8-1.7 0.8-0.4 1.8-0.6 2.9-0.6h26.7c1.1 0 2.1 0.2 2.9 0.6z"/><path class="h" d="m26.4 47.7c-1 0-2 0.2-2.9 0.6-1 0.5-1.9 1.2-2.6 2.1q-0.2-0.2-0.4-0.4c-0.5-0.7-1.1-1.3-1.8-1.7 0.8-0.4 1.8-0.6 2.9-0.6z"/></svg>