<svg version="1.2" xmlns="http://www.w3.org/2000/svg" viewBox="0 0 71 70" width="71" height="70"><style>.a{fill:#665e66}.b{fill:#fab400}.c{fill:#415a6b}.d{fill:#ced6e0}.e{fill:#55c0eb}</style><path fill-rule="evenodd" class="a" d="m38 68.9q-0.2 0-0.3-0.1c-0.3-0.2-0.5-0.5-0.5-0.8v-2.4h-12c-0.5 0-0.8-0.4-0.8-0.9v-4.3c0-0.4 0.3-0.8 0.8-0.8h12v-2.5c0-0.3 0.2-0.6 0.5-0.7 0.2-0.2 0.6-0.1 0.8 0.1l7.2 5.4c0.3 0.2 0.4 0.4 0.4 0.7 0 0.2-0.1 0.5-0.4 0.6l-7.2 5.5q-0.2 0.2-0.5 0.2z"/><path fill-rule="evenodd" class="a" d="m38 13q-0.2 0-0.3-0.1c-0.3-0.1-0.5-0.4-0.5-0.7v-2.5h-12c-0.5 0-0.8-0.3-0.8-0.8v-4.3c0-0.5 0.3-0.8 0.8-0.8h12v-2.5c0-0.3 0.2-0.6 0.5-0.7 0.2-0.2 0.6-0.2 0.8 0l7.2 5.5c0.3 0.1 0.4 0.4 0.4 0.6 0 0.3-0.1 0.5-0.4 0.7l-7.2 5.5q-0.2 0.1-0.5 0.1z"/><path fill-rule="evenodd" class="a" d="m60.9 45.6c-0.3 0-0.5-0.1-0.7-0.4l-5.4-7.2c-0.2-0.3-0.2-0.6-0.1-0.9 0.2-0.3 0.4-0.4 0.7-0.4h2.5v-12.1c0-0.5 0.4-0.8 0.8-0.8h4.3c0.5 0 0.8 0.3 0.8 0.8v12.1h2.5c0.3 0 0.6 0.1 0.7 0.4 0.2 0.3 0.1 0.6 0 0.9l-5.5 7.2c-0.1 0.3-0.4 0.4-0.6 0.4z"/><path fill-rule="evenodd" class="a" d="m9.6 45.6c-0.3 0-0.5-0.1-0.7-0.4l-5.4-7.2c-0.2-0.3-0.2-0.6-0.1-0.9 0.1-0.3 0.4-0.4 0.7-0.4h2.5v-12.1c0-0.5 0.4-0.8 0.8-0.8h4.3c0.5 0 0.8 0.3 0.8 0.8v12.1h2.5c0.3 0 0.6 0.1 0.7 0.4 0.2 0.3 0.1 0.6-0.1 0.9l-5.4 7.2c-0.1 0.3-0.4 0.4-0.6 0.4z"/><path fill-rule="evenodd" class="b" d="m66.7 13.3h-11.7c-1.9 0-3.4-1.6-3.4-3.5v-6.1c0-1.9 1.5-3.5 3.4-3.5h11.7c1.9 0 3.5 1.6 3.5 3.5v6.1c0 1.9-1.6 3.5-3.5 3.5z"/><path fill-rule="evenodd" class="b" d="m66.7 69.1h-11.7c-1.9 0-3.4-1.5-3.4-3.5v-6.1c0-1.9 1.5-3.5 3.4-3.5h11.7c1.9 0 3.5 1.6 3.5 3.5v6.1c0 2-1.6 3.5-3.5 3.5z"/><path fill-rule="evenodd" class="b" d="m15.4 69.1h-11.7c-1.9 0-3.5-1.5-3.5-3.5v-6.1c0-1.9 1.6-3.5 3.5-3.5h11.7c1.9 0 3.5 1.6 3.5 3.5v6.1c0 2-1.6 3.5-3.5 3.5z"/><path fill-rule="evenodd" class="b" d="m15.4 13.3h-11.7c-1.9 0-3.5-1.6-3.5-3.5v-6.1c0-1.9 1.6-3.5 3.5-3.5h11.7c1.9 0 3.5 1.6 3.5 3.5v6.1c0 1.9-1.6 3.5-3.5 3.5z"/><path fill-rule="evenodd" class="c" d="m49.9 42.1h-29.3c-0.5 0-0.9-0.4-0.9-0.9v-19.4c0-0.5 0.4-0.9 0.9-0.9h29.3c0.4 0 0.8 0.4 0.8 0.9v19.4c0 0.5-0.4 0.9-0.8 0.9z"/><path fill-rule="evenodd" class="c" d="m39 45.2h-7.6c-0.5 0-0.9-0.4-0.9-0.9v-3.1c0-0.4 0.4-0.8 0.9-0.8h7.6c0.5 0 0.9 0.4 0.9 0.8v3.1c0 0.5-0.4 0.9-0.9 0.9z"/><path fill-rule="evenodd" class="d" d="m47.3 48.4q0 0 0 0h-24.1c-0.4 0-0.6-0.1-0.8-0.4-0.2-0.3-0.2-0.6 0-0.9l1.8-3.2c0.2-0.3 0.5-0.5 0.8-0.5h20.4c0.3 0 0.6 0.2 0.8 0.5l1.8 3.1q0.2 0.3 0.2 0.5c0 0.5-0.4 0.9-0.9 0.9z"/><path fill-rule="evenodd" class="e" d="m49 22.7v17.7h-27.6v-17.7z"/></svg>