<svg version="1.2" xmlns="http://www.w3.org/2000/svg" viewBox="0 0 69 69" width="69" height="69"><style>.a{fill:#8f90fb}.b{fill:#26c666}.c{fill:#54e28e}.d{fill:#fff}</style><path class="a" d="m59.6 13.3l-11-0.8c-0.7 0-1-0.8-0.7-1.4l1.9-2.6c-11.8-6.9-26.9-5.1-36.6 4.6-9.3 9.3-11.4 23.3-5.7 34.7 0.4 1 0.1 2.2-0.8 2.8q0 0 0 0c-1.1 0.7-2.6 0.3-3.1-0.9-6.5-13-4.1-29 6.5-39.6 11.2-11.2 28.6-13.3 42.1-5.2l2-2.9c0.4-0.6 1.2-0.5 1.5 0.1l4.8 9.9c0.3 0.7-0.2 1.4-0.9 1.3z"/><path class="a" d="m58.9 58.8c-6.7 6.7-15.5 10.1-24.4 10.1-6.1 0-12.2-1.6-17.7-4.9l-1.9 2.9c-0.4 0.6-1.3 0.5-1.6-0.1l-4.8-9.9c-0.3-0.6 0.2-1.3 0.9-1.3l11 0.8c0.7 0.1 1.1 0.8 0.7 1.4l-1.8 2.7c11.7 6.9 26.8 5 36.5-4.7 9.5-9.5 11.5-23.9 5.4-35.5-0.6-0.9-0.2-2.2 0.7-2.7q0-0.1 0-0.1c1.1-0.6 2.5-0.3 3.1 0.8 7 13.2 4.7 29.7-6.1 40.5z"/><path class="b" d="m53.7 30.9v3.9c0 1.1-0.9 2-2 2h-1.5c-0.4 0-0.8 0.4-1 0.8q-0.5 1.8-1.4 3.4c-0.2 0.5-0.2 1 0.2 1.3l1 1c0.8 0.8 0.8 2.1 0 2.9l-2.7 2.7c-0.8 0.8-2.1 0.8-2.9 0l-1.1-1c-0.3-0.3-0.8-0.4-1.2-0.1q-1.6 0.9-3.4 1.4c-0.5 0.1-0.8 0.5-0.8 1v1.4c0 1.1-0.9 2.1-2.1 2.1h-3.8c-1.2 0-2.1-1-2.1-2.1v-1.4c0-0.5-0.3-0.9-0.8-1q-1.8-0.5-3.4-1.4c-0.4-0.3-0.9-0.2-1.3 0.1l-1 1c-0.8 0.8-2.1 0.8-2.9 0l-2.7-2.7c-0.8-0.8-0.8-2.1 0-2.9l1-1c0.3-0.3 0.4-0.8 0.2-1.3q-0.9-1.6-1.5-3.4c-0.1-0.4-0.5-0.8-1-0.8h-1.4c-1.1 0-2-0.9-2-2v-3.9c0-1.1 0.9-2 2-2h1.4c0.5 0 0.9-0.4 1-0.8q0.6-1.8 1.5-3.4c0.2-0.4 0.1-1-0.2-1.3l-1-1c-0.8-0.8-0.8-2.1 0-2.9l2.7-2.7c0.8-0.8 2.1-0.8 2.9 0l1 1c0.4 0.3 0.9 0.4 1.3 0.1q1.6-0.9 3.4-1.4c0.5-0.1 0.8-0.5 0.8-1v-1.4c0-1.1 0.9-2.1 2.1-2.1h3.8c1.2 0 2.1 1 2.1 2.1v1.4c0 0.5 0.3 0.9 0.8 1q1.8 0.5 3.4 1.4c0.4 0.3 0.9 0.2 1.2-0.1l1.1-1c0.8-0.8 2.1-0.9 2.9 0l2.7 2.7c0.8 0.8 0.8 2.1 0 2.9l-1 1c-0.3 0.3-0.4 0.8-0.2 1.3q0.9 1.6 1.4 3.4c0.2 0.4 0.6 0.8 1.1 0.8h1.4c1.1 0 2 0.9 2 2z"/><path class="c" d="m57 34.1v3.9c0 1.1-1 2.1-2.1 2.1h-1.4c-0.5 0-0.9 0.3-1 0.7q-0.6 1.9-1.5 3.5c-0.2 0.4-0.1 0.9 0.2 1.2l1 1c0.8 0.8 0.8 2.1 0 2.9l-2.7 2.8c-0.8 0.8-2.1 0.8-2.9 0l-1-1c-0.4-0.4-0.9-0.4-1.3-0.2q-1.6 0.9-3.4 1.4c-0.5 0.2-0.8 0.6-0.8 1v1.4c0 1.2-0.9 2.1-2 2.1h-3.9c-1.1 0-2.1-0.9-2.1-2.1v-1.4c0-0.5-0.3-0.9-0.7-1q-1.9-0.5-3.5-1.4c-0.4-0.2-0.9-0.2-1.2 0.2l-1 1c-0.9 0.8-2.1 0.8-3 0l-2.7-2.8c-0.8-0.8-0.8-2.1 0-2.9l1-1c0.4-0.3 0.4-0.8 0.2-1.2q-0.9-1.6-1.4-3.5c-0.2-0.4-0.6-0.7-1-0.7h-1.5c-1.1 0-2-1-2-2.1v-3.8c0-1.2 0.9-2.1 2-2.1h1.5c0.4 0 0.8-0.3 1-0.8q0.5-1.8 1.4-3.4c0.2-0.4 0.2-0.9-0.2-1.3l-1-1c-0.8-0.8-0.8-2.1 0-2.9l2.7-2.7c0.8-0.8 2.2-0.8 3 0l1 1c0.3 0.3 0.8 0.4 1.2 0.2q1.7-0.9 3.5-1.4c0.4-0.2 0.7-0.6 0.7-1.1v-1.4c0-1.1 1-2 2.1-2h3.9c1.1 0 2 0.9 2 2v1.4c0 0.5 0.3 0.9 0.8 1.1q1.8 0.5 3.4 1.4c0.4 0.2 0.9 0.1 1.3-0.2l1-1c0.8-0.8 2.1-0.8 2.9 0l2.7 2.7c0.8 0.8 0.8 2.1 0 2.9l-1 1c-0.3 0.4-0.4 0.9-0.1 1.3q0.8 1.6 1.4 3.4c0.1 0.5 0.5 0.8 1 0.8h1.4c1.1 0 2.1 0.9 2.1 2z"/><path fill-rule="evenodd" class="d" d="m36.1 45.5c-5.2 0-9.4-4.2-9.4-9.4 0-5.2 4.2-9.4 9.4-9.4 5.2 0 9.4 4.2 9.4 9.4 0 5.2-4.2 9.4-9.4 9.4z"/></svg>