<svg version="1.2" xmlns="http://www.w3.org/2000/svg" viewBox="0 0 70 67" width="70" height="67"><style>.a{fill:#fed402}.b{fill:#fac600}.c{fill:#01d0fb}.d{fill:#01c0fa}.e{fill:#fff}.f{fill:#f3f0f3}.g{fill:#99e6fc}.h{fill:#dff6fd}.i{fill:#c8effe}.j{fill:#08a9f1}.k{fill:#05e39c}.l{fill:#0ed290}</style><path fill-rule="evenodd" class="a" d="m36.5 67c-18.5 0-33.5-15-33.5-33.5 0-18.5 15-33.5 33.5-33.5 18.5 0 33.5 15 33.5 33.5 0 18.5-15 33.5-33.5 33.5z"/><path class="b" d="m36.5 4.5c-16 0-29 13-29 29q0 1.8 0.2 3.5c1.6-0.7 3.3-1 5.1-1 7 0 12.7 5.7 12.7 12.6 0 3.8-1.7 7.2-4.3 9.5 4.5 2.8 9.7 4.4 15.3 4.4 16 0 29-13 29-29 0-16-13-29-29-29z"/><path class="c" d="m36.5 8.6c-13.7 0-24.9 11.2-24.9 24.9q0 1.3 0.1 2.5 0.6 0 1.1 0c7 0 12.7 5.7 12.7 12.6 0 2.3-0.6 4.5-1.7 6.3 3.7 2.2 8.1 3.5 12.7 3.5 13.7 0 24.9-11.2 24.9-24.9 0-13.7-11.2-24.9-24.9-24.9z"/><path class="d" d="m27.2 49.3q-0.9-0.5-1.7-1.1 0 0.2 0 0.4c0 2.3-0.6 4.5-1.7 6.3 3.7 2.2 8.1 3.5 12.7 3.5q2.5 0 4.9-0.5c-5.7-1.2-10.7-4.3-14.2-8.6z"/><path class="d" d="m12.8 36c2.1 0 4 0.5 5.7 1.3q-0.4-1.8-0.4-3.8c0-6.7 3.7-12.6 9.1-15.8 3.5-4.3 8.5-7.4 14.2-8.6q-2.4-0.5-4.9-0.5c-13.7 0-24.9 11.2-24.9 24.9q0 1.3 0.1 2.5 0.6 0 1.1 0z"/><path class="e" d="m36.5 15.1c-10.1 0-18.4 8.3-18.4 18.4q0 2 0.4 3.8c4 2.1 6.8 6.1 7 10.9 3.1 2.3 6.9 3.7 11 3.7 10.1 0 18.4-8.3 18.4-18.4 0-10.1-8.3-18.4-18.4-18.4z"/><path class="f" d="m24.4 33.5c0-9.1 6.6-16.6 15.2-18.1q-1.5-0.3-3.1-0.3c-10.1 0-18.4 8.3-18.4 18.4q0 2 0.4 3.8c4 2.1 6.8 6.1 7 10.9 3.1 2.3 6.9 3.7 11 3.7q1.6 0 3.1-0.3c-8.6-1.5-15.2-9-15.2-18.1z"/><path class="g" d="m26.5 43.5c-0.5-0.6-1.4-0.6-1.9 0q-0.1 0-0.1 0.1 0.4 1 0.7 2.1c0.4 0.2 1 0.1 1.3-0.3 0.6-0.5 0.6-1.4 0-1.9z"/><path fill-rule="evenodd" class="h" d="m36.5 44c-5.8 0-10.5-4.7-10.5-10.5 0-5.8 4.7-10.5 10.5-10.5 5.8 0 10.5 4.7 10.5 10.5 0 5.8-4.7 10.5-10.5 10.5z"/><path class="i" d="m31.4 33.5c0-3 1.3-5.8 3.4-7.7v-2.7c-5 0.8-8.8 5.2-8.8 10.4 0 5.8 4.7 10.5 10.5 10.5q1.4 0 2.7-0.3c-4.4-1.2-7.8-5.3-7.8-10.2z"/><path class="j" d="m48.2 35.2h-11.7c-0.9 0-1.7-0.8-1.7-1.7v-15.7c0-0.4 0.3-0.7 0.7-0.7h2c0.4 0 0.7 0.3 0.7 0.7v14h10c0.3 0 0.6 0.3 0.6 0.7v2c0 0.4-0.3 0.7-0.6 0.7z"/><path fill-rule="evenodd" class="k" d="m12.8 61.5c-7.1 0-12.8-5.8-12.8-12.9 0-7 5.7-12.8 12.8-12.8 7.1 0 12.8 5.8 12.8 12.8 0 7.1-5.7 12.9-12.8 12.9z"/><path class="l" d="m7 48.6c0-5.8 3.9-10.8 9.3-12.3q-1.7-0.5-3.5-0.5c-7.1 0-12.8 5.8-12.8 12.8 0 7.1 5.7 12.9 12.8 12.9q1.8 0 3.5-0.5c-5.4-1.5-9.3-6.5-9.3-12.4z"/><path class="e" d="m11.6 54.4c-0.4 0-0.7-0.1-1-0.4l-5.9-5.9c-0.3-0.2-0.3-0.7 0-0.9l1-1c0.2-0.3 0.7-0.3 0.9 0l5 4.9 7.4-7.4c0.3-0.2 0.7-0.2 1 0l0.9 1c0.3 0.3 0.3 0.7 0 1l-8.4 8.3c-0.2 0.3-0.6 0.4-0.9 0.4z"/><path fill-rule="evenodd" class="g" d="m36.5 50.3c-0.8 0-1.4-0.6-1.4-1.3 0-0.8 0.6-1.4 1.4-1.4 0.8 0 1.4 0.6 1.4 1.4 0 0.7-0.6 1.3-1.4 1.3z"/><path fill-rule="evenodd" class="g" d="m21.1 34.9c-0.8 0-1.4-0.6-1.4-1.4 0-0.8 0.6-1.4 1.4-1.4 0.7 0 1.3 0.6 1.3 1.4 0 0.8-0.6 1.4-1.3 1.4z"/><path fill-rule="evenodd" class="g" d="m25.6 23.9c-0.8 0-1.4-0.6-1.4-1.3 0-0.8 0.6-1.4 1.4-1.4 0.7 0 1.3 0.6 1.3 1.4 0 0.7-0.6 1.3-1.3 1.3z"/><path fill-rule="evenodd" class="g" d="m47.4 23.9c-0.7 0-1.3-0.6-1.3-1.3 0-0.8 0.6-1.4 1.3-1.4 0.8 0 1.4 0.6 1.4 1.4 0 0.7-0.6 1.3-1.4 1.3z"/><path fill-rule="evenodd" class="g" d="m52 34.9c-0.8 0-1.4-0.6-1.4-1.4 0-0.8 0.6-1.4 1.4-1.4 0.7 0 1.3 0.6 1.3 1.4 0 0.8-0.6 1.4-1.3 1.4z"/><path fill-rule="evenodd" class="g" d="m47.4 45.8c-0.7 0-1.3-0.6-1.3-1.4 0-0.7 0.6-1.3 1.3-1.3 0.8 0 1.4 0.6 1.4 1.3 0 0.8-0.6 1.4-1.4 1.4z"/></svg>