<svg version="1.2" xmlns="http://www.w3.org/2000/svg" viewBox="0 0 59 70" width="59" height="70"><style>.a{fill:#7f5b53}.b{fill:#f9eab0}.c{fill:#ecf0f1}.d{fill:#bdc3c7}.e{fill:#24ae5f}.f{fill:#35495e}.g{fill:#b0d3f0}.h{fill:#955ba5}.i{fill:#7f8c8d}</style><path class="a" d="m29.2 64h-26.8c-1.3 0-2.4-1.1-2.4-2.4v-54.4c0-1.3 1.1-2.4 2.4-2.4h43.3c1.3 0 2.4 1.1 2.4 2.4v30.1z"/><path class="b" d="m43.3 35.9v-25c0-0.7-0.5-1.2-1.2-1.2h-36.1c-0.7 0-1.2 0.5-1.2 1.2v47c0 0.7 0.5 1.2 1.2 1.2h19.8c0.4 0 0.7-0.1 0.9-0.4l16.4-22.1q0.2-0.3 0.2-0.7z"/><path class="c" d="m19.2 4.8c0-2.6 2.2-4.8 4.9-4.8 2.6 0 4.8 2.2 4.8 4.8"/><path class="d" d="m13.2 4.8h21.7v4.9c0 1.3-1.1 2.4-2.4 2.4h-16.9c-1.3 0-2.4-1.1-2.4-2.4z"/><path class="e" d="m21.4 41.5l-7.4-7.4c-0.5-0.5-0.5-1.2 0-1.7l1.7-1.7c0.5-0.5 1.2-0.5 1.7 0l3.3 3.3c0.3 0.3 0.6 0.4 1 0.3 0.3 0 0.6-0.2 0.8-0.5l10.1-14.7c0.2-0.3 0.5-0.4 0.8-0.5 0.3-0.1 0.7 0 0.9 0.2l2 1.4c0.3 0.1 0.4 0.4 0.5 0.7 0.1 0.3 0 0.7-0.2 0.9l-13.4 19.5c-0.2 0.3-0.5 0.5-0.8 0.6-0.4 0-0.8-0.1-1-0.4z"/><path class="f" d="m58.9 53.1c0 9.3-7.5 16.9-16.8 16.9-9.3 0-16.8-7.6-16.8-16.9h16.8v-16.9c4.5 0 8.7 1.8 11.9 5 3.2 3.1 4.9 7.4 4.9 11.9z"/><path class="g" d="m54.1 53.1q0 0.6 0 1.2c-0.6 5.7-5.1 10.2-10.8 10.8q-0.6 0.1-1.2 0.1-0.6 0-1.2-0.1c-6.1-0.6-10.8-5.8-10.8-12l12-12.1c6.2 0 11.3 4.7 12 10.9q0 0.6 0 1.2z"/><path class="h" d="m42.1 36.2v16.9h-16.8c0-9.3 7.5-16.9 16.8-16.9z"/><path class="i" d="m54.1 53.1q0 0.6 0 1.2h-3.6c-0.6 0-1.2-0.5-1.2-1.2 0-0.7 0.6-1.2 1.2-1.2h3.6q0 0.6 0 1.2z"/><path class="i" d="m43.3 61.6v3.5q-0.6 0.1-1.2 0.1-0.6 0-1.2-0.1v-3.5c0-0.7 0.5-1.3 1.2-1.3 0.7 0 1.2 0.6 1.2 1.3z"/></svg>