<svg version="1.2" xmlns="http://www.w3.org/2000/svg" viewBox="0 0 70 65" width="70" height="65"><style>.a{fill:#0a5078}.b{fill:#00a0c8}.c{fill:#0082aa}.d{fill:#f0f0f0}.e{fill:#c80a50}.f{fill:#fab400}.g{fill:#00143c}.h{fill:#00325a}.i{fill:#dc9600}.j{fill:#d2d2d2}</style><path class="a" d="m2.5 57.5h65c1.4 0 2.5-1.1 2.5-2.5v-45c0-1.4-1.1-2.5-2.5-2.5h-65c-1.4 0-2.5 1.1-2.5 2.5v45c0 1.4 1.1 2.5 2.5 2.5z"/><path class="b" d="m6.3 52.5h57.5c0.6 0 1.2-0.6 1.2-1.2v-37.5c0-0.7-0.6-1.3-1.2-1.3h-57.5c-0.7 0-1.3 0.6-1.3 1.3v37.5c0 0.6 0.6 1.2 1.3 1.2z"/><path class="c" d="m57.5 48.8h-45c-1.4 0-2.5-1.2-2.5-2.5v-37.5h50v37.5c0 1.3-1.1 2.5-2.5 2.5z"/><path class="d" d="m57.5 47.5h-45c-1.4 0-2.5-1.1-2.5-2.5v-37.5h50v37.5c0 1.4-1.1 2.5-2.5 2.5z"/><path class="e" d="m60 7.5h-50v-5c0-1.4 1.1-2.5 2.5-2.5h45c1.4 0 2.5 1.1 2.5 2.5z"/><path fill-rule="evenodd" class="f" d="m55 5c-0.7 0-1.3-0.6-1.3-1.3 0.1-0.6 0.6-1.2 1.3-1.2 0.7 0 1.3 0.6 1.3 1.3-0.1 0.6-0.6 1.2-1.3 1.2z"/><path fill-rule="evenodd" class="b" d="m50 5c-0.7 0-1.3-0.6-1.3-1.3 0.1-0.6 0.6-1.2 1.3-1.2 0.7 0 1.3 0.6 1.3 1.3-0.1 0.6-0.6 1.2-1.3 1.2z"/><path fill-rule="evenodd" class="g" d="m45 5c-0.7 0-1.3-0.6-1.3-1.3 0.1-0.6 0.6-1.2 1.3-1.2 0.7 0 1.3 0.6 1.3 1.3-0.1 0.6-0.6 1.2-1.3 1.2z"/><path fill-rule="evenodd" class="a" d="m40 57.5v5h-10v-5z"/><path class="a" d="m20 65h30c0-1.4-1.1-2.5-2.5-2.5h-25c-1.4 0-2.5 1.1-2.5 2.5z"/><path fill-rule="evenodd" class="h" d="m40 57.5v1.3h-10v-1.3z"/><path fill-rule="evenodd" class="f" d="m35 60c-9 0-16.3-7.3-16.3-16.3 0.1-8.9 7.3-16.2 16.3-16.2 9 0 16.3 7.3 16.3 16.3-0.1 8.9-7.3 16.2-16.3 16.2z"/><path class="e" d="m20 43.8c0-8.3 6.7-15 15-15 4.2 0 8.1 1.7 11 4.7l-1.9 1.9c-0.3 0.3-0.5 0.9-0.3 1.3 0.2 0.5 0.7 0.8 1.2 0.8h5c0.7 0 1.2-0.6 1.2-1.2v-5c0-0.6-0.3-1-0.7-1.2-0.5-0.2-1-0.1-1.4 0.3l-1.4 1.3c-3.3-3.5-7.8-5.4-12.7-5.4-9.7 0-17.5 7.8-17.5 17.5 0 0.6 0.6 1.2 1.2 1.2 0.7 0 1.3-0.6 1.3-1.2z"/><path class="e" d="m51.3 42.5c-0.7 0-1.3 0.6-1.3 1.3 0 8.2-6.7 15-15 15-4.2 0-8.1-1.8-11-4.8l1.9-1.9c0.3-0.3 0.5-0.9 0.3-1.3-0.2-0.5-0.7-0.8-1.2-0.8h-5c-0.7 0-1.2 0.6-1.2 1.3v5c0 0.5 0.3 0.9 0.7 1.1q0.3 0.1 0.5 0.1c0.3 0 0.6-0.1 0.9-0.4l1.4-1.3c3.3 3.5 7.8 5.5 12.7 5.5 9.6 0 17.5-7.9 17.5-17.6 0-0.6-0.6-1.2-1.2-1.2z"/><path class="i" d="m26.2 47.2l1.4-0.8q-0.1-0.7-0.1-1.4 0-0.7 0.1-1.4l-1.4-0.8c-0.6-0.4-0.8-1.1-0.5-1.7l1.3-2.2c0.3-0.6 1.1-0.8 1.7-0.4l0.7 0.4c0.4 0.2 0.9 0.2 1.3 0q0.5-0.4 1.1-0.7c0.4-0.2 0.7-0.6 0.7-1.1v-0.9c0-0.6 0.6-1.2 1.3-1.2h2.5c0.6 0 1.2 0.6 1.2 1.2v0.9c0 0.5 0.3 0.9 0.7 1.1q0.6 0.3 1.1 0.7c0.4 0.2 0.9 0.2 1.3 0l0.7-0.4c0.6-0.4 1.4-0.2 1.7 0.4l1.3 2.2c0.3 0.6 0.1 1.3-0.5 1.7l-1.4 0.8q0.1 0.7 0.1 1.4 0 0.7-0.1 1.4l1.4 0.8c0.6 0.4 0.8 1.1 0.5 1.7l-1.3 2.2c-0.3 0.6-1.1 0.8-1.7 0.4l-0.7-0.4c-0.4-0.2-0.9-0.2-1.3 0q-0.5 0.4-1.1 0.7c-0.4 0.2-0.7 0.6-0.7 1.1v0.9c0 0.6-0.6 1.2-1.3 1.2h-2.5c-0.6 0-1.2-0.6-1.2-1.2v-0.9c0-0.5-0.3-0.9-0.7-1.1q-0.6-0.3-1.1-0.7c-0.4-0.2-0.9-0.2-1.3 0l-0.7 0.4c-0.6 0.4-1.4 0.2-1.7-0.4l-1.3-2.2c-0.3-0.6-0.1-1.3 0.5-1.7zm8.8 2.8c2.8 0 5-2.2 5-5 0-2.8-2.2-5-5-5-2.8 0-5 2.2-5 5 0 2.8 2.2 5 5 5z"/><path class="e" d="m26.2 46l1.4-0.9q-0.1-0.6-0.1-1.4 0-0.7 0.1-1.3l-1.4-0.9c-0.6-0.3-0.8-1.1-0.5-1.7l1.3-2.1c0.3-0.6 1.1-0.8 1.7-0.5l0.7 0.4c0.4 0.3 0.9 0.3 1.3 0q0.5-0.4 1.1-0.6c0.4-0.2 0.7-0.7 0.7-1.1v-0.9c0-0.7 0.6-1.3 1.3-1.3l2.5 0.1c0.6 0 1.2 0.5 1.2 1.2v0.9c0 0.4 0.3 0.9 0.7 1.1q0.6 0.2 1.1 0.6c0.4 0.3 0.9 0.3 1.3 0l0.7-0.4c0.6-0.3 1.4-0.1 1.7 0.5l1.3 2.1c0.3 0.6 0.1 1.4-0.5 1.7l-1.4 0.9q0.1 0.6 0.1 1.4 0 0.7-0.1 1.3l1.4 0.9c0.6 0.3 0.8 1.1 0.5 1.7l-1.3 2.1c-0.3 0.6-1.1 0.8-1.7 0.5l-0.7-0.4c-0.4-0.3-0.9-0.3-1.3 0q-0.5 0.4-1.1 0.6c-0.4 0.2-0.7 0.7-0.7 1.1v0.9c0 0.7-0.6 1.3-1.3 1.3h-2.5c-0.6 0-1.2-0.6-1.2-1.3v-0.9c0-0.4-0.3-0.9-0.7-1.1q-0.6-0.2-1.1-0.6c-0.4-0.3-0.9-0.3-1.3 0l-0.7 0.4c-0.6 0.3-1.4 0.1-1.7-0.5l-1.3-2.1c-0.3-0.6-0.1-1.4 0.5-1.7zm8.8 2.8c2.8 0 5-2.3 5-5 0-2.8-2.2-5-5-5-2.8 0-5 2.2-5 5 0 2.7 2.2 5 5 5z"/><path class="j" d="m27.5 23.8c-0.3-0.1-0.6-0.2-0.9-0.4l-5-5c-0.5-0.5-0.5-1.3 0-1.8l5-5c0.5-0.5 1.3-0.5 1.8 0 0.5 0.5 0.5 1.3 0 1.8l-4.1 4.1 4.1 4.1c0.5 0.5 0.5 1.3 0 1.8-0.3 0.2-0.6 0.3-0.9 0.3z"/><path class="j" d="m42.5 23.8c-0.3-0.1-0.6-0.2-0.9-0.4-0.5-0.5-0.5-1.3 0-1.8l4.1-4.1-4.1-4.1c-0.5-0.5-0.5-1.3 0-1.8 0.5-0.5 1.3-0.5 1.8 0l5 5c0.5 0.5 0.5 1.3 0 1.8l-5 5c-0.3 0.2-0.6 0.3-0.9 0.3z"/><path class="j" d="m32.5 23.8q-0.3 0-0.6-0.2c-0.6-0.3-0.8-1-0.5-1.7l5-10c0.3-0.6 1-0.8 1.7-0.5 0.6 0.3 0.8 1 0.5 1.7l-5 10c-0.2 0.4-0.6 0.6-1.1 0.6z"/></svg>