<svg version="1.2" xmlns="http://www.w3.org/2000/svg" viewBox="0 0 70 62" width="70" height="62"><style>.a{fill:#80b4fb}.b{fill:#61a2f9}.c{fill:#e4f6ff}.d{fill:#b9e4ef}.e{fill:#e278b1}.f{fill:#ffe07d}.g{fill:#ffd064}.h{fill:#a2f4c1}.i{fill:#9bb9c1}</style><path class="a" d="m69.9 11.9h-69.9v-8.8c0-1.6 1.3-2.8 2.8-2.8h64.2c1.6 0 2.9 1.2 2.9 2.8z"/><path class="b" d="m67 0.3h-4.2c1.5 0 2.8 1.2 2.8 2.8v8.8h4.3v-8.8c0-1.6-1.3-2.8-2.9-2.8z"/><path class="c" d="m0 11.9h69.9v46.5c0 1.5-1.3 2.8-2.9 2.8h-64.2c-1.5 0-2.8-1.3-2.8-2.8z"/><path class="d" d="m65.6 11.9v46.5c0 1.5-1.3 2.8-2.8 2.8h4.2c1.6 0 2.9-1.3 2.9-2.8v-46.5z"/><path class="e" d="m12.2 55.8v-2.8c0-0.5 0.4-0.9 0.9-0.9h43.7c0.5 0 0.9 0.4 0.9 0.9v2.8c0 0.5-0.4 0.9-0.9 0.9h-43.7c-0.5 0-0.9-0.4-0.9-0.9z"/><path class="f" d="m62.2 30.2q0-0.5-0.1-1c0-0.4 0.2-0.8 0.4-1.1l2.1-2.1c0.4-0.4 0.5-1.1 0.2-1.7l-1.2-2.1c-0.3-0.5-1-0.8-1.6-0.6l-2.8 0.7c-0.4 0.1-0.8 0-1.2-0.2q-0.8-0.6-1.7-1c-0.3-0.2-0.6-0.5-0.7-0.9l-0.8-2.8c-0.2-0.6-0.7-1-1.3-1h-2.4c-0.7 0-1.2 0.4-1.4 1l-0.8 2.8c-0.1 0.4-0.4 0.7-0.7 0.9q-0.9 0.4-1.7 1c-0.4 0.2-0.8 0.3-1.2 0.2l-2.8-0.7c-0.6-0.2-1.3 0.1-1.6 0.6l-1.2 2.1c-0.3 0.6-0.2 1.3 0.2 1.7l2.1 2.1c0.3 0.3 0.4 0.7 0.4 1.1q-0.1 0.5-0.1 1 0 0.5 0.1 0.9c0 0.5-0.1 0.9-0.4 1.2l-2.1 2c-0.4 0.5-0.5 1.1-0.2 1.7l1.2 2.1c0.3 0.5 1 0.8 1.6 0.6l2.8-0.7c0.4-0.1 0.8 0 1.2 0.2q0.8 0.6 1.7 1c0.3 0.2 0.6 0.5 0.7 0.9l0.8 2.8c0.2 0.6 0.7 1 1.4 1h2.4c0.6 0 1.1-0.4 1.3-1l0.8-2.8c0.1-0.4 0.4-0.7 0.7-0.9q0.9-0.4 1.7-1c0.4-0.2 0.8-0.3 1.2-0.2l2.8 0.7c0.6 0.2 1.3-0.1 1.6-0.6l1.2-2.1c0.3-0.6 0.2-1.2-0.2-1.7l-2.1-2c-0.2-0.3-0.4-0.7-0.4-1.2q0.1-0.4 0.1-0.9zm-9.9 2.2c-1.3 0-2.3-1-2.3-2.2 0-1.3 1-2.3 2.3-2.3 1.2 0 2.2 1 2.2 2.3 0 1.2-1 2.2-2.2 2.2z"/><path class="g" d="m62.2 30.2q0-0.5-0.1-1c0-0.4 0.2-0.8 0.4-1.1l2.1-2.1c0.4-0.4 0.5-1.1 0.2-1.7l-1.2-2.1c-0.3-0.5-1-0.8-1.6-0.6l-0.8 0.2q0.1 0.9 0.1 1.8c0 7.3-5.9 13.2-13.2 13.2-3 0-5.8-1-8-2.6l-0.2 0.1c-0.4 0.5-0.5 1.1-0.2 1.7l1.2 2.1c0.3 0.5 1 0.8 1.6 0.6l2.8-0.7c0.4-0.1 0.8 0 1.2 0.2q0.8 0.6 1.7 1c0.3 0.2 0.6 0.5 0.7 0.9l0.8 2.8c0.2 0.6 0.7 1 1.4 1h2.4c0.6 0 1.1-0.4 1.3-1l0.8-2.8c0.1-0.4 0.4-0.7 0.7-0.9q0.9-0.4 1.7-1c0.4-0.2 0.8-0.3 1.2-0.2l2.8 0.7c0.6 0.2 1.3-0.1 1.6-0.6l1.2-2.1c0.3-0.6 0.2-1.2-0.2-1.7l-2.1-2c-0.2-0.3-0.4-0.7-0.4-1.2q0.1-0.4 0.1-0.9z"/><path fill-rule="evenodd" class="h" d="m60.6 7.8c-0.9 0-1.7-0.8-1.7-1.7 0-1 0.8-1.7 1.7-1.7 1 0 1.7 0.7 1.7 1.7 0 0.9-0.7 1.7-1.7 1.7z"/><path fill-rule="evenodd" class="f" d="m54.8 7.8c-0.9 0-1.7-0.8-1.7-1.7 0-1 0.8-1.7 1.7-1.7 1 0 1.7 0.7 1.7 1.7 0 0.9-0.7 1.7-1.7 1.7z"/><path fill-rule="evenodd" class="e" d="m49 7.8c-1 0-1.7-0.8-1.7-1.7 0-1 0.7-1.7 1.7-1.7 0.9 0 1.7 0.7 1.7 1.7 0 0.9-0.8 1.7-1.7 1.7z"/><path class="e" d="m15.9 22h-4c-0.6 0-1-0.5-1-1.1 0-0.5 0.4-1 1-1h4c0.6 0 1.1 0.5 1.1 1 0 0.6-0.5 1.1-1.1 1.1z"/><path class="i" d="m34.6 22h-14.2c-0.5 0-1-0.5-1-1.1 0-0.5 0.5-1 1-1h14.2c0.6 0 1.1 0.5 1.1 1 0 0.6-0.5 1.1-1.1 1.1z"/><path class="f" d="m26.3 27.3h-12c-0.5 0-1-0.4-1-1 0-0.6 0.5-1.1 1-1.1h12c0.6 0 1 0.5 1 1.1 0 0.6-0.4 1-1 1z"/><path class="e" d="m9.8 27.3h-5.3c-0.5 0-1-0.4-1-1 0-0.6 0.5-1.1 1-1.1h5.3c0.6 0 1.1 0.5 1.1 1.1 0 0.6-0.5 1-1.1 1z"/><path class="i" d="m34.6 27.3h-3.8c-0.6 0-1-0.4-1-1 0-0.6 0.4-1.1 1-1.1h3.8c0.6 0 1.1 0.5 1.1 1.1 0 0.6-0.5 1-1.1 1z"/><path class="i" d="m23.4 32.7h-9.1c-0.5 0-1-0.5-1-1.1 0-0.6 0.5-1 1-1h9.1c0.6 0 1.1 0.4 1.1 1 0 0.6-0.5 1.1-1.1 1.1z"/><path class="e" d="m9.8 32.7h-5.3c-0.5 0-1-0.5-1-1.1 0-0.6 0.5-1 1-1h5.3c0.6 0 1.1 0.4 1.1 1 0 0.6-0.5 1.1-1.1 1.1z"/><path class="f" d="m34.6 32.7h-6.6c-0.6 0-1.1-0.5-1.1-1.1 0-0.6 0.5-1 1.1-1h6.6c0.6 0 1.1 0.4 1.1 1 0 0.6-0.5 1.1-1.1 1.1z"/><path class="f" d="m20.6 43.3h-6.3c-0.5 0-1-0.5-1-1 0-0.6 0.5-1.1 1-1.1h6.3c0.6 0 1 0.5 1 1.1 0 0.5-0.4 1-1 1z"/><path class="e" d="m9.8 43.3h-5.3c-0.5 0-1-0.5-1-1 0-0.6 0.5-1.1 1-1.1h5.3c0.6 0 1.1 0.5 1.1 1.1 0 0.5-0.5 1-1.1 1z"/><path class="f" d="m20.6 38h-6.3c-0.5 0-1-0.5-1-1.1 0-0.6 0.5-1 1-1h6.3c0.6 0 1 0.4 1 1 0 0.6-0.4 1.1-1 1.1z"/><path class="e" d="m9.8 38h-5.3c-0.5 0-1-0.5-1-1.1 0-0.6 0.5-1 1-1h5.3c0.6 0 1.1 0.4 1.1 1 0 0.6-0.5 1.1-1.1 1.1z"/><path class="i" d="m34.6 38h-9.5c-0.5 0-1-0.5-1-1.1 0-0.6 0.5-1 1-1h9.5c0.6 0 1.1 0.4 1.1 1 0 0.6-0.5 1.1-1.1 1.1z"/><path class="a" d="m7.4 22q-0.4 0-0.7-0.2l-2.8-2.3c-0.3-0.2-0.4-0.5-0.4-0.8 0-0.3 0.1-0.6 0.4-0.8l2.8-2.3c0.5-0.4 1.1-0.3 1.5 0.2 0.4 0.4 0.3 1.1-0.2 1.4l-1.8 1.5 1.8 1.4c0.5 0.4 0.6 1.1 0.2 1.5-0.2 0.3-0.5 0.4-0.8 0.4z"/><path class="i" d="m30 48.6h-15.7c-0.5 0-1-0.4-1-1 0-0.6 0.5-1.1 1-1.1h15.7c0.5 0 1 0.5 1 1.1 0 0.6-0.5 1-1 1z"/><path class="e" d="m9.8 48.6h-5.3c-0.5 0-1-0.4-1-1 0-0.6 0.5-1.1 1-1.1h5.3c0.6 0 1.1 0.5 1.1 1.1 0 0.6-0.5 1-1.1 1z"/><path class="a" d="m34.6 48.6c-0.3 0-0.6-0.1-0.8-0.4-0.3-0.4-0.3-1.1 0.2-1.4l1.8-1.5-1.8-1.4c-0.5-0.4-0.5-1.1-0.2-1.5 0.4-0.5 1.1-0.5 1.5-0.2l2.8 2.3c0.3 0.2 0.4 0.5 0.4 0.8 0 0.3-0.1 0.6-0.4 0.8l-2.8 2.3q-0.3 0.2-0.7 0.2z"/></svg>