<svg version="1.2" xmlns="http://www.w3.org/2000/svg" viewBox="0 0 51 50" width="51" height="50"><style></style><path  d="m45.7 41.2h-41.2c-2.4 0-4.4 2.1-4.4 4.4v2.9c0 0.8 0.7 1.5 1.5 1.5h47c0.8 0 1.5-0.7 1.5-1.5v-2.9c0-2.3-2-4.4-4.4-4.4z"/><path  d="m49.1 8.9l-23.4-8.8c-0.3-0.1-0.9-0.1-1.2 0l-23.5 8.8c-0.5 0.2-0.9 0.7-0.9 1.4v2.9c0 0.8 0.7 1.4 1.5 1.4h1.4 44.1 1.5c0.8 0 1.5-0.6 1.5-1.4v-2.9c0-0.7-0.4-1.2-1-1.4z"/><path  d="m3.3 38.3c0.5 0 43 0 43.6 0-0.5-1.3-1.4-2.2-2.7-2.7v-15.2c1.3-0.4 2.2-1.4 2.7-2.6h-43.6c0.4 1.2 1.4 2.2 2.7 2.6v15.2c-1.3 0.5-2.3 1.4-2.7 2.7zm26.3-17.6h5.8v14.7h-5.8zm-14.9 0h5.9v14.6h-5.9z"/></svg>