<svg version="1.2" xmlns="http://www.w3.org/2000/svg" viewBox="0 0 71 64" width="71" height="64"><style>.a{fill:#ddf4ff}.b{fill:#a3d9ef}.c{fill:#c60051}.d{fill:#a3004a}.e{fill:#ffbc00}.f{fill:#ff9700}.g{fill:#007acc}.h{fill:#0062ba}</style><path  d="m26 51.2q-0.6 0-1.1-0.4l-12-11.9c-0.5-0.6-0.6-1.5 0-2l30.6-35.1c0.4-0.5 0.9-0.7 1.6-0.8l16-0.5h0.1c0.6 0 1.2 0.2 1.6 0.7 0.4 0.4 0.6 1 0.6 1.6l-0.6 16c0 0.6-0.3 1.2-0.7 1.6l-35.2 30.5c-0.2 0.2-0.6 0.3-0.9 0.3z"/><path class="a" d="m61.2 2l-16.1 0.5q-0.3 0-0.5 0.3l-30.6 35 12 12 35.1-30.6q0.2-0.2 0.3-0.5l0.5-16c0-0.4-0.3-0.7-0.7-0.7z"/><path class="b" d="m61.1 19.2l-35.1 30.6-6-6 41.7-41.6c0.1 0.1 0.2 0.3 0.2 0.5l-0.5 16q-0.1 0.3-0.3 0.5z"/><path  d="m10.9 59.3q-0.6 0-1-0.4l-5.1-5c-0.5-0.6-0.5-1.5 0-2.1l8.6-8.5c0.3-0.3 0.6-0.5 1-0.5q0.6 0 1.1 0.5l5 5c0.6 0.6 0.6 1.5 0 2.1l-8.5 8.5c-0.3 0.3-0.7 0.4-1.1 0.4z"/><path class="c" d="m5.9 52.8l8.5-8.5 5 5-8.5 8.5z"/><path class="d" d="m8.4 55.3l8.5-8.5 2.5 2.5-8.5 8.5z"/><path  d="m7.3 63.4c-1.9 0-3.6-0.8-4.9-2.1-2.7-2.7-2.7-7.1 0-9.7 1.3-1.4 3-2.1 4.9-2.1 1.8 0 3.6 0.7 4.9 2.1 2.7 2.6 2.7 7 0 9.7-1.3 1.3-3.1 2.1-4.9 2.1z"/><path fill-rule="evenodd" class="e" d="m12.7 56.6c-0.1 3-2.6 5.3-5.6 5.2-3-0.1-5.4-2.6-5.3-5.6 0.1-3 2.6-5.3 5.6-5.2 3 0.1 5.4 2.6 5.3 5.6z"/><path class="f" d="m3.4 60.3c2.2 2.1 5.6 2.1 7.7 0 2.2-2.1 2.2-5.6 0-7.7 0 0-7.7 7.7-7.7 7.7z"/><path  d="m22.8 56.7c-0.5 0-1.1-0.2-1.5-0.7l-13.6-13.5c-0.6-0.7-0.8-1.6-0.5-2.4l2.7-7.3c0.3-0.8 1.2-1.4 2.1-1.4 0.6 0 1.1 0.2 1.5 0.6l18.2 18.2c0.6 0.5 0.8 1.3 0.6 2-0.1 0.7-0.6 1.3-1.3 1.6l-7.4 2.7q-0.4 0.2-0.8 0.2z"/><path class="e" d="m30.4 52.4l-7.3 2.8c-0.3 0.1-0.6 0-0.8-0.2l-13.6-13.6c-0.2-0.2-0.3-0.5-0.2-0.7l2.8-7.4c0.2-0.5 0.8-0.6 1.2-0.2l18.2 18.1c0.4 0.4 0.2 1-0.3 1.2z"/><path class="f" d="m30.4 52.4l-7.3 2.8c-0.3 0.1-0.6 0-0.8-0.2l-6.8-6.8 6.1-6 9.1 9.1c0.4 0.3 0.2 0.9-0.3 1.1z"/><path  d="m44.6 51.2c-0.3 0-0.6-0.1-0.9-0.3l-35.2-30.6c-0.4-0.4-0.7-0.9-0.7-1.6l-0.6-15.9c0-0.6 0.2-1.2 0.6-1.6 0.5-0.5 1-0.7 1.6-0.7h0.1l16 0.5c0.6 0 1.2 0.3 1.6 0.8l30.6 35c0.6 0.6 0.5 1.5 0 2l-12 12c-0.3 0.3-0.7 0.4-1.1 0.4z"/><path class="a" d="m9.5 2l16 0.5q0.3 0 0.5 0.3l30.6 35-12 12-35.1-30.6c-0.1-0.1-0.3-0.3-0.3-0.5l-0.5-16c0-0.4 0.3-0.7 0.8-0.7z"/><path class="b" d="m9.5 19.2l35.1 30.5 6-5.9-41.7-41.6q-0.2 0.2-0.2 0.5l0.5 16q0.1 0.3 0.3 0.5z"/><path  d="m59.7 59.3q-0.6 0-1.1-0.4l-8.5-8.5c-0.6-0.6-0.6-1.5 0-2.1l5-5c0.3-0.3 0.7-0.5 1.1-0.5q0.6 0 1 0.5l8.6 8.5c0.6 0.6 0.6 1.5 0 2.1l-5 5c-0.3 0.3-0.7 0.4-1.1 0.4z"/><path class="g" d="m51.2 49.3l5-5 8.5 8.5-5 5z"/><path class="h" d="m51.2 49.3l2.5-2.5 8.5 8.5-2.5 2.5z"/><path  d="m63.3 63.4c-1.8 0-3.6-0.8-4.9-2.1-1.3-1.3-2-3-2-4.9 0-1.8 0.7-3.5 2-4.8 1.3-1.3 3.1-2.1 4.9-2.1 1.9 0 3.6 0.8 4.9 2.1 2.7 2.7 2.7 7 0 9.7-1.3 1.3-3 2.1-4.9 2.1z"/><path fill-rule="evenodd" class="e" d="m63.3 61.9c-3 0-5.4-2.5-5.4-5.5 0-3 2.4-5.4 5.4-5.4 3 0 5.5 2.4 5.5 5.4 0 3-2.5 5.5-5.5 5.5z"/><path class="f" d="m67.2 60.3c-2.1 2.1-5.6 2.1-7.7 0-2.2-2.1-2.1-5.6 0-7.7z"/><path  d="m47.8 56.7q-0.4 0-0.8-0.2l-7.4-2.7c-0.7-0.3-1.2-0.8-1.3-1.6-0.2-0.7 0-1.4 0.6-2l18.2-18.2c0.4-0.4 0.9-0.6 1.5-0.6 1 0 1.8 0.6 2.1 1.4l2.7 7.4c0.3 0.8 0.1 1.7-0.5 2.3l-13.6 13.6c-0.4 0.4-0.9 0.6-1.5 0.6z"/><path class="e" d="m40.2 52.4l7.3 2.8c0.3 0.1 0.6 0 0.8-0.2l13.6-13.6c0.2-0.2 0.3-0.5 0.2-0.7l-2.8-7.4c-0.1-0.5-0.8-0.6-1.1-0.2l-18.3 18.2c-0.4 0.3-0.2 0.9 0.3 1.1z"/><path class="f" d="m40.2 52.4l7.3 2.8c0.3 0.1 0.6 0 0.8-0.2l6.8-6.8-6.1-6-9.1 9.1c-0.4 0.3-0.2 0.9 0.3 1.1z"/></svg>