<?xml version="1.0" encoding="utf-8"?>
<!-- Generator: Adobe Illustrator 26.5.0, SVG Export Plug-In . SVG Version: 6.00 Build 0)  -->
<svg version="1.1" id="Layer_1" xmlns="http://www.w3.org/2000/svg" xmlns:xlink="http://www.w3.org/1999/xlink" x="0px" y="0px"
	 width="50px" height="50px" viewBox="0 0 50 50" style="enable-background:new 0 0 50 50;" xml:space="preserve">
<style type="text/css">
	.st0{fill:#474747;}
	.st1{fill:#686868;}
	.st2{fill:#939393;}
	.st3{fill:#A9A9A9;}
	.st4{fill:#F3A845;}
	.st5{fill:#EECC61;}
</style>
<g id="Layer_25">
	<path class="st0" d="M2.1,20h31.7v6.7H2.1V20z"/>
	<path class="st1" d="M2.1,20v5h27.5c1.4,0,2.5-1.1,2.5-2.5l0,0V20H2.1z"/>
	<path class="st2" d="M29.6,22.5h1.7v1.7h-1.7V22.5z"/>
	<path class="st0" d="M2.1,0h31.7v6.7H2.1V0z"/>
	<path class="st1" d="M2.1,0v5h27.5c1.4,0,2.5-1.1,2.5-2.5V0H2.1z"/>
	<path class="st2" d="M4.6,2.5h1.7v1.7H4.6V2.5z"/>
	<path class="st2" d="M4.6,6.7h26.7V10H4.6V6.7z"/>
	<path class="st3" d="M4.6,6.7v1.7h21.7c1.1,0,2-0.7,2.3-1.7H4.6z"/>
	<path class="st0" d="M2.1,10h31.7v6.7H2.1V10z"/>
	<path class="st1" d="M2.1,10v5h27.5c1.4,0,2.5-1.1,2.5-2.5V10H2.1z"/>
	<path class="st2" d="M4.6,12.5h1.7v1.7H4.6V12.5z"/>
	<path class="st2" d="M4.6,16.7h26.7V20H4.6V16.7z"/>
	<path class="st3" d="M4.6,16.7v1.7h21.7c1.1,0,2-0.7,2.3-1.7H4.6z"/>
	<path class="st2" d="M4.6,22.5h1.7v1.7H4.6V22.5z"/>
	<path class="st2" d="M4.6,26.7h26.7V30H4.6V26.7z"/>
	<path class="st3" d="M4.6,26.7v1.7h21.7c1.1,0,2-0.7,2.3-1.7H4.6z"/>
	<path class="st0" d="M2.1,30h31.7v6.7H2.1V30z"/>
	<path class="st1" d="M2.1,30v5h27.5c1.4,0,2.5-1.1,2.5-2.5V30H2.1z"/>
	<path class="st2" d="M4.6,32.5h1.7v1.7H4.6V32.5z"/>
	<path class="st1" d="M5.4,36.7h5V40h-5V36.7z"/>
	<circle class="st4" cx="34.6" cy="36.7" r="13.3"/>
	<path class="st5" d="M34.6,23.3c-7.4,0-13.3,6-13.3,13.3c0,2.7,0.8,5.3,2.3,7.5h14.4c2.8,0,5-2.2,5-5V26.3
		C40.6,24.4,37.6,23.3,34.6,23.3z"/>
	<g>
		<path class="st2" d="M29.6,2.5h1.7v1.7h-1.7V2.5z"/>
		<path class="st2" d="M26.2,2.5h1.7v1.7h-1.7V2.5z"/>
		<path class="st2" d="M22.9,2.5h1.7v1.7h-1.7V2.5z"/>
		<path class="st2" d="M29.6,12.5h1.7v1.7h-1.7V12.5z"/>
		<path class="st2" d="M26.2,12.5h1.7v1.7h-1.7V12.5z"/>
		<path class="st2" d="M22.9,12.5h1.7v1.7h-1.7V12.5z"/>
		<path class="st2" d="M26.2,22.5h1.7v1.7h-1.7V22.5z"/>
		<path class="st2" d="M22.9,22.5h1.7v1.7h-1.7V22.5z"/>
	</g>
	<path class="st0" d="M27.9,48.2c1.5,0.9,3.2,1.5,5,1.7v-8.2h-5V48.2z"/>
	<path class="st0" d="M36.2,49.9c1.8-0.2,3.5-0.8,5-1.7v-6.5h-5V49.9z"/>
	<path class="st2" d="M27.9,29.2v4.2l0.8,1.7v6.7h3.3V35l0.8-1.7v-4.2H27.9z"/>
	<path class="st2" d="M37.1,29.2h3.3v12.5h-3.3V29.2z"/>
	<path class="st1" d="M27.9,41.7v5.8h1.7c0.9,0,1.7-0.7,1.7-1.7v-4.2H27.9z"/>
	<path class="st1" d="M36.2,41.7v5.8h0.8c1.4,0,2.5-1.1,2.5-2.5v-3.3H36.2z"/>
	<path class="st3" d="M27.9,29.2v4.2l0.8,1.7v5c0.9,0,1.7-0.7,1.7-1.7v-9.2H27.9z"/>
	<path class="st3" d="M37.1,29.2V40c0.9,0,1.7-0.7,1.7-1.7v-9.2H37.1z"/>
</g>
</svg>
