<?xml version="1.0" encoding="utf-8"?>
<!-- Generator: Adobe Illustrator 26.5.0, SVG Export Plug-In . SVG Version: 6.00 Build 0)  -->
<svg version="1.1" id="Layer_1" xmlns="http://www.w3.org/2000/svg" xmlns:xlink="http://www.w3.org/1999/xlink" x="0px" y="0px"
	 width="50px" height="50px" viewBox="0 0 50 50" style="enable-background:new 0 0 50 50;" xml:space="preserve">
<style type="text/css">
	.st0{fill:#41495A;}
	.st1{fill:#141E32;}
	.st2{fill:#006E8C;}
	.st3{fill:#4BB4D2;}
	.st4{fill:#F7785A;}
	.st5{fill:#2691AF;}
</style>
<g>
	<path class="st0" d="M9.3,22C4.2,22,0,26.1,0,31.3s4.2,9.3,9.3,9.3s9.3-4.2,9.3-9.3S14.4,22,9.3,22z M9.3,37.7
		c-3.5,0-6.4-2.9-6.4-6.4s2.9-6.4,6.4-6.4s6.4,2.9,6.4,6.4S12.8,37.7,9.3,37.7z"/>
	<path class="st1" d="M9.3,22v2.9c3.5,0,6.4,2.9,6.4,6.4s-2.9,6.4-6.4,6.4v2.9c5.1,0,9.3-4.2,9.3-9.3S14.4,22,9.3,22z"/>
	<path class="st2" d="M18.7,21.8c-0.6,0-1.1-0.3-1.3-0.9l-2.7-6.3c-0.3-0.7,0-1.6,0.8-1.9c0.7-0.3,1.6,0,1.9,0.8l2.7,6.3
		c0.3,0.7,0,1.6-0.8,1.9C19.1,21.7,18.9,21.8,18.7,21.8z"/>
	<path class="st0" d="M40.7,22c-5.1,0-9.3,4.2-9.3,9.3s4.2,9.3,9.3,9.3s9.3-4.2,9.3-9.3S45.8,22,40.7,22z M40.7,37.7
		c-3.5,0-6.4-2.9-6.4-6.4s2.9-6.4,6.4-6.4s6.4,2.9,6.4,6.4S44.2,37.7,40.7,37.7z"/>
	<path class="st3" d="M35.6,15.4c-0.3-0.5-1-0.7-1.6-0.6l-15.7,4.1c-0.3,0.1-0.5,0.2-0.7,0.5l-9.4,11c-0.4,0.4-0.5,1-0.2,1.6
		c0.2,0.5,0.8,0.9,1.3,0.9h14.1c0.5,0,0.9-0.2,1.2-0.6l11-15.1C36,16.6,36,15.9,35.6,15.4z M12.5,29.8l5.8-6.8l2.9,6.8H12.5z
		 M23.8,28.3l-3-7.1l10.1-2.6L23.8,28.3z"/>
	<path class="st4" d="M20.3,15.5H14c-0.8,0-1.5-0.7-1.5-1.5s0.7-1.5,1.5-1.5h6.3c0.8,0,1.5,0.7,1.5,1.5S21.1,15.5,20.3,15.5z"/>
	<path class="st5" d="M34,14.8l-10.3,2.7v3l7.1-1.8l-7.1,9.7v4.4c0.3-0.1,0.6-0.3,0.9-0.6l11-15.1c0.4-0.5,0.4-1.2,0-1.7
		C35.3,14.9,34.6,14.6,34,14.8L34,14.8z"/>
	<path class="st2" d="M42,30.7l-7.8-18.8c-0.3-0.7-1.2-1.1-1.9-0.8c-0.7,0.3-1.1,1.2-0.8,1.9l7.8,18.8c0.3,0.7,1.2,1.1,1.9,0.8
		C42,32.3,42.4,31.5,42,30.7L42,30.7z"/>
	<path class="st5" d="M38.9,10.4c-0.3-0.8-1.1-1.2-1.9-0.9l-4.7,1.6c-0.8,0.3-1.2,1.1-0.9,1.9c0.3,0.8,1.1,1.2,1.9,0.9l4.7-1.6
		C38.8,12,39.2,11.2,38.9,10.4z"/>
	<path class="st1" d="M40.7,22v2.9c3.5,0,6.4,2.9,6.4,6.4s-2.9,6.4-6.4,6.4v2.9c5.1,0,9.3-4.2,9.3-9.3S45.8,22,40.7,22z"/>
</g>
</svg>
