<?xml version="1.0" encoding="utf-8"?>
<!-- Generator: Adobe Illustrator 26.5.0, SVG Export Plug-In . SVG Version: 6.00 Build 0)  -->
<svg version="1.1" id="Capa_1" xmlns="http://www.w3.org/2000/svg" xmlns:xlink="http://www.w3.org/1999/xlink" x="0px" y="0px"
	 width="50px" height="50px" viewBox="0 0 50 50" style="enable-background:new 0 0 50 50;" xml:space="preserve">
<style type="text/css">
	.st0{fill:#E2A63B;}
	.st1{fill:#F4B844;}
	.st2{fill:#FEDB41;}
</style>
<path class="st0" d="M50,32.7v5.7c0,1.9-5.2,3.5-11.5,3.5s-11.4-1.6-11.4-3.5v-0.6L27,33.3h0.1c0.9,1.7,5.6,3,11.3,3
	s11.5-1.6,11.5-3.5L50,32.7L50,32.7z"/>
<path class="st1" d="M38.2,11.5v5.6h-0.1c0,2-5.3,3.5-11.6,3.5c-2.4,0.1-4.9-0.2-7.3-0.8L19.1,20c-1.2-1-2.5-1.7-4-2.2v-0.1l-0.2-6
	c0.4,1.8,5.4,3.3,11.4,3.3s11.7-1.6,11.7-3.5C38.1,11.5,38.2,11.5,38.2,11.5z"/>
<path class="st2" d="M38.2,11.6L38.2,11.6c0,1.9-5.3,3.5-11.7,3.5S15.4,13.7,15,11.8c0-0.1-0.1-0.2-0.1-0.2c0-1.9,5.2-3.5,11.5-3.5
	C32.9,8,38.2,9.6,38.2,11.6z"/>
<path class="st1" d="M27.1,33.3L27.1,33.3L27,32.1l-0.1-4.8c0.4,1.8,5.4,3.3,11.4,3.3s11.4-1.6,11.6-3.4H50v5.6h-0.1
	c0,1.9-5.2,3.5-11.5,3.5C32,36.2,27.9,34.9,27.1,33.3z"/>
<path class="st0" d="M19.4,36.9c1.5-1.3,2.6-3.1,3.2-4.9h0.3c1.2,0.1,2.4,0.2,3.7,0.2H27v1.2l0.1,4.5h-0.6c-2.4,0.1-4.7-0.2-7-0.8
	L19.4,36.9z"/>
<path class="st1" d="M27.1,26.8v0.3l0.1,5h-0.5c-1.3,0-2.6-0.1-3.8-0.2h-0.3c0.4-1.1,0.5-2.3,0.5-3.5c0-0.8-0.1-1.6-0.3-2.3h0.3
	c1.1,0.1,2.3,0.2,3.5,0.2l0.5,0.3C27.1,26.7,27.1,26.8,27.1,26.8z"/>
<path class="st0" d="M19.2,19.9c2.4,0.6,4.8,0.9,7.3,0.8c6.3,0,11.6-1.6,11.6-3.5h0.1v6.3c-5.9,0-10.6,1.4-11.2,3.2l-0.5-0.3
	c-1.2,0-2.3-0.1-3.4-0.2h-0.3c-0.5-2.5-1.8-4.7-3.7-6.3L19.2,19.9z"/>
<g>
	<path class="st2" d="M22.9,26.2L22.9,26.2c-0.5-2.5-1.9-4.7-3.8-6.4c-1.2-1.1-2.6-1.8-4.1-2.3c-1.1-0.4-2.3-0.5-3.4-0.5
		C5.3,17,0.1,22.1,0,28.5s5,11.6,11.4,11.7c3,0,5.7-1.1,7.9-3.1c1.5-1.4,2.6-3.2,3.2-5.1c0.4-1.1,0.5-2.3,0.5-3.4
		C23.1,27.8,22.9,27,22.9,26.2z"/>
	<path class="st2" d="M49.9,27v0.1c-0.2,1.9-5.4,3.4-11.6,3.4s-11.1-1.5-11.4-3.3V27c0-0.1,0-0.2,0.1-0.3c0.6-1.8,5.4-3.2,11.2-3.2
		h0.2C44.7,23.5,49.9,25.1,49.9,27z"/>
</g>
<path class="st0" d="M11.7,27.1c-1,0-1.8-0.8-1.8-1.8s0.8-1.8,1.8-1.8s1.8,0.8,1.8,1.8c0,0.6,0.5,1.1,1.1,1.1c0.6,0,1.1-0.5,1.1-1.1
	c0-1.7-1.2-3.3-2.8-3.8v-0.4c0-0.6-0.5-1.1-1.1-1.1c-0.6,0-1.1,0.5-1.1,1.1v0.4c-1.7,0.4-2.9,2-2.8,3.8c0,2.1,1.8,3.9,3.9,3.9
	c1,0,1.8,0.8,1.8,1.8s-0.8,1.8-1.8,1.8l0,0c-1,0-1.8-0.8-1.8-1.8c0-0.6-0.5-1.1-1.1-1.1s-1.1,0.5-1.1,1.1c0,1.8,1.2,3.3,2.8,3.8v0.9
	c0,0.6,0.5,1.1,1.1,1.1s1.1-0.5,1.1-1.1v-0.9c2.1-0.6,3.3-2.8,2.6-4.9C14.9,28.3,13.4,27.1,11.7,27.1z"/>
</svg>
