<?xml version="1.0" encoding="utf-8"?>
<!-- Generator: Adobe Illustrator 26.5.0, SVG Export Plug-In . SVG Version: 6.00 Build 0)  -->
<svg version="1.1" id="Capa_1" xmlns="http://www.w3.org/2000/svg" xmlns:xlink="http://www.w3.org/1999/xlink" x="0px" y="0px"
	 width="50px" height="50px" viewBox="0 0 50 50" style="enable-background:new 0 0 50 50;" xml:space="preserve">
<style type="text/css">
	.st0{fill:#6BCB44;}
	.st1{fill:#4DC321;}
	.st2{fill:#C3EBB0;}
	.st3{fill:#97DC7C;}
</style>
<g>
	<path class="st0" d="M40.3,17.2c0.6,0.3,1.2-0.3,1-0.9c-1.3-4.1-5.4-14-14.8-14.5c-10.7-0.6-13.9,6.2-12.9,9.8l1.3,2.5
		c0.6,1.8,2.4,5.1,8.2,4.9C30.6,18.7,33.9,14.1,40.3,17.2L40.3,17.2z"/>
	<path class="st1" d="M27.5,6.1c5.6,0,9.6,3.2,12.4,6.7c-2.1-4.6-6.2-10.6-13.5-11c-10.7-0.6-13.9,6.2-12.9,9.8l0.7,1.5
		C15.6,9.6,19.5,6.1,27.5,6.1z"/>
	<path class="st0" d="M45.1,25.9l-2.8-0.2c-1.9-0.4-5.6-0.4-8.3,4.7c-3.6,6.6-1.2,11.9-7.1,15.8c-0.6,0.4-0.4,1.2,0.2,1.4
		c4.2,0.9,14.9,2.3,20-5.6C53,33,48.7,26.8,45.1,25.9L45.1,25.9z"/>
	<path class="st1" d="M31.3,47.8c5.9-4.2,3.5-9.7,7.1-16.8c2-3.9,4.4-5,6.3-5.1l-2.4-0.1c-1.9-0.4-5.6-0.4-8.3,4.7
		c-3.6,6.6-1.2,11.9-7.1,15.8c-0.6,0.4-0.4,1.2,0.2,1.4c1,0.2,2.3,0.5,3.9,0.6C31,48,31.1,47.9,31.3,47.8z"/>
	<path class="st0" d="M7.9,19.9c0-0.7-0.9-1-1.3-0.5c-2.9,3.2-9.4,11.7-5.2,20.1c4.9,9.6,12.3,9,14.9,6.3l1.5-2.3
		c1.3-1.4,3.2-4.6,0.1-9.6C14,27.5,8.3,26.9,7.9,19.9z"/>
	<path class="st1" d="M5.5,39.5c-3.3-6.5-0.2-13,2.8-17.2c-0.2-0.7-0.4-1.6-0.4-2.5c0-0.7-0.9-1-1.3-0.5c-2.9,3.2-9.4,11.7-5.2,20.1
		c3.7,7.3,8.9,8.7,12.4,7.7C11,46.5,8,44.3,5.5,39.5z"/>
	<path class="st2" d="M10.2,15.6C10,15.8,9.9,16,9.9,16.2l0.5,0.6c0.3,0.4,0.8,0.4,1.2,0.1c2-2,8.6-8.1,16-6.4c0.2,0,0.3,0,0.4-0.1
		C24.9,9.1,19.1,8.5,10.2,15.6z"/>
	<path class="st3" d="M10.3,15.6c8.8-7,14.5-6.4,17.5-5.1c0.3-0.1,0.3-0.5,0-0.7c-2.7-1.6-8.6-3.2-18.4,4.6
		c-0.3,0.3-0.4,0.8-0.1,1.1l0.7,0.9C9.9,16.1,10,15.8,10.3,15.6L10.3,15.6z"/>
	<path class="st2" d="M44.6,20.9c-0.1-0.4-0.5-0.7-0.9-0.6l-0.9,0.1c-0.2,0.2-0.3,0.5-0.2,0.7c0.8,2.7,2.7,11.5-2.5,17
		c-0.1,0.1-0.1,0.3-0.1,0.5l0,0C42.8,36.8,46.3,32.1,44.6,20.9L44.6,20.9z"/>
	<path class="st3" d="M40.3,38.1c5.2-5.5,3.3-14.3,2.5-17c-0.1-0.3,0-0.6,0.2-0.8l-0.9,0.1c-0.5,0.1-0.8,0.5-0.6,1
		c0.8,2.7,2.7,11.5-2.5,17c-0.3,0.3,0.1,0.8,0.5,0.6c0.3-0.1,0.5-0.3,0.8-0.5C40.1,38.4,40.1,38.3,40.3,38.1z"/>
	<path class="st2" d="M22,44.9c-2.8-0.7-11.3-3.4-13.5-10.7c-0.1-0.2-0.3-0.3-0.4-0.3c0.1,0,0.2,0.1,0.3,0.2
		c0.4,3.3,2.8,8.5,13.3,12.6c0.2,0.1,0.4,0.1,0.6,0l0.3-0.8C22.7,45.5,22.5,45,22,44.9L22,44.9z"/>
	<path class="st3" d="M21.6,46.6c-10.3-4-12.8-9.2-13.1-12.4c-0.2-0.3-0.7-0.2-0.7,0.2c-0.1,3.1,1.6,9,13.2,13.6
		c0.4,0.2,0.8,0,1-0.4l0.4-1C22.1,46.6,21.8,46.7,21.6,46.6z"/>
</g>
</svg>
