<?xml version="1.0" encoding="utf-8"?>
<!-- Generator: Adobe Illustrator 26.5.0, SVG Export Plug-In . SVG Version: 6.00 Build 0)  -->
<svg version="1.1" id="Layer_1" xmlns="http://www.w3.org/2000/svg" xmlns:xlink="http://www.w3.org/1999/xlink" x="0px" y="0px"
	 width="50px" height="50px" viewBox="0 0 50 50" style="enable-background:new 0 0 50 50;" xml:space="preserve">
<style type="text/css">
	.st0{fill:#0A5078;}
	.st1{fill:#00325A;}
	.st2{fill:#F0F0F0;}
	.st3{fill:#D2D2D2;}
	.st4{fill:#C80A50;}
	.st5{fill:#FAB400;}
	.st6{fill:#00A0C8;}
</style>
<g id="Icons">
	<g>
		<g>
			<g>
				<g>
					<g>
						<path class="st0" d="M28.6,50H5.4c-2,0-3.6-1.6-3.6-3.6V3.6c0-2,1.6-3.6,3.6-3.6h23.2c2,0,3.6,1.6,3.6,3.6v42.9
							C32.1,48.4,30.5,50,28.6,50z"/>
					</g>
				</g>
			</g>
		</g>
		<g>
			<g>
				<g>
					<g>
						<path class="st1" d="M32.1,9.9c-7,0.9-12.5,6.9-12.5,14.2s5.5,13.3,12.5,14.2V9.9z"/>
					</g>
				</g>
			</g>
		</g>
		<g>
			<g>
				<g>
					<g>
						<path class="st2" d="M23.2,3.6l-1.5,1.5c-0.2,0.2-0.4,0.3-0.6,0.3h-8.2c-0.2,0-0.5-0.1-0.6-0.3l-1.5-1.5H7.1
							c-1,0-1.8,0.8-1.8,1.8v39.3c0,1,0.8,1.8,1.8,1.8h19.6c1,0,1.8-0.8,1.8-1.8V5.4c0-1-0.8-1.8-1.8-1.8H23.2z"/>
					</g>
				</g>
			</g>
		</g>
		<path class="st3" d="M28.6,10.9c-5.2,2.1-8.9,7.2-8.9,13.2s3.7,11.1,8.9,13.2V10.9z"/>
		<g>
			<g>
				<g>
					<g>
						<g>
							<path class="st3" d="M11.6,13.4H8c-0.5,0-0.9-0.4-0.9-0.9V8.9C7.1,8.4,7.5,8,8,8h3.6c0.5,0,0.9,0.4,0.9,0.9v3.6
								C12.5,13,12.1,13.4,11.6,13.4z"/>
						</g>
					</g>
				</g>
			</g>
			<g>
				<g>
					<g>
						<g>
							<path class="st3" d="M18.8,13.4h-3.6c-0.5,0-0.9-0.4-0.9-0.9V8.9c0-0.5,0.4-0.9,0.9-0.9h3.6c0.5,0,0.9,0.4,0.9,0.9v3.6
								C19.6,13,19.2,13.4,18.8,13.4z"/>
						</g>
					</g>
				</g>
			</g>
			<g>
				<g>
					<g>
						<g>
							<path class="st3" d="M25.9,13.4h-3.6c-0.5,0-0.9-0.4-0.9-0.9V8.9c0-0.5,0.4-0.9,0.9-0.9h3.6c0.5,0,0.9,0.4,0.9,0.9v3.6
								C26.8,13,26.4,13.4,25.9,13.4z"/>
						</g>
					</g>
				</g>
			</g>
			<g>
				<g>
					<g>
						<g>
							<path class="st3" d="M11.6,22.3H8c-0.5,0-0.9-0.4-0.9-0.9v-3.6C7.1,17.4,7.5,17,8,17h3.6c0.5,0,0.9,0.4,0.9,0.9v3.6
								C12.5,21.9,12.1,22.3,11.6,22.3z"/>
						</g>
					</g>
				</g>
			</g>
			<g>
				<g>
					<g>
						<g>
							<path class="st3" d="M18.8,22.3h-3.6c-0.5,0-0.9-0.4-0.9-0.9v-3.6c0-0.5,0.4-0.9,0.9-0.9h3.6c0.5,0,0.9,0.4,0.9,0.9v3.6
								C19.6,21.9,19.2,22.3,18.8,22.3z"/>
						</g>
					</g>
				</g>
			</g>
			<g>
				<g>
					<g>
						<g>
							<path class="st3" d="M11.6,31.2H8c-0.5,0-0.9-0.4-0.9-0.9v-3.6c0-0.5,0.4-0.9,0.9-0.9h3.6c0.5,0,0.9,0.4,0.9,0.9v3.6
								C12.5,30.8,12.1,31.2,11.6,31.2z"/>
						</g>
					</g>
				</g>
			</g>
			<g>
				<g>
					<g>
						<g>
							<path class="st3" d="M18.8,31.2h-3.6c-0.5,0-0.9-0.4-0.9-0.9v-3.6c0-0.5,0.4-0.9,0.9-0.9h3.6c0.5,0,0.9,0.4,0.9,0.9v3.6
								C19.6,30.8,19.2,31.2,18.8,31.2z"/>
						</g>
					</g>
				</g>
			</g>
			<g>
				<g>
					<g>
						<g>
							<path class="st3" d="M11.6,40.2H8c-0.5,0-0.9-0.4-0.9-0.9v-3.6c0-0.5,0.4-0.9,0.9-0.9h3.6c0.5,0,0.9,0.4,0.9,0.9v3.6
								C12.5,39.8,12.1,40.2,11.6,40.2z"/>
						</g>
					</g>
				</g>
			</g>
			<g>
				<g>
					<g>
						<g>
							<path class="st3" d="M18.8,40.2h-3.6c-0.5,0-0.9-0.4-0.9-0.9v-3.6c0-0.5,0.4-0.9,0.9-0.9h3.6c0.5,0,0.9,0.4,0.9,0.9v3.6
								C19.6,39.8,19.2,40.2,18.8,40.2z"/>
						</g>
					</g>
				</g>
			</g>
			<g>
				<g>
					<g>
						<g>
							<path class="st3" d="M25.9,40.2h-3.6c-0.5,0-0.9-0.4-0.9-0.9v-3.6c0-0.5,0.4-0.9,0.9-0.9h3.6c0.5,0,0.9,0.4,0.9,0.9v3.6
								C26.8,39.8,26.4,40.2,25.9,40.2z"/>
						</g>
					</g>
				</g>
			</g>
		</g>
		<g>
			<g>
				<g>
					<g>
						<path class="st4" d="M11.6,12.5H8c-0.5,0-0.9-0.4-0.9-0.9V8c0-0.5,0.4-0.9,0.9-0.9h3.6c0.5,0,0.9,0.4,0.9,0.9v3.6
							C12.5,12.1,12.1,12.5,11.6,12.5z"/>
					</g>
				</g>
			</g>
		</g>
		<g>
			<g>
				<g>
					<g>
						<path class="st5" d="M18.8,12.5h-3.6c-0.5,0-0.9-0.4-0.9-0.9V8c0-0.5,0.4-0.9,0.9-0.9h3.6c0.5,0,0.9,0.4,0.9,0.9v3.6
							C19.6,12.1,19.2,12.5,18.8,12.5z"/>
					</g>
				</g>
			</g>
		</g>
		<g>
			<g>
				<g>
					<g>
						<path class="st6" d="M25.9,12.5h-3.6c-0.5,0-0.9-0.4-0.9-0.9V8c0-0.5,0.4-0.9,0.9-0.9h3.6c0.5,0,0.9,0.4,0.9,0.9v3.6
							C26.8,12.1,26.4,12.5,25.9,12.5z"/>
					</g>
				</g>
			</g>
		</g>
		<g>
			<g>
				<g>
					<g>
						<path class="st6" d="M11.6,21.4H8c-0.5,0-0.9-0.4-0.9-0.9V17c0-0.5,0.4-0.9,0.9-0.9h3.6c0.5,0,0.9,0.4,0.9,0.9v3.6
							C12.5,21,12.1,21.4,11.6,21.4z"/>
					</g>
				</g>
			</g>
		</g>
		<g>
			<g>
				<g>
					<g>
						<path class="st4" d="M18.8,21.4h-3.6c-0.5,0-0.9-0.4-0.9-0.9V17c0-0.5,0.4-0.9,0.9-0.9h3.6c0.5,0,0.9,0.4,0.9,0.9v3.6
							C19.6,21,19.2,21.4,18.8,21.4z"/>
					</g>
				</g>
			</g>
		</g>
		<g>
			<g>
				<g>
					<g>
						<path class="st5" d="M11.6,30.4H8c-0.5,0-0.9-0.4-0.9-0.9v-3.6C7.1,25.4,7.5,25,8,25h3.6c0.5,0,0.9,0.4,0.9,0.9v3.6
							C12.5,30,12.1,30.4,11.6,30.4z"/>
					</g>
				</g>
			</g>
		</g>
		<g>
			<g>
				<g>
					<g>
						<path class="st6" d="M18.8,30.4h-3.6c-0.5,0-0.9-0.4-0.9-0.9v-3.6c0-0.5,0.4-0.9,0.9-0.9h3.6c0.5,0,0.9,0.4,0.9,0.9v3.6
							C19.6,30,19.2,30.4,18.8,30.4z"/>
					</g>
				</g>
			</g>
		</g>
		<g>
			<g>
				<g>
					<g>
						<path class="st6" d="M11.6,39.3H8c-0.5,0-0.9-0.4-0.9-0.9v-3.6c0-0.5,0.4-0.9,0.9-0.9h3.6c0.5,0,0.9,0.4,0.9,0.9v3.6
							C12.5,38.9,12.1,39.3,11.6,39.3z"/>
					</g>
				</g>
			</g>
		</g>
		<g>
			<g>
				<g>
					<g>
						<path class="st4" d="M18.8,39.3h-3.6c-0.5,0-0.9-0.4-0.9-0.9v-3.6c0-0.5,0.4-0.9,0.9-0.9h3.6c0.5,0,0.9,0.4,0.9,0.9v3.6
							C19.6,38.9,19.2,39.3,18.8,39.3z"/>
					</g>
				</g>
			</g>
		</g>
		<g>
			<g>
				<g>
					<g>
						<path class="st5" d="M25.9,39.3h-3.6c-0.5,0-0.9-0.4-0.9-0.9v-3.6c0-0.5,0.4-0.9,0.9-0.9h3.6c0.5,0,0.9,0.4,0.9,0.9v3.6
							C26.8,38.9,26.4,39.3,25.9,39.3z"/>
					</g>
				</g>
			</g>
		</g>
		<g>
			<g>
				<g>
					<g>
						<circle class="st0" cx="33.9" cy="23.2" r="14.3"/>
					</g>
				</g>
			</g>
		</g>
		<g>
			<g>
				<g>
					<g>
						<path class="st5" d="M44.2,21.7l-2.6-0.9c-0.2-0.5-0.4-1-0.6-1.4l1.2-2.4c0.1-0.3,0.1-0.6-0.1-0.8L40.9,15
							c-0.2-0.2-0.5-0.3-0.8-0.1l-2.4,1.2c-0.5-0.2-0.9-0.4-1.4-0.6L35.4,13c-0.1-0.3-0.3-0.5-0.6-0.5h-1.7c-0.3,0-0.5,0.2-0.6,0.5
							l-0.9,2.6c-0.5,0.2-1,0.4-1.4,0.6l-2.4-1.2c-0.3-0.1-0.6-0.1-0.8,0.1l-1.2,1.2c-0.2,0.2-0.3,0.5-0.1,0.8l1.2,2.4
							c-0.2,0.5-0.4,0.9-0.6,1.4l-2.6,0.9c-0.3,0.1-0.5,0.3-0.5,0.6v1.7c0,0.3,0.2,0.5,0.5,0.6l2.6,0.9c0.2,0.5,0.4,1,0.6,1.4
							l-1.2,2.4c-0.1,0.3-0.1,0.6,0.1,0.8l1.2,1.2c0.2,0.2,0.5,0.3,0.8,0.1l2.4-1.2c0.5,0.2,0.9,0.4,1.4,0.6l0.9,2.6
							c0.1,0.3,0.3,0.5,0.6,0.5h1.7c0.3,0,0.5-0.2,0.6-0.5l0.9-2.6c0.5-0.2,1-0.4,1.4-0.6l2.4,1.2c0.3,0.1,0.6,0.1,0.8-0.1l1.2-1.2
							c0.2-0.2,0.3-0.5,0.1-0.8L41,27c0.2-0.5,0.4-0.9,0.6-1.4l2.6-0.9c0.3-0.1,0.5-0.3,0.5-0.6v-1.7C44.6,22.1,44.5,21.8,44.2,21.7
							z M33.9,27.8c-2.5,0-4.6-2.1-4.6-4.6s2.1-4.6,4.6-4.6c2.5,0,4.6,2.1,4.6,4.6C38.5,25.8,36.5,27.8,33.9,27.8z"/>
					</g>
				</g>
			</g>
		</g>
		<g>
			<g>
				<g>
					<g>
						<circle class="st0" cx="17" cy="43.8" r="0.9"/>
					</g>
				</g>
			</g>
		</g>
		<g>
			<g>
				<g>
					<g>
						<circle class="st0" cx="22.3" cy="43.8" r="0.9"/>
					</g>
				</g>
			</g>
		</g>
		<g>
			<g>
				<g>
					<g>
						<circle class="st0" cx="11.6" cy="43.8" r="0.9"/>
					</g>
				</g>
			</g>
		</g>
	</g>
</g>
</svg>
