<?xml version="1.0" encoding="utf-8"?>
<!-- Generator: Adobe Illustrator 26.5.0, SVG Export Plug-In . SVG Version: 6.00 Build 0)  -->
<svg version="1.1" id="Capa_1" xmlns="http://www.w3.org/2000/svg" xmlns:xlink="http://www.w3.org/1999/xlink" x="0px" y="0px"
	 width="50px" height="50px" viewBox="0 0 50 50" style="enable-background:new 0 0 50 50;" xml:space="preserve">
<style type="text/css">
	.st0{fill:#647892;}
	.st1{fill:#4D6682;}
	.st2{fill:#3997EE;}
	.st3{fill:#1E88D8;}
	.st4{fill:#EDB87E;}
	.st5{fill:#E4A970;}
	.st6{fill:#FAC149;}
	.st7{fill:#F8A748;}
	.st8{fill:#F4C48B;}
	.st9{fill:#EFEFEF;}
	.st10{fill:#F38D1A;}
</style>
<path class="st0" d="M24.1-0.5C16.7,0,11,6.2,11,13.6c0,2.1,0,16.3,0,18.1c0,0.6,0.5,1.1,1.1,1.1h5.2h3.5h8.3h9.1
	c0.4,0,0.8-0.4,0.8-0.8c0-6.4,0-11.9,0-18.6C39,5.5,32.3-1,24.1-0.5z"/>
<path class="st1" d="M18,31.7v-9.2v-0.7c0-0.9,0-7.3,0-8.1c0-6.5,4.4-12.1,10.5-13.7C19.6-2.3,11,4.5,11,13.6c0,2.1,0,16.3,0,18.1
	c0,0.6,0.5,1.1,1.1,1.1h5.2h1.8C18.5,32.9,18,32.4,18,31.7z"/>
<g>
	<path class="st2" d="M42.9,47.9c-0.6-3-1.3-6.5-1.5-7.3c-0.4-2.2-2.1-3.1-2.9-3.4c0,0-0.6-0.2-0.6-0.2h0c0,0-2.9-0.7-5.3-1.3
		l-5,5.9c-1.5,1.7-3.6,1.7-5.1,0l-5-5.9c-0.7,0.2-2.4,0.6-5.4,1.3h0c0.2-0.1-2.9,0.4-3.5,3.6c-0.2,0.8-0.9,4.4-1.5,7.3
		c-0.3,1.3,0.7,2.5,2,2.6c0,0,0,0,0,0h0.1c1.4,0,30.4,0,31.8,0c0,0,0,0,0,0C42.2,50.4,43.2,49.2,42.9,47.9z"/>
	<path class="st2" d="M20.9,31.1L20.9,31.1L20.9,31.1C20.9,31.1,20.8,31.1,20.9,31.1C20.8,31.2,20.9,31.2,20.9,31.1L20.9,31.1
		L20.9,31.1z"/>
</g>
<path class="st3" d="M9.8,47.9c0,0,1.3-7.3,1.5-8.2c0.4-1.8,1.5-2.7,2.4-3.2c-0.8,0.2-1.4,0.3-1.6,0.4h0c0.2-0.1-2.9,0.4-3.5,3.6
	c-0.2,0.8-0.9,4.4-1.5,7.3c-0.3,1.3,0.7,2.5,2,2.6c0,0,0,0,0,0h0.1h2.6c0,0,0,0,0,0C10.5,50.4,9.6,49.2,9.8,47.9z"/>
<path class="st4" d="M29.7,34.9c-0.4-0.1-0.7-0.4-0.7-0.8c0,0,0-1.8,0-3h-0.7c-2.1,0.8-4.5,0.8-6.7,0h-0.7v3c0,0.4-0.2,0.7-0.6,0.8
	l-3,0.7l5.1,6.1c1.5,1.7,3.6,1.7,5.1,0l5.2-6.1L29.7,34.9z"/>
<path class="st5" d="M27,42.3l-2-2.2c-0.9-1-1.3-2.2-1.3-3.5v-4.9c-0.7-0.1-1.4-0.3-2-0.5h-0.7v3c0,0.4-0.2,0.7-0.6,0.8l-3,0.7
	l5.1,6.1C23.7,43.2,25.6,43.4,27,42.3z"/>
<g>
	<path class="st3" d="M15.2,46.2c0-0.4-0.3-0.8-0.8-0.8s-0.8,0.3-0.8,0.8v4.3h1.5V46.2z"/>
	<path class="st3" d="M36.3,50.5v-4.3c0-0.4-0.3-0.8-0.8-0.8c-0.4,0-0.8,0.3-0.8,0.8v4.3H36.3z"/>
</g>
<path class="st6" d="M22.5,41.7c1.5,1.7,3.6,1.7,5.1,0l2.7-3.1H19.8L22.5,41.7z"/>
<path class="st7" d="M22.5,41.7c0.6,0.7,1.4,1.2,2.4,1.3c0.8,0.1,1.5-0.2,2.1-0.7c-1.7-2-2.4-2.4-2.9-3.7h-4.2
	C20.7,39.7,21.5,40.6,22.5,41.7z"/>
<path class="st8" d="M16.6,19c-0.8,0-1.4,0.6-1.4,1.3v1.8c0,5.6,4.7,10.2,10.3,9.9c5.2-0.2,9.3-4.5,9.3-9.8V16
	c0-0.6-0.5-1.2-1.1-1.3c-0.8-0.1-2-0.6-2.7-2c-0.2-0.4-0.7-0.4-1-0.1C28.6,14.7,24.2,19.4,16.6,19z"/>
<path class="st4" d="M18,22.3V19c-0.4,0-0.9,0-1.4,0c-0.8,0-1.4,0.6-1.4,1.3v1.8c0,5.6,4.7,10.2,10.3,9.9c0.3,0,0.6,0,0.9-0.1
	C21.7,31.3,18,27.2,18,22.3z"/>
<g>
	<path class="st9" d="M25,29.5h-5.5c-3.4,0-6.4-2.2-6.4-5.7v-1.6c0-0.4,0.3-0.8,0.8-0.8c0.4,0,0.8,0.3,0.8,0.8v1.6
		c0,2.6,2.3,4.2,4.8,4.2H25c0.4,0,0.8,0.3,0.8,0.8C25.8,29.2,25.4,29.5,25,29.5z"/>
	<path class="st9" d="M36.3,16.5c-0.4,0-0.8-0.3-0.8-0.8v-2.1c0-5.9-4.8-10.6-10.6-10.5c-5.6,0.1-10.2,4.7-10.2,10.4v2.2
		c0,0.4-0.3,0.8-0.8,0.8c-0.4,0-0.8-0.3-0.8-0.8v-2.2c0-6.5,5.2-11.8,11.7-11.9C31.6,1.4,37,6.9,37,13.6v2.1
		C37,16.1,36.7,16.5,36.3,16.5z"/>
</g>
<path class="st6" d="M37.6,16.3v6.6C40.5,21.6,40.5,17.5,37.6,16.3z"/>
<path class="st7" d="M37.6,19.2v3.6c2-0.8,2.8-3.2,1.7-5.1C38.9,18.4,38.3,18.9,37.6,19.2z"/>
<path class="st6" d="M12.5,16.3v6.6C9.5,21.6,9.5,17.5,12.5,16.3z"/>
<path class="st7" d="M10.8,17.6c-1.2,1.9-0.4,4.4,1.6,5.2V19C11.8,18.7,11.2,18.2,10.8,17.6z"/>
<path class="st2" d="M24.1,30.1h1.9c0.7,0,1.4-0.6,1.4-1.3c0-0.8-0.6-1.4-1.4-1.4H24c-0.8,0-1.4,0.7-1.4,1.4
	C22.7,29.5,23.3,30.1,24.1,30.1z"/>
<path class="st3" d="M25,28.8c0-0.7,0.5-1.3,1.2-1.4c-0.1,0-0.1,0-0.2,0H24c-0.8,0-1.4,0.7-1.4,1.4c0,0.7,0.7,1.3,1.4,1.3h1.9
	c0.1,0,0.2,0,0.3,0C25.5,30,25,29.4,25,28.8z"/>
<path class="st7" d="M12.5,22.8v-6.6c0-0.7,0.6-1.4,1.3-1.4c0.8,0,1.4,0.6,1.4,1.4v6.7c0,0.8-0.7,1.4-1.4,1.4
	C13,24.2,12.5,23.6,12.5,22.8z"/>
<path class="st10" d="M13.8,20.2c-0.7,0-1.3-0.7-1.3-1.4v4.1c0,0.7,0.6,1.4,1.3,1.4c0.8,0,1.4-0.6,1.4-1.4v-4.1
	C15.2,19.6,14.6,20.2,13.8,20.2z"/>
<path class="st7" d="M34.8,22.8v-6.6c0-0.7,0.6-1.4,1.3-1.4c0.8,0,1.4,0.6,1.4,1.4v6.7c0,0.8-0.7,1.4-1.4,1.4
	C35.4,24.2,34.8,23.6,34.8,22.8z"/>
<path class="st10" d="M36.1,20.2c-0.7,0-1.3-0.7-1.3-1.4v4.1c0,0.7,0.6,1.4,1.3,1.4c0.8,0,1.4-0.6,1.4-1.4v-4.1
	C37.6,19.6,36.9,20.2,36.1,20.2z"/>
</svg>
