<?xml version="1.0" encoding="utf-8"?>
<!-- Generator: Adobe Illustrator 26.5.0, SVG Export Plug-In . SVG Version: 6.00 Build 0)  -->
<svg version="1.1" id="Capa_1" xmlns="http://www.w3.org/2000/svg" xmlns:xlink="http://www.w3.org/1999/xlink" x="0px" y="0px"
	 width="50px" height="50px" viewBox="0 0 50 50" style="enable-background:new 0 0 50 50;" xml:space="preserve">
<style type="text/css">
	.st0{fill:#5D5360;}
	.st1{fill:#4B3F4E;}
	.st2{fill:#ECEAEC;}
	.st3{fill:#FFFFFF;}
	.st4{fill:#FF9A9F;}
	.st5{fill:#FF8086;}
	.st6{fill:#C3DDFF;}
	.st7{fill:#A4CCFF;}
	.st8{fill:#C8C5C9;}
	.st9{fill:#B3E59F;}
	.st10{fill:#95D6A4;}
	.st11{fill:#FFE07D;}
	.st12{fill:#FFD064;}
	.st13{fill:#EAD1FF;}
	.st14{fill:#D6BDEF;}
	.st15{fill:#E2A975;}
	.st16{fill:#D19A6E;}
</style>
<g>
	<path class="st0" d="M35.5,0h-21c-0.6,0-1.1,0.2-1.6,0.4l-0.8,2.8v43.1c0,1.8,1.4,3.2,3.2,3.2h20.1l2.8-1.2c0.3-0.5,0.4-1,0.4-1.6
		V3.2C38.7,1.4,37.3,0,35.5,0L35.5,0z"/>
	<path class="st1" d="M35.5,48.4L12.9,3.2V0.4c-1,0.6-1.6,1.6-1.6,2.8v43.5c0,1.8,1.4,3.2,3.2,3.2h21c1.2,0,2.2-0.7,2.8-1.6H35.5z"
		/>
	<path class="st2" d="M35.5,1.6h-3.7c-0.6,0-1.1,0.3-1.4,0.8c-0.3,0.5-0.8,0.8-1.4,0.8H21c-0.6,0-1.1-0.3-1.4-0.8
		c-0.3-0.5-0.8-0.8-1.4-0.8h-3.7c-0.9,0-1.6,0.7-1.6,1.6v43.5c0,0.9,0.7,1.6,1.6,1.6h21c0.9,0,1.6-0.7,1.6-1.6V3.2
		C37.1,2.3,36.4,1.6,35.5,1.6L35.5,1.6z"/>
	<path class="st3" d="M32.3,46.8H29l-4-0.8l-4,0.8h-3.2c-1.8,0-3.2-1.4-3.2-3.2V8.1c0-1.8,1.4-3.2,3.2-3.2h14.5
		c1.8,0,3.2,1.4,3.2,3.2v35.5C35.5,45.3,34,46.8,32.3,46.8z"/>
	<path class="st4" d="M22.6,41.9h-4c-0.9,0-1.6-0.7-1.6-1.6v-5.7l0.8-1.6h4.8c0.9,0,1.6,0.7,1.6,1.6v6.5L22.6,41.9z"/>
	<path class="st5" d="M17.7,39.5v-6.5c-0.9,0-1.6,0.7-1.6,1.6v6.5c0,0.9,0.7,1.6,1.6,1.6h4.8c0.9,0,1.6-0.7,1.6-1.6h-4.8
		C18.5,41.1,17.7,40.4,17.7,39.5z"/>
	<path class="st6" d="M32.3,29h-4c-0.9,0-1.6-0.7-1.6-1.6v-5.7l0.8-1.6h4.8c0.9,0,1.6,0.7,1.6,1.6v6.5L32.3,29z"/>
	<path class="st7" d="M27.4,26.6v-6.5c-0.9,0-1.6,0.7-1.6,1.6v6.5c0,0.9,0.7,1.6,1.6,1.6h4.8c0.9,0,1.6-0.7,1.6-1.6H29
		C28.1,28.2,27.4,27.5,27.4,26.6z"/>
	<path class="st3" d="M21,39.1h-1.6c-0.4,0-0.8-0.4-0.8-0.8v-0.8c0-0.4,0.4-0.8,0.8-0.8H21c0.4,0,0.8,0.4,0.8,0.8v0.8
		C21.8,38.8,21.4,39.1,21,39.1z"/>
	<path class="st8" d="M29,46.8H21c-0.4,0-0.8-0.4-0.8-0.8s0.4-0.8,0.8-0.8H29c0.4,0,0.8,0.4,0.8,0.8S29.5,46.8,29,46.8z"/>
	<path class="st9" d="M22.6,16.1h-4c-0.9,0-1.6-0.7-1.6-1.6V8.9l0.8-1.6h4.8c0.9,0,1.6,0.7,1.6,1.6v6.5L22.6,16.1z"/>
	<path class="st3" d="M30.6,24.2h-1.2c-0.4,0-0.8-0.4-0.8-0.8s0.4-0.8,0.8-0.8h1.2c0.4,0,0.8,0.4,0.8,0.8S31.1,24.2,30.6,24.2z"/>
	<path class="st3" d="M30.6,27.4h-1.2c-0.4,0-0.8-0.4-0.8-0.8s0.4-0.8,0.8-0.8h1.2c0.4,0,0.8,0.4,0.8,0.8
		C31.5,27.1,31.1,27.4,30.6,27.4z"/>
	<path class="st10" d="M17.7,13.7V7.3c-0.9,0-1.6,0.7-1.6,1.6v6.5c0,0.9,0.7,1.6,1.6,1.6h4.8c0.9,0,1.6-0.7,1.6-1.6h-4.8
		C18.5,15.3,17.7,14.6,17.7,13.7z"/>
	<path class="st3" d="M21,13.3h-1.6c-0.4,0-0.8-0.4-0.8-0.8v-0.8c0-0.4,0.4-0.8,0.8-0.8H21c0.4,0,0.8,0.4,0.8,0.8v0.8
		C21.8,12.9,21.4,13.3,21,13.3z"/>
	<path class="st11" d="M32.3,16.1h-4c-0.9,0-1.6-0.7-1.6-1.6V8.9l0.8-1.6h4.8c0.9,0,1.6,0.7,1.6,1.6v6.5L32.3,16.1z"/>
	<path class="st12" d="M27.4,13.7V7.3c-0.9,0-1.6,0.7-1.6,1.6v6.5c0,0.9,0.7,1.6,1.6,1.6h4.8c0.9,0,1.6-0.7,1.6-1.6H29
		C28.1,15.3,27.4,14.6,27.4,13.7z"/>
	<path class="st13" d="M22.6,29h-4c-0.9,0-1.6-0.7-1.6-1.6v-5.7l0.8-1.6h4.8c0.9,0,1.6,0.7,1.6,1.6v6.5L22.6,29z"/>
	<path class="st14" d="M17.7,26.6v-6.5c-0.9,0-1.6,0.7-1.6,1.6v6.5c0,0.9,0.7,1.6,1.6,1.6h4.8c0.9,0,1.6-0.7,1.6-1.6h-4.8
		C18.5,28.2,17.7,27.5,17.7,26.6z"/>
	<path class="st15" d="M32.3,41.9h-4c-0.9,0-1.6-0.7-1.6-1.6v-5.7l0.8-1.6h4.8c0.9,0,1.6,0.7,1.6,1.6v6.5L32.3,41.9z"/>
	<path class="st16" d="M27.4,39.5v-6.5c-0.9,0-1.6,0.7-1.6,1.6v6.5c0,0.9,0.7,1.6,1.6,1.6h4.8c0.9,0,1.6-0.7,1.6-1.6H29
		C28.1,41.1,27.4,40.4,27.4,39.5z"/>
</g>
</svg>
