<svg version="1.2" xmlns="http://www.w3.org/2000/svg" viewBox="0 0 50 36" width="50" height="36"><style></style><path  d="m40.8 17.6q-1.8 0-3.4 0.6l4.6 7.8-2.6 1.5-4.5-7.8c-2 1.7-3.4 4.2-3.4 7.1 0 5 4.2 9.2 9.3 9.2 5.1 0 9.2-4.2 9.2-9.2 0-5.1-4.1-9.2-9.2-9.2z"/><path  d="m12.5 18.2q-1.5-0.6-3.3-0.6c-5.1 0-9.2 4.1-9.2 9.2 0 5 4.1 9.2 9.2 9.2 4.6 0 8.4-3.4 9.1-7.8h-11.5z"/><path  d="m15.1 19.7l-3.3 5.6h6.5c-0.3-2.3-1.5-4.3-3.2-5.6z"/><path  d="m32 8.8h1.9c2.4 0 4.4-2 4.4-4.4 0-2.4-2-4.4-4.4-4.4h-2.9v3h2.9c0.8 0 1.5 0.6 1.5 1.4 0 0.8-0.7 1.5-1.5 1.5h-7l3.4 5.8h-12.3l-1.7-2.9h5.8v-2.9h-10.9l13.8 23.8 9.5-16.5zm-7 15l-5.3-9.2h10.6z"/></svg>