<?xml version="1.0" encoding="utf-8"?>
<!-- Generator: Adobe Illustrator 26.5.0, SVG Export Plug-In . SVG Version: 6.00 Build 0)  -->
<svg version="1.1" id="Layer_1_1_" xmlns="http://www.w3.org/2000/svg" xmlns:xlink="http://www.w3.org/1999/xlink" x="0px" y="0px"
	 width="50px" height="50px" viewBox="0 0 50 50" style="enable-background:new 0 0 50 50;" xml:space="preserve">
<style type="text/css">
	.st0{fill:#68607C;}
	.st1{fill:#4E9BB9;}
	.st2{fill:#91CBD7;}
	.st3{fill:#FFD086;}
	.st4{fill:#ED6571;}
	.st5{fill:#F69489;}
</style>
<g>
	<path class="st0" d="M9.2,10.9l12.1-4.4l0.6,1.6L9.8,12.5L9.2,10.9z"/>
	<path class="st0" d="M27,9.2L28.2,8L42,21.8L40.8,23L27,9.2z"/>
	<path class="st0" d="M29.2,23.8l0.2-1.7l10.3,1.4l-0.2,1.7L29.2,23.8z"/>
	<path class="st0" d="M8.2,15L9,13.5l13.8,6.9L22,21.9L8.2,15z"/>
	<path class="st0" d="M8.8,37.7l0.8-1.5l12.3,6.2l-0.8,1.5L8.8,37.7z"/>
	<path class="st0" d="M24.1,25.9h1.7v14.7h-1.7V25.9z"/>
	<path class="st0" d="M7.5,31.4L22.1,9l1.4,0.9L9,32.4L7.5,31.4z"/>
	<path class="st0" d="M27.3,41.2L40.9,27l1.2,1.2L28.5,42.4L27.3,41.2z"/>
	<path class="st0" d="M7.5,17.1L9,16.2l14.2,23.9L21.7,41L7.5,17.1z"/>
</g>
<path class="st1" d="M12.1,35.3c0,1-0.2,1.9-0.6,2.7c-1,2-3,3.3-5.4,3.3c-3.3,0-6-2.7-6-6c0-3.3,2.7-6,6-6c1.2,0,2.3,0.4,3.3,1
	C11,31.4,12.1,33.2,12.1,35.3z"/>
<path class="st2" d="M29.6,40c0.9,1.1,1.5,2.4,1.5,3.9c0,3.3-2.7,6-6,6s-6-2.7-6-6c0-0.7,0.1-1.4,0.3-2c0.4-1.2,1.2-2.2,2.2-3
	c1-0.7,2.2-1.1,3.5-1.1C26.8,37.9,28.5,38.8,29.6,40L29.6,40z"/>
<path class="st3" d="M44,19c3.3,0,6,2.7,6,6s-2.7,6-6,6c-1.6,0-3.1-0.6-4.2-1.7c-1.2-1.1-1.9-2.6-1.9-4.4c0-0.3,0-0.5,0.1-0.8
	c0.2-1.3,0.8-2.5,1.7-3.5C40.8,19.6,42.3,19,44,19z"/>
<path class="st4" d="M31,23.2c-0.4,2.9-2.9,5.2-6,5.2c-3.3,0-6-2.7-6-6c0-1,0.2-1.9,0.6-2.7c1-2,3-3.3,5.4-3.3c3.3,0,6,2.7,6,6
	C31,22.7,31,23,31,23.2z"/>
<path class="st5" d="M25,0c3.3,0,6,2.7,6,6c0,1.7-0.7,3.2-1.8,4.3s-2.6,1.8-4.3,1.8c-1.2,0-2.3-0.4-3.3-1c-1.1-0.7-1.9-1.8-2.4-3
	C19.1,7.5,19,6.8,19,6C19,2.7,21.7,0,25,0z"/>
<path class="st2" d="M11.7,10.9c0.2,0.6,0.4,1.3,0.4,2.1c0,1-0.2,1.9-0.6,2.7c-0.5,1-1.3,1.9-2.3,2.5C8.2,18.7,7.2,19,6,19
	c-3.3,0-6-2.7-6-6s2.7-6,6-6C8.6,6.9,10.9,8.6,11.7,10.9L11.7,10.9z"/>
</svg>
