<svg width="223" height="52" viewBox="0 0 223 52" fill="none" xmlns="http://www.w3.org/2000/svg">
<g clip-path="url(#clip0_194_59)">
<path d="M67.6827 33.3509C67.6791 36.1028 67.0637 38.8194 65.8812 41.3043C64.6987 43.7891 62.9786 45.98 60.8454 47.7185C58.7122 49.4569 56.2193 50.6994 53.5469 51.3561C50.8745 52.0128 48.0896 52.0672 45.3936 51.5155C44.6599 51.3687 43.9373 51.1713 43.2309 50.9245C42.7092 50.5427 42.3218 50.0055 42.1242 49.3899C41.9266 48.7743 41.9291 48.1119 42.1312 47.4978C42.3333 46.8836 42.7246 46.3493 43.2491 45.9713C43.7737 45.5933 44.4044 45.3911 45.0509 45.3936H45.2873C45.6738 45.5384 46.0684 45.6607 46.4691 45.76C47.4358 45.9985 48.428 46.1175 49.4236 46.1145C52.4714 46.1171 55.415 45.0053 57.7001 42.9886C59.9852 40.9719 61.4541 38.1893 61.8304 35.1648C62.2066 32.1404 61.4642 29.0827 59.7428 26.5676C58.0215 24.0524 55.4401 22.2533 52.4845 21.5091L52.2364 21.45C50.9836 23.8136 36.7664 50.2982 36.1045 50.7236C35.7618 50.9364 32.9491 53.4182 30.9991 49.7309C29.0491 46.0436 21.3909 32.7718 21.3791 32.7482C21.3673 32.7245 20.3864 29.4273 23.7427 28.99C24.1494 28.9647 24.5558 29.045 24.9223 29.2231C25.2888 29.4012 25.6031 29.671 25.8345 30.0064L33.7291 42.6636C33.7512 42.7003 33.7823 42.7307 33.8196 42.7518C33.8569 42.7729 33.899 42.784 33.9418 42.784C33.9846 42.784 34.0267 42.7729 34.064 42.7518C34.1013 42.7307 34.1325 42.7003 34.1545 42.6636L46.3036 21.4618C46.6575 20.3133 46.8368 19.1182 46.8355 17.9164C46.8346 16.9496 46.7236 15.9861 46.5045 15.0445C45.8594 12.2937 44.3008 9.84283 42.0831 8.09207C39.8654 6.34131 37.1197 5.3941 34.2942 5.40507C31.4687 5.41604 28.7305 6.38456 26.5264 8.15249C24.3224 9.92042 22.7828 12.3833 22.1591 15.1391C30.4318 17.9045 33.9773 22.3127 34.2491 22.8918C34.8183 23.7106 35.3165 24.5764 35.7382 25.48C35.7441 25.5705 35.7441 25.6613 35.7382 25.7518C35.7397 26.2075 35.6513 26.6591 35.478 27.0806C35.3047 27.5021 35.0499 27.8852 34.7282 28.208C34.4065 28.5308 34.0242 28.7869 33.6033 28.9617C33.1824 29.1364 32.7312 29.2264 32.2755 29.2264C31.8717 29.2303 31.4707 29.1581 31.0936 29.0136C30.8546 28.9315 30.6249 28.8246 30.4082 28.6945C29.7051 26.9424 28.6116 25.3738 27.2107 24.1082C25.8099 22.8425 24.1388 21.9132 22.3245 21.3909C21.2158 21.0578 20.0666 20.8789 18.9091 20.8591C17.8762 20.8561 16.8473 20.9872 15.8482 21.2491C12.7394 22.0707 10.0673 24.0595 8.38776 26.8015C6.70826 29.5436 6.15081 32.8276 6.83141 35.9703C7.51201 39.1129 9.37824 41.8721 12.0417 43.6735C14.7052 45.475 17.9608 46.18 21.1309 45.6418C21.7072 45.5391 22.2759 45.3969 22.8327 45.2164C23.4891 45.2387 24.1233 45.4594 24.6517 45.8493C25.1802 46.2393 25.5781 46.7802 25.793 47.4007C26.008 48.0213 26.0299 48.6924 25.8559 49.3257C25.6819 49.9589 25.3201 50.5246 24.8182 50.9482C22.3888 51.7595 19.8178 52.0587 17.2671 51.8269C14.7164 51.5952 12.2413 50.8376 9.99794 49.6018C7.75458 48.366 5.79155 46.6789 4.23259 44.6468C2.67364 42.6147 1.55257 40.2816 0.940059 37.7947C0.327546 35.3078 0.236872 32.721 0.673753 30.1973C1.11063 27.6736 2.06559 25.2678 3.47844 23.1315C4.89128 20.9953 6.73136 19.1748 8.8827 17.785C11.034 16.3952 13.45 15.4661 15.9782 15.0564C16.8012 10.8368 19.0657 7.03467 22.3838 4.30118C25.702 1.56769 29.8673 0.072937 34.1664 0.072937C38.4654 0.072937 42.6308 1.56769 45.9489 4.30118C49.267 7.03467 51.5315 10.8368 52.3545 15.0564C56.6555 15.811 60.5517 18.0603 63.3561 21.4074C66.1604 24.7544 67.6927 28.9843 67.6827 33.3509Z" fill="#00f068"/>
<path d="M90.4091 2.11546V21.6273H86.7218V13.5791H78V21.6273H74.3127V2.11546H78V10.14H86.7218V2.11546H90.4091Z" fill="black"/>
<path d="M107.545 6.99636L101.329 23.6364C100.934 25.082 100.154 26.3932 99.0718 27.43C98.1264 28.1273 97.0745 28.1627 95.29 28.1627V24.6173C95.9336 24.6815 96.582 24.5584 97.1573 24.2627C97.8246 23.6826 98.2885 22.904 98.4809 22.0409L92.8436 6.99636H96.5309L100.159 17.3727L103.894 6.99636H107.545Z" fill="black"/>
<path d="M123.949 14.3118C124.029 16.2537 123.422 18.1616 122.235 19.7009C121.625 20.4441 120.856 21.0418 119.985 21.4507C119.114 21.8595 118.163 22.0692 117.201 22.0646C115.883 22.0753 114.587 21.7237 113.455 21.0482V28.1391H109.72V6.99637H112.97V7.91819C114.135 7.05256 115.548 6.5844 117 6.58273C117.992 6.55983 118.977 6.76037 119.881 7.16952C120.785 7.57866 121.586 8.18593 122.224 8.94637C123.386 10.49 123.994 12.3802 123.949 14.3118ZM120.049 14.3118C120.096 13.2093 119.821 12.117 119.257 11.1682C118.944 10.7847 118.555 10.4711 118.113 10.2473C117.672 10.0236 117.188 9.89481 116.694 9.8692C116.2 9.8436 115.705 9.92177 115.243 10.0987C114.781 10.2756 114.361 10.5473 114.01 10.8964C113.276 11.8788 112.908 13.0869 112.97 14.3118C112.906 15.537 113.274 16.7458 114.01 17.7273C114.346 18.073 114.751 18.3434 115.2 18.5207C115.648 18.6979 116.129 18.7779 116.61 18.7555C117.134 18.7839 117.657 18.6796 118.13 18.4524C118.603 18.2252 119.011 17.8823 119.316 17.4555C119.848 16.4959 120.101 15.4074 120.049 14.3118Z" fill="black"/>
<path d="M130.827 17.3373C131.147 17.7486 131.561 18.0771 132.034 18.2952C132.507 18.5132 133.025 18.6143 133.545 18.59C134.294 18.6272 135.031 18.3968 135.625 17.94C136.035 17.629 136.364 17.2235 136.583 16.7582L140.258 17.81C139.736 19.0613 138.851 20.1275 137.717 20.8709C136.533 21.6252 135.162 22.0345 133.758 22.0527C132.67 22.0845 131.587 21.8837 130.582 21.4639C129.578 21.0441 128.674 20.4149 127.932 19.6182C126.766 18.1778 126.135 16.3777 126.147 14.5245C126.095 12.5497 126.726 10.6173 127.932 9.05273C128.633 8.25866 129.497 7.62646 130.467 7.19995C131.436 6.77345 132.487 6.56284 133.545 6.58273C134.535 6.53675 135.522 6.72094 136.428 7.12082C137.335 7.5207 138.136 8.12536 138.769 8.88728C139.459 9.80303 139.956 10.849 140.23 11.9621C140.504 13.0752 140.55 14.2323 140.365 15.3636H130.071C130.15 16.0753 130.411 16.7547 130.827 17.3373ZM130.827 10.9791C130.484 11.4246 130.246 11.9416 130.13 12.4918H136.654C136.624 11.905 136.418 11.3407 136.063 10.8727C135.723 10.5157 135.313 10.2333 134.858 10.0437C134.403 9.85406 133.914 9.76128 133.422 9.77129C132.929 9.7813 132.444 9.89387 131.997 10.1018C131.55 10.3098 131.152 10.6086 130.827 10.9791Z" fill="black"/>
<path d="M153.199 7.02V10.4355C152.301 10.1049 151.34 9.97578 150.386 10.0573C149.499 10.078 148.653 10.4374 148.023 11.0618C147.369 11.8263 147.031 12.8108 147.077 13.8155V21.6273H143.366V6.99636H146.616V8.99364C146.99 8.32605 147.532 7.76786 148.188 7.37455C148.959 6.91432 149.832 6.6543 150.729 6.61818C151.572 6.56166 152.417 6.69912 153.199 7.02Z" fill="black"/>
<path d="M155.775 21.6273V1.71363H159.463V21.6273H155.775Z" fill="black"/>
<path d="M164.273 19.5945C163.068 18.102 162.436 16.229 162.488 14.3118C162.444 12.3959 163.076 10.5256 164.273 9.02909C164.977 8.24117 165.843 7.61468 166.812 7.19246C167.781 6.77024 168.83 6.56225 169.886 6.58272C170.943 6.55356 171.992 6.75767 172.96 7.18052C173.929 7.60337 174.792 8.23455 175.488 9.02909C176.712 10.5111 177.347 12.3915 177.273 14.3118C177.328 16.2354 176.681 18.1133 175.453 19.5945C174.755 20.3863 173.891 21.0148 172.923 21.4355C171.955 21.8563 170.906 22.0589 169.851 22.0291C168.801 22.0467 167.76 21.8384 166.797 21.4184C165.835 20.9984 164.974 20.3764 164.273 19.5945ZM172.545 11.2509C172.213 10.8657 171.801 10.5567 171.338 10.3449C170.875 10.1331 170.372 10.0235 169.863 10.0235C169.354 10.0235 168.851 10.1331 168.388 10.3449C167.925 10.5567 167.513 10.8657 167.18 11.2509C166.584 12.1562 166.298 13.2302 166.365 14.3118C166.298 15.3823 166.585 16.4451 167.18 17.3373C167.513 17.7225 167.925 18.0315 168.388 18.2433C168.851 18.4551 169.354 18.5647 169.863 18.5647C170.372 18.5647 170.875 18.4551 171.338 18.2433C171.801 18.0315 172.213 17.7225 172.545 17.3373C173.148 16.4476 173.443 15.3849 173.385 14.3118C173.443 13.2276 173.149 12.1537 172.545 11.2509Z" fill="black"/>
<path d="M189.646 12.4445C189.471 11.7675 189.091 11.1609 188.559 10.7073C188.047 10.2731 187.398 10.0344 186.727 10.0336C186.238 10.0071 185.749 10.101 185.304 10.307C184.859 10.513 184.471 10.8249 184.175 11.2155C183.588 12.1242 183.306 13.1965 183.371 14.2764C183.306 15.345 183.588 16.4061 184.175 17.3018C184.461 17.7104 184.844 18.0418 185.289 18.2665C185.735 18.4913 186.229 18.6024 186.727 18.59C187.432 18.6269 188.126 18.404 188.677 17.9636C189.132 17.5417 189.453 16.995 189.599 16.3918L193.357 17.1836C192.981 18.6095 192.151 19.8744 190.994 20.7882C189.493 21.768 187.694 22.1867 185.915 21.9705C184.136 21.7543 182.49 20.9171 181.267 19.6064C180.061 18.1052 179.424 16.2254 179.471 14.3C179.407 12.3791 180.045 10.5008 181.267 9.01727C181.926 8.21582 182.763 7.57864 183.71 7.1561C184.658 6.73357 185.691 6.53727 186.727 6.58273C188.074 6.50818 189.411 6.85071 190.556 7.56364C191.261 7.9864 191.87 8.55162 192.345 9.22316C192.819 9.8947 193.148 10.6578 193.31 11.4636L189.646 12.4445Z" fill="black"/>
<path d="M205.081 21.6273V19.8309C204.49 20.5863 203.72 21.1827 202.842 21.5665C201.963 21.9502 201.002 22.1092 200.046 22.0291C197.092 22.0291 195.225 20.2445 195.225 17.5027C195.159 16.6214 195.373 15.7419 195.835 14.9888C196.297 14.2357 196.985 13.6474 197.801 13.3073C200.018 12.5474 202.32 12.0632 204.655 11.8654C204.407 10.8136 203.474 10.0573 201.831 10.0573C200.485 10.0556 199.186 10.5476 198.179 11.44L196.064 8.99363C196.862 8.2176 197.808 7.60881 198.845 7.20294C199.882 6.79707 200.989 6.60228 202.103 6.63C203.669 6.66716 205.177 7.23368 206.381 8.23727C207.042 8.82567 207.559 9.55772 207.893 10.3772C208.227 11.1967 208.369 12.0818 208.307 12.9645V21.6273H205.081ZM204.655 14.7373C203.781 14.9027 202.351 15.1982 200.968 15.5054C199.857 15.7418 198.853 16.2618 198.853 17.2309C198.872 17.4806 198.941 17.724 199.055 17.9469C199.169 18.1698 199.326 18.3678 199.518 18.5295C199.709 18.6911 199.931 18.8131 200.169 18.8884C200.408 18.9637 200.66 18.9908 200.909 18.9682C201.542 18.9748 202.166 18.8251 202.727 18.5323C203.288 18.2396 203.767 17.8128 204.124 17.29C204.546 16.5092 204.731 15.6218 204.655 14.7373Z" fill="black"/>
<path d="M211.829 21.6273V1.71363H215.516V21.6273H211.829Z" fill="black"/>
<path d="M100.597 43.7273C100.148 45.4743 99.1391 47.0265 97.7255 48.1473C96.0582 49.3788 94.0168 49.9967 91.9464 49.8964C90.617 49.9403 89.2957 49.6737 88.0874 49.1177C86.8791 48.5618 85.817 47.7318 84.9855 46.6936C83.4677 44.6959 82.6757 42.2408 82.74 39.7327C82.6156 37.2057 83.4042 34.7183 84.9618 32.7245C86.5593 30.9886 88.7326 29.8915 91.078 29.6372C93.4233 29.3829 95.7812 29.9886 97.7137 31.3418C99.2779 32.5729 100.354 34.3194 100.751 36.27L97.0637 36.7782C96.8827 36.1308 96.5777 35.5247 96.1655 34.9936C95.7065 34.3764 95.1039 33.8805 94.4098 33.5489C93.7158 33.2173 92.9513 33.0601 92.1828 33.0909C91.3695 33.0532 90.559 33.2105 89.8189 33.5497C89.0788 33.8889 88.4305 34.4002 87.9282 35.0409C86.9662 36.4226 86.4959 38.0873 86.5928 39.7682C86.5263 41.4456 86.9939 43.1008 87.9282 44.4955C88.4375 45.1283 89.087 45.6339 89.8255 45.9723C90.5639 46.3108 91.3709 46.4727 92.1828 46.4455C92.9552 46.4806 93.7241 46.3203 94.4182 45.9795C95.1123 45.6386 95.7092 45.1282 96.1537 44.4955C96.5177 44.002 96.8046 43.4561 97.0046 42.8764L100.597 43.7273Z" fill="black"/>
<path d="M103.445 49.4827V29.5455H107.133V49.4827H103.445Z" fill="black"/>
<path d="M111.895 47.45C110.689 45.9631 110.056 44.093 110.111 42.1791C110.067 40.2632 110.698 38.3929 111.895 36.8964C112.6 36.1084 113.466 35.4819 114.435 35.0597C115.404 34.6375 116.452 34.4295 117.509 34.45C118.565 34.4208 119.615 34.6249 120.583 35.0478C121.551 35.4706 122.414 36.1018 123.111 36.8964C124.347 38.3732 124.995 40.2542 124.931 42.1791C124.988 44.0993 124.34 45.974 123.111 47.45C122.414 48.2439 121.551 48.8746 120.583 49.2974C119.614 49.7202 118.565 49.9247 117.509 49.8964C116.452 49.9208 115.402 49.7146 114.433 49.2921C113.463 48.8696 112.597 48.241 111.895 47.45ZM120.168 39.1773C119.835 38.7921 119.423 38.4831 118.961 38.2713C118.498 38.0595 117.995 37.9498 117.485 37.9498C116.976 37.9498 116.473 38.0595 116.01 38.2713C115.547 38.4831 115.136 38.7921 114.803 39.1773C114.207 40.0825 113.921 41.1565 113.987 42.2382C113.924 43.3083 114.211 44.37 114.803 45.2636C115.136 45.6488 115.547 45.9578 116.01 46.1696C116.473 46.3814 116.976 46.4911 117.485 46.4911C117.995 46.4911 118.498 46.3814 118.961 46.1696C119.423 45.9578 119.835 45.6488 120.168 45.2636C120.762 44.37 121.056 43.3102 121.007 42.2382C121.08 41.1374 120.794 40.0428 120.192 39.1182L120.168 39.1773Z" fill="black"/>
<path d="M141.346 34.8636V49.4827H138.096V47.97C138.028 48.0356 137.964 48.1067 137.907 48.1827C137.427 48.7081 136.846 49.1308 136.198 49.4253C135.55 49.7198 134.849 49.8801 134.137 49.8964C133.255 50.0056 132.359 49.9216 131.512 49.6502C130.665 49.3788 129.887 48.9264 129.233 48.3246C127.637 46.7527 127.637 44.2 127.637 41.9309V34.84H131.384V41.7418C131.252 43.0994 131.595 44.4606 132.353 45.5946C132.659 45.9027 133.03 46.1381 133.439 46.2833C133.848 46.4286 134.285 46.4799 134.716 46.4337C135.338 46.4133 135.94 46.2166 136.454 45.8664C137.03 45.3927 137.413 44.7241 137.529 43.9873C137.666 43.0642 137.721 42.1309 137.695 41.1982V34.8636H141.346Z" fill="black"/>
<path d="M158.554 29.9827V49.4827H155.304V48.5964C154.074 49.4808 152.587 49.9375 151.073 49.8964C150.111 49.9002 149.16 49.6901 148.289 49.2814C147.419 48.8726 146.65 48.2753 146.038 47.5327C144.852 45.9934 144.245 44.0855 144.325 42.1436C144.273 40.202 144.877 38.2996 146.038 36.7427C146.677 35.9836 147.478 35.3772 148.382 34.9682C149.286 34.5592 150.27 34.3579 151.262 34.3791C152.513 34.3882 153.738 34.7353 154.807 35.3836V29.9827H158.554ZM155.304 42.1791C155.368 40.9539 155 39.7451 154.264 38.7636C153.913 38.4146 153.493 38.1428 153.03 37.9659C152.568 37.789 152.074 37.7109 151.58 37.7365C151.086 37.7621 150.602 37.8909 150.161 38.1146C149.719 38.3383 149.329 38.652 149.016 39.0354C148.453 39.9843 148.178 41.0766 148.225 42.1791C148.168 43.2713 148.422 44.3573 148.957 45.3109C149.261 45.7393 149.669 46.0835 150.142 46.3109C150.616 46.5383 151.139 46.6415 151.664 46.6109C152.145 46.6365 152.627 46.5579 153.076 46.3804C153.525 46.203 153.93 45.9309 154.264 45.5827C155.002 44.6068 155.37 43.4009 155.304 42.1791Z" fill="black"/>
<path d="M173.511 29.384V49.1818H169.54V29.384H173.511ZM186.142 33.2415C188.014 33.2415 189.526 33.8371 190.68 35.0284C191.833 36.2007 192.41 37.8458 192.41 39.9636V49.1818H188.439V40.5025C188.439 39.2545 188.127 38.2996 187.503 37.6378C186.879 36.9571 186.028 36.6167 184.95 36.6167C183.854 36.6167 182.984 36.9571 182.341 37.6378C181.717 38.2996 181.405 39.2545 181.405 40.5025V49.1818H177.434V33.4684H181.405V35.4255C181.934 34.7447 182.606 34.2153 183.419 33.8371C184.251 33.44 185.158 33.2415 186.142 33.2415ZM195.165 41.3251C195.165 39.6989 195.496 38.2807 196.158 37.0705C196.82 35.8415 197.737 34.896 198.909 34.2342C200.081 33.5535 201.424 33.2131 202.937 33.2131C204.884 33.2131 206.492 33.7047 207.759 34.688C209.044 35.6524 209.905 37.0138 210.34 38.7724H206.057C205.83 38.0916 205.442 37.5622 204.894 37.184C204.364 36.7869 203.703 36.5884 202.908 36.5884C201.774 36.5884 200.876 37.0044 200.214 37.8364C199.552 38.6495 199.221 39.8124 199.221 41.3251C199.221 42.8189 199.552 43.9818 200.214 44.8138C200.876 45.6269 201.774 46.0335 202.908 46.0335C204.516 46.0335 205.565 45.3149 206.057 43.8778H210.34C209.905 45.5796 209.044 46.9316 207.759 47.9338C206.473 48.936 204.865 49.4371 202.937 49.4371C201.424 49.4371 200.081 49.1062 198.909 48.4444C197.737 47.7636 196.82 46.8182 196.158 45.608C195.496 44.3789 195.165 42.9513 195.165 41.3251ZM215.007 49.3804C214.289 49.3804 213.693 49.1629 213.22 48.728C212.766 48.2742 212.54 47.7164 212.54 47.0545C212.54 46.3927 212.766 45.8444 213.22 45.4095C213.693 44.9556 214.289 44.7287 215.007 44.7287C215.707 44.7287 216.284 44.9556 216.737 45.4095C217.191 45.8444 217.418 46.3927 217.418 47.0545C217.418 47.7164 217.191 48.2742 216.737 48.728C216.284 49.1629 215.707 49.3804 215.007 49.3804Z" fill="black"/>
</g>
<defs>
<clipPath id="clip0_194_59">
<rect width="222.182" height="52" fill="white"/>
</clipPath>
</defs>
</svg>
