<svg version="1.2" xmlns="http://www.w3.org/2000/svg" viewBox="0 0 70 70" width="70" height="70"><style>.a{fill:#55a4f9}.b{fill:#f5e8b4}.c{fill:#f9f1d2}.d{fill:#ff956a}.e{fill:#ffad8c}.f{fill:#ea552d}.g{fill:#f76937}.h{fill:#d1462a}.i{fill:#ffc5ae}.j{fill:#453d83}.k{fill:#51489a}.l{fill:#c8e2fd}.m{fill:#e9f3fe}.n{fill:#a7d0fc}.o{fill:#19305c}.p{fill:#ff7c48}.q{fill:#86befb}.r{fill:#1380e2}</style><path class="a" d="m25 67.7c-13.6-4.5-23.5-17.4-23.5-32.7 0-19 15.3-34.3 34.2-34.4 18.9 0 34.3 15.5 34.3 34.4 0 3.4-0.5 6.7-1.4 9.8h-13.4c-14 0-26.3 9.4-30.2 22.9z"/><path class="b" d="m51.7 51.9h-48.9c-1.5 0-2.8-1.3-2.8-2.8v-34.6c0-1.5 1.3-2.8 2.8-2.8h48.9c1.5 0 2.8 1.3 2.8 2.8v34.6c0 1.5-1.3 2.8-2.8 2.8z"/><path class="c" d="m51.7 51.9h-44.9c-1.5 0-2.7-1.3-2.7-2.8v-34.6c0-1.5 1.2-2.8 2.7-2.8h44.9c1.5 0 2.8 1.3 2.8 2.8v34.6c0 1.5-1.3 2.8-2.8 2.8z"/><path class="d" d="m54.5 14.5h-54.5v-2.8c0-1.5 1.3-2.8 2.8-2.8h48.9c1.5 0 2.8 1.3 2.8 2.8z"/><path class="e" d="m54.5 14.5h-50.4v-2.8c0-1.5 1.2-2.8 2.7-2.8h44.9c1.5 0 2.8 1.3 2.8 2.8z"/><path class="f" d="m54.5 11.7h-54.5v-5.6c0-1.6 1.3-2.8 2.8-2.8h48.9c1.5 0 2.8 1.2 2.8 2.8z"/><path class="g" d="m54.5 11.7h-50.4v-5.6c0-1.6 1.2-2.8 2.7-2.8h44.9c1.5 0 2.8 1.2 2.8 2.8z"/><path class="h" d="m5.4 7.5c0 0.8-0.6 1.4-1.3 1.4-0.8 0-1.4-0.6-1.4-1.4 0-0.8 0.6-1.4 1.4-1.4 0.7 0 1.3 0.6 1.3 1.4zm4.2-1.4c-0.7 0-1.4 0.6-1.4 1.4 0 0.8 0.7 1.4 1.4 1.4 0.8 0 1.4-0.6 1.4-1.4 0-0.8-0.6-1.4-1.4-1.4zm5.6 0c-0.7 0-1.4 0.6-1.4 1.4 0 0.8 0.7 1.4 1.4 1.4 0.8 0 1.4-0.6 1.4-1.4 0-0.8-0.6-1.4-1.4-1.4z"/><path class="g" d="m12.6 24.4c0 0.7-0.7 1.4-1.4 1.4h-5.6c-0.8 0-1.4-0.7-1.4-1.4 0-0.8 0.6-1.4 1.4-1.4h5.6c0.7 0 1.4 0.6 1.4 1.4z"/><path class="d" d="m9.8 30c0 0.8-0.6 1.4-1.4 1.4h-2.8c-0.8 0-1.4-0.6-1.4-1.4 0-0.8 0.6-1.4 1.4-1.4h2.8c0.8 0 1.4 0.6 1.4 1.4zm-1.4 4.2h-2.8c-0.8 0-1.4 0.6-1.4 1.4 0 0.8 0.6 1.4 1.4 1.4h2.8c0.8 0 1.4-0.6 1.4-1.4 0-0.8-0.6-1.4-1.4-1.4zm0 5.6h-2.8c-0.8 0-1.4 0.6-1.4 1.4 0 0.8 0.6 1.4 1.4 1.4h2.8c0.8 0 1.4-0.6 1.4-1.4 0-0.8-0.6-1.4-1.4-1.4z"/><path class="i" d="m4.2 18.7c0-0.7 0.6-1.4 1.4-1.4h12.6c0.7 0 1.4 0.7 1.4 1.4 0 0.8-0.7 1.4-1.4 1.4h-12.6c-0.8 0-1.4-0.6-1.4-1.4zm1.4 26.7c-0.8 0-1.4 0.7-1.4 1.4 0 0.8 0.6 1.4 1.4 1.4 0.8 0 1.4-0.6 1.4-1.4 0-0.7-0.6-1.4-1.4-1.4zm4.9 0c-0.8 0-1.4 0.7-1.4 1.4 0 0.8 0.6 1.4 1.4 1.4 0.8 0 1.4-0.6 1.4-1.4 0-0.7-0.6-1.4-1.4-1.4zm4.9 0c-0.8 0-1.4 0.7-1.4 1.4 0 0.8 0.6 1.4 1.4 1.4 0.7 0 1.4-0.6 1.4-1.4 0-0.7-0.7-1.4-1.4-1.4zm11.1-16.8h-12.5c-0.8 0-1.4 0.6-1.4 1.4 0 0.8 0.6 1.4 1.4 1.4h12.5c0.8 0 1.4-0.6 1.4-1.4 0-0.8-0.6-1.4-1.4-1.4zm-12.5 8.4h5.6c0.7 0 1.4-0.6 1.4-1.4 0-0.8-0.7-1.4-1.4-1.4h-5.6c-0.8 0-1.4 0.6-1.4 1.4 0 0.8 0.6 1.4 1.4 1.4zm12.5 2.8h-12.5c-0.8 0-1.4 0.6-1.4 1.4 0 0.8 0.6 1.4 1.4 1.4h12.5c0.8 0 1.4-0.6 1.4-1.4 0-0.8-0.6-1.4-1.4-1.4z"/><path class="j" d="m69.9 35.9v3.6c0 1-0.8 1.7-1.7 1.7h-0.9c-0.9 0-1.6-0.7-1.6-1.7v-3.6c0-1 0.7-1.7 1.6-1.7h0.9c0.9 0 1.7 0.7 1.7 1.7zm-1.7-10.1h-0.9c-0.9 0-1.6 0.7-1.6 1.7v3.6c0 0.9 0.7 1.7 1.6 1.7h0.9c0.9 0 1.7-0.8 1.7-1.7v-3.6c0-1-0.8-1.7-1.7-1.7zm-33.2-7.1h-5.8c-2.3 0-4.2 1.9-4.2 4.3v2.8c-0.7 0.2-1.2 0.9-1.2 1.7v7.8c0 0.8 0.5 1.5 1.2 1.6v30.8q2.7 0.9 5.6 1.4 0.1 0 0.1 0c3.6 0.5 6.9-2.4 6.9-6.1v-41.7c0-1.4-1.2-2.6-2.6-2.6z"/><path class="k" d="m68.6 23v21.8c-1.2 4.1-3.1 7.8-5.6 11.1q-0.9 1.1-2.2 2.2c-12.1 9.9-30.2 1.1-30.2-14.6v-20.5c0-2.4 1.9-4.3 4.2-4.3h29.6c2.3 0 4.2 1.9 4.2 4.3z"/><path class="l" d="m63 55.9c-6.2 8.2-16.1 13.6-27.2 13.6q-2.7-0.1-5.2-0.4v-43.3c0-0.8 0.6-1.4 1.4-1.4h29.6c0.8 0 1.4 0.6 1.4 1.4z"/><path class="m" d="m34.8 69.4v-43.6c0-0.8 0.6-1.4 1.4-1.4h25.4c0.8 0 1.4 0.6 1.4 1.4v30.1c-6.2 8.2-16.1 13.6-27.2 13.6q-0.5 0-1-0.1z"/><path class="n" d="m39.1 31.7v0.1c0 0.5-0.4 1-1 1h-3.6c-0.5 0-1-0.5-1-1v-0.1c0-0.6 0.5-1 1-1h3.6c0.6 0 1 0.4 1 1zm-1-4.7h-3.6c-0.5 0-1 0.4-1 1v0.1c0 0.6 0.5 1 1 1h3.6c0.6 0 1-0.4 1-1v-0.1c0-0.6-0.4-1-1-1z"/><path class="k" d="m54.6 23.5c0 1.2-1 2.3-2.2 2.3h-11.1c-1.3 0-2.3-1.1-2.3-2.3 0-1.3 1-2.3 2.3-2.3h11.1c1.2 0 2.2 1 2.2 2.3z"/><path class="o" d="m44 22.3c0 0.5-0.5 1-1 1-0.6 0-1.1-0.5-1.1-1 0-0.6 0.5-1.1 1.1-1.1 0.5 0 1 0.5 1 1.1zm6.6-1.1h-4.1c-0.6 0-1.1 0.5-1.1 1.1 0 0.5 0.5 1 1.1 1h4.1c0.6 0 1.1-0.5 1.1-1 0-0.6-0.5-1.1-1.1-1.1z"/><path class="n" d="m60.1 47.9v3.4c0 1.2-1 2.2-2.1 2.2h-3.4c-1.2 0-2.1-1-2.1-2.2v-3.4c0-1.1 0.9-2.1 2.1-2.1h3.4c1.1 0 2.1 1 2.1 2.1z"/><path class="e" d="m60.1 41.1c0 1.2-1 2.1-2.1 2.1h-3.4c-1.2 0-2.1-0.9-2.1-2.1v-3.4c0-1.2 0.9-2.1 2.1-2.1h3.4c1.1 0 2.1 0.9 2.1 2.1z"/><path class="a" d="m50.6 51.3c0 1.2-0.9 2.2-2.1 2.2h-3.4c-1.1 0-2.1-1-2.1-2.2v-3.4c0-1.1 1-2.1 2.1-2.1h3.4c1.2 0 2.1 1 2.1 2.1z"/><path class="p" d="m50.6 41.1c0 1.2-0.9 2.1-2.1 2.1h-3.4c-1.1 0-2.1-0.9-2.1-2.1v-3.4c0-1.2 1-2.1 2.1-2.1h3.4c1.2 0 2.1 0.9 2.1 2.1z"/><path class="q" d="m41.1 47.9v3.4c0 1.2-0.9 2.2-2.1 2.2h-3.4c-1.1 0-2.1-1-2.1-2.2v-3.4c0-1.1 1-2.1 2.1-2.1h3.4c1.2 0 2.1 1 2.1 2.1z"/><path class="q" d="m54.4 63.9c-1 0-1.9-0.9-1.9-2v-3.7c0-1.1 0.9-1.9 1.9-1.9h3.7c1.1 0 2 0.8 2 1.9v1.1q-0.9 0.9-1.9 1.7c-0.2 0.2-0.8-0.1-1.1 0.1-0.2 0.2-0.1 0.9-0.4 1.1q-1.1 0.9-2.3 1.7z"/><path class="e" d="m39 63.9h-3.4c-1.1 0-2.1-1-2.1-2.1v-3.4c0-1.2 1-2.1 2.1-2.1h3.4c1.2 0 2.1 0.9 2.1 2.1v3.4c0 1.1-0.9 2.1-2.1 2.1zm-5.5-26.2v3.4c0 1.2 1 2.1 2.1 2.1h3.4c1.2 0 2.1-0.9 2.1-2.1v-3.4c0-1.2-0.9-2.1-2.1-2.1h-3.4c-1.1 0-2.1 0.9-2.1 2.1z"/><path class="n" d="m58.4 60.2q0 0.4-0.2 0.8-0.7 0.7-1.5 1.2-0.2 0.1-0.4 0.1c-1.2 0-2.1-1-2.1-2.1 0-1.2 0.9-2.1 2.1-2.1 1.1 0 2.1 0.9 2.1 2.1z"/><path class="p" d="m50.6 58.4v3.4c0 1.1-0.9 2.1-2.1 2.1h-3.4c-1.1 0-2.1-1-2.1-2.1v-3.4c0-1.2 1-2.1 2.1-2.1h3.4c1.2 0 2.1 0.9 2.1 2.1z"/><path fill-rule="evenodd" class="p" d="m37.3 41.5c-1.1 0-2.1-0.9-2.1-2.1 0-1.2 1-2.1 2.1-2.1 1.2 0 2.1 0.9 2.1 2.1 0 1.2-0.9 2.1-2.1 2.1z"/><path fill-rule="evenodd" class="r" d="m46.8 51.8c-1.2 0-2.1-1-2.1-2.2 0-1.1 0.9-2.1 2.1-2.1 1.2 0 2.1 1 2.1 2.1 0 1.2-0.9 2.2-2.1 2.2z"/><path fill-rule="evenodd" class="h" d="m46.8 62.3c-1.2 0-2.1-1-2.1-2.1 0-1.2 0.9-2.1 2.1-2.1 1.2 0 2.1 0.9 2.1 2.1 0 1.1-0.9 2.1-2.1 2.1z"/><path fill-rule="evenodd" class="i" d="m56.3 41.5c-1.2 0-2.1-0.9-2.1-2.1 0-1.2 0.9-2.1 2.1-2.1 1.1 0 2.1 0.9 2.1 2.1 0 1.2-1 2.1-2.1 2.1z"/></svg>