<svg version="1.2" xmlns="http://www.w3.org/2000/svg" viewBox="0 0 69 70" width="69" height="70"><style>.a{fill:#233952}.b{fill:#1d2e43}.c{fill:#394d63}.d{fill:#273f5b}.e{fill:#c2c9d1}.f{fill:#50637a}.g{fill:#e4e5d8}.h{fill:#5fd3ae}.i{fill:#ff4141}.j{fill:#ffbe00}.k{fill:#00ab94}.l{fill:#b9b9af}.m{fill:#ff9a9a}.n{fill:#96c970}</style><path fill-rule="evenodd" class="a" d="m43.5 70h-16.9c-0.5 0-0.9-0.4-0.9-0.8-0.2-0.4 0.3-1 0.7-1.1 2.3-0.6 2.6-6 2.4-7.9 0-0.5 0.3-1 0.9-1h10.6c0.6 0 1 0.5 0.9 1 0 1.9 0.1 7.3 2.6 7.9 0.4 0.1 0.7 0.7 0.7 1.1-0.2 0.4-0.6 0.8-1 0.8z"/><path fill-rule="evenodd" class="b" d="m28.8 61.9c0-0.6 0-1.2 0-1.7 0-0.5 0.3-1 0.9-1h10.6c0.6 0 1 0.5 0.9 1v1.7z"/><path fill-rule="evenodd" class="c" d="m28.1 66c0.2-0.5 0.3-1.2 0.5-1.7h12.8c0.2 0.5 0.3 1.2 0.6 1.7z"/><path fill-rule="evenodd" class="d" d="m54.3 12.7h11c2.1 0 3.7 1.7 3.7 3.7v41c-0.1 2.1-1.8 3.7-3.7 3.7h-60.6c-2.1 0-3.7-1.6-3.7-3.7v-41c0-2 1.6-3.7 3.7-3.7z"/><path fill-rule="evenodd" class="e" d="m52.8 16.4h-45.6c-1 0-1.7 0.7-1.7 1.6v34.5h59v-34.5c0-0.9-0.7-1.6-1.7-1.6z"/><path fill-rule="evenodd" class="f" d="m37.2 57.7h-4.4c-0.5 0-1-0.4-1-1 0-0.5 0.5-0.9 1-0.9h4.4c0.4 0 0.8 0.4 0.8 0.9 0 0.6-0.4 1-0.8 1z"/><path fill-rule="evenodd" class="g" d="m59.4 47.3h-48.8c-1.5 0-2.9-1.4-2.9-2.9v-34.1l26.5-2.6 28.1 2.6v34.1c0 1.5-1.4 2.9-2.9 2.9z"/><path fill-rule="evenodd" class="h" d="m7.7 5.7v4.6h54.6v-4.6c0-3.1-2.6-5.7-5.8-5.7h-43c-3.2 0-5.8 2.6-5.8 5.7z"/><path fill-rule="evenodd" class="i" d="m14.3 7.7c-1.4 0-2.5-1.1-2.5-2.5 0-1.4 1.1-2.5 2.5-2.5 1.4 0 2.5 1.1 2.5 2.5 0 1.4-1.1 2.5-2.5 2.5z"/><path fill-rule="evenodd" class="j" d="m20.9 7.7c-1.4 0-2.5-1.1-2.5-2.5 0-1.4 1.1-2.5 2.5-2.5 1.4 0 2.6 1.1 2.6 2.5 0 1.4-1.2 2.5-2.6 2.5z"/><path fill-rule="evenodd" class="k" d="m27.6 7.7c-1.4 0-2.5-1.1-2.5-2.5 0-1.4 1.1-2.5 2.5-2.5 1.4 0 2.5 1.1 2.5 2.5 0 1.4-1.1 2.5-2.5 2.5z"/><path fill-rule="evenodd" class="i" d="m20.3 26.7c-0.1 0-0.1 0-0.2 0-0.6-0.2-0.9-0.6-0.7-1.1l1.9-10c0.1-0.6 0.5-1 1.1-0.8 0.5 0.1 0.8 0.6 0.8 1.1l-2 9.9c0 0.6-0.5 0.9-0.9 0.9z"/><path fill-rule="evenodd" class="i" d="m17.6 25.7c-0.3 0-0.6-0.1-0.7-0.3l-4.1-4.1c-0.3-0.2-0.3-0.9 0-1.3l4.1-4c0.3-0.4 1-0.4 1.4 0 0.2 0.4 0.2 1 0 1.4l-3.5 3.2 3.5 3.5c0.2 0.4 0.2 0.9 0 1.3-0.3 0.2-0.6 0.3-0.7 0.3z"/><path fill-rule="evenodd" class="i" d="m24.9 25.7c-0.2 0-0.5-0.1-0.6-0.3-0.4-0.4-0.4-0.9 0-1.3l3.3-3.5-3.3-3.2c-0.4-0.4-0.4-1 0-1.4 0.3-0.4 1-0.4 1.2 0l4.2 4c0.4 0.4 0.4 1.1 0 1.3l-4.2 4.1c-0.1 0.2-0.4 0.3-0.6 0.3z"/><path fill-rule="evenodd" class="l" d="m41.7 21.9h-9.2c-0.5 0-0.9-0.4-0.9-1 0-0.5 0.4-0.9 0.9-0.9h9.2c0.6 0 1 0.4 1 0.9 0 0.6-0.4 1-1 1z"/><path fill-rule="evenodd" class="l" d="m44.7 26.7h-12.2c-0.4 0-0.9-0.4-0.9-1 0-0.5 0.5-1 0.9-1h12.2c0.6 0 1 0.5 1 1 0 0.6-0.4 1-1 1z"/><path fill-rule="evenodd" class="m" d="m56.5 26.7h-8.3c-0.6 0-1-0.4-1-1v-10c0-0.5 0.4-0.9 1-0.9h8.3c0.6 0 1 0.4 1 0.9v10c0 0.6-0.4 1-1 1z"/><path fill-rule="evenodd" class="n" d="m34.9 42h-20.3c-0.6 0-1-0.4-1-1v-10c0-0.5 0.4-0.9 1-0.9h20.3c0.5 0 0.9 0.4 0.9 0.9v10c0 0.6-0.4 1-0.9 1z"/><path fill-rule="evenodd" class="l" d="m56.5 32h-15.5c-0.5 0-0.9-0.4-0.9-1 0-0.5 0.4-0.9 0.9-0.9h15.5c0.6 0 1 0.4 1 0.9 0 0.6-0.4 1-1 1z"/><path fill-rule="evenodd" class="l" d="m56.5 36.9h-15.5c-0.5 0-0.9-0.4-0.9-0.9 0-0.6 0.4-1 0.9-1h15.5c0.6 0 1 0.4 1 1 0 0.5-0.4 0.9-1 0.9z"/><path fill-rule="evenodd" class="l" d="m56.5 42h-15.5c-0.5 0-0.9-0.4-0.9-1 0-0.5 0.4-0.9 0.9-0.9h15.5c0.6 0 1 0.4 1 0.9 0 0.6-0.4 1-1 1z"/></svg>