<svg version="1.2" xmlns="http://www.w3.org/2000/svg" viewBox="0 0 67 70" width="67" height="70"><style>.a{fill:#ffcebf}.b{fill:#3e9bc8}.c{fill:#2882b2}.d{fill:#116d9a}.e{fill:#005e89}.f{fill:#d8ecfe}.g{fill:#c4e2ff}.h{fill:#26a6fe}.i{fill:#0593fc}.j{fill:#fff}.k{fill:#eaf6ff}.l{fill:#8bc727}.m{fill:#81b823}.n{fill:#fe646f}.o{fill:#fed402}.p{fill:#ea9b58}.q{fill:#ca6e59}.r{fill:#bb5d4c}</style><path class="a" d="m33.5 3c-18.5 0-33.5 15-33.5 33.5 0 6.6 1.9 12.8 5.3 18.1l0.4 0.1h55.6l0.4-0.1c3.4-5.3 5.3-11.5 5.3-18.1 0-18.5-15-33.5-33.5-33.5z"/><path fill-rule="evenodd" class="b" d="m40.5 43.2v6.8h-14v-6.8z"/><path fill-rule="evenodd" class="c" d="m32 43.3v6.6h-5.5v-6.6z"/><path class="d" d="m62.8 43.3h-58.6c-0.8 0-1.4-0.6-1.4-1.3v-36.7c0-0.7 0.6-1.3 1.4-1.3h58.6c0.8 0 1.4 0.6 1.4 1.3v36.7c0 0.7-0.6 1.3-1.4 1.3z"/><path class="e" d="m10 42v-2.1h-3.1c-0.4 0-0.7-0.3-0.7-0.7v-31.1c0-0.4 0.3-0.7 0.7-0.7h3.1v-2.1c0-0.7 0.6-1.3 1.4-1.3h-7.2c-0.8 0-1.4 0.6-1.4 1.3v36.7c0 0.7 0.6 1.3 1.4 1.3h7.2c-0.8 0-1.4-0.6-1.4-1.3z"/><path class="f" d="m60.1 7.4h-53.2c-0.4 0-0.7 0.3-0.7 0.7v31.1c0 0.4 0.3 0.7 0.7 0.7h6.6l1.4-0.3h37.2l1.4 0.3h6.6c0.4 0 0.7-0.3 0.7-0.7v-31.1c0-0.4-0.3-0.7-0.7-0.7z"/><path class="g" d="m10.5 39.2v-31.1c0-0.4 0.3-0.7 0.7-0.7h-4.3c-0.4 0-0.7 0.3-0.7 0.7v31.1c0 0.4 0.3 0.7 0.7 0.7h4.3c-0.4 0-0.7-0.3-0.7-0.7z"/><path class="h" d="m52.1 0h-37.2c-0.8 0-1.4 0.6-1.4 1.4v6l0.7 0.1h38.6l0.7-0.1v-6c0-0.8-0.6-1.4-1.4-1.4z"/><path class="i" d="m19 1.4c0-0.8 0.6-1.4 1.4-1.4h-5.5c-0.8 0-1.4 0.6-1.4 1.4v6h5.5z"/><path class="d" d="m49.8 54.7v-2.7c0-1.2-0.9-2.1-2.1-2.1h-28.4c-1.2 0-2.1 0.9-2.1 2.1v2.7z"/><path class="e" d="m22.7 54.6v-2.6c0-1.2 0.9-2.1 2-2.1h-5.4c-1.2 0-2.1 0.9-2.1 2.1v2.6z"/><path fill-rule="evenodd" class="j" d="m53.5 7.4v32.5h-40v-32.5z"/><path fill-rule="evenodd" class="k" d="m19 7.4v32.5h-5.5v-32.5z"/><path class="l" d="m25.2 28.8h-6.5c-0.4 0-0.7-0.3-0.7-0.6v-6.6c0-0.4 0.3-0.7 0.7-0.7h6.5c0.4 0 0.7 0.3 0.7 0.7v6.6c0 0.3-0.3 0.6-0.7 0.6z"/><path class="m" d="m20.8 28.2v-6.6c0-0.4 0.3-0.7 0.7-0.7h-2.8c-0.4 0-0.7 0.3-0.7 0.7v6.6c0 0.3 0.3 0.6 0.7 0.6h2.8c-0.4 0-0.7-0.3-0.7-0.6z"/><path class="l" d="m41.9 20.9h-13.8c-0.4 0-0.7 0.3-0.7 0.7v6.6c0 0.3 0.3 0.6 0.7 0.6h16.3z"/><path class="m" d="m30.3 28.2v-6.6c0-0.4 0.3-0.7 0.7-0.7h-2.9c-0.4 0-0.7 0.3-0.7 0.7v6.6c0 0.3 0.3 0.6 0.7 0.6h2.9c-0.4 0-0.7-0.3-0.7-0.6z"/><path class="i" d="m21.5 18.3c-0.4 0-0.8-0.2-0.9-0.5l-2.6-5c-0.3-0.5-0.1-1.1 0.4-1.4 0.5-0.3 1.1-0.1 1.4 0.4l1.5 3 0.6-1.6c0.1-0.4 0.5-0.6 1-0.6 0.4 0 0.8 0.2 0.9 0.6l0.6 1.6 1.5-3c0.3-0.5 0.9-0.7 1.4-0.4 0.5 0.3 0.7 0.9 0.5 1.4l-2.6 5c-0.2 0.3-0.6 0.5-1 0.5-0.4 0-0.8-0.3-0.9-0.7l-0.4-1.1-0.5 1.1c-0.1 0.4-0.5 0.7-0.9 0.7q0 0 0 0z"/><path class="i" d="m32.1 18.3c-0.4 0-0.7-0.2-0.9-0.5l-2.6-5c-0.3-0.5-0.1-1.1 0.4-1.4 0.5-0.3 1.2-0.1 1.4 0.4l1.6 3 0.5-1.6c0.2-0.4 0.6-0.6 1-0.6 0.4 0 0.8 0.2 1 0.6l0.5 1.6 1.6-3c0.2-0.5 0.9-0.7 1.4-0.4 0.5 0.3 0.7 0.9 0.4 1.4l-2.6 5c-0.2 0.3-0.6 0.5-1 0.5-0.4 0-0.7-0.3-0.9-0.7l-0.4-1.1-0.4 1.1c-0.2 0.4-0.5 0.7-0.9 0.7q-0.1 0-0.1 0z"/><path class="i" d="m42.7 18.3c-0.3 0-0.7-0.2-0.9-0.5l-2.6-5c-0.2-0.5 0-1.1 0.5-1.4 0.5-0.3 1.1-0.1 1.4 0.4l1.5 3 0.6-1.6c0.1-0.4 0.5-0.6 0.9-0.6 0.5 0 0.8 0.2 1 0.6l0.6 1.6 1.5-3c0.3-0.5 0.9-0.7 1.4-0.4 0.5 0.3 0.7 0.9 0.4 1.4l-2.6 5c-0.1 0.3-0.5 0.5-0.9 0.5-0.4 0-0.8-0.3-0.9-0.7l-0.5-1.1-0.4 1.1c-0.1 0.4-0.5 0.7-0.9 0.7q0 0-0.1 0z"/><path fill-rule="evenodd" class="n" d="m17.8 4.6c-0.5 0-1-0.4-1-1 0-0.6 0.5-1 1-1 0.6 0 1.1 0.4 1.1 1 0 0.6-0.5 1-1.1 1z"/><path fill-rule="evenodd" class="o" d="m21.5 4.6c-0.5 0-1-0.4-1-1 0-0.6 0.5-1 1-1 0.6 0 1.1 0.4 1.1 1 0 0.6-0.5 1-1.1 1z"/><path fill-rule="evenodd" class="l" d="m25.2 4.6c-0.5 0-1-0.4-1-1 0-0.6 0.5-1 1-1 0.6 0 1.1 0.4 1.1 1 0 0.6-0.5 1-1.1 1z"/><path class="j" d="m49.5 4.6h-17.5c-0.6 0-1-0.4-1-1 0-0.6 0.4-1 1-1h17.5c0.6 0 1 0.4 1 1 0 0.6-0.4 1-1 1z"/><path class="d" d="m52 28.1l-2.7-2.7c-0.2-0.2-0.2-0.5 0.1-0.6l1.9-0.9c0.3-0.1 0.2-0.5-0.1-0.6l-9-2.8c-0.2-0.1-0.5 0.1-0.4 0.4l2.8 9c0.1 0.3 0.5 0.3 0.7 0l0.8-1.8c0.1-0.3 0.5-0.3 0.7-0.1l2.7 2.7c0.1 0.1 0.3 0.1 0.5 0l2-2.1c0.1-0.1 0.1-0.3 0-0.5z"/><path class="e" d="m43.6 20.9l-1.4-0.4c-0.2-0.1-0.5 0.1-0.4 0.4l2.8 9c0.1 0.3 0.5 0.3 0.7 0l0.7-1.5z"/><path class="i" d="m36.8 34.4h-17.7c-0.5 0-1-0.5-1-1 0-0.6 0.5-1.1 1-1.1h17.7c0.5 0 1 0.5 1 1.1 0 0.5-0.5 1-1 1z"/><path class="i" d="m46.4 34.4h-6.1c-0.5 0-1-0.5-1-1 0-0.6 0.5-1.1 1-1.1h6.1c0.5 0 1 0.5 1 1.1 0 0.5-0.5 1-1 1z"/><path class="p" d="m10.4 59.9l-0.8 0.1c6.1 6.2 14.6 10 23.9 10 9.3 0 17.8-3.8 23.9-10l-0.8-0.1z"/><path class="q" d="m57.4 60q2.4-2.5 4.3-5.4h-56.4q1.9 2.9 4.3 5.4z"/><path class="r" d="m18.7 56.6q-1-1-1.8-2h-11.6q1.9 2.9 4.3 5.4h47.8q1.2-1.3 2.4-2.7h-39.6c-0.6 0-1.1-0.2-1.5-0.7z"/></svg>