<?xml version="1.0" encoding="utf-8"?>
<!-- Generator: Adobe Illustrator 26.5.0, SVG Export Plug-In . SVG Version: 6.00 Build 0)  -->
<svg version="1.1" id="Capa_1" xmlns="http://www.w3.org/2000/svg" xmlns:xlink="http://www.w3.org/1999/xlink" x="0px" y="0px"
	 width="45px" height="45px" viewBox="0 0 45 45" style="enable-background:new 0 0 45 45;" xml:space="preserve">
<style type="text/css">
	.st0{fill:#0A1970;}
</style>
<g>
	<g>
		<g>
			<g>
				<path class="st0" d="M10.8,16.7c-0.6,0-1.2-0.3-1.6-0.7C8.9,15.6,9,15.2,9.2,15c0.3-0.2,0.7-0.2,0.9,0.1
					c0.2,0.2,0.4,0.3,0.7,0.3c0.3,0,0.5-0.1,0.7-0.3c0.2-0.3,0.6-0.3,0.9-0.1c0.3,0.2,0.3,0.6,0.1,0.9C12,16.4,11.4,16.7,10.8,16.7z
					"/>
				<path class="st0" d="M10.8,17.3c-0.8,0-1.6-0.3-2.1-1c-0.4-0.5-0.4-1.3,0.1-1.8c0.5-0.4,1.3-0.4,1.8,0.1c0.1,0.1,0.3,0.1,0.4,0
					c0.4-0.5,1.2-0.6,1.8-0.1c0.5,0.4,0.6,1.2,0.1,1.7C12.4,16.9,11.6,17.3,10.8,17.3z M9.7,15.5c0.5,0.8,1.7,0.7,2.3,0.1
					C11.3,16,10.2,16.1,9.7,15.5z"/>
			</g>
		</g>
		<g>
			<g>
				<path class="st0" d="M20.4,16.7c-0.6,0-1.2-0.3-1.6-0.7c-0.2-0.3-0.2-0.7,0.1-0.9c0.3-0.2,0.7-0.2,0.9,0.1
					c0.2,0.2,0.4,0.3,0.7,0.3c0.3,0,0.5-0.1,0.7-0.3c0.2-0.3,0.6-0.3,0.9-0.1c0.3,0.2,0.3,0.6,0.1,0.9C21.6,16.4,21,16.7,20.4,16.7z
					"/>
				<path class="st0" d="M20.4,17.3c-0.8,0-1.6-0.3-2.1-1C18,16,17.9,15.7,18,15.4c0-0.3,0.2-0.6,0.4-0.9c0.5-0.4,1.3-0.4,1.8,0.1
					c0.1,0.1,0.3,0.1,0.4,0c0.4-0.5,1.2-0.6,1.8-0.1c0.5,0.4,0.6,1.2,0.1,1.8C21.9,16.9,21.2,17.3,20.4,17.3z M19.2,15.5
					c0.5,0.8,1.7,0.7,2.3,0.1C20.9,16,19.8,16.1,19.2,15.5z"/>
			</g>
		</g>
		<g>
			<g>
				<ellipse class="st0" cx="15.6" cy="17.1" rx="0.9" ry="1"/>
				<path class="st0" d="M15.6,18.6c-0.8,0-1.5-0.7-1.5-1.6s0.7-1.6,1.5-1.6s1.5,0.7,1.5,1.6S16.4,18.6,15.6,18.6z M15.6,16.7
					c-0.2,0-0.3,0.2-0.3,0.4s0.1,0.4,0.3,0.4s0.3-0.2,0.3-0.4S15.7,16.7,15.6,16.7z"/>
			</g>
		</g>
	</g>
	<g>
		<g>
			<g>
				<path class="st0" d="M25.8,22.7c-0.4,0-0.6-0.3-0.6-0.6v-0.9c0-0.4,0.3-0.6,0.6-0.6s0.6,0.3,0.6,0.6V22
					C26.4,22.4,26.1,22.7,25.8,22.7z"/>
				<path class="st0" d="M25.8,23.3c-0.7,0-1.2-0.6-1.2-1.2v-0.9c0-0.7,0.6-1.2,1.2-1.2s1.2,0.6,1.2,1.2V22
					C27,22.7,26.4,23.3,25.8,23.3z M25.8,21.2L25.7,22l0,0c0,0,0,0,0,0V21.2z"/>
			</g>
		</g>
		<g>
			<g>
				<path class="st0" d="M34.9,22.7c-0.4,0-0.6-0.3-0.6-0.6v-0.9c0-0.4,0.3-0.6,0.6-0.6s0.6,0.3,0.6,0.6V22
					C35.6,22.4,35.3,22.7,34.9,22.7z"/>
				<path class="st0" d="M34.9,23.3c-0.7,0-1.2-0.6-1.2-1.2v-0.9c0-0.7,0.6-1.2,1.2-1.2s1.2,0.6,1.2,1.2V22
					C36.2,22.7,35.6,23.3,34.9,23.3z M35,21.2L34.9,22l0,0c0,0,0,0,0,0V21.2z"/>
			</g>
		</g>
		<g>
			<g>
				<path class="st0" d="M30.3,23.2c-0.6,0-1.3-0.3-1.7-0.8c-0.2-0.3-0.2-0.7,0.1-0.9c0.3-0.2,0.7-0.2,0.9,0.1
					c0.2,0.2,0.4,0.3,0.7,0.3c0.3,0,0.5-0.1,0.7-0.3c0.2-0.3,0.6-0.3,0.9-0.1c0.3,0.2,0.3,0.6,0.1,0.9C31.6,22.9,31,23.2,30.3,23.2z
					"/>
				<path class="st0" d="M30.3,23.8c-0.8,0-1.6-0.4-2.1-1c-0.4-0.5-0.4-1.3,0.1-1.8c0.5-0.4,1.3-0.4,1.7,0.1c0.1,0.2,0.4,0.2,0.5,0
					c0.5-0.5,1.2-0.6,1.8-0.1c0.5,0.4,0.6,1.2,0.1,1.7C31.9,23.4,31.2,23.8,30.3,23.8z M29.2,22c0.5,0.8,1.8,0.8,2.4,0.1
					C30.9,22.6,29.8,22.7,29.2,22z"/>
			</g>
		</g>
	</g>
	<g>
		<g>
			<path class="st0" d="M1.8,15.6c-0.1,0-0.1,0-0.2,0c-0.3-0.1-0.5-0.4-0.4-0.7c1-7.4,7.4-13,14.9-13h7c1.8,0,3.2,1.5,3.2,3.2v0.5
				c0,0.2,0,0.4,0,0.6c-0.2,1.4-0.9,2.6-2.1,3.3c-0.8,0.5-1.6,0.7-2.5,0.7H11c-2.1,0-4.1,1.3-4.8,3.3C6,13.9,5.7,14.1,5.4,14
				c-0.2,0-0.4-0.1-0.6-0.1c-1,0-1.9,0.5-2.4,1.3C2.2,15.5,2,15.6,1.8,15.6z M16,3.1c-6.2,0-11.6,4.2-13.2,10
				c0.6-0.3,1.2-0.5,1.9-0.5c0.1,0,0.3,0,0.4,0C6.2,10.5,8.4,9,11,9h10.6c0.7,0,1.3-0.2,1.8-0.5C24.2,7.9,24.8,7,24.9,6
				c0-0.1,0-0.3,0-0.4V5.1c0-1.1-0.9-2-2-2H16z"/>
			<path class="st0" d="M1.8,16.2c-0.1,0-0.3,0-0.4-0.1c-0.5-0.2-0.9-0.8-0.8-1.3C1.6,7,8.2,1.2,16,1.2h7c2.1,0,3.8,1.7,3.8,3.8v0.5
				c0,0.2,0,0.4,0,0.7c-0.2,1.5-1.1,2.9-2.4,3.7c-0.9,0.6-1.8,0.8-2.9,0.8H11c-1.9,0-3.6,1.2-4.3,3c-0.2,0.6-0.8,0.9-1.4,0.8
				c-0.9-0.2-1.9,0.2-2.4,1C2.6,16,2.2,16.2,1.8,16.2z M16,2.4C8.8,2.4,2.7,7.8,1.7,14.9l0,0c0,0,0,0,0,0c0.8-1.2,2.3-1.9,3.7-1.5
				c0.9-2.3,3-3.8,5.4-3.8h10.6c0.8,0,1.5-0.2,2.2-0.7c1-0.7,1.7-1.7,1.8-2.9c0-0.2,0-0.4,0-0.5V5.1c0-1.5-1.2-2.6-2.6-2.6H16z
				 M1.8,14.3L2.2,13C3.9,6.8,9.6,2.5,16,2.5h7c1.4,0,2.6,1.1,2.6,2.6v0.5c0,0.2,0,0.3,0,0.5c-0.1,1.2-0.8,2.2-1.8,2.8
				c-0.6,0.4-1.4,0.6-2.2,0.6H11c-2.3,0-4.3,1.3-5.3,3.4l-0.2,0.4l-0.4,0c-0.7-0.1-1.4,0.1-2,0.4L1.8,14.3z M16,3.7
				c-5.5,0-10.3,3.4-12.3,8.5c0.3-0.1,0.7-0.1,1-0.1C6,9.8,8.4,8.4,11,8.4h10.6c0.5,0,1.1-0.2,1.5-0.4c0.7-0.4,1.1-1.2,1.2-2
				c0-0.1,0-0.2,0-0.4V5.1c0-0.8-0.6-1.4-1.4-1.4H16z"/>
		</g>
	</g>
	<g>
		<g>
			<path class="st0" d="M19.5,37.1c-1.7,0-3.5-0.4-5.1-1.1c-0.3-0.1-0.5-0.5-0.3-0.8c0.1-0.3,0.5-0.5,0.8-0.3
				c1.7,0.8,3.7,1.1,5.5,0.9c-0.3-0.3-0.5-0.7-0.6-1.1c-0.3-0.9-0.2-1.8,0.3-2.6c-0.2,0-0.5,0-0.7,0c-2.9,0-5.6-1.8-6.8-4.6
				c-0.2-0.5-0.5-0.8-1-1c-0.5-0.2-1-0.2-1.4,0c-0.9,0.4-1.4,1.5-1,2.4c0.7,1.8,2,3.5,3.6,4.7c0.3,0.2,0.3,0.6,0.1,0.9
				c-0.2,0.3-0.6,0.3-0.9,0.1c-1.8-1.3-3.2-3.1-4-5.2c-0.6-1.6,0.1-3.4,1.7-4.1c0.8-0.3,1.6-0.3,2.4,0c0.8,0.3,1.4,0.9,1.7,1.7
				c1,2.5,3.6,4,6.3,3.7c0.5-0.1,1,0,1.5,0.2c0.2,0.1,0.4,0.3,0.4,0.5c0,0.2-0.1,0.5-0.3,0.6c-0.2,0.1-0.4,0.3-0.6,0.5l0,0
				c-0.3,0.5-0.4,1-0.2,1.6c0.2,0.5,0.6,0.9,1.1,1.1c0.2,0.1,0.4,0.3,0.4,0.5c0,0.2-0.1,0.5-0.3,0.6c-0.4,0.3-0.8,0.4-1.3,0.5
				C20.5,37,20,37.1,19.5,37.1z"/>
			<path class="st0" d="M19.5,37.7c-1.8,0-3.6-0.4-5.3-1.2c-0.3-0.1-0.5-0.4-0.6-0.7c-0.1-0.3-0.1-0.6,0-1c0.1-0.3,0.4-0.5,0.7-0.6
				c0.3-0.1,0.6-0.1,0.9,0c1.3,0.6,2.8,0.9,4.2,0.9c-0.1-0.1-0.1-0.2-0.1-0.4c-0.2-0.7-0.2-1.4-0.1-2.1c-3.1-0.1-5.9-2-7.1-4.9
				c-0.1-0.3-0.4-0.6-0.7-0.7c-0.3-0.1-0.6-0.1-1,0c-0.3,0.1-0.5,0.4-0.7,0.7c-0.1,0.3-0.1,0.6,0,1c0.7,1.7,1.9,3.3,3.4,4.4
				c0.5,0.4,0.7,1.2,0.2,1.7c-0.4,0.5-1.2,0.7-1.7,0.2c-1.9-1.4-3.3-3.3-4.2-5.5c-0.4-0.9-0.4-1.9,0-2.9c0.4-0.9,1.1-1.6,2-2
				c0.9-0.4,1.9-0.4,2.9,0c0.9,0.4,1.6,1.1,2,2c0.9,2.3,3.3,3.6,5.7,3.3c0.6-0.1,1.2,0,1.8,0.2c0.4,0.2,0.7,0.6,0.8,1
				c0,0.5-0.2,0.9-0.6,1.2c-0.1,0.1-0.3,0.2-0.4,0.4c-0.2,0.3-0.3,0.7-0.2,1.1c0.1,0.4,0.4,0.6,0.7,0.8c0.4,0.2,0.7,0.6,0.8,1
				S23,36.8,22.6,37c-0.5,0.3-1,0.5-1.5,0.6C20.5,37.6,20,37.7,19.5,37.7z M14.7,35.4c1.9,1,4,1.3,6.2,1c0.2,0,0.4-0.1,0.6-0.1
				l-0.9,0.1C18.5,36.5,16.5,36.2,14.7,35.4z M21.2,31.5l-0.6,0.9c-0.4,0.6-0.5,1.4-0.2,2.1c0.1,0.3,0.3,0.6,0.5,0.9l0.7,0.8
				c0.1,0,0.2-0.1,0.3-0.2c-0.7-0.3-1.2-0.9-1.4-1.6c-0.2-0.7-0.1-1.4,0.3-2.1c0.2-0.3,0.5-0.6,0.8-0.8
				C21.4,31.5,21.3,31.5,21.2,31.5z M11,25.7c-0.3,0-0.6,0.1-0.9,0.2c-0.6,0.3-1.1,0.7-1.4,1.4s-0.3,1.3,0,1.9
				c0.8,2,2.1,3.7,3.8,4.9c-1.6-1.3-2.9-3-3.7-5c-0.2-0.6-0.2-1.3,0-1.9s0.7-1.1,1.3-1.3c0.6-0.2,1.3-0.2,1.9,0
				c0.6,0.3,1.1,0.7,1.3,1.3c1,2.5,3.5,4.2,6.2,4.2c0.2,0,0.4,0,0.6,0l0.9-0.1c-0.2,0-0.5-0.1-0.7,0c-3,0.4-5.8-1.3-6.9-4.1
				c-0.3-0.6-0.7-1.1-1.4-1.4C11.7,25.8,11.3,25.7,11,25.7z"/>
		</g>
	</g>
	<g>
		<g>
			<g>
				<path class="st0" d="M21.5,32.2c-0.1,0-0.2,0-0.2,0c-0.3-0.1-0.6-0.2-0.9-0.1c0,0,0,0,0,0c-1.6,0.2-3.1-0.1-4.5-0.9
					c-1.4-0.8-2.4-2-3.1-3.4c-0.1-0.2-0.1-0.5,0.1-0.7c0.2-0.2,0.4-0.3,0.6-0.2c0.8,0.2,1.6,0.3,2.4,0.3c1.8,0,3.5-0.4,4.9-1.3
					c0.2-0.1,0.5-0.1,0.8,0.1c2.2,1.9,3.1,4,3.5,5.4c0.1,0.2,0,0.4-0.1,0.6c-0.1,0.2-0.4,0.2-0.6,0.2c-0.4-0.1-0.7-0.1-1-0.2
					c-0.5-0.2-1.1-0.1-1.5,0.2C21.7,32.2,21.6,32.2,21.5,32.2z M20.3,31.4L20.3,31.4L20.3,31.4z M20.6,30.8c0.3,0,0.6,0,0.8,0.1
					c0.6-0.3,1.4-0.4,2.1-0.3c-0.4-1-1.2-2.3-2.4-3.4c-1.6,0.8-3.3,1.3-5.2,1.3c-0.4,0-0.8,0-1.3-0.1c1.3,1.7,3.4,2.7,5.6,2.4l0,0
					C20.3,30.8,20.5,30.8,20.6,30.8z"/>
				<path class="st0" d="M21.5,32.8c-0.2,0-0.3,0-0.5-0.1c-0.2-0.1-0.4-0.1-0.6-0.1c-1.7,0.2-3.4-0.1-4.9-1
					c-1.5-0.8-2.6-2.1-3.3-3.7c-0.2-0.4-0.1-0.9,0.2-1.3c0.3-0.4,0.8-0.5,1.2-0.4c0.7,0.2,1.5,0.3,2.2,0.3c1.7,0,3.3-0.4,4.6-1.2
					c0.5-0.3,1-0.2,1.5,0.1c2.3,2,3.3,4.2,3.7,5.7c0.1,0.4,0,0.8-0.3,1.2c-0.3,0.3-0.7,0.5-1.1,0.4c-0.4-0.1-0.8-0.1-1.1-0.2
					c-0.4-0.1-0.7-0.1-1,0.1C22,32.7,21.7,32.8,21.5,32.8z M20.6,31.4c0.3,0,0.6,0.1,0.9,0.2l0,0c0,0,0,0,0,0c0.6-0.4,1.3-0.5,2-0.3
					c0.3,0.1,0.6,0.2,1,0.2c0,0,0-0.1,0-0.1l-1.1-0.2c-0.6-0.1-1.2-0.1-1.7,0.2l-0.2,0.1l-0.2-0.1c-0.3-0.1-0.7-0.1-1-0.1
					c-2.4,0.3-4.7-0.7-6.1-2.6l-0.5-0.6c0.6,1.1,1.4,1.9,2.5,2.5c1.3,0.7,2.7,1,4.1,0.8C20.4,31.4,20.5,31.4,20.6,31.4z M21.2,26.5
					l0.3,0.3c1.1,1.1,2,2.3,2.6,3.6l0.3,0.8C24,29.8,23.1,28,21.2,26.5c-1.6,0.9-3.3,1.3-5.3,1.3c-0.8,0-1.7-0.1-2.5-0.3
					c0,0.1,0,0.1,0.1,0.2l1.2,0.1c0.4,0,0.8,0.1,1.2,0.1c1.7,0,3.4-0.4,4.9-1.2L21.2,26.5z M20.6,30.2c0.3,0,0.5,0,0.8,0.1
					c0.4-0.2,0.7-0.2,1.1-0.3c-0.4-0.7-0.9-1.4-1.5-2c-1.5,0.7-3.1,1.1-4.9,1.1c1.1,0.9,2.6,1.3,4,1.1
					C20.3,30.2,20.4,30.2,20.6,30.2z"/>
			</g>
		</g>
	</g>
	<g>
		<g>
			<path class="st0" d="M24.8,43.2H8.7c-0.4,0-0.6-0.3-0.6-0.6V29.2c0-0.3,0.2-0.6,0.5-0.6c0.3-0.1,0.6,0.1,0.7,0.4
				c0.7,1.8,2,3.5,3.6,4.7c0.3,0.2,0.3,0.6,0.1,0.9c-0.2,0.3-0.6,0.3-0.9,0.1c-1.1-0.8-2-1.8-2.8-2.9v10.2h15
				c0.3-1.6,0.8-3.2,1.4-4.7c-1.2,0-2.5-0.1-3.7-0.5c-0.3,0.2-0.7,0.3-1,0.3c-2.2,0.3-4.5-0.1-6.6-1c-0.3-0.1-0.5-0.5-0.3-0.8
				c0.1-0.3,0.5-0.5,0.8-0.3c1.8,0.8,3.9,1.1,5.9,0.9c0.3,0,0.5-0.1,0.8-0.3c0.2-0.1,0.4-0.1,0.6-0.1c0,0,0.1,0,0.1,0
				c1.4,0.4,2.9,0.6,4.3,0.4c0.2,0,0.5,0.1,0.6,0.3c0.1,0.2,0.2,0.4,0.1,0.6c-0.9,1.8-1.5,3.8-1.8,5.9C25.4,43,25.2,43.2,24.8,43.2z
				"/>
			<path class="st0" d="M24.8,43.8H8.7c-0.7,0-1.2-0.6-1.2-1.2V29.2c0-0.6,0.4-1.1,1-1.2c0.6-0.1,1.2,0.2,1.4,0.8
				c0.7,1.7,1.9,3.3,3.4,4.4c0.5,0.4,0.7,1.2,0.2,1.7c-0.4,0.5-1.2,0.7-1.7,0.2c-0.7-0.5-1.3-1-1.8-1.6v7.9h13.9
				c0.2-1.2,0.6-2.4,1-3.5c-0.9,0-1.9-0.2-2.8-0.5c-0.3,0.1-0.6,0.2-1,0.3c-2.3,0.3-4.7-0.1-6.9-1.1c-0.3-0.1-0.5-0.4-0.6-0.7
				c-0.1-0.3-0.1-0.6,0-1c0.1-0.3,0.4-0.5,0.7-0.6c0.3-0.1,0.6-0.1,0.9,0c1.7,0.8,3.7,1.1,5.6,0.9c0.2,0,0.4-0.1,0.5-0.2
				c0.3-0.2,0.7-0.3,1.1-0.1c1.4,0.4,2.8,0.6,4.2,0.4c0.4,0,0.9,0.2,1.1,0.5s0.3,0.8,0.1,1.2c-0.8,1.8-1.4,3.7-1.7,5.7
				C26,43.3,25.5,43.8,24.8,43.8z M8.7,29.1L8.6,42.5l16.2,0c0,0,0,0,0,0c0.3-2.1,1-4.2,1.8-6c-1.6,0.1-3.1,0-4.6-0.5
				c0,0-0.1,0-0.2-0.1c-0.3,0.2-0.7,0.3-1,0.4c-2.1,0.3-4.3-0.1-6.2-0.9c1.9,1,4.1,1.3,6.2,1c0.3,0,0.6-0.1,0.8-0.2l0.2-0.1l0.2,0.1
				c1.1,0.3,2.3,0.5,3.5,0.5l0.9,0l-0.3,0.8c-0.6,1.5-1,3-1.3,4.6l-0.1,0.5H8.7V29.8l1.1,1.6c0.7,1.1,1.6,2,2.6,2.7
				C10.8,32.8,9.5,31.1,8.7,29.1z"/>
		</g>
	</g>
	<g>
		<g>
			<path class="st0" d="M25.5,37.2c-1.2,0-2.4-0.2-3.6-0.5c-0.9-0.3-1.7-1-2-1.9c-0.3-0.9-0.2-1.9,0.3-2.7l0,0
				c0.7-1.2,2.2-1.7,3.5-1.3c2,0.6,4.2,0.1,5.8-1.3c0.6-0.6,1.4-0.9,2.3-0.8c0.8,0,1.6,0.4,2.2,1l0,0c0.6,0.6,0.9,1.4,0.8,2.3
				c0,0.8-0.4,1.6-1,2.2C31.5,36.1,28.5,37.2,25.5,37.2z M22.8,31.8c-0.6,0-1.2,0.3-1.5,0.8l0,0c-0.3,0.5-0.4,1.1-0.2,1.6
				c0.2,0.5,0.6,0.9,1.2,1.1c3.7,1.1,7.8,0.2,10.6-2.4c0.8-0.7,0.8-1.9,0.1-2.6c0,0,0,0,0,0c-0.3-0.4-0.8-0.6-1.3-0.6
				c-0.5,0-1,0.1-1.3,0.5c-1.9,1.7-4.6,2.3-7,1.6C23.2,31.9,23,31.8,22.8,31.8z"/>
			<path class="st0" d="M25.5,37.8c-1.3,0-2.5-0.2-3.7-0.6c-1.1-0.3-2-1.2-2.4-2.3c-0.4-1.1-0.3-2.3,0.4-3.3
				c0.9-1.4,2.6-2.1,4.2-1.6c1.8,0.5,3.8,0.1,5.2-1.2c0.7-0.7,1.7-1,2.7-1c1,0,1.9,0.5,2.6,1.2c0.7,0.7,1,1.7,1,2.7
				c0,1-0.5,1.9-1.2,2.6C31.8,36.6,28.7,37.8,25.5,37.8L25.5,37.8C25.5,37.8,25.5,37.8,25.5,37.8z M22.9,31.1
				c-0.8,0-1.7,0.4-2.1,1.1c-0.5,0.7-0.5,1.5-0.3,2.3c0.3,0.7,0.9,1.3,1.6,1.5c1.1,0.3,2.2,0.5,3.4,0.5c0,0,0,0,0,0h0
				c2.9,0,5.7-1.1,7.9-3.1c0.5-0.5,0.8-1.1,0.8-1.8c0-0.7-0.2-1.3-0.7-1.8c-0.5-0.5-1.1-0.8-1.8-0.8c-0.7,0-1.3,0.2-1.8,0.7
				c-1.7,1.6-4.2,2.1-6.4,1.5C23.3,31.2,23.1,31.1,22.9,31.1z M25.5,36.5c-1.1,0-2.3-0.2-3.4-0.5c-0.7-0.2-1.3-0.8-1.6-1.5
				c-0.3-0.7-0.2-1.5,0.2-2.1c0.6-0.9,1.8-1.4,2.8-1c2.2,0.7,4.7,0.1,6.5-1.5c0.5-0.4,1.1-0.7,1.8-0.6c0.7,0,1.3,0.3,1.7,0.8
				c0.4,0.5,0.7,1.1,0.6,1.8c0,0.7-0.3,1.3-0.8,1.7C31.2,35.4,28.3,36.5,25.5,36.5z M22.8,32.4c-0.4,0-0.8,0.2-1,0.6
				c-0.2,0.4-0.3,0.8-0.1,1.1c0.1,0.4,0.4,0.6,0.8,0.7c3.5,1.1,7.4,0.2,10.1-2.3c0.5-0.5,0.5-1.3,0.1-1.8c-0.2-0.2-0.5-0.4-0.9-0.4
				c-0.3,0-0.6,0.1-0.9,0.3c-2,1.9-5,2.5-7.6,1.7C23.1,32.4,23,32.4,22.8,32.4z"/>
		</g>
	</g>
	<g>
		<g>
			<path class="st0" d="M33.9,31.3c-0.3,0-0.5-0.1-0.6-0.4c-0.1-0.2-0.2-0.4-0.3-0.5c-0.3-0.4-0.8-0.6-1.3-0.6c-0.5,0-1,0.1-1.3,0.5
				c-0.1,0.1-0.1,0.1-0.2,0.2c-0.2,0.2-0.4,0.2-0.6,0.1c-2.1-0.8-3.8-2.1-5.1-4c-1.3-1.8-2-4-2-6.3c0-2.7,1-5.2,2.7-7.2
				c0.1-0.1,0.3-0.2,0.5-0.2c0.2,0,0.3,0.1,0.5,0.2c1.3,1.3,3.7,3,7.7,4c2.8,0.7,4.7,3.1,4.7,6v6.5c0,0.2-0.1,0.5-0.4,0.6
				C36.9,30.9,35.5,31.2,33.9,31.3C34,31.3,33.9,31.3,33.9,31.3z M31.7,28.5c0,0,0.1,0,0.1,0c0.8,0,1.6,0.4,2.2,1
				c0.1,0.1,0.2,0.3,0.3,0.4c1-0.1,2.1-0.4,3-0.8v-6.1c0-2.3-1.5-4.2-3.7-4.7l0,0c-3.9-0.9-6.3-2.5-7.8-3.9c-1.3,1.7-2,3.7-2,5.9
				c0,3.9,2.4,7.4,5.9,8.9C30.2,28.8,30.9,28.5,31.7,28.5z M38,29.6L38,29.6L38,29.6z"/>
			<path class="st0" d="M33.9,31.9c-0.5,0-0.9-0.3-1.1-0.7c-0.1-0.1-0.1-0.2-0.2-0.3c-0.2-0.2-0.5-0.4-0.9-0.4
				c-0.3,0-0.6,0.1-0.9,0.3c-0.1,0.1-0.1,0.1-0.2,0.2c-0.3,0.3-0.8,0.4-1.2,0.2c-2.2-0.8-4-2.3-5.4-4.2c-1.4-1.9-2.1-4.2-2.1-6.6
				c0-2.8,1-5.5,2.9-7.6c0.2-0.3,0.5-0.4,0.9-0.4c0.3,0,0.7,0.1,0.9,0.4c1.2,1.2,3.6,2.9,7.5,3.8c3.1,0.7,5.2,3.4,5.2,6.6v6.5
				c0,0.5-0.3,0.9-0.7,1.1C37.1,31.4,35.6,31.8,33.9,31.9L33.9,31.9z M31.7,29.2c0,0,0.1,0,0.1,0c0.7,0,1.3,0.3,1.7,0.8
				c0.2,0.2,0.3,0.4,0.4,0.7l0,0c1.4-0.1,2.8-0.4,4-1l0-6.6c0-2.6-1.8-4.8-4.3-5.4c-4.2-1-6.7-2.8-8-4.2c-1.7,1.9-2.6,4.3-2.6,6.8
				c0,2.1,0.6,4.2,1.9,5.9c1.2,1.7,2.9,3,4.8,3.7l0.2-0.2C30.5,29.4,31,29.2,31.7,29.2z M34,30.6l-0.2-0.3c-0.1-0.1-0.2-0.2-0.3-0.4
				c-0.5-0.5-1.1-0.8-1.8-0.8l-0.1,0c-0.6,0-1.2,0.2-1.6,0.6L29.8,30l-0.3-0.1c-3.8-1.6-6.3-5.3-6.3-9.5c0-2.2,0.7-4.4,2.1-6.2
				l0.4-0.5l0.5,0.4c1.3,1.2,3.7,2.8,7.6,3.7c2.5,0.6,4.2,2.8,4.2,5.3v6.5l-0.4,0.2c-1,0.4-2.1,0.7-3.2,0.8L34,30.6z M31.7,27.9
				l0.2,0c1,0,1.9,0.5,2.6,1.2c0.1,0.1,0.1,0.1,0.2,0.2c0.7-0.1,1.4-0.3,2.1-0.5v-5.7c0-2-1.4-3.7-3.3-4.2c-3.6-0.9-6.1-2.4-7.6-3.6
				c-1,1.5-1.5,3.2-1.5,5c0,3.5,2.1,6.7,5.2,8.2C30.2,28.2,30.9,27.9,31.7,27.9z"/>
		</g>
	</g>
	<g>
		<g>
			<path class="st0" d="M40.3,43.2H24.8c-0.2,0-0.4-0.1-0.5-0.2c-0.1-0.1-0.2-0.3-0.1-0.5c0.4-2.2,1-4.3,1.9-6.2
				c0.1-0.2,0.3-0.3,0.5-0.4c2.4-0.2,4.5-1.2,6.3-2.8c0.6-0.5,0.8-1.4,0.4-2.1c-0.1-0.2-0.1-0.4,0-0.6c0.1-0.2,0.3-0.3,0.5-0.3
				c1.3-0.1,2.6-0.4,3.8-1c0.2-0.1,0.4-0.1,0.6,0c0.2,0.1,0.3,0.3,0.3,0.5v4c0,0.9,0.7,1.6,1.6,1.6c0,0,0,0,0,0l0,0
				c0.2,0,0.3,0.1,0.5,0.2c0.1,0.1,0.2,0.3,0.2,0.5v6.7C40.9,42.9,40.7,43.2,40.3,43.2z M25.6,41.9h14v-5.4
				c-1.3-0.3-2.3-1.4-2.3-2.8v-3c-0.8,0.3-1.7,0.5-2.6,0.6c0.1,1-0.2,2-1,2.7c-1.9,1.7-4.2,2.8-6.7,3.1
				C26.4,38.6,25.9,40.2,25.6,41.9z"/>
			<path class="st0" d="M40.3,43.8H24.8c-0.4,0-0.7-0.2-0.9-0.4c-0.2-0.3-0.3-0.6-0.3-1c0.4-2.2,1-4.4,1.9-6.4
				c0.2-0.4,0.6-0.7,1-0.7c2.2-0.2,4.3-1.2,6-2.7c0.4-0.4,0.5-0.9,0.3-1.4c-0.2-0.4-0.1-0.8,0.1-1.2c0.2-0.3,0.6-0.6,1-0.6
				c1.2-0.1,2.4-0.4,3.5-0.9c0.4-0.2,0.8-0.2,1.2,0.1c0.4,0.2,0.6,0.6,0.6,1.1v4c0,0.6,0.5,1,1,1c0.4,0,0.7,0.1,0.9,0.4
				c0.2,0.2,0.4,0.6,0.4,0.9v6.7C41.5,43.2,41,43.8,40.3,43.8z M38,29.6c-1.3,0.6-2.7,0.9-4.1,1c0.4,1,0.2,2.1-0.6,2.8
				c-1.8,1.7-4.1,2.7-6.6,3c-0.9,1.9-1.5,4-1.9,6.1l15.5,0c0,0,0,0,0,0l0-6.7l-0.1,0c-1.2,0-2.2-1-2.2-2.2V29.6z M40.3,42.5H24.9
				l0.1-0.7c0.3-1.7,0.9-3.4,1.5-5l0.1-0.3l0.3,0c2.4-0.3,4.6-1.3,6.3-3c0.6-0.6,0.9-1.4,0.8-2.2l-0.1-0.6l0.6-0.1
				c0.8-0.1,1.6-0.3,2.4-0.6l0.8-0.3v3.9c0,1.1,0.8,2,1.8,2.2l0.5,0.1V42.5z M26.3,41.3h12.7v-4.4c-1.4-0.5-2.3-1.8-2.3-3.3v-2.2
				c-0.4,0.1-0.9,0.2-1.3,0.3c0,1-0.5,2-1.2,2.7c-1.9,1.7-4.2,2.8-6.6,3.2C27,38.8,26.6,40,26.3,41.3z"/>
		</g>
	</g>
	<g>
		<g>
			<path class="st0" d="M40.2,36.5c-1.6,0-2.9-1.3-2.9-2.9V23.1c0-2.3-1.5-4.2-3.7-4.7c-4.3-1.1-6.9-2.9-8.3-4.3
				c-0.2-0.2-0.3-0.6,0-0.9c2.1-2.4,5.1-3.7,8.2-3.7c2,0,4,0.6,5.8,1.6c0.3,0.2,0.4,0.6,0.2,0.9c-0.2,0.3-0.6,0.4-0.9,0.2
				c-1.5-0.9-3.3-1.4-5.1-1.4c-2.6,0-5,1-6.9,2.8c1.4,1.2,3.7,2.7,7.3,3.6c2.8,0.7,4.7,3.1,4.7,6v10.5c0,0.9,0.7,1.6,1.6,1.6
				c0.8,0,1.5-0.3,2.1-0.9c0.6-0.6,0.9-1.3,0.9-2.1v-12c0-2.6-1-5-2.8-6.8c-0.2-0.3-0.2-0.7,0-0.9c0.3-0.2,0.7-0.2,0.9,0
				c2.1,2.1,3.2,4.8,3.2,7.7v12c0,1.1-0.4,2.2-1.2,3C42.4,36.1,41.3,36.5,40.2,36.5z"/>
			<path class="st0" d="M40.2,37.1c-1.9,0-3.5-1.6-3.5-3.5V23.1c0-2-1.4-3.7-3.3-4.2c-4.5-1.1-7.2-3-8.6-4.5
				c-0.5-0.5-0.5-1.2-0.1-1.7c2.2-2.5,5.4-3.9,8.7-3.9c2.1,0,4.2,0.6,6.1,1.7c0.5,0.3,0.7,1,0.5,1.6c0.5-0.4,1.2-0.4,1.7,0.1
				c2.2,2.2,3.4,5.1,3.4,8.1v12c0,1.3-0.5,2.5-1.4,3.4C42.7,36.6,41.5,37.1,40.2,37.1z M33.4,10c-3,0-5.8,1.3-7.8,3.5
				c1.4,1.4,3.9,3.2,8.1,4.2c2.5,0.6,4.2,2.8,4.2,5.3v10.5c0,1.3,1,2.3,2.3,2.3c1,0,1.9-0.4,2.5-1.1c0.7-0.7,1.1-1.6,1.1-2.5v-12
				c0-2.8-1.1-5.3-3-7.3c1.9,2,2.9,4.6,2.9,7.3v12c0,0.9-0.4,1.8-1,2.5c-0.7,0.7-1.5,1-2.5,1c-1.2,0-2.2-1-2.2-2.2V23.1
				c0-2.6-1.8-4.8-4.3-5.4c-3.8-0.9-6.2-2.5-7.5-3.7l-0.5-0.4l0.4-0.5C28.1,11.2,30.7,10.1,33.4,10c1.9,0.1,3.8,0.6,5.4,1.6
				C37.3,10.5,35.4,10,33.4,10z M27.5,13.5c1.3,1,3.4,2.3,6.5,3c3.1,0.7,5.2,3.4,5.2,6.6v10.5c0,0.6,0.4,1,1,1
				c0.6,0,1.2-0.2,1.6-0.7c0.4-0.4,0.7-1,0.7-1.6v-12c0-2.4-0.9-4.7-2.6-6.4c-0.4-0.4-0.5-1-0.2-1.4c-0.4,0.3-1,0.4-1.4,0.1
				c-1.4-0.9-3.1-1.4-4.8-1.4C31.3,11.3,29.1,12.1,27.5,13.5z"/>
		</g>
	</g>
	<g>
		<g>
			<path class="st0" d="M4.7,20.9c-2.3,0-4.1-1.9-4.1-4.1c0-2.3,1.9-4.1,4.1-4.1c0.3,0,0.6,0,0.9,0.1c0.2,0,0.3,0.2,0.4,0.3
				c0.1,0.2,0.1,0.4,0,0.5C6.1,13.8,6,13.9,6,14c-0.3,0.9-0.4,1.8-0.4,2.8v0c0,1.1,0.2,2.2,0.5,3.2c0.1,0.2,0,0.4-0.1,0.5
				c-0.1,0.2-0.2,0.3-0.4,0.3C5.4,20.9,5,20.9,4.7,20.9z M4.7,13.9c-1.6,0-2.8,1.3-2.8,2.8c0,1.6,1.3,2.8,2.8,2.8
				c-0.2-0.9-0.4-1.9-0.4-2.8l0,0C4.3,15.8,4.5,14.9,4.7,13.9z"/>
			<path class="st0" d="M4.7,21.5c-2.6,0-4.7-2.1-4.7-4.7s2.1-4.7,4.7-4.7c0.4,0,0.7,0,1.1,0.1c0.3,0.1,0.6,0.3,0.8,0.6
				c0.2,0.3,0.2,0.7,0.1,1c0,0.1-0.1,0.2-0.1,0.4c-0.2,0.8-0.4,1.7-0.4,2.6c0,1,0.2,2,0.5,3c0.1,0.3,0.1,0.7-0.1,1
				c-0.2,0.3-0.5,0.5-0.8,0.6C5.5,21.5,5.1,21.5,4.7,21.5z M4.7,13.3c-1.9,0-3.5,1.6-3.5,3.5s1.6,3.5,3.5,3.5c0.2,0,0.5,0,0.7-0.1
				l-0.8,0c-1.9,0-3.4-1.6-3.4-3.4C1.3,14.9,2.8,13.4,4.7,13.3l0.6,0.1C5.1,13.3,4.9,13.3,4.7,13.3z M5.5,13.4l-0.2,0.7
				c-0.2,0.9-0.3,1.8-0.3,2.7c0,0.9,0.1,1.8,0.3,2.7l0.2,0.8c0,0,0,0,0.1,0C5.2,19.1,5,18,5,16.8c0-1,0.1-2,0.4-2.9
				c0-0.1,0.1-0.3,0.1-0.4C5.5,13.4,5.5,13.4,5.5,13.4z M3.9,14.7c-0.8,0.3-1.4,1.1-1.4,2.1c0,1,0.6,1.8,1.4,2.1
				c-0.1-0.7-0.2-1.4-0.2-2.1C3.7,16.1,3.8,15.4,3.9,14.7z"/>
		</g>
	</g>
	<g>
		<g>
			<path class="st0" d="M16,28.4C16,28.4,15.9,28.4,16,28.4c-1,0-1.9-0.1-2.8-0.3c-0.2,0-0.4-0.2-0.4-0.4c0-0.1-0.1-0.1-0.1-0.2
				c-0.2-0.5-0.5-0.8-1-1c-0.5-0.2-1-0.2-1.4,0c0,0-0.1,0-0.1,0c-0.2,0.1-0.4,0.1-0.6,0c-3.3-2.2-5.2-5.8-5.2-9.7
				c0-1.1,0.1-2.1,0.4-3.1C5.5,10.9,8.1,9,11,9h10.6c0.7,0,1.3-0.2,1.8-0.5c0.3-0.2,0.6-0.1,0.8,0.1c1.2,1.2,2,2.7,2.3,4.7
				c0,0.2,0,0.4-0.2,0.6c-0.1,0.1-0.1,0.2-0.2,0.2c-1.5,1.8-2.4,4-2.4,6.4c0,1.2,0.2,2.4,0.6,3.5c0.1,0.2,0,0.4-0.1,0.6
				C22.3,27,19.3,28.4,16,28.4z M13.8,26.9c0.7,0.1,1.4,0.2,2.1,0.2c0,0,0.1,0,0.1,0c2.8,0,5.3-1.1,7.1-3.2
				c-0.4-1.1-0.6-2.3-0.6-3.6c0-2.7,1-5.2,2.7-7.2c0,0,0,0,0,0c-0.3-1.4-0.8-2.5-1.6-3.3c-0.6,0.3-1.3,0.5-2.1,0.5H11
				c-2.3,0-4.3,1.5-5,3.7c-0.3,0.9-0.4,1.8-0.4,2.8c0,3.4,1.6,6.5,4.4,8.5c0.7-0.2,1.5-0.2,2.2,0.1C13,25.7,13.5,26.2,13.8,26.9z"/>
			<path class="st0" d="M16,29l-0.1,0c-0.9,0-1.9-0.1-2.8-0.3c-0.4-0.1-0.7-0.4-0.8-0.7c0-0.1-0.1-0.2-0.1-0.2
				c-0.1-0.3-0.4-0.5-0.7-0.7c-0.3-0.1-0.6-0.1-1,0c-0.5,0.2-0.9,0.2-1.3-0.1c-3.4-2.3-5.5-6.1-5.5-10.2c0-1.1,0.1-2.2,0.4-3.3
				c0.8-3,3.6-5.1,6.8-5.1h10.6c0.5,0,1.1-0.2,1.5-0.4c0.5-0.3,1.1-0.2,1.5,0.2c1.3,1.3,2.1,2.9,2.5,5c0.1,0.4,0,0.8-0.3,1.1
				c-0.1,0.1-0.1,0.1-0.2,0.2c-1.5,1.7-2.2,3.8-2.2,6c0,1.1,0.2,2.2,0.6,3.2c0.2,0.4,0.1,0.9-0.2,1.2C22.7,27.5,19.5,29,16,29z
				 M11,25.8c0.3,0,0.7,0.1,1,0.2c0.6,0.3,1.1,0.7,1.3,1.3l0.1,0.2c0.9,0.2,1.7,0.3,2.6,0.3l0.1,0.6v-0.6c3.2,0,6-1.3,7.9-3.8
				c-0.4-1.2-0.7-2.5-0.7-3.7c0-2.5,0.9-4.9,2.5-6.8c0.1-0.1,0.1-0.2,0.2-0.2c-0.3-1.9-1-3.3-2.2-4.4c-0.7,0.4-1.4,0.6-2.2,0.6H11
				c-2.6,0-4.9,1.7-5.6,4.2c-0.3,1-0.4,2-0.4,3c0,3.7,1.9,7.1,5,9.2l0.2-0.1C10.4,25.8,10.7,25.8,11,25.8z M16,27.8l-0.1,0
				c-0.7,0-1.4-0.1-2.2-0.2l-0.3-0.1l-0.1-0.3c-0.3-0.6-0.7-1-1.3-1.3c-0.6-0.2-1.2-0.3-1.8-0.1l-0.3,0.1l-0.2-0.2
				C6.8,23.7,5,20.3,5,16.8c0-1,0.1-2,0.4-2.9c0.7-2.5,3-4.2,5.5-4.2h10.6c0.6,0,1.2-0.1,1.8-0.4L23.8,9l0.3,0.4
				c0.8,1,1.4,2.1,1.7,3.6l0.1,0.3l-0.2,0.2c-1.7,1.9-2.6,4.3-2.6,6.8c0,1.2,0.2,2.3,0.6,3.4l0.1,0.3l-0.2,0.3
				C21.7,26.5,19,27.8,16,27.8z M14.3,26.4c0.5,0.1,1.1,0.2,1.7,0.2c0,0,0,0,0,0c2.6,0,4.9-1,6.5-2.8c-0.3-1.1-0.5-2.3-0.5-3.4
				c0-2.7,0.9-5.3,2.7-7.4c-0.2-1-0.6-1.8-1.1-2.4c-0.6,0.2-1.2,0.3-1.9,0.3H11c-2,0-3.8,1.4-4.4,3.3c-0.2,0.9-0.4,1.7-0.4,2.6
				c0,3.1,1.5,6,3.9,7.8c0.8-0.2,1.6-0.1,2.3,0.2C13.2,25.1,13.9,25.7,14.3,26.4z"/>
		</g>
	</g>
</g>
</svg>
