<?xml version="1.0" encoding="utf-8"?>
<!-- Generator: Adobe Illustrator 26.5.0, SVG Export Plug-In . SVG Version: 6.00 Build 0)  -->
<svg version="1.1" id="icons" xmlns="http://www.w3.org/2000/svg" xmlns:xlink="http://www.w3.org/1999/xlink" x="0px" y="0px"
	 width="50px" height="50px" viewBox="0 0 50 50" style="enable-background:new 0 0 50 50;" xml:space="preserve">
<style type="text/css">
	.st0{fill:#4F4F60;}
	.st1{fill:#61C9E5;}
	.st2{fill:#925C4C;}
	.st3{fill:#A9725E;}
	.st4{fill:#353544;}
	.st5{fill:#A1EDFF;}
	.st6{fill:#FDE05E;}
	.st7{fill:#724237;}
</style>
<path class="st0" d="M3.4,0h24.1C29.5,0,31,1.5,31,3.4v43.1c0,1.9-1.5,3.4-3.4,3.4H3.4C1.5,50,0,48.5,0,46.6V3.4C0,1.5,1.5,0,3.4,0z
	"/>
<path class="st1" d="M27.6,4.3v41.4c0,0.5-0.4,0.9-0.9,0.9H4.3c-0.5,0-0.9-0.4-0.9-0.9V4.3c0-0.5,0.4-0.9,0.9-0.9h2.6
	c0.5,0,0.9,0.4,0.9,0.9v0.9c0,1,0.8,1.7,1.7,1.7h12.1c1,0,1.7-0.8,1.7-1.7V4.3c0-0.5,0.4-0.9,0.9-0.9h2.6
	C27.2,3.4,27.6,3.8,27.6,4.3z"/>
<path class="st2" d="M17.2,15.5c0-1.9,1.5-3.4,3.4-3.4h24.1c1,0,1.7,0.8,1.7,1.7v6H17.2V15.5z"/>
<path class="st3" d="M48.3,33.6v6c0,1-0.8,1.7-1.7,1.7H20.7c-1.9,0-3.4-1.5-3.4-3.4V15.5c0,1.9,1.5,3.4,3.4,3.4h25.9
	c1,0,1.7,0.8,1.7,1.7V33.6z"/>
<path class="st2" d="M44.8,26.7h3.4c1,0,1.7,0.8,1.7,1.7v3.4c0,1-0.8,1.7-1.7,1.7h-3.4c-1.4,0-2.6-1.2-2.6-2.6v-1.7
	C42.2,27.9,43.4,26.7,44.8,26.7z"/>
<path class="st4" d="M12.9,4.3h-0.9c-0.5,0-0.9-0.4-0.9-0.9s0.4-0.9,0.9-0.9h0.9c0.5,0,0.9,0.4,0.9,0.9S13.4,4.3,12.9,4.3z"/>
<path class="st5" d="M6.9,12.9c-0.5,0-0.9-0.4-0.9-0.9c0-0.2,0.1-0.4,0.3-0.6L8,9.7c0.3-0.3,0.9-0.3,1.2,0c0.3,0.3,0.3,0.9,0,1.2
	l-1.7,1.7C7.3,12.8,7.1,12.9,6.9,12.9z"/>
<path class="st5" d="M6.9,18.1c-0.5,0-0.9-0.4-0.9-0.9c0-0.2,0.1-0.4,0.3-0.6l6.9-6.9c0.3-0.3,0.9-0.3,1.2,0c0.3,0.3,0.3,0.9,0,1.2
	l-6.9,6.9C7.3,18,7.1,18.1,6.9,18.1L6.9,18.1z"/>
<path class="st4" d="M19,4.3h-2.6c-0.5,0-0.9-0.4-0.9-0.9s0.4-0.9,0.9-0.9H19c0.5,0,0.9,0.4,0.9,0.9S19.4,4.3,19,4.3z"/>
<path class="st6" d="M46.6,31h-0.9c-0.5,0-0.9-0.4-0.9-0.9c0-0.5,0.4-0.9,0.9-0.9h0.9c0.5,0,0.9,0.4,0.9,0.9
	C47.4,30.6,47,31,46.6,31z"/>
<path class="st7" d="M42.2,16.4H21.6c-0.5,0-0.9-0.4-0.9-0.9c0-0.5,0.4-0.9,0.9-0.9h20.7c0.5,0,0.9,0.4,0.9,0.9
	C43.1,16,42.7,16.4,42.2,16.4z"/>
</svg>
