<?xml version="1.0" encoding="utf-8"?>
<!-- Generator: Adobe Illustrator 26.5.0, SVG Export Plug-In . SVG Version: 6.00 Build 0)  -->
<svg version="1.1" id="svg639" xmlns:svg="http://www.w3.org/2000/svg"
	 xmlns="http://www.w3.org/2000/svg" xmlns:xlink="http://www.w3.org/1999/xlink" x="0px" y="0px" width="45px" height="45px"
	 viewBox="0 0 45 45" style="enable-background:new 0 0 45 45;" xml:space="preserve">
<style type="text/css">
	.st0{fill:#770B34;}
</style>
<g id="g649">
	<g id="g655" transform="translate(181.4814,321.4526)">
		<g id="path657">
			<path class="st0" d="M-159-297.5c-4,0-7.4-3-7.9-7c0,0,0,0,0,0c0-0.3-0.1-0.6-0.1-0.9v-4.1c0-0.7,0.6-1.3,1.3-1.3h1.3
				c2.2,0,4-1.8,4-4c0-0.7,0.6-1.3,1.3-1.3s1.3,0.6,1.3,1.3c0,2.2,1.8,4,4,4h1.3c0.7,0,1.3,0.6,1.3,1.3v4.1
				C-151.1-301.1-154.6-297.5-159-297.5z M-164.2-304.9c0.3,2.7,2.6,4.7,5.2,4.7c2.9,0,5.3-2.4,5.3-5.3v-2.8c-2.2,0-4.1-1-5.3-2.6
				c-1.2,1.6-3.1,2.6-5.3,2.6v2.8C-164.3-305.3-164.2-305.1-164.2-304.9L-164.2-304.9z"/>
		</g>
	</g>
	<g id="g659" transform="translate(160.2305,198.6921)">
		<g id="path661">
			<path class="st0" d="M-129.3-169.8c-0.5,0-1-0.3-1.2-0.9c-0.3-0.7,0.1-1.4,0.8-1.7c1.5-0.6,2.6-2.1,2.6-3.7v-9.3
				c0-5.9-4.7-10.6-10.5-10.6c-5.8,0-10.5,4.8-10.5,10.6v9.3c0,1.6,1,3.1,2.6,3.7c0.7,0.3,1,1,0.8,1.7c-0.3,0.7-1,1-1.7,0.8
				c-2.6-1-4.3-3.4-4.3-6.2v-9.3c0-3.5,1.4-6.8,3.9-9.4c2.5-2.5,5.8-3.9,9.3-3.9c3.5,0,6.8,1.4,9.3,3.9c2.5,2.5,3.9,5.8,3.9,9.4v9.3
				c0,2.7-1.7,5.2-4.3,6.2C-129-169.9-129.2-169.8-129.3-169.8z"/>
		</g>
	</g>
	<g id="g663" transform="translate(286,261.2407)">
		<g id="path665">
			<path class="st0" d="M-247.7-216.2h-31.6c-0.7,0-1.3-0.6-1.3-1.3v-9.6c0-2.7,1.6-5.1,4.1-6.1l9-3.6v-2.3c0-0.7,0.6-1.3,1.3-1.3
				c0.7,0,1.3,0.6,1.3,1.3v3.2c0,0.5-0.3,1-0.8,1.2l-9.9,3.9c-1.5,0.6-2.5,2-2.5,3.7v8.3h29v-8.3c0-1.6-1-3.1-2.5-3.7l-9.9-3.9
				c-0.5-0.2-0.8-0.7-0.8-1.2v-3.2c0-0.7,0.6-1.3,1.3-1.3c0.7,0,1.3,0.6,1.3,1.3v2.3l9,3.6c2.5,1,4.1,3.4,4.1,6.1v9.6
				C-246.4-216.8-247-216.2-247.7-216.2z"/>
		</g>
	</g>
	<g id="g667" transform="translate(202.3154,215.5264)">
		<g id="path669">
			<path class="st0" d="M-179.8-181.1c-0.4,0-0.9-0.2-1.1-0.6l-4.7-7.1c-0.4-0.6-0.2-1.4,0.4-1.8c0.6-0.4,1.4-0.2,1.8,0.4l3.6,5.4
				l3.6-5.4c0.4-0.6,1.2-0.8,1.8-0.4c0.6,0.4,0.8,1.2,0.4,1.8l-4.7,7.1C-179-181.3-179.4-181.1-179.8-181.1z"/>
		</g>
	</g>
	<g id="g671" transform="translate(166,201)">
		<g id="path673">
			<path class="st0" d="M-151.4-166.5c-0.7,0-1.3-0.6-1.3-1.3v-5.8c0-0.7,0.6-1.3,1.3-1.3c0.7,0,1.3,0.6,1.3,1.3v5.8
				C-150.1-167.1-150.7-166.5-151.4-166.5z"/>
		</g>
	</g>
	<g id="g675" transform="translate(346,201)">
		<g id="path677">
			<path class="st0" d="M-315.6-166.5c-0.7,0-1.3-0.6-1.3-1.3v-5.8c0-0.7,0.6-1.3,1.3-1.3s1.3,0.6,1.3,1.3v5.8
				C-314.3-167.1-314.9-166.5-315.6-166.5z"/>
		</g>
	</g>
	<g id="g679" transform="translate(316,75)">
		<g id="path681">
			<path class="st0" d="M-283-35.3c-0.7,0-1.3-0.6-1.3-1.3v-2.6c0-0.7-0.6-1.3-1.3-1.3c-0.7,0-1.3,0.6-1.3,1.3v2.6
				c0,0.7-0.6,1.3-1.3,1.3c-0.7,0-1.3-0.6-1.3-1.3v-2.6c0-2.2,1.8-4,4-4c2.2,0,4,1.8,4,4v2.6C-281.6-35.9-282.2-35.3-283-35.3z"/>
		</g>
	</g>
	<g id="g683" transform="translate(196,105)">
		<g id="path685">
			<path class="st0" d="M-181.4-65.3c-2.2,0-4-1.8-4-4c0-2.2,1.8-4,4-4c2.2,0,4,1.8,4,4C-177.5-67-179.2-65.3-181.4-65.3z
				 M-181.4-70.5c-0.7,0-1.3,0.6-1.3,1.3c0,0.7,0.6,1.3,1.3,1.3c0.7,0,1.3-0.6,1.3-1.3C-180.1-70-180.7-70.5-181.4-70.5z"/>
		</g>
	</g>
</g>
</svg>
