<?xml version="1.0" encoding="utf-8"?>
<!-- Generator: Adobe Illustrator 26.5.0, SVG Export Plug-In . SVG Version: 6.00 Build 0)  -->
<svg version="1.1" id="Capa_1" xmlns="http://www.w3.org/2000/svg" xmlns:xlink="http://www.w3.org/1999/xlink" x="0px" y="0px"
	 width="45px" height="45px" viewBox="0 0 45 45" style="enable-background:new 0 0 45 45;" xml:space="preserve">
<style type="text/css">
	.st0{fill:#1B6005;}
</style>
<g>
	<g>
		<path class="st0" d="M22.5,15.5c-4.1,0-7.4-3.3-7.4-7.4s3.3-7.4,7.4-7.4c4.1,0,7.4,3.3,7.4,7.4S26.6,15.5,22.5,15.5z M22.5,3.4
			c-2.6,0-4.7,2.1-4.7,4.7s2.1,4.7,4.7,4.7c2.6,0,4.7-2.1,4.7-4.7S25.1,3.4,22.5,3.4z"/>
	</g>
	<g>
		<path class="st0" d="M12.2,34.3c-0.6,0-1.1-0.1-1.7-0.3L3,31.6c-1.1-0.4-2-1.1-2.5-2.2c-0.5-1-0.6-2.2-0.3-3.3
			c0.4-1.1,1.1-2,2.2-2.5c1-0.5,2.2-0.6,3.3-0.3l3.5,1.1c0.9-6.6,6.5-11.6,13.3-11.6c0.7,0,1.3,0.6,1.3,1.3c0,0.7-0.6,1.3-1.3,1.3
			c-2.6,0-4.7,2.1-4.7,4.7v8.6c0,1.8-0.8,3.4-2.3,4.5C14.5,34,13.4,34.3,12.2,34.3z M4.3,25.8c-0.3,0-0.5,0.1-0.8,0.2
			c-0.4,0.2-0.7,0.6-0.8,1c-0.1,0.4-0.1,0.9,0.1,1.3s0.6,0.7,1,0.8l7.5,2.5c0.9,0.3,1.8,0.1,2.6-0.4c0.7-0.5,1.2-1.4,1.2-2.3v-8.6
			c0-0.7,0.1-1.4,0.3-2.1c-2.3,2-3.7,4.9-3.7,8.1c0,0.4-0.2,0.8-0.5,1.1c-0.3,0.2-0.8,0.3-1.2,0.2l-5.1-1.7
			C4.7,25.8,4.5,25.8,4.3,25.8z"/>
	</g>
	<g>
		<path class="st0" d="M32.8,34.3c-1.2,0-2.3-0.4-3.2-1.1c-1.4-1-2.3-2.7-2.3-4.5v-8.6c0-2.6-2.1-4.7-4.7-4.7
			c-0.7,0-1.3-0.6-1.3-1.3c0-0.7,0.6-1.3,1.3-1.3c6.8,0,12.4,5.1,13.3,11.6l3.5-1.1c1.1-0.4,2.3-0.3,3.3,0.3c1,0.5,1.8,1.4,2.2,2.5
			c0.4,1.1,0.3,2.3-0.3,3.3c-0.5,1-1.4,1.8-2.5,2.2l-7.5,2.5C33.9,34.3,33.3,34.3,32.8,34.3z M29.6,18.1c0.2,0.7,0.3,1.4,0.3,2.1
			v8.6c0,0.9,0.4,1.8,1.2,2.3c0.7,0.5,1.7,0.7,2.6,0.4l7.5-2.5c0.4-0.1,0.8-0.4,1-0.8c0.2-0.4,0.2-0.9,0.1-1.3
			c-0.1-0.4-0.4-0.8-0.8-1c-0.4-0.2-0.9-0.2-1.3-0.1L35,27.5c-0.4,0.1-0.8,0.1-1.2-0.2c-0.3-0.2-0.5-0.6-0.5-1.1
			C33.3,23,31.8,20.1,29.6,18.1z"/>
	</g>
	<g>
		<path class="st0" d="M31.6,44.2H9.6c-3.6,0-6.6-3-6.6-6.6c0-2.1,1-3.9,2.6-5.2c1.7-1.2,3.7-1.5,5.7-0.9l17.4,5.7
			c2.5,0.8,4.1,3.1,4.1,5.7C32.9,43.7,32.3,44.2,31.6,44.2z M9.4,33.9c-0.8,0-1.5,0.2-2.2,0.7c-1,0.7-1.5,1.8-1.5,3c0,2.2,1.8,4,4,4
			H30c-0.4-0.9-1.1-1.6-2.1-1.9l-17.4-5.7C10.2,34,9.8,33.9,9.4,33.9z"/>
	</g>
	<g>
		<path class="st0" d="M35.4,44.2h-3.8c-0.7,0-1.3-0.6-1.3-1.3c0-1.5-0.9-2.7-2.3-3.2l-5.8-1.9c-0.5-0.2-0.9-0.7-0.9-1.3
			s0.4-1.1,0.9-1.3l11.5-3.8h0c2-0.6,4-0.3,5.7,0.9c1.7,1.2,2.6,3.1,2.6,5.2C42,41.3,39,44.2,35.4,44.2z M32.8,41.6h2.6
			c2.2,0,4-1.8,4-4c0-1.2-0.6-2.3-1.5-3c-1-0.7-2.2-0.9-3.3-0.5l-7.7,2.5l2,0.6C30.8,37.9,32.3,39.6,32.8,41.6z"/>
	</g>
</g>
</svg>
