<?xml version="1.0" encoding="utf-8"?>
<!-- Generator: Adobe Illustrator 26.5.0, SVG Export Plug-In . SVG Version: 6.00 Build 0)  -->
<svg version="1.1" id="Layer_1" xmlns="http://www.w3.org/2000/svg" xmlns:xlink="http://www.w3.org/1999/xlink" x="0px" y="0px"
	 width="50px" height="50px" viewBox="0 0 50 50" style="enable-background:new 0 0 50 50;" xml:space="preserve">
<style type="text/css">
	.st0{fill:#46508C;}
	.st1{fill:#73CDDC;}
	.st2{fill:#5F78BE;}
	.st3{fill:#FAA51E;}
	.st4{fill:#F06423;}
</style>
<g>
	<g>
		<path class="st0" d="M1.8,16.1h46.4v28.6H1.8V16.1z"/>
	</g>
	<g>
		<path class="st1" d="M50,16.1H0v-3.6c0-1,0.8-1.8,1.8-1.8h46.4c1,0,1.8,0.8,1.8,1.8V16.1z"/>
	</g>
	<g>
		<path class="st2" d="M48.2,50H1.8c-1,0-1.8-0.8-1.8-1.8v-3.6h50v3.6C50,49.2,49.2,50,48.2,50z"/>
	</g>
	<g>
		<path class="st1" d="M21.6,0.9L3.6,10.7h42.9L28.4,0.9C27.3,0.3,26.2,0,25,0S22.7,0.3,21.6,0.9L21.6,0.9z"/>
	</g>
	<g>
		<path class="st2" d="M23.3,4L12.8,9.7c-0.2,0.1-0.3,0.3-0.3,0.5c0,0.3,0.3,0.6,0.6,0.6h23.9c0.3,0,0.6-0.3,0.6-0.6
			c0-0.2-0.1-0.4-0.3-0.5L26.7,4c-0.5-0.3-1.1-0.4-1.7-0.4S23.8,3.7,23.3,4z"/>
	</g>
	<g>
		<g>
			<path class="st2" d="M1.8,19.6h5.4v21.4H1.8V19.6z"/>
		</g>
		<g>
			<path class="st1" d="M4.5,41.1H1.8V21.4h0.9c1,0,1.8,0.8,1.8,1.8V41.1z"/>
		</g>
		<g>
			<path class="st2" d="M7.1,19.6H1.8c-1,0-1.8-0.8-1.8-1.8v-1.8h8.9v1.8C8.9,18.8,8.1,19.6,7.1,19.6z"/>
		</g>
		<g>
			<path class="st1" d="M8.9,44.6H0v-1.8c0-1,0.8-1.8,1.8-1.8h5.4c1,0,1.8,0.8,1.8,1.8V44.6z"/>
		</g>
	</g>
	<g>
		<g>
			<path class="st2" d="M42.9,19.6h5.4v21.4h-5.4V19.6z"/>
		</g>
		<g>
			<path class="st1" d="M45.5,41.1h-2.7V21.4h0.9c1,0,1.8,0.8,1.8,1.8V41.1z"/>
		</g>
		<g>
			<path class="st2" d="M48.2,19.6h-5.4c-1,0-1.8-0.8-1.8-1.8v-1.8H50v1.8C50,18.8,49.2,19.6,48.2,19.6z"/>
		</g>
		<g>
			<path class="st1" d="M50,44.6h-8.9v-1.8c0-1,0.8-1.8,1.8-1.8h5.4c1,0,1.8,0.8,1.8,1.8V44.6z"/>
		</g>
	</g>
	<g>
		<g>
			<path class="st2" d="M15.5,19.6h5.4v21.4h-5.4V19.6z"/>
		</g>
		<g>
			<path class="st1" d="M18.2,41.1h-2.7V21.4h0.9c1,0,1.8,0.8,1.8,1.8V41.1z"/>
		</g>
		<g>
			<path class="st2" d="M20.8,19.6h-5.4c-1,0-1.8-0.8-1.8-1.8v-1.8h8.9v1.8C22.6,18.8,21.8,19.6,20.8,19.6z"/>
		</g>
		<g>
			<path class="st1" d="M22.6,44.6h-8.9v-1.8c0-1,0.8-1.8,1.8-1.8h5.4c1,0,1.8,0.8,1.8,1.8V44.6z"/>
		</g>
	</g>
	<g>
		<g>
			<path class="st2" d="M29.2,19.6h5.4v21.4h-5.4V19.6z"/>
		</g>
		<g>
			<path class="st1" d="M31.8,41.1h-2.7V21.4h0.9c1,0,1.8,0.8,1.8,1.8V41.1z"/>
		</g>
		<g>
			<path class="st2" d="M34.5,19.6h-5.4c-1,0-1.8-0.8-1.8-1.8v-1.8h8.9v1.8C36.3,18.8,35.5,19.6,34.5,19.6z"/>
		</g>
		<g>
			<path class="st1" d="M36.3,44.6h-8.9v-1.8c0-1,0.8-1.8,1.8-1.8h5.4c1,0,1.8,0.8,1.8,1.8V44.6z"/>
		</g>
	</g>
	<g>
		<g>
			<g>
				<circle class="st3" cx="25" cy="30.4" r="9.8"/>
			</g>
			<g>
				<path class="st4" d="M25,21.4c4.9,0,8.9,4,8.9,8.9s-4,8.9-8.9,8.9s-8.9-4-8.9-8.9S20.1,21.4,25,21.4 M25,19.6
					c-5.9,0-10.7,4.8-10.7,10.7S19.1,41.1,25,41.1s10.7-4.8,10.7-10.7S30.9,19.6,25,19.6z"/>
			</g>
		</g>
		<path class="st4" d="M27.7,29.5c0.5,0,0.9-0.4,0.9-0.9V28c0-1.5-1.2-2.8-2.7-3v-0.9c0-0.5-0.4-0.9-0.9-0.9s-0.9,0.4-0.9,0.9V25
			c-1.5,0.1-2.7,1.4-2.7,3c0,1.3,0.8,2.4,2,2.8l2.5,0.8c0.5,0.2,0.8,0.6,0.8,1.1c0,0.7-0.5,1.2-1.2,1.2h-1.2c-0.7,0-1.2-0.5-1.2-1.2
			v-0.6c0-0.5-0.4-0.9-0.9-0.9s-0.9,0.4-0.9,0.9v0.6c0,1.5,1.2,2.8,2.7,3v0.9c0,0.5,0.4,0.9,0.9,0.9s0.9-0.4,0.9-0.9v-0.9
			c1.5-0.1,2.7-1.4,2.7-3c0-1.3-0.8-2.4-2-2.8L24,29.1c-0.5-0.2-0.8-0.6-0.8-1.1c0-0.7,0.5-1.2,1.2-1.2h1.2c0.7,0,1.2,0.5,1.2,1.2
			v0.6C26.8,29.1,27.2,29.5,27.7,29.5z"/>
	</g>
</g>
</svg>
