<?xml version="1.0" encoding="utf-8"?>
<!-- Generator: Adobe Illustrator 26.5.0, SVG Export Plug-In . SVG Version: 6.00 Build 0)  -->
<svg version="1.1" id="Layer_1" xmlns="http://www.w3.org/2000/svg" xmlns:xlink="http://www.w3.org/1999/xlink" x="0px" y="0px"
	 width="65px" height="65px" viewBox="0 0 65 65" style="enable-background:new 0 0 65 65;" xml:space="preserve">
<style type="text/css">
	.st0{fill:#EDEDEF;}
	.st1{fill-rule:evenodd;clip-rule:evenodd;fill:#4DC1F7;}
	.st2{fill-rule:evenodd;clip-rule:evenodd;fill:#F5F8F9;}
	.st3{fill:#0593FC;}
	.st4{fill:#33CC33;}
	.st5{fill-rule:evenodd;clip-rule:evenodd;fill:#FFD23B;}
	.st6{fill-rule:evenodd;clip-rule:evenodd;fill:#FF5178;}
	.st7{fill-rule:evenodd;clip-rule:evenodd;fill:#E6496C;}
	.st8{fill-rule:evenodd;clip-rule:evenodd;fill:#FBBD80;}
	.st9{fill-rule:evenodd;clip-rule:evenodd;fill:#E2AA73;}
	.st10{fill-rule:evenodd;clip-rule:evenodd;fill:#FF4155;}
	.st11{fill-rule:evenodd;clip-rule:evenodd;fill:#DDDFE0;}
	.st12{fill-rule:evenodd;clip-rule:evenodd;fill:#E6BD35;}
</style>
<path class="st0" d="M50.2,60.9c6.1-3.7,11.3-9,13.3-14.9c2.2-6.5-1.5-11.9-8.1-13.9c-2.9-0.9-6.3-1-9.3-1.7
	c-3.3-0.8-4.7-2.7-5.5-5.5c-1.7-6.1-4-12.2-11.1-14.8c-3.1-1.2-7-1.5-10.7-0.4C14.4,11,10.8,13.8,8,17c-3,3.4-5.9,7.8-6.6,12
	c-1.2,3.7-1.6,7.5-1.3,11.2C0.3,43.7,3.3,56.5,13,61.5C24.5,67.4,43.5,65,50.2,60.9z"/>
<g>
	<path class="st1" d="M40,50c13.8,0,25-11.2,25-25C65,11.2,53.8,0,40,0C26.2,0,15,11.2,15,25C15,38.8,26.2,50,40,50z"/>
	<path class="st2" d="M26.4,10.7h18.2c1.2,0,2.2,1,2.2,2.2v27c0,1.2-1,2.2-2.2,2.2H26.4c-1.2,0-2.2-1-2.2-2.2v-27
		C24.2,11.7,25.2,10.7,26.4,10.7z"/>
	<path class="st3" d="M29.5,8.5c0-0.3,0.2-0.5,0.5-0.5c0.3,0,0.5,0.2,0.5,0.5v4.3c0,0.3-0.2,0.5-0.5,0.5c-0.3,0-0.5-0.2-0.5-0.5V8.5
		z"/>
	<path class="st3" d="M33.2,8.5c0-0.3,0.2-0.5,0.5-0.5c0.3,0,0.5,0.2,0.5,0.5v4.3c0,0.3-0.2,0.5-0.5,0.5c-0.3,0-0.5-0.2-0.5-0.5V8.5
		z"/>
	<path class="st3" d="M36.8,8.5c0-0.3,0.2-0.5,0.5-0.5c0.3,0,0.5,0.2,0.5,0.5v4.3c0,0.3-0.2,0.5-0.5,0.5c-0.3,0-0.5-0.2-0.5-0.5V8.5
		z"/>
	<path class="st3" d="M40.5,8.5c0-0.3,0.2-0.5,0.5-0.5c0.3,0,0.5,0.2,0.5,0.5v4.3c0,0.3-0.2,0.5-0.5,0.5c-0.3,0-0.5-0.2-0.5-0.5V8.5
		z"/>
	<path class="st4" d="M34.5,19c-0.3,0-0.5-0.2-0.5-0.5c0-0.3,0.2-0.5,0.5-0.5h8.6c0.3,0,0.5,0.2,0.5,0.5c0,0.3-0.2,0.5-0.5,0.5H34.5
		z"/>
	<path class="st4" d="M34.5,24.3c-0.3,0-0.5-0.2-0.5-0.5c0-0.3,0.2-0.5,0.5-0.5h8.6c0.3,0,0.5,0.2,0.5,0.5c0,0.3-0.2,0.5-0.5,0.5
		H34.5z"/>
	<path class="st4" d="M27.9,29.6c-0.3,0-0.5-0.2-0.5-0.5c0-0.3,0.2-0.5,0.5-0.5h15.2c0.3,0,0.5,0.2,0.5,0.5c0,0.3-0.2,0.5-0.5,0.5
		H27.9z"/>
	<path class="st4" d="M27.9,34.9c-0.3,0-0.5-0.2-0.5-0.5c0-0.3,0.2-0.5,0.5-0.5h15.2c0.3,0,0.5,0.2,0.5,0.5c0,0.3-0.2,0.5-0.5,0.5
		H27.9z"/>
	<g>
		<path class="st5" d="M52.7,13.6h1.8c0.7,0,1.3,0.6,1.3,1.3v20.8l-2.2,3.6l-2.2-3.6V14.9C51.4,14.2,52,13.6,52.7,13.6L52.7,13.6z"
			/>
		<path class="st6" d="M52.7,13.6h1.8c0.7,0,1.3,0.6,1.3,1.3v2.2h-4.4v-2.2C51.4,14.2,52,13.6,52.7,13.6L52.7,13.6z"/>
		<path class="st7" d="M52.7,13.6H54c-0.7,0-1.3,0.6-1.3,1.3v2.2h-1.3v-2.2C51.4,14.2,52,13.6,52.7,13.6L52.7,13.6z"/>
		<path class="st8" d="M53.6,39.2l2.2-3.6h-4.4L53.6,39.2z"/>
		<path class="st9" d="M53.6,39.2l0.7-1.1l-1.5-2.5h-1.3L53.6,39.2z"/>
		<path class="st10" d="M32.4,21.5l-3.8,2.2c-0.1,0.1-0.3,0.1-0.4,0s-0.2-0.2-0.2-0.4v-4.4c0-0.2,0.1-0.3,0.2-0.4s0.3-0.1,0.4,0
			l3.8,2.2c0.1,0.1,0.2,0.2,0.2,0.4C32.6,21.3,32.5,21.4,32.4,21.5L32.4,21.5z"/>
		<path class="st11" d="M26.4,10.7h2c-1.2,0-2.2,1-2.2,2.2v27c0,1.2,1,2.2,2.2,2.2h-2c-1.2,0-2.2-1-2.2-2.2v-27
			C24.2,11.7,25.2,10.7,26.4,10.7z"/>
		<path class="st12" d="M52.7,17.1v18.6h-1.3V14.9v2.2H52.7z"/>
	</g>
</g>
</svg>
