<?xml version="1.0" encoding="utf-8"?>
<!-- Generator: Adobe Illustrator 26.5.0, SVG Export Plug-In . SVG Version: 6.00 Build 0)  -->
<svg version="1.1" id="Layer_1" xmlns="http://www.w3.org/2000/svg" xmlns:xlink="http://www.w3.org/1999/xlink" x="0px" y="0px"
	 width="65px" height="65px" viewBox="0 0 65 65" style="enable-background:new 0 0 65 65;" xml:space="preserve">
<style type="text/css">
	.st0{fill:#EDEDEF;}
	.st1{fill:#5E5EEF;}
	.st2{opacity:0.3;}
	.st3{fill:#FFFFFF;}
	.st4{fill:#4242E5;}
	.st5{fill:#E4E3FF;}
	.st6{fill:#5BC658;}
	.st7{fill:#49A247;}
	.st8{fill:#474646;}
	.st9{fill:#2D2C2C;}
	.st10{opacity:0.2;}
	.st11{fill:#1B1B1B;}
	.st12{fill:#F9B938;}
	.st13{fill:#ECB021;}
</style>
<path class="st0" d="M50.2,60.9c6.1-3.7,11.3-9,13.3-14.9c2.2-6.5-1.5-11.9-8.1-13.9c-2.9-0.9-6.3-1-9.3-1.7
	c-3.3-0.8-4.7-2.7-5.5-5.5c-1.7-6.1-4-12.2-11.1-14.8c-3.1-1.2-7-1.5-10.7-0.4C14.4,11,10.8,13.8,8,17c-3,3.4-5.9,7.8-6.6,12
	c-1.2,3.7-1.6,7.5-1.3,11.2C0.3,43.7,3.3,56.5,13,61.5C24.5,67.4,43.5,65,50.2,60.9z"/>
<g id="_x37_5">
	<g>
		<path class="st1" d="M65,13.9v21.9c0,2.5-2.1,4.6-4.6,4.6h-21L31,46.6c-0.5,0.4-1.2,0-1.2-0.6v-5.6h-2.3c-2.5,0-4.6-2.1-4.6-4.6
			V13.9c0-2.5,2.1-4.6,5.9-4.6h32.9C62.9,9.2,65,11.3,65,13.9z"/>
	</g>
	<g class="st2">
		<g>
			<path class="st3" d="M46.9,12.3h-0.8c-0.5,0-0.8-0.4-0.8-0.8s0.4-0.8,0.8-0.8h0.8c0.5,0,0.8,0.4,0.8,0.8S47.3,12.3,46.9,12.3z"/>
		</g>
		<g>
			<path class="st3" d="M57.9,12.3h-7.6c-0.5,0-0.8-0.4-0.8-0.8s0.4-0.8,0.8-0.8h7.6c0.5,0,0.8,0.4,0.8,0.8S58.4,12.3,57.9,12.3z"/>
		</g>
	</g>
	<g class="st2">
		<g>
			<path class="st3" d="M25.2,32.9c-0.5,0-0.8-0.4-0.8-0.8V27c0-0.5,0.4-0.8,0.8-0.8c0.5,0,0.8,0.4,0.8,0.8v5.1
				C26,32.5,25.6,32.9,25.2,32.9z"/>
		</g>
		<g>
			<path class="st3" d="M25.2,24.5c-0.5,0-0.8-0.4-0.8-0.8v-0.9c0-0.5,0.4-0.8,0.8-0.8c0.5,0,0.8,0.4,0.8,0.8v0.9
				C26,24.2,25.6,24.5,25.2,24.5z"/>
		</g>
	</g>
	<g>
		<path class="st4" d="M65,13.9v21.9c0,2.5-2.1,4.6-4.6,4.6h-21L31,46.6c-0.5,0.4-1.2,0-1.2-0.6v-1.5l7.3-5.4
			c0.2-0.2,0.5-0.3,0.9-0.3h20.5c2.5,0,4.6-2.1,4.6-4.6V12.3c0-1-0.3-1.9-0.8-2.6C63.9,10.4,65,12,65,13.9z"/>
	</g>
	<g>
		<path class="st3" d="M27.3,33.1V16.5c0-1.5,1.3-2.8,4.1-2.8H58c1.3,0,2.6,1.3,2.6,2.8v16.7c0,1.5-1.3,2.8-2.8,2.8H30.1
			C28.6,35.9,27.3,34.7,27.3,33.1z"/>
	</g>
	<g>
		<path class="st5" d="M60.6,16.5v16.7c0,1.6-1.3,2.8-2.8,2.8H30.1c-1.3,0-2.3-0.8-2.7-1.9c0.2,0,0.3,0,0.5,0h27.6
			c1.5,0,2.8-1.3,2.8-2.8V14.6c0-0.3,0-0.6-0.1-0.8C59.6,14,60.6,15.1,60.6,16.5z"/>
	</g>
	<g>
		<path class="st6" d="M51.1,24c0,4-3.2,7.2-7.2,7.2c-4,0-7.2-3.2-7.2-7.2c0-4,3.2-7.2,7.2-7.2C47.9,16.8,51.1,20,51.1,24z"/>
	</g>
	<g class="st2">
		<g>
			<path class="st3" d="M38.6,24.2C38.6,24.2,38.6,24.2,38.6,24.2c-0.3,0-0.5-0.2-0.4-0.5c0.1-1.8,0.9-3.4,2.4-4.4
				c0.2-0.1,0.5-0.1,0.6,0.1c0.1,0.2,0.1,0.5-0.1,0.6c-1.2,0.9-1.9,2.3-2,3.8C39.1,24.1,38.9,24.2,38.6,24.2z"/>
		</g>
	</g>
	<g class="st2">
		<g>
			<path class="st3" d="M42.4,18.9c-0.1-0.2,0.1-0.5,0.3-0.5c0.4-0.1,0.7-0.1,1.1-0.1c0.2,0,0.5,0.2,0.5,0.4c0,0.2-0.2,0.5-0.4,0.5
				c-0.3,0-0.6,0-0.9,0.1C42.7,19.3,42.4,19.1,42.4,18.9z"/>
		</g>
	</g>
	<g>
		<path class="st7" d="M51.1,24c0,4-3.2,7.2-7.2,7.2c-2.4,0-4.5-1.2-5.8-3c1.2,1,2.8,1.5,4.4,1.5c4,0,7.2-3.2,7.2-7.2
			c0-1.6-0.5-3-1.3-4.2C50.1,19.7,51.1,21.7,51.1,24z"/>
	</g>
	<g>
		<path class="st3" d="M46.9,25l-3.1,2.2c-0.8,0.6-1.9,0-1.9-1v-4.4c0-1,1.1-1.6,1.9-1l3.1,2.2C47.6,23.5,47.6,24.5,46.9,25z"/>
	</g>
	<g>
		<path class="st5" d="M46.9,25l-3.1,2.2c-0.7,0.5-1.8,0.1-1.9-0.8c0.4,0.2,0.9,0.2,1.3-0.1l3.1-2.2c0.4-0.3,0.6-0.8,0.5-1.2
			l0.1,0.1C47.6,23.5,47.6,24.5,46.9,25z"/>
	</g>
	<g>
		<path class="st8" d="M37.3,1.3l2.9,6.9c0.4,0.9,0.1,1.9-0.6,2.5c-1.7,1.3-4.3,3.9-5.5,5.7c-0.6,0.8-1.6,1.3-2.6,1.1
			c-2.2-0.4-5.8-0.3-7.9,0c-0.9,0.1-1.9-0.4-2.2-1.3l-2.9-6.9L37.3,1.3z"/>
	</g>
	<g>
		<path class="st9" d="M37.3,1.3l2.9,6.9c0.4,0.9,0.1,1.9-0.6,2.5c-1.7,1.4-4.3,3.9-5.5,5.7c-0.6,0.8-1.6,1.3-2.6,1.1
			c-2.2-0.4-5.8-0.3-8,0c-0.6,0.1-1.1-0.1-1.5-0.4c0.3,0.1,0.6,0.1,0.8,0.1c2.1-0.3,5.8-0.4,8,0c1,0.2,2-0.3,2.6-1.1
			c1.3-1.8,3.8-4.4,5.5-5.7c0.7-0.6,1-1.6,0.6-2.5l-2.7-6.3L37.3,1.3z"/>
	</g>
	<g>
		<path class="st9" d="M38.2,3.6l0.3,0.7l-8.1,6.2c-0.2,0.2-0.5,0.3-0.7,0.3l-10.1,1.5l-0.3-0.7l10.1-1.5c0.3,0,0.5-0.1,0.7-0.3
			L38.2,3.6z"/>
	</g>
	<g class="st10">
		<path class="st3" d="M23.4,16.4c-0.2,0.1-0.5,0-0.6-0.2l-0.4-0.9c-0.1-0.2,0-0.5,0.2-0.6c0.2-0.1,0.5,0,0.6,0.2l0.4,0.9
			C23.8,16.1,23.7,16.3,23.4,16.4z"/>
	</g>
	<g class="st10">
		<g>
			<path class="st3" d="M22.5,14.2c-0.2,0.1-0.5,0-0.6-0.2l-0.1-0.3c-0.1-0.2,0-0.5,0.2-0.6c0.2-0.1,0.5,0,0.6,0.2l0.1,0.3
				C22.8,13.8,22.7,14.1,22.5,14.2z"/>
		</g>
	</g>
	<g>
		<path class="st11" d="M40.9,0.2L41.2,1l0,0c0,0.1,0,0.3-0.1,0.4l-11,8.4c-0.2,0.2-0.5,0.3-0.7,0.3l-13.6,2c-0.2,0-0.3-0.1-0.4-0.2
			c0,0,0,0,0,0L15,11.2c0.1,0.1,0.2,0.3,0.4,0.2l13.6-2c0.3,0,0.5-0.2,0.7-0.3l11-8.4C40.9,0.6,41,0.4,40.9,0.2z"/>
	</g>
	<g>
		<path class="st8" d="M40.8,0.7l-11,8.4c-0.2,0.2-0.5,0.3-0.7,0.3l-13.6,2c-0.4,0.1-0.6-0.5-0.3-0.7l10.9-8.4
			c0.2-0.2,0.5-0.3,0.7-0.3l13.6-2C40.9-0.1,41.1,0.5,40.8,0.7z"/>
	</g>
	<g>
		<path class="st12" d="M16.9,16.3l-1.8-4.3c-0.3-0.7,0-1.5,0.7-1.8L28,5.1c0.1-0.1,0.3,0,0.3,0.1c0.1,0.1,0,0.3-0.1,0.3l-12.1,5.1
			c-0.4,0.2-0.7,0.7-0.5,1.2l1.8,4.3c0.1,0.1,0,0.3-0.1,0.3C17.1,16.5,17,16.5,16.9,16.3z"/>
	</g>
	<g>
		<path class="st12" d="M17.9,21l2.1-0.9c0.3-0.1,0.4-0.4,0.2-0.7l-1.7-2.2c0.1-0.2,0-0.5,0-0.7c-0.2-0.6-0.9-0.8-1.4-0.6
			c-0.5,0.2-0.8,0.9-0.6,1.4c0.1,0.2,0.3,0.4,0.5,0.5l0.4,2.7C17.3,20.9,17.6,21.1,17.9,21z"/>
	</g>
	<g>
		<path class="st13" d="M17.9,21l0.4-0.2c-0.3,0.1-0.6-0.1-0.6-0.3L17.3,18c0-0.2-0.1-0.3-0.2-0.4c-0.1-0.1-0.2-0.2-0.3-0.4
			c-0.2-0.5,0-1,0.4-1.3c-0.1,0-0.2,0-0.2,0.1c-0.5,0.2-0.8,0.9-0.6,1.4c0.1,0.2,0.3,0.4,0.5,0.5l0.4,2.7
			C17.3,20.9,17.6,21.1,17.9,21z"/>
	</g>
	<g>
		<path class="st12" d="M29.5,4.8c0.2,0.4-0.5,1.1-1.4,1.4c-0.9,0.4-1.8,0.4-2,0c-0.2-0.4,0.5-1.1,1.4-1.5
			C28.5,4.3,29.4,4.3,29.5,4.8z"/>
	</g>
</g>
</svg>
