<svg version="1.2" xmlns="http://www.w3.org/2000/svg" viewBox="0 0 64 80" width="64" height="80"><style>.a{fill:#fff}</style><path class="a" d="m58.2 30.7c-3-3.5-7.1-6-11.7-6.9v-0.5q0-0.5-0.3-0.9l-6.6-10c-0.3-0.4-0.8-0.7-1.3-0.7h-13.3v-10c0-0.9-0.7-1.7-1.6-1.7-0.9 0-1.7 0.8-1.7 1.7v10h-13.2c-0.6 0-1.1 0.3-1.4 0.7l-6.6 10q-0.3 0.4-0.3 0.9v55c0 1 0.7 1.7 1.7 1.7h43c0.9 0 1.6-0.7 1.6-1.7v-13.7q1.8-0.4 3.5-1.1c0.4-0.1 0.8-0.4 0.9-0.9 0.2-0.4 0.2-0.8 0-1.2q0-0.1 0-0.1c-0.3-0.8-1.3-1.2-2.1-0.9q-1.1 0.5-2.3 0.8-0.8 0.2-1.6 0.3-0.9 0.1-1.7 0.2-1.6 0-3.3-0.2-0.1 0-0.3-0.1-0.7-0.1-1.3-0.2-0.9-0.2-1.7-0.5c-6.9-2.4-11.6-8.9-11.6-16.5q0-1.5 0.3-2.8c0.6-3.9 2.3-7.2 4.9-9.7q0.9-0.9 1.9-1.7 1.4-0.9 2.8-1.6c2.3-1.1 4.8-1.7 7.5-1.7q0.4 0 0.8 0 0.8 0 1.7 0.2 0.1 0 0.3 0 0.7 0.1 1.3 0.3c7.8 1.9 13.3 8.8 13.3 17q0 1.4-0.3 2.8-0.5 3-1.9 5.5c-0.2 0.4-0.2 0.9-0.1 1.3q0.2 0.6 0.7 1 0.1 0 0.1 0c0.8 0.4 1.8 0.1 2.3-0.7 1.1-2 1.8-4.2 2.2-6.6q0.3-1.6 0.3-3.3c0-4.9-1.8-9.7-4.9-13.5zm-29.3-2.4h-20.4c-0.9 0-1.7 0.8-1.7 1.7v40c0 0.9 0.8 1.7 1.7 1.7h29.8c0.9 0 1.6-0.8 1.6-1.7v-5.2q1.3 0.2 2.5 0.2 0.4 0 0.8 0v11.7h-39.7v-52.9l5.9-8.8h12.3v2c-1.9 0.6-3.3 2.5-3.3 4.7 0 2.7 2.2 5 5 5 2.7 0 4.9-2.3 4.9-5 0-2.2-1.4-4-3.3-4.7v-2h12.4l5.5 8.3c-5-0.1-10 1.7-13.8 4.9q-0.1 0.1-0.2 0.1zm-6.9 12.5q-0.3 1.7-0.3 3.4c0 4.9 1.7 9.6 4.9 13.4 2.6 3.1 6.1 5.4 10 6.5v4.2h-26.5v-36.6h15.7c-1.9 2.6-3.3 5.8-3.8 9.1zm1.4-20.8c0.9 0 1.6 0.7 1.6 1.7 0 0.9-0.7 1.6-1.6 1.6-0.9 0-1.7-0.7-1.7-1.6 0-0.9 0.8-1.7 1.7-1.7zm32.9 37.4c0.6 0.7 0.5 1.7-0.2 2.4-0.3 0.2-0.7 0.4-1.1 0.4-0.5 0-0.9-0.2-1.2-0.6q0 0-0.1-0.1-0.4-0.5-0.3-1.1c0-0.4 0.2-0.8 0.5-1.1 0.7-0.6 1.7-0.6 2.3 0.1q0 0 0.1 0zm-2.9-16.8c-0.2-0.6-0.7-1.1-1.3-1.2l-5.6-0.9-1.6-3.1-1-2q-0.3-0.4-0.7-0.6c-0.7-0.4-1.9-0.2-2.3 0.6l-1 2-1.6 3.1-1.7 0.3-3.9 0.6c-0.6 0.1-1.1 0.6-1.3 1.2-0.2 0.6-0.1 1.2 0.4 1.6l4 4.1-0.9 5.7c-0.1 0.6 0.2 1.2 0.7 1.6q0.4 0.3 1 0.3 0 0 0 0 0.4 0 0.7-0.2l1-0.4 1.6-0.9 2.5-1.2 0.8 0.4 1.7 0.8 1.6 0.9 1 0.4c0.5 0.3 1.2 0.3 1.7-0.1 0.5-0.4 0.8-1 0.7-1.6l-0.9-5.7 4-4.1c0.4-0.4 0.6-1 0.4-1.6zm-6.9 3.5l-0.4 0.5c-0.4 0.4-0.5 0.9-0.5 1.4l0.5 3.3-1.2-0.6-1.7-0.8-0.1-0.1q-0.3-0.1-0.7-0.1-0.4 0-0.7 0.1l-1.8 0.9-1.2 0.6 0.5-3.3c0.1-0.5-0.1-1-0.5-1.4l-0.4-0.5-1.7-1.7-0.2-0.2 0.2-0.1 1.7-0.2 1.4-0.3q0.1 0 0.2 0c0.4-0.2 0.8-0.5 1-0.8l1.5-3 0.8 1.6 0.7 1.4c0.2 0.3 0.6 0.6 1 0.8q0.1 0 0.2 0l1.4 0.3 1.9 0.3z"/></svg>