<?xml version="1.0" encoding="utf-8"?>
<!-- Generator: Adobe Illustrator 26.5.0, SVG Export Plug-In . SVG Version: 6.00 Build 0)  -->
<svg version="1.1" id="Capa_1" xmlns="http://www.w3.org/2000/svg" xmlns:xlink="http://www.w3.org/1999/xlink" x="0px" y="0px"
	 width="70px" height="70px" viewBox="0 0 70 70" style="enable-background:new 0 0 70 70;" xml:space="preserve">
<style type="text/css">
	.st0{fill:#EDEDEF;}
	.st1{fill:#FEDB41;}
	.st2{fill:#00EFD1;}
	.st3{fill:#00ACEA;}
</style>
<path class="st0" d="M50.2,65.9c6.1-3.7,11.3-9,13.3-14.9c2.2-6.5-1.5-11.9-8.1-13.9c-2.9-0.9-6.3-1-9.3-1.7
	c-3.3-0.8-4.7-2.7-5.5-5.5c-1.7-6.1-4-12.2-11.1-14.8c-3.1-1.2-7-1.5-10.7-0.4C14.4,16,10.8,18.8,8,22c-3,3.4-5.9,7.8-6.6,12
	c-1.2,3.7-1.6,7.5-1.3,11.2C0.3,48.7,3.3,61.5,13,66.5C24.5,72.4,43.5,70,50.2,65.9z"/>
<g>
	<path class="st1" d="M60.2,0v24.3l0,0c-2.1-0.5-4.3-0.4-6.4,0.1V0H60.2z"/>
	<path class="st2" d="M48.8,27.1L48.8,27.1c-2.6,2.3-4.3,4.7-4.3,8.5c0,0.1,0,0.2,0,0.3h-2V25.1h6.3V27.1z"/>
	<rect x="42.5" y="4.8" class="st1" width="6.3" height="20.4"/>
	<rect x="31.3" y="25.1" class="st2" width="6.3" height="10.8"/>
	<rect x="31.3" y="9.6" class="st1" width="6.3" height="15.6"/>
	<rect x="20" y="25.1" class="st2" width="6.3" height="10.8"/>
	<rect x="20" y="18" class="st1" width="6.3" height="7.2"/>
	<path class="st3" d="M60.2,23.3c-6.8-1.6-13.7,2.6-15.3,9.5c-0.2,1-0.3,1.9-0.3,2.9c0,0.1,0,0.2,0,0.3c0.2,7,6,12.6,13,12.4
		s12.6-6,12.4-13C69.9,29.6,65.8,24.6,60.2,23.3L60.2,23.3z"/>
	<g>
		<path class="st1" d="M58.3,44.2h-2c-0.5,0-0.9-0.4-1-0.9l-0.1-0.8c-0.4-0.1-0.7-0.3-1.1-0.4l-0.7,0.5c-0.4,0.3-1,0.2-1.3-0.1
			L50.5,41c-0.4-0.4-0.4-0.9-0.1-1.3l0.5-0.7c-0.2-0.3-0.3-0.7-0.4-1.1l-0.8-0.1c-0.5-0.1-0.9-0.5-0.9-1v-2c0-0.5,0.4-0.9,0.9-1
			l0.8-0.1c0.1-0.4,0.3-0.7,0.4-1.1l-0.5-0.7c-0.3-0.4-0.2-1,0.1-1.3l1.4-1.4c0.4-0.4,0.9-0.4,1.3-0.1l0.7,0.5
			c0.3-0.2,0.7-0.3,1.1-0.4l0.1-0.9c0.1-0.5,0.5-0.9,1-0.9h2c0.5,0,0.9,0.4,1,0.9l0.1,0.8c0.4,0.1,0.7,0.3,1.1,0.4l0.7-0.5
			c0.4-0.3,1-0.3,1.3,0.1l1.4,1.4c0.4,0.4,0.4,0.9,0.1,1.3l-0.5,0.7c0.2,0.3,0.3,0.7,0.4,1.1l0.9,0.1c0.5,0.1,0.9,0.5,0.9,1v2
			c0,0.5-0.4,0.9-0.9,1l-0.9,0.1c-0.1,0.4-0.3,0.7-0.4,1.1l0.5,0.7c0.3,0.4,0.3,1-0.1,1.3l-1.4,1.4c-0.4,0.4-0.9,0.4-1.3,0.1
			L60.6,42c-0.3,0.2-0.7,0.3-1.1,0.4l-0.1,0.9C59.3,43.9,58.8,44.2,58.3,44.2z M57.2,42.1h0.3l0.1-0.6c0.1-0.4,0.4-0.8,0.8-0.8
			c0.6-0.1,1.2-0.4,1.7-0.7c0.4-0.2,0.8-0.2,1.1,0l0.5,0.4l0.2-0.2l-0.4-0.6c-0.3-0.3-0.3-0.8,0-1.2c0.3-0.5,0.6-1.1,0.7-1.7
			c0.1-0.4,0.4-0.7,0.8-0.8l0.7-0.1v-0.3l-0.6-0.1c-0.4-0.1-0.8-0.4-0.8-0.8c-0.1-0.6-0.4-1.2-0.7-1.7c-0.2-0.4-0.2-0.8,0-1.1
			l0.4-0.5L61.8,31l-0.5,0.4c-0.3,0.3-0.8,0.3-1.2,0c-0.5-0.3-1.1-0.6-1.7-0.7c-0.4-0.1-0.7-0.4-0.8-0.8l-0.1-0.6h-0.3L57,29.9
			c-0.1,0.4-0.4,0.8-0.8,0.8c-0.6,0.1-1.2,0.4-1.7,0.7c-0.4,0.2-0.8,0.2-1.1,0L52.8,31l-0.2,0.2l0.4,0.5c0.2,0.3,0.3,0.8,0,1.2
			c-0.3,0.5-0.6,1.1-0.7,1.7c-0.1,0.4-0.4,0.7-0.8,0.8l-0.6,0.1v0.3l0.6,0.1c0.4,0.1,0.8,0.4,0.8,0.8c0.1,0.6,0.4,1.2,0.7,1.7
			c0.2,0.4,0.2,0.8,0,1.1l-0.4,0.5l0.2,0.2l0.5-0.4c0.3-0.2,0.8-0.3,1.2,0c0.5,0.3,1.1,0.6,1.7,0.7c0.4,0.1,0.7,0.4,0.8,0.8
			L57.2,42.1z"/>
		<path class="st1" d="M57.3,39.2c-1.9,0-3.5-1.6-3.5-3.5s1.6-3.5,3.5-3.5c1.9,0,3.5,1.6,3.5,3.5S59.2,39.2,57.3,39.2z M57.3,34.2
			c-0.8,0-1.4,0.6-1.4,1.4c0,0.8,0.6,1.4,1.4,1.4c0.8,0,1.4-0.6,1.4-1.4C58.7,34.9,58.1,34.3,57.3,34.2z"/>
	</g>
</g>
</svg>
