<?xml version="1.0" encoding="utf-8"?>
<!-- Generator: Adobe Illustrator 26.5.0, SVG Export Plug-In . SVG Version: 6.00 Build 0)  -->
<svg version="1.1" id="Layer_1" xmlns="http://www.w3.org/2000/svg" xmlns:xlink="http://www.w3.org/1999/xlink" x="0px" y="0px"
	 width="80px" height="80px" viewBox="0 0 80 80" style="enable-background:new 0 0 80 80;" xml:space="preserve">
<style type="text/css">
	.st0{fill:#FFFFFF;}
</style>
<path class="st0" d="M30.7,5.4c-14,0-25.3,11.3-25.3,25.3c0,14,11.3,25.3,25.3,25.3c14,0,25.3-11.3,25.3-25.3
	C55.9,16.7,44.6,5.4,30.7,5.4z M30.7,53.3c-12.5,0-22.6-10.1-22.6-22.6c0-12.5,10.1-22.6,22.6-22.6c12.5,0,22.6,10.1,22.6,22.6
	C53.3,43.2,43.2,53.3,30.7,53.3z"/>
<path class="st0" d="M78.1,68.7l-15-15c-0.5-0.5-1.4-0.5-1.9,0l-0.9,0.9l-5.3-5.3c9.8-12.8,8-31-4.1-41.7C38.7-3,20.4-2.4,9,9
	S-3,38.7,7.6,50.8C18.2,63,36.5,64.8,49.3,54.9l5.3,5.3l-0.9,0.9c-0.5,0.5-0.5,1.4,0,1.9l15,15c2.6,2.6,6.8,2.6,9.4,0
	C80.6,75.5,80.7,71.3,78.1,68.7z M2.8,30.7c0-15.4,12.5-27.9,27.9-27.9c15.4,0,27.9,12.5,27.9,27.9c0,15.4-12.5,27.9-27.9,27.9
	C15.3,58.6,2.8,46.1,2.8,30.7z M53.2,51.3l5.1,5.1l-1.9,1.9l-5.1-5.1C52,52.6,52.6,52,53.2,51.3z M76.2,76.2c-1.6,1.6-4.1,1.6-5.6,0
	L56.5,62.1l5.6-5.6l14.1,14.1C77.7,72.1,77.7,74.6,76.2,76.2L76.2,76.2z"/>
<path class="st0" d="M39.2,33.6l-4.5-1.3v-1.7c1.7-1.2,2.7-3.2,2.7-5.3V24c0.7,0,1.3-0.6,1.3-1.3v-1.3c0-4.4-3.6-8-8-8
	c-4.4,0-8,3.6-8,8v1.3c0,0.7,0.6,1.3,1.3,1.3v1.3c0,2.1,1,4,2.7,5.3v1.7l-4.5,1.3c-2.9,0.8-4.8,3.4-4.8,6.4v6.6
	c0,0.7,0.6,1.3,1.3,1.3h23.9c0.7,0,1.3-0.6,1.3-1.3V40C44,37,42,34.4,39.2,33.6z M30.7,16.1c2.9,0,5.3,2.4,5.3,5.3
	c-0.4-0.1-0.7-0.3-0.9-0.7l-0.6-1.2c-0.2-0.3-0.5-0.6-0.8-0.7c-0.4-0.1-0.8,0-1.1,0.2l-2,1.3c-1.1,0.7-2.4,1.1-3.7,1.1h-1.6
	C25.4,18.4,27.7,16.1,30.7,16.1z M26.9,24c1.8,0,3.6-0.5,5.2-1.6l0.7-0.5c0.4,0.7,1.1,1.3,1.8,1.7v1.7c0,2.2-1.8,4-4,4
	c-2.2,0-4-1.8-4-4V24H26.9z M30.7,32c0.4,0,0.9,0,1.3-0.1v1.5c0,0.4,0.2,0.7,0.5,1l-1.8,1.3l-1.8-1.3c0.3-0.2,0.5-0.6,0.5-1v-1.5
	C29.8,32,30.2,32,30.7,32z M41.3,45.3h-2.7V40H36v5.3H25.4V40h-2.7v5.3H20V40c0-1.8,1.2-3.3,2.9-3.8l2.9-0.8l4.1,3
	c0.5,0.4,1.1,0.4,1.6,0l4.1-3l2.9,0.8c1.7,0.5,2.9,2.1,2.9,3.8V45.3z"/>
</svg>
