<?xml version="1.0" encoding="utf-8"?>
<!-- Generator: Adobe Illustrator 26.5.0, SVG Export Plug-In . SVG Version: 6.00 Build 0)  -->
<svg version="1.1" id="Layer_1" xmlns="http://www.w3.org/2000/svg" xmlns:xlink="http://www.w3.org/1999/xlink" x="0px" y="0px"
	 width="80px" height="80px" viewBox="0 0 80 80" style="enable-background:new 0 0 80 80;" xml:space="preserve">
<style type="text/css">
	.st0{fill:#FFFFFF;}
</style>
<g id="outline_cut_copy">
	<path class="st0" d="M5.3,36v5.3H8v-4h54.7v4h2.7V36c0-0.7-0.6-1.3-1.3-1.3H6.7C5.9,34.7,5.3,35.3,5.3,36z"/>
	<path class="st0" d="M77.3,70.7c0-0.7-0.6-1.3-1.3-1.3H65.3V68h-2.7v1.3H60v-2.9c0.4,0.2,0.9,0.2,1.3,0.2H64c2.2,0,4-1.8,4-4
		c0-1-0.4-2-1-2.7c1.4-1.5,1.4-3.8,0-5.3c1.4-1.5,1.4-3.8,0-5.3c1.5-1.6,1.4-4.1-0.3-5.6c-0.7-0.7-1.7-1-2.7-1h-2.7
		c-0.5,0-0.9,0.1-1.3,0.2v-1.6c0-0.7-0.6-1.3-1.3-1.3H12c-0.7,0-1.3,0.6-1.3,1.3v1.6c-0.4-0.2-0.9-0.2-1.3-0.2H6.7c-2.2,0-4,1.8-4,4
		c0,1,0.4,2,1,2.7c-1.4,1.5-1.4,3.8,0,5.3c-1.4,1.5-1.4,3.8,0,5.3c-1.5,1.6-1.4,4.1,0.3,5.6c0.7,0.7,1.7,1,2.7,1h2.7
		c0.5,0,0.9-0.1,1.3-0.2v2.9H8V68H5.3v5.3c0,3.7,3,6.7,6.7,6.7h58.7c3.7,0,6.7-3,6.7-6.7V70.7z M65.3,52c0,0.7-0.6,1.3-1.3,1.3h-2.7
		c-0.7,0-1.3-0.6-1.3-1.3s0.6-1.3,1.3-1.3H64C64.7,50.7,65.3,51.3,65.3,52z M65.3,57.3c0,0.7-0.6,1.3-1.3,1.3h-2.7
		c-0.7,0-1.3-0.6-1.3-1.3s0.6-1.3,1.3-1.3H64C64.7,56,65.3,56.6,65.3,57.3z M64,64h-2.7c-0.7,0-1.3-0.6-1.3-1.3s0.6-1.3,1.3-1.3H64
		c0.7,0,1.3,0.6,1.3,1.3S64.7,64,64,64z M61.3,45.3H64c0.7,0,1.3,0.6,1.3,1.3S64.7,48,64,48h-2.7c-0.7,0-1.3-0.6-1.3-1.3
		S60.6,45.3,61.3,45.3z M5.3,57.3c0-0.7,0.6-1.3,1.3-1.3h2.7c0.7,0,1.3,0.6,1.3,1.3s-0.6,1.3-1.3,1.3H6.7
		C5.9,58.7,5.3,58.1,5.3,57.3z M5.3,52c0-0.7,0.6-1.3,1.3-1.3h2.7c0.7,0,1.3,0.6,1.3,1.3s-0.6,1.3-1.3,1.3H6.7
		C5.9,53.3,5.3,52.7,5.3,52z M6.7,45.3h2.7c0.7,0,1.3,0.6,1.3,1.3S10.1,48,9.3,48H6.7c-0.7,0-1.3-0.6-1.3-1.3S5.9,45.3,6.7,45.3z
		 M9.3,64H6.7c-0.7,0-1.3-0.6-1.3-1.3s0.6-1.3,1.3-1.3h2.7c0.7,0,1.3,0.6,1.3,1.3S10.1,64,9.3,64z M13.3,42.7h44v26.7h-44V42.7z
		 M12,77.3c-2.2,0-4-1.8-4-4V72h16v1.3c0,2.2-1.8,4-4,4H12z M74.7,73.3c0,2.2-1.8,4-4,4H25.3c0.9-1.1,1.4-2.6,1.4-4V72h48V73.3z"/>
	<path class="st0" d="M54.7,32v-9.3h8V20h-8.2L52,1.2c-0.1-0.7-0.8-1.2-1.5-1.1c-0.2,0-0.4,0.1-0.5,0.2L36,9.1L22,0.2
		c-0.6-0.4-1.4-0.2-1.8,0.4C20.1,0.8,20,1,20,1.2L17.5,20H9.3v2.7h8V32H20v-9.3h1.5c0.7,4.3,4.8,7.3,9.2,6.6
		c1.9-0.3,3.5-1.3,4.8-2.7l1.1,5.7l2.6-0.5l-0.7-3.6c3.7,2.3,8.7,1.2,11-2.5c0.6-0.9,0.9-1.9,1.1-2.9H52V32H54.7z M22.4,3.6
		l12.9,8.2c0.4,0.3,1,0.3,1.4,0l12.9-8.2L51.8,20H20.2L22.4,3.6z M29.3,26.7c-2.4,0-4.5-1.7-5.1-4h10.3C33.9,25,31.8,26.7,29.3,26.7
		z M42.7,26.7c-2.4,0-4.5-1.7-5.1-4h10.3C47.2,25,45.1,26.7,42.7,26.7L42.7,26.7z"/>
	<path class="st0" d="M52,61.3v-12c0-0.7-0.6-1.3-1.3-1.3H20c-0.7,0-1.3,0.6-1.3,1.3v12c0,0.7,0.6,1.3,1.3,1.3h30.7
		C51.4,62.7,52,62.1,52,61.3z M49.3,60h-28v-9.3h28V60z"/>
	<path class="st0" d="M26.3,58.3l1.1-1.1l1.1,1.1l1.9-1.9l-1.1-1.1l1.1-1.1l-1.9-1.9l-1.1,1.1l-1.1-1.1l-1.9,1.9l1.1,1.1l-1.1,1.1
		L26.3,58.3z"/>
	<path class="st0" d="M34.3,58.3l1.1-1.1l1.1,1.1l1.9-1.9l-1.1-1.1l1.1-1.1l-1.9-1.9l-1.1,1.1l-1.1-1.1l-1.9,1.9l1.1,1.1l-1.1,1.1
		L34.3,58.3z"/>
	<path class="st0" d="M42.3,58.3l1.1-1.1l1.1,1.1l1.9-1.9l-1.1-1.1l1.1-1.1l-1.9-1.9l-1.1,1.1l-1.1-1.1l-1.9,1.9l1.1,1.1l-1.1,1.1
		L42.3,58.3z"/>
</g>
</svg>
