<?xml version="1.0" encoding="utf-8"?>
<!-- Generator: Adobe Illustrator 26.5.0, SVG Export Plug-In . SVG Version: 6.00 Build 0)  -->
<svg version="1.1" id="Icons" xmlns="http://www.w3.org/2000/svg" xmlns:xlink="http://www.w3.org/1999/xlink" x="0px" y="0px"
	 width="80px" height="80px" viewBox="0 0 80 80" style="enable-background:new 0 0 80 80;" xml:space="preserve">
<style type="text/css">
	.st0{fill:#FFFFFF;}
</style>
<path class="st0" d="M77.3,4H58.7V2.7c0-1-0.6-2-1.5-2.4c-0.9-0.4-2-0.3-2.7,0.3l-8.1,6.7c-0.6,0.5-1,1.3-1,2.1c0,0.2,0,0.3,0.1,0.5
	c-16.7-3-32.6,8.1-35.6,24.8c-2,11.3,2.4,22.7,11.5,29.7v1H2.7C1.2,65.3,0,66.5,0,68v5.3C0,74.8,1.2,76,2.7,76h18.7v1.3
	c0,1,0.6,2,1.5,2.4c0.9,0.4,2,0.3,2.7-0.3l8.1-6.7c0.6-0.5,1-1.3,1-2.1c0-0.2,0-0.3-0.1-0.5c16.7,3,32.6-8.1,35.6-24.8
	c2-11.3-2.4-22.7-11.5-29.7v-1h18.7c1.5,0,2.7-1.2,2.7-2.7V6.7C80,5.2,78.8,4,77.3,4z M24,77.3v-2.7c0-0.7-0.6-1.3-1.3-1.3h-20V68
	h20c0.7,0,1.3-0.6,1.3-1.3L23.9,64l8.1,6.7L24,77.3z M68,40c0,15.5-12.5,28-28,28c-3,0-5.9-0.5-8.7-1.4l-5.7-4.7
	c-0.8-0.6-1.8-0.8-2.7-0.3c-0.1,0.1-0.2,0.2-0.4,0.2c-12-9.7-14-27.3-4.3-39.4c7.3-9.1,19.4-12.7,30.5-9.1l5.7,4.7
	c0.8,0.6,1.8,0.8,2.7,0.3c0.1-0.1,0.2-0.2,0.4-0.2C64.1,23.5,68,31.5,68,40z M77.3,12h-20c-0.7,0-1.3,0.6-1.3,1.3l0.1,2.7L48,9.3
	l8-6.6v2.7c0,0.7,0.6,1.3,1.3,1.3h20V12z"/>
<path class="st0" d="M40,16c-13.3,0-24,10.7-24,24s10.7,24,24,24s24-10.7,24-24C64,26.8,53.2,16,40,16z M40,61.3
	c-11.8,0-21.3-9.6-21.3-21.3S28.2,18.7,40,18.7S61.3,28.2,61.3,40C61.3,51.8,51.8,61.3,40,61.3z"/>
<path class="st0" d="M49.3,34.7c0-3.2-2.2-5.9-5.3-6.5v-1.5c0-0.7-0.6-1.3-1.3-1.3s-1.3,0.6-1.3,1.3V28h-4v-1.3
	c0-0.7-0.6-1.3-1.3-1.3s-1.3,0.6-1.3,1.3V28h-1.3c-0.7,0-1.3,0.6-1.3,1.3s0.6,1.3,1.3,1.3h1.3v8h-1.3c-0.7,0-1.3,0.6-1.3,1.3
	s0.6,1.3,1.3,1.3h1.3v8h-1.3c-0.7,0-1.3,0.6-1.3,1.3s0.6,1.3,1.3,1.3h1.3v1.3c0,0.7,0.6,1.3,1.3,1.3s1.3-0.6,1.3-1.3V52h4v1.3
	c0,0.7,0.6,1.3,1.3,1.3s1.3-0.6,1.3-1.3v-1.5c3.6-0.7,5.9-4.3,5.2-7.9c-0.3-1.6-1.2-3-2.5-4C48.3,38.7,49.3,36.8,49.3,34.7z
	 M46.7,45.3c0,2.2-1.8,4-4,4h-5.3v-8h5.3C44.9,41.3,46.7,43.1,46.7,45.3z M42.7,38.7h-5.3v-8h5.3c2.2,0,4,1.8,4,4
	S44.9,38.7,42.7,38.7z"/>
</svg>
