<?xml version="1.0" encoding="utf-8"?>
<!-- Generator: Adobe Illustrator 26.5.0, SVG Export Plug-In . SVG Version: 6.00 Build 0)  -->
<svg version="1.1" id="Layer_1" xmlns="http://www.w3.org/2000/svg" xmlns:xlink="http://www.w3.org/1999/xlink" x="0px" y="0px"
	 width="65px" height="65px" viewBox="0 0 65 65" style="enable-background:new 0 0 65 65;" xml:space="preserve">
<style type="text/css">
	.st0{fill:#EDEDEF;}
	.st1{fill-rule:evenodd;clip-rule:evenodd;fill:#E6E6E6;}
	.st2{fill-rule:evenodd;clip-rule:evenodd;fill:#8EBFE8;}
	.st3{fill-rule:evenodd;clip-rule:evenodd;fill:#C4CCCF;}
	.st4{fill-rule:evenodd;clip-rule:evenodd;fill:#519AD6;}
	.st5{fill:#8BC34A;}
	.st6{fill:#FFD54F;}
	.st7{fill:#F0417B;}
	.st8{fill:#35505C;}
	.st9{fill-rule:evenodd;clip-rule:evenodd;fill:#ECEFF1;}
	.st10{fill-rule:evenodd;clip-rule:evenodd;fill:#546E7A;}
	.st11{fill-rule:evenodd;clip-rule:evenodd;fill:#FFD54F;}
	.st12{fill-rule:evenodd;clip-rule:evenodd;fill:#E6A235;}
	.st13{fill-rule:evenodd;clip-rule:evenodd;fill:#35505C;}
	.st14{fill-rule:evenodd;clip-rule:evenodd;fill:#8BC34A;}
	.st15{fill-rule:evenodd;clip-rule:evenodd;fill:#689F38;}
	.st16{fill-rule:evenodd;clip-rule:evenodd;fill:#F0417B;}
	.st17{fill-rule:evenodd;clip-rule:evenodd;fill:#A3316E;}
</style>
<path class="st0" d="M50.2,60.2c6.1-3.7,11.3-9,13.3-14.9c2.2-6.5-1.5-11.9-8.1-13.9c-2.9-0.9-6.3-1-9.3-1.7
	c-3.3-0.8-4.7-2.7-5.5-5.5c-1.7-6.1-4-12.2-11.1-14.8c-3.1-1.2-7-1.5-10.7-0.4c-4.4,1.3-8,4.1-10.8,7.3c-3,3.4-5.9,7.8-6.6,12
	C0.2,32-0.2,35.8,0.1,39.5C0.3,43,3.3,55.8,13,60.8C24.5,66.7,43.5,64.3,50.2,60.2z"/>
<g>
	<path class="st1" d="M15,6.5l20.7,2.9l20.7-2.9V1.8c0-1-0.8-1.8-1.8-1.8H16.8c-1,0-1.8,0.8-1.8,1.8V6.5z"/>
	<path class="st2" d="M43.4,6.5H15v36c0,1,0.8,1.8,1.8,1.8h37.8c1,0,1.8-0.8,1.8-1.8v-36H43.4z"/>
	<path class="st3" d="M52.6,6.5h3.8V1.8c0-0.6-0.3-1.1-0.8-1.5C55.4,0.1,55,0,54.6,0h-3.8c1,0,1.8,0.8,1.8,1.8V6.5z"/>
	<path class="st4" d="M55.6,6.5h-3v36c0,1-0.8,1.8-1.8,1.8h3.8c0.4,0,0.7-0.1,1-0.3c0.5-0.3,0.8-0.9,0.8-1.5v-36H55.6z"/>
	<path class="st5" d="M50.9,3.8L50.9,3.8c-0.4,0-0.8-0.3-0.8-0.8s0.3-0.8,0.8-0.8h0c0.4,0,0.8,0.3,0.8,0.8S51.3,3.8,50.9,3.8z"/>
	<path class="st6" d="M47.7,3.8L47.7,3.8c-0.4,0-0.8-0.3-0.8-0.8s0.3-0.8,0.8-0.8h0c0.4,0,0.8,0.3,0.8,0.8S48.1,3.8,47.7,3.8z"/>
	<path class="st7" d="M44.5,3.8L44.5,3.8c-0.4,0-0.8-0.3-0.8-0.8s0.3-0.8,0.8-0.8h0c0.4,0,0.8,0.3,0.8,0.8S44.9,3.8,44.5,3.8z"/>
	<path class="st8" d="M37.3,3.8H20.8c-0.4,0-0.8-0.3-0.8-0.8s0.3-0.8,0.8-0.8h16.5c0.4,0,0.8,0.3,0.8,0.8S37.7,3.8,37.3,3.8z"/>
	<path class="st8" d="M21.7,15.3h1.5c0.2,0,0.3,0.1,0.4,0.2c0.1,0.1,0.1,0.1,0.1,0.2c0,0.1,0,0.1,0,0.2c0,0.2-0.1,0.3-0.2,0.4
		c-0.1,0.1-0.3,0.2-0.4,0.2H21c-0.2,0-0.3-0.1-0.5-0.2c-0.1-0.1-0.2-0.3-0.2-0.5v-4.5c0-0.2,0.1-0.3,0.2-0.5
		c0.1-0.1,0.3-0.2,0.5-0.2h2.1c0.2,0,0.3,0.1,0.4,0.2c0.1,0.1,0.2,0.3,0.2,0.4c0,0.2-0.1,0.3-0.2,0.4c-0.1,0.1-0.3,0.2-0.4,0.2h-1.5
		v1.1H23c0.2,0,0.3,0.1,0.4,0.2c0.1,0.1,0.2,0.3,0.2,0.4c0,0.2-0.1,0.3-0.2,0.4c-0.1,0.1-0.3,0.2-0.4,0.2h-1.3V15.3z"/>
	<path class="st8" d="M27.3,14.4L26,16.2c-0.1,0.2-0.3,0.3-0.5,0.3c-0.2,0-0.3-0.1-0.5-0.2c-0.1-0.1-0.2-0.3-0.2-0.4
		c0-0.2,0-0.3,0.1-0.4l1.6-2.1l-1.3-1.7c-0.1-0.1-0.1-0.3-0.1-0.4c0-0.2,0.1-0.3,0.2-0.5c0.1-0.1,0.3-0.2,0.5-0.2
		c0.2,0,0.4,0.1,0.6,0.3l1,1.4l1-1.4c0.2-0.2,0.3-0.3,0.6-0.3c0.2,0,0.3,0.1,0.5,0.2c0.1,0.1,0.2,0.3,0.2,0.5c0,0.1,0,0.3-0.1,0.4
		l-1.3,1.7l1.6,2.1c0.1,0.1,0.1,0.3,0.1,0.4c0,0.2-0.1,0.3-0.2,0.4c-0.1,0.1-0.1,0.1-0.2,0.1c-0.1,0-0.2,0-0.3,0
		c-0.2,0-0.4-0.1-0.6-0.3L27.3,14.4z"/>
	<path class="st8" d="M32.2,15.3l-0.2,0.7c-0.1,0.3-0.3,0.5-0.6,0.5c-0.2,0-0.3-0.1-0.5-0.2c-0.1-0.1-0.2-0.3-0.2-0.5
		c0-0.1,0-0.2,0.1-0.3l1.6-4.3c0.2-0.5,0.5-0.7,1-0.7c0.5,0,0.8,0.2,0.9,0.7l1.6,4.3c0,0.1,0.1,0.2,0.1,0.4c0,0.1-0.1,0.3-0.2,0.4
		c-0.1,0.1-0.3,0.2-0.5,0.2c-0.3,0-0.5-0.1-0.6-0.4l-0.2-0.7H32.2z M33.3,11.9l-0.8,2.3l1.5,0L33.3,11.9z"/>
	<path class="st8" d="M38.9,12.7l-0.5,3.2c-0.1,0.4-0.3,0.6-0.7,0.6c-0.2,0-0.4-0.1-0.5-0.2s-0.2-0.3-0.2-0.5c0-0.1,0-0.1,0-0.1
		l0.8-4.5c0-0.2,0.1-0.4,0.3-0.5c0.2-0.1,0.4-0.2,0.6-0.2c0.4,0,0.7,0.2,0.9,0.7l0.9,3.1l0.9-3.1c0.1-0.4,0.4-0.7,0.9-0.7
		c0.2,0,0.4,0.1,0.6,0.2c0.2,0.1,0.3,0.3,0.3,0.5l0.8,4.5l0,0.1c0,0.2-0.1,0.4-0.2,0.5c-0.1,0.1-0.3,0.2-0.5,0.2
		c-0.4,0-0.6-0.2-0.7-0.6l-0.5-3.2l-1,3.3c-0.1,0.2-0.1,0.3-0.2,0.4c-0.1,0.1-0.2,0.1-0.4,0.1c-0.3,0-0.6-0.2-0.7-0.5L38.9,12.7z"/>
	<path class="st8" d="M37,20.1H21.2c-0.4,0-0.8-0.3-0.8-0.8s0.3-0.8,0.8-0.8H37c0.4,0,0.8,0.3,0.8,0.8S37.4,20.1,37,20.1z"/>
	<path class="st8" d="M37,24.5H21.2c-0.4,0-0.8-0.3-0.8-0.8c0-0.4,0.3-0.8,0.8-0.8H37c0.4,0,0.8,0.3,0.8,0.8S37.4,24.5,37,24.5z"/>
	<path class="st9" d="M22.2,27.8h27.1c0.6,0,1,0.5,1,1v9.9c0,0.6-0.5,1-1,1H22.2c-0.6,0-1-0.5-1-1v-9.9
		C21.2,28.3,21.6,27.8,22.2,27.8z"/>
	<path class="st8" d="M35.7,32.6H24c-0.4,0-0.8-0.3-0.8-0.8c0-0.4,0.3-0.8,0.8-0.8h11.7c0.4,0,0.8,0.3,0.8,0.8
		C36.5,32.3,36.2,32.6,35.7,32.6z"/>
	<path class="st8" d="M40.5,36.2H24c-0.4,0-0.8-0.3-0.8-0.8c0-0.4,0.3-0.8,0.8-0.8h16.5c0.4,0,0.8,0.3,0.8,0.8
		C41.2,35.8,40.9,36.2,40.5,36.2z"/>
	<g>
		<path class="st10" d="M40.6,33L40,34.5c-0.5,1.1,0.5,2.2,1.7,1.6l1.5-0.7l-0.3-2.2L40.6,33z"/>
		<path class="st11" d="M46.8,33.6l-1.2-3l-3.4-1.3L40.6,33l2.5,2.4L46.8,33.6z"/>
		<path class="st12" d="M44.9,31.8l-2.8,2.9l1,0.7l3.6-1.8L44.9,31.8z"/>
		<path class="st13" d="M42.3,34.6l-1.1,0.7c-0.8,0.3-1.1,0.2-1.3,0.1c0.2,0.7,0.9,1.2,1.8,0.8l1.5-0.7L42.3,34.6z"/>
		<path class="st14" d="M57.4,13.4l-14.3,15l-0.8,0.9l4.5,4.3l4.8-5.1l11.7-12.3h0l-1-3.3l-3.5-1L57.4,13.4z"/>
		<path class="st15" d="M44.9,31.8l1.9,1.8l4.8-5.1l11.7-12.3h0l-1.9-1.8L49.8,26.8L44.9,31.8z"/>
		<path class="st16" d="M64,11c-1.3-1.2-3.3-1.1-4.4,0.1L58.8,12l4.6,4.3l0.8-0.8C65.3,14.2,65.3,12.2,64,11z"/>
		<path class="st17" d="M62.9,10.3c0.4,1,0.3,2.2-0.5,3.1c-0.1,0.1-0.1,0.1-0.2,0.2l-0.8,0.8l1.9,1.8l0.8-0.8
			c1.2-1.2,1.2-3.2-0.1-4.4C63.7,10.7,63.3,10.5,62.9,10.3z"/>
	</g>
</g>
</svg>
