<svg version="1.2" xmlns="http://www.w3.org/2000/svg" viewBox="0 0 69 69" width="69" height="69"><style>.a{fill:#4eb1fc}.b{fill:#85caff}.c{fill:#fdb0a0}.d{fill:#ffcec0}.e{fill:#71e371}.f{fill:#88f288}.g{fill:#fcdb35}.h{fill:#ffeb87}</style><path fill-rule="evenodd" class="a" d="m10 9.4c4.7 0 8.6 3.6 9 8.3v1.5h-18v-1.5c0.4-4.7 4.3-8.3 9-8.3z"/><path fill-rule="evenodd" class="b" d="m16.6 19.2h-15.6v-1.5c0.3-4.3 3.6-7.7 7.8-8.2 4.1 0.5 7.4 3.9 7.8 8.2z"/><path fill-rule="evenodd" class="c" d="m10 9.4c-2.4 0-4.3-2-4.3-4.4 0-2.4 1.9-4.3 4.3-4.3 2.4 0 4.3 1.9 4.3 4.3 0 2.4-1.9 4.4-4.3 4.4z"/><path fill-rule="evenodd" class="d" d="m8.8 9.2c-1.8-0.5-3.1-2.2-3.1-4.2 0-2 1.3-3.6 3.1-4.2 1.8 0.6 3.1 2.2 3.1 4.2 0 2-1.3 3.7-3.1 4.2z"/><path fill-rule="evenodd" class="e" d="m19.9 23c4.2 0 7.7 2.8 8.7 6.7-2 0.7-3.8 1.7-5.4 3.1h-12.4v-1.5c0.5-4.7 4.3-8.3 9.1-8.3z"/><path fill-rule="evenodd" class="f" d="m23.2 32.8h-12.4v-1.5c0.4-4.3 3.7-7.7 7.8-8.2 4 0.5 7.2 3.6 7.8 7.6q-1.7 0.9-3.2 2.1z"/><path fill-rule="evenodd" class="c" d="m19.9 23c-2.4 0-4.3-2-4.3-4.4 0-2.4 1.9-4.3 4.3-4.3 2.4 0 4.3 1.9 4.3 4.3 0 2.4-1.9 4.4-4.3 4.4z"/><path fill-rule="evenodd" class="d" d="m18.7 22.8c-1.8-0.5-3.1-2.2-3.1-4.2 0-2 1.3-3.6 3.1-4.2 1.8 0.6 3.1 2.2 3.1 4.2 0 2-1.3 3.7-3.1 4.2z"/><path fill-rule="evenodd" class="g" d="m34.4 42.4c4.7 0 8.6 3.7 9 8.3v1.5h-18.1v-1.5c0.4-4.6 4.3-8.3 9.1-8.3z"/><path fill-rule="evenodd" class="h" d="m40.9 52.2h-15.6v-1.5c0.4-4.2 3.7-7.6 7.8-8.2 4.2 0.6 7.5 4 7.8 8.2z"/><path fill-rule="evenodd" class="c" d="m34.4 42.4c-2.4 0-4.4-1.9-4.4-4.3 0-2.4 2-4.4 4.4-4.4 2.3 0 4.3 2 4.3 4.4 0 2.4-2 4.3-4.3 4.3z"/><path fill-rule="evenodd" class="d" d="m33.2 42.2c-1.8-0.5-3.2-2.2-3.2-4.1 0-2 1.4-3.7 3.2-4.2 1.8 0.5 3.1 2.2 3.1 4.2 0 1.9-1.3 3.6-3.1 4.1z"/><path fill-rule="evenodd" class="b" d="m34.4 65.1h-33.5c-0.5 0-0.9-0.4-0.9-1 0-0.5 0.4-0.9 0.9-0.9h33.5c9.2 0 16.7-7.6 16.7-16.8 0-9.3-7.5-16.9-16.7-16.9-9.3 0-16.8 7.6-16.8 16.9 0 3.6 1.2 7.1 3.3 10l0.1-2.4c0-0.5 0.4-0.9 1-0.9 0.5 0 0.9 0.4 0.9 1l-0.1 4.9c0 0.2-0.1 0.5-0.4 0.7-0.2 0.2-0.5 0.2-0.8 0.2l-5.1-1.2c-0.5-0.1-0.8-0.6-0.7-1.1 0.1-0.6 0.6-0.9 1.1-0.8l2.4 0.6c-2.3-3.2-3.6-7.1-3.6-11 0-10.4 8.4-18.8 18.7-18.8 10.2 0 18.6 8.4 18.6 18.8 0 10.3-8.4 18.7-18.6 18.7z"/><path fill-rule="evenodd" class="b" d="m63.9 68.5c-0.3 0-0.6-0.1-0.7-0.3-0.4-0.4-0.3-1 0-1.4l2-1.7h-18.7c-0.5 0-0.9-0.4-0.9-1 0-0.5 0.4-0.9 0.9-0.9h18.7l-2-1.7c-0.3-0.4-0.4-1 0-1.4 0.3-0.4 0.9-0.4 1.3-0.1l3.9 3.4c0.2 0.2 0.3 0.5 0.3 0.7 0 0.3-0.1 0.6-0.3 0.8l-3.9 3.4q-0.3 0.2-0.6 0.2z"/><path fill-rule="evenodd" class="b" d="m42.2 31.4q-0.2 0-0.4-0.1c-2.7-1.1-5.1-2.9-6.7-5.3-1.8-2.5-2.7-5.4-2.7-8.5 0-8.1 6.6-14.7 14.7-14.7 8.1 0 14.7 6.6 14.7 14.7 0 2.4-0.6 4.8-1.7 6.9l1.9-0.8c0.5-0.2 1.1 0.1 1.3 0.5 0.2 0.5-0.1 1.1-0.6 1.3l-4.6 1.8c-0.3 0.1-0.5 0.1-0.8 0-0.2-0.2-0.4-0.4-0.5-0.7l-0.9-5.1c-0.1-0.5 0.2-1 0.7-1.1 0.6-0.1 1.1 0.3 1.2 0.8l0.5 2.7c1-1.9 1.6-4.1 1.6-6.3 0-7.1-5.8-12.8-12.8-12.8-7 0-12.8 5.7-12.8 12.8 0 5.3 3.3 10.1 8.2 12 0.5 0.2 0.8 0.8 0.6 1.3-0.2 0.3-0.5 0.6-0.9 0.6z"/></svg>